M48
; DRILL file KiCad 10.0.4+b1 date 2026-07-19T22:56:00
; FORMAT={-:-/ absolute / metric / decimal}
; #@! TF.CreationDate,2026-07-19T22:56:00+09:00
; #@! TF.GenerationSoftware,Kicad,Pcbnew,10.0.4+b1
; #@! TF.FileFunction,Plated,1,2,PTH
FMAT,2
METRIC
; #@! TA.AperFunction,Plated,PTH,ViaDrill
T1C0.300
; #@! TA.AperFunction,Plated,PTH,ComponentDrill
T2C0.800
; #@! TA.AperFunction,Plated,PTH,ComponentDrill
T3C0.950
; #@! TA.AperFunction,Plated,PTH,ComponentDrill
T4C1.000
%
G90
G05
T1
X20.32Y-18.415
X20.32Y-19.685
X20.32Y-26.035
X20.32Y-32.385
X20.32Y-40.64
X20.32Y-45.72
X20.32Y-50.8
X21.59Y-18.415
X22.217Y-48.887
X22.86Y-49.53
X24.13Y-48.26
X25.4Y-26.035
X25.4Y-32.385
X25.4Y-40.64
X25.4Y-45.72
X25.4Y-50.8
X27.94Y-29.21
X28.575Y-50.8
X29.21Y-41.91
X30.48Y-26.035
X30.48Y-32.385
X30.48Y-40.64
X30.48Y-45.72
X31.75Y-50.165
X33.02Y-49.53
X34.29Y-41.91
X35.56Y-26.035
X35.56Y-32.385
X35.56Y-40.64
X35.56Y-45.72
X39.37Y-27.94
X39.37Y-41.91
X39.37Y-48.26
X40.64Y-26.035
X40.64Y-32.385
X40.64Y-40.64
X40.64Y-45.72
X41.91Y-26.67
X43.18Y-29.21
X44.45Y-25.4
X44.45Y-41.91
X45.72Y-45.72
X46.99Y-28.361
X46.99Y-41.91
X49.53Y-25.4
X49.53Y-41.275
X49.53Y-50.8
X50.8Y-29.21
X51.435Y-45.72
X54.61Y-41.91
X55.88Y-20.32
X55.88Y-24.13
X55.88Y-30.48
X55.88Y-36.83
X56.515Y-41.275
X57.15Y-18.415
X57.15Y-45.72
X58.42Y-24.13
X58.42Y-30.48
X58.42Y-36.83
X59.135Y-19.05
X59.69Y-41.91
X60.96Y-48.26
X64.135Y-36.195
X64.77Y-48.895
X65.405Y-24.13
X65.485Y-26.927
X66.04Y-41.91
X66.675Y-29.21
X66.675Y-50.165
X68.58Y-40.64
X69.85Y-40.64
X71.477Y-29.467
X71.835Y-25.657
X72.39Y-38.735
X73.66Y-18.415
X73.66Y-41.91
X74.93Y-18.415
X74.93Y-19.685
T2
X25.4Y-20.32
X25.4Y-22.86
X25.4Y-35.56
X25.4Y-38.1
X27.94Y-20.32
X27.94Y-22.86
X27.94Y-35.56
X27.94Y-38.1
X30.48Y-20.32
X30.48Y-22.86
X30.48Y-35.56
X30.48Y-38.1
X33.02Y-20.32
X33.02Y-22.86
X33.02Y-35.56
X33.02Y-38.1
X35.56Y-20.32
X35.56Y-22.86
X35.56Y-35.56
X35.56Y-38.1
X38.1Y-20.32
X38.1Y-22.86
X38.1Y-35.56
X38.1Y-38.1
X40.64Y-20.32
X40.64Y-22.86
X40.64Y-35.56
X40.64Y-38.1
X43.18Y-20.32
X43.18Y-22.86
X43.18Y-35.56
X43.18Y-38.1
X45.72Y-20.32
X45.72Y-22.86
X45.72Y-35.56
X45.72Y-38.1
X48.26Y-20.32
X48.26Y-22.86
X48.26Y-35.56
X48.26Y-38.1
X50.8Y-20.32
X50.8Y-22.86
X50.8Y-35.56
X50.8Y-38.1
X53.34Y-20.32
X53.34Y-22.86
X53.34Y-35.56
X53.34Y-38.1
X60.445Y-26.927
X60.445Y-33.277
X62.945Y-26.927
X62.945Y-33.277
X71.16Y-36.83
X73.66Y-36.83
T3
X24.13Y-55.88
X26.63Y-55.88
X29.13Y-55.88
X31.63Y-55.88
X49.53Y-55.88
X52.03Y-55.88
X54.53Y-55.88
X57.03Y-55.88
X64.77Y-55.88
X67.27Y-55.88
X69.77Y-55.88
X72.27Y-55.88
T4
X39.37Y-55.88
X41.87Y-55.88
M30
