%TF.GenerationSoftware,KiCad,Pcbnew,10.0.4+b1*%
%TF.CreationDate,2026-07-19T22:56:05+09:00*%
%TF.ProjectId,md-opn2c,6d642d6f-706e-4326-932e-6b696361645f,rev?*%
%TF.SameCoordinates,Original*%
%TF.FileFunction,Copper,L2,Bot*%
%TF.FilePolarity,Positive*%
%FSLAX46Y46*%
G04 Gerber Fmt 4.6, Leading zero omitted, Abs format (unit mm)*
G04 Created by KiCad (PCBNEW 10.0.4+b1) date 2026-07-19 22:56:05*
%MOMM*%
%LPD*%
G01*
G04 APERTURE LIST*
G04 Aperture macros list*
%AMRoundRect*
0 Rectangle with rounded corners*
0 $1 Rounding radius*
0 $2 $3 $4 $5 $6 $7 $8 $9 X,Y pos of 4 corners*
0 Add a 4 corners polygon primitive as box body*
4,1,4,$2,$3,$4,$5,$6,$7,$8,$9,$2,$3,0*
0 Add four circle primitives for the rounded corners*
1,1,$1+$1,$2,$3*
1,1,$1+$1,$4,$5*
1,1,$1+$1,$6,$7*
1,1,$1+$1,$8,$9*
0 Add four rect primitives between the rounded corners*
20,1,$1+$1,$2,$3,$4,$5,0*
20,1,$1+$1,$4,$5,$6,$7,0*
20,1,$1+$1,$6,$7,$8,$9,0*
20,1,$1+$1,$8,$9,$2,$3,0*%
G04 Aperture macros list end*
%TA.AperFunction,ComponentPad*%
%ADD10C,1.600000*%
%TD*%
%TA.AperFunction,ComponentPad*%
%ADD11RoundRect,0.250000X0.550000X-0.550000X0.550000X0.550000X-0.550000X0.550000X-0.550000X-0.550000X0*%
%TD*%
%TA.AperFunction,ComponentPad*%
%ADD12RoundRect,0.250000X-0.600000X-0.725000X0.600000X-0.725000X0.600000X0.725000X-0.600000X0.725000X0*%
%TD*%
%TA.AperFunction,ComponentPad*%
%ADD13O,1.700000X1.950000*%
%TD*%
%TA.AperFunction,ComponentPad*%
%ADD14RoundRect,0.250000X-0.600000X-0.750000X0.600000X-0.750000X0.600000X0.750000X-0.600000X0.750000X0*%
%TD*%
%TA.AperFunction,ComponentPad*%
%ADD15O,1.700000X2.000000*%
%TD*%
%TA.AperFunction,ComponentPad*%
%ADD16RoundRect,0.250000X0.550000X0.550000X-0.550000X0.550000X-0.550000X-0.550000X0.550000X-0.550000X0*%
%TD*%
%TA.AperFunction,ComponentPad*%
%ADD17RoundRect,0.250000X-0.550000X-0.550000X0.550000X-0.550000X0.550000X0.550000X-0.550000X0.550000X0*%
%TD*%
%TA.AperFunction,ViaPad*%
%ADD18C,0.600000*%
%TD*%
%TA.AperFunction,Conductor*%
%ADD19C,0.254000*%
%TD*%
%TA.AperFunction,Conductor*%
%ADD20C,0.200000*%
%TD*%
G04 APERTURE END LIST*
D10*
%TO.P,U4,24,\u03A6M_24*%
%TO.N,/~{OPN_CLK}*%
X25400000Y-20320000D03*
%TO.P,U4,23,V_{CC}_23*%
%TO.N,VCC*%
X27940000Y-20320000D03*
%TO.P,U4,22,AV_{CC}_22*%
%TO.N,VCCA*%
X30480000Y-20320000D03*
%TO.P,U4,21,MOL_21*%
%TO.N,/OPN2C_MOL*%
X33020000Y-20320000D03*
%TO.P,U4,20,MOR_20*%
%TO.N,/OPN2C_MOR*%
X35560000Y-20320000D03*
%TO.P,U4,19,AGND_19*%
%TO.N,GNDA*%
X38100000Y-20320000D03*
%TO.P,U4,18,A_{1}_18*%
%TO.N,/OPN_A1_FILTERED*%
X40640000Y-20320000D03*
%TO.P,U4,17,A_{0}_17*%
%TO.N,/OPN_A0_FILTERED*%
X43180000Y-20320000D03*
%TO.P,U4,16,~{RD}_16*%
%TO.N,/~{OPN_RD}*%
X45720000Y-20320000D03*
%TO.P,U4,15,~{WR}_15*%
%TO.N,/~{OPN_WR}*%
X48260000Y-20320000D03*
%TO.P,U4,14,~{CS}_14*%
%TO.N,/~{OPN_CS}*%
X50800000Y-20320000D03*
%TO.P,U4,13,~{IRQ}_13*%
%TO.N,/~{OPN_IRQ}*%
X53340000Y-20320000D03*
%TO.P,U4,12,GND_12*%
%TO.N,GND*%
X53340000Y-35560000D03*
%TO.P,U4,11,~{IC}_11*%
%TO.N,/~{OPN_IC}*%
X50800000Y-35560000D03*
%TO.P,U4,10,~{TEST}_10*%
%TO.N,/~{OPN_TEST}*%
X48260000Y-35560000D03*
%TO.P,U4,9,D_{7}_9*%
%TO.N,/OPN_D7*%
X45720000Y-35560000D03*
%TO.P,U4,8,D_{6}_8*%
%TO.N,/OPN_D6*%
X43180000Y-35560000D03*
%TO.P,U4,7,D_{5}_7*%
%TO.N,/OPN_D5*%
X40640000Y-35560000D03*
%TO.P,U4,6,D_{4}_6*%
%TO.N,/OPN_D4*%
X38100000Y-35560000D03*
%TO.P,U4,5,D_{3}_5*%
%TO.N,/OPN_D3*%
X35560000Y-35560000D03*
%TO.P,U4,4,D_{2}_4*%
%TO.N,/OPN_D2*%
X33020000Y-35560000D03*
%TO.P,U4,3,D_{1}_3*%
%TO.N,/OPN_D1*%
X30480000Y-35560000D03*
%TO.P,U4,2,D_{0}_2*%
%TO.N,/OPN_D0*%
X27940000Y-35560000D03*
D11*
%TO.P,U4,1,GND_1*%
%TO.N,GND*%
X25400000Y-35560000D03*
%TD*%
D12*
%TO.P,JS2,1,Pin_1_1*%
%TO.N,/SL2*%
X49530000Y-55880000D03*
D13*
%TO.P,JS2,2,Pin_2_2*%
%TO.N,GNDA*%
X52030000Y-55880000D03*
%TO.P,JS2,3,Pin_3_3*%
X54530000Y-55880000D03*
%TO.P,JS2,4,Pin_4_4*%
%TO.N,/SR2*%
X57030000Y-55880000D03*
%TD*%
D12*
%TO.P,JS1,1,Pin_1_1*%
%TO.N,/SL1*%
X24130000Y-55880000D03*
D13*
%TO.P,JS1,2,Pin_2_2*%
%TO.N,GNDA*%
X26630000Y-55880000D03*
%TO.P,JS1,3,Pin_3_3*%
X29130000Y-55880000D03*
%TO.P,JS1,4,Pin_4_4*%
%TO.N,/SR1*%
X31630000Y-55880000D03*
%TD*%
D14*
%TO.P,JPSG1,1,Pin_1_1*%
%TO.N,/PSG*%
X39370000Y-55880000D03*
D15*
%TO.P,JPSG1,2,Pin_2_2*%
%TO.N,GNDA*%
X41870000Y-55880000D03*
%TD*%
D12*
%TO.P,JOUT1,1,Pin_1_1*%
%TO.N,/OUT_L*%
X64770000Y-55880000D03*
D13*
%TO.P,JOUT1,2,Pin_2_2*%
%TO.N,GNDA*%
X67270000Y-55880000D03*
%TO.P,JOUT1,3,Pin_3_3*%
X69770000Y-55880000D03*
%TO.P,JOUT1,4,Pin_4_4*%
%TO.N,/OUT_R*%
X72270000Y-55880000D03*
%TD*%
D11*
%TO.P,JOPN1,1,GND_1*%
%TO.N,GND*%
X25400000Y-38100000D03*
D10*
%TO.P,JOPN1,2,D_{0}_2*%
%TO.N,/OPN_D0*%
X27940000Y-38100000D03*
%TO.P,JOPN1,3,D_{1}_3*%
%TO.N,/OPN_D1*%
X30480000Y-38100000D03*
%TO.P,JOPN1,4,D_{2}_4*%
%TO.N,/OPN_D2*%
X33020000Y-38100000D03*
%TO.P,JOPN1,5,D_{3}_5*%
%TO.N,/OPN_D3*%
X35560000Y-38100000D03*
%TO.P,JOPN1,6,D_{4}_6*%
%TO.N,/OPN_D4*%
X38100000Y-38100000D03*
%TO.P,JOPN1,7,D_{5}_7*%
%TO.N,/OPN_D5*%
X40640000Y-38100000D03*
%TO.P,JOPN1,8,D_{6}_8*%
%TO.N,/OPN_D6*%
X43180000Y-38100000D03*
%TO.P,JOPN1,9,D_{7}_9*%
%TO.N,/OPN_D7*%
X45720000Y-38100000D03*
%TO.P,JOPN1,10,~{TEST}_10*%
%TO.N,/~{OPN_TEST}*%
X48260000Y-38100000D03*
%TO.P,JOPN1,11,~{IC}_11*%
%TO.N,/~{OPN_IC}*%
X50800000Y-38100000D03*
%TO.P,JOPN1,12,GND_12*%
%TO.N,GND*%
X53340000Y-38100000D03*
%TO.P,JOPN1,13,~{IRQ}_13*%
%TO.N,/~{OPN_IRQ}*%
X53340000Y-22860000D03*
%TO.P,JOPN1,14,~{CS}_14*%
%TO.N,/~{OPN_CS}*%
X50800000Y-22860000D03*
%TO.P,JOPN1,15,~{WR}_15*%
%TO.N,/~{OPN_WR}*%
X48260000Y-22860000D03*
%TO.P,JOPN1,16,~{RD}_16*%
%TO.N,/~{OPN_RD}*%
X45720000Y-22860000D03*
%TO.P,JOPN1,17,A_{0}_17*%
%TO.N,/OPN_A0*%
X43180000Y-22860000D03*
%TO.P,JOPN1,18,A_{1}_18*%
%TO.N,/OPN_A1*%
X40640000Y-22860000D03*
%TO.P,JOPN1,19,AGND_19*%
%TO.N,GNDA*%
X38100000Y-22860000D03*
%TO.P,JOPN1,20,MOR_20*%
%TO.N,/ORIG_OUT_R*%
X35560000Y-22860000D03*
%TO.P,JOPN1,21,MOL_21*%
%TO.N,/ORIG_OUT_L*%
X33020000Y-22860000D03*
%TO.P,JOPN1,22,AV_{CC}_22*%
%TO.N,VCCA*%
X30480000Y-22860000D03*
%TO.P,JOPN1,23,V_{CC}_23*%
%TO.N,VCC*%
X27940000Y-22860000D03*
%TO.P,JOPN1,24,\u03A6M_24*%
%TO.N,/~{OPN_CLK}*%
X25400000Y-22860000D03*
%TD*%
D16*
%TO.P,C15,1*%
%TO.N,Net-(C15-Pad1)*%
X62945000Y-26927500D03*
D10*
%TO.P,C15,2*%
%TO.N,/OUT_R*%
X60445000Y-26927500D03*
%TD*%
D16*
%TO.P,C14,1*%
%TO.N,Net-(C14-Pad1)*%
X62945000Y-33277500D03*
D10*
%TO.P,C14,2*%
%TO.N,/OUT_L*%
X60445000Y-33277500D03*
%TD*%
D17*
%TO.P,C13,1*%
%TO.N,/BIAS_2_5V*%
X71160000Y-36830000D03*
D10*
%TO.P,C13,2*%
%TO.N,GNDA*%
X73660000Y-36830000D03*
%TD*%
D18*
%TO.N,GNDA*%
X40640000Y-26035000D03*
X35560000Y-26035000D03*
X30480000Y-26035000D03*
X40640000Y-32385000D03*
X35560000Y-32385000D03*
X30480000Y-32385000D03*
X25400000Y-50800000D03*
X20320000Y-50800000D03*
X20320000Y-45720000D03*
X20320000Y-40640000D03*
X20320000Y-32385000D03*
X20320000Y-26035000D03*
X25400000Y-32385000D03*
X25400000Y-26035000D03*
X64770000Y-48895000D03*
X66675000Y-29210000D03*
X65405000Y-24130000D03*
X55880000Y-20320000D03*
X55880000Y-36830000D03*
X55880000Y-30480000D03*
X55880000Y-24130000D03*
X58420000Y-24130000D03*
X58420000Y-30480000D03*
X58420000Y-36830000D03*
X64135000Y-36195000D03*
X69850000Y-40640000D03*
X49530000Y-41275000D03*
X56515000Y-41275000D03*
X57150000Y-45720000D03*
X51435000Y-45720000D03*
X45720000Y-45720000D03*
X40640000Y-45720000D03*
X35560000Y-45720000D03*
X25400000Y-45720000D03*
X30480000Y-45720000D03*
X40640000Y-40640000D03*
X30480000Y-40640000D03*
X35560000Y-40640000D03*
X25400000Y-40640000D03*
X74930000Y-19685000D03*
X73660000Y-18415000D03*
X74930000Y-18415000D03*
X20320000Y-19685000D03*
X21590000Y-18415000D03*
X20320000Y-18415000D03*
%TO.N,/ORIG_OUT_L*%
X57150000Y-18415000D03*
%TO.N,/ORIG_OUT_R*%
X59135000Y-19050000D03*
%TO.N,/MIX_R*%
X73660000Y-41910000D03*
%TO.N,/BIAS_2_5V*%
X71477500Y-29467500D03*
%TO.N,/MIX_L*%
X68580000Y-40640000D03*
%TO.N,/OUT_R*%
X72390000Y-38735000D03*
%TO.N,/SL2*%
X28575000Y-50800000D03*
X49530000Y-50800000D03*
%TO.N,/SR1*%
X66675000Y-50165000D03*
X31750000Y-50165000D03*
%TO.N,/OPN2C_MOR*%
X22217000Y-48887000D03*
X60960000Y-48260000D03*
%TO.N,/OPN2C_MOL*%
X33020000Y-49530000D03*
X22860000Y-49530000D03*
%TO.N,/MIX_L*%
X39370000Y-41910000D03*
X34290000Y-41910000D03*
X44450000Y-41910000D03*
X29210000Y-41910000D03*
%TO.N,/MIX_R*%
X59690000Y-41910000D03*
X54610000Y-41910000D03*
X46990000Y-41910000D03*
X66040000Y-41910000D03*
%TO.N,/SL1*%
X24130000Y-48260000D03*
%TO.N,VCCA*%
X71835000Y-25657500D03*
X65485000Y-26927500D03*
%TO.N,VCC*%
X27940000Y-29210000D03*
X43180000Y-29210000D03*
%TO.N,/OPN_A0_FILTERED*%
X41910000Y-26670000D03*
X50800000Y-29210000D03*
%TO.N,/OPN_A1_FILTERED*%
X39370000Y-27940000D03*
X46990000Y-28361470D03*
%TO.N,/OPN_A1*%
X44450000Y-25400000D03*
%TO.N,/OPN_A0*%
X49530000Y-25400000D03*
%TO.N,/SL1*%
X39370000Y-48260000D03*
%TD*%
%TO.N,GND*%
D19*
X25400000Y-34925000D02*
X26670000Y-33655000D01*
X26670000Y-33655000D02*
X51435000Y-33655000D01*
X25400000Y-35560000D02*
X25400000Y-34925000D01*
X51435000Y-33655000D02*
X53340000Y-35560000D01*
%TO.N,VCCA*%
X36830000Y-22536181D02*
X36830000Y-23495000D01*
X37776181Y-21590000D02*
X36830000Y-22536181D01*
X36195000Y-24130000D02*
X31750000Y-24130000D01*
X60325000Y-21590000D02*
X37776181Y-21590000D01*
X65485000Y-26750000D02*
X60325000Y-21590000D01*
X36830000Y-23495000D02*
X36195000Y-24130000D01*
X65485000Y-26927500D02*
X65485000Y-26750000D01*
X31750000Y-24130000D02*
X30480000Y-22860000D01*
%TO.N,/ORIG_OUT_L*%
X55880000Y-18415000D02*
X57150000Y-18415000D01*
X55880000Y-18415000D02*
X34925000Y-18415000D01*
X34925000Y-18415000D02*
X34290000Y-19050000D01*
X34290000Y-19050000D02*
X34290000Y-21590000D01*
X34290000Y-21590000D02*
X33020000Y-22860000D01*
%TO.N,/ORIG_OUT_R*%
X42545000Y-19050000D02*
X37465000Y-19050000D01*
X42545000Y-19050000D02*
X59135000Y-19050000D01*
X37465000Y-19050000D02*
X36830000Y-19685000D01*
X36830000Y-19685000D02*
X36830000Y-21590000D01*
X36830000Y-21590000D02*
X35560000Y-22860000D01*
%TO.N,/MIX_R*%
X66040000Y-41910000D02*
X73660000Y-41910000D01*
%TO.N,/BIAS_2_5V*%
X71160000Y-36830000D02*
X71160000Y-29785000D01*
X71160000Y-29785000D02*
X71477500Y-29467500D01*
%TO.N,/MIX_L*%
X45720000Y-40640000D02*
X68580000Y-40640000D01*
%TO.N,/OUT_R*%
X72390000Y-38735000D02*
X67945000Y-38735000D01*
X67945000Y-38735000D02*
X65405000Y-36195000D01*
%TO.N,/MIX_L*%
X44450000Y-41910000D02*
X45720000Y-40640000D01*
%TO.N,/OUT_R*%
X61595000Y-29845000D02*
X60445000Y-28695000D01*
X60445000Y-28695000D02*
X60445000Y-26927500D01*
X65405000Y-36195000D02*
X65405000Y-32385000D01*
X65405000Y-32385000D02*
X62865000Y-29845000D01*
X62865000Y-29845000D02*
X61595000Y-29845000D01*
%TO.N,/SL2*%
X49530000Y-50800000D02*
X28575000Y-50800000D01*
%TO.N,/SR1*%
X31750000Y-50165000D02*
X66675000Y-50165000D01*
%TO.N,/OPN2C_MOR*%
X22217000Y-48887000D02*
X60333000Y-48887000D01*
X60333000Y-48887000D02*
X60960000Y-48260000D01*
%TO.N,/OPN2C_MOL*%
X22860000Y-49530000D02*
X33020000Y-49530000D01*
%TO.N,/MIX_L*%
X44450000Y-41910000D02*
X39370000Y-41910000D01*
X39370000Y-41910000D02*
X34290000Y-41910000D01*
X34290000Y-41910000D02*
X29210000Y-41910000D01*
%TO.N,/MIX_R*%
X66040000Y-41910000D02*
X59690000Y-41910000D01*
X59690000Y-41910000D02*
X54610000Y-41910000D01*
X54610000Y-41910000D02*
X46990000Y-41910000D01*
%TO.N,VCCA*%
X70565000Y-26927500D02*
X71835000Y-25657500D01*
X65485000Y-26927500D02*
X70565000Y-26927500D01*
%TO.N,VCC*%
X43180000Y-29210000D02*
X27940000Y-29210000D01*
%TO.N,/OPN_A0_FILTERED*%
D20*
X48260000Y-26670000D02*
X41910000Y-26670000D01*
X50800000Y-29210000D02*
X48260000Y-26670000D01*
%TO.N,/OPN_A1_FILTERED*%
X39791470Y-28361470D02*
X39370000Y-27940000D01*
X46990000Y-28361470D02*
X39791470Y-28361470D01*
%TO.N,/OPN_A1*%
X40640000Y-22860000D02*
X43180000Y-25400000D01*
X43180000Y-25400000D02*
X44450000Y-25400000D01*
%TO.N,/OPN_A0*%
X49530000Y-25400000D02*
X45720000Y-25400000D01*
X45720000Y-25400000D02*
X43180000Y-22860000D01*
%TO.N,/SL1*%
D19*
X24130000Y-48260000D02*
X39370000Y-48260000D01*
%TD*%
%TA.AperFunction,Conductor*%
%TO.N,GNDA*%
G36*
X28668569Y-55648013D02*
G01*
X28686582Y-55691500D01*
X28684486Y-55707417D01*
X28655000Y-55817460D01*
X28655000Y-55942539D01*
X28684486Y-56052583D01*
X28678342Y-56099250D01*
X28640999Y-56127904D01*
X28625082Y-56130000D01*
X27134918Y-56130000D01*
X27091431Y-56111987D01*
X27073418Y-56068500D01*
X27075514Y-56052583D01*
X27104999Y-55942539D01*
X27105000Y-55942537D01*
X27105000Y-55817462D01*
X27104999Y-55817460D01*
X27075514Y-55707417D01*
X27081658Y-55660750D01*
X27119001Y-55632096D01*
X27134918Y-55630000D01*
X28625082Y-55630000D01*
X28668569Y-55648013D01*
G37*
%TD.AperFunction*%
%TA.AperFunction,Conductor*%
G36*
X54068569Y-55648013D02*
G01*
X54086582Y-55691500D01*
X54084486Y-55707417D01*
X54055000Y-55817460D01*
X54055000Y-55942539D01*
X54084486Y-56052583D01*
X54078342Y-56099250D01*
X54040999Y-56127904D01*
X54025082Y-56130000D01*
X52534918Y-56130000D01*
X52491431Y-56111987D01*
X52473418Y-56068500D01*
X52475514Y-56052583D01*
X52504999Y-55942539D01*
X52505000Y-55942537D01*
X52505000Y-55817462D01*
X52504999Y-55817460D01*
X52475514Y-55707417D01*
X52481658Y-55660750D01*
X52519001Y-55632096D01*
X52534918Y-55630000D01*
X54025082Y-55630000D01*
X54068569Y-55648013D01*
G37*
%TD.AperFunction*%
%TA.AperFunction,Conductor*%
G36*
X69272760Y-55633180D02*
G01*
X69280999Y-55632096D01*
X69293734Y-55641868D01*
X69308569Y-55648013D01*
X69311749Y-55655691D01*
X69318342Y-55660750D01*
X69320437Y-55676665D01*
X69326582Y-55691500D01*
X69324486Y-55707417D01*
X69295000Y-55817460D01*
X69295000Y-55942539D01*
X69324486Y-56052583D01*
X69318342Y-56099250D01*
X69280999Y-56127904D01*
X69265082Y-56130000D01*
X67774918Y-56130000D01*
X67731431Y-56111987D01*
X67713418Y-56068500D01*
X67715514Y-56052583D01*
X67744999Y-55942539D01*
X67745000Y-55942537D01*
X67745000Y-55817462D01*
X67744999Y-55817460D01*
X67715514Y-55707417D01*
X67721658Y-55660750D01*
X67759001Y-55632096D01*
X67774918Y-55630000D01*
X69265082Y-55630000D01*
X69272760Y-55633180D01*
G37*
%TD.AperFunction*%
%TA.AperFunction,Conductor*%
G36*
X74198884Y-17645539D02*
G01*
X74201105Y-17645618D01*
X74203280Y-17645734D01*
X74406834Y-17660292D01*
X74411164Y-17660757D01*
X74415517Y-17661382D01*
X74419826Y-17662160D01*
X74616049Y-17704845D01*
X74620275Y-17705925D01*
X74624488Y-17707162D01*
X74628624Y-17708539D01*
X74816735Y-17778701D01*
X74820771Y-17780371D01*
X74824790Y-17782207D01*
X74828701Y-17784165D01*
X75004902Y-17880379D01*
X75008679Y-17882620D01*
X75012365Y-17884989D01*
X75015969Y-17887492D01*
X75176679Y-18007797D01*
X75180096Y-18010550D01*
X75183413Y-18013424D01*
X75186628Y-18016417D01*
X75328581Y-18158370D01*
X75331574Y-18161585D01*
X75334448Y-18164902D01*
X75337201Y-18168319D01*
X75457506Y-18329029D01*
X75460009Y-18332633D01*
X75462378Y-18336319D01*
X75464619Y-18340096D01*
X75560830Y-18516292D01*
X75562797Y-18520222D01*
X75564622Y-18524219D01*
X75566300Y-18528271D01*
X75617012Y-18664233D01*
X75634822Y-18711986D01*
X75636451Y-18716352D01*
X75637837Y-18720514D01*
X75639072Y-18724719D01*
X75640159Y-18728976D01*
X75682836Y-18925161D01*
X75683617Y-18929493D01*
X75684240Y-18933832D01*
X75684707Y-18938185D01*
X75699263Y-19141692D01*
X75699380Y-19143864D01*
X75699460Y-19146083D01*
X75699500Y-19148299D01*
X75699500Y-57686699D01*
X75699460Y-57688915D01*
X75699380Y-57691134D01*
X75699263Y-57693306D01*
X75684707Y-57896813D01*
X75684240Y-57901166D01*
X75683617Y-57905505D01*
X75682836Y-57909837D01*
X75640159Y-58106022D01*
X75639072Y-58110279D01*
X75637837Y-58114484D01*
X75636451Y-58118646D01*
X75566300Y-58306727D01*
X75564622Y-58310779D01*
X75562797Y-58314776D01*
X75560830Y-58318706D01*
X75464619Y-58494902D01*
X75462378Y-58498679D01*
X75460009Y-58502365D01*
X75457506Y-58505969D01*
X75337201Y-58666679D01*
X75334448Y-58670096D01*
X75331574Y-58673413D01*
X75328581Y-58676628D01*
X75186628Y-58818581D01*
X75183413Y-58821574D01*
X75180096Y-58824448D01*
X75176679Y-58827201D01*
X75015969Y-58947506D01*
X75012365Y-58950009D01*
X75008679Y-58952378D01*
X75004902Y-58954619D01*
X74828706Y-59050830D01*
X74824776Y-59052797D01*
X74820779Y-59054622D01*
X74816727Y-59056300D01*
X74628646Y-59126451D01*
X74624484Y-59127837D01*
X74620279Y-59129072D01*
X74616022Y-59130159D01*
X74419837Y-59172836D01*
X74415516Y-59173615D01*
X74411176Y-59174239D01*
X74406811Y-59174708D01*
X74252355Y-59185755D01*
X74203303Y-59189263D01*
X74201133Y-59189380D01*
X74198915Y-59189460D01*
X74196698Y-59189500D01*
X21053302Y-59189500D01*
X21051089Y-59189460D01*
X21048867Y-59189380D01*
X21046692Y-59189263D01*
X20843184Y-59174707D01*
X20838827Y-59174239D01*
X20834490Y-59173616D01*
X20830162Y-59172836D01*
X20633976Y-59130159D01*
X20629719Y-59129072D01*
X20625514Y-59127837D01*
X20621352Y-59126451D01*
X20433271Y-59056300D01*
X20429219Y-59054622D01*
X20425222Y-59052797D01*
X20421292Y-59050830D01*
X20245096Y-58954619D01*
X20241319Y-58952378D01*
X20237633Y-58950009D01*
X20234029Y-58947506D01*
X20073319Y-58827201D01*
X20069902Y-58824448D01*
X20066585Y-58821574D01*
X20063370Y-58818581D01*
X19921417Y-58676628D01*
X19918424Y-58673413D01*
X19915550Y-58670096D01*
X19912797Y-58666679D01*
X19792492Y-58505969D01*
X19789989Y-58502365D01*
X19787620Y-58498679D01*
X19785379Y-58494902D01*
X19689168Y-58318706D01*
X19687201Y-58314776D01*
X19685376Y-58310779D01*
X19683698Y-58306727D01*
X19668258Y-58265331D01*
X19613541Y-58118628D01*
X19612168Y-58114505D01*
X19610921Y-58110261D01*
X19609843Y-58106037D01*
X19567160Y-57909826D01*
X19566381Y-57905505D01*
X19565757Y-57901164D01*
X19565292Y-57896826D01*
X19550736Y-57693306D01*
X19550618Y-57691104D01*
X19550539Y-57688882D01*
X19550500Y-57686697D01*
X19550500Y-55107118D01*
X23029500Y-55107118D01*
X23029500Y-56652871D01*
X23035908Y-56712481D01*
X23035910Y-56712488D01*
X23077254Y-56823337D01*
X23077255Y-56823339D01*
X23079287Y-56828786D01*
X23085116Y-56844415D01*
X23086203Y-56847328D01*
X23086205Y-56847333D01*
X23114005Y-56884468D01*
X23172454Y-56962546D01*
X23287669Y-57048796D01*
X23422517Y-57099091D01*
X23482127Y-57105500D01*
X24777872Y-57105499D01*
X24837483Y-57099091D01*
X24972331Y-57048796D01*
X25087546Y-56962546D01*
X25173796Y-56847331D01*
X25224091Y-56712483D01*
X25230500Y-56652873D01*
X25230499Y-56466998D01*
X25235177Y-56443948D01*
X25235179Y-56443467D01*
X25236859Y-56439411D01*
X25237399Y-56438107D01*
X25237480Y-56438026D01*
X25237613Y-56437713D01*
X25249286Y-56426219D01*
X25270680Y-56404824D01*
X25271016Y-56404823D01*
X25271154Y-56404689D01*
X25288370Y-56404822D01*
X25317750Y-56404821D01*
X25318020Y-56405053D01*
X25318223Y-56405055D01*
X25319327Y-56406177D01*
X25346857Y-56429838D01*
X25346886Y-56429886D01*
X25350539Y-56437877D01*
X25351247Y-56438596D01*
X25351240Y-56439411D01*
X25352737Y-56442684D01*
X25379055Y-56523681D01*
X25380004Y-56525375D01*
X25475343Y-56712488D01*
X25475380Y-56712559D01*
X25600278Y-56884466D01*
X25750532Y-57034720D01*
X25882360Y-57130499D01*
X25922445Y-57159622D01*
X26109632Y-57254999D01*
X26111319Y-57255943D01*
X26111775Y-57256091D01*
X26111777Y-57256092D01*
X26111778Y-57256093D01*
X26313874Y-57321758D01*
X26379999Y-57332231D01*
X26380000Y-57332231D01*
X26380000Y-57332230D01*
X26380000Y-56384917D01*
X26398013Y-56341430D01*
X26441500Y-56323417D01*
X26457415Y-56325512D01*
X26502009Y-56337461D01*
X26567463Y-56355000D01*
X26692535Y-56355000D01*
X26692536Y-56355000D01*
X26739115Y-56342519D01*
X26802582Y-56325513D01*
X26849250Y-56331656D01*
X26877904Y-56368999D01*
X26880000Y-56384917D01*
X26880000Y-57332230D01*
X26880000Y-57332231D01*
X26946125Y-57321758D01*
X27148221Y-57256093D01*
X27148222Y-57256092D01*
X27148223Y-57256091D01*
X27148680Y-57255943D01*
X27150366Y-57254999D01*
X27337554Y-57159622D01*
X27509468Y-57034719D01*
X27659719Y-56884468D01*
X27784622Y-56712554D01*
X27819650Y-56643807D01*
X27834498Y-56624972D01*
X27841082Y-56619348D01*
X27885845Y-56604801D01*
X27924511Y-56622625D01*
X27927909Y-56626023D01*
X27939219Y-56641590D01*
X27975378Y-56712556D01*
X28100278Y-56884466D01*
X28250532Y-57034720D01*
X28382360Y-57130499D01*
X28422445Y-57159622D01*
X28609632Y-57254999D01*
X28611319Y-57255943D01*
X28611775Y-57256091D01*
X28611777Y-57256092D01*
X28611778Y-57256093D01*
X28813874Y-57321758D01*
X28879999Y-57332231D01*
X28880000Y-57332231D01*
X28880000Y-57332230D01*
X28880000Y-56384917D01*
X28898013Y-56341430D01*
X28941500Y-56323417D01*
X28957415Y-56325512D01*
X29002009Y-56337461D01*
X29067463Y-56355000D01*
X29192535Y-56355000D01*
X29192536Y-56355000D01*
X29239115Y-56342519D01*
X29302582Y-56325513D01*
X29349250Y-56331656D01*
X29377904Y-56368999D01*
X29380000Y-56384917D01*
X29380000Y-57332230D01*
X29380000Y-57332231D01*
X29446125Y-57321758D01*
X29648221Y-57256093D01*
X29648222Y-57256092D01*
X29648223Y-57256091D01*
X29648680Y-57255943D01*
X29650366Y-57254999D01*
X29837554Y-57159622D01*
X30009468Y-57034719D01*
X30159719Y-56884468D01*
X30284622Y-56712554D01*
X30379999Y-56525366D01*
X30380944Y-56523678D01*
X30381092Y-56523221D01*
X30381093Y-56523221D01*
X30446758Y-56321124D01*
X30446986Y-56319681D01*
X30455287Y-56297170D01*
X30458750Y-56291519D01*
X30496825Y-56263850D01*
X30543316Y-56271207D01*
X30544009Y-56271632D01*
X30570361Y-56305062D01*
X30610127Y-56427447D01*
X30688770Y-56581792D01*
X30790582Y-56721924D01*
X30913074Y-56844416D01*
X30951491Y-56872328D01*
X30951492Y-56872328D01*
X31053212Y-56946232D01*
X31207555Y-57024873D01*
X31372296Y-57078401D01*
X31372299Y-57078402D01*
X31543389Y-57105500D01*
X31543393Y-57105500D01*
X31716607Y-57105500D01*
X31716611Y-57105500D01*
X31887701Y-57078402D01*
X32052445Y-57024873D01*
X32206788Y-56946232D01*
X32346928Y-56844414D01*
X32469414Y-56721928D01*
X32571232Y-56581788D01*
X32649873Y-56427445D01*
X32703402Y-56262701D01*
X32730500Y-56091611D01*
X32730500Y-55668389D01*
X32703402Y-55497299D01*
X32649873Y-55332555D01*
X32571232Y-55178212D01*
X32530864Y-55122651D01*
X32526483Y-55116618D01*
X32501424Y-55082128D01*
X38269500Y-55082128D01*
X38269500Y-56677872D01*
X38273221Y-56712483D01*
X38275908Y-56737481D01*
X38275910Y-56737488D01*
X38326189Y-56872292D01*
X38326205Y-56872333D01*
X38326206Y-56872335D01*
X38353999Y-56909461D01*
X38354004Y-56909467D01*
X38354005Y-56909468D01*
X38412454Y-56987546D01*
X38527669Y-57073796D01*
X38662517Y-57124091D01*
X38722127Y-57130500D01*
X40017872Y-57130499D01*
X40077483Y-57124091D01*
X40212331Y-57073796D01*
X40327546Y-56987546D01*
X40413796Y-56872331D01*
X40464091Y-56737483D01*
X40470500Y-56677873D01*
X40470499Y-56491998D01*
X40475177Y-56468948D01*
X40475179Y-56468467D01*
X40476859Y-56464411D01*
X40477399Y-56463107D01*
X40477480Y-56463026D01*
X40477613Y-56462713D01*
X40489286Y-56451219D01*
X40510680Y-56429824D01*
X40511016Y-56429823D01*
X40511154Y-56429689D01*
X40528370Y-56429822D01*
X40557750Y-56429821D01*
X40558020Y-56430053D01*
X40558223Y-56430055D01*
X40559327Y-56431177D01*
X40586857Y-56454838D01*
X40586886Y-56454886D01*
X40590539Y-56462877D01*
X40591247Y-56463596D01*
X40591240Y-56464411D01*
X40592737Y-56467684D01*
X40619055Y-56548681D01*
X40620004Y-56550375D01*
X40715343Y-56737488D01*
X40715380Y-56737559D01*
X40840278Y-56909466D01*
X40990532Y-57059720D01*
X41128032Y-57159620D01*
X41162445Y-57184622D01*
X41349632Y-57279999D01*
X41351319Y-57280943D01*
X41351775Y-57281091D01*
X41351777Y-57281092D01*
X41351778Y-57281093D01*
X41553874Y-57346758D01*
X41619999Y-57357231D01*
X41620000Y-57357231D01*
X41620000Y-57357230D01*
X41620000Y-56410798D01*
X41638013Y-56367311D01*
X41681500Y-56349298D01*
X41697416Y-56351393D01*
X41710875Y-56355000D01*
X41804172Y-56380000D01*
X41935826Y-56380000D01*
X41935827Y-56380000D01*
X42029125Y-56355000D01*
X42042582Y-56351394D01*
X42089249Y-56357537D01*
X42117904Y-56394880D01*
X42120000Y-56410798D01*
X42120000Y-57357230D01*
X42120000Y-57357231D01*
X42186125Y-57346758D01*
X42388221Y-57281093D01*
X42388222Y-57281092D01*
X42388223Y-57281091D01*
X42388680Y-57280943D01*
X42390366Y-57279999D01*
X42577554Y-57184622D01*
X42749468Y-57059719D01*
X42899719Y-56909468D01*
X43024622Y-56737554D01*
X43119999Y-56550366D01*
X43120944Y-56548678D01*
X43121092Y-56548221D01*
X43121093Y-56548221D01*
X43186757Y-56346126D01*
X43219999Y-56136250D01*
X43220000Y-56136242D01*
X43220000Y-56130000D01*
X42400798Y-56130000D01*
X42357311Y-56111987D01*
X42339298Y-56068500D01*
X42341394Y-56052582D01*
X42370000Y-55945828D01*
X42370000Y-55814171D01*
X42341394Y-55707418D01*
X42347537Y-55660751D01*
X42384880Y-55632096D01*
X42400798Y-55630000D01*
X43220000Y-55630000D01*
X43220000Y-55623762D01*
X43220000Y-55623757D01*
X43219999Y-55623749D01*
X43186757Y-55413873D01*
X43121093Y-55211778D01*
X43084851Y-55140650D01*
X43081158Y-55133402D01*
X43081157Y-55133401D01*
X43081156Y-55133399D01*
X43067765Y-55107118D01*
X48429500Y-55107118D01*
X48429500Y-56652871D01*
X48435908Y-56712481D01*
X48435910Y-56712488D01*
X48477254Y-56823337D01*
X48477255Y-56823339D01*
X48479287Y-56828786D01*
X48485116Y-56844415D01*
X48486203Y-56847328D01*
X48486205Y-56847333D01*
X48514005Y-56884468D01*
X48572454Y-56962546D01*
X48687669Y-57048796D01*
X48822517Y-57099091D01*
X48882127Y-57105500D01*
X50177872Y-57105499D01*
X50237483Y-57099091D01*
X50372331Y-57048796D01*
X50487546Y-56962546D01*
X50573796Y-56847331D01*
X50624091Y-56712483D01*
X50630500Y-56652873D01*
X50630499Y-56466998D01*
X50635177Y-56443948D01*
X50635179Y-56443467D01*
X50636859Y-56439411D01*
X50637399Y-56438107D01*
X50637480Y-56438026D01*
X50637613Y-56437713D01*
X50649286Y-56426219D01*
X50670680Y-56404824D01*
X50671016Y-56404823D01*
X50671154Y-56404689D01*
X50688370Y-56404822D01*
X50717750Y-56404821D01*
X50718020Y-56405053D01*
X50718223Y-56405055D01*
X50719327Y-56406177D01*
X50746857Y-56429838D01*
X50746886Y-56429886D01*
X50750539Y-56437877D01*
X50751247Y-56438596D01*
X50751240Y-56439411D01*
X50752737Y-56442684D01*
X50779055Y-56523681D01*
X50780004Y-56525375D01*
X50875343Y-56712488D01*
X50875380Y-56712559D01*
X51000278Y-56884466D01*
X51150532Y-57034720D01*
X51282360Y-57130499D01*
X51322445Y-57159622D01*
X51509632Y-57254999D01*
X51511319Y-57255943D01*
X51511775Y-57256091D01*
X51511777Y-57256092D01*
X51511778Y-57256093D01*
X51713874Y-57321758D01*
X51779999Y-57332231D01*
X51780000Y-57332231D01*
X51780000Y-57332230D01*
X51780000Y-56384917D01*
X51798013Y-56341430D01*
X51841500Y-56323417D01*
X51857415Y-56325512D01*
X51902009Y-56337461D01*
X51967463Y-56355000D01*
X52092535Y-56355000D01*
X52092536Y-56355000D01*
X52139115Y-56342519D01*
X52202582Y-56325513D01*
X52249250Y-56331656D01*
X52277904Y-56368999D01*
X52280000Y-56384917D01*
X52280000Y-57332230D01*
X52280000Y-57332231D01*
X52346125Y-57321758D01*
X52548221Y-57256093D01*
X52548222Y-57256092D01*
X52548223Y-57256091D01*
X52548680Y-57255943D01*
X52550366Y-57254999D01*
X52737554Y-57159622D01*
X52909468Y-57034719D01*
X53059719Y-56884468D01*
X53184622Y-56712554D01*
X53219650Y-56643807D01*
X53234498Y-56624972D01*
X53241082Y-56619348D01*
X53285845Y-56604801D01*
X53324511Y-56622625D01*
X53327909Y-56626023D01*
X53339219Y-56641590D01*
X53375378Y-56712556D01*
X53500278Y-56884466D01*
X53650532Y-57034720D01*
X53782360Y-57130499D01*
X53822445Y-57159622D01*
X54009632Y-57254999D01*
X54011319Y-57255943D01*
X54011775Y-57256091D01*
X54011777Y-57256092D01*
X54011778Y-57256093D01*
X54213874Y-57321758D01*
X54279999Y-57332231D01*
X54280000Y-57332231D01*
X54280000Y-57332230D01*
X54280000Y-56384917D01*
X54298013Y-56341430D01*
X54341500Y-56323417D01*
X54357415Y-56325512D01*
X54402009Y-56337461D01*
X54467463Y-56355000D01*
X54592535Y-56355000D01*
X54592536Y-56355000D01*
X54639115Y-56342519D01*
X54702582Y-56325513D01*
X54749250Y-56331656D01*
X54777904Y-56368999D01*
X54780000Y-56384917D01*
X54780000Y-57332230D01*
X54780000Y-57332231D01*
X54846125Y-57321758D01*
X55048221Y-57256093D01*
X55048222Y-57256092D01*
X55048223Y-57256091D01*
X55048680Y-57255943D01*
X55050366Y-57254999D01*
X55237554Y-57159622D01*
X55409468Y-57034719D01*
X55559719Y-56884468D01*
X55684622Y-56712554D01*
X55779999Y-56525366D01*
X55780944Y-56523678D01*
X55781092Y-56523221D01*
X55781093Y-56523221D01*
X55846758Y-56321124D01*
X55846986Y-56319681D01*
X55855287Y-56297170D01*
X55858750Y-56291519D01*
X55896825Y-56263850D01*
X55943316Y-56271207D01*
X55944009Y-56271632D01*
X55970361Y-56305062D01*
X56010127Y-56427447D01*
X56088770Y-56581792D01*
X56190582Y-56721924D01*
X56313074Y-56844416D01*
X56351491Y-56872328D01*
X56351492Y-56872328D01*
X56453212Y-56946232D01*
X56607555Y-57024873D01*
X56772296Y-57078401D01*
X56772299Y-57078402D01*
X56943389Y-57105500D01*
X56943393Y-57105500D01*
X57116607Y-57105500D01*
X57116611Y-57105500D01*
X57287701Y-57078402D01*
X57452445Y-57024873D01*
X57606788Y-56946232D01*
X57746928Y-56844414D01*
X57869414Y-56721928D01*
X57971232Y-56581788D01*
X58049873Y-56427445D01*
X58103402Y-56262701D01*
X58130500Y-56091611D01*
X58130500Y-55668389D01*
X58103402Y-55497299D01*
X58049873Y-55332555D01*
X57971232Y-55178212D01*
X57939859Y-55135031D01*
X57919579Y-55107118D01*
X63669500Y-55107118D01*
X63669500Y-56652871D01*
X63675908Y-56712481D01*
X63675910Y-56712488D01*
X63717254Y-56823337D01*
X63717255Y-56823339D01*
X63719287Y-56828786D01*
X63725116Y-56844415D01*
X63726203Y-56847328D01*
X63726205Y-56847333D01*
X63754005Y-56884468D01*
X63812454Y-56962546D01*
X63927669Y-57048796D01*
X64062517Y-57099091D01*
X64122127Y-57105500D01*
X65417872Y-57105499D01*
X65477483Y-57099091D01*
X65612331Y-57048796D01*
X65727546Y-56962546D01*
X65813796Y-56847331D01*
X65864091Y-56712483D01*
X65870500Y-56652873D01*
X65870499Y-56466998D01*
X65875177Y-56443948D01*
X65875179Y-56443467D01*
X65876859Y-56439411D01*
X65877399Y-56438107D01*
X65877480Y-56438026D01*
X65877613Y-56437713D01*
X65889286Y-56426219D01*
X65910680Y-56404824D01*
X65911016Y-56404823D01*
X65911154Y-56404689D01*
X65928370Y-56404822D01*
X65957750Y-56404821D01*
X65958020Y-56405053D01*
X65958223Y-56405055D01*
X65959327Y-56406177D01*
X65986857Y-56429838D01*
X65986886Y-56429886D01*
X65990539Y-56437877D01*
X65991247Y-56438596D01*
X65991240Y-56439411D01*
X65992737Y-56442684D01*
X66019055Y-56523681D01*
X66020004Y-56525375D01*
X66115343Y-56712488D01*
X66115380Y-56712559D01*
X66240278Y-56884466D01*
X66390532Y-57034720D01*
X66522360Y-57130499D01*
X66562445Y-57159622D01*
X66749632Y-57254999D01*
X66751319Y-57255943D01*
X66751775Y-57256091D01*
X66751777Y-57256092D01*
X66751778Y-57256093D01*
X66953874Y-57321758D01*
X67019999Y-57332231D01*
X67020000Y-57332231D01*
X67020000Y-57332230D01*
X67020000Y-56384917D01*
X67038013Y-56341430D01*
X67081500Y-56323417D01*
X67097415Y-56325512D01*
X67142009Y-56337461D01*
X67207463Y-56355000D01*
X67332535Y-56355000D01*
X67332536Y-56355000D01*
X67379115Y-56342519D01*
X67442582Y-56325513D01*
X67489250Y-56331656D01*
X67517904Y-56368999D01*
X67520000Y-56384917D01*
X67520000Y-57332230D01*
X67520000Y-57332231D01*
X67586125Y-57321758D01*
X67788221Y-57256093D01*
X67788222Y-57256092D01*
X67788223Y-57256091D01*
X67788680Y-57255943D01*
X67790366Y-57254999D01*
X67977554Y-57159622D01*
X68149468Y-57034719D01*
X68299719Y-56884468D01*
X68424622Y-56712554D01*
X68459650Y-56643807D01*
X68474498Y-56624972D01*
X68481082Y-56619348D01*
X68525845Y-56604801D01*
X68564511Y-56622625D01*
X68567909Y-56626023D01*
X68579219Y-56641590D01*
X68615378Y-56712556D01*
X68740278Y-56884466D01*
X68890532Y-57034720D01*
X69022360Y-57130499D01*
X69062445Y-57159622D01*
X69249632Y-57254999D01*
X69251319Y-57255943D01*
X69251775Y-57256091D01*
X69251777Y-57256092D01*
X69251778Y-57256093D01*
X69453874Y-57321758D01*
X69519999Y-57332231D01*
X69520000Y-57332231D01*
X69520000Y-57332230D01*
X69520000Y-56384917D01*
X69538013Y-56341430D01*
X69581500Y-56323417D01*
X69597415Y-56325512D01*
X69642009Y-56337461D01*
X69707463Y-56355000D01*
X69832535Y-56355000D01*
X69832536Y-56355000D01*
X69879115Y-56342519D01*
X69942582Y-56325513D01*
X69989250Y-56331656D01*
X70017904Y-56368999D01*
X70020000Y-56384917D01*
X70020000Y-57332230D01*
X70020000Y-57332231D01*
X70086125Y-57321758D01*
X70288221Y-57256093D01*
X70288222Y-57256092D01*
X70288223Y-57256091D01*
X70288680Y-57255943D01*
X70290366Y-57254999D01*
X70477554Y-57159622D01*
X70649468Y-57034719D01*
X70799719Y-56884468D01*
X70924622Y-56712554D01*
X71019999Y-56525366D01*
X71020944Y-56523678D01*
X71021092Y-56523221D01*
X71021093Y-56523221D01*
X71086758Y-56321124D01*
X71086986Y-56319681D01*
X71095287Y-56297170D01*
X71098750Y-56291519D01*
X71136825Y-56263850D01*
X71183316Y-56271207D01*
X71184009Y-56271632D01*
X71210361Y-56305062D01*
X71250127Y-56427447D01*
X71328770Y-56581792D01*
X71430582Y-56721924D01*
X71553074Y-56844416D01*
X71591491Y-56872328D01*
X71591492Y-56872328D01*
X71693212Y-56946232D01*
X71847555Y-57024873D01*
X72012296Y-57078401D01*
X72012299Y-57078402D01*
X72183389Y-57105500D01*
X72183393Y-57105500D01*
X72356607Y-57105500D01*
X72356611Y-57105500D01*
X72527701Y-57078402D01*
X72692445Y-57024873D01*
X72846788Y-56946232D01*
X72986928Y-56844414D01*
X73109414Y-56721928D01*
X73211232Y-56581788D01*
X73289873Y-56427445D01*
X73343402Y-56262701D01*
X73370500Y-56091611D01*
X73370500Y-55668389D01*
X73343402Y-55497299D01*
X73289873Y-55332555D01*
X73211232Y-55178212D01*
X73211228Y-55178206D01*
X73178675Y-55133400D01*
X73178675Y-55133399D01*
X73116271Y-55047510D01*
X73109415Y-55038073D01*
X72986926Y-54915584D01*
X72986924Y-54915582D01*
X72846792Y-54813770D01*
X72692447Y-54735127D01*
X72573813Y-54696580D01*
X72562775Y-54687152D01*
X72356617Y-54654500D01*
X72356614Y-54654500D01*
X72356611Y-54654500D01*
X72183389Y-54654500D01*
X72183385Y-54654500D01*
X72183381Y-54654500D01*
X72012293Y-54681598D01*
X71847551Y-54735127D01*
X71693206Y-54813770D01*
X71549084Y-54918481D01*
X71546183Y-54922474D01*
X71437474Y-55031183D01*
X71433481Y-55034084D01*
X71328770Y-55178206D01*
X71250127Y-55332551D01*
X71211914Y-55450158D01*
X71200186Y-55471097D01*
X71195886Y-55476131D01*
X71153945Y-55497498D01*
X71109180Y-55482949D01*
X71108542Y-55482404D01*
X71087773Y-55445284D01*
X71086758Y-55438877D01*
X71086758Y-55438874D01*
X71021093Y-55236778D01*
X71021092Y-55236777D01*
X71021091Y-55236775D01*
X71020943Y-55236319D01*
X71019994Y-55234623D01*
X71008354Y-55211778D01*
X70924622Y-55047445D01*
X70917814Y-55038075D01*
X70799720Y-54875532D01*
X70649466Y-54725278D01*
X70477559Y-54600380D01*
X70477556Y-54600378D01*
X70477554Y-54600377D01*
X70290375Y-54505004D01*
X70288681Y-54504055D01*
X70086128Y-54438242D01*
X70020000Y-54427768D01*
X70020000Y-55375082D01*
X70001987Y-55418569D01*
X69958500Y-55436582D01*
X69942583Y-55434486D01*
X69832538Y-55405000D01*
X69832535Y-55405000D01*
X69707465Y-55405000D01*
X69707462Y-55405000D01*
X69597417Y-55434486D01*
X69550750Y-55428342D01*
X69522096Y-55390999D01*
X69520000Y-55375082D01*
X69520000Y-54427768D01*
X69453870Y-54438242D01*
X69251316Y-54504055D01*
X69249623Y-54505004D01*
X69062439Y-54600380D01*
X68890532Y-54725278D01*
X68890532Y-54725279D01*
X68740279Y-54875532D01*
X68615376Y-55047444D01*
X68580351Y-55116186D01*
X68565495Y-55135031D01*
X68558916Y-55140650D01*
X68514150Y-55155195D01*
X68475488Y-55137372D01*
X68472091Y-55133975D01*
X68460781Y-55118408D01*
X68424625Y-55047449D01*
X68424622Y-55047444D01*
X68299720Y-54875532D01*
X68149466Y-54725278D01*
X67977559Y-54600380D01*
X67977556Y-54600378D01*
X67977554Y-54600377D01*
X67790375Y-54505004D01*
X67788681Y-54504055D01*
X67586128Y-54438242D01*
X67520000Y-54427768D01*
X67520000Y-55375082D01*
X67501987Y-55418569D01*
X67458500Y-55436582D01*
X67442583Y-55434486D01*
X67332538Y-55405000D01*
X67332535Y-55405000D01*
X67207465Y-55405000D01*
X67207462Y-55405000D01*
X67097417Y-55434486D01*
X67050750Y-55428342D01*
X67022096Y-55390999D01*
X67020000Y-55375082D01*
X67020000Y-54427768D01*
X66953870Y-54438242D01*
X66751316Y-54504055D01*
X66749623Y-54505004D01*
X66562439Y-54600380D01*
X66390532Y-54725278D01*
X66390532Y-54725279D01*
X66240281Y-54875530D01*
X66240278Y-54875532D01*
X66115380Y-55047439D01*
X66022025Y-55230654D01*
X66022021Y-55230664D01*
X66018907Y-55236777D01*
X66018906Y-55236778D01*
X65994162Y-55312931D01*
X65994029Y-55313327D01*
X65993571Y-55313849D01*
X65982541Y-55333544D01*
X65978774Y-55337954D01*
X65967380Y-55343758D01*
X65963020Y-55348738D01*
X65956796Y-55349150D01*
X65936833Y-55359321D01*
X65892068Y-55344772D01*
X65872052Y-55311685D01*
X65872039Y-55311628D01*
X65870499Y-55297953D01*
X65870499Y-55107127D01*
X65867979Y-55083687D01*
X65864091Y-55047518D01*
X65864090Y-55047514D01*
X65857999Y-55031183D01*
X65854765Y-55022511D01*
X65854765Y-55022510D01*
X65813797Y-54912671D01*
X65813794Y-54912666D01*
X65767277Y-54850528D01*
X65727546Y-54797454D01*
X65631134Y-54725280D01*
X65631131Y-54725278D01*
X65612336Y-54711207D01*
X65612333Y-54711205D01*
X65612328Y-54711203D01*
X65612325Y-54711201D01*
X65612292Y-54711189D01*
X65484174Y-54663403D01*
X65484165Y-54663401D01*
X65477487Y-54660910D01*
X65477485Y-54660909D01*
X65477483Y-54660909D01*
X65417873Y-54654500D01*
X64122128Y-54654500D01*
X64122127Y-54654500D01*
X64092322Y-54657704D01*
X64062517Y-54660908D01*
X64062510Y-54660910D01*
X63927686Y-54711196D01*
X63927666Y-54711204D01*
X63812454Y-54797454D01*
X63726204Y-54912666D01*
X63726196Y-54912686D01*
X63675910Y-55047509D01*
X63675909Y-55047510D01*
X63669500Y-55107118D01*
X57919579Y-55107118D01*
X57869415Y-55038073D01*
X57746924Y-54915582D01*
X57606792Y-54813770D01*
X57452447Y-54735127D01*
X57333813Y-54696580D01*
X57322775Y-54687152D01*
X57116617Y-54654500D01*
X57116614Y-54654500D01*
X57116611Y-54654500D01*
X56943389Y-54654500D01*
X56943385Y-54654500D01*
X56943381Y-54654500D01*
X56772293Y-54681598D01*
X56607551Y-54735127D01*
X56453206Y-54813770D01*
X56309084Y-54918481D01*
X56306183Y-54922474D01*
X56197474Y-55031183D01*
X56193481Y-55034084D01*
X56088770Y-55178206D01*
X56010127Y-55332551D01*
X55971914Y-55450158D01*
X55960186Y-55471097D01*
X55955886Y-55476131D01*
X55913945Y-55497498D01*
X55869180Y-55482949D01*
X55868542Y-55482404D01*
X55847773Y-55445284D01*
X55846758Y-55438877D01*
X55846758Y-55438874D01*
X55781093Y-55236778D01*
X55781092Y-55236777D01*
X55781091Y-55236775D01*
X55780943Y-55236319D01*
X55779994Y-55234623D01*
X55768354Y-55211778D01*
X55684622Y-55047445D01*
X55677814Y-55038075D01*
X55559720Y-54875532D01*
X55409466Y-54725278D01*
X55237559Y-54600380D01*
X55237556Y-54600378D01*
X55237554Y-54600377D01*
X55050375Y-54505004D01*
X55048681Y-54504055D01*
X54846128Y-54438242D01*
X54780000Y-54427768D01*
X54780000Y-55375082D01*
X54761987Y-55418569D01*
X54718500Y-55436582D01*
X54702583Y-55434486D01*
X54592538Y-55405000D01*
X54592535Y-55405000D01*
X54467465Y-55405000D01*
X54467462Y-55405000D01*
X54357417Y-55434486D01*
X54310750Y-55428342D01*
X54282096Y-55390999D01*
X54280000Y-55375082D01*
X54280000Y-54427768D01*
X54213870Y-54438242D01*
X54011316Y-54504055D01*
X54009623Y-54505004D01*
X53822439Y-54600380D01*
X53650532Y-54725278D01*
X53650532Y-54725279D01*
X53500279Y-54875532D01*
X53375376Y-55047444D01*
X53340351Y-55116186D01*
X53325495Y-55135031D01*
X53318916Y-55140650D01*
X53274150Y-55155195D01*
X53235488Y-55137372D01*
X53232091Y-55133975D01*
X53220781Y-55118408D01*
X53184625Y-55047449D01*
X53184622Y-55047444D01*
X53059720Y-54875532D01*
X52909466Y-54725278D01*
X52737559Y-54600380D01*
X52737556Y-54600378D01*
X52737554Y-54600377D01*
X52550375Y-54505004D01*
X52548681Y-54504055D01*
X52346128Y-54438242D01*
X52280000Y-54427768D01*
X52280000Y-55375082D01*
X52261987Y-55418569D01*
X52218500Y-55436582D01*
X52202583Y-55434486D01*
X52092538Y-55405000D01*
X52092535Y-55405000D01*
X51967465Y-55405000D01*
X51967462Y-55405000D01*
X51857417Y-55434486D01*
X51810750Y-55428342D01*
X51782096Y-55390999D01*
X51780000Y-55375082D01*
X51780000Y-54427768D01*
X51713870Y-54438242D01*
X51511316Y-54504055D01*
X51509623Y-54505004D01*
X51322439Y-54600380D01*
X51150532Y-54725278D01*
X51150532Y-54725279D01*
X51000281Y-54875530D01*
X51000278Y-54875532D01*
X50875380Y-55047439D01*
X50782025Y-55230654D01*
X50782021Y-55230664D01*
X50778907Y-55236777D01*
X50778906Y-55236778D01*
X50754162Y-55312931D01*
X50754029Y-55313327D01*
X50753571Y-55313849D01*
X50742541Y-55333544D01*
X50738774Y-55337954D01*
X50727380Y-55343758D01*
X50723020Y-55348738D01*
X50716796Y-55349150D01*
X50696833Y-55359321D01*
X50652068Y-55344772D01*
X50632052Y-55311685D01*
X50632039Y-55311628D01*
X50630499Y-55297953D01*
X50630499Y-55107127D01*
X50627979Y-55083687D01*
X50624091Y-55047518D01*
X50624090Y-55047514D01*
X50617999Y-55031183D01*
X50614765Y-55022511D01*
X50614765Y-55022510D01*
X50573797Y-54912671D01*
X50573794Y-54912666D01*
X50527277Y-54850528D01*
X50487546Y-54797454D01*
X50391134Y-54725280D01*
X50391131Y-54725278D01*
X50372336Y-54711207D01*
X50372333Y-54711205D01*
X50372328Y-54711203D01*
X50372325Y-54711201D01*
X50372292Y-54711189D01*
X50244174Y-54663403D01*
X50244165Y-54663401D01*
X50237487Y-54660910D01*
X50237485Y-54660909D01*
X50237483Y-54660909D01*
X50177873Y-54654500D01*
X48882128Y-54654500D01*
X48882127Y-54654500D01*
X48852322Y-54657704D01*
X48822517Y-54660908D01*
X48822510Y-54660910D01*
X48687686Y-54711196D01*
X48687666Y-54711204D01*
X48572454Y-54797454D01*
X48486204Y-54912666D01*
X48486196Y-54912686D01*
X48435910Y-55047509D01*
X48435909Y-55047510D01*
X48429500Y-55107118D01*
X43067765Y-55107118D01*
X43024623Y-55022447D01*
X42899719Y-54850531D01*
X42749468Y-54700280D01*
X42749467Y-54700279D01*
X42749466Y-54700278D01*
X42577559Y-54575380D01*
X42577556Y-54575378D01*
X42577554Y-54575377D01*
X42390375Y-54480004D01*
X42388681Y-54479055D01*
X42186128Y-54413242D01*
X42120000Y-54402768D01*
X42120000Y-55349201D01*
X42101987Y-55392688D01*
X42058500Y-55410701D01*
X42042582Y-55408605D01*
X41935828Y-55380000D01*
X41935826Y-55380000D01*
X41804174Y-55380000D01*
X41804172Y-55380000D01*
X41697418Y-55408605D01*
X41650750Y-55402462D01*
X41622096Y-55365119D01*
X41620000Y-55349201D01*
X41620000Y-54402768D01*
X41553870Y-54413242D01*
X41351316Y-54479055D01*
X41349623Y-54480004D01*
X41162439Y-54575380D01*
X40990532Y-54700278D01*
X40990532Y-54700279D01*
X40990531Y-54700280D01*
X40840280Y-54850531D01*
X40840279Y-54850532D01*
X40840278Y-54850532D01*
X40715380Y-55022439D01*
X40622025Y-55205654D01*
X40622021Y-55205664D01*
X40618907Y-55211777D01*
X40618906Y-55211778D01*
X40594162Y-55287931D01*
X40594029Y-55288327D01*
X40593571Y-55288849D01*
X40582541Y-55308544D01*
X40578774Y-55312954D01*
X40567380Y-55318758D01*
X40563020Y-55323738D01*
X40556796Y-55324150D01*
X40536833Y-55334321D01*
X40492068Y-55319772D01*
X40472052Y-55286685D01*
X40472039Y-55286628D01*
X40470499Y-55272953D01*
X40470499Y-55082127D01*
X40464091Y-55022518D01*
X40464090Y-55022514D01*
X40424208Y-54915586D01*
X40413796Y-54887669D01*
X40404709Y-54875531D01*
X40358474Y-54813769D01*
X40327546Y-54772454D01*
X40231134Y-54700280D01*
X40212333Y-54686205D01*
X40212328Y-54686203D01*
X40199981Y-54681598D01*
X40186074Y-54676411D01*
X40080567Y-54637058D01*
X40078446Y-54636135D01*
X40076518Y-54635680D01*
X40074209Y-54635557D01*
X40017873Y-54629500D01*
X40017871Y-54629500D01*
X38722127Y-54629500D01*
X38692322Y-54632704D01*
X38662517Y-54635908D01*
X38662510Y-54635910D01*
X38527686Y-54686196D01*
X38527666Y-54686204D01*
X38412454Y-54772454D01*
X38326204Y-54887666D01*
X38326196Y-54887686D01*
X38275866Y-55022625D01*
X38275679Y-55023570D01*
X38275677Y-55023577D01*
X38275674Y-55023595D01*
X38275567Y-55025584D01*
X38275576Y-55025612D01*
X38273221Y-55047517D01*
X38269500Y-55082128D01*
X32501424Y-55082128D01*
X32499977Y-55080137D01*
X32476274Y-55047514D01*
X32476273Y-55047512D01*
X32476273Y-55047510D01*
X32469418Y-55038076D01*
X32346924Y-54915582D01*
X32206792Y-54813770D01*
X32052447Y-54735127D01*
X31933813Y-54696580D01*
X31922775Y-54687152D01*
X31716617Y-54654500D01*
X31716614Y-54654500D01*
X31716611Y-54654500D01*
X31543389Y-54654500D01*
X31543385Y-54654500D01*
X31543381Y-54654500D01*
X31372293Y-54681598D01*
X31207551Y-54735127D01*
X31053206Y-54813770D01*
X30909084Y-54918481D01*
X30906183Y-54922474D01*
X30797474Y-55031183D01*
X30793481Y-55034084D01*
X30688770Y-55178206D01*
X30610127Y-55332551D01*
X30571914Y-55450158D01*
X30560186Y-55471097D01*
X30555886Y-55476131D01*
X30513945Y-55497498D01*
X30469180Y-55482949D01*
X30468542Y-55482404D01*
X30447773Y-55445284D01*
X30446758Y-55438877D01*
X30446758Y-55438874D01*
X30381093Y-55236778D01*
X30381092Y-55236777D01*
X30381091Y-55236775D01*
X30380943Y-55236319D01*
X30379994Y-55234623D01*
X30368354Y-55211778D01*
X30284622Y-55047445D01*
X30277814Y-55038075D01*
X30159720Y-54875532D01*
X30009466Y-54725278D01*
X29837559Y-54600380D01*
X29837556Y-54600378D01*
X29837554Y-54600377D01*
X29650375Y-54505004D01*
X29648681Y-54504055D01*
X29446128Y-54438242D01*
X29380000Y-54427768D01*
X29380000Y-55375082D01*
X29361987Y-55418569D01*
X29318500Y-55436582D01*
X29302583Y-55434486D01*
X29192538Y-55405000D01*
X29192535Y-55405000D01*
X29067465Y-55405000D01*
X29067462Y-55405000D01*
X28957417Y-55434486D01*
X28910750Y-55428342D01*
X28882096Y-55390999D01*
X28880000Y-55375082D01*
X28880000Y-54427768D01*
X28813870Y-54438242D01*
X28611316Y-54504055D01*
X28609623Y-54505004D01*
X28422439Y-54600380D01*
X28250532Y-54725278D01*
X28250532Y-54725279D01*
X28100279Y-54875532D01*
X27975376Y-55047444D01*
X27940351Y-55116186D01*
X27925495Y-55135031D01*
X27918916Y-55140650D01*
X27874150Y-55155195D01*
X27835488Y-55137372D01*
X27832091Y-55133975D01*
X27820781Y-55118408D01*
X27784625Y-55047449D01*
X27784622Y-55047444D01*
X27659720Y-54875532D01*
X27509466Y-54725278D01*
X27337559Y-54600380D01*
X27337556Y-54600378D01*
X27337554Y-54600377D01*
X27150375Y-54505004D01*
X27148681Y-54504055D01*
X26946128Y-54438242D01*
X26880000Y-54427768D01*
X26880000Y-55375082D01*
X26861987Y-55418569D01*
X26818500Y-55436582D01*
X26802583Y-55434486D01*
X26692538Y-55405000D01*
X26692535Y-55405000D01*
X26567465Y-55405000D01*
X26567462Y-55405000D01*
X26457417Y-55434486D01*
X26410750Y-55428342D01*
X26382096Y-55390999D01*
X26380000Y-55375082D01*
X26380000Y-54427768D01*
X26313870Y-54438242D01*
X26111316Y-54504055D01*
X26109623Y-54505004D01*
X25922439Y-54600380D01*
X25750532Y-54725278D01*
X25750532Y-54725279D01*
X25600281Y-54875530D01*
X25600278Y-54875532D01*
X25475380Y-55047439D01*
X25382025Y-55230654D01*
X25382021Y-55230664D01*
X25378907Y-55236777D01*
X25378906Y-55236778D01*
X25354162Y-55312931D01*
X25354029Y-55313327D01*
X25353571Y-55313849D01*
X25342541Y-55333544D01*
X25338774Y-55337954D01*
X25327380Y-55343758D01*
X25323020Y-55348738D01*
X25316796Y-55349150D01*
X25296833Y-55359321D01*
X25252068Y-55344772D01*
X25232052Y-55311685D01*
X25232039Y-55311628D01*
X25230499Y-55297953D01*
X25230499Y-55107127D01*
X25227979Y-55083687D01*
X25224091Y-55047518D01*
X25224090Y-55047514D01*
X25217999Y-55031183D01*
X25214765Y-55022511D01*
X25214765Y-55022510D01*
X25173797Y-54912671D01*
X25173794Y-54912666D01*
X25127277Y-54850528D01*
X25087546Y-54797454D01*
X24991134Y-54725280D01*
X24991131Y-54725278D01*
X24972336Y-54711207D01*
X24972333Y-54711205D01*
X24972328Y-54711203D01*
X24972325Y-54711201D01*
X24972292Y-54711189D01*
X24844174Y-54663403D01*
X24844165Y-54663401D01*
X24837487Y-54660910D01*
X24837485Y-54660909D01*
X24837483Y-54660909D01*
X24777873Y-54654500D01*
X23482128Y-54654500D01*
X23482127Y-54654500D01*
X23452322Y-54657704D01*
X23422517Y-54660908D01*
X23422510Y-54660910D01*
X23287686Y-54711196D01*
X23287666Y-54711204D01*
X23172454Y-54797454D01*
X23086204Y-54912666D01*
X23086196Y-54912686D01*
X23035910Y-55047509D01*
X23035909Y-55047510D01*
X23029500Y-55107118D01*
X19550500Y-55107118D01*
X19550500Y-48814518D01*
X21666500Y-48814518D01*
X21666500Y-48959480D01*
X21704011Y-49099475D01*
X21704015Y-49099485D01*
X21776486Y-49225008D01*
X21776489Y-49225012D01*
X21776491Y-49225015D01*
X21878985Y-49327509D01*
X22004515Y-49399984D01*
X22004519Y-49399986D01*
X22004542Y-49399995D01*
X22005019Y-49400119D01*
X22044733Y-49410760D01*
X22144521Y-49437500D01*
X22144523Y-49437500D01*
X22235766Y-49437500D01*
X22259301Y-49442182D01*
X22267951Y-49445765D01*
X22301233Y-49479044D01*
X22304817Y-49487695D01*
X22309500Y-49511234D01*
X22309500Y-49602480D01*
X22347011Y-49742475D01*
X22347015Y-49742485D01*
X22419486Y-49868008D01*
X22419489Y-49868012D01*
X22419491Y-49868015D01*
X22521985Y-49970509D01*
X22647515Y-50042984D01*
X22647519Y-50042986D01*
X22647542Y-50042995D01*
X22648019Y-50043119D01*
X22684465Y-50052885D01*
X22787521Y-50080500D01*
X22932476Y-50080500D01*
X22932478Y-50080500D01*
X22953052Y-50074986D01*
X22994206Y-50063958D01*
X23032476Y-50053703D01*
X23035879Y-50052896D01*
X23063017Y-50047297D01*
X23503403Y-49910277D01*
X23521674Y-49907500D01*
X31156695Y-49907500D01*
X31180230Y-49912182D01*
X31188880Y-49915765D01*
X31222162Y-49949044D01*
X31223755Y-49952889D01*
X31226342Y-49992346D01*
X31199500Y-50092519D01*
X31199500Y-50237479D01*
X31225166Y-50333265D01*
X31226736Y-50357210D01*
X31225514Y-50366493D01*
X31201989Y-50407250D01*
X31200109Y-50408693D01*
X31198686Y-50409784D01*
X31161239Y-50422500D01*
X29236679Y-50422500D01*
X29218408Y-50419723D01*
X28775795Y-50282009D01*
X28766052Y-50280727D01*
X28758158Y-50279157D01*
X28647479Y-50249500D01*
X28647477Y-50249500D01*
X28647475Y-50249500D01*
X28502525Y-50249500D01*
X28502523Y-50249500D01*
X28502520Y-50249500D01*
X28362526Y-50287010D01*
X28362522Y-50287012D01*
X28362519Y-50287014D01*
X28362515Y-50287016D01*
X28261942Y-50345082D01*
X28236981Y-50359493D01*
X28134493Y-50461981D01*
X28062012Y-50587522D01*
X28062010Y-50587527D01*
X28024500Y-50727518D01*
X28024500Y-50872480D01*
X28062011Y-51012475D01*
X28062015Y-51012485D01*
X28134486Y-51138008D01*
X28134489Y-51138012D01*
X28134491Y-51138015D01*
X28236985Y-51240509D01*
X28362515Y-51312984D01*
X28362519Y-51312986D01*
X28362542Y-51312995D01*
X28363019Y-51313119D01*
X28381190Y-51317988D01*
X28502521Y-51350500D01*
X28647476Y-51350500D01*
X28647478Y-51350500D01*
X28678341Y-51342229D01*
X28709206Y-51333958D01*
X28759594Y-51320456D01*
X28769035Y-51318703D01*
X28775797Y-51317989D01*
X29218405Y-51180277D01*
X29236676Y-51177500D01*
X48868323Y-51177500D01*
X48886594Y-51180277D01*
X49313571Y-51313126D01*
X49329195Y-51317987D01*
X49329194Y-51317987D01*
X49329201Y-51317989D01*
X49338954Y-51319271D01*
X49346820Y-51320835D01*
X49435070Y-51344483D01*
X49457522Y-51350500D01*
X49602476Y-51350500D01*
X49602477Y-51350500D01*
X49614822Y-51347191D01*
X49664206Y-51333958D01*
X49664207Y-51333958D01*
X49742478Y-51312986D01*
X49742478Y-51312985D01*
X49742485Y-51312984D01*
X49868015Y-51240509D01*
X49970509Y-51138015D01*
X50042984Y-51012485D01*
X50057540Y-50958158D01*
X50080500Y-50872477D01*
X50080500Y-50727522D01*
X50080500Y-50727519D01*
X50054833Y-50631734D01*
X50053263Y-50607791D01*
X50054485Y-50598504D01*
X50078017Y-50557744D01*
X50078546Y-50557338D01*
X50081329Y-50555204D01*
X50118761Y-50542500D01*
X66013323Y-50542500D01*
X66031594Y-50545277D01*
X66167347Y-50587515D01*
X66458121Y-50677986D01*
X66474195Y-50682987D01*
X66474194Y-50682987D01*
X66474201Y-50682989D01*
X66483954Y-50684271D01*
X66491820Y-50685835D01*
X66580070Y-50709483D01*
X66602522Y-50715500D01*
X66747476Y-50715500D01*
X66747477Y-50715500D01*
X66759822Y-50712191D01*
X66809206Y-50698958D01*
X66809207Y-50698958D01*
X66887478Y-50677986D01*
X66887478Y-50677985D01*
X66887485Y-50677984D01*
X67013015Y-50605509D01*
X67115509Y-50503015D01*
X67187984Y-50377485D01*
X67202540Y-50323158D01*
X67225500Y-50237477D01*
X67225500Y-50092522D01*
X67225500Y-50092519D01*
X67195987Y-49982385D01*
X67188119Y-49953019D01*
X67187995Y-49952542D01*
X67187986Y-49952519D01*
X67166766Y-49915765D01*
X67115509Y-49826985D01*
X67013015Y-49724491D01*
X67013012Y-49724489D01*
X67013008Y-49724486D01*
X66887490Y-49652018D01*
X66887476Y-49652011D01*
X66747480Y-49614500D01*
X66747477Y-49614500D01*
X66747475Y-49614500D01*
X66602525Y-49614500D01*
X66602523Y-49614500D01*
X66547052Y-49629362D01*
X66490400Y-49644542D01*
X66480956Y-49646295D01*
X66478111Y-49646596D01*
X66474201Y-49647010D01*
X66031591Y-49784723D01*
X66013320Y-49787500D01*
X33613305Y-49787500D01*
X33589766Y-49782817D01*
X33581115Y-49779233D01*
X33547837Y-49745955D01*
X33546244Y-49742110D01*
X33543657Y-49702654D01*
X33559229Y-49644542D01*
X33570500Y-49602479D01*
X33570500Y-49457519D01*
X33542689Y-49353734D01*
X33541119Y-49329791D01*
X33542341Y-49320504D01*
X33565873Y-49279744D01*
X33566402Y-49279338D01*
X33569185Y-49277204D01*
X33606617Y-49264500D01*
X60382701Y-49264500D01*
X60393282Y-49261664D01*
X60425031Y-49253157D01*
X60478710Y-49238774D01*
X60564790Y-49189075D01*
X60759059Y-48994804D01*
X60773934Y-48983854D01*
X61184287Y-48768260D01*
X61192076Y-48762281D01*
X61198756Y-48757815D01*
X61298015Y-48700509D01*
X61400509Y-48598015D01*
X61472984Y-48472485D01*
X61499370Y-48374014D01*
X61501475Y-48366157D01*
X61510500Y-48332479D01*
X61510500Y-48187519D01*
X61473126Y-48048046D01*
X61472995Y-48047542D01*
X61472986Y-48047519D01*
X61458539Y-48022496D01*
X61400509Y-47921985D01*
X61298015Y-47819491D01*
X61298012Y-47819489D01*
X61298008Y-47819486D01*
X61172490Y-47747018D01*
X61172476Y-47747011D01*
X61032480Y-47709500D01*
X61032477Y-47709500D01*
X61032475Y-47709500D01*
X60887525Y-47709500D01*
X60887523Y-47709500D01*
X60887520Y-47709500D01*
X60747526Y-47747010D01*
X60747522Y-47747012D01*
X60621981Y-47819493D01*
X60519493Y-47921982D01*
X60519489Y-47921986D01*
X60519486Y-47921990D01*
X60461459Y-48022496D01*
X60456021Y-48030415D01*
X60451744Y-48035703D01*
X60451739Y-48035711D01*
X60236143Y-48446063D01*
X60225188Y-48460945D01*
X60203299Y-48482835D01*
X60183347Y-48496167D01*
X60162463Y-48504818D01*
X60138927Y-48509500D01*
X39965448Y-48509500D01*
X39941909Y-48504817D01*
X39933258Y-48501233D01*
X39899980Y-48467955D01*
X39898387Y-48464110D01*
X39895800Y-48424654D01*
X39920500Y-48332477D01*
X39920500Y-48187522D01*
X39920500Y-48187519D01*
X39883126Y-48048046D01*
X39882995Y-48047542D01*
X39882986Y-48047519D01*
X39868539Y-48022496D01*
X39810509Y-47921985D01*
X39708015Y-47819491D01*
X39708012Y-47819489D01*
X39708008Y-47819486D01*
X39582490Y-47747018D01*
X39582476Y-47747011D01*
X39442480Y-47709500D01*
X39442477Y-47709500D01*
X39442475Y-47709500D01*
X39297525Y-47709500D01*
X39297523Y-47709500D01*
X39242052Y-47724362D01*
X39185400Y-47739542D01*
X39175956Y-47741295D01*
X39173111Y-47741596D01*
X39169201Y-47742010D01*
X38726591Y-47879723D01*
X38708320Y-47882500D01*
X24791679Y-47882500D01*
X24773408Y-47879723D01*
X24330795Y-47742009D01*
X24321052Y-47740727D01*
X24313158Y-47739157D01*
X24202479Y-47709500D01*
X24202477Y-47709500D01*
X24202475Y-47709500D01*
X24057525Y-47709500D01*
X24057523Y-47709500D01*
X24057520Y-47709500D01*
X23917526Y-47747010D01*
X23917522Y-47747012D01*
X23791981Y-47819493D01*
X23689493Y-47921981D01*
X23617012Y-48047522D01*
X23617010Y-48047527D01*
X23579500Y-48187518D01*
X23579500Y-48332479D01*
X23603023Y-48420265D01*
X23604593Y-48444210D01*
X23603371Y-48453493D01*
X23579846Y-48494250D01*
X23577966Y-48495693D01*
X23576543Y-48496784D01*
X23539096Y-48509500D01*
X22878679Y-48509500D01*
X22860408Y-48506723D01*
X22417795Y-48369009D01*
X22408052Y-48367727D01*
X22400158Y-48366157D01*
X22289479Y-48336500D01*
X22289477Y-48336500D01*
X22289475Y-48336500D01*
X22144525Y-48336500D01*
X22144523Y-48336500D01*
X22144520Y-48336500D01*
X22004526Y-48374010D01*
X22004522Y-48374012D01*
X22004519Y-48374014D01*
X22004515Y-48374016D01*
X21903942Y-48432082D01*
X21878981Y-48446493D01*
X21776493Y-48548981D01*
X21776490Y-48548985D01*
X21776490Y-48548986D01*
X21704016Y-48674515D01*
X21704012Y-48674522D01*
X21704010Y-48674527D01*
X21666500Y-48814518D01*
X19550500Y-48814518D01*
X19550500Y-41837518D01*
X28659500Y-41837518D01*
X28659500Y-41982480D01*
X28697011Y-42122475D01*
X28697015Y-42122485D01*
X28769486Y-42248008D01*
X28769489Y-42248012D01*
X28769491Y-42248015D01*
X28871985Y-42350509D01*
X28997515Y-42422984D01*
X28997519Y-42422986D01*
X28997542Y-42422995D01*
X28998019Y-42423119D01*
X29016190Y-42427988D01*
X29137521Y-42460500D01*
X29282476Y-42460500D01*
X29282478Y-42460500D01*
X29313341Y-42452229D01*
X29344206Y-42443958D01*
X29394594Y-42430456D01*
X29404035Y-42428703D01*
X29410797Y-42427989D01*
X29853405Y-42290277D01*
X29871676Y-42287500D01*
X33628323Y-42287500D01*
X33646594Y-42290277D01*
X34073571Y-42423126D01*
X34089195Y-42427987D01*
X34089194Y-42427987D01*
X34089201Y-42427989D01*
X34098954Y-42429271D01*
X34106820Y-42430835D01*
X34195070Y-42454483D01*
X34217522Y-42460500D01*
X34362476Y-42460500D01*
X34362478Y-42460500D01*
X34393341Y-42452229D01*
X34424206Y-42443958D01*
X34474594Y-42430456D01*
X34484035Y-42428703D01*
X34490797Y-42427989D01*
X34933405Y-42290277D01*
X34951676Y-42287500D01*
X38708323Y-42287500D01*
X38726594Y-42290277D01*
X39153571Y-42423126D01*
X39169195Y-42427987D01*
X39169194Y-42427987D01*
X39169201Y-42427989D01*
X39178954Y-42429271D01*
X39186820Y-42430835D01*
X39275070Y-42454483D01*
X39297522Y-42460500D01*
X39442476Y-42460500D01*
X39442478Y-42460500D01*
X39473341Y-42452229D01*
X39504206Y-42443958D01*
X39554594Y-42430456D01*
X39564035Y-42428703D01*
X39570797Y-42427989D01*
X40013405Y-42290277D01*
X40031676Y-42287500D01*
X43788323Y-42287500D01*
X43806594Y-42290277D01*
X44233571Y-42423126D01*
X44249195Y-42427987D01*
X44249194Y-42427987D01*
X44249201Y-42427989D01*
X44258954Y-42429271D01*
X44266820Y-42430835D01*
X44355070Y-42454483D01*
X44377522Y-42460500D01*
X44522476Y-42460500D01*
X44522477Y-42460500D01*
X44534822Y-42457191D01*
X44584206Y-42443958D01*
X44584207Y-42443958D01*
X44662478Y-42422986D01*
X44662478Y-42422985D01*
X44662485Y-42422984D01*
X44788015Y-42350509D01*
X44890509Y-42248015D01*
X44948548Y-42147485D01*
X44953987Y-42139569D01*
X44958260Y-42134287D01*
X45114178Y-41837518D01*
X46439500Y-41837518D01*
X46439500Y-41982480D01*
X46477011Y-42122475D01*
X46477015Y-42122485D01*
X46549486Y-42248008D01*
X46549489Y-42248012D01*
X46549491Y-42248015D01*
X46651985Y-42350509D01*
X46777515Y-42422984D01*
X46777519Y-42422986D01*
X46777542Y-42422995D01*
X46778019Y-42423119D01*
X46796190Y-42427988D01*
X46917521Y-42460500D01*
X47062476Y-42460500D01*
X47062478Y-42460500D01*
X47093341Y-42452229D01*
X47124206Y-42443958D01*
X47174594Y-42430456D01*
X47184035Y-42428703D01*
X47190797Y-42427989D01*
X47633405Y-42290277D01*
X47651676Y-42287500D01*
X53948323Y-42287500D01*
X53966594Y-42290277D01*
X54393571Y-42423126D01*
X54409195Y-42427987D01*
X54409194Y-42427987D01*
X54409201Y-42427989D01*
X54418954Y-42429271D01*
X54426820Y-42430835D01*
X54515070Y-42454483D01*
X54537522Y-42460500D01*
X54682476Y-42460500D01*
X54682478Y-42460500D01*
X54713341Y-42452229D01*
X54744206Y-42443958D01*
X54794594Y-42430456D01*
X54804035Y-42428703D01*
X54810797Y-42427989D01*
X55253405Y-42290277D01*
X55271676Y-42287500D01*
X59028323Y-42287500D01*
X59046594Y-42290277D01*
X59473571Y-42423126D01*
X59489195Y-42427987D01*
X59489194Y-42427987D01*
X59489201Y-42427989D01*
X59498954Y-42429271D01*
X59506820Y-42430835D01*
X59595070Y-42454483D01*
X59617522Y-42460500D01*
X59762476Y-42460500D01*
X59762478Y-42460500D01*
X59793341Y-42452229D01*
X59824206Y-42443958D01*
X59874594Y-42430456D01*
X59884035Y-42428703D01*
X59890797Y-42427989D01*
X60333405Y-42290277D01*
X60351676Y-42287500D01*
X65378323Y-42287500D01*
X65396594Y-42290277D01*
X65823571Y-42423126D01*
X65839195Y-42427987D01*
X65839194Y-42427987D01*
X65839201Y-42427989D01*
X65848954Y-42429271D01*
X65856820Y-42430835D01*
X65945070Y-42454483D01*
X65967522Y-42460500D01*
X66112476Y-42460500D01*
X66112478Y-42460500D01*
X66143341Y-42452229D01*
X66174206Y-42443958D01*
X66224594Y-42430456D01*
X66234035Y-42428703D01*
X66240797Y-42427989D01*
X66683405Y-42290277D01*
X66701676Y-42287500D01*
X72998323Y-42287500D01*
X73016594Y-42290277D01*
X73443571Y-42423126D01*
X73459195Y-42427987D01*
X73459194Y-42427987D01*
X73459201Y-42427989D01*
X73468954Y-42429271D01*
X73476820Y-42430835D01*
X73565070Y-42454483D01*
X73587522Y-42460500D01*
X73732476Y-42460500D01*
X73732477Y-42460500D01*
X73744822Y-42457191D01*
X73794206Y-42443958D01*
X73794207Y-42443958D01*
X73872478Y-42422986D01*
X73872478Y-42422985D01*
X73872485Y-42422984D01*
X73998015Y-42350509D01*
X74100509Y-42248015D01*
X74172984Y-42122485D01*
X74187540Y-42068158D01*
X74210500Y-41982477D01*
X74210500Y-41837522D01*
X74210500Y-41837519D01*
X74173126Y-41698046D01*
X74172995Y-41697542D01*
X74172986Y-41697519D01*
X74172984Y-41697515D01*
X74100509Y-41571985D01*
X73998015Y-41469491D01*
X73998012Y-41469489D01*
X73998008Y-41469486D01*
X73872490Y-41397018D01*
X73872476Y-41397011D01*
X73732480Y-41359500D01*
X73732477Y-41359500D01*
X73732475Y-41359500D01*
X73587525Y-41359500D01*
X73587523Y-41359500D01*
X73532052Y-41374362D01*
X73475400Y-41389542D01*
X73465956Y-41391295D01*
X73463111Y-41391596D01*
X73459201Y-41392010D01*
X73016591Y-41529723D01*
X72998320Y-41532500D01*
X66701679Y-41532500D01*
X66683408Y-41529723D01*
X66240795Y-41392009D01*
X66231052Y-41390727D01*
X66223158Y-41389157D01*
X66112479Y-41359500D01*
X66112477Y-41359500D01*
X66112475Y-41359500D01*
X65967525Y-41359500D01*
X65967523Y-41359500D01*
X65912052Y-41374362D01*
X65855400Y-41389542D01*
X65845956Y-41391295D01*
X65843111Y-41391596D01*
X65839201Y-41392010D01*
X65396591Y-41529723D01*
X65378320Y-41532500D01*
X60351679Y-41532500D01*
X60333408Y-41529723D01*
X59890795Y-41392009D01*
X59881052Y-41390727D01*
X59873158Y-41389157D01*
X59762479Y-41359500D01*
X59762477Y-41359500D01*
X59762475Y-41359500D01*
X59617525Y-41359500D01*
X59617523Y-41359500D01*
X59562052Y-41374362D01*
X59505400Y-41389542D01*
X59495956Y-41391295D01*
X59493111Y-41391596D01*
X59489201Y-41392010D01*
X59046591Y-41529723D01*
X59028320Y-41532500D01*
X55271679Y-41532500D01*
X55253408Y-41529723D01*
X54810795Y-41392009D01*
X54801052Y-41390727D01*
X54793158Y-41389157D01*
X54682479Y-41359500D01*
X54682477Y-41359500D01*
X54682475Y-41359500D01*
X54537525Y-41359500D01*
X54537523Y-41359500D01*
X54482052Y-41374362D01*
X54425400Y-41389542D01*
X54415956Y-41391295D01*
X54413111Y-41391596D01*
X54409201Y-41392010D01*
X53966591Y-41529723D01*
X53948320Y-41532500D01*
X47651679Y-41532500D01*
X47633408Y-41529723D01*
X47190795Y-41392009D01*
X47181052Y-41390727D01*
X47173158Y-41389157D01*
X47062479Y-41359500D01*
X47062477Y-41359500D01*
X47062475Y-41359500D01*
X46917525Y-41359500D01*
X46917523Y-41359500D01*
X46917520Y-41359500D01*
X46777526Y-41397010D01*
X46777522Y-41397012D01*
X46651981Y-41469493D01*
X46549493Y-41571981D01*
X46477012Y-41697522D01*
X46477010Y-41697527D01*
X46439500Y-41837518D01*
X45114178Y-41837518D01*
X45173854Y-41723934D01*
X45184804Y-41709059D01*
X45849703Y-41044161D01*
X45869655Y-41030831D01*
X45890540Y-41022181D01*
X45914073Y-41017500D01*
X67918323Y-41017500D01*
X67936594Y-41020277D01*
X67970515Y-41030831D01*
X68363121Y-41152986D01*
X68379195Y-41157987D01*
X68379194Y-41157987D01*
X68379201Y-41157989D01*
X68388954Y-41159271D01*
X68396820Y-41160835D01*
X68475041Y-41181796D01*
X68507522Y-41190500D01*
X68652476Y-41190500D01*
X68652477Y-41190500D01*
X68668735Y-41186143D01*
X68714206Y-41173958D01*
X68714207Y-41173958D01*
X68792478Y-41152986D01*
X68792478Y-41152985D01*
X68792485Y-41152984D01*
X68918015Y-41080509D01*
X69020509Y-40978015D01*
X69092984Y-40852485D01*
X69107540Y-40798158D01*
X69130500Y-40712477D01*
X69130500Y-40567522D01*
X69130500Y-40567519D01*
X69093126Y-40428046D01*
X69092995Y-40427542D01*
X69092986Y-40427519D01*
X69092984Y-40427515D01*
X69020509Y-40301985D01*
X68918015Y-40199491D01*
X68918012Y-40199489D01*
X68918008Y-40199486D01*
X68792490Y-40127018D01*
X68792476Y-40127011D01*
X68652480Y-40089500D01*
X68652477Y-40089500D01*
X68652475Y-40089500D01*
X68507525Y-40089500D01*
X68507523Y-40089500D01*
X68452052Y-40104362D01*
X68395400Y-40119542D01*
X68385956Y-40121295D01*
X68383111Y-40121596D01*
X68379201Y-40122010D01*
X67936591Y-40259723D01*
X67918320Y-40262500D01*
X45670299Y-40262500D01*
X45574300Y-40288222D01*
X45574291Y-40288225D01*
X45574273Y-40288235D01*
X45488212Y-40337922D01*
X45488209Y-40337924D01*
X45488207Y-40337927D01*
X45488206Y-40337927D01*
X44650945Y-41175187D01*
X44636062Y-41186143D01*
X44241983Y-41393190D01*
X44231650Y-41397470D01*
X43806591Y-41529723D01*
X43788320Y-41532500D01*
X40031679Y-41532500D01*
X40013408Y-41529723D01*
X39570795Y-41392009D01*
X39561052Y-41390727D01*
X39553158Y-41389157D01*
X39442479Y-41359500D01*
X39442477Y-41359500D01*
X39442475Y-41359500D01*
X39297525Y-41359500D01*
X39297523Y-41359500D01*
X39242052Y-41374362D01*
X39185400Y-41389542D01*
X39175956Y-41391295D01*
X39173111Y-41391596D01*
X39169201Y-41392010D01*
X38726591Y-41529723D01*
X38708320Y-41532500D01*
X34951679Y-41532500D01*
X34933408Y-41529723D01*
X34490795Y-41392009D01*
X34481052Y-41390727D01*
X34473158Y-41389157D01*
X34362479Y-41359500D01*
X34362477Y-41359500D01*
X34362475Y-41359500D01*
X34217525Y-41359500D01*
X34217523Y-41359500D01*
X34162052Y-41374362D01*
X34105400Y-41389542D01*
X34095956Y-41391295D01*
X34093111Y-41391596D01*
X34089201Y-41392010D01*
X33646591Y-41529723D01*
X33628320Y-41532500D01*
X29871679Y-41532500D01*
X29853408Y-41529723D01*
X29410795Y-41392009D01*
X29401052Y-41390727D01*
X29393158Y-41389157D01*
X29282479Y-41359500D01*
X29282477Y-41359500D01*
X29282475Y-41359500D01*
X29137525Y-41359500D01*
X29137523Y-41359500D01*
X29137520Y-41359500D01*
X28997526Y-41397010D01*
X28997522Y-41397012D01*
X28871981Y-41469493D01*
X28769493Y-41571981D01*
X28697012Y-41697522D01*
X28697010Y-41697527D01*
X28659500Y-41837518D01*
X19550500Y-41837518D01*
X19550500Y-37502128D01*
X24349500Y-37502128D01*
X24349500Y-38697872D01*
X24355908Y-38757481D01*
X24355909Y-38757485D01*
X24399287Y-38873786D01*
X24403624Y-38885415D01*
X24406204Y-38892332D01*
X24423905Y-38915977D01*
X24492454Y-39007546D01*
X24561893Y-39059528D01*
X24598478Y-39086916D01*
X24607669Y-39093796D01*
X24742517Y-39144091D01*
X24802127Y-39150500D01*
X25997872Y-39150499D01*
X26057483Y-39144091D01*
X26192331Y-39093796D01*
X26307546Y-39007546D01*
X26393796Y-38892331D01*
X26393796Y-38892328D01*
X26393798Y-38892327D01*
X26439551Y-38769655D01*
X26444091Y-38757483D01*
X26450500Y-38697873D01*
X26450499Y-37996527D01*
X26889500Y-37996527D01*
X26889500Y-38203471D01*
X26929866Y-38406408D01*
X26929867Y-38406414D01*
X26929871Y-38406427D01*
X26977799Y-38522132D01*
X26977958Y-38522515D01*
X27009059Y-38597598D01*
X27009060Y-38597599D01*
X27115892Y-38757487D01*
X27124025Y-38769658D01*
X27228154Y-38873786D01*
X27270345Y-38915977D01*
X27270344Y-38915977D01*
X27317500Y-38947485D01*
X27442402Y-39030941D01*
X27481156Y-39046993D01*
X27501640Y-39055479D01*
X27501643Y-39055479D01*
X27501644Y-39055480D01*
X27633569Y-39110126D01*
X27633571Y-39110126D01*
X27633580Y-39110130D01*
X27830590Y-39149317D01*
X27834489Y-39150500D01*
X28043468Y-39150500D01*
X28054955Y-39150500D01*
X28061764Y-39146859D01*
X28246420Y-39110130D01*
X28248427Y-39109299D01*
X28272518Y-39099319D01*
X28437598Y-39030941D01*
X28609655Y-38915977D01*
X28755977Y-38769655D01*
X28870941Y-38597598D01*
X28950130Y-38406420D01*
X28986859Y-38221764D01*
X28990500Y-38214954D01*
X28990500Y-37998354D01*
X28990500Y-37996532D01*
X28990499Y-37996531D01*
X28990498Y-37996527D01*
X29429500Y-37996527D01*
X29429500Y-38203471D01*
X29469866Y-38406408D01*
X29469867Y-38406414D01*
X29469871Y-38406427D01*
X29517799Y-38522132D01*
X29517958Y-38522515D01*
X29549059Y-38597598D01*
X29549060Y-38597599D01*
X29655892Y-38757487D01*
X29664025Y-38769658D01*
X29768154Y-38873786D01*
X29810345Y-38915977D01*
X29810344Y-38915977D01*
X29857500Y-38947485D01*
X29982402Y-39030941D01*
X30021156Y-39046993D01*
X30041640Y-39055479D01*
X30041643Y-39055479D01*
X30041644Y-39055480D01*
X30173569Y-39110126D01*
X30173571Y-39110126D01*
X30173580Y-39110130D01*
X30370590Y-39149317D01*
X30374489Y-39150500D01*
X30583468Y-39150500D01*
X30594955Y-39150500D01*
X30601764Y-39146859D01*
X30786420Y-39110130D01*
X30788427Y-39109299D01*
X30812518Y-39099319D01*
X30977598Y-39030941D01*
X31149655Y-38915977D01*
X31295977Y-38769655D01*
X31410941Y-38597598D01*
X31490130Y-38406420D01*
X31526859Y-38221764D01*
X31530500Y-38214954D01*
X31530500Y-37998354D01*
X31530500Y-37996532D01*
X31530499Y-37996531D01*
X31530498Y-37996527D01*
X31969500Y-37996527D01*
X31969500Y-38203471D01*
X32009866Y-38406408D01*
X32009867Y-38406414D01*
X32009871Y-38406427D01*
X32057799Y-38522132D01*
X32057958Y-38522515D01*
X32089059Y-38597598D01*
X32089060Y-38597599D01*
X32195892Y-38757487D01*
X32204025Y-38769658D01*
X32308154Y-38873786D01*
X32350345Y-38915977D01*
X32350344Y-38915977D01*
X32397500Y-38947485D01*
X32522402Y-39030941D01*
X32561156Y-39046993D01*
X32581640Y-39055479D01*
X32581643Y-39055479D01*
X32581644Y-39055480D01*
X32713569Y-39110126D01*
X32713571Y-39110126D01*
X32713580Y-39110130D01*
X32910590Y-39149317D01*
X32914489Y-39150500D01*
X33123468Y-39150500D01*
X33134955Y-39150500D01*
X33141764Y-39146859D01*
X33326420Y-39110130D01*
X33328427Y-39109299D01*
X33352518Y-39099319D01*
X33517598Y-39030941D01*
X33689655Y-38915977D01*
X33835977Y-38769655D01*
X33950941Y-38597598D01*
X34030130Y-38406420D01*
X34066859Y-38221764D01*
X34070500Y-38214954D01*
X34070500Y-37998354D01*
X34070500Y-37996532D01*
X34070499Y-37996531D01*
X34070498Y-37996527D01*
X34509500Y-37996527D01*
X34509500Y-38203471D01*
X34549866Y-38406408D01*
X34549867Y-38406414D01*
X34549871Y-38406427D01*
X34597799Y-38522132D01*
X34597958Y-38522515D01*
X34629059Y-38597598D01*
X34629060Y-38597599D01*
X34735892Y-38757487D01*
X34744025Y-38769658D01*
X34848154Y-38873786D01*
X34890345Y-38915977D01*
X34890344Y-38915977D01*
X34937500Y-38947485D01*
X35062402Y-39030941D01*
X35101156Y-39046993D01*
X35121640Y-39055479D01*
X35121643Y-39055479D01*
X35121644Y-39055480D01*
X35253569Y-39110126D01*
X35253571Y-39110126D01*
X35253580Y-39110130D01*
X35450590Y-39149317D01*
X35454489Y-39150500D01*
X35663468Y-39150500D01*
X35674955Y-39150500D01*
X35681764Y-39146859D01*
X35866420Y-39110130D01*
X35868427Y-39109299D01*
X35892518Y-39099319D01*
X36057598Y-39030941D01*
X36229655Y-38915977D01*
X36375977Y-38769655D01*
X36490941Y-38597598D01*
X36570130Y-38406420D01*
X36606859Y-38221764D01*
X36610500Y-38214954D01*
X36610500Y-37998354D01*
X36610500Y-37996532D01*
X36610499Y-37996531D01*
X36610498Y-37996527D01*
X37049500Y-37996527D01*
X37049500Y-38203471D01*
X37089866Y-38406408D01*
X37089867Y-38406414D01*
X37089871Y-38406427D01*
X37137799Y-38522132D01*
X37137958Y-38522515D01*
X37169059Y-38597598D01*
X37169060Y-38597599D01*
X37275892Y-38757487D01*
X37284025Y-38769658D01*
X37388154Y-38873786D01*
X37430345Y-38915977D01*
X37430344Y-38915977D01*
X37477500Y-38947485D01*
X37602402Y-39030941D01*
X37641156Y-39046993D01*
X37661640Y-39055479D01*
X37661643Y-39055479D01*
X37661644Y-39055480D01*
X37793569Y-39110126D01*
X37793571Y-39110126D01*
X37793580Y-39110130D01*
X37990590Y-39149317D01*
X37994489Y-39150500D01*
X38203468Y-39150500D01*
X38214955Y-39150500D01*
X38221764Y-39146859D01*
X38406420Y-39110130D01*
X38408427Y-39109299D01*
X38432518Y-39099319D01*
X38597598Y-39030941D01*
X38769655Y-38915977D01*
X38915977Y-38769655D01*
X39030941Y-38597598D01*
X39110130Y-38406420D01*
X39146859Y-38221764D01*
X39150500Y-38214954D01*
X39150500Y-37998354D01*
X39150500Y-37996532D01*
X39150499Y-37996531D01*
X39150498Y-37996527D01*
X39589500Y-37996527D01*
X39589500Y-38203471D01*
X39629866Y-38406408D01*
X39629867Y-38406414D01*
X39629871Y-38406427D01*
X39677799Y-38522132D01*
X39677958Y-38522515D01*
X39709059Y-38597598D01*
X39709060Y-38597599D01*
X39815892Y-38757487D01*
X39824025Y-38769658D01*
X39928154Y-38873786D01*
X39970345Y-38915977D01*
X39970344Y-38915977D01*
X40017500Y-38947485D01*
X40142402Y-39030941D01*
X40181156Y-39046993D01*
X40201640Y-39055479D01*
X40201643Y-39055479D01*
X40201644Y-39055480D01*
X40333569Y-39110126D01*
X40333571Y-39110126D01*
X40333580Y-39110130D01*
X40530590Y-39149317D01*
X40534489Y-39150500D01*
X40743468Y-39150500D01*
X40754955Y-39150500D01*
X40761764Y-39146859D01*
X40946420Y-39110130D01*
X40948427Y-39109299D01*
X40972518Y-39099319D01*
X41137598Y-39030941D01*
X41309655Y-38915977D01*
X41455977Y-38769655D01*
X41570941Y-38597598D01*
X41650130Y-38406420D01*
X41686859Y-38221764D01*
X41690500Y-38214954D01*
X41690500Y-37998354D01*
X41690500Y-37996532D01*
X41690499Y-37996531D01*
X41690498Y-37996527D01*
X42129500Y-37996527D01*
X42129500Y-38203471D01*
X42169866Y-38406408D01*
X42169867Y-38406414D01*
X42169871Y-38406427D01*
X42217799Y-38522132D01*
X42217958Y-38522515D01*
X42249059Y-38597598D01*
X42249060Y-38597599D01*
X42355892Y-38757487D01*
X42364025Y-38769658D01*
X42468154Y-38873786D01*
X42510345Y-38915977D01*
X42510344Y-38915977D01*
X42557500Y-38947485D01*
X42682402Y-39030941D01*
X42721156Y-39046993D01*
X42741640Y-39055479D01*
X42741643Y-39055479D01*
X42741644Y-39055480D01*
X42873569Y-39110126D01*
X42873571Y-39110126D01*
X42873580Y-39110130D01*
X43070590Y-39149317D01*
X43074489Y-39150500D01*
X43283468Y-39150500D01*
X43294955Y-39150500D01*
X43301764Y-39146859D01*
X43486420Y-39110130D01*
X43488427Y-39109299D01*
X43512518Y-39099319D01*
X43677598Y-39030941D01*
X43849655Y-38915977D01*
X43995977Y-38769655D01*
X44110941Y-38597598D01*
X44190130Y-38406420D01*
X44226859Y-38221764D01*
X44230500Y-38214954D01*
X44230500Y-37998354D01*
X44230500Y-37996532D01*
X44230499Y-37996531D01*
X44230498Y-37996527D01*
X44669500Y-37996527D01*
X44669500Y-38203471D01*
X44709866Y-38406408D01*
X44709867Y-38406414D01*
X44709871Y-38406427D01*
X44757799Y-38522132D01*
X44757958Y-38522515D01*
X44789059Y-38597598D01*
X44789060Y-38597599D01*
X44895892Y-38757487D01*
X44904025Y-38769658D01*
X45008154Y-38873786D01*
X45050345Y-38915977D01*
X45050344Y-38915977D01*
X45097500Y-38947485D01*
X45222402Y-39030941D01*
X45261156Y-39046993D01*
X45281640Y-39055479D01*
X45281643Y-39055479D01*
X45281644Y-39055480D01*
X45413569Y-39110126D01*
X45413571Y-39110126D01*
X45413580Y-39110130D01*
X45610590Y-39149317D01*
X45614489Y-39150500D01*
X45823468Y-39150500D01*
X45834955Y-39150500D01*
X45841764Y-39146859D01*
X46026420Y-39110130D01*
X46028427Y-39109299D01*
X46052518Y-39099319D01*
X46217598Y-39030941D01*
X46389655Y-38915977D01*
X46535977Y-38769655D01*
X46650941Y-38597598D01*
X46730130Y-38406420D01*
X46766859Y-38221764D01*
X46770500Y-38214954D01*
X46770500Y-37998354D01*
X46770500Y-37996532D01*
X46770499Y-37996531D01*
X46770498Y-37996527D01*
X47209500Y-37996527D01*
X47209500Y-38203471D01*
X47249866Y-38406408D01*
X47249867Y-38406414D01*
X47249871Y-38406427D01*
X47297799Y-38522132D01*
X47297958Y-38522515D01*
X47329059Y-38597598D01*
X47329060Y-38597599D01*
X47435892Y-38757487D01*
X47444025Y-38769658D01*
X47548154Y-38873786D01*
X47590345Y-38915977D01*
X47590344Y-38915977D01*
X47637500Y-38947485D01*
X47762402Y-39030941D01*
X47801156Y-39046993D01*
X47821640Y-39055479D01*
X47821643Y-39055479D01*
X47821644Y-39055480D01*
X47953569Y-39110126D01*
X47953571Y-39110126D01*
X47953580Y-39110130D01*
X48150590Y-39149317D01*
X48154489Y-39150500D01*
X48363468Y-39150500D01*
X48374955Y-39150500D01*
X48381764Y-39146859D01*
X48566420Y-39110130D01*
X48568427Y-39109299D01*
X48592518Y-39099319D01*
X48757598Y-39030941D01*
X48929655Y-38915977D01*
X49075977Y-38769655D01*
X49190941Y-38597598D01*
X49270130Y-38406420D01*
X49306859Y-38221764D01*
X49310500Y-38214954D01*
X49310500Y-37998354D01*
X49310500Y-37996532D01*
X49310499Y-37996531D01*
X49310498Y-37996527D01*
X49749500Y-37996527D01*
X49749500Y-38203471D01*
X49789866Y-38406408D01*
X49789867Y-38406414D01*
X49789871Y-38406427D01*
X49837799Y-38522132D01*
X49837958Y-38522515D01*
X49869059Y-38597598D01*
X49869060Y-38597599D01*
X49975892Y-38757487D01*
X49984025Y-38769658D01*
X50088154Y-38873786D01*
X50130345Y-38915977D01*
X50130344Y-38915977D01*
X50177500Y-38947485D01*
X50302402Y-39030941D01*
X50341156Y-39046993D01*
X50361640Y-39055479D01*
X50361643Y-39055479D01*
X50361644Y-39055480D01*
X50493569Y-39110126D01*
X50493571Y-39110126D01*
X50493580Y-39110130D01*
X50690590Y-39149317D01*
X50694489Y-39150500D01*
X50903468Y-39150500D01*
X50914955Y-39150500D01*
X50921764Y-39146859D01*
X51106420Y-39110130D01*
X51108427Y-39109299D01*
X51132518Y-39099319D01*
X51297598Y-39030941D01*
X51469655Y-38915977D01*
X51615977Y-38769655D01*
X51730941Y-38597598D01*
X51810130Y-38406420D01*
X51846859Y-38221764D01*
X51850500Y-38214954D01*
X51850500Y-37998354D01*
X51850500Y-37996532D01*
X51850499Y-37996531D01*
X51850498Y-37996527D01*
X52289500Y-37996527D01*
X52289500Y-38203471D01*
X52329866Y-38406408D01*
X52329867Y-38406414D01*
X52329871Y-38406427D01*
X52377799Y-38522132D01*
X52377958Y-38522515D01*
X52409059Y-38597598D01*
X52409060Y-38597599D01*
X52515892Y-38757487D01*
X52524025Y-38769658D01*
X52628154Y-38873786D01*
X52670345Y-38915977D01*
X52670344Y-38915977D01*
X52717500Y-38947485D01*
X52842402Y-39030941D01*
X52881156Y-39046993D01*
X52901640Y-39055479D01*
X52901643Y-39055479D01*
X52901644Y-39055480D01*
X53033569Y-39110126D01*
X53033571Y-39110126D01*
X53033580Y-39110130D01*
X53230590Y-39149317D01*
X53234489Y-39150500D01*
X53443468Y-39150500D01*
X53454955Y-39150500D01*
X53461764Y-39146859D01*
X53646420Y-39110130D01*
X53648427Y-39109299D01*
X53672518Y-39099319D01*
X53837598Y-39030941D01*
X54009655Y-38915977D01*
X54155977Y-38769655D01*
X54270941Y-38597598D01*
X54350130Y-38406420D01*
X54386859Y-38221764D01*
X54390500Y-38214954D01*
X54390500Y-37994489D01*
X54389316Y-37990586D01*
X54379624Y-37941860D01*
X54350131Y-37793584D01*
X54350130Y-37793580D01*
X54350129Y-37793579D01*
X54350100Y-37793430D01*
X54349987Y-37793080D01*
X54349296Y-37791566D01*
X54307832Y-37691466D01*
X54270941Y-37602402D01*
X54155977Y-37430345D01*
X54035719Y-37310087D01*
X54030765Y-37298127D01*
X53873095Y-37192777D01*
X53867105Y-37183813D01*
X53837601Y-37169060D01*
X53837588Y-37169054D01*
X53837552Y-37169039D01*
X53646435Y-37089874D01*
X53646427Y-37089871D01*
X53646414Y-37089867D01*
X53646408Y-37089866D01*
X53443471Y-37049500D01*
X53443468Y-37049500D01*
X53443465Y-37049500D01*
X53236535Y-37049500D01*
X53236532Y-37049500D01*
X53236529Y-37049500D01*
X53033590Y-37089866D01*
X53033584Y-37089867D01*
X53033571Y-37089871D01*
X53033563Y-37089874D01*
X52842426Y-37169047D01*
X52842401Y-37169059D01*
X52842400Y-37169059D01*
X52670340Y-37284025D01*
X52524025Y-37430340D01*
X52409059Y-37602400D01*
X52409047Y-37602426D01*
X52329874Y-37793563D01*
X52329871Y-37793571D01*
X52329867Y-37793584D01*
X52329866Y-37793590D01*
X52289500Y-37996527D01*
X51850498Y-37996527D01*
X51839624Y-37941860D01*
X51810130Y-37793580D01*
X51810127Y-37793574D01*
X51810126Y-37793569D01*
X51810121Y-37793557D01*
X51809871Y-37792827D01*
X51809296Y-37791566D01*
X51767832Y-37691466D01*
X51730941Y-37602402D01*
X51615977Y-37430345D01*
X51495719Y-37310087D01*
X51490765Y-37298127D01*
X51333095Y-37192777D01*
X51327105Y-37183813D01*
X51297601Y-37169060D01*
X51297588Y-37169054D01*
X51297552Y-37169039D01*
X51106435Y-37089874D01*
X51106427Y-37089871D01*
X51106414Y-37089867D01*
X51106408Y-37089866D01*
X50903471Y-37049500D01*
X50903468Y-37049500D01*
X50903465Y-37049500D01*
X50696535Y-37049500D01*
X50696532Y-37049500D01*
X50696529Y-37049500D01*
X50493590Y-37089866D01*
X50493584Y-37089867D01*
X50493571Y-37089871D01*
X50493563Y-37089874D01*
X50302426Y-37169047D01*
X50302401Y-37169059D01*
X50302400Y-37169059D01*
X50130340Y-37284025D01*
X49984025Y-37430340D01*
X49869059Y-37602400D01*
X49869047Y-37602426D01*
X49789874Y-37793563D01*
X49789871Y-37793571D01*
X49789867Y-37793584D01*
X49789866Y-37793590D01*
X49749500Y-37996527D01*
X49310498Y-37996527D01*
X49299624Y-37941860D01*
X49270130Y-37793580D01*
X49270127Y-37793574D01*
X49270126Y-37793569D01*
X49270121Y-37793557D01*
X49269871Y-37792827D01*
X49269296Y-37791566D01*
X49227832Y-37691466D01*
X49190941Y-37602402D01*
X49075977Y-37430345D01*
X48955719Y-37310087D01*
X48950765Y-37298127D01*
X48793095Y-37192777D01*
X48787105Y-37183813D01*
X48757601Y-37169060D01*
X48757588Y-37169054D01*
X48757552Y-37169039D01*
X48566435Y-37089874D01*
X48566427Y-37089871D01*
X48566414Y-37089867D01*
X48566408Y-37089866D01*
X48363471Y-37049500D01*
X48363468Y-37049500D01*
X48363465Y-37049500D01*
X48156535Y-37049500D01*
X48156532Y-37049500D01*
X48156529Y-37049500D01*
X47953590Y-37089866D01*
X47953584Y-37089867D01*
X47953571Y-37089871D01*
X47953563Y-37089874D01*
X47762426Y-37169047D01*
X47762401Y-37169059D01*
X47762400Y-37169059D01*
X47590340Y-37284025D01*
X47444025Y-37430340D01*
X47329059Y-37602400D01*
X47329047Y-37602426D01*
X47249874Y-37793563D01*
X47249871Y-37793571D01*
X47249867Y-37793584D01*
X47249866Y-37793590D01*
X47209500Y-37996527D01*
X46770498Y-37996527D01*
X46759624Y-37941860D01*
X46730130Y-37793580D01*
X46730127Y-37793574D01*
X46730126Y-37793569D01*
X46730121Y-37793557D01*
X46729871Y-37792827D01*
X46729296Y-37791566D01*
X46687832Y-37691466D01*
X46650941Y-37602402D01*
X46535977Y-37430345D01*
X46415719Y-37310087D01*
X46410765Y-37298127D01*
X46253095Y-37192777D01*
X46247105Y-37183813D01*
X46217601Y-37169060D01*
X46217588Y-37169054D01*
X46217552Y-37169039D01*
X46026435Y-37089874D01*
X46026427Y-37089871D01*
X46026414Y-37089867D01*
X46026408Y-37089866D01*
X45823471Y-37049500D01*
X45823468Y-37049500D01*
X45823465Y-37049500D01*
X45616535Y-37049500D01*
X45616532Y-37049500D01*
X45616529Y-37049500D01*
X45413590Y-37089866D01*
X45413584Y-37089867D01*
X45413571Y-37089871D01*
X45413563Y-37089874D01*
X45222426Y-37169047D01*
X45222401Y-37169059D01*
X45222400Y-37169059D01*
X45050340Y-37284025D01*
X44904025Y-37430340D01*
X44789059Y-37602400D01*
X44789047Y-37602426D01*
X44709874Y-37793563D01*
X44709871Y-37793571D01*
X44709867Y-37793584D01*
X44709866Y-37793590D01*
X44669500Y-37996527D01*
X44230498Y-37996527D01*
X44219624Y-37941860D01*
X44190130Y-37793580D01*
X44190127Y-37793574D01*
X44190126Y-37793569D01*
X44190121Y-37793557D01*
X44189871Y-37792827D01*
X44189296Y-37791566D01*
X44147832Y-37691466D01*
X44110941Y-37602402D01*
X43995977Y-37430345D01*
X43875719Y-37310087D01*
X43870765Y-37298127D01*
X43713095Y-37192777D01*
X43707105Y-37183813D01*
X43677601Y-37169060D01*
X43677588Y-37169054D01*
X43677552Y-37169039D01*
X43486435Y-37089874D01*
X43486427Y-37089871D01*
X43486414Y-37089867D01*
X43486408Y-37089866D01*
X43283471Y-37049500D01*
X43283468Y-37049500D01*
X43283465Y-37049500D01*
X43076535Y-37049500D01*
X43076532Y-37049500D01*
X43076529Y-37049500D01*
X42873590Y-37089866D01*
X42873584Y-37089867D01*
X42873571Y-37089871D01*
X42873563Y-37089874D01*
X42682426Y-37169047D01*
X42682401Y-37169059D01*
X42682400Y-37169059D01*
X42510340Y-37284025D01*
X42364025Y-37430340D01*
X42249059Y-37602400D01*
X42249047Y-37602426D01*
X42169874Y-37793563D01*
X42169871Y-37793571D01*
X42169867Y-37793584D01*
X42169866Y-37793590D01*
X42129500Y-37996527D01*
X41690498Y-37996527D01*
X41679624Y-37941860D01*
X41650130Y-37793580D01*
X41650127Y-37793574D01*
X41650126Y-37793569D01*
X41650121Y-37793557D01*
X41649871Y-37792827D01*
X41649296Y-37791566D01*
X41607832Y-37691466D01*
X41570941Y-37602402D01*
X41455977Y-37430345D01*
X41335719Y-37310087D01*
X41330765Y-37298127D01*
X41173095Y-37192777D01*
X41167105Y-37183813D01*
X41137601Y-37169060D01*
X41137588Y-37169054D01*
X41137552Y-37169039D01*
X40946435Y-37089874D01*
X40946427Y-37089871D01*
X40946414Y-37089867D01*
X40946408Y-37089866D01*
X40743471Y-37049500D01*
X40743468Y-37049500D01*
X40743465Y-37049500D01*
X40536535Y-37049500D01*
X40536532Y-37049500D01*
X40536529Y-37049500D01*
X40333590Y-37089866D01*
X40333584Y-37089867D01*
X40333571Y-37089871D01*
X40333563Y-37089874D01*
X40142426Y-37169047D01*
X40142401Y-37169059D01*
X40142400Y-37169059D01*
X39970340Y-37284025D01*
X39824025Y-37430340D01*
X39709059Y-37602400D01*
X39709047Y-37602426D01*
X39629874Y-37793563D01*
X39629871Y-37793571D01*
X39629867Y-37793584D01*
X39629866Y-37793590D01*
X39589500Y-37996527D01*
X39150498Y-37996527D01*
X39139624Y-37941860D01*
X39110130Y-37793580D01*
X39110127Y-37793574D01*
X39110126Y-37793569D01*
X39110121Y-37793557D01*
X39109871Y-37792827D01*
X39109296Y-37791566D01*
X39067832Y-37691466D01*
X39030941Y-37602402D01*
X38915977Y-37430345D01*
X38795719Y-37310087D01*
X38790765Y-37298127D01*
X38633095Y-37192777D01*
X38627105Y-37183813D01*
X38597601Y-37169060D01*
X38597588Y-37169054D01*
X38597552Y-37169039D01*
X38406435Y-37089874D01*
X38406427Y-37089871D01*
X38406414Y-37089867D01*
X38406408Y-37089866D01*
X38203471Y-37049500D01*
X38203468Y-37049500D01*
X38203465Y-37049500D01*
X37996535Y-37049500D01*
X37996532Y-37049500D01*
X37996529Y-37049500D01*
X37793590Y-37089866D01*
X37793584Y-37089867D01*
X37793571Y-37089871D01*
X37793563Y-37089874D01*
X37602426Y-37169047D01*
X37602401Y-37169059D01*
X37602400Y-37169059D01*
X37430340Y-37284025D01*
X37284025Y-37430340D01*
X37169059Y-37602400D01*
X37169047Y-37602426D01*
X37089874Y-37793563D01*
X37089871Y-37793571D01*
X37089867Y-37793584D01*
X37089866Y-37793590D01*
X37049500Y-37996527D01*
X36610498Y-37996527D01*
X36599624Y-37941860D01*
X36570130Y-37793580D01*
X36570127Y-37793574D01*
X36570126Y-37793569D01*
X36570121Y-37793557D01*
X36569871Y-37792827D01*
X36569296Y-37791566D01*
X36527832Y-37691466D01*
X36490941Y-37602402D01*
X36375977Y-37430345D01*
X36255719Y-37310087D01*
X36250765Y-37298127D01*
X36093095Y-37192777D01*
X36087105Y-37183813D01*
X36057601Y-37169060D01*
X36057588Y-37169054D01*
X36057552Y-37169039D01*
X35866435Y-37089874D01*
X35866427Y-37089871D01*
X35866414Y-37089867D01*
X35866408Y-37089866D01*
X35663471Y-37049500D01*
X35663468Y-37049500D01*
X35663465Y-37049500D01*
X35456535Y-37049500D01*
X35456532Y-37049500D01*
X35456529Y-37049500D01*
X35253590Y-37089866D01*
X35253584Y-37089867D01*
X35253571Y-37089871D01*
X35253563Y-37089874D01*
X35062426Y-37169047D01*
X35062401Y-37169059D01*
X35062400Y-37169059D01*
X34890340Y-37284025D01*
X34744025Y-37430340D01*
X34629059Y-37602400D01*
X34629047Y-37602426D01*
X34549874Y-37793563D01*
X34549871Y-37793571D01*
X34549867Y-37793584D01*
X34549866Y-37793590D01*
X34509500Y-37996527D01*
X34070498Y-37996527D01*
X34059624Y-37941860D01*
X34030130Y-37793580D01*
X34030127Y-37793574D01*
X34030126Y-37793569D01*
X34030121Y-37793557D01*
X34029871Y-37792827D01*
X34029296Y-37791566D01*
X33987832Y-37691466D01*
X33950941Y-37602402D01*
X33835977Y-37430345D01*
X33715719Y-37310087D01*
X33710765Y-37298127D01*
X33553095Y-37192777D01*
X33547105Y-37183813D01*
X33517601Y-37169060D01*
X33517588Y-37169054D01*
X33517552Y-37169039D01*
X33326435Y-37089874D01*
X33326427Y-37089871D01*
X33326414Y-37089867D01*
X33326408Y-37089866D01*
X33123471Y-37049500D01*
X33123468Y-37049500D01*
X33123465Y-37049500D01*
X32916535Y-37049500D01*
X32916532Y-37049500D01*
X32916529Y-37049500D01*
X32713590Y-37089866D01*
X32713584Y-37089867D01*
X32713571Y-37089871D01*
X32713563Y-37089874D01*
X32522426Y-37169047D01*
X32522401Y-37169059D01*
X32522400Y-37169059D01*
X32350340Y-37284025D01*
X32204025Y-37430340D01*
X32089059Y-37602400D01*
X32089047Y-37602426D01*
X32009874Y-37793563D01*
X32009871Y-37793571D01*
X32009867Y-37793584D01*
X32009866Y-37793590D01*
X31969500Y-37996527D01*
X31530498Y-37996527D01*
X31519624Y-37941860D01*
X31490130Y-37793580D01*
X31490127Y-37793574D01*
X31490126Y-37793569D01*
X31490121Y-37793557D01*
X31489871Y-37792827D01*
X31489296Y-37791566D01*
X31447832Y-37691466D01*
X31410941Y-37602402D01*
X31295977Y-37430345D01*
X31175719Y-37310087D01*
X31170765Y-37298127D01*
X31013095Y-37192777D01*
X31007105Y-37183813D01*
X30977601Y-37169060D01*
X30977588Y-37169054D01*
X30977552Y-37169039D01*
X30786435Y-37089874D01*
X30786427Y-37089871D01*
X30786414Y-37089867D01*
X30786408Y-37089866D01*
X30583471Y-37049500D01*
X30583468Y-37049500D01*
X30583465Y-37049500D01*
X30376535Y-37049500D01*
X30376532Y-37049500D01*
X30376529Y-37049500D01*
X30173590Y-37089866D01*
X30173584Y-37089867D01*
X30173571Y-37089871D01*
X30173563Y-37089874D01*
X29982426Y-37169047D01*
X29982401Y-37169059D01*
X29982400Y-37169059D01*
X29810340Y-37284025D01*
X29664025Y-37430340D01*
X29549059Y-37602400D01*
X29549047Y-37602426D01*
X29469874Y-37793563D01*
X29469871Y-37793571D01*
X29469867Y-37793584D01*
X29469866Y-37793590D01*
X29429500Y-37996527D01*
X28990498Y-37996527D01*
X28979624Y-37941860D01*
X28950130Y-37793580D01*
X28950127Y-37793574D01*
X28950126Y-37793569D01*
X28950121Y-37793557D01*
X28949871Y-37792827D01*
X28949296Y-37791566D01*
X28907832Y-37691466D01*
X28870941Y-37602402D01*
X28755977Y-37430345D01*
X28635719Y-37310087D01*
X28630765Y-37298127D01*
X28473095Y-37192777D01*
X28467105Y-37183813D01*
X28437601Y-37169060D01*
X28437588Y-37169054D01*
X28437552Y-37169039D01*
X28246435Y-37089874D01*
X28246427Y-37089871D01*
X28246414Y-37089867D01*
X28246408Y-37089866D01*
X28043471Y-37049500D01*
X28043468Y-37049500D01*
X28043465Y-37049500D01*
X27836535Y-37049500D01*
X27836532Y-37049500D01*
X27836529Y-37049500D01*
X27633590Y-37089866D01*
X27633584Y-37089867D01*
X27633571Y-37089871D01*
X27633563Y-37089874D01*
X27442426Y-37169047D01*
X27442401Y-37169059D01*
X27442400Y-37169059D01*
X27270340Y-37284025D01*
X27124025Y-37430340D01*
X27009059Y-37602400D01*
X27009047Y-37602426D01*
X26929874Y-37793563D01*
X26929871Y-37793571D01*
X26929867Y-37793584D01*
X26929866Y-37793590D01*
X26889500Y-37996527D01*
X26450499Y-37996527D01*
X26450499Y-37502128D01*
X26448924Y-37487484D01*
X26448925Y-37487480D01*
X26448924Y-37487481D01*
X26444091Y-37442518D01*
X26444090Y-37442514D01*
X26401762Y-37329028D01*
X26393796Y-37307669D01*
X26307546Y-37192454D01*
X26230021Y-37134419D01*
X26230020Y-37134417D01*
X26192335Y-37106206D01*
X26192333Y-37106205D01*
X26192328Y-37106203D01*
X26192325Y-37106201D01*
X26192292Y-37106189D01*
X26064174Y-37058403D01*
X26064165Y-37058401D01*
X26057487Y-37055910D01*
X26057485Y-37055909D01*
X26057483Y-37055909D01*
X25997873Y-37049500D01*
X24802128Y-37049500D01*
X24802127Y-37049500D01*
X24772322Y-37052704D01*
X24742517Y-37055908D01*
X24742510Y-37055910D01*
X24607686Y-37106196D01*
X24607666Y-37106204D01*
X24492454Y-37192454D01*
X24406204Y-37307666D01*
X24406196Y-37307686D01*
X24355866Y-37442625D01*
X24355679Y-37443570D01*
X24355677Y-37443577D01*
X24355674Y-37443595D01*
X24355567Y-37445584D01*
X24355576Y-37445612D01*
X24351074Y-37487485D01*
X24349500Y-37502128D01*
X19550500Y-37502128D01*
X19550500Y-34962118D01*
X24349500Y-34962118D01*
X24349500Y-34962128D01*
X24349500Y-36157872D01*
X24355908Y-36217481D01*
X24355909Y-36217485D01*
X24398237Y-36330971D01*
X24403232Y-36344365D01*
X24406204Y-36352332D01*
X24423905Y-36375977D01*
X24492454Y-36467546D01*
X24607669Y-36553796D01*
X24742517Y-36604091D01*
X24802127Y-36610500D01*
X25997872Y-36610499D01*
X26057483Y-36604091D01*
X26192331Y-36553796D01*
X26307546Y-36467546D01*
X26393796Y-36352331D01*
X26444091Y-36217483D01*
X26450500Y-36157873D01*
X26450499Y-35456527D01*
X26889500Y-35456527D01*
X26889500Y-35663471D01*
X26929866Y-35866408D01*
X26929867Y-35866414D01*
X26929871Y-35866427D01*
X26929874Y-35866435D01*
X26990403Y-36012561D01*
X26990411Y-36012579D01*
X26990652Y-36013160D01*
X27009059Y-36057598D01*
X27009060Y-36057599D01*
X27117985Y-36220619D01*
X27124025Y-36229658D01*
X27244279Y-36349911D01*
X27249233Y-36361871D01*
X27270344Y-36375977D01*
X27346397Y-36426793D01*
X27442402Y-36490941D01*
X27531466Y-36527832D01*
X27631573Y-36569299D01*
X27633080Y-36569987D01*
X27633430Y-36570100D01*
X27633579Y-36570129D01*
X27633580Y-36570130D01*
X27830590Y-36609317D01*
X27834489Y-36610500D01*
X28043468Y-36610500D01*
X28054955Y-36610500D01*
X28061764Y-36606859D01*
X28246420Y-36570130D01*
X28246493Y-36570100D01*
X28272518Y-36559319D01*
X28437598Y-36490941D01*
X28609655Y-36375977D01*
X28755977Y-36229655D01*
X28870941Y-36057598D01*
X28939319Y-35892518D01*
X28950126Y-35866430D01*
X28950127Y-35866427D01*
X28950130Y-35866420D01*
X28986859Y-35681764D01*
X28990500Y-35674954D01*
X28990500Y-35458354D01*
X28990500Y-35456532D01*
X28990499Y-35456531D01*
X28990498Y-35456527D01*
X29429500Y-35456527D01*
X29429500Y-35663471D01*
X29469866Y-35866408D01*
X29469867Y-35866414D01*
X29469871Y-35866427D01*
X29469874Y-35866435D01*
X29530403Y-36012561D01*
X29530411Y-36012579D01*
X29530652Y-36013160D01*
X29549059Y-36057598D01*
X29549060Y-36057599D01*
X29657985Y-36220619D01*
X29664025Y-36229658D01*
X29784279Y-36349911D01*
X29789233Y-36361871D01*
X29810344Y-36375977D01*
X29886397Y-36426793D01*
X29982402Y-36490941D01*
X30071466Y-36527832D01*
X30171573Y-36569299D01*
X30173080Y-36569987D01*
X30173430Y-36570100D01*
X30173579Y-36570129D01*
X30173580Y-36570130D01*
X30370590Y-36609317D01*
X30374489Y-36610500D01*
X30583468Y-36610500D01*
X30594955Y-36610500D01*
X30601764Y-36606859D01*
X30786420Y-36570130D01*
X30786493Y-36570100D01*
X30812518Y-36559319D01*
X30977598Y-36490941D01*
X31149655Y-36375977D01*
X31295977Y-36229655D01*
X31410941Y-36057598D01*
X31479319Y-35892518D01*
X31490126Y-35866430D01*
X31490127Y-35866427D01*
X31490130Y-35866420D01*
X31526859Y-35681764D01*
X31530500Y-35674954D01*
X31530500Y-35458354D01*
X31530500Y-35456532D01*
X31530499Y-35456531D01*
X31530498Y-35456527D01*
X31969500Y-35456527D01*
X31969500Y-35663471D01*
X32009866Y-35866408D01*
X32009867Y-35866414D01*
X32009871Y-35866427D01*
X32009874Y-35866435D01*
X32070403Y-36012561D01*
X32070411Y-36012579D01*
X32070652Y-36013160D01*
X32089059Y-36057598D01*
X32089060Y-36057599D01*
X32197985Y-36220619D01*
X32204025Y-36229658D01*
X32324279Y-36349911D01*
X32329233Y-36361871D01*
X32350344Y-36375977D01*
X32426397Y-36426793D01*
X32522402Y-36490941D01*
X32611466Y-36527832D01*
X32711573Y-36569299D01*
X32713080Y-36569987D01*
X32713430Y-36570100D01*
X32713579Y-36570129D01*
X32713580Y-36570130D01*
X32910590Y-36609317D01*
X32914489Y-36610500D01*
X33123468Y-36610500D01*
X33134955Y-36610500D01*
X33141764Y-36606859D01*
X33326420Y-36570130D01*
X33326493Y-36570100D01*
X33352518Y-36559319D01*
X33517598Y-36490941D01*
X33689655Y-36375977D01*
X33835977Y-36229655D01*
X33950941Y-36057598D01*
X34019319Y-35892518D01*
X34030126Y-35866430D01*
X34030127Y-35866427D01*
X34030130Y-35866420D01*
X34066859Y-35681764D01*
X34070500Y-35674954D01*
X34070500Y-35458354D01*
X34070500Y-35456532D01*
X34070499Y-35456531D01*
X34070498Y-35456527D01*
X34509500Y-35456527D01*
X34509500Y-35663471D01*
X34549866Y-35866408D01*
X34549867Y-35866414D01*
X34549871Y-35866427D01*
X34549874Y-35866435D01*
X34610403Y-36012561D01*
X34610411Y-36012579D01*
X34610652Y-36013160D01*
X34629059Y-36057598D01*
X34629060Y-36057599D01*
X34737985Y-36220619D01*
X34744025Y-36229658D01*
X34864279Y-36349911D01*
X34869233Y-36361871D01*
X34890344Y-36375977D01*
X34966397Y-36426793D01*
X35062402Y-36490941D01*
X35151466Y-36527832D01*
X35251573Y-36569299D01*
X35253080Y-36569987D01*
X35253430Y-36570100D01*
X35253579Y-36570129D01*
X35253580Y-36570130D01*
X35450590Y-36609317D01*
X35454489Y-36610500D01*
X35663468Y-36610500D01*
X35674955Y-36610500D01*
X35681764Y-36606859D01*
X35866420Y-36570130D01*
X35866493Y-36570100D01*
X35892518Y-36559319D01*
X36057598Y-36490941D01*
X36229655Y-36375977D01*
X36375977Y-36229655D01*
X36490941Y-36057598D01*
X36559319Y-35892518D01*
X36570126Y-35866430D01*
X36570127Y-35866427D01*
X36570130Y-35866420D01*
X36606859Y-35681764D01*
X36610500Y-35674954D01*
X36610500Y-35458354D01*
X36610500Y-35456532D01*
X36610499Y-35456531D01*
X36610498Y-35456527D01*
X37049500Y-35456527D01*
X37049500Y-35663471D01*
X37089866Y-35866408D01*
X37089867Y-35866414D01*
X37089871Y-35866427D01*
X37089874Y-35866435D01*
X37150403Y-36012561D01*
X37150411Y-36012579D01*
X37150652Y-36013160D01*
X37169059Y-36057598D01*
X37169060Y-36057599D01*
X37277985Y-36220619D01*
X37284025Y-36229658D01*
X37404279Y-36349911D01*
X37409233Y-36361871D01*
X37430344Y-36375977D01*
X37506397Y-36426793D01*
X37602402Y-36490941D01*
X37691466Y-36527832D01*
X37791573Y-36569299D01*
X37793080Y-36569987D01*
X37793430Y-36570100D01*
X37793579Y-36570129D01*
X37793580Y-36570130D01*
X37990590Y-36609317D01*
X37994489Y-36610500D01*
X38203468Y-36610500D01*
X38214955Y-36610500D01*
X38221764Y-36606859D01*
X38406420Y-36570130D01*
X38406493Y-36570100D01*
X38432518Y-36559319D01*
X38597598Y-36490941D01*
X38769655Y-36375977D01*
X38915977Y-36229655D01*
X39030941Y-36057598D01*
X39099319Y-35892518D01*
X39110126Y-35866430D01*
X39110127Y-35866427D01*
X39110130Y-35866420D01*
X39146859Y-35681764D01*
X39150500Y-35674954D01*
X39150500Y-35458354D01*
X39150500Y-35456532D01*
X39150499Y-35456531D01*
X39150498Y-35456527D01*
X39589500Y-35456527D01*
X39589500Y-35663471D01*
X39629866Y-35866408D01*
X39629867Y-35866414D01*
X39629871Y-35866427D01*
X39629874Y-35866435D01*
X39690403Y-36012561D01*
X39690411Y-36012579D01*
X39690652Y-36013160D01*
X39709059Y-36057598D01*
X39709060Y-36057599D01*
X39817985Y-36220619D01*
X39824025Y-36229658D01*
X39944279Y-36349911D01*
X39949233Y-36361871D01*
X39970344Y-36375977D01*
X40046397Y-36426793D01*
X40142402Y-36490941D01*
X40231466Y-36527832D01*
X40331573Y-36569299D01*
X40333080Y-36569987D01*
X40333430Y-36570100D01*
X40333579Y-36570129D01*
X40333580Y-36570130D01*
X40530590Y-36609317D01*
X40534489Y-36610500D01*
X40743468Y-36610500D01*
X40754955Y-36610500D01*
X40761764Y-36606859D01*
X40946420Y-36570130D01*
X40946493Y-36570100D01*
X40972518Y-36559319D01*
X41137598Y-36490941D01*
X41309655Y-36375977D01*
X41455977Y-36229655D01*
X41570941Y-36057598D01*
X41639319Y-35892518D01*
X41650126Y-35866430D01*
X41650127Y-35866427D01*
X41650130Y-35866420D01*
X41686859Y-35681764D01*
X41690500Y-35674954D01*
X41690500Y-35458354D01*
X41690500Y-35456532D01*
X41690499Y-35456531D01*
X41690498Y-35456527D01*
X42129500Y-35456527D01*
X42129500Y-35663471D01*
X42169866Y-35866408D01*
X42169867Y-35866414D01*
X42169871Y-35866427D01*
X42169874Y-35866435D01*
X42230403Y-36012561D01*
X42230411Y-36012579D01*
X42230652Y-36013160D01*
X42249059Y-36057598D01*
X42249060Y-36057599D01*
X42357985Y-36220619D01*
X42364025Y-36229658D01*
X42484279Y-36349911D01*
X42489233Y-36361871D01*
X42510344Y-36375977D01*
X42586397Y-36426793D01*
X42682402Y-36490941D01*
X42771466Y-36527832D01*
X42871573Y-36569299D01*
X42873080Y-36569987D01*
X42873430Y-36570100D01*
X42873579Y-36570129D01*
X42873580Y-36570130D01*
X43070590Y-36609317D01*
X43074489Y-36610500D01*
X43283468Y-36610500D01*
X43294955Y-36610500D01*
X43301764Y-36606859D01*
X43486420Y-36570130D01*
X43486493Y-36570100D01*
X43512518Y-36559319D01*
X43677598Y-36490941D01*
X43849655Y-36375977D01*
X43995977Y-36229655D01*
X44110941Y-36057598D01*
X44179319Y-35892518D01*
X44190126Y-35866430D01*
X44190127Y-35866427D01*
X44190130Y-35866420D01*
X44226859Y-35681764D01*
X44230500Y-35674954D01*
X44230500Y-35458354D01*
X44230500Y-35456532D01*
X44230499Y-35456531D01*
X44230498Y-35456527D01*
X44669500Y-35456527D01*
X44669500Y-35663471D01*
X44709866Y-35866408D01*
X44709867Y-35866414D01*
X44709871Y-35866427D01*
X44709874Y-35866435D01*
X44770403Y-36012561D01*
X44770411Y-36012579D01*
X44770652Y-36013160D01*
X44789059Y-36057598D01*
X44789060Y-36057599D01*
X44897985Y-36220619D01*
X44904025Y-36229658D01*
X45024279Y-36349911D01*
X45029233Y-36361871D01*
X45050344Y-36375977D01*
X45126397Y-36426793D01*
X45222402Y-36490941D01*
X45311466Y-36527832D01*
X45411573Y-36569299D01*
X45413080Y-36569987D01*
X45413430Y-36570100D01*
X45413579Y-36570129D01*
X45413580Y-36570130D01*
X45610590Y-36609317D01*
X45614489Y-36610500D01*
X45823468Y-36610500D01*
X45834955Y-36610500D01*
X45841764Y-36606859D01*
X46026420Y-36570130D01*
X46026493Y-36570100D01*
X46052518Y-36559319D01*
X46217598Y-36490941D01*
X46389655Y-36375977D01*
X46535977Y-36229655D01*
X46650941Y-36057598D01*
X46719319Y-35892518D01*
X46730126Y-35866430D01*
X46730127Y-35866427D01*
X46730130Y-35866420D01*
X46766859Y-35681764D01*
X46770500Y-35674954D01*
X46770500Y-35458354D01*
X46770500Y-35456532D01*
X46770499Y-35456531D01*
X46770498Y-35456527D01*
X47209500Y-35456527D01*
X47209500Y-35663471D01*
X47249866Y-35866408D01*
X47249867Y-35866414D01*
X47249871Y-35866427D01*
X47249874Y-35866435D01*
X47310403Y-36012561D01*
X47310411Y-36012579D01*
X47310652Y-36013160D01*
X47329059Y-36057598D01*
X47329060Y-36057599D01*
X47437985Y-36220619D01*
X47444025Y-36229658D01*
X47564279Y-36349911D01*
X47569233Y-36361871D01*
X47590344Y-36375977D01*
X47666397Y-36426793D01*
X47762402Y-36490941D01*
X47851466Y-36527832D01*
X47951573Y-36569299D01*
X47953080Y-36569987D01*
X47953430Y-36570100D01*
X47953579Y-36570129D01*
X47953580Y-36570130D01*
X48150590Y-36609317D01*
X48154489Y-36610500D01*
X48363468Y-36610500D01*
X48374955Y-36610500D01*
X48381764Y-36606859D01*
X48566420Y-36570130D01*
X48566493Y-36570100D01*
X48592518Y-36559319D01*
X48757598Y-36490941D01*
X48929655Y-36375977D01*
X49075977Y-36229655D01*
X49190941Y-36057598D01*
X49259319Y-35892518D01*
X49270126Y-35866430D01*
X49270127Y-35866427D01*
X49270130Y-35866420D01*
X49306859Y-35681764D01*
X49310500Y-35674954D01*
X49310500Y-35458354D01*
X49310500Y-35456532D01*
X49310499Y-35456531D01*
X49310498Y-35456527D01*
X49749500Y-35456527D01*
X49749500Y-35663471D01*
X49789866Y-35866408D01*
X49789867Y-35866414D01*
X49789871Y-35866427D01*
X49789874Y-35866435D01*
X49850403Y-36012561D01*
X49850411Y-36012579D01*
X49850652Y-36013160D01*
X49869059Y-36057598D01*
X49869060Y-36057599D01*
X49977985Y-36220619D01*
X49984025Y-36229658D01*
X50104279Y-36349911D01*
X50109233Y-36361871D01*
X50130344Y-36375977D01*
X50206397Y-36426793D01*
X50302402Y-36490941D01*
X50391466Y-36527832D01*
X50491573Y-36569299D01*
X50493080Y-36569987D01*
X50493430Y-36570100D01*
X50493579Y-36570129D01*
X50493580Y-36570130D01*
X50690590Y-36609317D01*
X50694489Y-36610500D01*
X50903468Y-36610500D01*
X50914955Y-36610500D01*
X50921764Y-36606859D01*
X51106420Y-36570130D01*
X51106493Y-36570100D01*
X51132518Y-36559319D01*
X51297598Y-36490941D01*
X51469655Y-36375977D01*
X51615977Y-36229655D01*
X51730941Y-36057598D01*
X51799319Y-35892518D01*
X51810126Y-35866430D01*
X51810127Y-35866427D01*
X51810130Y-35866420D01*
X51846859Y-35681764D01*
X51850500Y-35674954D01*
X51850500Y-35454489D01*
X51849316Y-35450586D01*
X51811312Y-35259522D01*
X51811312Y-35259523D01*
X51810131Y-35253585D01*
X51810130Y-35253584D01*
X51810130Y-35253580D01*
X51810127Y-35253574D01*
X51810009Y-35252979D01*
X51808984Y-35250810D01*
X51756596Y-35124339D01*
X51731774Y-35064416D01*
X51731287Y-35063110D01*
X51730942Y-35062405D01*
X51730941Y-35062402D01*
X51615977Y-34890345D01*
X51495719Y-34770087D01*
X51490765Y-34758127D01*
X51333095Y-34652777D01*
X51327105Y-34643813D01*
X51297601Y-34629060D01*
X51297588Y-34629054D01*
X51297552Y-34629039D01*
X51106435Y-34549874D01*
X51106427Y-34549871D01*
X51106414Y-34549867D01*
X51106408Y-34549866D01*
X50903471Y-34509500D01*
X50903468Y-34509500D01*
X50903465Y-34509500D01*
X50696535Y-34509500D01*
X50696532Y-34509500D01*
X50696529Y-34509500D01*
X50493590Y-34549866D01*
X50493584Y-34549867D01*
X50493571Y-34549871D01*
X50493563Y-34549874D01*
X50302426Y-34629047D01*
X50302401Y-34629059D01*
X50302400Y-34629059D01*
X50130340Y-34744025D01*
X49984025Y-34890340D01*
X49869059Y-35062400D01*
X49869059Y-35062401D01*
X49869047Y-35062426D01*
X49789874Y-35253563D01*
X49789871Y-35253571D01*
X49789867Y-35253584D01*
X49789866Y-35253590D01*
X49749500Y-35456527D01*
X49310498Y-35456527D01*
X49272959Y-35267802D01*
X49271312Y-35259519D01*
X49271154Y-35257917D01*
X49270382Y-35254647D01*
X49270026Y-35253015D01*
X49268984Y-35250810D01*
X49216596Y-35124339D01*
X49191774Y-35064416D01*
X49191287Y-35063110D01*
X49190942Y-35062405D01*
X49190941Y-35062402D01*
X49075977Y-34890345D01*
X48955719Y-34770087D01*
X48950765Y-34758127D01*
X48793095Y-34652777D01*
X48787105Y-34643813D01*
X48757601Y-34629060D01*
X48757588Y-34629054D01*
X48757552Y-34629039D01*
X48566435Y-34549874D01*
X48566427Y-34549871D01*
X48566414Y-34549867D01*
X48566408Y-34549866D01*
X48363471Y-34509500D01*
X48363468Y-34509500D01*
X48363465Y-34509500D01*
X48156535Y-34509500D01*
X48156532Y-34509500D01*
X48156529Y-34509500D01*
X47953590Y-34549866D01*
X47953584Y-34549867D01*
X47953571Y-34549871D01*
X47953563Y-34549874D01*
X47762426Y-34629047D01*
X47762401Y-34629059D01*
X47762400Y-34629059D01*
X47590340Y-34744025D01*
X47444025Y-34890340D01*
X47329059Y-35062400D01*
X47329059Y-35062401D01*
X47329047Y-35062426D01*
X47249874Y-35253563D01*
X47249871Y-35253571D01*
X47249867Y-35253584D01*
X47249866Y-35253590D01*
X47209500Y-35456527D01*
X46770498Y-35456527D01*
X46732959Y-35267802D01*
X46731312Y-35259519D01*
X46731154Y-35257917D01*
X46730382Y-35254647D01*
X46730026Y-35253015D01*
X46728984Y-35250810D01*
X46676596Y-35124339D01*
X46651774Y-35064416D01*
X46651287Y-35063110D01*
X46650942Y-35062405D01*
X46650941Y-35062402D01*
X46535977Y-34890345D01*
X46415719Y-34770087D01*
X46410765Y-34758127D01*
X46253095Y-34652777D01*
X46247105Y-34643813D01*
X46217601Y-34629060D01*
X46217588Y-34629054D01*
X46217552Y-34629039D01*
X46026435Y-34549874D01*
X46026427Y-34549871D01*
X46026414Y-34549867D01*
X46026408Y-34549866D01*
X45823471Y-34509500D01*
X45823468Y-34509500D01*
X45823465Y-34509500D01*
X45616535Y-34509500D01*
X45616532Y-34509500D01*
X45616529Y-34509500D01*
X45413590Y-34549866D01*
X45413584Y-34549867D01*
X45413571Y-34549871D01*
X45413563Y-34549874D01*
X45222426Y-34629047D01*
X45222401Y-34629059D01*
X45222400Y-34629059D01*
X45050340Y-34744025D01*
X44904025Y-34890340D01*
X44789059Y-35062400D01*
X44789059Y-35062401D01*
X44789047Y-35062426D01*
X44709874Y-35253563D01*
X44709871Y-35253571D01*
X44709867Y-35253584D01*
X44709866Y-35253590D01*
X44669500Y-35456527D01*
X44230498Y-35456527D01*
X44192959Y-35267802D01*
X44191312Y-35259519D01*
X44191154Y-35257917D01*
X44190382Y-35254647D01*
X44190026Y-35253015D01*
X44188984Y-35250810D01*
X44136596Y-35124339D01*
X44111774Y-35064416D01*
X44111287Y-35063110D01*
X44110942Y-35062405D01*
X44110941Y-35062402D01*
X43995977Y-34890345D01*
X43875719Y-34770087D01*
X43870765Y-34758127D01*
X43713095Y-34652777D01*
X43707105Y-34643813D01*
X43677601Y-34629060D01*
X43677588Y-34629054D01*
X43677552Y-34629039D01*
X43486435Y-34549874D01*
X43486427Y-34549871D01*
X43486414Y-34549867D01*
X43486408Y-34549866D01*
X43283471Y-34509500D01*
X43283468Y-34509500D01*
X43283465Y-34509500D01*
X43076535Y-34509500D01*
X43076532Y-34509500D01*
X43076529Y-34509500D01*
X42873590Y-34549866D01*
X42873584Y-34549867D01*
X42873571Y-34549871D01*
X42873563Y-34549874D01*
X42682426Y-34629047D01*
X42682401Y-34629059D01*
X42682400Y-34629059D01*
X42510340Y-34744025D01*
X42364025Y-34890340D01*
X42249059Y-35062400D01*
X42249059Y-35062401D01*
X42249047Y-35062426D01*
X42169874Y-35253563D01*
X42169871Y-35253571D01*
X42169867Y-35253584D01*
X42169866Y-35253590D01*
X42129500Y-35456527D01*
X41690498Y-35456527D01*
X41652959Y-35267802D01*
X41651312Y-35259519D01*
X41651154Y-35257917D01*
X41650382Y-35254647D01*
X41650026Y-35253015D01*
X41648984Y-35250810D01*
X41596596Y-35124339D01*
X41571774Y-35064416D01*
X41571287Y-35063110D01*
X41570942Y-35062405D01*
X41570941Y-35062402D01*
X41455977Y-34890345D01*
X41335719Y-34770087D01*
X41330765Y-34758127D01*
X41173095Y-34652777D01*
X41167105Y-34643813D01*
X41137601Y-34629060D01*
X41137588Y-34629054D01*
X41137552Y-34629039D01*
X40946435Y-34549874D01*
X40946427Y-34549871D01*
X40946414Y-34549867D01*
X40946408Y-34549866D01*
X40743471Y-34509500D01*
X40743468Y-34509500D01*
X40743465Y-34509500D01*
X40536535Y-34509500D01*
X40536532Y-34509500D01*
X40536529Y-34509500D01*
X40333590Y-34549866D01*
X40333584Y-34549867D01*
X40333571Y-34549871D01*
X40333563Y-34549874D01*
X40142426Y-34629047D01*
X40142401Y-34629059D01*
X40142400Y-34629059D01*
X39970340Y-34744025D01*
X39824025Y-34890340D01*
X39709059Y-35062400D01*
X39709059Y-35062401D01*
X39709047Y-35062426D01*
X39629874Y-35253563D01*
X39629871Y-35253571D01*
X39629867Y-35253584D01*
X39629866Y-35253590D01*
X39589500Y-35456527D01*
X39150498Y-35456527D01*
X39112959Y-35267802D01*
X39111312Y-35259519D01*
X39111154Y-35257917D01*
X39110382Y-35254647D01*
X39110026Y-35253015D01*
X39108984Y-35250810D01*
X39056596Y-35124339D01*
X39031774Y-35064416D01*
X39031287Y-35063110D01*
X39030942Y-35062405D01*
X39030941Y-35062402D01*
X38915977Y-34890345D01*
X38795719Y-34770087D01*
X38790765Y-34758127D01*
X38633095Y-34652777D01*
X38627105Y-34643813D01*
X38597601Y-34629060D01*
X38597588Y-34629054D01*
X38597552Y-34629039D01*
X38406435Y-34549874D01*
X38406427Y-34549871D01*
X38406414Y-34549867D01*
X38406408Y-34549866D01*
X38203471Y-34509500D01*
X38203468Y-34509500D01*
X38203465Y-34509500D01*
X37996535Y-34509500D01*
X37996532Y-34509500D01*
X37996529Y-34509500D01*
X37793590Y-34549866D01*
X37793584Y-34549867D01*
X37793571Y-34549871D01*
X37793563Y-34549874D01*
X37602426Y-34629047D01*
X37602401Y-34629059D01*
X37602400Y-34629059D01*
X37430340Y-34744025D01*
X37284025Y-34890340D01*
X37169059Y-35062400D01*
X37169059Y-35062401D01*
X37169047Y-35062426D01*
X37089874Y-35253563D01*
X37089871Y-35253571D01*
X37089867Y-35253584D01*
X37089866Y-35253590D01*
X37049500Y-35456527D01*
X36610498Y-35456527D01*
X36572959Y-35267802D01*
X36571312Y-35259519D01*
X36571154Y-35257917D01*
X36570382Y-35254647D01*
X36570026Y-35253015D01*
X36568984Y-35250810D01*
X36516596Y-35124339D01*
X36491774Y-35064416D01*
X36491287Y-35063110D01*
X36490942Y-35062405D01*
X36490941Y-35062402D01*
X36375977Y-34890345D01*
X36255719Y-34770087D01*
X36250765Y-34758127D01*
X36093095Y-34652777D01*
X36087105Y-34643813D01*
X36057601Y-34629060D01*
X36057588Y-34629054D01*
X36057552Y-34629039D01*
X35866435Y-34549874D01*
X35866427Y-34549871D01*
X35866414Y-34549867D01*
X35866408Y-34549866D01*
X35663471Y-34509500D01*
X35663468Y-34509500D01*
X35663465Y-34509500D01*
X35456535Y-34509500D01*
X35456532Y-34509500D01*
X35456529Y-34509500D01*
X35253590Y-34549866D01*
X35253584Y-34549867D01*
X35253571Y-34549871D01*
X35253563Y-34549874D01*
X35062426Y-34629047D01*
X35062401Y-34629059D01*
X35062400Y-34629059D01*
X34890340Y-34744025D01*
X34744025Y-34890340D01*
X34629059Y-35062400D01*
X34629059Y-35062401D01*
X34629047Y-35062426D01*
X34549874Y-35253563D01*
X34549871Y-35253571D01*
X34549867Y-35253584D01*
X34549866Y-35253590D01*
X34509500Y-35456527D01*
X34070498Y-35456527D01*
X34032959Y-35267802D01*
X34031312Y-35259519D01*
X34031154Y-35257917D01*
X34030382Y-35254647D01*
X34030026Y-35253015D01*
X34028984Y-35250810D01*
X33976596Y-35124339D01*
X33951774Y-35064416D01*
X33951287Y-35063110D01*
X33950942Y-35062405D01*
X33950941Y-35062402D01*
X33835977Y-34890345D01*
X33715719Y-34770087D01*
X33710765Y-34758127D01*
X33553095Y-34652777D01*
X33547105Y-34643813D01*
X33517601Y-34629060D01*
X33517588Y-34629054D01*
X33517552Y-34629039D01*
X33326435Y-34549874D01*
X33326427Y-34549871D01*
X33326414Y-34549867D01*
X33326408Y-34549866D01*
X33123471Y-34509500D01*
X33123468Y-34509500D01*
X33123465Y-34509500D01*
X32916535Y-34509500D01*
X32916532Y-34509500D01*
X32916529Y-34509500D01*
X32713590Y-34549866D01*
X32713584Y-34549867D01*
X32713571Y-34549871D01*
X32713563Y-34549874D01*
X32522426Y-34629047D01*
X32522401Y-34629059D01*
X32522400Y-34629059D01*
X32350340Y-34744025D01*
X32204025Y-34890340D01*
X32089059Y-35062400D01*
X32089059Y-35062401D01*
X32089047Y-35062426D01*
X32009874Y-35253563D01*
X32009871Y-35253571D01*
X32009867Y-35253584D01*
X32009866Y-35253590D01*
X31969500Y-35456527D01*
X31530498Y-35456527D01*
X31492959Y-35267802D01*
X31491312Y-35259519D01*
X31491154Y-35257917D01*
X31490382Y-35254647D01*
X31490026Y-35253015D01*
X31488984Y-35250810D01*
X31436596Y-35124339D01*
X31411774Y-35064416D01*
X31411287Y-35063110D01*
X31410942Y-35062405D01*
X31410941Y-35062402D01*
X31295977Y-34890345D01*
X31175719Y-34770087D01*
X31170765Y-34758127D01*
X31013095Y-34652777D01*
X31007105Y-34643813D01*
X30977601Y-34629060D01*
X30977588Y-34629054D01*
X30977552Y-34629039D01*
X30786435Y-34549874D01*
X30786427Y-34549871D01*
X30786414Y-34549867D01*
X30786408Y-34549866D01*
X30583471Y-34509500D01*
X30583468Y-34509500D01*
X30583465Y-34509500D01*
X30376535Y-34509500D01*
X30376532Y-34509500D01*
X30376529Y-34509500D01*
X30173590Y-34549866D01*
X30173584Y-34549867D01*
X30173571Y-34549871D01*
X30173563Y-34549874D01*
X29982426Y-34629047D01*
X29982401Y-34629059D01*
X29982400Y-34629059D01*
X29810340Y-34744025D01*
X29664025Y-34890340D01*
X29549059Y-35062400D01*
X29549059Y-35062401D01*
X29549047Y-35062426D01*
X29469874Y-35253563D01*
X29469871Y-35253571D01*
X29469867Y-35253584D01*
X29469866Y-35253590D01*
X29429500Y-35456527D01*
X28990498Y-35456527D01*
X28952959Y-35267802D01*
X28951312Y-35259519D01*
X28951154Y-35257917D01*
X28950382Y-35254647D01*
X28950026Y-35253015D01*
X28948984Y-35250810D01*
X28896596Y-35124339D01*
X28871774Y-35064416D01*
X28871287Y-35063110D01*
X28870942Y-35062405D01*
X28870941Y-35062402D01*
X28755977Y-34890345D01*
X28635719Y-34770087D01*
X28630765Y-34758127D01*
X28473095Y-34652777D01*
X28467105Y-34643813D01*
X28437601Y-34629060D01*
X28437588Y-34629054D01*
X28437552Y-34629039D01*
X28246435Y-34549874D01*
X28246427Y-34549871D01*
X28246414Y-34549867D01*
X28246408Y-34549866D01*
X28043471Y-34509500D01*
X28043468Y-34509500D01*
X28043465Y-34509500D01*
X27836535Y-34509500D01*
X27836532Y-34509500D01*
X27836529Y-34509500D01*
X27633590Y-34549866D01*
X27633584Y-34549867D01*
X27633571Y-34549871D01*
X27633563Y-34549874D01*
X27442426Y-34629047D01*
X27442401Y-34629059D01*
X27442400Y-34629059D01*
X27270340Y-34744025D01*
X27124025Y-34890340D01*
X27009059Y-35062400D01*
X27009059Y-35062401D01*
X27009047Y-35062426D01*
X26929874Y-35253563D01*
X26929871Y-35253571D01*
X26929867Y-35253584D01*
X26929866Y-35253590D01*
X26889500Y-35456527D01*
X26450499Y-35456527D01*
X26450499Y-35281067D01*
X26451947Y-35267802D01*
X26455088Y-35253585D01*
X26455670Y-35250948D01*
X26473396Y-34409657D01*
X26491394Y-34367468D01*
X26799705Y-34059159D01*
X26819650Y-34045832D01*
X26837503Y-34038438D01*
X26840541Y-34037180D01*
X26864073Y-34032500D01*
X51240927Y-34032500D01*
X51264461Y-34037181D01*
X51280164Y-34043685D01*
X51285342Y-34045830D01*
X51285345Y-34045831D01*
X51305298Y-34059163D01*
X51886480Y-34640345D01*
X51900925Y-34663190D01*
X52330042Y-35867523D01*
X52331229Y-35870084D01*
X52331166Y-35870112D01*
X52332601Y-35873017D01*
X52385584Y-36000925D01*
X52390652Y-36013160D01*
X52409059Y-36057598D01*
X52409060Y-36057599D01*
X52517985Y-36220619D01*
X52524025Y-36229658D01*
X52644279Y-36349911D01*
X52649233Y-36361871D01*
X52670344Y-36375977D01*
X52746397Y-36426793D01*
X52842402Y-36490941D01*
X52931466Y-36527832D01*
X53031573Y-36569299D01*
X53033080Y-36569987D01*
X53033430Y-36570100D01*
X53033579Y-36570129D01*
X53033580Y-36570130D01*
X53230590Y-36609317D01*
X53234489Y-36610500D01*
X53443468Y-36610500D01*
X53454955Y-36610500D01*
X53461764Y-36606859D01*
X53646420Y-36570130D01*
X53646493Y-36570100D01*
X53672518Y-36559319D01*
X53837598Y-36490941D01*
X54009655Y-36375977D01*
X54155977Y-36229655D01*
X54270941Y-36057598D01*
X54339319Y-35892518D01*
X54350126Y-35866430D01*
X54350127Y-35866427D01*
X54350130Y-35866420D01*
X54386859Y-35681764D01*
X54390500Y-35674954D01*
X54390500Y-35454489D01*
X54389316Y-35450586D01*
X54351312Y-35259522D01*
X54351312Y-35259523D01*
X54350131Y-35253585D01*
X54350130Y-35253584D01*
X54350130Y-35253580D01*
X54350127Y-35253574D01*
X54350009Y-35252979D01*
X54348984Y-35250810D01*
X54296596Y-35124339D01*
X54271774Y-35064416D01*
X54271287Y-35063110D01*
X54270942Y-35062405D01*
X54270941Y-35062402D01*
X54155977Y-34890345D01*
X54035719Y-34770087D01*
X54030765Y-34758127D01*
X53873095Y-34652777D01*
X53867105Y-34643813D01*
X53837601Y-34629060D01*
X53837588Y-34629054D01*
X53837581Y-34629051D01*
X53653221Y-34552685D01*
X53650316Y-34551226D01*
X53650266Y-34551334D01*
X53647528Y-34550044D01*
X52443190Y-34120925D01*
X52420345Y-34106480D01*
X51666789Y-33352924D01*
X51666782Y-33352919D01*
X51580720Y-33303230D01*
X51580714Y-33303227D01*
X51580703Y-33303223D01*
X51580697Y-33303221D01*
X51484704Y-33277500D01*
X51484701Y-33277500D01*
X51484699Y-33277500D01*
X26620301Y-33277500D01*
X26620299Y-33277500D01*
X26524300Y-33303222D01*
X26524291Y-33303225D01*
X26524291Y-33303226D01*
X26475958Y-33331130D01*
X26475951Y-33331131D01*
X26438220Y-33352917D01*
X26438212Y-33352922D01*
X26438210Y-33352924D01*
X26438202Y-33352931D01*
X25909245Y-33881886D01*
X25894315Y-33892867D01*
X24645415Y-34547645D01*
X24645413Y-34547646D01*
X24641932Y-34550367D01*
X24625560Y-34559530D01*
X24607663Y-34566206D01*
X24492454Y-34652454D01*
X24406204Y-34767666D01*
X24406196Y-34767686D01*
X24355910Y-34902509D01*
X24355909Y-34902510D01*
X24349500Y-34962118D01*
X19550500Y-34962118D01*
X19550500Y-33174027D01*
X59394500Y-33174027D01*
X59394500Y-33380971D01*
X59434866Y-33583908D01*
X59434867Y-33583914D01*
X59434871Y-33583927D01*
X59434874Y-33583935D01*
X59514034Y-33775040D01*
X59514058Y-33775097D01*
X59514132Y-33775207D01*
X59620893Y-33934988D01*
X59629025Y-33947158D01*
X59749279Y-34067411D01*
X59754233Y-34079371D01*
X59775345Y-34093477D01*
X59775344Y-34093477D01*
X59861664Y-34151153D01*
X59947402Y-34208441D01*
X60036466Y-34245332D01*
X60136573Y-34286799D01*
X60138080Y-34287487D01*
X60138430Y-34287600D01*
X60138579Y-34287629D01*
X60138580Y-34287630D01*
X60335590Y-34326817D01*
X60339489Y-34328000D01*
X60548468Y-34328000D01*
X60559955Y-34328000D01*
X60566764Y-34324359D01*
X60751420Y-34287630D01*
X60751493Y-34287600D01*
X60777518Y-34276819D01*
X60942598Y-34208441D01*
X61114655Y-34093477D01*
X61260977Y-33947155D01*
X61375941Y-33775098D01*
X61455130Y-33583920D01*
X61491859Y-33399264D01*
X61495500Y-33392454D01*
X61495500Y-33171989D01*
X61494316Y-33168086D01*
X61456312Y-32977022D01*
X61456312Y-32977023D01*
X61455131Y-32971085D01*
X61455130Y-32971084D01*
X61455130Y-32971080D01*
X61455127Y-32971074D01*
X61455009Y-32970479D01*
X61453984Y-32968310D01*
X61428192Y-32906046D01*
X61375943Y-32779908D01*
X61375941Y-32779902D01*
X61332658Y-32715123D01*
X61332635Y-32715088D01*
X61330672Y-32712150D01*
X61330671Y-32712148D01*
X61308935Y-32679618D01*
X61894500Y-32679618D01*
X61894500Y-33875371D01*
X61900908Y-33934981D01*
X61900910Y-33934988D01*
X61937280Y-34032500D01*
X61951203Y-34069830D01*
X61968905Y-34093477D01*
X62037454Y-34185046D01*
X62152669Y-34271296D01*
X62287517Y-34321591D01*
X62347127Y-34328000D01*
X63542872Y-34327999D01*
X63602483Y-34321591D01*
X63737331Y-34271296D01*
X63852546Y-34185046D01*
X63938796Y-34069831D01*
X63989091Y-33934983D01*
X63995500Y-33875373D01*
X63995499Y-32679628D01*
X63989091Y-32620017D01*
X63989088Y-32620010D01*
X63953037Y-32523352D01*
X63938796Y-32485169D01*
X63852546Y-32369954D01*
X63783314Y-32318127D01*
X63737333Y-32283705D01*
X63737332Y-32283704D01*
X63737312Y-32283696D01*
X63609174Y-32235903D01*
X63609165Y-32235901D01*
X63602487Y-32233410D01*
X63602485Y-32233409D01*
X63602483Y-32233409D01*
X63542873Y-32227000D01*
X62347128Y-32227000D01*
X62347127Y-32227000D01*
X62317322Y-32230204D01*
X62287517Y-32233408D01*
X62287510Y-32233410D01*
X62152686Y-32283696D01*
X62152666Y-32283704D01*
X62037454Y-32369954D01*
X61951204Y-32485166D01*
X61951196Y-32485186D01*
X61900910Y-32620009D01*
X61900909Y-32620010D01*
X61894500Y-32679618D01*
X61308935Y-32679618D01*
X61260984Y-32607854D01*
X61260975Y-32607843D01*
X61140719Y-32487587D01*
X61135765Y-32475627D01*
X60978095Y-32370277D01*
X60972105Y-32361313D01*
X60942601Y-32346560D01*
X60942588Y-32346554D01*
X60942552Y-32346539D01*
X60751435Y-32267374D01*
X60751427Y-32267371D01*
X60751414Y-32267367D01*
X60751408Y-32267366D01*
X60548471Y-32227000D01*
X60548468Y-32227000D01*
X60548465Y-32227000D01*
X60341535Y-32227000D01*
X60341532Y-32227000D01*
X60341529Y-32227000D01*
X60138590Y-32267366D01*
X60138584Y-32267367D01*
X60138571Y-32267371D01*
X60138563Y-32267374D01*
X59947426Y-32346547D01*
X59947401Y-32346559D01*
X59947400Y-32346559D01*
X59775340Y-32461525D01*
X59629025Y-32607840D01*
X59514059Y-32779900D01*
X59514059Y-32779901D01*
X59514047Y-32779926D01*
X59434874Y-32971063D01*
X59434871Y-32971071D01*
X59434867Y-32971084D01*
X59434866Y-32971090D01*
X59394500Y-33174027D01*
X19550500Y-33174027D01*
X19550500Y-29137518D01*
X27389500Y-29137518D01*
X27389500Y-29282480D01*
X27427011Y-29422475D01*
X27427015Y-29422485D01*
X27499486Y-29548008D01*
X27499489Y-29548012D01*
X27499491Y-29548015D01*
X27601985Y-29650509D01*
X27727515Y-29722984D01*
X27727519Y-29722986D01*
X27727542Y-29722995D01*
X27728019Y-29723119D01*
X27746190Y-29727988D01*
X27867521Y-29760500D01*
X28012476Y-29760500D01*
X28012478Y-29760500D01*
X28043341Y-29752229D01*
X28074206Y-29743958D01*
X28124594Y-29730456D01*
X28134035Y-29728703D01*
X28140797Y-29727989D01*
X28583405Y-29590277D01*
X28601676Y-29587500D01*
X42518323Y-29587500D01*
X42536594Y-29590277D01*
X42963571Y-29723126D01*
X42979195Y-29727987D01*
X42979194Y-29727987D01*
X42979201Y-29727989D01*
X42988954Y-29729271D01*
X42996820Y-29730835D01*
X43085070Y-29754483D01*
X43107522Y-29760500D01*
X43252476Y-29760500D01*
X43252477Y-29760500D01*
X43264822Y-29757191D01*
X43314206Y-29743958D01*
X43314207Y-29743958D01*
X43392478Y-29722986D01*
X43392478Y-29722985D01*
X43392485Y-29722984D01*
X43518015Y-29650509D01*
X43620509Y-29548015D01*
X43692984Y-29422485D01*
X43707540Y-29368158D01*
X43730500Y-29282477D01*
X43730500Y-29137522D01*
X43730500Y-29137519D01*
X43700881Y-29026986D01*
X43693119Y-28998019D01*
X43692995Y-28997542D01*
X43692986Y-28997519D01*
X43686288Y-28985918D01*
X43620509Y-28871985D01*
X43574131Y-28825607D01*
X43560797Y-28805649D01*
X43558264Y-28799532D01*
X43558269Y-28752462D01*
X43591555Y-28719182D01*
X43594175Y-28718097D01*
X43597673Y-28716649D01*
X43621202Y-28711970D01*
X46322603Y-28711970D01*
X46343796Y-28715737D01*
X46776718Y-28874655D01*
X46776719Y-28874655D01*
X46776721Y-28874656D01*
X46778126Y-28874894D01*
X46783730Y-28876118D01*
X46845932Y-28892786D01*
X46917521Y-28911970D01*
X47062476Y-28911970D01*
X47062477Y-28911970D01*
X47074822Y-28908661D01*
X47124206Y-28895428D01*
X47124207Y-28895428D01*
X47202478Y-28874456D01*
X47202478Y-28874455D01*
X47202485Y-28874454D01*
X47328015Y-28801979D01*
X47430509Y-28699485D01*
X47502984Y-28573955D01*
X47525346Y-28490500D01*
X47540500Y-28433947D01*
X47540500Y-28288992D01*
X47540500Y-28288989D01*
X47503126Y-28149516D01*
X47502995Y-28149012D01*
X47502986Y-28148989D01*
X47502984Y-28148985D01*
X47430509Y-28023455D01*
X47328015Y-27920961D01*
X47328012Y-27920959D01*
X47328008Y-27920956D01*
X47202490Y-27848488D01*
X47202476Y-27848481D01*
X47062480Y-27810970D01*
X47062477Y-27810970D01*
X47062475Y-27810970D01*
X46917525Y-27810970D01*
X46917523Y-27810970D01*
X46783602Y-27846853D01*
X46777223Y-27848204D01*
X46776723Y-27848282D01*
X46343792Y-28007203D01*
X46322599Y-28010970D01*
X40053734Y-28010970D01*
X40010247Y-27992957D01*
X39997901Y-27975256D01*
X39883784Y-27728164D01*
X39883783Y-27728162D01*
X39883132Y-27727244D01*
X39880063Y-27722457D01*
X39810509Y-27601985D01*
X39708015Y-27499491D01*
X39708012Y-27499489D01*
X39708008Y-27499486D01*
X39582490Y-27427018D01*
X39582476Y-27427011D01*
X39442480Y-27389500D01*
X39442477Y-27389500D01*
X39442475Y-27389500D01*
X39297525Y-27389500D01*
X39297523Y-27389500D01*
X39297520Y-27389500D01*
X39157526Y-27427010D01*
X39157522Y-27427012D01*
X39157519Y-27427014D01*
X39157515Y-27427016D01*
X39125521Y-27445488D01*
X39031981Y-27499493D01*
X38929493Y-27601981D01*
X38857012Y-27727522D01*
X38857010Y-27727527D01*
X38819500Y-27867518D01*
X38819500Y-28012480D01*
X38856888Y-28152013D01*
X38857001Y-28152449D01*
X38857013Y-28152480D01*
X38857016Y-28152485D01*
X38929491Y-28278015D01*
X39031985Y-28380509D01*
X39124543Y-28433947D01*
X39152519Y-28450099D01*
X39157959Y-28453636D01*
X39158157Y-28453780D01*
X39158163Y-28453784D01*
X39613455Y-28664056D01*
X39615578Y-28665009D01*
X39621151Y-28667859D01*
X39645557Y-28681950D01*
X39645559Y-28681951D01*
X39656177Y-28688081D01*
X39656178Y-28688082D01*
X39656179Y-28688082D01*
X39656182Y-28688084D01*
X39733243Y-28708731D01*
X39747100Y-28717204D01*
X39756894Y-28721056D01*
X39760103Y-28723753D01*
X39761170Y-28725807D01*
X39762947Y-28726894D01*
X39765536Y-28729758D01*
X39770585Y-28743929D01*
X39781804Y-28765521D01*
X39780147Y-28770761D01*
X39781336Y-28774098D01*
X39774613Y-28788264D01*
X39767614Y-28810402D01*
X39762587Y-28813606D01*
X39761156Y-28816622D01*
X39753673Y-28819288D01*
X39736529Y-28830217D01*
X39736394Y-28830253D01*
X39735904Y-28830384D01*
X39719914Y-28832500D01*
X28601679Y-28832500D01*
X28583408Y-28829723D01*
X28140795Y-28692009D01*
X28131052Y-28690727D01*
X28123158Y-28689157D01*
X28119142Y-28688081D01*
X28096265Y-28681951D01*
X28012479Y-28659500D01*
X28012477Y-28659500D01*
X28012475Y-28659500D01*
X27867525Y-28659500D01*
X27867523Y-28659500D01*
X27867520Y-28659500D01*
X27727526Y-28697010D01*
X27727522Y-28697012D01*
X27727519Y-28697014D01*
X27727515Y-28697016D01*
X27631480Y-28752462D01*
X27601981Y-28769493D01*
X27499493Y-28871981D01*
X27499490Y-28871985D01*
X27499490Y-28871986D01*
X27467851Y-28926787D01*
X27427012Y-28997522D01*
X27427010Y-28997527D01*
X27389500Y-29137518D01*
X19550500Y-29137518D01*
X19550500Y-26597518D01*
X41359500Y-26597518D01*
X41359500Y-26742480D01*
X41397011Y-26882475D01*
X41397015Y-26882485D01*
X41469486Y-27008008D01*
X41469489Y-27008012D01*
X41469491Y-27008015D01*
X41571985Y-27110509D01*
X41697515Y-27182984D01*
X41697519Y-27182986D01*
X41697542Y-27182995D01*
X41698019Y-27183119D01*
X41700449Y-27183770D01*
X41837521Y-27220500D01*
X41982476Y-27220500D01*
X41982477Y-27220500D01*
X41994822Y-27217191D01*
X42044206Y-27203958D01*
X42116393Y-27184616D01*
X42116394Y-27184616D01*
X42122779Y-27183264D01*
X42123278Y-27183186D01*
X42556204Y-27024267D01*
X42577397Y-27020500D01*
X48077110Y-27020500D01*
X48100644Y-27025181D01*
X48121528Y-27033831D01*
X48141481Y-27047163D01*
X50080236Y-28985918D01*
X50092558Y-29003567D01*
X50286309Y-29422063D01*
X50286315Y-29422073D01*
X50287134Y-29423227D01*
X50290235Y-29428062D01*
X50359486Y-29548008D01*
X50359489Y-29548012D01*
X50359491Y-29548015D01*
X50461985Y-29650509D01*
X50587515Y-29722984D01*
X50587519Y-29722986D01*
X50587542Y-29722995D01*
X50588019Y-29723119D01*
X50606190Y-29727988D01*
X50727521Y-29760500D01*
X50872476Y-29760500D01*
X50872477Y-29760500D01*
X50884822Y-29757191D01*
X50934206Y-29743958D01*
X50934207Y-29743958D01*
X51012478Y-29722986D01*
X51012478Y-29722985D01*
X51012485Y-29722984D01*
X51138015Y-29650509D01*
X51240509Y-29548015D01*
X51312984Y-29422485D01*
X51327540Y-29368158D01*
X51350500Y-29282477D01*
X51350500Y-29137522D01*
X51350500Y-29137519D01*
X51320881Y-29026986D01*
X51313119Y-28998019D01*
X51312995Y-28997542D01*
X51312986Y-28997519D01*
X51306288Y-28985918D01*
X51240509Y-28871985D01*
X51138015Y-28769491D01*
X51138012Y-28769489D01*
X51138008Y-28769486D01*
X51017951Y-28700171D01*
X51012470Y-28696606D01*
X51012067Y-28696312D01*
X51012065Y-28696311D01*
X50593570Y-28502561D01*
X50575921Y-28490239D01*
X48909709Y-26824027D01*
X59394500Y-26824027D01*
X59394500Y-27030971D01*
X59434866Y-27233908D01*
X59434867Y-27233914D01*
X59434871Y-27233927D01*
X59434874Y-27233935D01*
X59511231Y-27418272D01*
X59512262Y-27421380D01*
X59512373Y-27421341D01*
X59513397Y-27424191D01*
X59859033Y-28152476D01*
X60059062Y-28573955D01*
X60061560Y-28579217D01*
X60067500Y-28605585D01*
X60067500Y-28744704D01*
X60093221Y-28840697D01*
X60093223Y-28840703D01*
X60093227Y-28840714D01*
X60112824Y-28874656D01*
X60142920Y-28926783D01*
X60142923Y-28926787D01*
X60142925Y-28926790D01*
X61363210Y-30147076D01*
X61449290Y-30196774D01*
X61449294Y-30196775D01*
X61449317Y-30196785D01*
X61449794Y-30196909D01*
X61476900Y-30204172D01*
X61545297Y-30222500D01*
X61545299Y-30222500D01*
X61545301Y-30222500D01*
X62670927Y-30222500D01*
X62694461Y-30227181D01*
X62715345Y-30235831D01*
X62735298Y-30249163D01*
X65000836Y-32514701D01*
X65014167Y-32534653D01*
X65022818Y-32555538D01*
X65027500Y-32579073D01*
X65027500Y-36244704D01*
X65053221Y-36340697D01*
X65053223Y-36340703D01*
X65053227Y-36340714D01*
X65073587Y-36375977D01*
X65102920Y-36426783D01*
X65102923Y-36426787D01*
X65102925Y-36426790D01*
X67713209Y-39037075D01*
X67713212Y-39037077D01*
X67713215Y-39037079D01*
X67745087Y-39055480D01*
X67745088Y-39055480D01*
X67752099Y-39059528D01*
X67752098Y-39059528D01*
X67799291Y-39086774D01*
X67799318Y-39086785D01*
X67799795Y-39086909D01*
X67825489Y-39093794D01*
X67895297Y-39112500D01*
X67895299Y-39112500D01*
X67895301Y-39112500D01*
X71728323Y-39112500D01*
X71746594Y-39115277D01*
X71848099Y-39146859D01*
X72173121Y-39247986D01*
X72189195Y-39252987D01*
X72189194Y-39252987D01*
X72189201Y-39252989D01*
X72198954Y-39254271D01*
X72206820Y-39255835D01*
X72295070Y-39279483D01*
X72317522Y-39285500D01*
X72462476Y-39285500D01*
X72462477Y-39285500D01*
X72474822Y-39282191D01*
X72524206Y-39268958D01*
X72524207Y-39268958D01*
X72602478Y-39247986D01*
X72602478Y-39247985D01*
X72602485Y-39247984D01*
X72728015Y-39175509D01*
X72830509Y-39073015D01*
X72902984Y-38947485D01*
X72917763Y-38892328D01*
X72940500Y-38807477D01*
X72940500Y-38662522D01*
X72940500Y-38662519D01*
X72903126Y-38523046D01*
X72902995Y-38522542D01*
X72902984Y-38522515D01*
X72835956Y-38406420D01*
X72830509Y-38396985D01*
X72728015Y-38294491D01*
X72728012Y-38294489D01*
X72728008Y-38294486D01*
X72602490Y-38222018D01*
X72602476Y-38222011D01*
X72462480Y-38184500D01*
X72462477Y-38184500D01*
X72462475Y-38184500D01*
X72317525Y-38184500D01*
X72317523Y-38184500D01*
X72262052Y-38199362D01*
X72205400Y-38214542D01*
X72195956Y-38216295D01*
X72193111Y-38216596D01*
X72189201Y-38217010D01*
X71746591Y-38354723D01*
X71728320Y-38357500D01*
X68139074Y-38357500D01*
X68115539Y-38352818D01*
X68094654Y-38344167D01*
X68074702Y-38330836D01*
X65975994Y-36232128D01*
X70109500Y-36232128D01*
X70109500Y-37427872D01*
X70115908Y-37487481D01*
X70115909Y-37487485D01*
X70158770Y-37602400D01*
X70158780Y-37602426D01*
X70166204Y-37622332D01*
X70166205Y-37622333D01*
X70252454Y-37737546D01*
X70327319Y-37793590D01*
X70366418Y-37822860D01*
X70367669Y-37823796D01*
X70502517Y-37874091D01*
X70562127Y-37880500D01*
X71757872Y-37880499D01*
X71817483Y-37874091D01*
X71887493Y-37847978D01*
X71939950Y-37828414D01*
X71949110Y-37824997D01*
X71951654Y-37824207D01*
X71954839Y-37822860D01*
X71968519Y-37817757D01*
X71969077Y-37815192D01*
X71982737Y-37801033D01*
X72067546Y-37737546D01*
X72153796Y-37622331D01*
X72204091Y-37487483D01*
X72210500Y-37427873D01*
X72210499Y-36727680D01*
X72360000Y-36727680D01*
X72360000Y-36932318D01*
X72392010Y-37134417D01*
X72392010Y-37134419D01*
X72455243Y-37329028D01*
X72548139Y-37511347D01*
X72580524Y-37555921D01*
X73183365Y-36953079D01*
X73226851Y-36935067D01*
X73270338Y-36953080D01*
X73286255Y-36980647D01*
X73287259Y-36984394D01*
X73339920Y-37075606D01*
X73414394Y-37150080D01*
X73505606Y-37202741D01*
X73509024Y-37203657D01*
X73509349Y-37203744D01*
X73546691Y-37232399D01*
X73552834Y-37279067D01*
X73536917Y-37306635D01*
X72934076Y-37909474D01*
X72978649Y-37941858D01*
X72978652Y-37941860D01*
X73160971Y-38034756D01*
X73309469Y-38083006D01*
X73320508Y-38092434D01*
X73355581Y-38097989D01*
X73355579Y-38097989D01*
X73557684Y-38129999D01*
X73557692Y-38130000D01*
X73762307Y-38130000D01*
X73762308Y-38130000D01*
X73762315Y-38129999D01*
X73964419Y-38097989D01*
X74159028Y-38034756D01*
X74341348Y-37941860D01*
X74385921Y-37909474D01*
X74385920Y-37909473D01*
X74385921Y-37909473D01*
X73783082Y-37306635D01*
X73765069Y-37263148D01*
X73783082Y-37219661D01*
X73810649Y-37203744D01*
X73814394Y-37202741D01*
X73905606Y-37150080D01*
X73980080Y-37075606D01*
X74032741Y-36984394D01*
X74033744Y-36980650D01*
X74062398Y-36943309D01*
X74109065Y-36937164D01*
X74136635Y-36953082D01*
X74739473Y-37555921D01*
X74739473Y-37555920D01*
X74739474Y-37555921D01*
X74771860Y-37511348D01*
X74864756Y-37329028D01*
X74927989Y-37134419D01*
X74959999Y-36932315D01*
X74960000Y-36932307D01*
X74960000Y-36727692D01*
X74959999Y-36727684D01*
X74927989Y-36525580D01*
X74864756Y-36330971D01*
X74771860Y-36148652D01*
X74739474Y-36104077D01*
X74739473Y-36104076D01*
X74136634Y-36706916D01*
X74093147Y-36724929D01*
X74049660Y-36706916D01*
X74033742Y-36679343D01*
X74032741Y-36675606D01*
X73980080Y-36584394D01*
X73905606Y-36509920D01*
X73814394Y-36457259D01*
X73814391Y-36457258D01*
X73810647Y-36456255D01*
X73773305Y-36427598D01*
X73767163Y-36380931D01*
X73783078Y-36353366D01*
X74385921Y-35750524D01*
X74341347Y-35718139D01*
X74234049Y-35663468D01*
X74159029Y-35625243D01*
X74010529Y-35576992D01*
X73999491Y-35567564D01*
X73762318Y-35530000D01*
X73762315Y-35530000D01*
X73557684Y-35530000D01*
X73557680Y-35530000D01*
X73355577Y-35562010D01*
X73160969Y-35625243D01*
X72978660Y-35718134D01*
X72978648Y-35718141D01*
X72934076Y-35750523D01*
X73536917Y-36353364D01*
X73554930Y-36396851D01*
X73536917Y-36440338D01*
X73509356Y-36456253D01*
X73505613Y-36457256D01*
X73505606Y-36457259D01*
X73414395Y-36509919D01*
X73414390Y-36509923D01*
X73339923Y-36584390D01*
X73339919Y-36584395D01*
X73287259Y-36675606D01*
X73287256Y-36675613D01*
X73286253Y-36679356D01*
X73257593Y-36716695D01*
X73210925Y-36722832D01*
X73183364Y-36706917D01*
X72580523Y-36104076D01*
X72548141Y-36148648D01*
X72548134Y-36148660D01*
X72455243Y-36330969D01*
X72392010Y-36525577D01*
X72360000Y-36727680D01*
X72210499Y-36727680D01*
X72210499Y-36232128D01*
X72210233Y-36229658D01*
X72209261Y-36220619D01*
X72208924Y-36217481D01*
X72204091Y-36172518D01*
X72204090Y-36172514D01*
X72193940Y-36145301D01*
X72178564Y-36104077D01*
X72173755Y-36091183D01*
X72153796Y-36037669D01*
X72100698Y-35966739D01*
X72093421Y-35954147D01*
X72091879Y-35950554D01*
X71858022Y-35610079D01*
X71548306Y-35159158D01*
X71537500Y-35124339D01*
X71537500Y-30080767D01*
X71542180Y-30057236D01*
X71547522Y-30044337D01*
X71573604Y-30014601D01*
X71576085Y-30013169D01*
X71580522Y-30011331D01*
X71580803Y-30011051D01*
X71581200Y-30011050D01*
X71590904Y-30007033D01*
X71592799Y-30006524D01*
X71606715Y-30002796D01*
X71689985Y-29980484D01*
X71815515Y-29908009D01*
X71918009Y-29805515D01*
X71990484Y-29679985D01*
X72024452Y-29553217D01*
X72025846Y-29548016D01*
X72025847Y-29548013D01*
X72028000Y-29539979D01*
X72028000Y-29395019D01*
X71990626Y-29255546D01*
X71990495Y-29255042D01*
X71990486Y-29255019D01*
X71922647Y-29137519D01*
X71918009Y-29129485D01*
X71815515Y-29026991D01*
X71815512Y-29026989D01*
X71815508Y-29026986D01*
X71689990Y-28954518D01*
X71689976Y-28954511D01*
X71549980Y-28917000D01*
X71549977Y-28917000D01*
X71549975Y-28917000D01*
X71405025Y-28917000D01*
X71405023Y-28917000D01*
X71405020Y-28917000D01*
X71265026Y-28954510D01*
X71265022Y-28954512D01*
X71265019Y-28954514D01*
X71265015Y-28954516D01*
X71190532Y-28997519D01*
X71139481Y-29026993D01*
X71036993Y-29129481D01*
X71036990Y-29129485D01*
X71036990Y-29129486D01*
X70964516Y-29255015D01*
X70964512Y-29255022D01*
X70964510Y-29255027D01*
X70927000Y-29395018D01*
X70927000Y-29446426D01*
X70922318Y-29469961D01*
X70913667Y-29490846D01*
X70900336Y-29510798D01*
X70857920Y-29553214D01*
X70857918Y-29553217D01*
X70808225Y-29639288D01*
X70808224Y-29639290D01*
X70805584Y-29649147D01*
X70805579Y-29649169D01*
X70782500Y-29735295D01*
X70782500Y-35124339D01*
X70771694Y-35159158D01*
X70228124Y-35950546D01*
X70228113Y-35950565D01*
X70224622Y-35957764D01*
X70218522Y-35967778D01*
X70166204Y-36037666D01*
X70166203Y-36037667D01*
X70166201Y-36037673D01*
X70115909Y-36172510D01*
X70115657Y-36173907D01*
X70115557Y-36175789D01*
X70111073Y-36217483D01*
X70111074Y-36217484D01*
X70109766Y-36229658D01*
X70109500Y-36232128D01*
X65975994Y-36232128D01*
X65809163Y-36065297D01*
X65795831Y-36045343D01*
X65787181Y-36024458D01*
X65782500Y-36000925D01*
X65782500Y-32335296D01*
X65764297Y-32267366D01*
X65756775Y-32239295D01*
X65756774Y-32239291D01*
X65735768Y-32202908D01*
X65707075Y-32153209D01*
X63096790Y-29542925D01*
X63096787Y-29542923D01*
X63096783Y-29542920D01*
X63026165Y-29502148D01*
X63010714Y-29493227D01*
X63010703Y-29493223D01*
X63010697Y-29493221D01*
X62914704Y-29467500D01*
X62914701Y-29467500D01*
X62914699Y-29467500D01*
X61789074Y-29467500D01*
X61765539Y-29462818D01*
X61744654Y-29454167D01*
X61724702Y-29440836D01*
X60870259Y-28586393D01*
X60852246Y-28542906D01*
X60858186Y-28516538D01*
X61376604Y-27424185D01*
X61376604Y-27424181D01*
X61377578Y-27421530D01*
X61377642Y-27421553D01*
X61378680Y-27418483D01*
X61455130Y-27233920D01*
X61491859Y-27049264D01*
X61495500Y-27042454D01*
X61495500Y-26821988D01*
X61494316Y-26818085D01*
X61492631Y-26809616D01*
X61489400Y-26793371D01*
X61488087Y-26786772D01*
X61455131Y-26621085D01*
X61455130Y-26621084D01*
X61455130Y-26621080D01*
X61455127Y-26621074D01*
X61455126Y-26621069D01*
X61455123Y-26621062D01*
X61454869Y-26620322D01*
X61454301Y-26619077D01*
X61444957Y-26596521D01*
X61387380Y-26457519D01*
X61375941Y-26429902D01*
X61331943Y-26364054D01*
X61331938Y-26364045D01*
X61330672Y-26362150D01*
X61330671Y-26362148D01*
X61308942Y-26329628D01*
X61894500Y-26329628D01*
X61894500Y-27525372D01*
X61900908Y-27584981D01*
X61900909Y-27584985D01*
X61944287Y-27701286D01*
X61948624Y-27712915D01*
X61951204Y-27719832D01*
X61994329Y-27777438D01*
X62037454Y-27835046D01*
X62129934Y-27904276D01*
X62152225Y-27920964D01*
X62152240Y-27920975D01*
X62152239Y-27920975D01*
X62152664Y-27921293D01*
X62152671Y-27921297D01*
X62240694Y-27954127D01*
X62287517Y-27971591D01*
X62347127Y-27978000D01*
X63542872Y-27977999D01*
X63602483Y-27971591D01*
X63737331Y-27921296D01*
X63852546Y-27835046D01*
X63938796Y-27719831D01*
X63989091Y-27584983D01*
X63995500Y-27525373D01*
X63995499Y-26329628D01*
X63989091Y-26270017D01*
X63989088Y-26270010D01*
X63973977Y-26229494D01*
X63938796Y-26135169D01*
X63852546Y-26019954D01*
X63759768Y-25950500D01*
X63737333Y-25933705D01*
X63737330Y-25933703D01*
X63737329Y-25933703D01*
X63737325Y-25933701D01*
X63609174Y-25885903D01*
X63609165Y-25885901D01*
X63602487Y-25883410D01*
X63602485Y-25883409D01*
X63602483Y-25883409D01*
X63542873Y-25877000D01*
X62347128Y-25877000D01*
X62347127Y-25877000D01*
X62317322Y-25880204D01*
X62287517Y-25883408D01*
X62287510Y-25883410D01*
X62152686Y-25933696D01*
X62152666Y-25933704D01*
X62037454Y-26019954D01*
X61951204Y-26135166D01*
X61951196Y-26135186D01*
X61900909Y-26270010D01*
X61900659Y-26271401D01*
X61900558Y-26273274D01*
X61895589Y-26319500D01*
X61894500Y-26329628D01*
X61308942Y-26329628D01*
X61260984Y-26257854D01*
X61260975Y-26257843D01*
X61140719Y-26137587D01*
X61135765Y-26125627D01*
X60978095Y-26020277D01*
X60972105Y-26011313D01*
X60942605Y-25996562D01*
X60942599Y-25996560D01*
X60942600Y-25996560D01*
X60942598Y-25996559D01*
X60940073Y-25995513D01*
X60940072Y-25995512D01*
X60751435Y-25917374D01*
X60751427Y-25917371D01*
X60751414Y-25917367D01*
X60751408Y-25917366D01*
X60548471Y-25877000D01*
X60548468Y-25877000D01*
X60548465Y-25877000D01*
X60341535Y-25877000D01*
X60341532Y-25877000D01*
X60341529Y-25877000D01*
X60138590Y-25917366D01*
X60138584Y-25917367D01*
X60138571Y-25917371D01*
X60138563Y-25917374D01*
X59947426Y-25996547D01*
X59947401Y-25996559D01*
X59947400Y-25996559D01*
X59775340Y-26111525D01*
X59629025Y-26257840D01*
X59514059Y-26429900D01*
X59514059Y-26429901D01*
X59514047Y-26429926D01*
X59434874Y-26621063D01*
X59434871Y-26621071D01*
X59434867Y-26621084D01*
X59434866Y-26621090D01*
X59394500Y-26824027D01*
X48909709Y-26824027D01*
X48475215Y-26389533D01*
X48475212Y-26389530D01*
X48475209Y-26389528D01*
X48475205Y-26389525D01*
X48395295Y-26343389D01*
X48395283Y-26343384D01*
X48306146Y-26319500D01*
X48306144Y-26319500D01*
X42577400Y-26319500D01*
X42556207Y-26315733D01*
X42123278Y-26156813D01*
X42123280Y-26156813D01*
X42122448Y-26156671D01*
X42121855Y-26156570D01*
X42116262Y-26155347D01*
X42049979Y-26137587D01*
X41982479Y-26119500D01*
X41982477Y-26119500D01*
X41982475Y-26119500D01*
X41837525Y-26119500D01*
X41837523Y-26119500D01*
X41837520Y-26119500D01*
X41697526Y-26157010D01*
X41697522Y-26157012D01*
X41697519Y-26157014D01*
X41697515Y-26157016D01*
X41682367Y-26165762D01*
X41571981Y-26229493D01*
X41469493Y-26331981D01*
X41469490Y-26331985D01*
X41469490Y-26331986D01*
X41411821Y-26431873D01*
X41397014Y-26457519D01*
X41397010Y-26457527D01*
X41359500Y-26597518D01*
X19550500Y-26597518D01*
X19550500Y-22756527D01*
X24349500Y-22756527D01*
X24349500Y-22963471D01*
X24389866Y-23166408D01*
X24389867Y-23166414D01*
X24389871Y-23166427D01*
X24449902Y-23311350D01*
X24450800Y-23313517D01*
X24469059Y-23357598D01*
X24484651Y-23380933D01*
X24486702Y-23384003D01*
X24486709Y-23384016D01*
X24584020Y-23529652D01*
X24584025Y-23529658D01*
X24704279Y-23649911D01*
X24709233Y-23661871D01*
X24730344Y-23675977D01*
X24806397Y-23726793D01*
X24902402Y-23790941D01*
X24925545Y-23800527D01*
X24973477Y-23820382D01*
X24973480Y-23820382D01*
X24973481Y-23820383D01*
X25093569Y-23870126D01*
X25093571Y-23870126D01*
X25093580Y-23870130D01*
X25290590Y-23909317D01*
X25294489Y-23910500D01*
X25503468Y-23910500D01*
X25514955Y-23910500D01*
X25521764Y-23906859D01*
X25706420Y-23870130D01*
X25706848Y-23869953D01*
X25732518Y-23859319D01*
X25897598Y-23790941D01*
X26069655Y-23675977D01*
X26215977Y-23529655D01*
X26330941Y-23357598D01*
X26404472Y-23180080D01*
X26410126Y-23166430D01*
X26410127Y-23166427D01*
X26410130Y-23166420D01*
X26446859Y-22981764D01*
X26450500Y-22974954D01*
X26450500Y-22758354D01*
X26450500Y-22756532D01*
X26450499Y-22756531D01*
X26450498Y-22756527D01*
X26889500Y-22756527D01*
X26889500Y-22963471D01*
X26929866Y-23166408D01*
X26929867Y-23166414D01*
X26929871Y-23166427D01*
X26989902Y-23311350D01*
X26990800Y-23313517D01*
X27009059Y-23357598D01*
X27024651Y-23380933D01*
X27026702Y-23384003D01*
X27026709Y-23384016D01*
X27124020Y-23529652D01*
X27124025Y-23529658D01*
X27244279Y-23649911D01*
X27249233Y-23661871D01*
X27270344Y-23675977D01*
X27346397Y-23726793D01*
X27442402Y-23790941D01*
X27465545Y-23800527D01*
X27513477Y-23820382D01*
X27513480Y-23820382D01*
X27513481Y-23820383D01*
X27633569Y-23870126D01*
X27633571Y-23870126D01*
X27633580Y-23870130D01*
X27830590Y-23909317D01*
X27834489Y-23910500D01*
X28043468Y-23910500D01*
X28054955Y-23910500D01*
X28061764Y-23906859D01*
X28246420Y-23870130D01*
X28246848Y-23869953D01*
X28272518Y-23859319D01*
X28437598Y-23790941D01*
X28609655Y-23675977D01*
X28755977Y-23529655D01*
X28870941Y-23357598D01*
X28944472Y-23180080D01*
X28950126Y-23166430D01*
X28950127Y-23166427D01*
X28950130Y-23166420D01*
X28986859Y-22981764D01*
X28990500Y-22974954D01*
X28990500Y-22758354D01*
X28990500Y-22756532D01*
X28990499Y-22756531D01*
X28990498Y-22756527D01*
X29429500Y-22756527D01*
X29429500Y-22963471D01*
X29469866Y-23166408D01*
X29469867Y-23166414D01*
X29469871Y-23166427D01*
X29529902Y-23311350D01*
X29530800Y-23313517D01*
X29549059Y-23357598D01*
X29564651Y-23380933D01*
X29566702Y-23384003D01*
X29566709Y-23384016D01*
X29664020Y-23529652D01*
X29664025Y-23529658D01*
X29784279Y-23649911D01*
X29789233Y-23661871D01*
X29810344Y-23675977D01*
X29886397Y-23726793D01*
X29982402Y-23790941D01*
X30005545Y-23800527D01*
X30053477Y-23820382D01*
X30053480Y-23820382D01*
X30053481Y-23820383D01*
X30159656Y-23864363D01*
X30166770Y-23867310D01*
X30169679Y-23868771D01*
X30169730Y-23868664D01*
X30172464Y-23869952D01*
X30176323Y-23871327D01*
X31368771Y-24296209D01*
X31376807Y-24299072D01*
X31399652Y-24313517D01*
X31447925Y-24361790D01*
X31518210Y-24432075D01*
X31604291Y-24481774D01*
X31604295Y-24481776D01*
X31604318Y-24481785D01*
X31604795Y-24481909D01*
X31632035Y-24489208D01*
X31700297Y-24507500D01*
X36244700Y-24507500D01*
X36244701Y-24507500D01*
X36255282Y-24504664D01*
X36287031Y-24496157D01*
X36340710Y-24481774D01*
X36426790Y-24432075D01*
X37132076Y-23726790D01*
X37181774Y-23640710D01*
X37196455Y-23585921D01*
X37207500Y-23544703D01*
X37207500Y-23436654D01*
X37212181Y-23413121D01*
X37220831Y-23392236D01*
X37234160Y-23372285D01*
X37623365Y-22983080D01*
X37666851Y-22965068D01*
X37710338Y-22983081D01*
X37726254Y-23010646D01*
X37727256Y-23014387D01*
X37727258Y-23014391D01*
X37727259Y-23014394D01*
X37779920Y-23105606D01*
X37854394Y-23180080D01*
X37945606Y-23232741D01*
X37949024Y-23233657D01*
X37949349Y-23233744D01*
X37986691Y-23262399D01*
X37992834Y-23309067D01*
X37976917Y-23336635D01*
X37374076Y-23939474D01*
X37418649Y-23971858D01*
X37418652Y-23971860D01*
X37600971Y-24064756D01*
X37749469Y-24113006D01*
X37760508Y-24122434D01*
X37795581Y-24127989D01*
X37795579Y-24127989D01*
X37997684Y-24159999D01*
X37997692Y-24160000D01*
X38202307Y-24160000D01*
X38202308Y-24160000D01*
X38202315Y-24159999D01*
X38404419Y-24127989D01*
X38599028Y-24064756D01*
X38781348Y-23971860D01*
X38825921Y-23939474D01*
X38825920Y-23939473D01*
X38825921Y-23939473D01*
X38223082Y-23336635D01*
X38205069Y-23293148D01*
X38223082Y-23249661D01*
X38250649Y-23233744D01*
X38254394Y-23232741D01*
X38345606Y-23180080D01*
X38420080Y-23105606D01*
X38472741Y-23014394D01*
X38473744Y-23010650D01*
X38502398Y-22973309D01*
X38549065Y-22967164D01*
X38576635Y-22983082D01*
X39179473Y-23585921D01*
X39179473Y-23585920D01*
X39179474Y-23585921D01*
X39211860Y-23541348D01*
X39304756Y-23359028D01*
X39367989Y-23164419D01*
X39399999Y-22962315D01*
X39400000Y-22962307D01*
X39400000Y-22757692D01*
X39399999Y-22757684D01*
X39367989Y-22555580D01*
X39304756Y-22360971D01*
X39211858Y-22178648D01*
X39136586Y-22075045D01*
X39126541Y-22053256D01*
X39124521Y-22044844D01*
X39131882Y-21998353D01*
X39165326Y-21971991D01*
X39169902Y-21970504D01*
X39188892Y-21967500D01*
X39886159Y-21967500D01*
X39909691Y-21972180D01*
X39913083Y-21973585D01*
X39915804Y-21974712D01*
X39915807Y-21974713D01*
X39949093Y-22007995D01*
X39949096Y-22055062D01*
X39946563Y-22061179D01*
X39933229Y-22081137D01*
X39824025Y-22190340D01*
X39709059Y-22362400D01*
X39709059Y-22362401D01*
X39709047Y-22362426D01*
X39629874Y-22553563D01*
X39629871Y-22553571D01*
X39629867Y-22553584D01*
X39629866Y-22553590D01*
X39589500Y-22756527D01*
X39589500Y-22963471D01*
X39629866Y-23166408D01*
X39629867Y-23166414D01*
X39629871Y-23166427D01*
X39689902Y-23311350D01*
X39690800Y-23313517D01*
X39709059Y-23357598D01*
X39724651Y-23380933D01*
X39726702Y-23384003D01*
X39726709Y-23384016D01*
X39824020Y-23529652D01*
X39824025Y-23529658D01*
X39944279Y-23649911D01*
X39949233Y-23661871D01*
X39970344Y-23675977D01*
X40046397Y-23726793D01*
X40142402Y-23790941D01*
X40165545Y-23800527D01*
X40213477Y-23820382D01*
X40213480Y-23820382D01*
X40213481Y-23820383D01*
X40275748Y-23846175D01*
X40331574Y-23869300D01*
X40331577Y-23869301D01*
X40334175Y-23870377D01*
X40334180Y-23870363D01*
X40539718Y-23939473D01*
X41556641Y-24281404D01*
X41580527Y-24296209D01*
X42964787Y-25680469D01*
X43016329Y-25710227D01*
X43044712Y-25726614D01*
X43044716Y-25726615D01*
X43082889Y-25736843D01*
X43133852Y-25750500D01*
X43133854Y-25750500D01*
X43133856Y-25750500D01*
X43782603Y-25750500D01*
X43803796Y-25754267D01*
X44236718Y-25913185D01*
X44236719Y-25913185D01*
X44236721Y-25913186D01*
X44238126Y-25913424D01*
X44243730Y-25914648D01*
X44305932Y-25931316D01*
X44377521Y-25950500D01*
X44522476Y-25950500D01*
X44522477Y-25950500D01*
X44585162Y-25933703D01*
X44585188Y-25933696D01*
X44662485Y-25912984D01*
X44788015Y-25840509D01*
X44890509Y-25738015D01*
X44962984Y-25612485D01*
X44977540Y-25558158D01*
X45000500Y-25472477D01*
X45000500Y-25336890D01*
X45005179Y-25313361D01*
X45007712Y-25307244D01*
X45040992Y-25273957D01*
X45088062Y-25273952D01*
X45094179Y-25276485D01*
X45114137Y-25289819D01*
X45504787Y-25680469D01*
X45556329Y-25710227D01*
X45584712Y-25726614D01*
X45584716Y-25726615D01*
X45622889Y-25736843D01*
X45673852Y-25750500D01*
X45673854Y-25750500D01*
X45673856Y-25750500D01*
X48862603Y-25750500D01*
X48883796Y-25754267D01*
X49316718Y-25913185D01*
X49316719Y-25913185D01*
X49316721Y-25913186D01*
X49318126Y-25913424D01*
X49323730Y-25914648D01*
X49385932Y-25931316D01*
X49457521Y-25950500D01*
X49602476Y-25950500D01*
X49602477Y-25950500D01*
X49665162Y-25933703D01*
X49665188Y-25933696D01*
X49742485Y-25912984D01*
X49868015Y-25840509D01*
X49970509Y-25738015D01*
X50042984Y-25612485D01*
X50057540Y-25558158D01*
X50080500Y-25472477D01*
X50080500Y-25327522D01*
X50080500Y-25327519D01*
X50043126Y-25188046D01*
X50042995Y-25187542D01*
X50042986Y-25187519D01*
X50042984Y-25187515D01*
X49970509Y-25061985D01*
X49868015Y-24959491D01*
X49868012Y-24959489D01*
X49868008Y-24959486D01*
X49742490Y-24887018D01*
X49742476Y-24887011D01*
X49602480Y-24849500D01*
X49602477Y-24849500D01*
X49602475Y-24849500D01*
X49457525Y-24849500D01*
X49457523Y-24849500D01*
X49323602Y-24885383D01*
X49317223Y-24886734D01*
X49316723Y-24886812D01*
X48883792Y-25045733D01*
X48862599Y-25049500D01*
X45902890Y-25049500D01*
X45879355Y-25044818D01*
X45858470Y-25036167D01*
X45838518Y-25022836D01*
X44616209Y-23800527D01*
X44601404Y-23776641D01*
X44191344Y-22557099D01*
X44190554Y-22554133D01*
X44188986Y-22550816D01*
X44159061Y-22478573D01*
X44111774Y-22364416D01*
X44111287Y-22363110D01*
X44110942Y-22362405D01*
X44110941Y-22362402D01*
X43995977Y-22190345D01*
X43984280Y-22178648D01*
X43886768Y-22081135D01*
X43873435Y-22061177D01*
X43870902Y-22055059D01*
X43870909Y-22007989D01*
X43904194Y-21974712D01*
X43906814Y-21973627D01*
X43910312Y-21972179D01*
X43933841Y-21967500D01*
X44966159Y-21967500D01*
X44989691Y-21972180D01*
X44993083Y-21973585D01*
X44995804Y-21974712D01*
X44995807Y-21974713D01*
X45029093Y-22007995D01*
X45029096Y-22055062D01*
X45026563Y-22061179D01*
X45013229Y-22081137D01*
X44904025Y-22190340D01*
X44789059Y-22362400D01*
X44789059Y-22362401D01*
X44789047Y-22362426D01*
X44709874Y-22553563D01*
X44709871Y-22553571D01*
X44709867Y-22553584D01*
X44709866Y-22553590D01*
X44669500Y-22756527D01*
X44669500Y-22963471D01*
X44709866Y-23166408D01*
X44709867Y-23166414D01*
X44709871Y-23166427D01*
X44769902Y-23311350D01*
X44770800Y-23313517D01*
X44789059Y-23357598D01*
X44804651Y-23380933D01*
X44806702Y-23384003D01*
X44806709Y-23384016D01*
X44904020Y-23529652D01*
X44904025Y-23529658D01*
X45024279Y-23649911D01*
X45029233Y-23661871D01*
X45050344Y-23675977D01*
X45126397Y-23726793D01*
X45222402Y-23790941D01*
X45245545Y-23800527D01*
X45293477Y-23820382D01*
X45293480Y-23820382D01*
X45293481Y-23820383D01*
X45413569Y-23870126D01*
X45413571Y-23870126D01*
X45413580Y-23870130D01*
X45610590Y-23909317D01*
X45614489Y-23910500D01*
X45823468Y-23910500D01*
X45834955Y-23910500D01*
X45841764Y-23906859D01*
X46026420Y-23870130D01*
X46026848Y-23869953D01*
X46052518Y-23859319D01*
X46217598Y-23790941D01*
X46389655Y-23675977D01*
X46535977Y-23529655D01*
X46650941Y-23357598D01*
X46724472Y-23180080D01*
X46730126Y-23166430D01*
X46730127Y-23166427D01*
X46730130Y-23166420D01*
X46766859Y-22981764D01*
X46770500Y-22974954D01*
X46770500Y-22754489D01*
X46769316Y-22750586D01*
X46731312Y-22559522D01*
X46731312Y-22559523D01*
X46730131Y-22553585D01*
X46730130Y-22553584D01*
X46730130Y-22553580D01*
X46730127Y-22553574D01*
X46730009Y-22552979D01*
X46728984Y-22550810D01*
X46682588Y-22438805D01*
X46651774Y-22364416D01*
X46651287Y-22363110D01*
X46650942Y-22362405D01*
X46650941Y-22362402D01*
X46535977Y-22190345D01*
X46524280Y-22178648D01*
X46426768Y-22081135D01*
X46413435Y-22061177D01*
X46410902Y-22055059D01*
X46410909Y-22007989D01*
X46444194Y-21974712D01*
X46446814Y-21973627D01*
X46450312Y-21972179D01*
X46473841Y-21967500D01*
X47506159Y-21967500D01*
X47529691Y-21972180D01*
X47533083Y-21973585D01*
X47535804Y-21974712D01*
X47535807Y-21974713D01*
X47569093Y-22007995D01*
X47569096Y-22055062D01*
X47566563Y-22061179D01*
X47553229Y-22081137D01*
X47444025Y-22190340D01*
X47329059Y-22362400D01*
X47329059Y-22362401D01*
X47329047Y-22362426D01*
X47249874Y-22553563D01*
X47249871Y-22553571D01*
X47249867Y-22553584D01*
X47249866Y-22553590D01*
X47209500Y-22756527D01*
X47209500Y-22963471D01*
X47249866Y-23166408D01*
X47249867Y-23166414D01*
X47249871Y-23166427D01*
X47309902Y-23311350D01*
X47310800Y-23313517D01*
X47329059Y-23357598D01*
X47344651Y-23380933D01*
X47346702Y-23384003D01*
X47346709Y-23384016D01*
X47444020Y-23529652D01*
X47444025Y-23529658D01*
X47564279Y-23649911D01*
X47569233Y-23661871D01*
X47590344Y-23675977D01*
X47666397Y-23726793D01*
X47762402Y-23790941D01*
X47785545Y-23800527D01*
X47833477Y-23820382D01*
X47833480Y-23820382D01*
X47833481Y-23820383D01*
X47953569Y-23870126D01*
X47953571Y-23870126D01*
X47953580Y-23870130D01*
X48150590Y-23909317D01*
X48154489Y-23910500D01*
X48363468Y-23910500D01*
X48374955Y-23910500D01*
X48381764Y-23906859D01*
X48566420Y-23870130D01*
X48566848Y-23869953D01*
X48592518Y-23859319D01*
X48757598Y-23790941D01*
X48929655Y-23675977D01*
X49075977Y-23529655D01*
X49190941Y-23357598D01*
X49264472Y-23180080D01*
X49270126Y-23166430D01*
X49270127Y-23166427D01*
X49270130Y-23166420D01*
X49306859Y-22981764D01*
X49310500Y-22974954D01*
X49310500Y-22754489D01*
X49309316Y-22750586D01*
X49271312Y-22559522D01*
X49271312Y-22559523D01*
X49270131Y-22553585D01*
X49270130Y-22553584D01*
X49270130Y-22553580D01*
X49270127Y-22553574D01*
X49270009Y-22552979D01*
X49268984Y-22550810D01*
X49222588Y-22438805D01*
X49191774Y-22364416D01*
X49191287Y-22363110D01*
X49190942Y-22362405D01*
X49190941Y-22362402D01*
X49075977Y-22190345D01*
X49064280Y-22178648D01*
X48966768Y-22081135D01*
X48953435Y-22061177D01*
X48950902Y-22055059D01*
X48950909Y-22007989D01*
X48984194Y-21974712D01*
X48986814Y-21973627D01*
X48990312Y-21972179D01*
X49013841Y-21967500D01*
X50046159Y-21967500D01*
X50069691Y-21972180D01*
X50073083Y-21973585D01*
X50075804Y-21974712D01*
X50075807Y-21974713D01*
X50109093Y-22007995D01*
X50109096Y-22055062D01*
X50106563Y-22061179D01*
X50093229Y-22081137D01*
X49984025Y-22190340D01*
X49869059Y-22362400D01*
X49869059Y-22362401D01*
X49869047Y-22362426D01*
X49789874Y-22553563D01*
X49789871Y-22553571D01*
X49789867Y-22553584D01*
X49789866Y-22553590D01*
X49749500Y-22756527D01*
X49749500Y-22963471D01*
X49789866Y-23166408D01*
X49789867Y-23166414D01*
X49789871Y-23166427D01*
X49849902Y-23311350D01*
X49850800Y-23313517D01*
X49869059Y-23357598D01*
X49884651Y-23380933D01*
X49886702Y-23384003D01*
X49886709Y-23384016D01*
X49984020Y-23529652D01*
X49984025Y-23529658D01*
X50104279Y-23649911D01*
X50109233Y-23661871D01*
X50130344Y-23675977D01*
X50206397Y-23726793D01*
X50302402Y-23790941D01*
X50325545Y-23800527D01*
X50373477Y-23820382D01*
X50373480Y-23820382D01*
X50373481Y-23820383D01*
X50493569Y-23870126D01*
X50493571Y-23870126D01*
X50493580Y-23870130D01*
X50690590Y-23909317D01*
X50694489Y-23910500D01*
X50903468Y-23910500D01*
X50914955Y-23910500D01*
X50921764Y-23906859D01*
X51106420Y-23870130D01*
X51106848Y-23869953D01*
X51132518Y-23859319D01*
X51297598Y-23790941D01*
X51469655Y-23675977D01*
X51615977Y-23529655D01*
X51730941Y-23357598D01*
X51804472Y-23180080D01*
X51810126Y-23166430D01*
X51810127Y-23166427D01*
X51810130Y-23166420D01*
X51846859Y-22981764D01*
X51850500Y-22974954D01*
X51850500Y-22754489D01*
X51849316Y-22750586D01*
X51811312Y-22559522D01*
X51811312Y-22559523D01*
X51810131Y-22553585D01*
X51810130Y-22553584D01*
X51810130Y-22553580D01*
X51810127Y-22553574D01*
X51810009Y-22552979D01*
X51808984Y-22550810D01*
X51762588Y-22438805D01*
X51731774Y-22364416D01*
X51731287Y-22363110D01*
X51730942Y-22362405D01*
X51730941Y-22362402D01*
X51615977Y-22190345D01*
X51604280Y-22178648D01*
X51506768Y-22081135D01*
X51493435Y-22061177D01*
X51490902Y-22055059D01*
X51490909Y-22007989D01*
X51524194Y-21974712D01*
X51526814Y-21973627D01*
X51530312Y-21972179D01*
X51553841Y-21967500D01*
X52586159Y-21967500D01*
X52609691Y-21972180D01*
X52613083Y-21973585D01*
X52615804Y-21974712D01*
X52615807Y-21974713D01*
X52649093Y-22007995D01*
X52649096Y-22055062D01*
X52646563Y-22061179D01*
X52633229Y-22081137D01*
X52524025Y-22190340D01*
X52409059Y-22362400D01*
X52409059Y-22362401D01*
X52409047Y-22362426D01*
X52329874Y-22553563D01*
X52329871Y-22553571D01*
X52329867Y-22553584D01*
X52329866Y-22553590D01*
X52289500Y-22756527D01*
X52289500Y-22963471D01*
X52329866Y-23166408D01*
X52329867Y-23166414D01*
X52329871Y-23166427D01*
X52389902Y-23311350D01*
X52390800Y-23313517D01*
X52409059Y-23357598D01*
X52424651Y-23380933D01*
X52426702Y-23384003D01*
X52426709Y-23384016D01*
X52524020Y-23529652D01*
X52524025Y-23529658D01*
X52644279Y-23649911D01*
X52649233Y-23661871D01*
X52670344Y-23675977D01*
X52746397Y-23726793D01*
X52842402Y-23790941D01*
X52865545Y-23800527D01*
X52913477Y-23820382D01*
X52913480Y-23820382D01*
X52913481Y-23820383D01*
X53033569Y-23870126D01*
X53033571Y-23870126D01*
X53033580Y-23870130D01*
X53230590Y-23909317D01*
X53234489Y-23910500D01*
X53443468Y-23910500D01*
X53454955Y-23910500D01*
X53461764Y-23906859D01*
X53646420Y-23870130D01*
X53646848Y-23869953D01*
X53672518Y-23859319D01*
X53837598Y-23790941D01*
X54009655Y-23675977D01*
X54155977Y-23529655D01*
X54270941Y-23357598D01*
X54344472Y-23180080D01*
X54350126Y-23166430D01*
X54350127Y-23166427D01*
X54350130Y-23166420D01*
X54386859Y-22981764D01*
X54390500Y-22974954D01*
X54390500Y-22754489D01*
X54389316Y-22750586D01*
X54351312Y-22559522D01*
X54351312Y-22559523D01*
X54350131Y-22553585D01*
X54350130Y-22553584D01*
X54350130Y-22553580D01*
X54350127Y-22553574D01*
X54350009Y-22552979D01*
X54348984Y-22550810D01*
X54302588Y-22438805D01*
X54271774Y-22364416D01*
X54271287Y-22363110D01*
X54270942Y-22362405D01*
X54270941Y-22362402D01*
X54155977Y-22190345D01*
X54144280Y-22178648D01*
X54046768Y-22081135D01*
X54033435Y-22061177D01*
X54030902Y-22055059D01*
X54030909Y-22007989D01*
X54064194Y-21974712D01*
X54066814Y-21973627D01*
X54070312Y-21972179D01*
X54093841Y-21967500D01*
X60130927Y-21967500D01*
X60154461Y-21972181D01*
X60175345Y-21980831D01*
X60195298Y-21994163D01*
X64865740Y-26664605D01*
X64872686Y-26672896D01*
X64875989Y-26677629D01*
X64877107Y-26680145D01*
X64936106Y-26763774D01*
X64936233Y-26763955D01*
X64941253Y-26786772D01*
X64946403Y-26809616D01*
X64946341Y-26809893D01*
X64946349Y-26809926D01*
X64946327Y-26809959D01*
X64945205Y-26815068D01*
X64934500Y-26855020D01*
X64934500Y-26999980D01*
X64972011Y-27139975D01*
X64972015Y-27139985D01*
X65044486Y-27265508D01*
X65044489Y-27265512D01*
X65044491Y-27265515D01*
X65146985Y-27368009D01*
X65272515Y-27440484D01*
X65272519Y-27440486D01*
X65272542Y-27440495D01*
X65273019Y-27440619D01*
X65291190Y-27445488D01*
X65412521Y-27478000D01*
X65557476Y-27478000D01*
X65557478Y-27478000D01*
X65588341Y-27469729D01*
X65619206Y-27461458D01*
X65669594Y-27447956D01*
X65679035Y-27446203D01*
X65685797Y-27445489D01*
X66128405Y-27307777D01*
X66146676Y-27305000D01*
X70614701Y-27305000D01*
X70625282Y-27302164D01*
X70657031Y-27293657D01*
X70710710Y-27279274D01*
X70796790Y-27229575D01*
X71634059Y-26392304D01*
X71648934Y-26381354D01*
X72059287Y-26165760D01*
X72067076Y-26159781D01*
X72073756Y-26155315D01*
X72173015Y-26098009D01*
X72275509Y-25995515D01*
X72347984Y-25869985D01*
X72375174Y-25768513D01*
X72385500Y-25729977D01*
X72385500Y-25585022D01*
X72385500Y-25585019D01*
X72348126Y-25445546D01*
X72347995Y-25445042D01*
X72347986Y-25445019D01*
X72333539Y-25419996D01*
X72275509Y-25319485D01*
X72173015Y-25216991D01*
X72173012Y-25216989D01*
X72173008Y-25216986D01*
X72047490Y-25144518D01*
X72047476Y-25144511D01*
X71907480Y-25107000D01*
X71907477Y-25107000D01*
X71907475Y-25107000D01*
X71762525Y-25107000D01*
X71762523Y-25107000D01*
X71762520Y-25107000D01*
X71622526Y-25144510D01*
X71622522Y-25144512D01*
X71622519Y-25144514D01*
X71622515Y-25144516D01*
X71548032Y-25187519D01*
X71496981Y-25216993D01*
X71394493Y-25319482D01*
X71394489Y-25319486D01*
X71394486Y-25319490D01*
X71336459Y-25419996D01*
X71331021Y-25427915D01*
X71326744Y-25433203D01*
X71326739Y-25433211D01*
X71111144Y-25843562D01*
X71100188Y-25858445D01*
X70435298Y-26523336D01*
X70415347Y-26536667D01*
X70394463Y-26545318D01*
X70370927Y-26550000D01*
X66146679Y-26550000D01*
X66128408Y-26547223D01*
X65769600Y-26435584D01*
X65748138Y-26423803D01*
X65433096Y-26157141D01*
X65433088Y-26157135D01*
X65423056Y-26151300D01*
X65410492Y-26141627D01*
X60556794Y-21287929D01*
X60556793Y-21287928D01*
X60556790Y-21287925D01*
X60556787Y-21287923D01*
X60556783Y-21287920D01*
X60492736Y-21250942D01*
X60470714Y-21238227D01*
X60470703Y-21238223D01*
X60470697Y-21238221D01*
X60374704Y-21212500D01*
X60374701Y-21212500D01*
X60374699Y-21212500D01*
X54093841Y-21212500D01*
X54070304Y-21207818D01*
X54064187Y-21205284D01*
X54030905Y-21171999D01*
X54030905Y-21124932D01*
X54033439Y-21118814D01*
X54046769Y-21098863D01*
X54097048Y-21048583D01*
X54155977Y-20989655D01*
X54270941Y-20817598D01*
X54350130Y-20626420D01*
X54386859Y-20441764D01*
X54390500Y-20434954D01*
X54390500Y-20214489D01*
X54389316Y-20210586D01*
X54351312Y-20019522D01*
X54351312Y-20019523D01*
X54350131Y-20013585D01*
X54350130Y-20013584D01*
X54350130Y-20013580D01*
X54350128Y-20013576D01*
X54350010Y-20012983D01*
X54348985Y-20010816D01*
X54307832Y-19911466D01*
X54270941Y-19822402D01*
X54155977Y-19650345D01*
X54106132Y-19600500D01*
X54076471Y-19570839D01*
X54046771Y-19541138D01*
X54033439Y-19521185D01*
X54030905Y-19515067D01*
X54030905Y-19502834D01*
X54028758Y-19497650D01*
X54030905Y-19492465D01*
X54030906Y-19467997D01*
X54064189Y-19434714D01*
X54066814Y-19433627D01*
X54070312Y-19432179D01*
X54093841Y-19427500D01*
X58473323Y-19427500D01*
X58491594Y-19430277D01*
X58612820Y-19467995D01*
X58928319Y-19566159D01*
X58934195Y-19567987D01*
X58934194Y-19567987D01*
X58934201Y-19567989D01*
X58943954Y-19569271D01*
X58951820Y-19570835D01*
X59033829Y-19592811D01*
X59062522Y-19600500D01*
X59207476Y-19600500D01*
X59207477Y-19600500D01*
X59219822Y-19597191D01*
X59269206Y-19583958D01*
X59269207Y-19583958D01*
X59347478Y-19562986D01*
X59347478Y-19562985D01*
X59347485Y-19562984D01*
X59473015Y-19490509D01*
X59575509Y-19388015D01*
X59647984Y-19262485D01*
X59659223Y-19220540D01*
X59667848Y-19188353D01*
X59667848Y-19188351D01*
X59678878Y-19147191D01*
X59685500Y-19122477D01*
X59685500Y-18977522D01*
X59685500Y-18977519D01*
X59648126Y-18838046D01*
X59647995Y-18837542D01*
X59647986Y-18837519D01*
X59636842Y-18818217D01*
X59575509Y-18711985D01*
X59473015Y-18609491D01*
X59473012Y-18609489D01*
X59473008Y-18609486D01*
X59347490Y-18537018D01*
X59347476Y-18537011D01*
X59207480Y-18499500D01*
X59207477Y-18499500D01*
X59207475Y-18499500D01*
X59062525Y-18499500D01*
X59062523Y-18499500D01*
X59007052Y-18514362D01*
X58950400Y-18529542D01*
X58940956Y-18531295D01*
X58938111Y-18531596D01*
X58934201Y-18532010D01*
X58491591Y-18669723D01*
X58473320Y-18672500D01*
X57743305Y-18672500D01*
X57719766Y-18667817D01*
X57711115Y-18664233D01*
X57677837Y-18630955D01*
X57676244Y-18627110D01*
X57673657Y-18587654D01*
X57690655Y-18524219D01*
X57700500Y-18487479D01*
X57700500Y-18342519D01*
X57663126Y-18203046D01*
X57662995Y-18202542D01*
X57662986Y-18202519D01*
X57643241Y-18168320D01*
X57590509Y-18076985D01*
X57488015Y-17974491D01*
X57488012Y-17974489D01*
X57488008Y-17974486D01*
X57362490Y-17902018D01*
X57362476Y-17902011D01*
X57222480Y-17864500D01*
X57222477Y-17864500D01*
X57222475Y-17864500D01*
X57077525Y-17864500D01*
X57077523Y-17864500D01*
X57022052Y-17879362D01*
X56965400Y-17894542D01*
X56955956Y-17896295D01*
X56953111Y-17896596D01*
X56949201Y-17897010D01*
X56506591Y-18034723D01*
X56488320Y-18037500D01*
X34875299Y-18037500D01*
X34779293Y-18063224D01*
X34779292Y-18063224D01*
X34693206Y-18112926D01*
X33987927Y-18818206D01*
X33987927Y-18818207D01*
X33987920Y-18818214D01*
X33987918Y-18818217D01*
X33938225Y-18904288D01*
X33938224Y-18904290D01*
X33935584Y-18914147D01*
X33935579Y-18914169D01*
X33912500Y-19000295D01*
X33912500Y-19566159D01*
X33907818Y-19589696D01*
X33905284Y-19595813D01*
X33871999Y-19629095D01*
X33824937Y-19629097D01*
X33824929Y-19629094D01*
X33824928Y-19629093D01*
X33818820Y-19626564D01*
X33798862Y-19613230D01*
X33715719Y-19530087D01*
X33710765Y-19518127D01*
X33553095Y-19412777D01*
X33547105Y-19403813D01*
X33517605Y-19389062D01*
X33517599Y-19389060D01*
X33517600Y-19389060D01*
X33517598Y-19389059D01*
X33515073Y-19388013D01*
X33515072Y-19388012D01*
X33326435Y-19309874D01*
X33326427Y-19309871D01*
X33326414Y-19309867D01*
X33326408Y-19309866D01*
X33123471Y-19269500D01*
X33123468Y-19269500D01*
X33123465Y-19269500D01*
X32916535Y-19269500D01*
X32916532Y-19269500D01*
X32916529Y-19269500D01*
X32713590Y-19309866D01*
X32713584Y-19309867D01*
X32713571Y-19309871D01*
X32713563Y-19309874D01*
X32522426Y-19389047D01*
X32522401Y-19389059D01*
X32522400Y-19389059D01*
X32350340Y-19504025D01*
X32204025Y-19650340D01*
X32089059Y-19822400D01*
X32089059Y-19822401D01*
X32089047Y-19822426D01*
X32009874Y-20013563D01*
X32009871Y-20013571D01*
X32009867Y-20013584D01*
X32009866Y-20013590D01*
X31969500Y-20216527D01*
X31969500Y-20423471D01*
X32009866Y-20626408D01*
X32009867Y-20626414D01*
X32009871Y-20626427D01*
X32048632Y-20720000D01*
X32048632Y-20720001D01*
X32089056Y-20817592D01*
X32089061Y-20817602D01*
X32127499Y-20875127D01*
X32127500Y-20875129D01*
X32204025Y-20989658D01*
X32324279Y-21109911D01*
X32329233Y-21121871D01*
X32350345Y-21135977D01*
X32350344Y-21135977D01*
X32436664Y-21193653D01*
X32522402Y-21250941D01*
X32611466Y-21287832D01*
X32711573Y-21329299D01*
X32713080Y-21329987D01*
X32713430Y-21330100D01*
X32713579Y-21330129D01*
X32713580Y-21330130D01*
X32910590Y-21369317D01*
X32914489Y-21370500D01*
X33123468Y-21370500D01*
X33134955Y-21370500D01*
X33141764Y-21366859D01*
X33326420Y-21330130D01*
X33326493Y-21330100D01*
X33352518Y-21319319D01*
X33517598Y-21250941D01*
X33689655Y-21135977D01*
X33798865Y-21026766D01*
X33818818Y-21013436D01*
X33822554Y-21011888D01*
X33824937Y-21010902D01*
X33872007Y-21010907D01*
X33905284Y-21044186D01*
X33907818Y-21050303D01*
X33912500Y-21073840D01*
X33912500Y-21379086D01*
X33894487Y-21422573D01*
X33871642Y-21437018D01*
X32712468Y-21850044D01*
X32709915Y-21851227D01*
X32709887Y-21851167D01*
X32706984Y-21852599D01*
X32522416Y-21929052D01*
X32522401Y-21929059D01*
X32522400Y-21929059D01*
X32350340Y-22044025D01*
X32204025Y-22190340D01*
X32089059Y-22362400D01*
X32089059Y-22362401D01*
X32089047Y-22362426D01*
X32009874Y-22553563D01*
X32009871Y-22553571D01*
X32009867Y-22553584D01*
X32009866Y-22553590D01*
X31969500Y-22756527D01*
X31969500Y-22963471D01*
X32009866Y-23166408D01*
X32009867Y-23166414D01*
X32009871Y-23166427D01*
X32069902Y-23311350D01*
X32070800Y-23313517D01*
X32089059Y-23357598D01*
X32104651Y-23380933D01*
X32106702Y-23384003D01*
X32106709Y-23384016D01*
X32204018Y-23529649D01*
X32204021Y-23529652D01*
X32204022Y-23529654D01*
X32313230Y-23638863D01*
X32326564Y-23658822D01*
X32329097Y-23664940D01*
X32329090Y-23712010D01*
X32295815Y-23745282D01*
X32289699Y-23747816D01*
X32266159Y-23752500D01*
X31960911Y-23752500D01*
X31917424Y-23734487D01*
X31902979Y-23711642D01*
X31877703Y-23640705D01*
X31489953Y-22552467D01*
X31489949Y-22552460D01*
X31488769Y-22549913D01*
X31488832Y-22549883D01*
X31487402Y-22546994D01*
X31411768Y-22364401D01*
X31411285Y-22363106D01*
X31410942Y-22362405D01*
X31410941Y-22362402D01*
X31295977Y-22190345D01*
X31175719Y-22070087D01*
X31170765Y-22058127D01*
X31013095Y-21952777D01*
X31007105Y-21943813D01*
X30977601Y-21929060D01*
X30977588Y-21929054D01*
X30977552Y-21929039D01*
X30786435Y-21849874D01*
X30786427Y-21849871D01*
X30786414Y-21849867D01*
X30786408Y-21849866D01*
X30583471Y-21809500D01*
X30583468Y-21809500D01*
X30583465Y-21809500D01*
X30376535Y-21809500D01*
X30376532Y-21809500D01*
X30376529Y-21809500D01*
X30173590Y-21849866D01*
X30173584Y-21849867D01*
X30173571Y-21849871D01*
X30173563Y-21849874D01*
X29982426Y-21929047D01*
X29982401Y-21929059D01*
X29982400Y-21929059D01*
X29810340Y-22044025D01*
X29664025Y-22190340D01*
X29549059Y-22362400D01*
X29549059Y-22362401D01*
X29549047Y-22362426D01*
X29469874Y-22553563D01*
X29469871Y-22553571D01*
X29469867Y-22553584D01*
X29469866Y-22553590D01*
X29429500Y-22756527D01*
X28990498Y-22756527D01*
X28965041Y-22628545D01*
X28951312Y-22559519D01*
X28951154Y-22557917D01*
X28950382Y-22554647D01*
X28950026Y-22553015D01*
X28948984Y-22550810D01*
X28902588Y-22438805D01*
X28871774Y-22364416D01*
X28871287Y-22363110D01*
X28870942Y-22362405D01*
X28870941Y-22362402D01*
X28755977Y-22190345D01*
X28635719Y-22070087D01*
X28630765Y-22058127D01*
X28473095Y-21952777D01*
X28467105Y-21943813D01*
X28437601Y-21929060D01*
X28437588Y-21929054D01*
X28437552Y-21929039D01*
X28246435Y-21849874D01*
X28246427Y-21849871D01*
X28246414Y-21849867D01*
X28246408Y-21849866D01*
X28043471Y-21809500D01*
X28043468Y-21809500D01*
X28043465Y-21809500D01*
X27836535Y-21809500D01*
X27836532Y-21809500D01*
X27836529Y-21809500D01*
X27633590Y-21849866D01*
X27633584Y-21849867D01*
X27633571Y-21849871D01*
X27633563Y-21849874D01*
X27442426Y-21929047D01*
X27442401Y-21929059D01*
X27442400Y-21929059D01*
X27270340Y-22044025D01*
X27124025Y-22190340D01*
X27009059Y-22362400D01*
X27009059Y-22362401D01*
X27009047Y-22362426D01*
X26929874Y-22553563D01*
X26929871Y-22553571D01*
X26929867Y-22553584D01*
X26929866Y-22553590D01*
X26889500Y-22756527D01*
X26450498Y-22756527D01*
X26425041Y-22628545D01*
X26411312Y-22559519D01*
X26411154Y-22557917D01*
X26410382Y-22554647D01*
X26410026Y-22553015D01*
X26408984Y-22550810D01*
X26362588Y-22438805D01*
X26331774Y-22364416D01*
X26331287Y-22363110D01*
X26330942Y-22362405D01*
X26330941Y-22362402D01*
X26215977Y-22190345D01*
X26095719Y-22070087D01*
X26090765Y-22058127D01*
X25933095Y-21952777D01*
X25927105Y-21943813D01*
X25897601Y-21929060D01*
X25897588Y-21929054D01*
X25897552Y-21929039D01*
X25706435Y-21849874D01*
X25706427Y-21849871D01*
X25706414Y-21849867D01*
X25706408Y-21849866D01*
X25503471Y-21809500D01*
X25503468Y-21809500D01*
X25503465Y-21809500D01*
X25296535Y-21809500D01*
X25296532Y-21809500D01*
X25296529Y-21809500D01*
X25093590Y-21849866D01*
X25093584Y-21849867D01*
X25093571Y-21849871D01*
X25093563Y-21849874D01*
X24902426Y-21929047D01*
X24902401Y-21929059D01*
X24902400Y-21929059D01*
X24730340Y-22044025D01*
X24584025Y-22190340D01*
X24469059Y-22362400D01*
X24469059Y-22362401D01*
X24469047Y-22362426D01*
X24389874Y-22553563D01*
X24389871Y-22553571D01*
X24389867Y-22553584D01*
X24389866Y-22553590D01*
X24349500Y-22756527D01*
X19550500Y-22756527D01*
X19550500Y-20216527D01*
X24349500Y-20216527D01*
X24349500Y-20423471D01*
X24389866Y-20626408D01*
X24389867Y-20626414D01*
X24389871Y-20626427D01*
X24428632Y-20720000D01*
X24428632Y-20720001D01*
X24469056Y-20817592D01*
X24469061Y-20817602D01*
X24507499Y-20875127D01*
X24507500Y-20875129D01*
X24584025Y-20989658D01*
X24704279Y-21109911D01*
X24709233Y-21121871D01*
X24730345Y-21135977D01*
X24730344Y-21135977D01*
X24816664Y-21193653D01*
X24902402Y-21250941D01*
X24991466Y-21287832D01*
X25091573Y-21329299D01*
X25093080Y-21329987D01*
X25093430Y-21330100D01*
X25093579Y-21330129D01*
X25093580Y-21330130D01*
X25290590Y-21369317D01*
X25294489Y-21370500D01*
X25503468Y-21370500D01*
X25514955Y-21370500D01*
X25521764Y-21366859D01*
X25706420Y-21330130D01*
X25706493Y-21330100D01*
X25732518Y-21319319D01*
X25897598Y-21250941D01*
X26069655Y-21135977D01*
X26215977Y-20989655D01*
X26330941Y-20817598D01*
X26410130Y-20626420D01*
X26446859Y-20441764D01*
X26450500Y-20434954D01*
X26450500Y-20218354D01*
X26450500Y-20216532D01*
X26450499Y-20216531D01*
X26450498Y-20216527D01*
X26889500Y-20216527D01*
X26889500Y-20423471D01*
X26929866Y-20626408D01*
X26929867Y-20626414D01*
X26929871Y-20626427D01*
X26968632Y-20720000D01*
X26968632Y-20720001D01*
X27009056Y-20817592D01*
X27009061Y-20817602D01*
X27047499Y-20875127D01*
X27047500Y-20875129D01*
X27124025Y-20989658D01*
X27244279Y-21109911D01*
X27249233Y-21121871D01*
X27270345Y-21135977D01*
X27270344Y-21135977D01*
X27356664Y-21193653D01*
X27442402Y-21250941D01*
X27531466Y-21287832D01*
X27631573Y-21329299D01*
X27633080Y-21329987D01*
X27633430Y-21330100D01*
X27633579Y-21330129D01*
X27633580Y-21330130D01*
X27830590Y-21369317D01*
X27834489Y-21370500D01*
X28043468Y-21370500D01*
X28054955Y-21370500D01*
X28061764Y-21366859D01*
X28246420Y-21330130D01*
X28246493Y-21330100D01*
X28272518Y-21319319D01*
X28437598Y-21250941D01*
X28609655Y-21135977D01*
X28755977Y-20989655D01*
X28870941Y-20817598D01*
X28950130Y-20626420D01*
X28986859Y-20441764D01*
X28990500Y-20434954D01*
X28990500Y-20218354D01*
X28990500Y-20216532D01*
X28990499Y-20216531D01*
X28990498Y-20216527D01*
X29429500Y-20216527D01*
X29429500Y-20423471D01*
X29469866Y-20626408D01*
X29469867Y-20626414D01*
X29469871Y-20626427D01*
X29508632Y-20720000D01*
X29508632Y-20720001D01*
X29549056Y-20817592D01*
X29549061Y-20817602D01*
X29587499Y-20875127D01*
X29587500Y-20875129D01*
X29664025Y-20989658D01*
X29784279Y-21109911D01*
X29789233Y-21121871D01*
X29810345Y-21135977D01*
X29810344Y-21135977D01*
X29896664Y-21193653D01*
X29982402Y-21250941D01*
X30071466Y-21287832D01*
X30171573Y-21329299D01*
X30173080Y-21329987D01*
X30173430Y-21330100D01*
X30173579Y-21330129D01*
X30173580Y-21330130D01*
X30370590Y-21369317D01*
X30374489Y-21370500D01*
X30583468Y-21370500D01*
X30594955Y-21370500D01*
X30601764Y-21366859D01*
X30786420Y-21330130D01*
X30786493Y-21330100D01*
X30812518Y-21319319D01*
X30977598Y-21250941D01*
X31149655Y-21135977D01*
X31295977Y-20989655D01*
X31410941Y-20817598D01*
X31490130Y-20626420D01*
X31526859Y-20441764D01*
X31530500Y-20434954D01*
X31530500Y-20214489D01*
X31529316Y-20210586D01*
X31491312Y-20019522D01*
X31491312Y-20019523D01*
X31490131Y-20013585D01*
X31490130Y-20013584D01*
X31490130Y-20013580D01*
X31490128Y-20013576D01*
X31490010Y-20012983D01*
X31488985Y-20010816D01*
X31447832Y-19911466D01*
X31410941Y-19822402D01*
X31295977Y-19650345D01*
X31175719Y-19530087D01*
X31170765Y-19518127D01*
X31013095Y-19412777D01*
X31007105Y-19403813D01*
X30977605Y-19389062D01*
X30977599Y-19389060D01*
X30977600Y-19389060D01*
X30977598Y-19389059D01*
X30975073Y-19388013D01*
X30975072Y-19388012D01*
X30786435Y-19309874D01*
X30786427Y-19309871D01*
X30786414Y-19309867D01*
X30786408Y-19309866D01*
X30583471Y-19269500D01*
X30583468Y-19269500D01*
X30583465Y-19269500D01*
X30376535Y-19269500D01*
X30376532Y-19269500D01*
X30376529Y-19269500D01*
X30173590Y-19309866D01*
X30173584Y-19309867D01*
X30173571Y-19309871D01*
X30173563Y-19309874D01*
X29982426Y-19389047D01*
X29982401Y-19389059D01*
X29982400Y-19389059D01*
X29810340Y-19504025D01*
X29664025Y-19650340D01*
X29549059Y-19822400D01*
X29549059Y-19822401D01*
X29549047Y-19822426D01*
X29469874Y-20013563D01*
X29469871Y-20013571D01*
X29469867Y-20013584D01*
X29469866Y-20013590D01*
X29429500Y-20216527D01*
X28990498Y-20216527D01*
X28965041Y-20088545D01*
X28951312Y-20019519D01*
X28951154Y-20017917D01*
X28950382Y-20014647D01*
X28950027Y-20013019D01*
X28948985Y-20010816D01*
X28907832Y-19911466D01*
X28870941Y-19822402D01*
X28755977Y-19650345D01*
X28635719Y-19530087D01*
X28630765Y-19518127D01*
X28473095Y-19412777D01*
X28467105Y-19403813D01*
X28437605Y-19389062D01*
X28437599Y-19389060D01*
X28437600Y-19389060D01*
X28437598Y-19389059D01*
X28435073Y-19388013D01*
X28435072Y-19388012D01*
X28246435Y-19309874D01*
X28246427Y-19309871D01*
X28246414Y-19309867D01*
X28246408Y-19309866D01*
X28043471Y-19269500D01*
X28043468Y-19269500D01*
X28043465Y-19269500D01*
X27836535Y-19269500D01*
X27836532Y-19269500D01*
X27836529Y-19269500D01*
X27633590Y-19309866D01*
X27633584Y-19309867D01*
X27633571Y-19309871D01*
X27633563Y-19309874D01*
X27442426Y-19389047D01*
X27442401Y-19389059D01*
X27442400Y-19389059D01*
X27270340Y-19504025D01*
X27124025Y-19650340D01*
X27009059Y-19822400D01*
X27009059Y-19822401D01*
X27009047Y-19822426D01*
X26929874Y-20013563D01*
X26929871Y-20013571D01*
X26929867Y-20013584D01*
X26929866Y-20013590D01*
X26889500Y-20216527D01*
X26450498Y-20216527D01*
X26425041Y-20088545D01*
X26411312Y-20019519D01*
X26411154Y-20017917D01*
X26410382Y-20014647D01*
X26410027Y-20013019D01*
X26408985Y-20010816D01*
X26367832Y-19911466D01*
X26330941Y-19822402D01*
X26215977Y-19650345D01*
X26095719Y-19530087D01*
X26090765Y-19518127D01*
X25933095Y-19412777D01*
X25927105Y-19403813D01*
X25897605Y-19389062D01*
X25897599Y-19389060D01*
X25897600Y-19389060D01*
X25897598Y-19389059D01*
X25895073Y-19388013D01*
X25895072Y-19388012D01*
X25706435Y-19309874D01*
X25706427Y-19309871D01*
X25706414Y-19309867D01*
X25706408Y-19309866D01*
X25503471Y-19269500D01*
X25503468Y-19269500D01*
X25503465Y-19269500D01*
X25296535Y-19269500D01*
X25296532Y-19269500D01*
X25296529Y-19269500D01*
X25093590Y-19309866D01*
X25093584Y-19309867D01*
X25093571Y-19309871D01*
X25093563Y-19309874D01*
X24902426Y-19389047D01*
X24902401Y-19389059D01*
X24902400Y-19389059D01*
X24730340Y-19504025D01*
X24584025Y-19650340D01*
X24469059Y-19822400D01*
X24469059Y-19822401D01*
X24469047Y-19822426D01*
X24389874Y-20013563D01*
X24389871Y-20013571D01*
X24389867Y-20013584D01*
X24389866Y-20013590D01*
X24349500Y-20216527D01*
X19550500Y-20216527D01*
X19550500Y-19148301D01*
X19550539Y-19146116D01*
X19550618Y-19143894D01*
X19550733Y-19141727D01*
X19552111Y-19122475D01*
X19565292Y-18938161D01*
X19565760Y-18933814D01*
X19566382Y-18929488D01*
X19567161Y-18925168D01*
X19569554Y-18914169D01*
X19609846Y-18728946D01*
X19610925Y-18724722D01*
X19612164Y-18720506D01*
X19613547Y-18716354D01*
X19629904Y-18672500D01*
X19683707Y-18528247D01*
X19685375Y-18524219D01*
X19687207Y-18520207D01*
X19689152Y-18516321D01*
X19785392Y-18340071D01*
X19787629Y-18336304D01*
X19790005Y-18332610D01*
X19792478Y-18329047D01*
X19912826Y-18168280D01*
X19915535Y-18164919D01*
X19918427Y-18161580D01*
X19921401Y-18158386D01*
X20063386Y-18016401D01*
X20066587Y-18013421D01*
X20069904Y-18010549D01*
X20073312Y-18007803D01*
X20073320Y-18007797D01*
X20117814Y-17974490D01*
X20234044Y-17887479D01*
X20237619Y-17884997D01*
X20241330Y-17882611D01*
X20245084Y-17880385D01*
X20421321Y-17784152D01*
X20425207Y-17782207D01*
X20429225Y-17780372D01*
X20433247Y-17778707D01*
X20621361Y-17708544D01*
X20625506Y-17707164D01*
X20625966Y-17707028D01*
X20629722Y-17705925D01*
X20633946Y-17704846D01*
X20830180Y-17662158D01*
X20834488Y-17661382D01*
X20834555Y-17661372D01*
X20838821Y-17660759D01*
X20843161Y-17660292D01*
X21046722Y-17645734D01*
X21048895Y-17645618D01*
X21051117Y-17645539D01*
X21053302Y-17645500D01*
X74196698Y-17645500D01*
X74198884Y-17645539D01*
G37*
%TD.AperFunction*%
%TD*%
%TA.AperFunction,Conductor*%
%TO.N,GND*%
G36*
X26046966Y-34110597D02*
G01*
X26216957Y-34280588D01*
X26220384Y-34288861D01*
X26220381Y-34289107D01*
X26200227Y-35245565D01*
X26196627Y-35253765D01*
X26189211Y-35256999D01*
X25006677Y-35325922D01*
X24998218Y-35322983D01*
X24995312Y-35319010D01*
X24758805Y-34789060D01*
X24758562Y-34780109D01*
X24764055Y-34773930D01*
X26033262Y-34108507D01*
X26042179Y-34107701D01*
X26046966Y-34110597D01*
G37*
%TD.AperFunction*%
%TD*%
%TA.AperFunction,Conductor*%
%TO.N,GND*%
G36*
X52308124Y-34344034D02*
G01*
X53561776Y-34790724D01*
X53568419Y-34796729D01*
X53569063Y-34805082D01*
X53345237Y-35557360D01*
X53339593Y-35564312D01*
X53337360Y-35565237D01*
X52585082Y-35789063D01*
X52576175Y-35788138D01*
X52570724Y-35781776D01*
X52124034Y-34528124D01*
X52124485Y-34519181D01*
X52126779Y-34515927D01*
X52295925Y-34346781D01*
X52304197Y-34343355D01*
X52308124Y-34344034D01*
G37*
%TD.AperFunction*%
%TD*%
%TA.AperFunction,Conductor*%
%TO.N,VCCA*%
G36*
X65268025Y-26352158D02*
G01*
X65688949Y-26708442D01*
X65693050Y-26716402D01*
X65690946Y-26724123D01*
X65599843Y-26853082D01*
X65592271Y-26857862D01*
X65586897Y-26857529D01*
X65244932Y-26754011D01*
X65238762Y-26749558D01*
X65215371Y-26716402D01*
X65085880Y-26532856D01*
X65083912Y-26524122D01*
X65087166Y-26517842D01*
X65252194Y-26352814D01*
X65260466Y-26349388D01*
X65268025Y-26352158D01*
G37*
%TD.AperFunction*%
%TD*%
%TA.AperFunction,Conductor*%
%TO.N,VCCA*%
G36*
X31243824Y-22631861D02*
G01*
X31249275Y-22638223D01*
X31695965Y-23891875D01*
X31695514Y-23900818D01*
X31693217Y-23904075D01*
X31524075Y-24073217D01*
X31515802Y-24076644D01*
X31511875Y-24075965D01*
X30258223Y-23629275D01*
X30251580Y-23623270D01*
X30250936Y-23614917D01*
X30474763Y-22862637D01*
X30480406Y-22855687D01*
X30482630Y-22854765D01*
X31234917Y-22630936D01*
X31243824Y-22631861D01*
G37*
%TD.AperFunction*%
%TD*%
%TA.AperFunction,Conductor*%
%TO.N,/ORIG_OUT_L*%
G36*
X57034026Y-18141789D02*
G01*
X57039344Y-18147551D01*
X57151604Y-18410405D01*
X57151702Y-18419359D01*
X57151604Y-18419595D01*
X57039344Y-18682448D01*
X57032943Y-18688711D01*
X57025108Y-18689025D01*
X56560791Y-18544558D01*
X56553910Y-18538828D01*
X56552567Y-18533386D01*
X56552567Y-18296613D01*
X56555994Y-18288340D01*
X56560790Y-18285441D01*
X57025109Y-18140974D01*
X57034026Y-18141789D01*
G37*
%TD.AperFunction*%
%TD*%
%TA.AperFunction,Conductor*%
%TO.N,/ORIG_OUT_L*%
G36*
X34060818Y-21644485D02*
G01*
X34064075Y-21646782D01*
X34233217Y-21815924D01*
X34236644Y-21824197D01*
X34235965Y-21828124D01*
X33789275Y-23081776D01*
X33783270Y-23088419D01*
X33774917Y-23089063D01*
X33022639Y-22865237D01*
X33015687Y-22859593D01*
X33014764Y-22857365D01*
X32790936Y-22105082D01*
X32791861Y-22096175D01*
X32798222Y-22090724D01*
X34051875Y-21644034D01*
X34060818Y-21644485D01*
G37*
%TD.AperFunction*%
%TD*%
%TA.AperFunction,Conductor*%
%TO.N,/ORIG_OUT_R*%
G36*
X59019026Y-18776789D02*
G01*
X59024344Y-18782551D01*
X59136604Y-19045405D01*
X59136702Y-19054359D01*
X59136604Y-19054595D01*
X59024344Y-19317448D01*
X59017943Y-19323711D01*
X59010108Y-19324025D01*
X58545791Y-19179558D01*
X58538910Y-19173828D01*
X58537567Y-19168386D01*
X58537567Y-18931613D01*
X58540994Y-18923340D01*
X58545790Y-18920441D01*
X59010109Y-18775974D01*
X59019026Y-18776789D01*
G37*
%TD.AperFunction*%
%TD*%
%TA.AperFunction,Conductor*%
%TO.N,/ORIG_OUT_R*%
G36*
X36600818Y-21644485D02*
G01*
X36604075Y-21646782D01*
X36773217Y-21815924D01*
X36776644Y-21824197D01*
X36775965Y-21828124D01*
X36611375Y-22290051D01*
X36608627Y-22294397D01*
X36567936Y-22335089D01*
X36524817Y-22409773D01*
X36502500Y-22493062D01*
X36502500Y-22593594D01*
X36501821Y-22597521D01*
X36329275Y-23081776D01*
X36323270Y-23088419D01*
X36314917Y-23089063D01*
X35562639Y-22865237D01*
X35555687Y-22859593D01*
X35554764Y-22857365D01*
X35330936Y-22105082D01*
X35331861Y-22096175D01*
X35338222Y-22090724D01*
X36591875Y-21644034D01*
X36600818Y-21644485D01*
G37*
%TD.AperFunction*%
%TD*%
%TA.AperFunction,Conductor*%
%TO.N,/MIX_R*%
G36*
X66629209Y-41780441D02*
G01*
X66636090Y-41786171D01*
X66637433Y-41791613D01*
X66637433Y-42028386D01*
X66634006Y-42036659D01*
X66629209Y-42039558D01*
X66164891Y-42184025D01*
X66155973Y-42183210D01*
X66150655Y-42177448D01*
X66090672Y-42037000D01*
X66038394Y-41914593D01*
X66038297Y-41905641D01*
X66038395Y-41905405D01*
X66150656Y-41642549D01*
X66157056Y-41636288D01*
X66164891Y-41635974D01*
X66629209Y-41780441D01*
G37*
%TD.AperFunction*%
%TD*%
%TA.AperFunction,Conductor*%
%TO.N,/MIX_R*%
G36*
X73544026Y-41636789D02*
G01*
X73549344Y-41642551D01*
X73661604Y-41905405D01*
X73661702Y-41914359D01*
X73661604Y-41914595D01*
X73549344Y-42177448D01*
X73542943Y-42183711D01*
X73535108Y-42184025D01*
X73070791Y-42039558D01*
X73063910Y-42033828D01*
X73062567Y-42028386D01*
X73062567Y-41791613D01*
X73065994Y-41783340D01*
X73070790Y-41780441D01*
X73535109Y-41635974D01*
X73544026Y-41636789D01*
G37*
%TD.AperFunction*%
%TD*%
%TA.AperFunction,Conductor*%
%TO.N,/BIAS_2_5V*%
G36*
X71289115Y-35233427D02*
G01*
X71290486Y-35235076D01*
X71881273Y-36095210D01*
X71883132Y-36103969D01*
X71879908Y-36110101D01*
X71168279Y-36822709D01*
X71160008Y-36826142D01*
X71151733Y-36822721D01*
X71151721Y-36822709D01*
X70777925Y-36448399D01*
X70440090Y-36110100D01*
X70436670Y-36101826D01*
X70438725Y-36095212D01*
X71029514Y-35235076D01*
X71037023Y-35230197D01*
X71039158Y-35230000D01*
X71280842Y-35230000D01*
X71289115Y-35233427D01*
G37*
%TD.AperFunction*%
%TD*%
%TA.AperFunction,Conductor*%
%TO.N,/MIX_L*%
G36*
X68464026Y-40366789D02*
G01*
X68469344Y-40372551D01*
X68581604Y-40635405D01*
X68581702Y-40644359D01*
X68581604Y-40644595D01*
X68469344Y-40907448D01*
X68462943Y-40913711D01*
X68455108Y-40914025D01*
X67990791Y-40769558D01*
X67983910Y-40763828D01*
X67982567Y-40758386D01*
X67982567Y-40521613D01*
X67985994Y-40513340D01*
X67990790Y-40510441D01*
X68455109Y-40365974D01*
X68464026Y-40366789D01*
G37*
%TD.AperFunction*%
%TD*%
%TA.AperFunction,Conductor*%
%TO.N,/OUT_R*%
G36*
X72274026Y-38461789D02*
G01*
X72279344Y-38467551D01*
X72391604Y-38730405D01*
X72391702Y-38739359D01*
X72391604Y-38739595D01*
X72279344Y-39002448D01*
X72272943Y-39008711D01*
X72265108Y-39009025D01*
X71800791Y-38864558D01*
X71793910Y-38858828D01*
X71792567Y-38853386D01*
X71792567Y-38616613D01*
X71795994Y-38608340D01*
X71800790Y-38605441D01*
X72265109Y-38460974D01*
X72274026Y-38461789D01*
G37*
%TD.AperFunction*%
%TD*%
%TA.AperFunction,Conductor*%
%TO.N,/MIX_L*%
G36*
X44788736Y-41403839D02*
G01*
X44956160Y-41571263D01*
X44959587Y-41579536D01*
X44958244Y-41584978D01*
X44732077Y-42015453D01*
X44725196Y-42021183D01*
X44717361Y-42020869D01*
X44452115Y-41914383D01*
X44445714Y-41908120D01*
X44445616Y-41907884D01*
X44339130Y-41642638D01*
X44339228Y-41633684D01*
X44344544Y-41627924D01*
X44775021Y-41401754D01*
X44783939Y-41400940D01*
X44788736Y-41403839D01*
G37*
%TD.AperFunction*%
%TD*%
%TA.AperFunction,Conductor*%
%TO.N,/OUT_R*%
G36*
X60450565Y-26925661D02*
G01*
X61140780Y-27299335D01*
X61146424Y-27306286D01*
X61145780Y-27314639D01*
X60575172Y-28516964D01*
X60568529Y-28522969D01*
X60564602Y-28523648D01*
X60325398Y-28523648D01*
X60317125Y-28520221D01*
X60314828Y-28516964D01*
X59744219Y-27314639D01*
X59743768Y-27305696D01*
X59749217Y-27299336D01*
X60439431Y-26925662D01*
X60448337Y-26924738D01*
X60450565Y-26925661D01*
G37*
%TD.AperFunction*%
%TD*%
%TA.AperFunction,Conductor*%
%TO.N,/SL2*%
G36*
X29164209Y-50670441D02*
G01*
X29171090Y-50676171D01*
X29172433Y-50681613D01*
X29172433Y-50918386D01*
X29169006Y-50926659D01*
X29164209Y-50929558D01*
X28699891Y-51074025D01*
X28690973Y-51073210D01*
X28685655Y-51067448D01*
X28625672Y-50927000D01*
X28573394Y-50804593D01*
X28573297Y-50795641D01*
X28573395Y-50795405D01*
X28685656Y-50532549D01*
X28692056Y-50526288D01*
X28699891Y-50525974D01*
X29164209Y-50670441D01*
G37*
%TD.AperFunction*%
%TD*%
%TA.AperFunction,Conductor*%
%TO.N,/SL2*%
G36*
X49414026Y-50526789D02*
G01*
X49419344Y-50532551D01*
X49531604Y-50795405D01*
X49531702Y-50804359D01*
X49531604Y-50804595D01*
X49419344Y-51067448D01*
X49412943Y-51073711D01*
X49405108Y-51074025D01*
X48940791Y-50929558D01*
X48933910Y-50923828D01*
X48932567Y-50918386D01*
X48932567Y-50681613D01*
X48935994Y-50673340D01*
X48940790Y-50670441D01*
X49405109Y-50525974D01*
X49414026Y-50526789D01*
G37*
%TD.AperFunction*%
%TD*%
%TA.AperFunction,Conductor*%
%TO.N,/SR1*%
G36*
X32339209Y-50035441D02*
G01*
X32346090Y-50041171D01*
X32347433Y-50046613D01*
X32347433Y-50283386D01*
X32344006Y-50291659D01*
X32339209Y-50294558D01*
X31874891Y-50439025D01*
X31865973Y-50438210D01*
X31860655Y-50432448D01*
X31800672Y-50292000D01*
X31748394Y-50169593D01*
X31748297Y-50160641D01*
X31748395Y-50160405D01*
X31860656Y-49897549D01*
X31867056Y-49891288D01*
X31874891Y-49890974D01*
X32339209Y-50035441D01*
G37*
%TD.AperFunction*%
%TD*%
%TA.AperFunction,Conductor*%
%TO.N,/SR1*%
G36*
X66559026Y-49891789D02*
G01*
X66564344Y-49897551D01*
X66676604Y-50160405D01*
X66676702Y-50169359D01*
X66676604Y-50169595D01*
X66564344Y-50432448D01*
X66557943Y-50438711D01*
X66550108Y-50439025D01*
X66085791Y-50294558D01*
X66078910Y-50288828D01*
X66077567Y-50283386D01*
X66077567Y-50046613D01*
X66080994Y-50038340D01*
X66085790Y-50035441D01*
X66550109Y-49890974D01*
X66559026Y-49891789D01*
G37*
%TD.AperFunction*%
%TD*%
%TA.AperFunction,Conductor*%
%TO.N,/OPN2C_MOR*%
G36*
X22806209Y-48757441D02*
G01*
X22813090Y-48763171D01*
X22814433Y-48768613D01*
X22814433Y-49005386D01*
X22811006Y-49013659D01*
X22806209Y-49016558D01*
X22341891Y-49161025D01*
X22332973Y-49160210D01*
X22327655Y-49154448D01*
X22267672Y-49014000D01*
X22215394Y-48891593D01*
X22215297Y-48882641D01*
X22215395Y-48882405D01*
X22327656Y-48619549D01*
X22334056Y-48613288D01*
X22341891Y-48612974D01*
X22806209Y-48757441D01*
G37*
%TD.AperFunction*%
%TD*%
%TA.AperFunction,Conductor*%
%TO.N,/OPN2C_MOR*%
G36*
X60692637Y-48149129D02*
G01*
X60957884Y-48255616D01*
X60964285Y-48261879D01*
X60964383Y-48262115D01*
X61070869Y-48527361D01*
X61070771Y-48536315D01*
X61065453Y-48542077D01*
X60634978Y-48768244D01*
X60626060Y-48769059D01*
X60621263Y-48766160D01*
X60453839Y-48598736D01*
X60450412Y-48590463D01*
X60451755Y-48585021D01*
X60677923Y-48154544D01*
X60684803Y-48148816D01*
X60692637Y-48149129D01*
G37*
%TD.AperFunction*%
%TD*%
%TA.AperFunction,Conductor*%
%TO.N,/OPN2C_MOL*%
G36*
X32899544Y-49256379D02*
G01*
X32907077Y-49260095D01*
X32907974Y-49261067D01*
X32910136Y-49264407D01*
X33020690Y-49523266D01*
X33021629Y-49527732D01*
X33021675Y-49531903D01*
X33020736Y-49536627D01*
X32910258Y-49795306D01*
X32907683Y-49799072D01*
X32906162Y-49800561D01*
X32898446Y-49803891D01*
X32897125Y-49803944D01*
X32893180Y-49803425D01*
X32433013Y-49660249D01*
X32429002Y-49658068D01*
X32426861Y-49656285D01*
X32422986Y-49650085D01*
X32422903Y-49649750D01*
X32422567Y-49646964D01*
X32422567Y-49413940D01*
X32423457Y-49409465D01*
X32424523Y-49406890D01*
X32429286Y-49401349D01*
X32429581Y-49401171D01*
X32432141Y-49400020D01*
X32892888Y-49256664D01*
X32897422Y-49256185D01*
X32899544Y-49256379D01*
G37*
%TD.AperFunction*%
%TD*%
%TA.AperFunction,Conductor*%
%TO.N,/OPN2C_MOL*%
G36*
X22986814Y-49256572D02*
G01*
X23446987Y-49399749D01*
X23450997Y-49401930D01*
X23453138Y-49403713D01*
X23457006Y-49409883D01*
X23457088Y-49410213D01*
X23457433Y-49413034D01*
X23457433Y-49646058D01*
X23456542Y-49650537D01*
X23455475Y-49653112D01*
X23450716Y-49658647D01*
X23450428Y-49658821D01*
X23447854Y-49659979D01*
X22987111Y-49803333D01*
X22982572Y-49803813D01*
X22982175Y-49803776D01*
X22980455Y-49803619D01*
X22972921Y-49799903D01*
X22972024Y-49798931D01*
X22969862Y-49795591D01*
X22910672Y-49657000D01*
X22905999Y-49646058D01*
X22859306Y-49536729D01*
X22858368Y-49532266D01*
X22858323Y-49528091D01*
X22859261Y-49523376D01*
X22969743Y-49264684D01*
X22972316Y-49260924D01*
X22973840Y-49259434D01*
X22981548Y-49256107D01*
X22982878Y-49256054D01*
X22986814Y-49256572D01*
G37*
%TD.AperFunction*%
%TD*%
%TA.AperFunction,Conductor*%
%TO.N,/MIX_L*%
G36*
X44334026Y-41636789D02*
G01*
X44339344Y-41642551D01*
X44451604Y-41905405D01*
X44451702Y-41914359D01*
X44451604Y-41914595D01*
X44339344Y-42177448D01*
X44332943Y-42183711D01*
X44325108Y-42184025D01*
X43860791Y-42039558D01*
X43853910Y-42033828D01*
X43852567Y-42028386D01*
X43852567Y-41791613D01*
X43855994Y-41783340D01*
X43860790Y-41780441D01*
X44325109Y-41635974D01*
X44334026Y-41636789D01*
G37*
%TD.AperFunction*%
%TD*%
%TA.AperFunction,Conductor*%
%TO.N,/MIX_L*%
G36*
X39959209Y-41780441D02*
G01*
X39966090Y-41786171D01*
X39967433Y-41791613D01*
X39967433Y-42028386D01*
X39964006Y-42036659D01*
X39959209Y-42039558D01*
X39494891Y-42184025D01*
X39485973Y-42183210D01*
X39480655Y-42177448D01*
X39420672Y-42037000D01*
X39368394Y-41914593D01*
X39368297Y-41905641D01*
X39368395Y-41905405D01*
X39480656Y-41642549D01*
X39487056Y-41636288D01*
X39494891Y-41635974D01*
X39959209Y-41780441D01*
G37*
%TD.AperFunction*%
%TD*%
%TA.AperFunction,Conductor*%
%TO.N,/MIX_L*%
G36*
X39254026Y-41636789D02*
G01*
X39259344Y-41642551D01*
X39371604Y-41905405D01*
X39371702Y-41914359D01*
X39371604Y-41914595D01*
X39259344Y-42177448D01*
X39252943Y-42183711D01*
X39245108Y-42184025D01*
X38780791Y-42039558D01*
X38773910Y-42033828D01*
X38772567Y-42028386D01*
X38772567Y-41791613D01*
X38775994Y-41783340D01*
X38780790Y-41780441D01*
X39245109Y-41635974D01*
X39254026Y-41636789D01*
G37*
%TD.AperFunction*%
%TD*%
%TA.AperFunction,Conductor*%
%TO.N,/MIX_L*%
G36*
X34879209Y-41780441D02*
G01*
X34886090Y-41786171D01*
X34887433Y-41791613D01*
X34887433Y-42028386D01*
X34884006Y-42036659D01*
X34879209Y-42039558D01*
X34414891Y-42184025D01*
X34405973Y-42183210D01*
X34400655Y-42177448D01*
X34340672Y-42037000D01*
X34288394Y-41914593D01*
X34288297Y-41905641D01*
X34288395Y-41905405D01*
X34400656Y-41642549D01*
X34407056Y-41636288D01*
X34414891Y-41635974D01*
X34879209Y-41780441D01*
G37*
%TD.AperFunction*%
%TD*%
%TA.AperFunction,Conductor*%
%TO.N,/MIX_L*%
G36*
X29799209Y-41780441D02*
G01*
X29806090Y-41786171D01*
X29807433Y-41791613D01*
X29807433Y-42028386D01*
X29804006Y-42036659D01*
X29799209Y-42039558D01*
X29334891Y-42184025D01*
X29325973Y-42183210D01*
X29320655Y-42177448D01*
X29260672Y-42037000D01*
X29208394Y-41914593D01*
X29208297Y-41905641D01*
X29208395Y-41905405D01*
X29320656Y-41642549D01*
X29327056Y-41636288D01*
X29334891Y-41635974D01*
X29799209Y-41780441D01*
G37*
%TD.AperFunction*%
%TD*%
%TA.AperFunction,Conductor*%
%TO.N,/MIX_L*%
G36*
X34174026Y-41636789D02*
G01*
X34179344Y-41642551D01*
X34291604Y-41905405D01*
X34291702Y-41914359D01*
X34291604Y-41914595D01*
X34179344Y-42177448D01*
X34172943Y-42183711D01*
X34165108Y-42184025D01*
X33700791Y-42039558D01*
X33693910Y-42033828D01*
X33692567Y-42028386D01*
X33692567Y-41791613D01*
X33695994Y-41783340D01*
X33700790Y-41780441D01*
X34165109Y-41635974D01*
X34174026Y-41636789D01*
G37*
%TD.AperFunction*%
%TD*%
%TA.AperFunction,Conductor*%
%TO.N,/MIX_R*%
G36*
X65924026Y-41636789D02*
G01*
X65929344Y-41642551D01*
X66041604Y-41905405D01*
X66041702Y-41914359D01*
X66041604Y-41914595D01*
X65929344Y-42177448D01*
X65922943Y-42183711D01*
X65915108Y-42184025D01*
X65450791Y-42039558D01*
X65443910Y-42033828D01*
X65442567Y-42028386D01*
X65442567Y-41791613D01*
X65445994Y-41783340D01*
X65450790Y-41780441D01*
X65915109Y-41635974D01*
X65924026Y-41636789D01*
G37*
%TD.AperFunction*%
%TD*%
%TA.AperFunction,Conductor*%
%TO.N,/MIX_R*%
G36*
X60279209Y-41780441D02*
G01*
X60286090Y-41786171D01*
X60287433Y-41791613D01*
X60287433Y-42028386D01*
X60284006Y-42036659D01*
X60279209Y-42039558D01*
X59814891Y-42184025D01*
X59805973Y-42183210D01*
X59800655Y-42177448D01*
X59740672Y-42037000D01*
X59688394Y-41914593D01*
X59688297Y-41905641D01*
X59688395Y-41905405D01*
X59800656Y-41642549D01*
X59807056Y-41636288D01*
X59814891Y-41635974D01*
X60279209Y-41780441D01*
G37*
%TD.AperFunction*%
%TD*%
%TA.AperFunction,Conductor*%
%TO.N,/MIX_R*%
G36*
X59574026Y-41636789D02*
G01*
X59579344Y-41642551D01*
X59691604Y-41905405D01*
X59691702Y-41914359D01*
X59691604Y-41914595D01*
X59579344Y-42177448D01*
X59572943Y-42183711D01*
X59565108Y-42184025D01*
X59100791Y-42039558D01*
X59093910Y-42033828D01*
X59092567Y-42028386D01*
X59092567Y-41791613D01*
X59095994Y-41783340D01*
X59100790Y-41780441D01*
X59565109Y-41635974D01*
X59574026Y-41636789D01*
G37*
%TD.AperFunction*%
%TD*%
%TA.AperFunction,Conductor*%
%TO.N,/MIX_R*%
G36*
X55199209Y-41780441D02*
G01*
X55206090Y-41786171D01*
X55207433Y-41791613D01*
X55207433Y-42028386D01*
X55204006Y-42036659D01*
X55199209Y-42039558D01*
X54734891Y-42184025D01*
X54725973Y-42183210D01*
X54720655Y-42177448D01*
X54660672Y-42037000D01*
X54608394Y-41914593D01*
X54608297Y-41905641D01*
X54608395Y-41905405D01*
X54720656Y-41642549D01*
X54727056Y-41636288D01*
X54734891Y-41635974D01*
X55199209Y-41780441D01*
G37*
%TD.AperFunction*%
%TD*%
%TA.AperFunction,Conductor*%
%TO.N,/MIX_R*%
G36*
X47579209Y-41780441D02*
G01*
X47586090Y-41786171D01*
X47587433Y-41791613D01*
X47587433Y-42028386D01*
X47584006Y-42036659D01*
X47579209Y-42039558D01*
X47114891Y-42184025D01*
X47105973Y-42183210D01*
X47100655Y-42177448D01*
X47040672Y-42037000D01*
X46988394Y-41914593D01*
X46988297Y-41905641D01*
X46988395Y-41905405D01*
X47100656Y-41642549D01*
X47107056Y-41636288D01*
X47114891Y-41635974D01*
X47579209Y-41780441D01*
G37*
%TD.AperFunction*%
%TD*%
%TA.AperFunction,Conductor*%
%TO.N,/MIX_R*%
G36*
X54494026Y-41636789D02*
G01*
X54499344Y-41642551D01*
X54611604Y-41905405D01*
X54611702Y-41914359D01*
X54611604Y-41914595D01*
X54499344Y-42177448D01*
X54492943Y-42183711D01*
X54485108Y-42184025D01*
X54020791Y-42039558D01*
X54013910Y-42033828D01*
X54012567Y-42028386D01*
X54012567Y-41791613D01*
X54015994Y-41783340D01*
X54020790Y-41780441D01*
X54485109Y-41635974D01*
X54494026Y-41636789D01*
G37*
%TD.AperFunction*%
%TD*%
%TA.AperFunction,Conductor*%
%TO.N,VCCA*%
G36*
X71567637Y-25546629D02*
G01*
X71832884Y-25653116D01*
X71839285Y-25659379D01*
X71839383Y-25659615D01*
X71945869Y-25924861D01*
X71945771Y-25933815D01*
X71940453Y-25939577D01*
X71509978Y-26165744D01*
X71501060Y-26166559D01*
X71496263Y-26163660D01*
X71328839Y-25996236D01*
X71325412Y-25987963D01*
X71326755Y-25982521D01*
X71552923Y-25552044D01*
X71559803Y-25546316D01*
X71567637Y-25546629D01*
G37*
%TD.AperFunction*%
%TD*%
%TA.AperFunction,Conductor*%
%TO.N,VCCA*%
G36*
X66074209Y-26797941D02*
G01*
X66081090Y-26803671D01*
X66082433Y-26809113D01*
X66082433Y-27045886D01*
X66079006Y-27054159D01*
X66074209Y-27057058D01*
X65609891Y-27201525D01*
X65600973Y-27200710D01*
X65595655Y-27194948D01*
X65535672Y-27054500D01*
X65483394Y-26932093D01*
X65483297Y-26923141D01*
X65483395Y-26922905D01*
X65595656Y-26660049D01*
X65602056Y-26653788D01*
X65609891Y-26653474D01*
X66074209Y-26797941D01*
G37*
%TD.AperFunction*%
%TD*%
%TA.AperFunction,Conductor*%
%TO.N,VCC*%
G36*
X43064026Y-28936789D02*
G01*
X43069344Y-28942551D01*
X43181604Y-29205405D01*
X43181702Y-29214359D01*
X43181604Y-29214595D01*
X43069344Y-29477448D01*
X43062943Y-29483711D01*
X43055108Y-29484025D01*
X42590791Y-29339558D01*
X42583910Y-29333828D01*
X42582567Y-29328386D01*
X42582567Y-29091613D01*
X42585994Y-29083340D01*
X42590790Y-29080441D01*
X43055109Y-28935974D01*
X43064026Y-28936789D01*
G37*
%TD.AperFunction*%
%TD*%
%TA.AperFunction,Conductor*%
%TO.N,VCC*%
G36*
X28529209Y-29080441D02*
G01*
X28536090Y-29086171D01*
X28537433Y-29091613D01*
X28537433Y-29328386D01*
X28534006Y-29336659D01*
X28529209Y-29339558D01*
X28064891Y-29484025D01*
X28055973Y-29483210D01*
X28050655Y-29477448D01*
X27990672Y-29337000D01*
X27938394Y-29214593D01*
X27938297Y-29205641D01*
X27938395Y-29205405D01*
X28050656Y-28942549D01*
X28057056Y-28936288D01*
X28064891Y-28935974D01*
X28529209Y-29080441D01*
G37*
%TD.AperFunction*%
%TD*%
%TA.AperFunction,Conductor*%
%TO.N,/OPN_A0_FILTERED*%
G36*
X42499765Y-26567185D02*
G01*
X42506350Y-26573252D01*
X42507433Y-26578168D01*
X42507433Y-26761831D01*
X42504006Y-26770104D01*
X42499765Y-26772814D01*
X42035233Y-26943335D01*
X42026285Y-26942969D01*
X42020441Y-26936947D01*
X41949185Y-26770104D01*
X41908394Y-26674593D01*
X41908297Y-26665641D01*
X41908395Y-26665405D01*
X42020442Y-26403050D01*
X42026842Y-26396789D01*
X42035233Y-26396664D01*
X42499765Y-26567185D01*
G37*
%TD.AperFunction*%
%TD*%
%TA.AperFunction,Conductor*%
%TO.N,/OPN_A0_FILTERED*%
G36*
X50455670Y-28720271D02*
G01*
X50904725Y-28928169D01*
X50910791Y-28934753D01*
X50910666Y-28943144D01*
X50804383Y-29207884D01*
X50798120Y-29214285D01*
X50797884Y-29214383D01*
X50533144Y-29320666D01*
X50524190Y-29320568D01*
X50518169Y-29314725D01*
X50310271Y-28865672D01*
X50309906Y-28856727D01*
X50312614Y-28852488D01*
X50442487Y-28722615D01*
X50450759Y-28719189D01*
X50455670Y-28720271D01*
G37*
%TD.AperFunction*%
%TD*%
%TA.AperFunction,Conductor*%
%TO.N,/OPN_A1_FILTERED*%
G36*
X39645799Y-27829435D02*
G01*
X39651826Y-27835289D01*
X39849634Y-28263592D01*
X39849992Y-28272540D01*
X39843918Y-28279120D01*
X39834970Y-28279478D01*
X39834534Y-28279307D01*
X39792855Y-28262042D01*
X39792855Y-28444534D01*
X39789428Y-28452807D01*
X39781155Y-28456234D01*
X39776678Y-28455343D01*
X39720992Y-28432277D01*
X39720563Y-28432090D01*
X39265289Y-28221826D01*
X39259215Y-28215246D01*
X39259336Y-28206846D01*
X39365616Y-27942114D01*
X39371879Y-27935714D01*
X39372084Y-27935628D01*
X39636846Y-27829337D01*
X39645799Y-27829435D01*
G37*
%TD.AperFunction*%
%TD*%
%TA.AperFunction,Conductor*%
%TO.N,/OPN_A1_FILTERED*%
G36*
X46873714Y-28088500D02*
G01*
X46879558Y-28094522D01*
X46991604Y-28356875D01*
X46991702Y-28365829D01*
X46991604Y-28366065D01*
X46879558Y-28628417D01*
X46873157Y-28634680D01*
X46864766Y-28634805D01*
X46400235Y-28464284D01*
X46393650Y-28458217D01*
X46392567Y-28453301D01*
X46392567Y-28269638D01*
X46395994Y-28261365D01*
X46400234Y-28258655D01*
X46864766Y-28088134D01*
X46873714Y-28088500D01*
G37*
%TD.AperFunction*%
%TD*%
%TA.AperFunction,Conductor*%
%TO.N,/OPN_A1*%
G36*
X41403631Y-22631918D02*
G01*
X41409151Y-22638478D01*
X41837046Y-23911062D01*
X41836434Y-23919996D01*
X41834229Y-23923064D01*
X41703064Y-24054229D01*
X41694791Y-24057656D01*
X41691062Y-24057046D01*
X40418478Y-23629151D01*
X40411729Y-23623266D01*
X40410993Y-23614725D01*
X40634763Y-22862637D01*
X40640406Y-22855687D01*
X40642630Y-22854765D01*
X41394725Y-22630993D01*
X41403631Y-22631918D01*
G37*
%TD.AperFunction*%
%TD*%
%TA.AperFunction,Conductor*%
%TO.N,/OPN_A1*%
G36*
X44333714Y-25127030D02*
G01*
X44339558Y-25133052D01*
X44451604Y-25395405D01*
X44451702Y-25404359D01*
X44451604Y-25404595D01*
X44339558Y-25666947D01*
X44333157Y-25673210D01*
X44324766Y-25673335D01*
X43860235Y-25502814D01*
X43853650Y-25496747D01*
X43852567Y-25491831D01*
X43852567Y-25308168D01*
X43855994Y-25299895D01*
X43860234Y-25297185D01*
X44324766Y-25126664D01*
X44333714Y-25127030D01*
G37*
%TD.AperFunction*%
%TD*%
%TA.AperFunction,Conductor*%
%TO.N,/OPN_A0*%
G36*
X49413714Y-25127030D02*
G01*
X49419558Y-25133052D01*
X49531604Y-25395405D01*
X49531702Y-25404359D01*
X49531604Y-25404595D01*
X49419558Y-25666947D01*
X49413157Y-25673210D01*
X49404766Y-25673335D01*
X48940235Y-25502814D01*
X48933650Y-25496747D01*
X48932567Y-25491831D01*
X48932567Y-25308168D01*
X48935994Y-25299895D01*
X48940234Y-25297185D01*
X49404766Y-25126664D01*
X49413714Y-25127030D01*
G37*
%TD.AperFunction*%
%TD*%
%TA.AperFunction,Conductor*%
%TO.N,/OPN_A0*%
G36*
X43943631Y-22631918D02*
G01*
X43949151Y-22638478D01*
X44377046Y-23911062D01*
X44376434Y-23919996D01*
X44374229Y-23923064D01*
X44243064Y-24054229D01*
X44234791Y-24057656D01*
X44231062Y-24057046D01*
X42958478Y-23629151D01*
X42951729Y-23623266D01*
X42950993Y-23614725D01*
X43174763Y-22862637D01*
X43180406Y-22855687D01*
X43182630Y-22854765D01*
X43934725Y-22630993D01*
X43943631Y-22631918D01*
G37*
%TD.AperFunction*%
%TD*%
%TA.AperFunction,Conductor*%
%TO.N,/SL1*%
G36*
X39254026Y-47986789D02*
G01*
X39259344Y-47992551D01*
X39371604Y-48255405D01*
X39371702Y-48264359D01*
X39371604Y-48264595D01*
X39259344Y-48527448D01*
X39252943Y-48533711D01*
X39245108Y-48534025D01*
X38780791Y-48389558D01*
X38773910Y-48383828D01*
X38772567Y-48378386D01*
X38772567Y-48141613D01*
X38775994Y-48133340D01*
X38780790Y-48130441D01*
X39245109Y-47985974D01*
X39254026Y-47986789D01*
G37*
%TD.AperFunction*%
%TD*%
%TA.AperFunction,Conductor*%
%TO.N,/SL1*%
G36*
X24719209Y-48130441D02*
G01*
X24726090Y-48136171D01*
X24727433Y-48141613D01*
X24727433Y-48378386D01*
X24724006Y-48386659D01*
X24719209Y-48389558D01*
X24254891Y-48534025D01*
X24245973Y-48533210D01*
X24240655Y-48527448D01*
X24180672Y-48387000D01*
X24128394Y-48264593D01*
X24128297Y-48255641D01*
X24128395Y-48255405D01*
X24240656Y-47992549D01*
X24247056Y-47986288D01*
X24254891Y-47985974D01*
X24719209Y-48130441D01*
G37*
%TD.AperFunction*%
%TD*%
M02*
