%TF.GenerationSoftware,KiCad,Pcbnew,10.0.4+b1*%
%TF.CreationDate,2026-07-19T22:56:05+09:00*%
%TF.ProjectId,md-opn2c,6d642d6f-706e-4326-932e-6b696361645f,rev?*%
%TF.SameCoordinates,Original*%
%TF.FileFunction,Legend,Top*%
%TF.FilePolarity,Positive*%
%FSLAX46Y46*%
G04 Gerber Fmt 4.6, Leading zero omitted, Abs format (unit mm)*
G04 Created by KiCad (PCBNEW 10.0.4+b1) date 2026-07-19 22:56:05*
%MOMM*%
%LPD*%
G01*
G04 APERTURE LIST*
%ADD10C,0.250000*%
%ADD11C,0.150000*%
%ADD12C,0.300000*%
%ADD13C,0.120000*%
G04 APERTURE END LIST*
D10*
X24230901Y-41085571D02*
X27278520Y-41085571D01*
X24802330Y-39942714D02*
X26707092Y-39942714D01*
X25564234Y-39942714D02*
X25564234Y-42514142D01*
X25564234Y-42514142D02*
X26707092Y-42514142D01*
X28802329Y-40085571D02*
X30897568Y-40085571D01*
X30897568Y-40085571D02*
X30897568Y-40799857D01*
X30897568Y-40799857D02*
X30707091Y-41514142D01*
X30707091Y-41514142D02*
X30326139Y-41942714D01*
X30326139Y-41942714D02*
X29754710Y-42228428D01*
X29754710Y-42228428D02*
X28992806Y-42514142D01*
X32421377Y-40085571D02*
X32421377Y-40657000D01*
X32802329Y-39657000D02*
X36802329Y-39657000D01*
X32802329Y-40942714D02*
X34135663Y-40942714D01*
X32992805Y-42371285D02*
X36802329Y-42371285D01*
X32992805Y-41799857D02*
X36802329Y-41799857D01*
X32992805Y-41371285D02*
X32992805Y-42514142D01*
X32992805Y-40514142D02*
X34135663Y-40514142D01*
X34707091Y-39657000D02*
X34707091Y-41085571D01*
X34897567Y-42799857D02*
X37183282Y-42799857D01*
X34897567Y-41371285D02*
X34897567Y-42799857D01*
X35278520Y-40942714D02*
X36802329Y-40942714D01*
X35278520Y-40514142D02*
X36611853Y-40514142D01*
X37373758Y-42371285D02*
X37183282Y-42799857D01*
X32421377Y-40085571D02*
X37183282Y-40085571D01*
X37183282Y-40085571D02*
X37183282Y-40657000D01*
X32992805Y-41371285D02*
X36802329Y-41371285D01*
X36802329Y-41371285D02*
X36802329Y-42371285D01*
X38326139Y-41228428D02*
X43278520Y-41228428D01*
X40802329Y-40514142D02*
X40802329Y-42799857D01*
X40802329Y-42799857D02*
X39659472Y-42799857D01*
X38897567Y-39799857D02*
X42707091Y-39799857D01*
X42707091Y-39799857D02*
X42135663Y-40085571D01*
X42135663Y-40085571D02*
X40802329Y-40514142D01*
D11*
X21459819Y-48439173D02*
X20459819Y-48439173D01*
X20459819Y-48439173D02*
X21174104Y-47939173D01*
X21174104Y-47939173D02*
X20459819Y-47439173D01*
X20459819Y-47439173D02*
X21459819Y-47439173D01*
X21459819Y-46724887D02*
X20459819Y-46724887D01*
X20459819Y-46724887D02*
X20459819Y-46367744D01*
X20459819Y-46367744D02*
X20507438Y-46153458D01*
X20507438Y-46153458D02*
X20602676Y-46010601D01*
X20602676Y-46010601D02*
X20697914Y-45939172D01*
X20697914Y-45939172D02*
X20888390Y-45867744D01*
X20888390Y-45867744D02*
X21031247Y-45867744D01*
X21031247Y-45867744D02*
X21221723Y-45939172D01*
X21221723Y-45939172D02*
X21316961Y-46010601D01*
X21316961Y-46010601D02*
X21412200Y-46153458D01*
X21412200Y-46153458D02*
X21459819Y-46367744D01*
X21459819Y-46367744D02*
X21459819Y-46724887D01*
X21459819Y-44439172D02*
X21459819Y-45296315D01*
X21459819Y-44867744D02*
X20459819Y-44867744D01*
X20459819Y-44867744D02*
X20602676Y-45010601D01*
X20602676Y-45010601D02*
X20697914Y-45153458D01*
X20697914Y-45153458D02*
X20745533Y-45296315D01*
X20983628Y-42367744D02*
X21459819Y-42367744D01*
X20459819Y-42867744D02*
X20983628Y-42367744D01*
X20983628Y-42367744D02*
X20459819Y-41867744D01*
X21459819Y-41367745D02*
X20459819Y-41367745D01*
X20459819Y-41367745D02*
X21174104Y-40867745D01*
X21174104Y-40867745D02*
X20459819Y-40367745D01*
X20459819Y-40367745D02*
X21459819Y-40367745D01*
X20459819Y-39796316D02*
X20459819Y-38867744D01*
X20459819Y-38867744D02*
X20840771Y-39367744D01*
X20840771Y-39367744D02*
X20840771Y-39153459D01*
X20840771Y-39153459D02*
X20888390Y-39010602D01*
X20888390Y-39010602D02*
X20936009Y-38939173D01*
X20936009Y-38939173D02*
X21031247Y-38867744D01*
X21031247Y-38867744D02*
X21269342Y-38867744D01*
X21269342Y-38867744D02*
X21364580Y-38939173D01*
X21364580Y-38939173D02*
X21412200Y-39010602D01*
X21412200Y-39010602D02*
X21459819Y-39153459D01*
X21459819Y-39153459D02*
X21459819Y-39582030D01*
X21459819Y-39582030D02*
X21412200Y-39724887D01*
X21412200Y-39724887D02*
X21364580Y-39796316D01*
X20793152Y-37582031D02*
X21459819Y-37582031D01*
X20412200Y-37939173D02*
X21126485Y-38296316D01*
X21126485Y-38296316D02*
X21126485Y-37367745D01*
X20459819Y-36939174D02*
X20459819Y-36010602D01*
X20459819Y-36010602D02*
X20840771Y-36510602D01*
X20840771Y-36510602D02*
X20840771Y-36296317D01*
X20840771Y-36296317D02*
X20888390Y-36153460D01*
X20888390Y-36153460D02*
X20936009Y-36082031D01*
X20936009Y-36082031D02*
X21031247Y-36010602D01*
X21031247Y-36010602D02*
X21269342Y-36010602D01*
X21269342Y-36010602D02*
X21364580Y-36082031D01*
X21364580Y-36082031D02*
X21412200Y-36153460D01*
X21412200Y-36153460D02*
X21459819Y-36296317D01*
X21459819Y-36296317D02*
X21459819Y-36724888D01*
X21459819Y-36724888D02*
X21412200Y-36867745D01*
X21412200Y-36867745D02*
X21364580Y-36939174D01*
X20888390Y-35153460D02*
X20840771Y-35296317D01*
X20840771Y-35296317D02*
X20793152Y-35367746D01*
X20793152Y-35367746D02*
X20697914Y-35439174D01*
X20697914Y-35439174D02*
X20650295Y-35439174D01*
X20650295Y-35439174D02*
X20555057Y-35367746D01*
X20555057Y-35367746D02*
X20507438Y-35296317D01*
X20507438Y-35296317D02*
X20459819Y-35153460D01*
X20459819Y-35153460D02*
X20459819Y-34867746D01*
X20459819Y-34867746D02*
X20507438Y-34724889D01*
X20507438Y-34724889D02*
X20555057Y-34653460D01*
X20555057Y-34653460D02*
X20650295Y-34582031D01*
X20650295Y-34582031D02*
X20697914Y-34582031D01*
X20697914Y-34582031D02*
X20793152Y-34653460D01*
X20793152Y-34653460D02*
X20840771Y-34724889D01*
X20840771Y-34724889D02*
X20888390Y-34867746D01*
X20888390Y-34867746D02*
X20888390Y-35153460D01*
X20888390Y-35153460D02*
X20936009Y-35296317D01*
X20936009Y-35296317D02*
X20983628Y-35367746D01*
X20983628Y-35367746D02*
X21078866Y-35439174D01*
X21078866Y-35439174D02*
X21269342Y-35439174D01*
X21269342Y-35439174D02*
X21364580Y-35367746D01*
X21364580Y-35367746D02*
X21412200Y-35296317D01*
X21412200Y-35296317D02*
X21459819Y-35153460D01*
X21459819Y-35153460D02*
X21459819Y-34867746D01*
X21459819Y-34867746D02*
X21412200Y-34724889D01*
X21412200Y-34724889D02*
X21364580Y-34653460D01*
X21364580Y-34653460D02*
X21269342Y-34582031D01*
X21269342Y-34582031D02*
X21078866Y-34582031D01*
X21078866Y-34582031D02*
X20983628Y-34653460D01*
X20983628Y-34653460D02*
X20936009Y-34724889D01*
X20936009Y-34724889D02*
X20888390Y-34867746D01*
X21174104Y-32867746D02*
X21174104Y-32153461D01*
X21459819Y-33010603D02*
X20459819Y-32510603D01*
X20459819Y-32510603D02*
X21459819Y-32010603D01*
X21459819Y-30867747D02*
X20459819Y-30867747D01*
X21412200Y-30867747D02*
X21459819Y-31010604D01*
X21459819Y-31010604D02*
X21459819Y-31296318D01*
X21459819Y-31296318D02*
X21412200Y-31439175D01*
X21412200Y-31439175D02*
X21364580Y-31510604D01*
X21364580Y-31510604D02*
X21269342Y-31582032D01*
X21269342Y-31582032D02*
X20983628Y-31582032D01*
X20983628Y-31582032D02*
X20888390Y-31510604D01*
X20888390Y-31510604D02*
X20840771Y-31439175D01*
X20840771Y-31439175D02*
X20793152Y-31296318D01*
X20793152Y-31296318D02*
X20793152Y-31010604D01*
X20793152Y-31010604D02*
X20840771Y-30867747D01*
X21459819Y-29510604D02*
X20936009Y-29510604D01*
X20936009Y-29510604D02*
X20840771Y-29582032D01*
X20840771Y-29582032D02*
X20793152Y-29724889D01*
X20793152Y-29724889D02*
X20793152Y-30010604D01*
X20793152Y-30010604D02*
X20840771Y-30153461D01*
X21412200Y-29510604D02*
X21459819Y-29653461D01*
X21459819Y-29653461D02*
X21459819Y-30010604D01*
X21459819Y-30010604D02*
X21412200Y-30153461D01*
X21412200Y-30153461D02*
X21316961Y-30224889D01*
X21316961Y-30224889D02*
X21221723Y-30224889D01*
X21221723Y-30224889D02*
X21126485Y-30153461D01*
X21126485Y-30153461D02*
X21078866Y-30010604D01*
X21078866Y-30010604D02*
X21078866Y-29653461D01*
X21078866Y-29653461D02*
X21031247Y-29510604D01*
X20793152Y-28796318D02*
X21793152Y-28796318D01*
X20840771Y-28796318D02*
X20793152Y-28653461D01*
X20793152Y-28653461D02*
X20793152Y-28367746D01*
X20793152Y-28367746D02*
X20840771Y-28224889D01*
X20840771Y-28224889D02*
X20888390Y-28153461D01*
X20888390Y-28153461D02*
X20983628Y-28082032D01*
X20983628Y-28082032D02*
X21269342Y-28082032D01*
X21269342Y-28082032D02*
X21364580Y-28153461D01*
X21364580Y-28153461D02*
X21412200Y-28224889D01*
X21412200Y-28224889D02*
X21459819Y-28367746D01*
X21459819Y-28367746D02*
X21459819Y-28653461D01*
X21459819Y-28653461D02*
X21412200Y-28796318D01*
X20793152Y-27653460D02*
X20793152Y-27082032D01*
X20459819Y-27439175D02*
X21316961Y-27439175D01*
X21316961Y-27439175D02*
X21412200Y-27367746D01*
X21412200Y-27367746D02*
X21459819Y-27224889D01*
X21459819Y-27224889D02*
X21459819Y-27082032D01*
X21412200Y-26010603D02*
X21459819Y-26153460D01*
X21459819Y-26153460D02*
X21459819Y-26439175D01*
X21459819Y-26439175D02*
X21412200Y-26582032D01*
X21412200Y-26582032D02*
X21316961Y-26653460D01*
X21316961Y-26653460D02*
X20936009Y-26653460D01*
X20936009Y-26653460D02*
X20840771Y-26582032D01*
X20840771Y-26582032D02*
X20793152Y-26439175D01*
X20793152Y-26439175D02*
X20793152Y-26153460D01*
X20793152Y-26153460D02*
X20840771Y-26010603D01*
X20840771Y-26010603D02*
X20936009Y-25939175D01*
X20936009Y-25939175D02*
X21031247Y-25939175D01*
X21031247Y-25939175D02*
X21126485Y-26653460D01*
X21459819Y-25296318D02*
X20793152Y-25296318D01*
X20983628Y-25296318D02*
X20888390Y-25224889D01*
X20888390Y-25224889D02*
X20840771Y-25153461D01*
X20840771Y-25153461D02*
X20793152Y-25010603D01*
X20793152Y-25010603D02*
X20793152Y-24867746D01*
X20459819Y-23439175D02*
X21459819Y-22939175D01*
X21459819Y-22939175D02*
X20459819Y-22439175D01*
X21459819Y-21153461D02*
X21459819Y-22010604D01*
X21459819Y-21582033D02*
X20459819Y-21582033D01*
X20459819Y-21582033D02*
X20602676Y-21724890D01*
X20602676Y-21724890D02*
X20697914Y-21867747D01*
X20697914Y-21867747D02*
X20745533Y-22010604D01*
X21364580Y-20510605D02*
X21412200Y-20439176D01*
X21412200Y-20439176D02*
X21459819Y-20510605D01*
X21459819Y-20510605D02*
X21412200Y-20582033D01*
X21412200Y-20582033D02*
X21364580Y-20510605D01*
X21364580Y-20510605D02*
X21459819Y-20510605D01*
X20459819Y-19510604D02*
X20459819Y-19367747D01*
X20459819Y-19367747D02*
X20507438Y-19224890D01*
X20507438Y-19224890D02*
X20555057Y-19153462D01*
X20555057Y-19153462D02*
X20650295Y-19082033D01*
X20650295Y-19082033D02*
X20840771Y-19010604D01*
X20840771Y-19010604D02*
X21078866Y-19010604D01*
X21078866Y-19010604D02*
X21269342Y-19082033D01*
X21269342Y-19082033D02*
X21364580Y-19153462D01*
X21364580Y-19153462D02*
X21412200Y-19224890D01*
X21412200Y-19224890D02*
X21459819Y-19367747D01*
X21459819Y-19367747D02*
X21459819Y-19510604D01*
X21459819Y-19510604D02*
X21412200Y-19653462D01*
X21412200Y-19653462D02*
X21364580Y-19724890D01*
X21364580Y-19724890D02*
X21269342Y-19796319D01*
X21269342Y-19796319D02*
X21078866Y-19867747D01*
X21078866Y-19867747D02*
X20840771Y-19867747D01*
X20840771Y-19867747D02*
X20650295Y-19796319D01*
X20650295Y-19796319D02*
X20555057Y-19724890D01*
X20555057Y-19724890D02*
X20507438Y-19653462D01*
X20507438Y-19653462D02*
X20459819Y-19510604D01*
D12*
X66459510Y-49100828D02*
X66840463Y-49100828D01*
X66840463Y-49100828D02*
X67030939Y-49172257D01*
X67030939Y-49172257D02*
X67221415Y-49315114D01*
X67221415Y-49315114D02*
X67316653Y-49600828D01*
X67316653Y-49600828D02*
X67316653Y-50100828D01*
X67316653Y-50100828D02*
X67221415Y-50386542D01*
X67221415Y-50386542D02*
X67030939Y-50529400D01*
X67030939Y-50529400D02*
X66840463Y-50600828D01*
X66840463Y-50600828D02*
X66459510Y-50600828D01*
X66459510Y-50600828D02*
X66269034Y-50529400D01*
X66269034Y-50529400D02*
X66078558Y-50386542D01*
X66078558Y-50386542D02*
X65983320Y-50100828D01*
X65983320Y-50100828D02*
X65983320Y-49600828D01*
X65983320Y-49600828D02*
X66078558Y-49315114D01*
X66078558Y-49315114D02*
X66269034Y-49172257D01*
X66269034Y-49172257D02*
X66459510Y-49100828D01*
X68173796Y-49100828D02*
X68173796Y-50315114D01*
X68173796Y-50315114D02*
X68269034Y-50457971D01*
X68269034Y-50457971D02*
X68364272Y-50529400D01*
X68364272Y-50529400D02*
X68554748Y-50600828D01*
X68554748Y-50600828D02*
X68935701Y-50600828D01*
X68935701Y-50600828D02*
X69126177Y-50529400D01*
X69126177Y-50529400D02*
X69221415Y-50457971D01*
X69221415Y-50457971D02*
X69316653Y-50315114D01*
X69316653Y-50315114D02*
X69316653Y-49100828D01*
X69983320Y-49100828D02*
X71126177Y-49100828D01*
X70554748Y-50600828D02*
X70554748Y-49100828D01*
X51346415Y-50454404D02*
X51251177Y-50525833D01*
X51251177Y-50525833D02*
X50965463Y-50597261D01*
X50965463Y-50597261D02*
X50774987Y-50597261D01*
X50774987Y-50597261D02*
X50489272Y-50525833D01*
X50489272Y-50525833D02*
X50298796Y-50382975D01*
X50298796Y-50382975D02*
X50203558Y-50240118D01*
X50203558Y-50240118D02*
X50108320Y-49954404D01*
X50108320Y-49954404D02*
X50108320Y-49740118D01*
X50108320Y-49740118D02*
X50203558Y-49454404D01*
X50203558Y-49454404D02*
X50298796Y-49311547D01*
X50298796Y-49311547D02*
X50489272Y-49168690D01*
X50489272Y-49168690D02*
X50774987Y-49097261D01*
X50774987Y-49097261D02*
X50965463Y-49097261D01*
X50965463Y-49097261D02*
X51251177Y-49168690D01*
X51251177Y-49168690D02*
X51346415Y-49240118D01*
X52108320Y-50168690D02*
X53060701Y-50168690D01*
X51917844Y-50597261D02*
X52584510Y-49097261D01*
X52584510Y-49097261D02*
X53251177Y-50597261D01*
X55060701Y-50597261D02*
X54394034Y-49882975D01*
X53917844Y-50597261D02*
X53917844Y-49097261D01*
X53917844Y-49097261D02*
X54679749Y-49097261D01*
X54679749Y-49097261D02*
X54870225Y-49168690D01*
X54870225Y-49168690D02*
X54965463Y-49240118D01*
X54965463Y-49240118D02*
X55060701Y-49382975D01*
X55060701Y-49382975D02*
X55060701Y-49597261D01*
X55060701Y-49597261D02*
X54965463Y-49740118D01*
X54965463Y-49740118D02*
X54870225Y-49811547D01*
X54870225Y-49811547D02*
X54679749Y-49882975D01*
X54679749Y-49882975D02*
X53917844Y-49882975D01*
X55632130Y-49097261D02*
X56774987Y-49097261D01*
X56203558Y-50597261D02*
X56203558Y-49097261D01*
X38138558Y-50600828D02*
X38138558Y-49100828D01*
X38138558Y-49100828D02*
X38900463Y-49100828D01*
X38900463Y-49100828D02*
X39090939Y-49172257D01*
X39090939Y-49172257D02*
X39186177Y-49243685D01*
X39186177Y-49243685D02*
X39281415Y-49386542D01*
X39281415Y-49386542D02*
X39281415Y-49600828D01*
X39281415Y-49600828D02*
X39186177Y-49743685D01*
X39186177Y-49743685D02*
X39090939Y-49815114D01*
X39090939Y-49815114D02*
X38900463Y-49886542D01*
X38900463Y-49886542D02*
X38138558Y-49886542D01*
X40043320Y-50529400D02*
X40329034Y-50600828D01*
X40329034Y-50600828D02*
X40805225Y-50600828D01*
X40805225Y-50600828D02*
X40995701Y-50529400D01*
X40995701Y-50529400D02*
X41090939Y-50457971D01*
X41090939Y-50457971D02*
X41186177Y-50315114D01*
X41186177Y-50315114D02*
X41186177Y-50172257D01*
X41186177Y-50172257D02*
X41090939Y-50029400D01*
X41090939Y-50029400D02*
X40995701Y-49957971D01*
X40995701Y-49957971D02*
X40805225Y-49886542D01*
X40805225Y-49886542D02*
X40424272Y-49815114D01*
X40424272Y-49815114D02*
X40233796Y-49743685D01*
X40233796Y-49743685D02*
X40138558Y-49672257D01*
X40138558Y-49672257D02*
X40043320Y-49529400D01*
X40043320Y-49529400D02*
X40043320Y-49386542D01*
X40043320Y-49386542D02*
X40138558Y-49243685D01*
X40138558Y-49243685D02*
X40233796Y-49172257D01*
X40233796Y-49172257D02*
X40424272Y-49100828D01*
X40424272Y-49100828D02*
X40900463Y-49100828D01*
X40900463Y-49100828D02*
X41186177Y-49172257D01*
X43090939Y-49172257D02*
X42900463Y-49100828D01*
X42900463Y-49100828D02*
X42614749Y-49100828D01*
X42614749Y-49100828D02*
X42329034Y-49172257D01*
X42329034Y-49172257D02*
X42138558Y-49315114D01*
X42138558Y-49315114D02*
X42043320Y-49457971D01*
X42043320Y-49457971D02*
X41948082Y-49743685D01*
X41948082Y-49743685D02*
X41948082Y-49957971D01*
X41948082Y-49957971D02*
X42043320Y-50243685D01*
X42043320Y-50243685D02*
X42138558Y-50386542D01*
X42138558Y-50386542D02*
X42329034Y-50529400D01*
X42329034Y-50529400D02*
X42614749Y-50600828D01*
X42614749Y-50600828D02*
X42805225Y-50600828D01*
X42805225Y-50600828D02*
X43090939Y-50529400D01*
X43090939Y-50529400D02*
X43186177Y-50457971D01*
X43186177Y-50457971D02*
X43186177Y-49957971D01*
X43186177Y-49957971D02*
X42805225Y-49957971D01*
X27216415Y-50457971D02*
X27121177Y-50529400D01*
X27121177Y-50529400D02*
X26835463Y-50600828D01*
X26835463Y-50600828D02*
X26644987Y-50600828D01*
X26644987Y-50600828D02*
X26359272Y-50529400D01*
X26359272Y-50529400D02*
X26168796Y-50386542D01*
X26168796Y-50386542D02*
X26073558Y-50243685D01*
X26073558Y-50243685D02*
X25978320Y-49957971D01*
X25978320Y-49957971D02*
X25978320Y-49743685D01*
X25978320Y-49743685D02*
X26073558Y-49457971D01*
X26073558Y-49457971D02*
X26168796Y-49315114D01*
X26168796Y-49315114D02*
X26359272Y-49172257D01*
X26359272Y-49172257D02*
X26644987Y-49100828D01*
X26644987Y-49100828D02*
X26835463Y-49100828D01*
X26835463Y-49100828D02*
X27121177Y-49172257D01*
X27121177Y-49172257D02*
X27216415Y-49243685D01*
X28073558Y-50600828D02*
X28073558Y-49100828D01*
X28073558Y-49100828D02*
X28549748Y-49100828D01*
X28549748Y-49100828D02*
X28835463Y-49172257D01*
X28835463Y-49172257D02*
X29025939Y-49315114D01*
X29025939Y-49315114D02*
X29121177Y-49457971D01*
X29121177Y-49457971D02*
X29216415Y-49743685D01*
X29216415Y-49743685D02*
X29216415Y-49957971D01*
X29216415Y-49957971D02*
X29121177Y-50243685D01*
X29121177Y-50243685D02*
X29025939Y-50386542D01*
X29025939Y-50386542D02*
X28835463Y-50529400D01*
X28835463Y-50529400D02*
X28549748Y-50600828D01*
X28549748Y-50600828D02*
X28073558Y-50600828D01*
G36*
X39399886Y-52562257D02*
G01*
X38909134Y-52562257D01*
X39154510Y-52010160D01*
X39399886Y-52562257D01*
G37*
G36*
X43471178Y-53457495D02*
G01*
X38173360Y-53457495D01*
X38173360Y-53166328D01*
X38340027Y-53166328D01*
X38361037Y-53220953D01*
X38401352Y-53263381D01*
X38454836Y-53287151D01*
X38513344Y-53288645D01*
X38567969Y-53267635D01*
X38610397Y-53227320D01*
X38624916Y-53201749D01*
X38775801Y-52862257D01*
X39533220Y-52862257D01*
X39684105Y-53201748D01*
X39698624Y-53227320D01*
X39741052Y-53267635D01*
X39795677Y-53288644D01*
X39854185Y-53287151D01*
X39907669Y-53263380D01*
X39947984Y-53220952D01*
X39968993Y-53166327D01*
X39967500Y-53107819D01*
X39958249Y-53079907D01*
X39604372Y-52283685D01*
X41766416Y-52283685D01*
X41766416Y-52497971D01*
X41767874Y-52512782D01*
X41767594Y-52516732D01*
X41768775Y-52521926D01*
X41769298Y-52527235D01*
X41770815Y-52530897D01*
X41774114Y-52545405D01*
X41869352Y-52831119D01*
X41872434Y-52838023D01*
X41873012Y-52840942D01*
X41877475Y-52849313D01*
X41881340Y-52857970D01*
X41883287Y-52860215D01*
X41886846Y-52866890D01*
X41982085Y-53009747D01*
X41993279Y-53023418D01*
X41995210Y-53026678D01*
X41998169Y-53029389D01*
X42000715Y-53032498D01*
X42003865Y-53034607D01*
X42016892Y-53046542D01*
X42207368Y-53189400D01*
X42232508Y-53204653D01*
X42232940Y-53204763D01*
X42233297Y-53205028D01*
X42260988Y-53214921D01*
X42546703Y-53286349D01*
X42551774Y-53287098D01*
X42553819Y-53287946D01*
X42564841Y-53289031D01*
X42575792Y-53290651D01*
X42577979Y-53290325D01*
X42583083Y-53290828D01*
X42773559Y-53290828D01*
X42778662Y-53290325D01*
X42780850Y-53290651D01*
X42791800Y-53289031D01*
X42802823Y-53287946D01*
X42804867Y-53287098D01*
X42809939Y-53286349D01*
X43095653Y-53214921D01*
X43123344Y-53205028D01*
X43123700Y-53204763D01*
X43124133Y-53204653D01*
X43149273Y-53189400D01*
X43244512Y-53117971D01*
X43266193Y-53098107D01*
X43271653Y-53088884D01*
X43279231Y-53081307D01*
X43286429Y-53063929D01*
X43296012Y-53047745D01*
X43297527Y-53037136D01*
X43301629Y-53027235D01*
X43304511Y-52997971D01*
X43304511Y-52497971D01*
X43301629Y-52468707D01*
X43279231Y-52414635D01*
X43237847Y-52373251D01*
X43183775Y-52350853D01*
X43154511Y-52347971D01*
X42773559Y-52347971D01*
X42744295Y-52350853D01*
X42690223Y-52373251D01*
X42648839Y-52414635D01*
X42626441Y-52468707D01*
X42626441Y-52527235D01*
X42648839Y-52581307D01*
X42690223Y-52622691D01*
X42744295Y-52645089D01*
X42773559Y-52647971D01*
X43004511Y-52647971D01*
X43004511Y-52922971D01*
X42993504Y-52931225D01*
X42755095Y-52990828D01*
X42601547Y-52990828D01*
X42363135Y-52931225D01*
X42217448Y-52821959D01*
X42147602Y-52717191D01*
X42066416Y-52473631D01*
X42066416Y-52308025D01*
X42147602Y-52064465D01*
X42217448Y-51959697D01*
X42363136Y-51850430D01*
X42601547Y-51790828D01*
X42841597Y-51790828D01*
X43006605Y-51852706D01*
X43035017Y-51860283D01*
X43093511Y-51858297D01*
X43146791Y-51834079D01*
X43186749Y-51791315D01*
X43207299Y-51736513D01*
X43205314Y-51678020D01*
X43181096Y-51624740D01*
X43138331Y-51584782D01*
X43111942Y-51571808D01*
X42921466Y-51500379D01*
X42900958Y-51494910D01*
X42898061Y-51493710D01*
X42895519Y-51493459D01*
X42893053Y-51492802D01*
X42889920Y-51492908D01*
X42868797Y-51490828D01*
X42583083Y-51490828D01*
X42577979Y-51491330D01*
X42575791Y-51491005D01*
X42564838Y-51492624D01*
X42553819Y-51493710D01*
X42551774Y-51494556D01*
X42546702Y-51495307D01*
X42260988Y-51566736D01*
X42233296Y-51576629D01*
X42232938Y-51576893D01*
X42232508Y-51577004D01*
X42207368Y-51592257D01*
X42016892Y-51735114D01*
X42003865Y-51747048D01*
X42000715Y-51749158D01*
X41998169Y-51752266D01*
X41995210Y-51754978D01*
X41993279Y-51758237D01*
X41982085Y-51771909D01*
X41886846Y-51914766D01*
X41883287Y-51921440D01*
X41881340Y-51923686D01*
X41877475Y-51932342D01*
X41873012Y-51940714D01*
X41872434Y-51943632D01*
X41869352Y-51950537D01*
X41774114Y-52236251D01*
X41770815Y-52250758D01*
X41769298Y-52254421D01*
X41768775Y-52259729D01*
X41767594Y-52264924D01*
X41767874Y-52268873D01*
X41766416Y-52283685D01*
X39604372Y-52283685D01*
X39291582Y-51579907D01*
X39282658Y-51564190D01*
X39281317Y-51560703D01*
X39279729Y-51559032D01*
X39277063Y-51554336D01*
X39258572Y-51536765D01*
X39241002Y-51518275D01*
X39237451Y-51516696D01*
X39234635Y-51514021D01*
X39210821Y-51504861D01*
X39187518Y-51494505D01*
X39183636Y-51494405D01*
X39180010Y-51493011D01*
X39154498Y-51493662D01*
X39129010Y-51493012D01*
X39125386Y-51494405D01*
X39121501Y-51494505D01*
X39098187Y-51504866D01*
X39074385Y-51514021D01*
X39071568Y-51516696D01*
X39068018Y-51518275D01*
X39050447Y-51536765D01*
X39031957Y-51554336D01*
X39029290Y-51559032D01*
X39027703Y-51560703D01*
X39026361Y-51564190D01*
X39017438Y-51579907D01*
X38350772Y-53079907D01*
X38341521Y-53107820D01*
X38340027Y-53166328D01*
X38173360Y-53166328D01*
X38173360Y-51324161D01*
X43471178Y-51324161D01*
X43471178Y-53457495D01*
G37*
G36*
X73973615Y-51845156D02*
G01*
X74031099Y-51888268D01*
X74086893Y-51971957D01*
X74086893Y-52095412D01*
X74031099Y-52179101D01*
X73973615Y-52222214D01*
X73828743Y-52276542D01*
X73244036Y-52276542D01*
X73244036Y-51790828D01*
X73828741Y-51790828D01*
X73973615Y-51845156D01*
G37*
G36*
X74553560Y-53457495D02*
G01*
X62586891Y-53457495D01*
X62586891Y-51640828D01*
X62753558Y-51640828D01*
X62753558Y-53140828D01*
X62756440Y-53170092D01*
X62778838Y-53224164D01*
X62820222Y-53265548D01*
X62874294Y-53287946D01*
X62903558Y-53290828D01*
X63855939Y-53290828D01*
X63885203Y-53287946D01*
X63939275Y-53265548D01*
X63980659Y-53224164D01*
X64003057Y-53170092D01*
X64003057Y-53111564D01*
X63980659Y-53057492D01*
X63939275Y-53016108D01*
X63885203Y-52993710D01*
X63855939Y-52990828D01*
X63053558Y-52990828D01*
X63053558Y-52283685D01*
X65801178Y-52283685D01*
X65801178Y-52497971D01*
X65802636Y-52512782D01*
X65802356Y-52516732D01*
X65803537Y-52521926D01*
X65804060Y-52527235D01*
X65805577Y-52530897D01*
X65808876Y-52545405D01*
X65904114Y-52831119D01*
X65907196Y-52838023D01*
X65907774Y-52840942D01*
X65912237Y-52849313D01*
X65916102Y-52857970D01*
X65918049Y-52860215D01*
X65921608Y-52866890D01*
X66016847Y-53009747D01*
X66028041Y-53023418D01*
X66029972Y-53026678D01*
X66032931Y-53029389D01*
X66035477Y-53032498D01*
X66038627Y-53034607D01*
X66051654Y-53046542D01*
X66242130Y-53189400D01*
X66267270Y-53204653D01*
X66267702Y-53204763D01*
X66268059Y-53205028D01*
X66295750Y-53214921D01*
X66581465Y-53286349D01*
X66586536Y-53287098D01*
X66588581Y-53287946D01*
X66599603Y-53289031D01*
X66610554Y-53290651D01*
X66612741Y-53290325D01*
X66617845Y-53290828D01*
X66808321Y-53290828D01*
X66813424Y-53290325D01*
X66815612Y-53290651D01*
X66826562Y-53289031D01*
X66837585Y-53287946D01*
X66839629Y-53287098D01*
X66844701Y-53286349D01*
X67130415Y-53214921D01*
X67158106Y-53205028D01*
X67158462Y-53204763D01*
X67158895Y-53204653D01*
X67184035Y-53189400D01*
X67279274Y-53117971D01*
X67300955Y-53098107D01*
X67306415Y-53088884D01*
X67313993Y-53081307D01*
X67321191Y-53063929D01*
X67330774Y-53047745D01*
X67332289Y-53037136D01*
X67336391Y-53027235D01*
X67339273Y-52997971D01*
X67339273Y-52497971D01*
X67336391Y-52468707D01*
X67313993Y-52414635D01*
X67272609Y-52373251D01*
X67218537Y-52350853D01*
X67189273Y-52347971D01*
X66808321Y-52347971D01*
X66779057Y-52350853D01*
X66724985Y-52373251D01*
X66683601Y-52414635D01*
X66661203Y-52468707D01*
X66661203Y-52527235D01*
X66683601Y-52581307D01*
X66724985Y-52622691D01*
X66779057Y-52645089D01*
X66808321Y-52647971D01*
X67039273Y-52647971D01*
X67039273Y-52922971D01*
X67028266Y-52931225D01*
X66789857Y-52990828D01*
X66636309Y-52990828D01*
X66397897Y-52931225D01*
X66252210Y-52821959D01*
X66182364Y-52717191D01*
X66101178Y-52473631D01*
X66101178Y-52308025D01*
X66109291Y-52283685D01*
X69324988Y-52283685D01*
X69324988Y-52497971D01*
X69326446Y-52512782D01*
X69326166Y-52516732D01*
X69327347Y-52521926D01*
X69327870Y-52527235D01*
X69329387Y-52530897D01*
X69332686Y-52545405D01*
X69427924Y-52831119D01*
X69431006Y-52838023D01*
X69431584Y-52840942D01*
X69436047Y-52849313D01*
X69439912Y-52857970D01*
X69441859Y-52860215D01*
X69445418Y-52866890D01*
X69540657Y-53009747D01*
X69551851Y-53023418D01*
X69553782Y-53026678D01*
X69556741Y-53029389D01*
X69559287Y-53032498D01*
X69562437Y-53034607D01*
X69575464Y-53046542D01*
X69765940Y-53189400D01*
X69791080Y-53204653D01*
X69791512Y-53204763D01*
X69791869Y-53205028D01*
X69819560Y-53214921D01*
X70105275Y-53286349D01*
X70110346Y-53287098D01*
X70112391Y-53287946D01*
X70123413Y-53289031D01*
X70134364Y-53290651D01*
X70136551Y-53290325D01*
X70141655Y-53290828D01*
X70332131Y-53290828D01*
X70337234Y-53290325D01*
X70339422Y-53290651D01*
X70350372Y-53289031D01*
X70361395Y-53287946D01*
X70363439Y-53287098D01*
X70368511Y-53286349D01*
X70654225Y-53214921D01*
X70681916Y-53205028D01*
X70682272Y-53204763D01*
X70682705Y-53204653D01*
X70707845Y-53189400D01*
X70803084Y-53117971D01*
X70824765Y-53098107D01*
X70830225Y-53088884D01*
X70837803Y-53081307D01*
X70845001Y-53063929D01*
X70854584Y-53047745D01*
X70856099Y-53037136D01*
X70860201Y-53027235D01*
X70863083Y-52997971D01*
X70863083Y-52497971D01*
X70860201Y-52468707D01*
X70837803Y-52414635D01*
X70796419Y-52373251D01*
X70742347Y-52350853D01*
X70713083Y-52347971D01*
X70332131Y-52347971D01*
X70302867Y-52350853D01*
X70248795Y-52373251D01*
X70207411Y-52414635D01*
X70185013Y-52468707D01*
X70185013Y-52527235D01*
X70207411Y-52581307D01*
X70248795Y-52622691D01*
X70302867Y-52645089D01*
X70332131Y-52647971D01*
X70563083Y-52647971D01*
X70563083Y-52922971D01*
X70552076Y-52931225D01*
X70313667Y-52990828D01*
X70160119Y-52990828D01*
X69921707Y-52931225D01*
X69776020Y-52821959D01*
X69706174Y-52717191D01*
X69624988Y-52473631D01*
X69624988Y-52308025D01*
X69706174Y-52064465D01*
X69776020Y-51959697D01*
X69921708Y-51850430D01*
X70160119Y-51790828D01*
X70400169Y-51790828D01*
X70565177Y-51852706D01*
X70593589Y-51860283D01*
X70652083Y-51858297D01*
X70705363Y-51834079D01*
X70745321Y-51791315D01*
X70765871Y-51736513D01*
X70763886Y-51678020D01*
X70746981Y-51640828D01*
X72944036Y-51640828D01*
X72944036Y-53140828D01*
X72946918Y-53170092D01*
X72969316Y-53224164D01*
X73010700Y-53265548D01*
X73064772Y-53287946D01*
X73123300Y-53287946D01*
X73177372Y-53265548D01*
X73218756Y-53224164D01*
X73241154Y-53170092D01*
X73244036Y-53140828D01*
X73244036Y-52576542D01*
X73505043Y-52576542D01*
X74127235Y-53243176D01*
X74149309Y-53262603D01*
X74202578Y-53286850D01*
X74261069Y-53288867D01*
X74315881Y-53268347D01*
X74358668Y-53228412D01*
X74382915Y-53175144D01*
X74384932Y-53116653D01*
X74364412Y-53061841D01*
X74346552Y-53038481D01*
X73906915Y-52567442D01*
X73908609Y-52566991D01*
X74099085Y-52495564D01*
X74107891Y-52491234D01*
X74111277Y-52490367D01*
X74118203Y-52486164D01*
X74125474Y-52482590D01*
X74128027Y-52480204D01*
X74136417Y-52475114D01*
X74231656Y-52403685D01*
X74244682Y-52391749D01*
X74247832Y-52389641D01*
X74250377Y-52386532D01*
X74253337Y-52383821D01*
X74255265Y-52380563D01*
X74266463Y-52366890D01*
X74361701Y-52224033D01*
X74375535Y-52198085D01*
X74378386Y-52183670D01*
X74384011Y-52170092D01*
X74386893Y-52140828D01*
X74386893Y-51926542D01*
X74384011Y-51897278D01*
X74378386Y-51883699D01*
X74375535Y-51869285D01*
X74361701Y-51843337D01*
X74266463Y-51700480D01*
X74255265Y-51686806D01*
X74253337Y-51683549D01*
X74250378Y-51680838D01*
X74247832Y-51677729D01*
X74244679Y-51675618D01*
X74231654Y-51663685D01*
X74136417Y-51592257D01*
X74128027Y-51587167D01*
X74125475Y-51584782D01*
X74118204Y-51581207D01*
X74111276Y-51577004D01*
X74107890Y-51576136D01*
X74099086Y-51571808D01*
X73908610Y-51500379D01*
X73888102Y-51494910D01*
X73885205Y-51493710D01*
X73882663Y-51493459D01*
X73880197Y-51492802D01*
X73877064Y-51492908D01*
X73855941Y-51490828D01*
X73094036Y-51490828D01*
X73064772Y-51493710D01*
X73010700Y-51516108D01*
X72969316Y-51557492D01*
X72946918Y-51611564D01*
X72944036Y-51640828D01*
X70746981Y-51640828D01*
X70739668Y-51624740D01*
X70696903Y-51584782D01*
X70670514Y-51571808D01*
X70480038Y-51500379D01*
X70459530Y-51494910D01*
X70456633Y-51493710D01*
X70454091Y-51493459D01*
X70451625Y-51492802D01*
X70448492Y-51492908D01*
X70427369Y-51490828D01*
X70141655Y-51490828D01*
X70136551Y-51491330D01*
X70134363Y-51491005D01*
X70123410Y-51492624D01*
X70112391Y-51493710D01*
X70110346Y-51494556D01*
X70105274Y-51495307D01*
X69819560Y-51566736D01*
X69791868Y-51576629D01*
X69791510Y-51576893D01*
X69791080Y-51577004D01*
X69765940Y-51592257D01*
X69575464Y-51735114D01*
X69562437Y-51747048D01*
X69559287Y-51749158D01*
X69556741Y-51752266D01*
X69553782Y-51754978D01*
X69551851Y-51758237D01*
X69540657Y-51771909D01*
X69445418Y-51914766D01*
X69441859Y-51921440D01*
X69439912Y-51923686D01*
X69436047Y-51932342D01*
X69431584Y-51940714D01*
X69431006Y-51943632D01*
X69427924Y-51950537D01*
X69332686Y-52236251D01*
X69329387Y-52250758D01*
X69327870Y-52254421D01*
X69327347Y-52259729D01*
X69326166Y-52264924D01*
X69326446Y-52268873D01*
X69324988Y-52283685D01*
X66109291Y-52283685D01*
X66182364Y-52064465D01*
X66252210Y-51959697D01*
X66397898Y-51850430D01*
X66636309Y-51790828D01*
X66876359Y-51790828D01*
X67041367Y-51852706D01*
X67069779Y-51860283D01*
X67128273Y-51858297D01*
X67181553Y-51834079D01*
X67221511Y-51791315D01*
X67242061Y-51736513D01*
X67240076Y-51678020D01*
X67215858Y-51624740D01*
X67173093Y-51584782D01*
X67146704Y-51571808D01*
X66956228Y-51500379D01*
X66935720Y-51494910D01*
X66932823Y-51493710D01*
X66930281Y-51493459D01*
X66927815Y-51492802D01*
X66924682Y-51492908D01*
X66903559Y-51490828D01*
X66617845Y-51490828D01*
X66612741Y-51491330D01*
X66610553Y-51491005D01*
X66599600Y-51492624D01*
X66588581Y-51493710D01*
X66586536Y-51494556D01*
X66581464Y-51495307D01*
X66295750Y-51566736D01*
X66268058Y-51576629D01*
X66267700Y-51576893D01*
X66267270Y-51577004D01*
X66242130Y-51592257D01*
X66051654Y-51735114D01*
X66038627Y-51747048D01*
X66035477Y-51749158D01*
X66032931Y-51752266D01*
X66029972Y-51754978D01*
X66028041Y-51758237D01*
X66016847Y-51771909D01*
X65921608Y-51914766D01*
X65918049Y-51921440D01*
X65916102Y-51923686D01*
X65912237Y-51932342D01*
X65907774Y-51940714D01*
X65907196Y-51943632D01*
X65904114Y-51950537D01*
X65808876Y-52236251D01*
X65805577Y-52250758D01*
X65804060Y-52254421D01*
X65803537Y-52259729D01*
X65802356Y-52264924D01*
X65802636Y-52268873D01*
X65801178Y-52283685D01*
X63053558Y-52283685D01*
X63053558Y-51640828D01*
X63050676Y-51611564D01*
X63028278Y-51557492D01*
X62986894Y-51516108D01*
X62932822Y-51493710D01*
X62874294Y-51493710D01*
X62820222Y-51516108D01*
X62778838Y-51557492D01*
X62756440Y-51611564D01*
X62753558Y-51640828D01*
X62586891Y-51640828D01*
X62586891Y-51324161D01*
X74553560Y-51324161D01*
X74553560Y-53457495D01*
G37*
G36*
X58733615Y-51845156D02*
G01*
X58791099Y-51888268D01*
X58846893Y-51971957D01*
X58846893Y-52095412D01*
X58791099Y-52179101D01*
X58733615Y-52222214D01*
X58588743Y-52276542D01*
X58004036Y-52276542D01*
X58004036Y-51790828D01*
X58588741Y-51790828D01*
X58733615Y-51845156D01*
G37*
G36*
X59313560Y-53457495D02*
G01*
X47346891Y-53457495D01*
X47346891Y-51640828D01*
X47513558Y-51640828D01*
X47513558Y-53140828D01*
X47516440Y-53170092D01*
X47538838Y-53224164D01*
X47580222Y-53265548D01*
X47634294Y-53287946D01*
X47663558Y-53290828D01*
X48615939Y-53290828D01*
X48645203Y-53287946D01*
X48699275Y-53265548D01*
X48740659Y-53224164D01*
X48763057Y-53170092D01*
X48763057Y-53111564D01*
X48740659Y-53057492D01*
X48699275Y-53016108D01*
X48645203Y-52993710D01*
X48615939Y-52990828D01*
X47813558Y-52990828D01*
X47813558Y-52283685D01*
X50561178Y-52283685D01*
X50561178Y-52497971D01*
X50562636Y-52512782D01*
X50562356Y-52516732D01*
X50563537Y-52521926D01*
X50564060Y-52527235D01*
X50565577Y-52530897D01*
X50568876Y-52545405D01*
X50664114Y-52831119D01*
X50667196Y-52838023D01*
X50667774Y-52840942D01*
X50672237Y-52849313D01*
X50676102Y-52857970D01*
X50678049Y-52860215D01*
X50681608Y-52866890D01*
X50776847Y-53009747D01*
X50788041Y-53023418D01*
X50789972Y-53026678D01*
X50792931Y-53029389D01*
X50795477Y-53032498D01*
X50798627Y-53034607D01*
X50811654Y-53046542D01*
X51002130Y-53189400D01*
X51027270Y-53204653D01*
X51027702Y-53204763D01*
X51028059Y-53205028D01*
X51055750Y-53214921D01*
X51341465Y-53286349D01*
X51346536Y-53287098D01*
X51348581Y-53287946D01*
X51359603Y-53289031D01*
X51370554Y-53290651D01*
X51372741Y-53290325D01*
X51377845Y-53290828D01*
X51568321Y-53290828D01*
X51573424Y-53290325D01*
X51575612Y-53290651D01*
X51586562Y-53289031D01*
X51597585Y-53287946D01*
X51599629Y-53287098D01*
X51604701Y-53286349D01*
X51890415Y-53214921D01*
X51918106Y-53205028D01*
X51918462Y-53204763D01*
X51918895Y-53204653D01*
X51944035Y-53189400D01*
X52039274Y-53117971D01*
X52060955Y-53098107D01*
X52066415Y-53088884D01*
X52073993Y-53081307D01*
X52081191Y-53063929D01*
X52090774Y-53047745D01*
X52092289Y-53037136D01*
X52096391Y-53027235D01*
X52099273Y-52997971D01*
X52099273Y-52497971D01*
X52096391Y-52468707D01*
X52073993Y-52414635D01*
X52032609Y-52373251D01*
X51978537Y-52350853D01*
X51949273Y-52347971D01*
X51568321Y-52347971D01*
X51539057Y-52350853D01*
X51484985Y-52373251D01*
X51443601Y-52414635D01*
X51421203Y-52468707D01*
X51421203Y-52527235D01*
X51443601Y-52581307D01*
X51484985Y-52622691D01*
X51539057Y-52645089D01*
X51568321Y-52647971D01*
X51799273Y-52647971D01*
X51799273Y-52922971D01*
X51788266Y-52931225D01*
X51549857Y-52990828D01*
X51396309Y-52990828D01*
X51157897Y-52931225D01*
X51012210Y-52821959D01*
X50942364Y-52717191D01*
X50861178Y-52473631D01*
X50861178Y-52308025D01*
X50869291Y-52283685D01*
X54084988Y-52283685D01*
X54084988Y-52497971D01*
X54086446Y-52512782D01*
X54086166Y-52516732D01*
X54087347Y-52521926D01*
X54087870Y-52527235D01*
X54089387Y-52530897D01*
X54092686Y-52545405D01*
X54187924Y-52831119D01*
X54191006Y-52838023D01*
X54191584Y-52840942D01*
X54196047Y-52849313D01*
X54199912Y-52857970D01*
X54201859Y-52860215D01*
X54205418Y-52866890D01*
X54300657Y-53009747D01*
X54311851Y-53023418D01*
X54313782Y-53026678D01*
X54316741Y-53029389D01*
X54319287Y-53032498D01*
X54322437Y-53034607D01*
X54335464Y-53046542D01*
X54525940Y-53189400D01*
X54551080Y-53204653D01*
X54551512Y-53204763D01*
X54551869Y-53205028D01*
X54579560Y-53214921D01*
X54865275Y-53286349D01*
X54870346Y-53287098D01*
X54872391Y-53287946D01*
X54883413Y-53289031D01*
X54894364Y-53290651D01*
X54896551Y-53290325D01*
X54901655Y-53290828D01*
X55092131Y-53290828D01*
X55097234Y-53290325D01*
X55099422Y-53290651D01*
X55110372Y-53289031D01*
X55121395Y-53287946D01*
X55123439Y-53287098D01*
X55128511Y-53286349D01*
X55414225Y-53214921D01*
X55441916Y-53205028D01*
X55442272Y-53204763D01*
X55442705Y-53204653D01*
X55467845Y-53189400D01*
X55563084Y-53117971D01*
X55584765Y-53098107D01*
X55590225Y-53088884D01*
X55597803Y-53081307D01*
X55605001Y-53063929D01*
X55614584Y-53047745D01*
X55616099Y-53037136D01*
X55620201Y-53027235D01*
X55623083Y-52997971D01*
X55623083Y-52497971D01*
X55620201Y-52468707D01*
X55597803Y-52414635D01*
X55556419Y-52373251D01*
X55502347Y-52350853D01*
X55473083Y-52347971D01*
X55092131Y-52347971D01*
X55062867Y-52350853D01*
X55008795Y-52373251D01*
X54967411Y-52414635D01*
X54945013Y-52468707D01*
X54945013Y-52527235D01*
X54967411Y-52581307D01*
X55008795Y-52622691D01*
X55062867Y-52645089D01*
X55092131Y-52647971D01*
X55323083Y-52647971D01*
X55323083Y-52922971D01*
X55312076Y-52931225D01*
X55073667Y-52990828D01*
X54920119Y-52990828D01*
X54681707Y-52931225D01*
X54536020Y-52821959D01*
X54466174Y-52717191D01*
X54384988Y-52473631D01*
X54384988Y-52308025D01*
X54466174Y-52064465D01*
X54536020Y-51959697D01*
X54681708Y-51850430D01*
X54920119Y-51790828D01*
X55160169Y-51790828D01*
X55325177Y-51852706D01*
X55353589Y-51860283D01*
X55412083Y-51858297D01*
X55465363Y-51834079D01*
X55505321Y-51791315D01*
X55525871Y-51736513D01*
X55523886Y-51678020D01*
X55506981Y-51640828D01*
X57704036Y-51640828D01*
X57704036Y-53140828D01*
X57706918Y-53170092D01*
X57729316Y-53224164D01*
X57770700Y-53265548D01*
X57824772Y-53287946D01*
X57883300Y-53287946D01*
X57937372Y-53265548D01*
X57978756Y-53224164D01*
X58001154Y-53170092D01*
X58004036Y-53140828D01*
X58004036Y-52576542D01*
X58265043Y-52576542D01*
X58887235Y-53243176D01*
X58909309Y-53262603D01*
X58962578Y-53286850D01*
X59021069Y-53288867D01*
X59075881Y-53268347D01*
X59118668Y-53228412D01*
X59142915Y-53175144D01*
X59144932Y-53116653D01*
X59124412Y-53061841D01*
X59106552Y-53038481D01*
X58666915Y-52567442D01*
X58668609Y-52566991D01*
X58859085Y-52495564D01*
X58867891Y-52491234D01*
X58871277Y-52490367D01*
X58878203Y-52486164D01*
X58885474Y-52482590D01*
X58888027Y-52480204D01*
X58896417Y-52475114D01*
X58991656Y-52403685D01*
X59004682Y-52391749D01*
X59007832Y-52389641D01*
X59010377Y-52386532D01*
X59013337Y-52383821D01*
X59015265Y-52380563D01*
X59026463Y-52366890D01*
X59121701Y-52224033D01*
X59135535Y-52198085D01*
X59138386Y-52183670D01*
X59144011Y-52170092D01*
X59146893Y-52140828D01*
X59146893Y-51926542D01*
X59144011Y-51897278D01*
X59138386Y-51883699D01*
X59135535Y-51869285D01*
X59121701Y-51843337D01*
X59026463Y-51700480D01*
X59015265Y-51686806D01*
X59013337Y-51683549D01*
X59010378Y-51680838D01*
X59007832Y-51677729D01*
X59004679Y-51675618D01*
X58991654Y-51663685D01*
X58896417Y-51592257D01*
X58888027Y-51587167D01*
X58885475Y-51584782D01*
X58878204Y-51581207D01*
X58871276Y-51577004D01*
X58867890Y-51576136D01*
X58859086Y-51571808D01*
X58668610Y-51500379D01*
X58648102Y-51494910D01*
X58645205Y-51493710D01*
X58642663Y-51493459D01*
X58640197Y-51492802D01*
X58637064Y-51492908D01*
X58615941Y-51490828D01*
X57854036Y-51490828D01*
X57824772Y-51493710D01*
X57770700Y-51516108D01*
X57729316Y-51557492D01*
X57706918Y-51611564D01*
X57704036Y-51640828D01*
X55506981Y-51640828D01*
X55499668Y-51624740D01*
X55456903Y-51584782D01*
X55430514Y-51571808D01*
X55240038Y-51500379D01*
X55219530Y-51494910D01*
X55216633Y-51493710D01*
X55214091Y-51493459D01*
X55211625Y-51492802D01*
X55208492Y-51492908D01*
X55187369Y-51490828D01*
X54901655Y-51490828D01*
X54896551Y-51491330D01*
X54894363Y-51491005D01*
X54883410Y-51492624D01*
X54872391Y-51493710D01*
X54870346Y-51494556D01*
X54865274Y-51495307D01*
X54579560Y-51566736D01*
X54551868Y-51576629D01*
X54551510Y-51576893D01*
X54551080Y-51577004D01*
X54525940Y-51592257D01*
X54335464Y-51735114D01*
X54322437Y-51747048D01*
X54319287Y-51749158D01*
X54316741Y-51752266D01*
X54313782Y-51754978D01*
X54311851Y-51758237D01*
X54300657Y-51771909D01*
X54205418Y-51914766D01*
X54201859Y-51921440D01*
X54199912Y-51923686D01*
X54196047Y-51932342D01*
X54191584Y-51940714D01*
X54191006Y-51943632D01*
X54187924Y-51950537D01*
X54092686Y-52236251D01*
X54089387Y-52250758D01*
X54087870Y-52254421D01*
X54087347Y-52259729D01*
X54086166Y-52264924D01*
X54086446Y-52268873D01*
X54084988Y-52283685D01*
X50869291Y-52283685D01*
X50942364Y-52064465D01*
X51012210Y-51959697D01*
X51157898Y-51850430D01*
X51396309Y-51790828D01*
X51636359Y-51790828D01*
X51801367Y-51852706D01*
X51829779Y-51860283D01*
X51888273Y-51858297D01*
X51941553Y-51834079D01*
X51981511Y-51791315D01*
X52002061Y-51736513D01*
X52000076Y-51678020D01*
X51975858Y-51624740D01*
X51933093Y-51584782D01*
X51906704Y-51571808D01*
X51716228Y-51500379D01*
X51695720Y-51494910D01*
X51692823Y-51493710D01*
X51690281Y-51493459D01*
X51687815Y-51492802D01*
X51684682Y-51492908D01*
X51663559Y-51490828D01*
X51377845Y-51490828D01*
X51372741Y-51491330D01*
X51370553Y-51491005D01*
X51359600Y-51492624D01*
X51348581Y-51493710D01*
X51346536Y-51494556D01*
X51341464Y-51495307D01*
X51055750Y-51566736D01*
X51028058Y-51576629D01*
X51027700Y-51576893D01*
X51027270Y-51577004D01*
X51002130Y-51592257D01*
X50811654Y-51735114D01*
X50798627Y-51747048D01*
X50795477Y-51749158D01*
X50792931Y-51752266D01*
X50789972Y-51754978D01*
X50788041Y-51758237D01*
X50776847Y-51771909D01*
X50681608Y-51914766D01*
X50678049Y-51921440D01*
X50676102Y-51923686D01*
X50672237Y-51932342D01*
X50667774Y-51940714D01*
X50667196Y-51943632D01*
X50664114Y-51950537D01*
X50568876Y-52236251D01*
X50565577Y-52250758D01*
X50564060Y-52254421D01*
X50563537Y-52259729D01*
X50562356Y-52264924D01*
X50562636Y-52268873D01*
X50561178Y-52283685D01*
X47813558Y-52283685D01*
X47813558Y-51640828D01*
X47810676Y-51611564D01*
X47788278Y-51557492D01*
X47746894Y-51516108D01*
X47692822Y-51493710D01*
X47634294Y-51493710D01*
X47580222Y-51516108D01*
X47538838Y-51557492D01*
X47516440Y-51611564D01*
X47513558Y-51640828D01*
X47346891Y-51640828D01*
X47346891Y-51324161D01*
X59313560Y-51324161D01*
X59313560Y-53457495D01*
G37*
G36*
X33333615Y-51845156D02*
G01*
X33391099Y-51888268D01*
X33446893Y-51971957D01*
X33446893Y-52095412D01*
X33391099Y-52179101D01*
X33333615Y-52222214D01*
X33188743Y-52276542D01*
X32604036Y-52276542D01*
X32604036Y-51790828D01*
X33188741Y-51790828D01*
X33333615Y-51845156D01*
G37*
G36*
X33913560Y-53457495D02*
G01*
X21946891Y-53457495D01*
X21946891Y-51640828D01*
X22113558Y-51640828D01*
X22113558Y-53140828D01*
X22116440Y-53170092D01*
X22138838Y-53224164D01*
X22180222Y-53265548D01*
X22234294Y-53287946D01*
X22263558Y-53290828D01*
X23215939Y-53290828D01*
X23245203Y-53287946D01*
X23299275Y-53265548D01*
X23340659Y-53224164D01*
X23363057Y-53170092D01*
X23363057Y-53111564D01*
X23340659Y-53057492D01*
X23299275Y-53016108D01*
X23245203Y-52993710D01*
X23215939Y-52990828D01*
X22413558Y-52990828D01*
X22413558Y-52283685D01*
X25161178Y-52283685D01*
X25161178Y-52497971D01*
X25162636Y-52512782D01*
X25162356Y-52516732D01*
X25163537Y-52521926D01*
X25164060Y-52527235D01*
X25165577Y-52530897D01*
X25168876Y-52545405D01*
X25264114Y-52831119D01*
X25267196Y-52838023D01*
X25267774Y-52840942D01*
X25272237Y-52849313D01*
X25276102Y-52857970D01*
X25278049Y-52860215D01*
X25281608Y-52866890D01*
X25376847Y-53009747D01*
X25388041Y-53023418D01*
X25389972Y-53026678D01*
X25392931Y-53029389D01*
X25395477Y-53032498D01*
X25398627Y-53034607D01*
X25411654Y-53046542D01*
X25602130Y-53189400D01*
X25627270Y-53204653D01*
X25627702Y-53204763D01*
X25628059Y-53205028D01*
X25655750Y-53214921D01*
X25941465Y-53286349D01*
X25946536Y-53287098D01*
X25948581Y-53287946D01*
X25959603Y-53289031D01*
X25970554Y-53290651D01*
X25972741Y-53290325D01*
X25977845Y-53290828D01*
X26168321Y-53290828D01*
X26173424Y-53290325D01*
X26175612Y-53290651D01*
X26186562Y-53289031D01*
X26197585Y-53287946D01*
X26199629Y-53287098D01*
X26204701Y-53286349D01*
X26490415Y-53214921D01*
X26518106Y-53205028D01*
X26518462Y-53204763D01*
X26518895Y-53204653D01*
X26544035Y-53189400D01*
X26639274Y-53117971D01*
X26660955Y-53098107D01*
X26666415Y-53088884D01*
X26673993Y-53081307D01*
X26681191Y-53063929D01*
X26690774Y-53047745D01*
X26692289Y-53037136D01*
X26696391Y-53027235D01*
X26699273Y-52997971D01*
X26699273Y-52497971D01*
X26696391Y-52468707D01*
X26673993Y-52414635D01*
X26632609Y-52373251D01*
X26578537Y-52350853D01*
X26549273Y-52347971D01*
X26168321Y-52347971D01*
X26139057Y-52350853D01*
X26084985Y-52373251D01*
X26043601Y-52414635D01*
X26021203Y-52468707D01*
X26021203Y-52527235D01*
X26043601Y-52581307D01*
X26084985Y-52622691D01*
X26139057Y-52645089D01*
X26168321Y-52647971D01*
X26399273Y-52647971D01*
X26399273Y-52922971D01*
X26388266Y-52931225D01*
X26149857Y-52990828D01*
X25996309Y-52990828D01*
X25757897Y-52931225D01*
X25612210Y-52821959D01*
X25542364Y-52717191D01*
X25461178Y-52473631D01*
X25461178Y-52308025D01*
X25469291Y-52283685D01*
X28684988Y-52283685D01*
X28684988Y-52497971D01*
X28686446Y-52512782D01*
X28686166Y-52516732D01*
X28687347Y-52521926D01*
X28687870Y-52527235D01*
X28689387Y-52530897D01*
X28692686Y-52545405D01*
X28787924Y-52831119D01*
X28791006Y-52838023D01*
X28791584Y-52840942D01*
X28796047Y-52849313D01*
X28799912Y-52857970D01*
X28801859Y-52860215D01*
X28805418Y-52866890D01*
X28900657Y-53009747D01*
X28911851Y-53023418D01*
X28913782Y-53026678D01*
X28916741Y-53029389D01*
X28919287Y-53032498D01*
X28922437Y-53034607D01*
X28935464Y-53046542D01*
X29125940Y-53189400D01*
X29151080Y-53204653D01*
X29151512Y-53204763D01*
X29151869Y-53205028D01*
X29179560Y-53214921D01*
X29465275Y-53286349D01*
X29470346Y-53287098D01*
X29472391Y-53287946D01*
X29483413Y-53289031D01*
X29494364Y-53290651D01*
X29496551Y-53290325D01*
X29501655Y-53290828D01*
X29692131Y-53290828D01*
X29697234Y-53290325D01*
X29699422Y-53290651D01*
X29710372Y-53289031D01*
X29721395Y-53287946D01*
X29723439Y-53287098D01*
X29728511Y-53286349D01*
X30014225Y-53214921D01*
X30041916Y-53205028D01*
X30042272Y-53204763D01*
X30042705Y-53204653D01*
X30067845Y-53189400D01*
X30163084Y-53117971D01*
X30184765Y-53098107D01*
X30190225Y-53088884D01*
X30197803Y-53081307D01*
X30205001Y-53063929D01*
X30214584Y-53047745D01*
X30216099Y-53037136D01*
X30220201Y-53027235D01*
X30223083Y-52997971D01*
X30223083Y-52497971D01*
X30220201Y-52468707D01*
X30197803Y-52414635D01*
X30156419Y-52373251D01*
X30102347Y-52350853D01*
X30073083Y-52347971D01*
X29692131Y-52347971D01*
X29662867Y-52350853D01*
X29608795Y-52373251D01*
X29567411Y-52414635D01*
X29545013Y-52468707D01*
X29545013Y-52527235D01*
X29567411Y-52581307D01*
X29608795Y-52622691D01*
X29662867Y-52645089D01*
X29692131Y-52647971D01*
X29923083Y-52647971D01*
X29923083Y-52922971D01*
X29912076Y-52931225D01*
X29673667Y-52990828D01*
X29520119Y-52990828D01*
X29281707Y-52931225D01*
X29136020Y-52821959D01*
X29066174Y-52717191D01*
X28984988Y-52473631D01*
X28984988Y-52308025D01*
X29066174Y-52064465D01*
X29136020Y-51959697D01*
X29281708Y-51850430D01*
X29520119Y-51790828D01*
X29760169Y-51790828D01*
X29925177Y-51852706D01*
X29953589Y-51860283D01*
X30012083Y-51858297D01*
X30065363Y-51834079D01*
X30105321Y-51791315D01*
X30125871Y-51736513D01*
X30123886Y-51678020D01*
X30106981Y-51640828D01*
X32304036Y-51640828D01*
X32304036Y-53140828D01*
X32306918Y-53170092D01*
X32329316Y-53224164D01*
X32370700Y-53265548D01*
X32424772Y-53287946D01*
X32483300Y-53287946D01*
X32537372Y-53265548D01*
X32578756Y-53224164D01*
X32601154Y-53170092D01*
X32604036Y-53140828D01*
X32604036Y-52576542D01*
X32865043Y-52576542D01*
X33487235Y-53243176D01*
X33509309Y-53262603D01*
X33562578Y-53286850D01*
X33621069Y-53288867D01*
X33675881Y-53268347D01*
X33718668Y-53228412D01*
X33742915Y-53175144D01*
X33744932Y-53116653D01*
X33724412Y-53061841D01*
X33706552Y-53038481D01*
X33266915Y-52567442D01*
X33268609Y-52566991D01*
X33459085Y-52495564D01*
X33467891Y-52491234D01*
X33471277Y-52490367D01*
X33478203Y-52486164D01*
X33485474Y-52482590D01*
X33488027Y-52480204D01*
X33496417Y-52475114D01*
X33591656Y-52403685D01*
X33604682Y-52391749D01*
X33607832Y-52389641D01*
X33610377Y-52386532D01*
X33613337Y-52383821D01*
X33615265Y-52380563D01*
X33626463Y-52366890D01*
X33721701Y-52224033D01*
X33735535Y-52198085D01*
X33738386Y-52183670D01*
X33744011Y-52170092D01*
X33746893Y-52140828D01*
X33746893Y-51926542D01*
X33744011Y-51897278D01*
X33738386Y-51883699D01*
X33735535Y-51869285D01*
X33721701Y-51843337D01*
X33626463Y-51700480D01*
X33615265Y-51686806D01*
X33613337Y-51683549D01*
X33610378Y-51680838D01*
X33607832Y-51677729D01*
X33604679Y-51675618D01*
X33591654Y-51663685D01*
X33496417Y-51592257D01*
X33488027Y-51587167D01*
X33485475Y-51584782D01*
X33478204Y-51581207D01*
X33471276Y-51577004D01*
X33467890Y-51576136D01*
X33459086Y-51571808D01*
X33268610Y-51500379D01*
X33248102Y-51494910D01*
X33245205Y-51493710D01*
X33242663Y-51493459D01*
X33240197Y-51492802D01*
X33237064Y-51492908D01*
X33215941Y-51490828D01*
X32454036Y-51490828D01*
X32424772Y-51493710D01*
X32370700Y-51516108D01*
X32329316Y-51557492D01*
X32306918Y-51611564D01*
X32304036Y-51640828D01*
X30106981Y-51640828D01*
X30099668Y-51624740D01*
X30056903Y-51584782D01*
X30030514Y-51571808D01*
X29840038Y-51500379D01*
X29819530Y-51494910D01*
X29816633Y-51493710D01*
X29814091Y-51493459D01*
X29811625Y-51492802D01*
X29808492Y-51492908D01*
X29787369Y-51490828D01*
X29501655Y-51490828D01*
X29496551Y-51491330D01*
X29494363Y-51491005D01*
X29483410Y-51492624D01*
X29472391Y-51493710D01*
X29470346Y-51494556D01*
X29465274Y-51495307D01*
X29179560Y-51566736D01*
X29151868Y-51576629D01*
X29151510Y-51576893D01*
X29151080Y-51577004D01*
X29125940Y-51592257D01*
X28935464Y-51735114D01*
X28922437Y-51747048D01*
X28919287Y-51749158D01*
X28916741Y-51752266D01*
X28913782Y-51754978D01*
X28911851Y-51758237D01*
X28900657Y-51771909D01*
X28805418Y-51914766D01*
X28801859Y-51921440D01*
X28799912Y-51923686D01*
X28796047Y-51932342D01*
X28791584Y-51940714D01*
X28791006Y-51943632D01*
X28787924Y-51950537D01*
X28692686Y-52236251D01*
X28689387Y-52250758D01*
X28687870Y-52254421D01*
X28687347Y-52259729D01*
X28686166Y-52264924D01*
X28686446Y-52268873D01*
X28684988Y-52283685D01*
X25469291Y-52283685D01*
X25542364Y-52064465D01*
X25612210Y-51959697D01*
X25757898Y-51850430D01*
X25996309Y-51790828D01*
X26236359Y-51790828D01*
X26401367Y-51852706D01*
X26429779Y-51860283D01*
X26488273Y-51858297D01*
X26541553Y-51834079D01*
X26581511Y-51791315D01*
X26602061Y-51736513D01*
X26600076Y-51678020D01*
X26575858Y-51624740D01*
X26533093Y-51584782D01*
X26506704Y-51571808D01*
X26316228Y-51500379D01*
X26295720Y-51494910D01*
X26292823Y-51493710D01*
X26290281Y-51493459D01*
X26287815Y-51492802D01*
X26284682Y-51492908D01*
X26263559Y-51490828D01*
X25977845Y-51490828D01*
X25972741Y-51491330D01*
X25970553Y-51491005D01*
X25959600Y-51492624D01*
X25948581Y-51493710D01*
X25946536Y-51494556D01*
X25941464Y-51495307D01*
X25655750Y-51566736D01*
X25628058Y-51576629D01*
X25627700Y-51576893D01*
X25627270Y-51577004D01*
X25602130Y-51592257D01*
X25411654Y-51735114D01*
X25398627Y-51747048D01*
X25395477Y-51749158D01*
X25392931Y-51752266D01*
X25389972Y-51754978D01*
X25388041Y-51758237D01*
X25376847Y-51771909D01*
X25281608Y-51914766D01*
X25278049Y-51921440D01*
X25276102Y-51923686D01*
X25272237Y-51932342D01*
X25267774Y-51940714D01*
X25267196Y-51943632D01*
X25264114Y-51950537D01*
X25168876Y-52236251D01*
X25165577Y-52250758D01*
X25164060Y-52254421D01*
X25163537Y-52259729D01*
X25162356Y-52264924D01*
X25162636Y-52268873D01*
X25161178Y-52283685D01*
X22413558Y-52283685D01*
X22413558Y-51640828D01*
X22410676Y-51611564D01*
X22388278Y-51557492D01*
X22346894Y-51516108D01*
X22292822Y-51493710D01*
X22234294Y-51493710D01*
X22180222Y-51516108D01*
X22138838Y-51557492D01*
X22116440Y-51611564D01*
X22113558Y-51640828D01*
X21946891Y-51640828D01*
X21946891Y-51324161D01*
X33913560Y-51324161D01*
X33913560Y-53457495D01*
G37*
D11*
X55118095Y-19774819D02*
X55118095Y-20584342D01*
X55118095Y-20584342D02*
X55165714Y-20679580D01*
X55165714Y-20679580D02*
X55213333Y-20727200D01*
X55213333Y-20727200D02*
X55308571Y-20774819D01*
X55308571Y-20774819D02*
X55499047Y-20774819D01*
X55499047Y-20774819D02*
X55594285Y-20727200D01*
X55594285Y-20727200D02*
X55641904Y-20679580D01*
X55641904Y-20679580D02*
X55689523Y-20584342D01*
X55689523Y-20584342D02*
X55689523Y-19774819D01*
X56594285Y-20108152D02*
X56594285Y-20774819D01*
X56356190Y-19727200D02*
X56118095Y-20441485D01*
X56118095Y-20441485D02*
X56737142Y-20441485D01*
X72462142Y-29664819D02*
X72128809Y-29188628D01*
X71890714Y-29664819D02*
X71890714Y-28664819D01*
X71890714Y-28664819D02*
X72271666Y-28664819D01*
X72271666Y-28664819D02*
X72366904Y-28712438D01*
X72366904Y-28712438D02*
X72414523Y-28760057D01*
X72414523Y-28760057D02*
X72462142Y-28855295D01*
X72462142Y-28855295D02*
X72462142Y-28998152D01*
X72462142Y-28998152D02*
X72414523Y-29093390D01*
X72414523Y-29093390D02*
X72366904Y-29141009D01*
X72366904Y-29141009D02*
X72271666Y-29188628D01*
X72271666Y-29188628D02*
X71890714Y-29188628D01*
X72843095Y-28760057D02*
X72890714Y-28712438D01*
X72890714Y-28712438D02*
X72985952Y-28664819D01*
X72985952Y-28664819D02*
X73224047Y-28664819D01*
X73224047Y-28664819D02*
X73319285Y-28712438D01*
X73319285Y-28712438D02*
X73366904Y-28760057D01*
X73366904Y-28760057D02*
X73414523Y-28855295D01*
X73414523Y-28855295D02*
X73414523Y-28950533D01*
X73414523Y-28950533D02*
X73366904Y-29093390D01*
X73366904Y-29093390D02*
X72795476Y-29664819D01*
X72795476Y-29664819D02*
X73414523Y-29664819D01*
X73747857Y-28664819D02*
X74366904Y-28664819D01*
X74366904Y-28664819D02*
X74033571Y-29045771D01*
X74033571Y-29045771D02*
X74176428Y-29045771D01*
X74176428Y-29045771D02*
X74271666Y-29093390D01*
X74271666Y-29093390D02*
X74319285Y-29141009D01*
X74319285Y-29141009D02*
X74366904Y-29236247D01*
X74366904Y-29236247D02*
X74366904Y-29474342D01*
X74366904Y-29474342D02*
X74319285Y-29569580D01*
X74319285Y-29569580D02*
X74271666Y-29617200D01*
X74271666Y-29617200D02*
X74176428Y-29664819D01*
X74176428Y-29664819D02*
X73890714Y-29664819D01*
X73890714Y-29664819D02*
X73795476Y-29617200D01*
X73795476Y-29617200D02*
X73747857Y-29569580D01*
X59762142Y-19762319D02*
X59428809Y-19286128D01*
X59190714Y-19762319D02*
X59190714Y-18762319D01*
X59190714Y-18762319D02*
X59571666Y-18762319D01*
X59571666Y-18762319D02*
X59666904Y-18809938D01*
X59666904Y-18809938D02*
X59714523Y-18857557D01*
X59714523Y-18857557D02*
X59762142Y-18952795D01*
X59762142Y-18952795D02*
X59762142Y-19095652D01*
X59762142Y-19095652D02*
X59714523Y-19190890D01*
X59714523Y-19190890D02*
X59666904Y-19238509D01*
X59666904Y-19238509D02*
X59571666Y-19286128D01*
X59571666Y-19286128D02*
X59190714Y-19286128D01*
X60143095Y-18857557D02*
X60190714Y-18809938D01*
X60190714Y-18809938D02*
X60285952Y-18762319D01*
X60285952Y-18762319D02*
X60524047Y-18762319D01*
X60524047Y-18762319D02*
X60619285Y-18809938D01*
X60619285Y-18809938D02*
X60666904Y-18857557D01*
X60666904Y-18857557D02*
X60714523Y-18952795D01*
X60714523Y-18952795D02*
X60714523Y-19048033D01*
X60714523Y-19048033D02*
X60666904Y-19190890D01*
X60666904Y-19190890D02*
X60095476Y-19762319D01*
X60095476Y-19762319D02*
X60714523Y-19762319D01*
X61619285Y-18762319D02*
X61143095Y-18762319D01*
X61143095Y-18762319D02*
X61095476Y-19238509D01*
X61095476Y-19238509D02*
X61143095Y-19190890D01*
X61143095Y-19190890D02*
X61238333Y-19143271D01*
X61238333Y-19143271D02*
X61476428Y-19143271D01*
X61476428Y-19143271D02*
X61571666Y-19190890D01*
X61571666Y-19190890D02*
X61619285Y-19238509D01*
X61619285Y-19238509D02*
X61666904Y-19333747D01*
X61666904Y-19333747D02*
X61666904Y-19571842D01*
X61666904Y-19571842D02*
X61619285Y-19667080D01*
X61619285Y-19667080D02*
X61571666Y-19714700D01*
X61571666Y-19714700D02*
X61476428Y-19762319D01*
X61476428Y-19762319D02*
X61238333Y-19762319D01*
X61238333Y-19762319D02*
X61143095Y-19714700D01*
X61143095Y-19714700D02*
X61095476Y-19667080D01*
X57549580Y-47156666D02*
X57597200Y-47204285D01*
X57597200Y-47204285D02*
X57644819Y-47347142D01*
X57644819Y-47347142D02*
X57644819Y-47442380D01*
X57644819Y-47442380D02*
X57597200Y-47585237D01*
X57597200Y-47585237D02*
X57501961Y-47680475D01*
X57501961Y-47680475D02*
X57406723Y-47728094D01*
X57406723Y-47728094D02*
X57216247Y-47775713D01*
X57216247Y-47775713D02*
X57073390Y-47775713D01*
X57073390Y-47775713D02*
X56882914Y-47728094D01*
X56882914Y-47728094D02*
X56787676Y-47680475D01*
X56787676Y-47680475D02*
X56692438Y-47585237D01*
X56692438Y-47585237D02*
X56644819Y-47442380D01*
X56644819Y-47442380D02*
X56644819Y-47347142D01*
X56644819Y-47347142D02*
X56692438Y-47204285D01*
X56692438Y-47204285D02*
X56740057Y-47156666D01*
X56740057Y-46775713D02*
X56692438Y-46728094D01*
X56692438Y-46728094D02*
X56644819Y-46632856D01*
X56644819Y-46632856D02*
X56644819Y-46394761D01*
X56644819Y-46394761D02*
X56692438Y-46299523D01*
X56692438Y-46299523D02*
X56740057Y-46251904D01*
X56740057Y-46251904D02*
X56835295Y-46204285D01*
X56835295Y-46204285D02*
X56930533Y-46204285D01*
X56930533Y-46204285D02*
X57073390Y-46251904D01*
X57073390Y-46251904D02*
X57644819Y-46823332D01*
X57644819Y-46823332D02*
X57644819Y-46204285D01*
X57644819Y-45092857D02*
X57168628Y-45426190D01*
X57644819Y-45664285D02*
X56644819Y-45664285D01*
X56644819Y-45664285D02*
X56644819Y-45283333D01*
X56644819Y-45283333D02*
X56692438Y-45188095D01*
X56692438Y-45188095D02*
X56740057Y-45140476D01*
X56740057Y-45140476D02*
X56835295Y-45092857D01*
X56835295Y-45092857D02*
X56978152Y-45092857D01*
X56978152Y-45092857D02*
X57073390Y-45140476D01*
X57073390Y-45140476D02*
X57121009Y-45188095D01*
X57121009Y-45188095D02*
X57168628Y-45283333D01*
X57168628Y-45283333D02*
X57168628Y-45664285D01*
X57644819Y-44140476D02*
X57644819Y-44711904D01*
X57644819Y-44426190D02*
X56644819Y-44426190D01*
X56644819Y-44426190D02*
X56787676Y-44521428D01*
X56787676Y-44521428D02*
X56882914Y-44616666D01*
X56882914Y-44616666D02*
X56930533Y-44711904D01*
X56978152Y-43283333D02*
X57644819Y-43283333D01*
X56597200Y-43521428D02*
X57311485Y-43759523D01*
X57311485Y-43759523D02*
X57311485Y-43140476D01*
X41164819Y-30036904D02*
X41974342Y-30036904D01*
X41974342Y-30036904D02*
X42069580Y-29989285D01*
X42069580Y-29989285D02*
X42117200Y-29941666D01*
X42117200Y-29941666D02*
X42164819Y-29846428D01*
X42164819Y-29846428D02*
X42164819Y-29655952D01*
X42164819Y-29655952D02*
X42117200Y-29560714D01*
X42117200Y-29560714D02*
X42069580Y-29513095D01*
X42069580Y-29513095D02*
X41974342Y-29465476D01*
X41974342Y-29465476D02*
X41164819Y-29465476D01*
X41164819Y-29084523D02*
X41164819Y-28465476D01*
X41164819Y-28465476D02*
X41545771Y-28798809D01*
X41545771Y-28798809D02*
X41545771Y-28655952D01*
X41545771Y-28655952D02*
X41593390Y-28560714D01*
X41593390Y-28560714D02*
X41641009Y-28513095D01*
X41641009Y-28513095D02*
X41736247Y-28465476D01*
X41736247Y-28465476D02*
X41974342Y-28465476D01*
X41974342Y-28465476D02*
X42069580Y-28513095D01*
X42069580Y-28513095D02*
X42117200Y-28560714D01*
X42117200Y-28560714D02*
X42164819Y-28655952D01*
X42164819Y-28655952D02*
X42164819Y-28941666D01*
X42164819Y-28941666D02*
X42117200Y-29036904D01*
X42117200Y-29036904D02*
X42069580Y-29084523D01*
X64714819Y-30294404D02*
X65524342Y-30294404D01*
X65524342Y-30294404D02*
X65619580Y-30246785D01*
X65619580Y-30246785D02*
X65667200Y-30199166D01*
X65667200Y-30199166D02*
X65714819Y-30103928D01*
X65714819Y-30103928D02*
X65714819Y-29913452D01*
X65714819Y-29913452D02*
X65667200Y-29818214D01*
X65667200Y-29818214D02*
X65619580Y-29770595D01*
X65619580Y-29770595D02*
X65524342Y-29722976D01*
X65524342Y-29722976D02*
X64714819Y-29722976D01*
X65714819Y-28722976D02*
X65714819Y-29294404D01*
X65714819Y-29008690D02*
X64714819Y-29008690D01*
X64714819Y-29008690D02*
X64857676Y-29103928D01*
X64857676Y-29103928D02*
X64952914Y-29199166D01*
X64952914Y-29199166D02*
X65000533Y-29294404D01*
X59047142Y-41094819D02*
X58713809Y-40618628D01*
X58475714Y-41094819D02*
X58475714Y-40094819D01*
X58475714Y-40094819D02*
X58856666Y-40094819D01*
X58856666Y-40094819D02*
X58951904Y-40142438D01*
X58951904Y-40142438D02*
X58999523Y-40190057D01*
X58999523Y-40190057D02*
X59047142Y-40285295D01*
X59047142Y-40285295D02*
X59047142Y-40428152D01*
X59047142Y-40428152D02*
X58999523Y-40523390D01*
X58999523Y-40523390D02*
X58951904Y-40571009D01*
X58951904Y-40571009D02*
X58856666Y-40618628D01*
X58856666Y-40618628D02*
X58475714Y-40618628D01*
X59428095Y-40190057D02*
X59475714Y-40142438D01*
X59475714Y-40142438D02*
X59570952Y-40094819D01*
X59570952Y-40094819D02*
X59809047Y-40094819D01*
X59809047Y-40094819D02*
X59904285Y-40142438D01*
X59904285Y-40142438D02*
X59951904Y-40190057D01*
X59951904Y-40190057D02*
X59999523Y-40285295D01*
X59999523Y-40285295D02*
X59999523Y-40380533D01*
X59999523Y-40380533D02*
X59951904Y-40523390D01*
X59951904Y-40523390D02*
X59380476Y-41094819D01*
X59380476Y-41094819D02*
X59999523Y-41094819D01*
X60856666Y-40428152D02*
X60856666Y-41094819D01*
X60618571Y-40047200D02*
X60380476Y-40761485D01*
X60380476Y-40761485D02*
X60999523Y-40761485D01*
X73017142Y-24842319D02*
X72683809Y-24366128D01*
X72445714Y-24842319D02*
X72445714Y-23842319D01*
X72445714Y-23842319D02*
X72826666Y-23842319D01*
X72826666Y-23842319D02*
X72921904Y-23889938D01*
X72921904Y-23889938D02*
X72969523Y-23937557D01*
X72969523Y-23937557D02*
X73017142Y-24032795D01*
X73017142Y-24032795D02*
X73017142Y-24175652D01*
X73017142Y-24175652D02*
X72969523Y-24270890D01*
X72969523Y-24270890D02*
X72921904Y-24318509D01*
X72921904Y-24318509D02*
X72826666Y-24366128D01*
X72826666Y-24366128D02*
X72445714Y-24366128D01*
X73398095Y-23937557D02*
X73445714Y-23889938D01*
X73445714Y-23889938D02*
X73540952Y-23842319D01*
X73540952Y-23842319D02*
X73779047Y-23842319D01*
X73779047Y-23842319D02*
X73874285Y-23889938D01*
X73874285Y-23889938D02*
X73921904Y-23937557D01*
X73921904Y-23937557D02*
X73969523Y-24032795D01*
X73969523Y-24032795D02*
X73969523Y-24128033D01*
X73969523Y-24128033D02*
X73921904Y-24270890D01*
X73921904Y-24270890D02*
X73350476Y-24842319D01*
X73350476Y-24842319D02*
X73969523Y-24842319D01*
X74350476Y-23937557D02*
X74398095Y-23889938D01*
X74398095Y-23889938D02*
X74493333Y-23842319D01*
X74493333Y-23842319D02*
X74731428Y-23842319D01*
X74731428Y-23842319D02*
X74826666Y-23889938D01*
X74826666Y-23889938D02*
X74874285Y-23937557D01*
X74874285Y-23937557D02*
X74921904Y-24032795D01*
X74921904Y-24032795D02*
X74921904Y-24128033D01*
X74921904Y-24128033D02*
X74874285Y-24270890D01*
X74874285Y-24270890D02*
X74302857Y-24842319D01*
X74302857Y-24842319D02*
X74921904Y-24842319D01*
X63572142Y-19762319D02*
X63238809Y-19286128D01*
X63000714Y-19762319D02*
X63000714Y-18762319D01*
X63000714Y-18762319D02*
X63381666Y-18762319D01*
X63381666Y-18762319D02*
X63476904Y-18809938D01*
X63476904Y-18809938D02*
X63524523Y-18857557D01*
X63524523Y-18857557D02*
X63572142Y-18952795D01*
X63572142Y-18952795D02*
X63572142Y-19095652D01*
X63572142Y-19095652D02*
X63524523Y-19190890D01*
X63524523Y-19190890D02*
X63476904Y-19238509D01*
X63476904Y-19238509D02*
X63381666Y-19286128D01*
X63381666Y-19286128D02*
X63000714Y-19286128D01*
X63953095Y-18857557D02*
X64000714Y-18809938D01*
X64000714Y-18809938D02*
X64095952Y-18762319D01*
X64095952Y-18762319D02*
X64334047Y-18762319D01*
X64334047Y-18762319D02*
X64429285Y-18809938D01*
X64429285Y-18809938D02*
X64476904Y-18857557D01*
X64476904Y-18857557D02*
X64524523Y-18952795D01*
X64524523Y-18952795D02*
X64524523Y-19048033D01*
X64524523Y-19048033D02*
X64476904Y-19190890D01*
X64476904Y-19190890D02*
X63905476Y-19762319D01*
X63905476Y-19762319D02*
X64524523Y-19762319D01*
X65476904Y-19762319D02*
X64905476Y-19762319D01*
X65191190Y-19762319D02*
X65191190Y-18762319D01*
X65191190Y-18762319D02*
X65095952Y-18905176D01*
X65095952Y-18905176D02*
X65000714Y-19000414D01*
X65000714Y-19000414D02*
X64905476Y-19048033D01*
X62857142Y-41094819D02*
X62523809Y-40618628D01*
X62285714Y-41094819D02*
X62285714Y-40094819D01*
X62285714Y-40094819D02*
X62666666Y-40094819D01*
X62666666Y-40094819D02*
X62761904Y-40142438D01*
X62761904Y-40142438D02*
X62809523Y-40190057D01*
X62809523Y-40190057D02*
X62857142Y-40285295D01*
X62857142Y-40285295D02*
X62857142Y-40428152D01*
X62857142Y-40428152D02*
X62809523Y-40523390D01*
X62809523Y-40523390D02*
X62761904Y-40571009D01*
X62761904Y-40571009D02*
X62666666Y-40618628D01*
X62666666Y-40618628D02*
X62285714Y-40618628D01*
X63238095Y-40190057D02*
X63285714Y-40142438D01*
X63285714Y-40142438D02*
X63380952Y-40094819D01*
X63380952Y-40094819D02*
X63619047Y-40094819D01*
X63619047Y-40094819D02*
X63714285Y-40142438D01*
X63714285Y-40142438D02*
X63761904Y-40190057D01*
X63761904Y-40190057D02*
X63809523Y-40285295D01*
X63809523Y-40285295D02*
X63809523Y-40380533D01*
X63809523Y-40380533D02*
X63761904Y-40523390D01*
X63761904Y-40523390D02*
X63190476Y-41094819D01*
X63190476Y-41094819D02*
X63809523Y-41094819D01*
X64428571Y-40094819D02*
X64523809Y-40094819D01*
X64523809Y-40094819D02*
X64619047Y-40142438D01*
X64619047Y-40142438D02*
X64666666Y-40190057D01*
X64666666Y-40190057D02*
X64714285Y-40285295D01*
X64714285Y-40285295D02*
X64761904Y-40475771D01*
X64761904Y-40475771D02*
X64761904Y-40713866D01*
X64761904Y-40713866D02*
X64714285Y-40904342D01*
X64714285Y-40904342D02*
X64666666Y-40999580D01*
X64666666Y-40999580D02*
X64619047Y-41047200D01*
X64619047Y-41047200D02*
X64523809Y-41094819D01*
X64523809Y-41094819D02*
X64428571Y-41094819D01*
X64428571Y-41094819D02*
X64333333Y-41047200D01*
X64333333Y-41047200D02*
X64285714Y-40999580D01*
X64285714Y-40999580D02*
X64238095Y-40904342D01*
X64238095Y-40904342D02*
X64190476Y-40713866D01*
X64190476Y-40713866D02*
X64190476Y-40475771D01*
X64190476Y-40475771D02*
X64238095Y-40285295D01*
X64238095Y-40285295D02*
X64285714Y-40190057D01*
X64285714Y-40190057D02*
X64333333Y-40142438D01*
X64333333Y-40142438D02*
X64428571Y-40094819D01*
X67382142Y-19762319D02*
X67048809Y-19286128D01*
X66810714Y-19762319D02*
X66810714Y-18762319D01*
X66810714Y-18762319D02*
X67191666Y-18762319D01*
X67191666Y-18762319D02*
X67286904Y-18809938D01*
X67286904Y-18809938D02*
X67334523Y-18857557D01*
X67334523Y-18857557D02*
X67382142Y-18952795D01*
X67382142Y-18952795D02*
X67382142Y-19095652D01*
X67382142Y-19095652D02*
X67334523Y-19190890D01*
X67334523Y-19190890D02*
X67286904Y-19238509D01*
X67286904Y-19238509D02*
X67191666Y-19286128D01*
X67191666Y-19286128D02*
X66810714Y-19286128D01*
X68334523Y-19762319D02*
X67763095Y-19762319D01*
X68048809Y-19762319D02*
X68048809Y-18762319D01*
X68048809Y-18762319D02*
X67953571Y-18905176D01*
X67953571Y-18905176D02*
X67858333Y-19000414D01*
X67858333Y-19000414D02*
X67763095Y-19048033D01*
X68810714Y-19762319D02*
X69001190Y-19762319D01*
X69001190Y-19762319D02*
X69096428Y-19714700D01*
X69096428Y-19714700D02*
X69144047Y-19667080D01*
X69144047Y-19667080D02*
X69239285Y-19524223D01*
X69239285Y-19524223D02*
X69286904Y-19333747D01*
X69286904Y-19333747D02*
X69286904Y-18952795D01*
X69286904Y-18952795D02*
X69239285Y-18857557D01*
X69239285Y-18857557D02*
X69191666Y-18809938D01*
X69191666Y-18809938D02*
X69096428Y-18762319D01*
X69096428Y-18762319D02*
X68905952Y-18762319D01*
X68905952Y-18762319D02*
X68810714Y-18809938D01*
X68810714Y-18809938D02*
X68763095Y-18857557D01*
X68763095Y-18857557D02*
X68715476Y-18952795D01*
X68715476Y-18952795D02*
X68715476Y-19190890D01*
X68715476Y-19190890D02*
X68763095Y-19286128D01*
X68763095Y-19286128D02*
X68810714Y-19333747D01*
X68810714Y-19333747D02*
X68905952Y-19381366D01*
X68905952Y-19381366D02*
X69096428Y-19381366D01*
X69096428Y-19381366D02*
X69191666Y-19333747D01*
X69191666Y-19333747D02*
X69239285Y-19286128D01*
X69239285Y-19286128D02*
X69286904Y-19190890D01*
X66667142Y-41094819D02*
X66333809Y-40618628D01*
X66095714Y-41094819D02*
X66095714Y-40094819D01*
X66095714Y-40094819D02*
X66476666Y-40094819D01*
X66476666Y-40094819D02*
X66571904Y-40142438D01*
X66571904Y-40142438D02*
X66619523Y-40190057D01*
X66619523Y-40190057D02*
X66667142Y-40285295D01*
X66667142Y-40285295D02*
X66667142Y-40428152D01*
X66667142Y-40428152D02*
X66619523Y-40523390D01*
X66619523Y-40523390D02*
X66571904Y-40571009D01*
X66571904Y-40571009D02*
X66476666Y-40618628D01*
X66476666Y-40618628D02*
X66095714Y-40618628D01*
X67619523Y-41094819D02*
X67048095Y-41094819D01*
X67333809Y-41094819D02*
X67333809Y-40094819D01*
X67333809Y-40094819D02*
X67238571Y-40237676D01*
X67238571Y-40237676D02*
X67143333Y-40332914D01*
X67143333Y-40332914D02*
X67048095Y-40380533D01*
X68190952Y-40523390D02*
X68095714Y-40475771D01*
X68095714Y-40475771D02*
X68048095Y-40428152D01*
X68048095Y-40428152D02*
X68000476Y-40332914D01*
X68000476Y-40332914D02*
X68000476Y-40285295D01*
X68000476Y-40285295D02*
X68048095Y-40190057D01*
X68048095Y-40190057D02*
X68095714Y-40142438D01*
X68095714Y-40142438D02*
X68190952Y-40094819D01*
X68190952Y-40094819D02*
X68381428Y-40094819D01*
X68381428Y-40094819D02*
X68476666Y-40142438D01*
X68476666Y-40142438D02*
X68524285Y-40190057D01*
X68524285Y-40190057D02*
X68571904Y-40285295D01*
X68571904Y-40285295D02*
X68571904Y-40332914D01*
X68571904Y-40332914D02*
X68524285Y-40428152D01*
X68524285Y-40428152D02*
X68476666Y-40475771D01*
X68476666Y-40475771D02*
X68381428Y-40523390D01*
X68381428Y-40523390D02*
X68190952Y-40523390D01*
X68190952Y-40523390D02*
X68095714Y-40571009D01*
X68095714Y-40571009D02*
X68048095Y-40618628D01*
X68048095Y-40618628D02*
X68000476Y-40713866D01*
X68000476Y-40713866D02*
X68000476Y-40904342D01*
X68000476Y-40904342D02*
X68048095Y-40999580D01*
X68048095Y-40999580D02*
X68095714Y-41047200D01*
X68095714Y-41047200D02*
X68190952Y-41094819D01*
X68190952Y-41094819D02*
X68381428Y-41094819D01*
X68381428Y-41094819D02*
X68476666Y-41047200D01*
X68476666Y-41047200D02*
X68524285Y-40999580D01*
X68524285Y-40999580D02*
X68571904Y-40904342D01*
X68571904Y-40904342D02*
X68571904Y-40713866D01*
X68571904Y-40713866D02*
X68524285Y-40618628D01*
X68524285Y-40618628D02*
X68476666Y-40571009D01*
X68476666Y-40571009D02*
X68381428Y-40523390D01*
X46214819Y-45092857D02*
X45738628Y-45426190D01*
X46214819Y-45664285D02*
X45214819Y-45664285D01*
X45214819Y-45664285D02*
X45214819Y-45283333D01*
X45214819Y-45283333D02*
X45262438Y-45188095D01*
X45262438Y-45188095D02*
X45310057Y-45140476D01*
X45310057Y-45140476D02*
X45405295Y-45092857D01*
X45405295Y-45092857D02*
X45548152Y-45092857D01*
X45548152Y-45092857D02*
X45643390Y-45140476D01*
X45643390Y-45140476D02*
X45691009Y-45188095D01*
X45691009Y-45188095D02*
X45738628Y-45283333D01*
X45738628Y-45283333D02*
X45738628Y-45664285D01*
X46214819Y-44140476D02*
X46214819Y-44711904D01*
X46214819Y-44426190D02*
X45214819Y-44426190D01*
X45214819Y-44426190D02*
X45357676Y-44521428D01*
X45357676Y-44521428D02*
X45452914Y-44616666D01*
X45452914Y-44616666D02*
X45500533Y-44711904D01*
X45214819Y-43807142D02*
X45214819Y-43140476D01*
X45214819Y-43140476D02*
X46214819Y-43569047D01*
X40777319Y-45092857D02*
X40301128Y-45426190D01*
X40777319Y-45664285D02*
X39777319Y-45664285D01*
X39777319Y-45664285D02*
X39777319Y-45283333D01*
X39777319Y-45283333D02*
X39824938Y-45188095D01*
X39824938Y-45188095D02*
X39872557Y-45140476D01*
X39872557Y-45140476D02*
X39967795Y-45092857D01*
X39967795Y-45092857D02*
X40110652Y-45092857D01*
X40110652Y-45092857D02*
X40205890Y-45140476D01*
X40205890Y-45140476D02*
X40253509Y-45188095D01*
X40253509Y-45188095D02*
X40301128Y-45283333D01*
X40301128Y-45283333D02*
X40301128Y-45664285D01*
X40777319Y-44140476D02*
X40777319Y-44711904D01*
X40777319Y-44426190D02*
X39777319Y-44426190D01*
X39777319Y-44426190D02*
X39920176Y-44521428D01*
X39920176Y-44521428D02*
X40015414Y-44616666D01*
X40015414Y-44616666D02*
X40063033Y-44711904D01*
X39777319Y-43283333D02*
X39777319Y-43473809D01*
X39777319Y-43473809D02*
X39824938Y-43569047D01*
X39824938Y-43569047D02*
X39872557Y-43616666D01*
X39872557Y-43616666D02*
X40015414Y-43711904D01*
X40015414Y-43711904D02*
X40205890Y-43759523D01*
X40205890Y-43759523D02*
X40586842Y-43759523D01*
X40586842Y-43759523D02*
X40682080Y-43711904D01*
X40682080Y-43711904D02*
X40729700Y-43664285D01*
X40729700Y-43664285D02*
X40777319Y-43569047D01*
X40777319Y-43569047D02*
X40777319Y-43378571D01*
X40777319Y-43378571D02*
X40729700Y-43283333D01*
X40729700Y-43283333D02*
X40682080Y-43235714D01*
X40682080Y-43235714D02*
X40586842Y-43188095D01*
X40586842Y-43188095D02*
X40348747Y-43188095D01*
X40348747Y-43188095D02*
X40253509Y-43235714D01*
X40253509Y-43235714D02*
X40205890Y-43283333D01*
X40205890Y-43283333D02*
X40158271Y-43378571D01*
X40158271Y-43378571D02*
X40158271Y-43569047D01*
X40158271Y-43569047D02*
X40205890Y-43664285D01*
X40205890Y-43664285D02*
X40253509Y-43711904D01*
X40253509Y-43711904D02*
X40348747Y-43759523D01*
X30692319Y-45092857D02*
X30216128Y-45426190D01*
X30692319Y-45664285D02*
X29692319Y-45664285D01*
X29692319Y-45664285D02*
X29692319Y-45283333D01*
X29692319Y-45283333D02*
X29739938Y-45188095D01*
X29739938Y-45188095D02*
X29787557Y-45140476D01*
X29787557Y-45140476D02*
X29882795Y-45092857D01*
X29882795Y-45092857D02*
X30025652Y-45092857D01*
X30025652Y-45092857D02*
X30120890Y-45140476D01*
X30120890Y-45140476D02*
X30168509Y-45188095D01*
X30168509Y-45188095D02*
X30216128Y-45283333D01*
X30216128Y-45283333D02*
X30216128Y-45664285D01*
X30692319Y-44140476D02*
X30692319Y-44711904D01*
X30692319Y-44426190D02*
X29692319Y-44426190D01*
X29692319Y-44426190D02*
X29835176Y-44521428D01*
X29835176Y-44521428D02*
X29930414Y-44616666D01*
X29930414Y-44616666D02*
X29978033Y-44711904D01*
X29787557Y-43759523D02*
X29739938Y-43711904D01*
X29739938Y-43711904D02*
X29692319Y-43616666D01*
X29692319Y-43616666D02*
X29692319Y-43378571D01*
X29692319Y-43378571D02*
X29739938Y-43283333D01*
X29739938Y-43283333D02*
X29787557Y-43235714D01*
X29787557Y-43235714D02*
X29882795Y-43188095D01*
X29882795Y-43188095D02*
X29978033Y-43188095D01*
X29978033Y-43188095D02*
X30120890Y-43235714D01*
X30120890Y-43235714D02*
X30692319Y-43807142D01*
X30692319Y-43807142D02*
X30692319Y-43188095D01*
X51924819Y-45092857D02*
X51448628Y-45426190D01*
X51924819Y-45664285D02*
X50924819Y-45664285D01*
X50924819Y-45664285D02*
X50924819Y-45283333D01*
X50924819Y-45283333D02*
X50972438Y-45188095D01*
X50972438Y-45188095D02*
X51020057Y-45140476D01*
X51020057Y-45140476D02*
X51115295Y-45092857D01*
X51115295Y-45092857D02*
X51258152Y-45092857D01*
X51258152Y-45092857D02*
X51353390Y-45140476D01*
X51353390Y-45140476D02*
X51401009Y-45188095D01*
X51401009Y-45188095D02*
X51448628Y-45283333D01*
X51448628Y-45283333D02*
X51448628Y-45664285D01*
X51924819Y-44140476D02*
X51924819Y-44711904D01*
X51924819Y-44426190D02*
X50924819Y-44426190D01*
X50924819Y-44426190D02*
X51067676Y-44521428D01*
X51067676Y-44521428D02*
X51162914Y-44616666D01*
X51162914Y-44616666D02*
X51210533Y-44711904D01*
X51924819Y-43188095D02*
X51924819Y-43759523D01*
X51924819Y-43473809D02*
X50924819Y-43473809D01*
X50924819Y-43473809D02*
X51067676Y-43569047D01*
X51067676Y-43569047D02*
X51162914Y-43664285D01*
X51162914Y-43664285D02*
X51210533Y-43759523D01*
X25254819Y-45092857D02*
X24778628Y-45426190D01*
X25254819Y-45664285D02*
X24254819Y-45664285D01*
X24254819Y-45664285D02*
X24254819Y-45283333D01*
X24254819Y-45283333D02*
X24302438Y-45188095D01*
X24302438Y-45188095D02*
X24350057Y-45140476D01*
X24350057Y-45140476D02*
X24445295Y-45092857D01*
X24445295Y-45092857D02*
X24588152Y-45092857D01*
X24588152Y-45092857D02*
X24683390Y-45140476D01*
X24683390Y-45140476D02*
X24731009Y-45188095D01*
X24731009Y-45188095D02*
X24778628Y-45283333D01*
X24778628Y-45283333D02*
X24778628Y-45664285D01*
X25254819Y-44140476D02*
X25254819Y-44711904D01*
X25254819Y-44426190D02*
X24254819Y-44426190D01*
X24254819Y-44426190D02*
X24397676Y-44521428D01*
X24397676Y-44521428D02*
X24492914Y-44616666D01*
X24492914Y-44616666D02*
X24540533Y-44711904D01*
X24254819Y-43521428D02*
X24254819Y-43426190D01*
X24254819Y-43426190D02*
X24302438Y-43330952D01*
X24302438Y-43330952D02*
X24350057Y-43283333D01*
X24350057Y-43283333D02*
X24445295Y-43235714D01*
X24445295Y-43235714D02*
X24635771Y-43188095D01*
X24635771Y-43188095D02*
X24873866Y-43188095D01*
X24873866Y-43188095D02*
X25064342Y-43235714D01*
X25064342Y-43235714D02*
X25159580Y-43283333D01*
X25159580Y-43283333D02*
X25207200Y-43330952D01*
X25207200Y-43330952D02*
X25254819Y-43426190D01*
X25254819Y-43426190D02*
X25254819Y-43521428D01*
X25254819Y-43521428D02*
X25207200Y-43616666D01*
X25207200Y-43616666D02*
X25159580Y-43664285D01*
X25159580Y-43664285D02*
X25064342Y-43711904D01*
X25064342Y-43711904D02*
X24873866Y-43759523D01*
X24873866Y-43759523D02*
X24635771Y-43759523D01*
X24635771Y-43759523D02*
X24445295Y-43711904D01*
X24445295Y-43711904D02*
X24350057Y-43664285D01*
X24350057Y-43664285D02*
X24302438Y-43616666D01*
X24302438Y-43616666D02*
X24254819Y-43521428D01*
X63354819Y-44616666D02*
X62878628Y-44949999D01*
X63354819Y-45188094D02*
X62354819Y-45188094D01*
X62354819Y-45188094D02*
X62354819Y-44807142D01*
X62354819Y-44807142D02*
X62402438Y-44711904D01*
X62402438Y-44711904D02*
X62450057Y-44664285D01*
X62450057Y-44664285D02*
X62545295Y-44616666D01*
X62545295Y-44616666D02*
X62688152Y-44616666D01*
X62688152Y-44616666D02*
X62783390Y-44664285D01*
X62783390Y-44664285D02*
X62831009Y-44711904D01*
X62831009Y-44711904D02*
X62878628Y-44807142D01*
X62878628Y-44807142D02*
X62878628Y-45188094D01*
X63354819Y-44140475D02*
X63354819Y-43949999D01*
X63354819Y-43949999D02*
X63307200Y-43854761D01*
X63307200Y-43854761D02*
X63259580Y-43807142D01*
X63259580Y-43807142D02*
X63116723Y-43711904D01*
X63116723Y-43711904D02*
X62926247Y-43664285D01*
X62926247Y-43664285D02*
X62545295Y-43664285D01*
X62545295Y-43664285D02*
X62450057Y-43711904D01*
X62450057Y-43711904D02*
X62402438Y-43759523D01*
X62402438Y-43759523D02*
X62354819Y-43854761D01*
X62354819Y-43854761D02*
X62354819Y-44045237D01*
X62354819Y-44045237D02*
X62402438Y-44140475D01*
X62402438Y-44140475D02*
X62450057Y-44188094D01*
X62450057Y-44188094D02*
X62545295Y-44235713D01*
X62545295Y-44235713D02*
X62783390Y-44235713D01*
X62783390Y-44235713D02*
X62878628Y-44188094D01*
X62878628Y-44188094D02*
X62926247Y-44140475D01*
X62926247Y-44140475D02*
X62973866Y-44045237D01*
X62973866Y-44045237D02*
X62973866Y-43854761D01*
X62973866Y-43854761D02*
X62926247Y-43759523D01*
X62926247Y-43759523D02*
X62878628Y-43711904D01*
X62878628Y-43711904D02*
X62783390Y-43664285D01*
X36054819Y-44616666D02*
X35578628Y-44949999D01*
X36054819Y-45188094D02*
X35054819Y-45188094D01*
X35054819Y-45188094D02*
X35054819Y-44807142D01*
X35054819Y-44807142D02*
X35102438Y-44711904D01*
X35102438Y-44711904D02*
X35150057Y-44664285D01*
X35150057Y-44664285D02*
X35245295Y-44616666D01*
X35245295Y-44616666D02*
X35388152Y-44616666D01*
X35388152Y-44616666D02*
X35483390Y-44664285D01*
X35483390Y-44664285D02*
X35531009Y-44711904D01*
X35531009Y-44711904D02*
X35578628Y-44807142D01*
X35578628Y-44807142D02*
X35578628Y-45188094D01*
X35483390Y-44045237D02*
X35435771Y-44140475D01*
X35435771Y-44140475D02*
X35388152Y-44188094D01*
X35388152Y-44188094D02*
X35292914Y-44235713D01*
X35292914Y-44235713D02*
X35245295Y-44235713D01*
X35245295Y-44235713D02*
X35150057Y-44188094D01*
X35150057Y-44188094D02*
X35102438Y-44140475D01*
X35102438Y-44140475D02*
X35054819Y-44045237D01*
X35054819Y-44045237D02*
X35054819Y-43854761D01*
X35054819Y-43854761D02*
X35102438Y-43759523D01*
X35102438Y-43759523D02*
X35150057Y-43711904D01*
X35150057Y-43711904D02*
X35245295Y-43664285D01*
X35245295Y-43664285D02*
X35292914Y-43664285D01*
X35292914Y-43664285D02*
X35388152Y-43711904D01*
X35388152Y-43711904D02*
X35435771Y-43759523D01*
X35435771Y-43759523D02*
X35483390Y-43854761D01*
X35483390Y-43854761D02*
X35483390Y-44045237D01*
X35483390Y-44045237D02*
X35531009Y-44140475D01*
X35531009Y-44140475D02*
X35578628Y-44188094D01*
X35578628Y-44188094D02*
X35673866Y-44235713D01*
X35673866Y-44235713D02*
X35864342Y-44235713D01*
X35864342Y-44235713D02*
X35959580Y-44188094D01*
X35959580Y-44188094D02*
X36007200Y-44140475D01*
X36007200Y-44140475D02*
X36054819Y-44045237D01*
X36054819Y-44045237D02*
X36054819Y-43854761D01*
X36054819Y-43854761D02*
X36007200Y-43759523D01*
X36007200Y-43759523D02*
X35959580Y-43711904D01*
X35959580Y-43711904D02*
X35864342Y-43664285D01*
X35864342Y-43664285D02*
X35673866Y-43664285D01*
X35673866Y-43664285D02*
X35578628Y-43711904D01*
X35578628Y-43711904D02*
X35531009Y-43759523D01*
X35531009Y-43759523D02*
X35483390Y-43854761D01*
X45174819Y-56689523D02*
X45889104Y-56689523D01*
X45889104Y-56689523D02*
X46031961Y-56737142D01*
X46031961Y-56737142D02*
X46127200Y-56832380D01*
X46127200Y-56832380D02*
X46174819Y-56975237D01*
X46174819Y-56975237D02*
X46174819Y-57070475D01*
X46127200Y-56260951D02*
X46174819Y-56118094D01*
X46174819Y-56118094D02*
X46174819Y-55879999D01*
X46174819Y-55879999D02*
X46127200Y-55784761D01*
X46127200Y-55784761D02*
X46079580Y-55737142D01*
X46079580Y-55737142D02*
X45984342Y-55689523D01*
X45984342Y-55689523D02*
X45889104Y-55689523D01*
X45889104Y-55689523D02*
X45793866Y-55737142D01*
X45793866Y-55737142D02*
X45746247Y-55784761D01*
X45746247Y-55784761D02*
X45698628Y-55879999D01*
X45698628Y-55879999D02*
X45651009Y-56070475D01*
X45651009Y-56070475D02*
X45603390Y-56165713D01*
X45603390Y-56165713D02*
X45555771Y-56213332D01*
X45555771Y-56213332D02*
X45460533Y-56260951D01*
X45460533Y-56260951D02*
X45365295Y-56260951D01*
X45365295Y-56260951D02*
X45270057Y-56213332D01*
X45270057Y-56213332D02*
X45222438Y-56165713D01*
X45222438Y-56165713D02*
X45174819Y-56070475D01*
X45174819Y-56070475D02*
X45174819Y-55832380D01*
X45174819Y-55832380D02*
X45222438Y-55689523D01*
X45270057Y-55308570D02*
X45222438Y-55260951D01*
X45222438Y-55260951D02*
X45174819Y-55165713D01*
X45174819Y-55165713D02*
X45174819Y-54927618D01*
X45174819Y-54927618D02*
X45222438Y-54832380D01*
X45222438Y-54832380D02*
X45270057Y-54784761D01*
X45270057Y-54784761D02*
X45365295Y-54737142D01*
X45365295Y-54737142D02*
X45460533Y-54737142D01*
X45460533Y-54737142D02*
X45603390Y-54784761D01*
X45603390Y-54784761D02*
X46174819Y-55356189D01*
X46174819Y-55356189D02*
X46174819Y-54737142D01*
X19774819Y-56689523D02*
X20489104Y-56689523D01*
X20489104Y-56689523D02*
X20631961Y-56737142D01*
X20631961Y-56737142D02*
X20727200Y-56832380D01*
X20727200Y-56832380D02*
X20774819Y-56975237D01*
X20774819Y-56975237D02*
X20774819Y-57070475D01*
X20727200Y-56260951D02*
X20774819Y-56118094D01*
X20774819Y-56118094D02*
X20774819Y-55879999D01*
X20774819Y-55879999D02*
X20727200Y-55784761D01*
X20727200Y-55784761D02*
X20679580Y-55737142D01*
X20679580Y-55737142D02*
X20584342Y-55689523D01*
X20584342Y-55689523D02*
X20489104Y-55689523D01*
X20489104Y-55689523D02*
X20393866Y-55737142D01*
X20393866Y-55737142D02*
X20346247Y-55784761D01*
X20346247Y-55784761D02*
X20298628Y-55879999D01*
X20298628Y-55879999D02*
X20251009Y-56070475D01*
X20251009Y-56070475D02*
X20203390Y-56165713D01*
X20203390Y-56165713D02*
X20155771Y-56213332D01*
X20155771Y-56213332D02*
X20060533Y-56260951D01*
X20060533Y-56260951D02*
X19965295Y-56260951D01*
X19965295Y-56260951D02*
X19870057Y-56213332D01*
X19870057Y-56213332D02*
X19822438Y-56165713D01*
X19822438Y-56165713D02*
X19774819Y-56070475D01*
X19774819Y-56070475D02*
X19774819Y-55832380D01*
X19774819Y-55832380D02*
X19822438Y-55689523D01*
X20774819Y-54737142D02*
X20774819Y-55308570D01*
X20774819Y-55022856D02*
X19774819Y-55022856D01*
X19774819Y-55022856D02*
X19917676Y-55118094D01*
X19917676Y-55118094D02*
X20012914Y-55213332D01*
X20012914Y-55213332D02*
X20060533Y-55308570D01*
X35014819Y-57689523D02*
X35729104Y-57689523D01*
X35729104Y-57689523D02*
X35871961Y-57737142D01*
X35871961Y-57737142D02*
X35967200Y-57832380D01*
X35967200Y-57832380D02*
X36014819Y-57975237D01*
X36014819Y-57975237D02*
X36014819Y-58070475D01*
X36014819Y-57213332D02*
X35014819Y-57213332D01*
X35014819Y-57213332D02*
X35014819Y-56832380D01*
X35014819Y-56832380D02*
X35062438Y-56737142D01*
X35062438Y-56737142D02*
X35110057Y-56689523D01*
X35110057Y-56689523D02*
X35205295Y-56641904D01*
X35205295Y-56641904D02*
X35348152Y-56641904D01*
X35348152Y-56641904D02*
X35443390Y-56689523D01*
X35443390Y-56689523D02*
X35491009Y-56737142D01*
X35491009Y-56737142D02*
X35538628Y-56832380D01*
X35538628Y-56832380D02*
X35538628Y-57213332D01*
X35967200Y-56260951D02*
X36014819Y-56118094D01*
X36014819Y-56118094D02*
X36014819Y-55879999D01*
X36014819Y-55879999D02*
X35967200Y-55784761D01*
X35967200Y-55784761D02*
X35919580Y-55737142D01*
X35919580Y-55737142D02*
X35824342Y-55689523D01*
X35824342Y-55689523D02*
X35729104Y-55689523D01*
X35729104Y-55689523D02*
X35633866Y-55737142D01*
X35633866Y-55737142D02*
X35586247Y-55784761D01*
X35586247Y-55784761D02*
X35538628Y-55879999D01*
X35538628Y-55879999D02*
X35491009Y-56070475D01*
X35491009Y-56070475D02*
X35443390Y-56165713D01*
X35443390Y-56165713D02*
X35395771Y-56213332D01*
X35395771Y-56213332D02*
X35300533Y-56260951D01*
X35300533Y-56260951D02*
X35205295Y-56260951D01*
X35205295Y-56260951D02*
X35110057Y-56213332D01*
X35110057Y-56213332D02*
X35062438Y-56165713D01*
X35062438Y-56165713D02*
X35014819Y-56070475D01*
X35014819Y-56070475D02*
X35014819Y-55832380D01*
X35014819Y-55832380D02*
X35062438Y-55689523D01*
X35062438Y-54737142D02*
X35014819Y-54832380D01*
X35014819Y-54832380D02*
X35014819Y-54975237D01*
X35014819Y-54975237D02*
X35062438Y-55118094D01*
X35062438Y-55118094D02*
X35157676Y-55213332D01*
X35157676Y-55213332D02*
X35252914Y-55260951D01*
X35252914Y-55260951D02*
X35443390Y-55308570D01*
X35443390Y-55308570D02*
X35586247Y-55308570D01*
X35586247Y-55308570D02*
X35776723Y-55260951D01*
X35776723Y-55260951D02*
X35871961Y-55213332D01*
X35871961Y-55213332D02*
X35967200Y-55118094D01*
X35967200Y-55118094D02*
X36014819Y-54975237D01*
X36014819Y-54975237D02*
X36014819Y-54879999D01*
X36014819Y-54879999D02*
X35967200Y-54737142D01*
X35967200Y-54737142D02*
X35919580Y-54689523D01*
X35919580Y-54689523D02*
X35586247Y-54689523D01*
X35586247Y-54689523D02*
X35586247Y-54879999D01*
X36014819Y-53737142D02*
X36014819Y-54308570D01*
X36014819Y-54022856D02*
X35014819Y-54022856D01*
X35014819Y-54022856D02*
X35157676Y-54118094D01*
X35157676Y-54118094D02*
X35252914Y-54213332D01*
X35252914Y-54213332D02*
X35300533Y-54308570D01*
X60414819Y-57641904D02*
X61129104Y-57641904D01*
X61129104Y-57641904D02*
X61271961Y-57689523D01*
X61271961Y-57689523D02*
X61367200Y-57784761D01*
X61367200Y-57784761D02*
X61414819Y-57927618D01*
X61414819Y-57927618D02*
X61414819Y-58022856D01*
X60414819Y-56975237D02*
X60414819Y-56784761D01*
X60414819Y-56784761D02*
X60462438Y-56689523D01*
X60462438Y-56689523D02*
X60557676Y-56594285D01*
X60557676Y-56594285D02*
X60748152Y-56546666D01*
X60748152Y-56546666D02*
X61081485Y-56546666D01*
X61081485Y-56546666D02*
X61271961Y-56594285D01*
X61271961Y-56594285D02*
X61367200Y-56689523D01*
X61367200Y-56689523D02*
X61414819Y-56784761D01*
X61414819Y-56784761D02*
X61414819Y-56975237D01*
X61414819Y-56975237D02*
X61367200Y-57070475D01*
X61367200Y-57070475D02*
X61271961Y-57165713D01*
X61271961Y-57165713D02*
X61081485Y-57213332D01*
X61081485Y-57213332D02*
X60748152Y-57213332D01*
X60748152Y-57213332D02*
X60557676Y-57165713D01*
X60557676Y-57165713D02*
X60462438Y-57070475D01*
X60462438Y-57070475D02*
X60414819Y-56975237D01*
X60414819Y-56118094D02*
X61224342Y-56118094D01*
X61224342Y-56118094D02*
X61319580Y-56070475D01*
X61319580Y-56070475D02*
X61367200Y-56022856D01*
X61367200Y-56022856D02*
X61414819Y-55927618D01*
X61414819Y-55927618D02*
X61414819Y-55737142D01*
X61414819Y-55737142D02*
X61367200Y-55641904D01*
X61367200Y-55641904D02*
X61319580Y-55594285D01*
X61319580Y-55594285D02*
X61224342Y-55546666D01*
X61224342Y-55546666D02*
X60414819Y-55546666D01*
X60414819Y-55213332D02*
X60414819Y-54641904D01*
X61414819Y-54927618D02*
X60414819Y-54927618D01*
X61414819Y-53784761D02*
X61414819Y-54356189D01*
X61414819Y-54070475D02*
X60414819Y-54070475D01*
X60414819Y-54070475D02*
X60557676Y-54165713D01*
X60557676Y-54165713D02*
X60652914Y-54260951D01*
X60652914Y-54260951D02*
X60700533Y-54356189D01*
X26059047Y-30569819D02*
X26059047Y-31284104D01*
X26059047Y-31284104D02*
X26011428Y-31426961D01*
X26011428Y-31426961D02*
X25916190Y-31522200D01*
X25916190Y-31522200D02*
X25773333Y-31569819D01*
X25773333Y-31569819D02*
X25678095Y-31569819D01*
X26725714Y-30569819D02*
X26916190Y-30569819D01*
X26916190Y-30569819D02*
X27011428Y-30617438D01*
X27011428Y-30617438D02*
X27106666Y-30712676D01*
X27106666Y-30712676D02*
X27154285Y-30903152D01*
X27154285Y-30903152D02*
X27154285Y-31236485D01*
X27154285Y-31236485D02*
X27106666Y-31426961D01*
X27106666Y-31426961D02*
X27011428Y-31522200D01*
X27011428Y-31522200D02*
X26916190Y-31569819D01*
X26916190Y-31569819D02*
X26725714Y-31569819D01*
X26725714Y-31569819D02*
X26630476Y-31522200D01*
X26630476Y-31522200D02*
X26535238Y-31426961D01*
X26535238Y-31426961D02*
X26487619Y-31236485D01*
X26487619Y-31236485D02*
X26487619Y-30903152D01*
X26487619Y-30903152D02*
X26535238Y-30712676D01*
X26535238Y-30712676D02*
X26630476Y-30617438D01*
X26630476Y-30617438D02*
X26725714Y-30569819D01*
X27582857Y-31569819D02*
X27582857Y-30569819D01*
X27582857Y-30569819D02*
X27963809Y-30569819D01*
X27963809Y-30569819D02*
X28059047Y-30617438D01*
X28059047Y-30617438D02*
X28106666Y-30665057D01*
X28106666Y-30665057D02*
X28154285Y-30760295D01*
X28154285Y-30760295D02*
X28154285Y-30903152D01*
X28154285Y-30903152D02*
X28106666Y-30998390D01*
X28106666Y-30998390D02*
X28059047Y-31046009D01*
X28059047Y-31046009D02*
X27963809Y-31093628D01*
X27963809Y-31093628D02*
X27582857Y-31093628D01*
X28582857Y-31569819D02*
X28582857Y-30569819D01*
X28582857Y-30569819D02*
X29154285Y-31569819D01*
X29154285Y-31569819D02*
X29154285Y-30569819D01*
X30154285Y-31569819D02*
X29582857Y-31569819D01*
X29868571Y-31569819D02*
X29868571Y-30569819D01*
X29868571Y-30569819D02*
X29773333Y-30712676D01*
X29773333Y-30712676D02*
X29678095Y-30807914D01*
X29678095Y-30807914D02*
X29582857Y-30855533D01*
X57222142Y-29827080D02*
X57174523Y-29874700D01*
X57174523Y-29874700D02*
X57031666Y-29922319D01*
X57031666Y-29922319D02*
X56936428Y-29922319D01*
X56936428Y-29922319D02*
X56793571Y-29874700D01*
X56793571Y-29874700D02*
X56698333Y-29779461D01*
X56698333Y-29779461D02*
X56650714Y-29684223D01*
X56650714Y-29684223D02*
X56603095Y-29493747D01*
X56603095Y-29493747D02*
X56603095Y-29350890D01*
X56603095Y-29350890D02*
X56650714Y-29160414D01*
X56650714Y-29160414D02*
X56698333Y-29065176D01*
X56698333Y-29065176D02*
X56793571Y-28969938D01*
X56793571Y-28969938D02*
X56936428Y-28922319D01*
X56936428Y-28922319D02*
X57031666Y-28922319D01*
X57031666Y-28922319D02*
X57174523Y-28969938D01*
X57174523Y-28969938D02*
X57222142Y-29017557D01*
X58174523Y-29922319D02*
X57603095Y-29922319D01*
X57888809Y-29922319D02*
X57888809Y-28922319D01*
X57888809Y-28922319D02*
X57793571Y-29065176D01*
X57793571Y-29065176D02*
X57698333Y-29160414D01*
X57698333Y-29160414D02*
X57603095Y-29208033D01*
X59079285Y-28922319D02*
X58603095Y-28922319D01*
X58603095Y-28922319D02*
X58555476Y-29398509D01*
X58555476Y-29398509D02*
X58603095Y-29350890D01*
X58603095Y-29350890D02*
X58698333Y-29303271D01*
X58698333Y-29303271D02*
X58936428Y-29303271D01*
X58936428Y-29303271D02*
X59031666Y-29350890D01*
X59031666Y-29350890D02*
X59079285Y-29398509D01*
X59079285Y-29398509D02*
X59126904Y-29493747D01*
X59126904Y-29493747D02*
X59126904Y-29731842D01*
X59126904Y-29731842D02*
X59079285Y-29827080D01*
X59079285Y-29827080D02*
X59031666Y-29874700D01*
X59031666Y-29874700D02*
X58936428Y-29922319D01*
X58936428Y-29922319D02*
X58698333Y-29922319D01*
X58698333Y-29922319D02*
X58603095Y-29874700D01*
X58603095Y-29874700D02*
X58555476Y-29827080D01*
X57222142Y-36177080D02*
X57174523Y-36224700D01*
X57174523Y-36224700D02*
X57031666Y-36272319D01*
X57031666Y-36272319D02*
X56936428Y-36272319D01*
X56936428Y-36272319D02*
X56793571Y-36224700D01*
X56793571Y-36224700D02*
X56698333Y-36129461D01*
X56698333Y-36129461D02*
X56650714Y-36034223D01*
X56650714Y-36034223D02*
X56603095Y-35843747D01*
X56603095Y-35843747D02*
X56603095Y-35700890D01*
X56603095Y-35700890D02*
X56650714Y-35510414D01*
X56650714Y-35510414D02*
X56698333Y-35415176D01*
X56698333Y-35415176D02*
X56793571Y-35319938D01*
X56793571Y-35319938D02*
X56936428Y-35272319D01*
X56936428Y-35272319D02*
X57031666Y-35272319D01*
X57031666Y-35272319D02*
X57174523Y-35319938D01*
X57174523Y-35319938D02*
X57222142Y-35367557D01*
X58174523Y-36272319D02*
X57603095Y-36272319D01*
X57888809Y-36272319D02*
X57888809Y-35272319D01*
X57888809Y-35272319D02*
X57793571Y-35415176D01*
X57793571Y-35415176D02*
X57698333Y-35510414D01*
X57698333Y-35510414D02*
X57603095Y-35558033D01*
X59031666Y-35605652D02*
X59031666Y-36272319D01*
X58793571Y-35224700D02*
X58555476Y-35938985D01*
X58555476Y-35938985D02*
X59174523Y-35938985D01*
X70517142Y-42269580D02*
X70469523Y-42317200D01*
X70469523Y-42317200D02*
X70326666Y-42364819D01*
X70326666Y-42364819D02*
X70231428Y-42364819D01*
X70231428Y-42364819D02*
X70088571Y-42317200D01*
X70088571Y-42317200D02*
X69993333Y-42221961D01*
X69993333Y-42221961D02*
X69945714Y-42126723D01*
X69945714Y-42126723D02*
X69898095Y-41936247D01*
X69898095Y-41936247D02*
X69898095Y-41793390D01*
X69898095Y-41793390D02*
X69945714Y-41602914D01*
X69945714Y-41602914D02*
X69993333Y-41507676D01*
X69993333Y-41507676D02*
X70088571Y-41412438D01*
X70088571Y-41412438D02*
X70231428Y-41364819D01*
X70231428Y-41364819D02*
X70326666Y-41364819D01*
X70326666Y-41364819D02*
X70469523Y-41412438D01*
X70469523Y-41412438D02*
X70517142Y-41460057D01*
X71469523Y-42364819D02*
X70898095Y-42364819D01*
X71183809Y-42364819D02*
X71183809Y-41364819D01*
X71183809Y-41364819D02*
X71088571Y-41507676D01*
X71088571Y-41507676D02*
X70993333Y-41602914D01*
X70993333Y-41602914D02*
X70898095Y-41650533D01*
X71802857Y-41364819D02*
X72421904Y-41364819D01*
X72421904Y-41364819D02*
X72088571Y-41745771D01*
X72088571Y-41745771D02*
X72231428Y-41745771D01*
X72231428Y-41745771D02*
X72326666Y-41793390D01*
X72326666Y-41793390D02*
X72374285Y-41841009D01*
X72374285Y-41841009D02*
X72421904Y-41936247D01*
X72421904Y-41936247D02*
X72421904Y-42174342D01*
X72421904Y-42174342D02*
X72374285Y-42269580D01*
X72374285Y-42269580D02*
X72326666Y-42317200D01*
X72326666Y-42317200D02*
X72231428Y-42364819D01*
X72231428Y-42364819D02*
X71945714Y-42364819D01*
X71945714Y-42364819D02*
X71850476Y-42317200D01*
X71850476Y-42317200D02*
X71802857Y-42269580D01*
X70477142Y-23219580D02*
X70429523Y-23267200D01*
X70429523Y-23267200D02*
X70286666Y-23314819D01*
X70286666Y-23314819D02*
X70191428Y-23314819D01*
X70191428Y-23314819D02*
X70048571Y-23267200D01*
X70048571Y-23267200D02*
X69953333Y-23171961D01*
X69953333Y-23171961D02*
X69905714Y-23076723D01*
X69905714Y-23076723D02*
X69858095Y-22886247D01*
X69858095Y-22886247D02*
X69858095Y-22743390D01*
X69858095Y-22743390D02*
X69905714Y-22552914D01*
X69905714Y-22552914D02*
X69953333Y-22457676D01*
X69953333Y-22457676D02*
X70048571Y-22362438D01*
X70048571Y-22362438D02*
X70191428Y-22314819D01*
X70191428Y-22314819D02*
X70286666Y-22314819D01*
X70286666Y-22314819D02*
X70429523Y-22362438D01*
X70429523Y-22362438D02*
X70477142Y-22410057D01*
X71429523Y-23314819D02*
X70858095Y-23314819D01*
X71143809Y-23314819D02*
X71143809Y-22314819D01*
X71143809Y-22314819D02*
X71048571Y-22457676D01*
X71048571Y-22457676D02*
X70953333Y-22552914D01*
X70953333Y-22552914D02*
X70858095Y-22600533D01*
X72381904Y-23314819D02*
X71810476Y-23314819D01*
X72096190Y-23314819D02*
X72096190Y-22314819D01*
X72096190Y-22314819D02*
X72000952Y-22457676D01*
X72000952Y-22457676D02*
X71905714Y-22552914D01*
X71905714Y-22552914D02*
X71810476Y-22600533D01*
X65873333Y-34649580D02*
X65825714Y-34697200D01*
X65825714Y-34697200D02*
X65682857Y-34744819D01*
X65682857Y-34744819D02*
X65587619Y-34744819D01*
X65587619Y-34744819D02*
X65444762Y-34697200D01*
X65444762Y-34697200D02*
X65349524Y-34601961D01*
X65349524Y-34601961D02*
X65301905Y-34506723D01*
X65301905Y-34506723D02*
X65254286Y-34316247D01*
X65254286Y-34316247D02*
X65254286Y-34173390D01*
X65254286Y-34173390D02*
X65301905Y-33982914D01*
X65301905Y-33982914D02*
X65349524Y-33887676D01*
X65349524Y-33887676D02*
X65444762Y-33792438D01*
X65444762Y-33792438D02*
X65587619Y-33744819D01*
X65587619Y-33744819D02*
X65682857Y-33744819D01*
X65682857Y-33744819D02*
X65825714Y-33792438D01*
X65825714Y-33792438D02*
X65873333Y-33840057D01*
X66349524Y-34744819D02*
X66540000Y-34744819D01*
X66540000Y-34744819D02*
X66635238Y-34697200D01*
X66635238Y-34697200D02*
X66682857Y-34649580D01*
X66682857Y-34649580D02*
X66778095Y-34506723D01*
X66778095Y-34506723D02*
X66825714Y-34316247D01*
X66825714Y-34316247D02*
X66825714Y-33935295D01*
X66825714Y-33935295D02*
X66778095Y-33840057D01*
X66778095Y-33840057D02*
X66730476Y-33792438D01*
X66730476Y-33792438D02*
X66635238Y-33744819D01*
X66635238Y-33744819D02*
X66444762Y-33744819D01*
X66444762Y-33744819D02*
X66349524Y-33792438D01*
X66349524Y-33792438D02*
X66301905Y-33840057D01*
X66301905Y-33840057D02*
X66254286Y-33935295D01*
X66254286Y-33935295D02*
X66254286Y-34173390D01*
X66254286Y-34173390D02*
X66301905Y-34268628D01*
X66301905Y-34268628D02*
X66349524Y-34316247D01*
X66349524Y-34316247D02*
X66444762Y-34363866D01*
X66444762Y-34363866D02*
X66635238Y-34363866D01*
X66635238Y-34363866D02*
X66730476Y-34316247D01*
X66730476Y-34316247D02*
X66778095Y-34268628D01*
X66778095Y-34268628D02*
X66825714Y-34173390D01*
X46119580Y-47156666D02*
X46167200Y-47204285D01*
X46167200Y-47204285D02*
X46214819Y-47347142D01*
X46214819Y-47347142D02*
X46214819Y-47442380D01*
X46214819Y-47442380D02*
X46167200Y-47585237D01*
X46167200Y-47585237D02*
X46071961Y-47680475D01*
X46071961Y-47680475D02*
X45976723Y-47728094D01*
X45976723Y-47728094D02*
X45786247Y-47775713D01*
X45786247Y-47775713D02*
X45643390Y-47775713D01*
X45643390Y-47775713D02*
X45452914Y-47728094D01*
X45452914Y-47728094D02*
X45357676Y-47680475D01*
X45357676Y-47680475D02*
X45262438Y-47585237D01*
X45262438Y-47585237D02*
X45214819Y-47442380D01*
X45214819Y-47442380D02*
X45214819Y-47347142D01*
X45214819Y-47347142D02*
X45262438Y-47204285D01*
X45262438Y-47204285D02*
X45310057Y-47156666D01*
X45643390Y-46585237D02*
X45595771Y-46680475D01*
X45595771Y-46680475D02*
X45548152Y-46728094D01*
X45548152Y-46728094D02*
X45452914Y-46775713D01*
X45452914Y-46775713D02*
X45405295Y-46775713D01*
X45405295Y-46775713D02*
X45310057Y-46728094D01*
X45310057Y-46728094D02*
X45262438Y-46680475D01*
X45262438Y-46680475D02*
X45214819Y-46585237D01*
X45214819Y-46585237D02*
X45214819Y-46394761D01*
X45214819Y-46394761D02*
X45262438Y-46299523D01*
X45262438Y-46299523D02*
X45310057Y-46251904D01*
X45310057Y-46251904D02*
X45405295Y-46204285D01*
X45405295Y-46204285D02*
X45452914Y-46204285D01*
X45452914Y-46204285D02*
X45548152Y-46251904D01*
X45548152Y-46251904D02*
X45595771Y-46299523D01*
X45595771Y-46299523D02*
X45643390Y-46394761D01*
X45643390Y-46394761D02*
X45643390Y-46585237D01*
X45643390Y-46585237D02*
X45691009Y-46680475D01*
X45691009Y-46680475D02*
X45738628Y-46728094D01*
X45738628Y-46728094D02*
X45833866Y-46775713D01*
X45833866Y-46775713D02*
X46024342Y-46775713D01*
X46024342Y-46775713D02*
X46119580Y-46728094D01*
X46119580Y-46728094D02*
X46167200Y-46680475D01*
X46167200Y-46680475D02*
X46214819Y-46585237D01*
X46214819Y-46585237D02*
X46214819Y-46394761D01*
X46214819Y-46394761D02*
X46167200Y-46299523D01*
X46167200Y-46299523D02*
X46119580Y-46251904D01*
X46119580Y-46251904D02*
X46024342Y-46204285D01*
X46024342Y-46204285D02*
X45833866Y-46204285D01*
X45833866Y-46204285D02*
X45738628Y-46251904D01*
X45738628Y-46251904D02*
X45691009Y-46299523D01*
X45691009Y-46299523D02*
X45643390Y-46394761D01*
X40719580Y-47156666D02*
X40767200Y-47204285D01*
X40767200Y-47204285D02*
X40814819Y-47347142D01*
X40814819Y-47347142D02*
X40814819Y-47442380D01*
X40814819Y-47442380D02*
X40767200Y-47585237D01*
X40767200Y-47585237D02*
X40671961Y-47680475D01*
X40671961Y-47680475D02*
X40576723Y-47728094D01*
X40576723Y-47728094D02*
X40386247Y-47775713D01*
X40386247Y-47775713D02*
X40243390Y-47775713D01*
X40243390Y-47775713D02*
X40052914Y-47728094D01*
X40052914Y-47728094D02*
X39957676Y-47680475D01*
X39957676Y-47680475D02*
X39862438Y-47585237D01*
X39862438Y-47585237D02*
X39814819Y-47442380D01*
X39814819Y-47442380D02*
X39814819Y-47347142D01*
X39814819Y-47347142D02*
X39862438Y-47204285D01*
X39862438Y-47204285D02*
X39910057Y-47156666D01*
X39814819Y-46823332D02*
X39814819Y-46156666D01*
X39814819Y-46156666D02*
X40814819Y-46585237D01*
X51829580Y-47156666D02*
X51877200Y-47204285D01*
X51877200Y-47204285D02*
X51924819Y-47347142D01*
X51924819Y-47347142D02*
X51924819Y-47442380D01*
X51924819Y-47442380D02*
X51877200Y-47585237D01*
X51877200Y-47585237D02*
X51781961Y-47680475D01*
X51781961Y-47680475D02*
X51686723Y-47728094D01*
X51686723Y-47728094D02*
X51496247Y-47775713D01*
X51496247Y-47775713D02*
X51353390Y-47775713D01*
X51353390Y-47775713D02*
X51162914Y-47728094D01*
X51162914Y-47728094D02*
X51067676Y-47680475D01*
X51067676Y-47680475D02*
X50972438Y-47585237D01*
X50972438Y-47585237D02*
X50924819Y-47442380D01*
X50924819Y-47442380D02*
X50924819Y-47347142D01*
X50924819Y-47347142D02*
X50972438Y-47204285D01*
X50972438Y-47204285D02*
X51020057Y-47156666D01*
X50924819Y-46299523D02*
X50924819Y-46489999D01*
X50924819Y-46489999D02*
X50972438Y-46585237D01*
X50972438Y-46585237D02*
X51020057Y-46632856D01*
X51020057Y-46632856D02*
X51162914Y-46728094D01*
X51162914Y-46728094D02*
X51353390Y-46775713D01*
X51353390Y-46775713D02*
X51734342Y-46775713D01*
X51734342Y-46775713D02*
X51829580Y-46728094D01*
X51829580Y-46728094D02*
X51877200Y-46680475D01*
X51877200Y-46680475D02*
X51924819Y-46585237D01*
X51924819Y-46585237D02*
X51924819Y-46394761D01*
X51924819Y-46394761D02*
X51877200Y-46299523D01*
X51877200Y-46299523D02*
X51829580Y-46251904D01*
X51829580Y-46251904D02*
X51734342Y-46204285D01*
X51734342Y-46204285D02*
X51496247Y-46204285D01*
X51496247Y-46204285D02*
X51401009Y-46251904D01*
X51401009Y-46251904D02*
X51353390Y-46299523D01*
X51353390Y-46299523D02*
X51305771Y-46394761D01*
X51305771Y-46394761D02*
X51305771Y-46585237D01*
X51305771Y-46585237D02*
X51353390Y-46680475D01*
X51353390Y-46680475D02*
X51401009Y-46728094D01*
X51401009Y-46728094D02*
X51496247Y-46775713D01*
X25159580Y-47156666D02*
X25207200Y-47204285D01*
X25207200Y-47204285D02*
X25254819Y-47347142D01*
X25254819Y-47347142D02*
X25254819Y-47442380D01*
X25254819Y-47442380D02*
X25207200Y-47585237D01*
X25207200Y-47585237D02*
X25111961Y-47680475D01*
X25111961Y-47680475D02*
X25016723Y-47728094D01*
X25016723Y-47728094D02*
X24826247Y-47775713D01*
X24826247Y-47775713D02*
X24683390Y-47775713D01*
X24683390Y-47775713D02*
X24492914Y-47728094D01*
X24492914Y-47728094D02*
X24397676Y-47680475D01*
X24397676Y-47680475D02*
X24302438Y-47585237D01*
X24302438Y-47585237D02*
X24254819Y-47442380D01*
X24254819Y-47442380D02*
X24254819Y-47347142D01*
X24254819Y-47347142D02*
X24302438Y-47204285D01*
X24302438Y-47204285D02*
X24350057Y-47156666D01*
X24254819Y-46251904D02*
X24254819Y-46728094D01*
X24254819Y-46728094D02*
X24731009Y-46775713D01*
X24731009Y-46775713D02*
X24683390Y-46728094D01*
X24683390Y-46728094D02*
X24635771Y-46632856D01*
X24635771Y-46632856D02*
X24635771Y-46394761D01*
X24635771Y-46394761D02*
X24683390Y-46299523D01*
X24683390Y-46299523D02*
X24731009Y-46251904D01*
X24731009Y-46251904D02*
X24826247Y-46204285D01*
X24826247Y-46204285D02*
X25064342Y-46204285D01*
X25064342Y-46204285D02*
X25159580Y-46251904D01*
X25159580Y-46251904D02*
X25207200Y-46299523D01*
X25207200Y-46299523D02*
X25254819Y-46394761D01*
X25254819Y-46394761D02*
X25254819Y-46632856D01*
X25254819Y-46632856D02*
X25207200Y-46728094D01*
X25207200Y-46728094D02*
X25159580Y-46775713D01*
X63259580Y-47156666D02*
X63307200Y-47204285D01*
X63307200Y-47204285D02*
X63354819Y-47347142D01*
X63354819Y-47347142D02*
X63354819Y-47442380D01*
X63354819Y-47442380D02*
X63307200Y-47585237D01*
X63307200Y-47585237D02*
X63211961Y-47680475D01*
X63211961Y-47680475D02*
X63116723Y-47728094D01*
X63116723Y-47728094D02*
X62926247Y-47775713D01*
X62926247Y-47775713D02*
X62783390Y-47775713D01*
X62783390Y-47775713D02*
X62592914Y-47728094D01*
X62592914Y-47728094D02*
X62497676Y-47680475D01*
X62497676Y-47680475D02*
X62402438Y-47585237D01*
X62402438Y-47585237D02*
X62354819Y-47442380D01*
X62354819Y-47442380D02*
X62354819Y-47347142D01*
X62354819Y-47347142D02*
X62402438Y-47204285D01*
X62402438Y-47204285D02*
X62450057Y-47156666D01*
X62688152Y-46299523D02*
X63354819Y-46299523D01*
X62307200Y-46537618D02*
X63021485Y-46775713D01*
X63021485Y-46775713D02*
X63021485Y-46156666D01*
X35959580Y-47156666D02*
X36007200Y-47204285D01*
X36007200Y-47204285D02*
X36054819Y-47347142D01*
X36054819Y-47347142D02*
X36054819Y-47442380D01*
X36054819Y-47442380D02*
X36007200Y-47585237D01*
X36007200Y-47585237D02*
X35911961Y-47680475D01*
X35911961Y-47680475D02*
X35816723Y-47728094D01*
X35816723Y-47728094D02*
X35626247Y-47775713D01*
X35626247Y-47775713D02*
X35483390Y-47775713D01*
X35483390Y-47775713D02*
X35292914Y-47728094D01*
X35292914Y-47728094D02*
X35197676Y-47680475D01*
X35197676Y-47680475D02*
X35102438Y-47585237D01*
X35102438Y-47585237D02*
X35054819Y-47442380D01*
X35054819Y-47442380D02*
X35054819Y-47347142D01*
X35054819Y-47347142D02*
X35102438Y-47204285D01*
X35102438Y-47204285D02*
X35150057Y-47156666D01*
X35054819Y-46823332D02*
X35054819Y-46204285D01*
X35054819Y-46204285D02*
X35435771Y-46537618D01*
X35435771Y-46537618D02*
X35435771Y-46394761D01*
X35435771Y-46394761D02*
X35483390Y-46299523D01*
X35483390Y-46299523D02*
X35531009Y-46251904D01*
X35531009Y-46251904D02*
X35626247Y-46204285D01*
X35626247Y-46204285D02*
X35864342Y-46204285D01*
X35864342Y-46204285D02*
X35959580Y-46251904D01*
X35959580Y-46251904D02*
X36007200Y-46299523D01*
X36007200Y-46299523D02*
X36054819Y-46394761D01*
X36054819Y-46394761D02*
X36054819Y-46680475D01*
X36054819Y-46680475D02*
X36007200Y-46775713D01*
X36007200Y-46775713D02*
X35959580Y-46823332D01*
X30559580Y-47156666D02*
X30607200Y-47204285D01*
X30607200Y-47204285D02*
X30654819Y-47347142D01*
X30654819Y-47347142D02*
X30654819Y-47442380D01*
X30654819Y-47442380D02*
X30607200Y-47585237D01*
X30607200Y-47585237D02*
X30511961Y-47680475D01*
X30511961Y-47680475D02*
X30416723Y-47728094D01*
X30416723Y-47728094D02*
X30226247Y-47775713D01*
X30226247Y-47775713D02*
X30083390Y-47775713D01*
X30083390Y-47775713D02*
X29892914Y-47728094D01*
X29892914Y-47728094D02*
X29797676Y-47680475D01*
X29797676Y-47680475D02*
X29702438Y-47585237D01*
X29702438Y-47585237D02*
X29654819Y-47442380D01*
X29654819Y-47442380D02*
X29654819Y-47347142D01*
X29654819Y-47347142D02*
X29702438Y-47204285D01*
X29702438Y-47204285D02*
X29750057Y-47156666D01*
X30654819Y-46204285D02*
X30654819Y-46775713D01*
X30654819Y-46489999D02*
X29654819Y-46489999D01*
X29654819Y-46489999D02*
X29797676Y-46585237D01*
X29797676Y-46585237D02*
X29892914Y-46680475D01*
X29892914Y-46680475D02*
X29940533Y-46775713D01*
%TO.C,U4*%
D13*
X24070000Y-26940000D02*
G75*
G02*
X24070000Y-28940000I0J-1000000D01*
G01*
X54670000Y-21480000D02*
X24070000Y-21480000D01*
X24070000Y-21480000D02*
X24070000Y-26940000D01*
X24070000Y-28940000D02*
X24070000Y-34400000D01*
X54670000Y-34400000D02*
X54670000Y-21480000D01*
X24070000Y-34400000D02*
X54670000Y-34400000D01*
%TO.C,R23*%
X73840000Y-32334564D02*
X73840000Y-31880436D01*
X72370000Y-32334564D02*
X72370000Y-31880436D01*
%TO.C,R25*%
X60274564Y-21112500D02*
X59820436Y-21112500D01*
X60274564Y-22582500D02*
X59820436Y-22582500D01*
%TO.C,C2*%
X60311252Y-46255000D02*
X59788748Y-46255000D01*
X60311252Y-47725000D02*
X59788748Y-47725000D01*
%TO.C,R14*%
X59860436Y-45185000D02*
X60314564Y-45185000D01*
X59860436Y-43715000D02*
X60314564Y-43715000D01*
%TO.C,U3*%
X42555000Y-31335000D02*
X42555000Y-27215000D01*
X42620000Y-31335000D02*
X42555000Y-31335000D01*
X51425000Y-31335000D02*
X51360000Y-31335000D01*
X42555000Y-27215000D02*
X42620000Y-27215000D01*
X51360000Y-27215000D02*
X51425000Y-27215000D01*
X51425000Y-27215000D02*
X51425000Y-31335000D01*
X42620000Y-31875000D02*
X42290000Y-32115000D01*
X42290000Y-31635000D01*
X42620000Y-31875000D01*
G36*
X42620000Y-31875000D02*
G01*
X42290000Y-32115000D01*
X42290000Y-31635000D01*
X42620000Y-31875000D01*
G37*
%TO.C,U1*%
X66100000Y-31592500D02*
X66100000Y-27472500D01*
X66195000Y-31592500D02*
X66100000Y-31592500D01*
X71220000Y-31592500D02*
X71125000Y-31592500D01*
X66100000Y-27472500D02*
X66195000Y-27472500D01*
X71125000Y-27472500D02*
X71220000Y-27472500D01*
X71220000Y-27472500D02*
X71220000Y-31592500D01*
X66190000Y-32132500D02*
X65860000Y-32372500D01*
X65860000Y-31892500D01*
X66190000Y-32132500D01*
G36*
X66190000Y-32132500D02*
G01*
X65860000Y-32372500D01*
X65860000Y-31892500D01*
X66190000Y-32132500D01*
G37*
%TO.C,R24*%
X60274564Y-39092500D02*
X59820436Y-39092500D01*
X60274564Y-37622500D02*
X59820436Y-37622500D01*
%TO.C,R22*%
X72370000Y-27154564D02*
X72370000Y-26700436D01*
X73840000Y-27154564D02*
X73840000Y-26700436D01*
%TO.C,R21*%
X64084564Y-22582500D02*
X63630436Y-22582500D01*
X64084564Y-21112500D02*
X63630436Y-21112500D01*
%TO.C,R20*%
X64084564Y-39092500D02*
X63630436Y-39092500D01*
X64084564Y-37622500D02*
X63630436Y-37622500D01*
%TO.C,R19*%
X67894564Y-22582500D02*
X67440436Y-22582500D01*
X67894564Y-21112500D02*
X67440436Y-21112500D01*
%TO.C,R18*%
X67894564Y-39092500D02*
X67440436Y-39092500D01*
X67894564Y-37622500D02*
X67440436Y-37622500D01*
%TO.C,R17*%
X48884564Y-45185000D02*
X48430436Y-45185000D01*
X48884564Y-43715000D02*
X48430436Y-43715000D01*
%TO.C,R16*%
X42635436Y-43715000D02*
X43089564Y-43715000D01*
X42635436Y-45185000D02*
X43089564Y-45185000D01*
%TO.C,R12*%
X32550436Y-43715000D02*
X33004564Y-43715000D01*
X32550436Y-45185000D02*
X33004564Y-45185000D01*
%TO.C,R11*%
X54140436Y-43715000D02*
X54594564Y-43715000D01*
X54140436Y-45185000D02*
X54594564Y-45185000D01*
%TO.C,R10*%
X27470436Y-43715000D02*
X27924564Y-43715000D01*
X27470436Y-45185000D02*
X27924564Y-45185000D01*
%TO.C,R9*%
X65570436Y-43715000D02*
X66024564Y-43715000D01*
X65570436Y-45185000D02*
X66024564Y-45185000D01*
%TO.C,R8*%
X37630436Y-43715000D02*
X38084564Y-43715000D01*
X37630436Y-45185000D02*
X38084564Y-45185000D01*
%TO.C,JS2*%
X46620000Y-55990000D02*
X46620000Y-58490000D01*
X46620000Y-58490000D02*
X49120000Y-58490000D01*
X46920000Y-55880000D02*
X47420000Y-55880000D01*
X46920000Y-56690000D02*
X47920000Y-56690000D01*
X47420000Y-54670000D02*
X59140000Y-54670000D01*
X47420000Y-55880000D02*
X47420000Y-54670000D01*
X47920000Y-56690000D02*
X47920000Y-58190000D01*
X58640000Y-56690000D02*
X58640000Y-58190000D01*
X59140000Y-54670000D02*
X59140000Y-55880000D01*
X59140000Y-55880000D02*
X59640000Y-55880000D01*
X59640000Y-56690000D02*
X58640000Y-56690000D01*
X46920000Y-54170000D02*
X59640000Y-54170000D01*
X59640000Y-58190000D01*
X46920000Y-58190000D01*
X46920000Y-54170000D01*
%TO.C,JS1*%
X21220000Y-55990000D02*
X21220000Y-58490000D01*
X21220000Y-58490000D02*
X23720000Y-58490000D01*
X21520000Y-55880000D02*
X22020000Y-55880000D01*
X21520000Y-56690000D02*
X22520000Y-56690000D01*
X22020000Y-54670000D02*
X33740000Y-54670000D01*
X22020000Y-55880000D02*
X22020000Y-54670000D01*
X22520000Y-56690000D02*
X22520000Y-58190000D01*
X33240000Y-56690000D02*
X33240000Y-58190000D01*
X33740000Y-54670000D02*
X33740000Y-55880000D01*
X33740000Y-55880000D02*
X34240000Y-55880000D01*
X34240000Y-56690000D02*
X33240000Y-56690000D01*
X21520000Y-54170000D02*
X34240000Y-54170000D01*
X34240000Y-58190000D01*
X21520000Y-58190000D01*
X21520000Y-54170000D01*
%TO.C,JPSG1*%
X36460000Y-55990000D02*
X36460000Y-58490000D01*
X36460000Y-58490000D02*
X38960000Y-58490000D01*
X36760000Y-55880000D02*
X37260000Y-55880000D01*
X36760000Y-56690000D02*
X37760000Y-56690000D01*
X37260000Y-54670000D02*
X43980000Y-54670000D01*
X37260000Y-55880000D02*
X37260000Y-54670000D01*
X37760000Y-56690000D02*
X37760000Y-58190000D01*
X43480000Y-56690000D02*
X43480000Y-58190000D01*
X43980000Y-54670000D02*
X43980000Y-55880000D01*
X43980000Y-55880000D02*
X44480000Y-55880000D01*
X44480000Y-56690000D02*
X43480000Y-56690000D01*
X36760000Y-54170000D02*
X44480000Y-54170000D01*
X44480000Y-58190000D01*
X36760000Y-58190000D01*
X36760000Y-54170000D01*
%TO.C,JOUT1*%
X61860000Y-55990000D02*
X61860000Y-58490000D01*
X61860000Y-58490000D02*
X64360000Y-58490000D01*
X62160000Y-55880000D02*
X62660000Y-55880000D01*
X62160000Y-56690000D02*
X63160000Y-56690000D01*
X62660000Y-54670000D02*
X74380000Y-54670000D01*
X62660000Y-55880000D02*
X62660000Y-54670000D01*
X63160000Y-56690000D02*
X63160000Y-58190000D01*
X73880000Y-56690000D02*
X73880000Y-58190000D01*
X74380000Y-54670000D02*
X74380000Y-55880000D01*
X74380000Y-55880000D02*
X74880000Y-55880000D01*
X74880000Y-56690000D02*
X73880000Y-56690000D01*
X62160000Y-54170000D02*
X74880000Y-54170000D01*
X74880000Y-58190000D01*
X62160000Y-58190000D01*
X62160000Y-54170000D01*
%TO.C,JOPN1*%
X24070000Y-36940000D02*
X54670000Y-36940000D01*
X54670000Y-36940000D02*
X54670000Y-24020000D01*
X24070000Y-31480000D02*
X24070000Y-36940000D01*
X24070000Y-24020000D02*
X24070000Y-29480000D01*
X54670000Y-24020000D02*
X24070000Y-24020000D01*
X24070000Y-29480000D02*
G75*
G02*
X24070000Y-31480000I0J-1000000D01*
G01*
%TO.C,C15*%
X64499775Y-28402500D02*
X63999775Y-28402500D01*
X64249775Y-28652500D02*
X64249775Y-28152500D01*
X61695000Y-29507500D02*
X61695000Y-24347500D01*
X61655000Y-29507500D02*
X61655000Y-24347500D01*
X61615000Y-29506500D02*
X61615000Y-24348500D01*
X61575000Y-29504500D02*
X61575000Y-24350500D01*
X61535000Y-29502500D02*
X61535000Y-24352500D01*
X61495000Y-29499500D02*
X61495000Y-24355500D01*
X61455000Y-29496500D02*
X61455000Y-27967500D01*
X61455000Y-25887500D02*
X61455000Y-24358500D01*
X61415000Y-29492500D02*
X61415000Y-27967500D01*
X61415000Y-25887500D02*
X61415000Y-24362500D01*
X61375000Y-29487500D02*
X61375000Y-27967500D01*
X61375000Y-25887500D02*
X61375000Y-24367500D01*
X61335000Y-29482500D02*
X61335000Y-27967500D01*
X61335000Y-25887500D02*
X61335000Y-24372500D01*
X61295000Y-29476500D02*
X61295000Y-27967500D01*
X61295000Y-25887500D02*
X61295000Y-24378500D01*
X61255000Y-29470500D02*
X61255000Y-27967500D01*
X61255000Y-25887500D02*
X61255000Y-24384500D01*
X61215000Y-29463500D02*
X61215000Y-27967500D01*
X61215000Y-25887500D02*
X61215000Y-24391500D01*
X61175000Y-29455500D02*
X61175000Y-27967500D01*
X61175000Y-25887500D02*
X61175000Y-24399500D01*
X61135000Y-29446500D02*
X61135000Y-27967500D01*
X61135000Y-25887500D02*
X61135000Y-24408500D01*
X61095000Y-29437500D02*
X61095000Y-27967500D01*
X61095000Y-25887500D02*
X61095000Y-24417500D01*
X61055000Y-29428500D02*
X61055000Y-27967500D01*
X61055000Y-25887500D02*
X61055000Y-24426500D01*
X61015000Y-29417500D02*
X61015000Y-27967500D01*
X61015000Y-25887500D02*
X61015000Y-24437500D01*
X60975000Y-29406500D02*
X60975000Y-27967500D01*
X60975000Y-25887500D02*
X60975000Y-24448500D01*
X60935000Y-29394500D02*
X60935000Y-27967500D01*
X60935000Y-25887500D02*
X60935000Y-24460500D01*
X60895000Y-29382500D02*
X60895000Y-27967500D01*
X60895000Y-25887500D02*
X60895000Y-24472500D01*
X60855000Y-29369500D02*
X60855000Y-27967500D01*
X60855000Y-25887500D02*
X60855000Y-24485500D01*
X60815000Y-29355500D02*
X60815000Y-27967500D01*
X60815000Y-25887500D02*
X60815000Y-24499500D01*
X60775000Y-29340500D02*
X60775000Y-27967500D01*
X60775000Y-25887500D02*
X60775000Y-24514500D01*
X60735000Y-29325500D02*
X60735000Y-27967500D01*
X60735000Y-25887500D02*
X60735000Y-24529500D01*
X60695000Y-29309500D02*
X60695000Y-27967500D01*
X60695000Y-25887500D02*
X60695000Y-24545500D01*
X60655000Y-29292500D02*
X60655000Y-27967500D01*
X60655000Y-25887500D02*
X60655000Y-24562500D01*
X60615000Y-29274500D02*
X60615000Y-27967500D01*
X60615000Y-25887500D02*
X60615000Y-24580500D01*
X60575000Y-29256500D02*
X60575000Y-27967500D01*
X60575000Y-25887500D02*
X60575000Y-24598500D01*
X60535000Y-29236500D02*
X60535000Y-27967500D01*
X60535000Y-25887500D02*
X60535000Y-24618500D01*
X60495000Y-29216500D02*
X60495000Y-27967500D01*
X60495000Y-25887500D02*
X60495000Y-24638500D01*
X60455000Y-29195500D02*
X60455000Y-27967500D01*
X60455000Y-25887500D02*
X60455000Y-24659500D01*
X60415000Y-29173500D02*
X60415000Y-27967500D01*
X60415000Y-25887500D02*
X60415000Y-24681500D01*
X60375000Y-29150500D02*
X60375000Y-27967500D01*
X60375000Y-25887500D02*
X60375000Y-24704500D01*
X60335000Y-29126500D02*
X60335000Y-27967500D01*
X60335000Y-25887500D02*
X60335000Y-24728500D01*
X60295000Y-29102500D02*
X60295000Y-27967500D01*
X60295000Y-25887500D02*
X60295000Y-24752500D01*
X60255000Y-29076500D02*
X60255000Y-27967500D01*
X60255000Y-25887500D02*
X60255000Y-24778500D01*
X60215000Y-29049500D02*
X60215000Y-27967500D01*
X60215000Y-25887500D02*
X60215000Y-24805500D01*
X60175000Y-29021500D02*
X60175000Y-27967500D01*
X60175000Y-25887500D02*
X60175000Y-24833500D01*
X60135000Y-28992500D02*
X60135000Y-27967500D01*
X60135000Y-25887500D02*
X60135000Y-24862500D01*
X60095000Y-28962500D02*
X60095000Y-27967500D01*
X60095000Y-25887500D02*
X60095000Y-24892500D01*
X60055000Y-28930500D02*
X60055000Y-27967500D01*
X60055000Y-25887500D02*
X60055000Y-24924500D01*
X60015000Y-28897500D02*
X60015000Y-27967500D01*
X60015000Y-25887500D02*
X60015000Y-24957500D01*
X59975000Y-28863500D02*
X59975000Y-27967500D01*
X59975000Y-25887500D02*
X59975000Y-24991500D01*
X59935000Y-28828500D02*
X59935000Y-27967500D01*
X59935000Y-25887500D02*
X59935000Y-25026500D01*
X59895000Y-28791500D02*
X59895000Y-27967500D01*
X59895000Y-25887500D02*
X59895000Y-25063500D01*
X59855000Y-28752500D02*
X59855000Y-27967500D01*
X59855000Y-25887500D02*
X59855000Y-25102500D01*
X59815000Y-28712500D02*
X59815000Y-27967500D01*
X59815000Y-25887500D02*
X59815000Y-25142500D01*
X59775000Y-28670500D02*
X59775000Y-27967500D01*
X59775000Y-25887500D02*
X59775000Y-25184500D01*
X59735000Y-28626500D02*
X59735000Y-27967500D01*
X59735000Y-25887500D02*
X59735000Y-25228500D01*
X59695000Y-28579500D02*
X59695000Y-27967500D01*
X59695000Y-25887500D02*
X59695000Y-25275500D01*
X59655000Y-28531500D02*
X59655000Y-27967500D01*
X59655000Y-25887500D02*
X59655000Y-25323500D01*
X59615000Y-28480500D02*
X59615000Y-27967500D01*
X59615000Y-25887500D02*
X59615000Y-25374500D01*
X59575000Y-28426500D02*
X59575000Y-27967500D01*
X59575000Y-25887500D02*
X59575000Y-25428500D01*
X59535000Y-28370500D02*
X59535000Y-27967500D01*
X59535000Y-25887500D02*
X59535000Y-25484500D01*
X59495000Y-28310500D02*
X59495000Y-27967500D01*
X59495000Y-25887500D02*
X59495000Y-25544500D01*
X59455000Y-28246500D02*
X59455000Y-27967500D01*
X59455000Y-25887500D02*
X59455000Y-25608500D01*
X59415000Y-28178500D02*
X59415000Y-27967500D01*
X59415000Y-25887500D02*
X59415000Y-25676500D01*
X59375000Y-28104500D02*
X59375000Y-25750500D01*
X59335000Y-28025500D02*
X59335000Y-25829500D01*
X59295000Y-27938500D02*
X59295000Y-25916500D01*
X59255000Y-27841500D02*
X59255000Y-26013500D01*
X59215000Y-27732500D02*
X59215000Y-26122500D01*
X59175000Y-27604500D02*
X59175000Y-26250500D01*
X59135000Y-27444500D02*
X59135000Y-26410500D01*
X59095000Y-27210500D02*
X59095000Y-26644500D01*
X64315000Y-26927500D02*
G75*
G02*
X59075000Y-26927500I-2620000J0D01*
G01*
X59075000Y-26927500D02*
G75*
G02*
X64315000Y-26927500I2620000J0D01*
G01*
%TO.C,C14*%
X64499775Y-34752500D02*
X63999775Y-34752500D01*
X64249775Y-35002500D02*
X64249775Y-34502500D01*
X61695000Y-35857500D02*
X61695000Y-30697500D01*
X61655000Y-35857500D02*
X61655000Y-30697500D01*
X61615000Y-35856500D02*
X61615000Y-30698500D01*
X61575000Y-35854500D02*
X61575000Y-30700500D01*
X61535000Y-35852500D02*
X61535000Y-30702500D01*
X61495000Y-35849500D02*
X61495000Y-30705500D01*
X61455000Y-35846500D02*
X61455000Y-34317500D01*
X61455000Y-32237500D02*
X61455000Y-30708500D01*
X61415000Y-35842500D02*
X61415000Y-34317500D01*
X61415000Y-32237500D02*
X61415000Y-30712500D01*
X61375000Y-35837500D02*
X61375000Y-34317500D01*
X61375000Y-32237500D02*
X61375000Y-30717500D01*
X61335000Y-35832500D02*
X61335000Y-34317500D01*
X61335000Y-32237500D02*
X61335000Y-30722500D01*
X61295000Y-35826500D02*
X61295000Y-34317500D01*
X61295000Y-32237500D02*
X61295000Y-30728500D01*
X61255000Y-35820500D02*
X61255000Y-34317500D01*
X61255000Y-32237500D02*
X61255000Y-30734500D01*
X61215000Y-35813500D02*
X61215000Y-34317500D01*
X61215000Y-32237500D02*
X61215000Y-30741500D01*
X61175000Y-35805500D02*
X61175000Y-34317500D01*
X61175000Y-32237500D02*
X61175000Y-30749500D01*
X61135000Y-35796500D02*
X61135000Y-34317500D01*
X61135000Y-32237500D02*
X61135000Y-30758500D01*
X61095000Y-35787500D02*
X61095000Y-34317500D01*
X61095000Y-32237500D02*
X61095000Y-30767500D01*
X61055000Y-35778500D02*
X61055000Y-34317500D01*
X61055000Y-32237500D02*
X61055000Y-30776500D01*
X61015000Y-35767500D02*
X61015000Y-34317500D01*
X61015000Y-32237500D02*
X61015000Y-30787500D01*
X60975000Y-35756500D02*
X60975000Y-34317500D01*
X60975000Y-32237500D02*
X60975000Y-30798500D01*
X60935000Y-35744500D02*
X60935000Y-34317500D01*
X60935000Y-32237500D02*
X60935000Y-30810500D01*
X60895000Y-35732500D02*
X60895000Y-34317500D01*
X60895000Y-32237500D02*
X60895000Y-30822500D01*
X60855000Y-35719500D02*
X60855000Y-34317500D01*
X60855000Y-32237500D02*
X60855000Y-30835500D01*
X60815000Y-35705500D02*
X60815000Y-34317500D01*
X60815000Y-32237500D02*
X60815000Y-30849500D01*
X60775000Y-35690500D02*
X60775000Y-34317500D01*
X60775000Y-32237500D02*
X60775000Y-30864500D01*
X60735000Y-35675500D02*
X60735000Y-34317500D01*
X60735000Y-32237500D02*
X60735000Y-30879500D01*
X60695000Y-35659500D02*
X60695000Y-34317500D01*
X60695000Y-32237500D02*
X60695000Y-30895500D01*
X60655000Y-35642500D02*
X60655000Y-34317500D01*
X60655000Y-32237500D02*
X60655000Y-30912500D01*
X60615000Y-35624500D02*
X60615000Y-34317500D01*
X60615000Y-32237500D02*
X60615000Y-30930500D01*
X60575000Y-35606500D02*
X60575000Y-34317500D01*
X60575000Y-32237500D02*
X60575000Y-30948500D01*
X60535000Y-35586500D02*
X60535000Y-34317500D01*
X60535000Y-32237500D02*
X60535000Y-30968500D01*
X60495000Y-35566500D02*
X60495000Y-34317500D01*
X60495000Y-32237500D02*
X60495000Y-30988500D01*
X60455000Y-35545500D02*
X60455000Y-34317500D01*
X60455000Y-32237500D02*
X60455000Y-31009500D01*
X60415000Y-35523500D02*
X60415000Y-34317500D01*
X60415000Y-32237500D02*
X60415000Y-31031500D01*
X60375000Y-35500500D02*
X60375000Y-34317500D01*
X60375000Y-32237500D02*
X60375000Y-31054500D01*
X60335000Y-35476500D02*
X60335000Y-34317500D01*
X60335000Y-32237500D02*
X60335000Y-31078500D01*
X60295000Y-35452500D02*
X60295000Y-34317500D01*
X60295000Y-32237500D02*
X60295000Y-31102500D01*
X60255000Y-35426500D02*
X60255000Y-34317500D01*
X60255000Y-32237500D02*
X60255000Y-31128500D01*
X60215000Y-35399500D02*
X60215000Y-34317500D01*
X60215000Y-32237500D02*
X60215000Y-31155500D01*
X60175000Y-35371500D02*
X60175000Y-34317500D01*
X60175000Y-32237500D02*
X60175000Y-31183500D01*
X60135000Y-35342500D02*
X60135000Y-34317500D01*
X60135000Y-32237500D02*
X60135000Y-31212500D01*
X60095000Y-35312500D02*
X60095000Y-34317500D01*
X60095000Y-32237500D02*
X60095000Y-31242500D01*
X60055000Y-35280500D02*
X60055000Y-34317500D01*
X60055000Y-32237500D02*
X60055000Y-31274500D01*
X60015000Y-35247500D02*
X60015000Y-34317500D01*
X60015000Y-32237500D02*
X60015000Y-31307500D01*
X59975000Y-35213500D02*
X59975000Y-34317500D01*
X59975000Y-32237500D02*
X59975000Y-31341500D01*
X59935000Y-35178500D02*
X59935000Y-34317500D01*
X59935000Y-32237500D02*
X59935000Y-31376500D01*
X59895000Y-35141500D02*
X59895000Y-34317500D01*
X59895000Y-32237500D02*
X59895000Y-31413500D01*
X59855000Y-35102500D02*
X59855000Y-34317500D01*
X59855000Y-32237500D02*
X59855000Y-31452500D01*
X59815000Y-35062500D02*
X59815000Y-34317500D01*
X59815000Y-32237500D02*
X59815000Y-31492500D01*
X59775000Y-35020500D02*
X59775000Y-34317500D01*
X59775000Y-32237500D02*
X59775000Y-31534500D01*
X59735000Y-34976500D02*
X59735000Y-34317500D01*
X59735000Y-32237500D02*
X59735000Y-31578500D01*
X59695000Y-34929500D02*
X59695000Y-34317500D01*
X59695000Y-32237500D02*
X59695000Y-31625500D01*
X59655000Y-34881500D02*
X59655000Y-34317500D01*
X59655000Y-32237500D02*
X59655000Y-31673500D01*
X59615000Y-34830500D02*
X59615000Y-34317500D01*
X59615000Y-32237500D02*
X59615000Y-31724500D01*
X59575000Y-34776500D02*
X59575000Y-34317500D01*
X59575000Y-32237500D02*
X59575000Y-31778500D01*
X59535000Y-34720500D02*
X59535000Y-34317500D01*
X59535000Y-32237500D02*
X59535000Y-31834500D01*
X59495000Y-34660500D02*
X59495000Y-34317500D01*
X59495000Y-32237500D02*
X59495000Y-31894500D01*
X59455000Y-34596500D02*
X59455000Y-34317500D01*
X59455000Y-32237500D02*
X59455000Y-31958500D01*
X59415000Y-34528500D02*
X59415000Y-34317500D01*
X59415000Y-32237500D02*
X59415000Y-32026500D01*
X59375000Y-34454500D02*
X59375000Y-32100500D01*
X59335000Y-34375500D02*
X59335000Y-32179500D01*
X59295000Y-34288500D02*
X59295000Y-32266500D01*
X59255000Y-34191500D02*
X59255000Y-32363500D01*
X59215000Y-34082500D02*
X59215000Y-32472500D01*
X59175000Y-33954500D02*
X59175000Y-32600500D01*
X59135000Y-33794500D02*
X59135000Y-32760500D01*
X59095000Y-33560500D02*
X59095000Y-32994500D01*
X64315000Y-33277500D02*
G75*
G02*
X59075000Y-33277500I-2620000J0D01*
G01*
X59075000Y-33277500D02*
G75*
G02*
X64315000Y-33277500I2620000J0D01*
G01*
%TO.C,C13*%
X69605225Y-35355000D02*
X70105225Y-35355000D01*
X69855225Y-35105000D02*
X69855225Y-35605000D01*
X72410000Y-34250000D02*
X72410000Y-39410000D01*
X72450000Y-34250000D02*
X72450000Y-39410000D01*
X72490000Y-34251000D02*
X72490000Y-39409000D01*
X72530000Y-34253000D02*
X72530000Y-39407000D01*
X72570000Y-34255000D02*
X72570000Y-39405000D01*
X72610000Y-34258000D02*
X72610000Y-39402000D01*
X72650000Y-34261000D02*
X72650000Y-35790000D01*
X72650000Y-37870000D02*
X72650000Y-39399000D01*
X72690000Y-34265000D02*
X72690000Y-35790000D01*
X72690000Y-37870000D02*
X72690000Y-39395000D01*
X72730000Y-34270000D02*
X72730000Y-35790000D01*
X72730000Y-37870000D02*
X72730000Y-39390000D01*
X72770000Y-34275000D02*
X72770000Y-35790000D01*
X72770000Y-37870000D02*
X72770000Y-39385000D01*
X72810000Y-34281000D02*
X72810000Y-35790000D01*
X72810000Y-37870000D02*
X72810000Y-39379000D01*
X72850000Y-34287000D02*
X72850000Y-35790000D01*
X72850000Y-37870000D02*
X72850000Y-39373000D01*
X72890000Y-34294000D02*
X72890000Y-35790000D01*
X72890000Y-37870000D02*
X72890000Y-39366000D01*
X72930000Y-34302000D02*
X72930000Y-35790000D01*
X72930000Y-37870000D02*
X72930000Y-39358000D01*
X72970000Y-34311000D02*
X72970000Y-35790000D01*
X72970000Y-37870000D02*
X72970000Y-39349000D01*
X73010000Y-34320000D02*
X73010000Y-35790000D01*
X73010000Y-37870000D02*
X73010000Y-39340000D01*
X73050000Y-34329000D02*
X73050000Y-35790000D01*
X73050000Y-37870000D02*
X73050000Y-39331000D01*
X73090000Y-34340000D02*
X73090000Y-35790000D01*
X73090000Y-37870000D02*
X73090000Y-39320000D01*
X73130000Y-34351000D02*
X73130000Y-35790000D01*
X73130000Y-37870000D02*
X73130000Y-39309000D01*
X73170000Y-34363000D02*
X73170000Y-35790000D01*
X73170000Y-37870000D02*
X73170000Y-39297000D01*
X73210000Y-34375000D02*
X73210000Y-35790000D01*
X73210000Y-37870000D02*
X73210000Y-39285000D01*
X73250000Y-34388000D02*
X73250000Y-35790000D01*
X73250000Y-37870000D02*
X73250000Y-39272000D01*
X73290000Y-34402000D02*
X73290000Y-35790000D01*
X73290000Y-37870000D02*
X73290000Y-39258000D01*
X73330000Y-34417000D02*
X73330000Y-35790000D01*
X73330000Y-37870000D02*
X73330000Y-39243000D01*
X73370000Y-34432000D02*
X73370000Y-35790000D01*
X73370000Y-37870000D02*
X73370000Y-39228000D01*
X73410000Y-34448000D02*
X73410000Y-35790000D01*
X73410000Y-37870000D02*
X73410000Y-39212000D01*
X73450000Y-34465000D02*
X73450000Y-35790000D01*
X73450000Y-37870000D02*
X73450000Y-39195000D01*
X73490000Y-34483000D02*
X73490000Y-35790000D01*
X73490000Y-37870000D02*
X73490000Y-39177000D01*
X73530000Y-34501000D02*
X73530000Y-35790000D01*
X73530000Y-37870000D02*
X73530000Y-39159000D01*
X73570000Y-34521000D02*
X73570000Y-35790000D01*
X73570000Y-37870000D02*
X73570000Y-39139000D01*
X73610000Y-34541000D02*
X73610000Y-35790000D01*
X73610000Y-37870000D02*
X73610000Y-39119000D01*
X73650000Y-34562000D02*
X73650000Y-35790000D01*
X73650000Y-37870000D02*
X73650000Y-39098000D01*
X73690000Y-34584000D02*
X73690000Y-35790000D01*
X73690000Y-37870000D02*
X73690000Y-39076000D01*
X73730000Y-34607000D02*
X73730000Y-35790000D01*
X73730000Y-37870000D02*
X73730000Y-39053000D01*
X73770000Y-34631000D02*
X73770000Y-35790000D01*
X73770000Y-37870000D02*
X73770000Y-39029000D01*
X73810000Y-34655000D02*
X73810000Y-35790000D01*
X73810000Y-37870000D02*
X73810000Y-39005000D01*
X73850000Y-34681000D02*
X73850000Y-35790000D01*
X73850000Y-37870000D02*
X73850000Y-38979000D01*
X73890000Y-34708000D02*
X73890000Y-35790000D01*
X73890000Y-37870000D02*
X73890000Y-38952000D01*
X73930000Y-34736000D02*
X73930000Y-35790000D01*
X73930000Y-37870000D02*
X73930000Y-38924000D01*
X73970000Y-34765000D02*
X73970000Y-35790000D01*
X73970000Y-37870000D02*
X73970000Y-38895000D01*
X74010000Y-34795000D02*
X74010000Y-35790000D01*
X74010000Y-37870000D02*
X74010000Y-38865000D01*
X74050000Y-34827000D02*
X74050000Y-35790000D01*
X74050000Y-37870000D02*
X74050000Y-38833000D01*
X74090000Y-34860000D02*
X74090000Y-35790000D01*
X74090000Y-37870000D02*
X74090000Y-38800000D01*
X74130000Y-34894000D02*
X74130000Y-35790000D01*
X74130000Y-37870000D02*
X74130000Y-38766000D01*
X74170000Y-34929000D02*
X74170000Y-35790000D01*
X74170000Y-37870000D02*
X74170000Y-38731000D01*
X74210000Y-34966000D02*
X74210000Y-35790000D01*
X74210000Y-37870000D02*
X74210000Y-38694000D01*
X74250000Y-35005000D02*
X74250000Y-35790000D01*
X74250000Y-37870000D02*
X74250000Y-38655000D01*
X74290000Y-35045000D02*
X74290000Y-35790000D01*
X74290000Y-37870000D02*
X74290000Y-38615000D01*
X74330000Y-35087000D02*
X74330000Y-35790000D01*
X74330000Y-37870000D02*
X74330000Y-38573000D01*
X74370000Y-35131000D02*
X74370000Y-35790000D01*
X74370000Y-37870000D02*
X74370000Y-38529000D01*
X74410000Y-35178000D02*
X74410000Y-35790000D01*
X74410000Y-37870000D02*
X74410000Y-38482000D01*
X74450000Y-35226000D02*
X74450000Y-35790000D01*
X74450000Y-37870000D02*
X74450000Y-38434000D01*
X74490000Y-35277000D02*
X74490000Y-35790000D01*
X74490000Y-37870000D02*
X74490000Y-38383000D01*
X74530000Y-35331000D02*
X74530000Y-35790000D01*
X74530000Y-37870000D02*
X74530000Y-38329000D01*
X74570000Y-35387000D02*
X74570000Y-35790000D01*
X74570000Y-37870000D02*
X74570000Y-38273000D01*
X74610000Y-35447000D02*
X74610000Y-35790000D01*
X74610000Y-37870000D02*
X74610000Y-38213000D01*
X74650000Y-35511000D02*
X74650000Y-35790000D01*
X74650000Y-37870000D02*
X74650000Y-38149000D01*
X74690000Y-35579000D02*
X74690000Y-35790000D01*
X74690000Y-37870000D02*
X74690000Y-38081000D01*
X74730000Y-35653000D02*
X74730000Y-38007000D01*
X74770000Y-35732000D02*
X74770000Y-37928000D01*
X74810000Y-35819000D02*
X74810000Y-37841000D01*
X74850000Y-35916000D02*
X74850000Y-37744000D01*
X74890000Y-36025000D02*
X74890000Y-37635000D01*
X74930000Y-36153000D02*
X74930000Y-37507000D01*
X74970000Y-36313000D02*
X74970000Y-37347000D01*
X75010000Y-36547000D02*
X75010000Y-37113000D01*
X75030000Y-36830000D02*
G75*
G02*
X69790000Y-36830000I-2620000J0D01*
G01*
X69790000Y-36830000D02*
G75*
G02*
X75030000Y-36830000I2620000J0D01*
G01*
%TO.C,C11*%
X67966252Y-25122500D02*
X67443748Y-25122500D01*
X67966252Y-23652500D02*
X67443748Y-23652500D01*
%TO.C,C9*%
X67966252Y-36552500D02*
X67443748Y-36552500D01*
X67966252Y-35082500D02*
X67443748Y-35082500D01*
%TO.C,C8*%
X48358748Y-46255000D02*
X48881252Y-46255000D01*
X48358748Y-47725000D02*
X48881252Y-47725000D01*
%TO.C,C7*%
X43161252Y-47725000D02*
X42638748Y-47725000D01*
X43161252Y-46255000D02*
X42638748Y-46255000D01*
%TO.C,C6*%
X54591252Y-47725000D02*
X54068748Y-47725000D01*
X54591252Y-46255000D02*
X54068748Y-46255000D01*
%TO.C,C5*%
X27921252Y-47725000D02*
X27398748Y-47725000D01*
X27921252Y-46255000D02*
X27398748Y-46255000D01*
%TO.C,C4*%
X66021252Y-47725000D02*
X65498748Y-47725000D01*
X66021252Y-46255000D02*
X65498748Y-46255000D01*
%TO.C,C3*%
X38081252Y-47725000D02*
X37558748Y-47725000D01*
X38081252Y-46255000D02*
X37558748Y-46255000D01*
%TO.C,C1*%
X33001252Y-47725000D02*
X32478748Y-47725000D01*
X33001252Y-46255000D02*
X32478748Y-46255000D01*
%TD*%
M02*
