%TF.GenerationSoftware,KiCad,Pcbnew,10.0.4+b1*%
%TF.CreationDate,2026-08-03T21:19:25+09:00*%
%TF.ProjectId,md-opn2c,6d642d6f-706e-4326-932e-6b696361645f,rev?*%
%TF.SameCoordinates,Original*%
%TF.FileFunction,Copper,L2,Bot*%
%TF.FilePolarity,Positive*%
%FSLAX46Y46*%
G04 Gerber Fmt 4.6, Leading zero omitted, Abs format (unit mm)*
G04 Created by KiCad (PCBNEW 10.0.4+b1) date 2026-08-03 21:19:25*
%MOMM*%
%LPD*%
G01*
G04 APERTURE LIST*
G04 Aperture macros list*
%AMRoundRect*
0 Rectangle with rounded corners*
0 $1 Rounding radius*
0 $2 $3 $4 $5 $6 $7 $8 $9 X,Y pos of 4 corners*
0 Add a 4 corners polygon primitive as box body*
4,1,4,$2,$3,$4,$5,$6,$7,$8,$9,$2,$3,0*
0 Add four circle primitives for the rounded corners*
1,1,$1+$1,$2,$3*
1,1,$1+$1,$4,$5*
1,1,$1+$1,$6,$7*
1,1,$1+$1,$8,$9*
0 Add four rect primitives between the rounded corners*
20,1,$1+$1,$2,$3,$4,$5,0*
20,1,$1+$1,$4,$5,$6,$7,0*
20,1,$1+$1,$6,$7,$8,$9,0*
20,1,$1+$1,$8,$9,$2,$3,0*%
G04 Aperture macros list end*
%TA.AperFunction,ComponentPad*%
%ADD10C,1.600000*%
%TD*%
%TA.AperFunction,ComponentPad*%
%ADD11RoundRect,0.250000X0.550000X0.550000X-0.550000X0.550000X-0.550000X-0.550000X0.550000X-0.550000X0*%
%TD*%
%TA.AperFunction,ComponentPad*%
%ADD12RoundRect,0.250000X0.550000X-0.550000X0.550000X0.550000X-0.550000X0.550000X-0.550000X-0.550000X0*%
%TD*%
%TA.AperFunction,ViaPad*%
%ADD13C,0.600000*%
%TD*%
%TA.AperFunction,Conductor*%
%ADD14C,0.254000*%
%TD*%
%TA.AperFunction,Conductor*%
%ADD15C,0.200000*%
%TD*%
G04 APERTURE END LIST*
D10*
%TO.P,C13,2*%
%TO.N,/OUT_R*%
X60445000Y-26927500D03*
D11*
%TO.P,C13,1*%
%TO.N,Net-(C13-Pad1)*%
X62945000Y-26927500D03*
%TD*%
%TO.P,C11,1*%
%TO.N,/BIAS_2_5V*%
X73605113Y-36800000D03*
D10*
%TO.P,C11,2*%
%TO.N,GNDA*%
X71105113Y-36800000D03*
%TD*%
D12*
%TO.P,JOPN1,1,GND_1*%
%TO.N,GND*%
X25400000Y-38100000D03*
D10*
%TO.P,JOPN1,2,D_{0}_2*%
%TO.N,/OPN_D0*%
X27940000Y-38100000D03*
%TO.P,JOPN1,3,D_{1}_3*%
%TO.N,/OPN_D1*%
X30480000Y-38100000D03*
%TO.P,JOPN1,4,D_{2}_4*%
%TO.N,/OPN_D2*%
X33020000Y-38100000D03*
%TO.P,JOPN1,5,D_{3}_5*%
%TO.N,/OPN_D3*%
X35560000Y-38100000D03*
%TO.P,JOPN1,6,D_{4}_6*%
%TO.N,/OPN_D4*%
X38100000Y-38100000D03*
%TO.P,JOPN1,7,D_{5}_7*%
%TO.N,/OPN_D5*%
X40640000Y-38100000D03*
%TO.P,JOPN1,8,D_{6}_8*%
%TO.N,/OPN_D6*%
X43180000Y-38100000D03*
%TO.P,JOPN1,9,D_{7}_9*%
%TO.N,/OPN_D7*%
X45720000Y-38100000D03*
%TO.P,JOPN1,10,~{TEST}_10*%
%TO.N,/~{OPN_TEST}*%
X48260000Y-38100000D03*
%TO.P,JOPN1,11,~{IC}_11*%
%TO.N,/~{OPN_IC}*%
X50800000Y-38100000D03*
%TO.P,JOPN1,12,GND_12*%
%TO.N,GND*%
X53340000Y-38100000D03*
%TO.P,JOPN1,13,~{IRQ}_13*%
%TO.N,/~{OPN_IRQ}*%
X53340000Y-22860000D03*
%TO.P,JOPN1,14,~{CS}_14*%
%TO.N,/~{OPN_CS}*%
X50800000Y-22860000D03*
%TO.P,JOPN1,15,~{WR}_15*%
%TO.N,/~{OPN_WR}*%
X48260000Y-22860000D03*
%TO.P,JOPN1,16,~{RD}_16*%
%TO.N,/~{OPN_RD}*%
X45720000Y-22860000D03*
%TO.P,JOPN1,17,A_{0}_17*%
%TO.N,/OPN_A0*%
X43180000Y-22860000D03*
%TO.P,JOPN1,18,A_{1}_18*%
%TO.N,/OPN_A1*%
X40640000Y-22860000D03*
%TO.P,JOPN1,19,AGND_19*%
%TO.N,GNDA*%
X38100000Y-22860000D03*
%TO.P,JOPN1,20,MOR_20*%
%TO.N,/ORIG_OUT_R*%
X35560000Y-22860000D03*
%TO.P,JOPN1,21,MOL_21*%
%TO.N,/ORIG_OUT_L*%
X33020000Y-22860000D03*
%TO.P,JOPN1,22,AV_{CC}_22*%
%TO.N,VCCA*%
X30480000Y-22860000D03*
%TO.P,JOPN1,23,V_{CC}_23*%
%TO.N,VCC*%
X27940000Y-22860000D03*
%TO.P,JOPN1,24,\u03A6M_24*%
%TO.N,/~{OPN_CLK}*%
X25400000Y-22860000D03*
%TD*%
D11*
%TO.P,C12,1*%
%TO.N,Net-(C12-Pad1)*%
X62945000Y-33277500D03*
D10*
%TO.P,C12,2*%
%TO.N,/OUT_L*%
X60445000Y-33277500D03*
%TD*%
D12*
%TO.P,U3,1,GND_1*%
%TO.N,GND*%
X25400000Y-35560000D03*
D10*
%TO.P,U3,2,D_{0}_2*%
%TO.N,/OPN_D0*%
X27940000Y-35560000D03*
%TO.P,U3,3,D_{1}_3*%
%TO.N,/OPN_D1*%
X30480000Y-35560000D03*
%TO.P,U3,4,D_{2}_4*%
%TO.N,/OPN_D2*%
X33020000Y-35560000D03*
%TO.P,U3,5,D_{3}_5*%
%TO.N,/OPN_D3*%
X35560000Y-35560000D03*
%TO.P,U3,6,D_{4}_6*%
%TO.N,/OPN_D4*%
X38100000Y-35560000D03*
%TO.P,U3,7,D_{5}_7*%
%TO.N,/OPN_D5*%
X40640000Y-35560000D03*
%TO.P,U3,8,D_{6}_8*%
%TO.N,/OPN_D6*%
X43180000Y-35560000D03*
%TO.P,U3,9,D_{7}_9*%
%TO.N,/OPN_D7*%
X45720000Y-35560000D03*
%TO.P,U3,10,~{TEST}_10*%
%TO.N,/~{OPN_TEST}*%
X48260000Y-35560000D03*
%TO.P,U3,11,~{IC}_11*%
%TO.N,/~{OPN_IC}*%
X50800000Y-35560000D03*
%TO.P,U3,12,GND_12*%
%TO.N,GND*%
X53340000Y-35560000D03*
%TO.P,U3,13,~{IRQ}_13*%
%TO.N,/~{OPN_IRQ}*%
X53340000Y-20320000D03*
%TO.P,U3,14,~{CS}_14*%
%TO.N,/~{OPN_CS}*%
X50800000Y-20320000D03*
%TO.P,U3,15,~{WR}_15*%
%TO.N,/~{OPN_WR}*%
X48260000Y-20320000D03*
%TO.P,U3,16,~{RD}_16*%
%TO.N,/~{OPN_RD}*%
X45720000Y-20320000D03*
%TO.P,U3,17,A_{0}_17*%
%TO.N,/OPN_A0_FILTERED*%
X43180000Y-20320000D03*
%TO.P,U3,18,A_{1}_18*%
%TO.N,/OPN_A1_FILTERED*%
X40640000Y-20320000D03*
%TO.P,U3,19,AGND_19*%
%TO.N,GNDA*%
X38100000Y-20320000D03*
%TO.P,U3,20,MOR_20*%
%TO.N,/OPN2C_MOR*%
X35560000Y-20320000D03*
%TO.P,U3,21,MOL_21*%
%TO.N,/OPN2C_MOL*%
X33020000Y-20320000D03*
%TO.P,U3,22,AV_{CC}_22*%
%TO.N,VCCA*%
X30480000Y-20320000D03*
%TO.P,U3,23,V_{CC}_23*%
%TO.N,VCC*%
X27940000Y-20320000D03*
%TO.P,U3,24,\u03A6M_24*%
%TO.N,/~{OPN_CLK}*%
X25400000Y-20320000D03*
%TD*%
D13*
%TO.N,GNDA*%
X50596800Y-45923200D03*
X42468800Y-46024800D03*
X32461200Y-45627000D03*
X25552400Y-45567600D03*
%TO.N,/PSG*%
X50546000Y-42621200D03*
X45622800Y-43540000D03*
%TO.N,VCC*%
X27940000Y-29210000D03*
X43180000Y-29210000D03*
%TO.N,/OPN_A0_FILTERED*%
X50800000Y-29210000D03*
X41910000Y-26670000D03*
%TO.N,/OPN_A0*%
X49530000Y-25400000D03*
%TO.N,/OPN_A1_FILTERED*%
X46990000Y-28361470D03*
X39370000Y-27940000D03*
%TO.N,/OPN_A1*%
X44450000Y-25400000D03*
%TO.N,/MIX_R*%
X70200000Y-38200000D03*
X50500000Y-40377000D03*
X61500000Y-40377000D03*
X56500000Y-40377000D03*
X66625000Y-41125000D03*
X69250000Y-28750000D03*
%TO.N,GNDA*%
X35560000Y-40640000D03*
X66675000Y-29210000D03*
X35560000Y-26035000D03*
X55880000Y-24130000D03*
X30480000Y-40640000D03*
X61200000Y-42400000D03*
X57000000Y-42250000D03*
X35560000Y-32385000D03*
X40640000Y-40640000D03*
X65405000Y-24130000D03*
X58200000Y-38400000D03*
X55880000Y-30480000D03*
X58420000Y-24130000D03*
X25400000Y-40640000D03*
X45800000Y-40600000D03*
X40640000Y-26035000D03*
X30480000Y-26035000D03*
X53200000Y-33000000D03*
X51000000Y-43500000D03*
X25400000Y-32385000D03*
X40640000Y-32385000D03*
X66548000Y-43637200D03*
X73000000Y-40200000D03*
X30480000Y-32385000D03*
X64750000Y-35250000D03*
X40600000Y-43800000D03*
X25400000Y-26035000D03*
%TO.N,/OPN2C_MOR*%
X61163200Y-43535600D03*
X23600000Y-44200000D03*
%TO.N,/OUT_R*%
X74000000Y-39000000D03*
%TO.N,/ORIG_OUT_R*%
X59135000Y-19050000D03*
%TO.N,/ORIG_OUT_L*%
X57150000Y-18415000D03*
%TO.N,VCCA*%
X65485000Y-26927500D03*
X71835000Y-25657500D03*
%TO.N,/OUT_L*%
X72000000Y-39800000D03*
%TO.N,/OPN2C_MOL*%
X34750000Y-43750000D03*
X25000000Y-44250000D03*
%TD*%
%TO.N,/PSG*%
D14*
X49627200Y-43540000D02*
X50546000Y-42621200D01*
X45622800Y-43540000D02*
X49627200Y-43540000D01*
%TO.N,/OPN2C_MOR*%
X61163200Y-43535600D02*
X60464400Y-43535600D01*
X60464400Y-43535600D02*
X59000000Y-45000000D01*
X59000000Y-45000000D02*
X24400000Y-45000000D01*
X24400000Y-45000000D02*
X23600000Y-44200000D01*
%TO.N,VCC*%
X43180000Y-29210000D02*
X27940000Y-29210000D01*
%TO.N,GND*%
X25400000Y-35560000D02*
X25400000Y-34925000D01*
X25400000Y-34925000D02*
X26670000Y-33655000D01*
X51435000Y-33655000D02*
X53340000Y-35560000D01*
X26670000Y-33655000D02*
X51435000Y-33655000D01*
%TO.N,/OPN_A0_FILTERED*%
D15*
X50800000Y-29210000D02*
X48260000Y-26670000D01*
X48260000Y-26670000D02*
X41910000Y-26670000D01*
%TO.N,/OPN_A0*%
X45720000Y-25400000D02*
X43180000Y-22860000D01*
X49530000Y-25400000D02*
X45720000Y-25400000D01*
%TO.N,/OPN_A1_FILTERED*%
X39791470Y-28361470D02*
X39370000Y-27940000D01*
X46990000Y-28361470D02*
X39791470Y-28361470D01*
%TO.N,/OPN_A1*%
X43180000Y-25400000D02*
X44450000Y-25400000D01*
X40640000Y-22860000D02*
X43180000Y-25400000D01*
%TO.N,/MIX_R*%
D14*
X56500000Y-40377000D02*
X61500000Y-40377000D01*
X66625000Y-41125000D02*
X66238288Y-41125000D01*
X69500000Y-29000000D02*
X69250000Y-28750000D01*
X50500000Y-40377000D02*
X56500000Y-40377000D01*
X66238288Y-41125000D02*
X65490288Y-40377000D01*
X70200000Y-38200000D02*
X69500000Y-37500000D01*
X65490288Y-40377000D02*
X61500000Y-40377000D01*
X69500000Y-37500000D02*
X69500000Y-29000000D01*
%TO.N,/OUT_R*%
X60445000Y-26927500D02*
X60445000Y-28695000D01*
X61595000Y-29845000D02*
X62865000Y-29845000D01*
X69005000Y-39000000D02*
X65405000Y-35400000D01*
X62865000Y-29845000D02*
X65405000Y-32385000D01*
X65405000Y-32385000D02*
X65405000Y-35400000D01*
X60445000Y-28695000D02*
X61595000Y-29845000D01*
X74000000Y-39000000D02*
X69005000Y-39000000D01*
%TO.N,/ORIG_OUT_R*%
X37465000Y-19050000D02*
X36830000Y-19685000D01*
X59135000Y-19050000D02*
X37465000Y-19050000D01*
X36830000Y-19685000D02*
X36830000Y-21590000D01*
X36830000Y-21590000D02*
X35560000Y-22860000D01*
%TO.N,/ORIG_OUT_L*%
X55880000Y-18415000D02*
X57150000Y-18415000D01*
X34290000Y-21590000D02*
X33020000Y-22860000D01*
X34925000Y-18415000D02*
X34290000Y-19050000D01*
X55880000Y-18415000D02*
X34925000Y-18415000D01*
X34290000Y-19050000D02*
X34290000Y-21590000D01*
%TO.N,VCCA*%
X36830000Y-23495000D02*
X36195000Y-24130000D01*
X60325000Y-21590000D02*
X37776181Y-21590000D01*
X31750000Y-24130000D02*
X30480000Y-22860000D01*
X70565000Y-26927500D02*
X71835000Y-25657500D01*
X65485000Y-26927500D02*
X70565000Y-26927500D01*
X65485000Y-26750000D02*
X60325000Y-21590000D01*
X36830000Y-22536181D02*
X36830000Y-23495000D01*
X36195000Y-24130000D02*
X31750000Y-24130000D01*
X65485000Y-26927500D02*
X65485000Y-26750000D01*
X37776181Y-21590000D02*
X36830000Y-22536181D01*
%TO.N,/OUT_L*%
X60445000Y-33277500D02*
X60445000Y-34445000D01*
X72000000Y-39800000D02*
X66800000Y-39800000D01*
X63800000Y-36800000D02*
X62800000Y-36800000D01*
X60022500Y-33700000D02*
X60445000Y-33277500D01*
X66800000Y-39800000D02*
X63800000Y-36800000D01*
X62800000Y-36800000D02*
X60445000Y-34445000D01*
%TO.N,/OPN2C_MOL*%
X25000000Y-44250000D02*
X34250000Y-44250000D01*
X34250000Y-44250000D02*
X34750000Y-43750000D01*
%TD*%
%TA.AperFunction,Conductor*%
%TO.N,GNDA*%
G36*
X34568458Y-18105180D02*
G01*
X34574574Y-18107713D01*
X34587027Y-18120165D01*
X34607858Y-18140992D01*
X34607858Y-18140993D01*
X34607860Y-18140995D01*
X34607863Y-18183437D01*
X34607863Y-18188062D01*
X34605330Y-18194179D01*
X34591996Y-18214137D01*
X33987927Y-18818206D01*
X33987927Y-18818207D01*
X33987920Y-18818214D01*
X33987918Y-18818217D01*
X33938225Y-18904288D01*
X33938224Y-18904290D01*
X33935584Y-18914147D01*
X33935579Y-18914169D01*
X33912500Y-19000295D01*
X33912500Y-19566159D01*
X33907818Y-19589696D01*
X33905284Y-19595813D01*
X33871999Y-19629095D01*
X33824937Y-19629097D01*
X33824929Y-19629094D01*
X33824928Y-19629093D01*
X33818820Y-19626564D01*
X33798862Y-19613230D01*
X33715719Y-19530087D01*
X33710765Y-19518127D01*
X33560466Y-19417702D01*
X33523776Y-19393187D01*
X33517599Y-19389060D01*
X33517600Y-19389060D01*
X33517598Y-19389059D01*
X33501295Y-19382306D01*
X33405650Y-19342687D01*
X33326426Y-19309871D01*
X33326427Y-19309871D01*
X33326414Y-19309867D01*
X33326408Y-19309866D01*
X33123471Y-19269500D01*
X33123468Y-19269500D01*
X33123465Y-19269500D01*
X32916535Y-19269500D01*
X32916532Y-19269500D01*
X32916529Y-19269500D01*
X32713590Y-19309866D01*
X32713584Y-19309867D01*
X32713571Y-19309871D01*
X32713563Y-19309874D01*
X32522426Y-19389047D01*
X32522401Y-19389059D01*
X32522400Y-19389059D01*
X32350340Y-19504025D01*
X32204025Y-19650340D01*
X32089059Y-19822400D01*
X32089059Y-19822401D01*
X32089047Y-19822426D01*
X32009874Y-20013563D01*
X32009871Y-20013571D01*
X32009867Y-20013584D01*
X32009866Y-20013590D01*
X31969500Y-20216527D01*
X31969500Y-20423471D01*
X32009866Y-20626408D01*
X32009867Y-20626414D01*
X32009871Y-20626427D01*
X32048632Y-20720000D01*
X32048632Y-20720001D01*
X32089056Y-20817592D01*
X32089061Y-20817602D01*
X32127499Y-20875127D01*
X32127500Y-20875129D01*
X32204025Y-20989658D01*
X32324279Y-21109911D01*
X32329233Y-21121871D01*
X32350345Y-21135977D01*
X32350344Y-21135977D01*
X32436664Y-21193653D01*
X32522402Y-21250941D01*
X32611466Y-21287832D01*
X32711573Y-21329299D01*
X32713080Y-21329987D01*
X32713430Y-21330100D01*
X32713579Y-21330129D01*
X32713580Y-21330130D01*
X32910590Y-21369317D01*
X32914489Y-21370500D01*
X33123468Y-21370500D01*
X33134955Y-21370500D01*
X33141764Y-21366859D01*
X33326420Y-21330130D01*
X33326493Y-21330100D01*
X33352518Y-21319319D01*
X33517598Y-21250941D01*
X33689655Y-21135977D01*
X33798865Y-21026766D01*
X33818818Y-21013436D01*
X33822554Y-21011888D01*
X33824937Y-21010902D01*
X33872007Y-21010907D01*
X33905284Y-21044186D01*
X33907818Y-21050303D01*
X33912500Y-21073840D01*
X33912500Y-21379086D01*
X33894487Y-21422573D01*
X33871642Y-21437018D01*
X32712468Y-21850044D01*
X32709915Y-21851227D01*
X32709887Y-21851167D01*
X32706984Y-21852599D01*
X32522416Y-21929052D01*
X32522401Y-21929059D01*
X32522400Y-21929059D01*
X32350340Y-22044025D01*
X32204025Y-22190340D01*
X32089059Y-22362400D01*
X32089059Y-22362401D01*
X32089047Y-22362426D01*
X32009874Y-22553563D01*
X32009871Y-22553571D01*
X32009867Y-22553584D01*
X32009866Y-22553590D01*
X31969500Y-22756527D01*
X31969500Y-22963471D01*
X32009866Y-23166408D01*
X32009867Y-23166414D01*
X32009871Y-23166427D01*
X32069902Y-23311350D01*
X32070800Y-23313517D01*
X32089059Y-23357598D01*
X32104651Y-23380933D01*
X32106702Y-23384003D01*
X32106709Y-23384016D01*
X32204018Y-23529649D01*
X32204021Y-23529652D01*
X32204022Y-23529654D01*
X32313230Y-23638863D01*
X32326564Y-23658822D01*
X32329097Y-23664940D01*
X32329090Y-23712010D01*
X32295815Y-23745282D01*
X32289699Y-23747816D01*
X32266159Y-23752500D01*
X31960911Y-23752500D01*
X31917424Y-23734487D01*
X31902979Y-23711642D01*
X31877703Y-23640705D01*
X31489953Y-22552467D01*
X31489949Y-22552460D01*
X31488769Y-22549913D01*
X31488832Y-22549883D01*
X31487402Y-22546994D01*
X31411768Y-22364401D01*
X31411285Y-22363106D01*
X31410942Y-22362405D01*
X31410941Y-22362402D01*
X31295977Y-22190345D01*
X31175719Y-22070087D01*
X31170765Y-22058127D01*
X31013095Y-21952777D01*
X31007105Y-21943813D01*
X30977601Y-21929060D01*
X30977588Y-21929054D01*
X30977552Y-21929039D01*
X30786435Y-21849874D01*
X30786427Y-21849871D01*
X30786414Y-21849867D01*
X30786408Y-21849866D01*
X30583471Y-21809500D01*
X30583468Y-21809500D01*
X30583465Y-21809500D01*
X30376535Y-21809500D01*
X30376532Y-21809500D01*
X30376529Y-21809500D01*
X30173590Y-21849866D01*
X30173584Y-21849867D01*
X30173571Y-21849871D01*
X30173563Y-21849874D01*
X29982426Y-21929047D01*
X29982401Y-21929059D01*
X29982400Y-21929059D01*
X29810340Y-22044025D01*
X29664025Y-22190340D01*
X29549059Y-22362400D01*
X29549059Y-22362401D01*
X29549047Y-22362426D01*
X29469874Y-22553563D01*
X29469871Y-22553571D01*
X29469867Y-22553584D01*
X29469866Y-22553590D01*
X29429500Y-22756527D01*
X29429500Y-22963471D01*
X29469866Y-23166408D01*
X29469867Y-23166414D01*
X29469871Y-23166427D01*
X29529902Y-23311350D01*
X29530800Y-23313517D01*
X29549059Y-23357598D01*
X29564651Y-23380933D01*
X29566702Y-23384003D01*
X29566709Y-23384016D01*
X29664020Y-23529652D01*
X29664025Y-23529658D01*
X29784279Y-23649911D01*
X29789233Y-23661871D01*
X29810344Y-23675977D01*
X29886397Y-23726793D01*
X29982402Y-23790941D01*
X30005545Y-23800527D01*
X30053477Y-23820382D01*
X30053480Y-23820382D01*
X30053481Y-23820383D01*
X30159656Y-23864363D01*
X30166770Y-23867310D01*
X30169679Y-23868771D01*
X30169730Y-23868664D01*
X30172464Y-23869952D01*
X30176323Y-23871327D01*
X31368771Y-24296209D01*
X31376807Y-24299072D01*
X31399652Y-24313517D01*
X31447925Y-24361790D01*
X31518210Y-24432075D01*
X31604291Y-24481774D01*
X31604295Y-24481776D01*
X31604318Y-24481785D01*
X31604795Y-24481909D01*
X31632035Y-24489208D01*
X31700297Y-24507500D01*
X36244700Y-24507500D01*
X36244701Y-24507500D01*
X36255282Y-24504664D01*
X36287031Y-24496157D01*
X36340710Y-24481774D01*
X36426790Y-24432075D01*
X37132076Y-23726790D01*
X37181774Y-23640710D01*
X37196455Y-23585921D01*
X37207500Y-23544703D01*
X37207500Y-23436654D01*
X37212181Y-23413121D01*
X37220831Y-23392236D01*
X37234160Y-23372285D01*
X37623365Y-22983080D01*
X37666851Y-22965068D01*
X37710338Y-22983081D01*
X37726254Y-23010646D01*
X37727256Y-23014387D01*
X37727258Y-23014391D01*
X37727259Y-23014394D01*
X37779920Y-23105606D01*
X37854394Y-23180080D01*
X37945606Y-23232741D01*
X37949024Y-23233657D01*
X37949349Y-23233744D01*
X37986691Y-23262399D01*
X37992834Y-23309067D01*
X37976917Y-23336635D01*
X37374076Y-23939474D01*
X37418649Y-23971858D01*
X37418652Y-23971860D01*
X37600971Y-24064756D01*
X37749469Y-24113006D01*
X37760508Y-24122434D01*
X37795581Y-24127989D01*
X37795579Y-24127989D01*
X37997684Y-24159999D01*
X37997692Y-24160000D01*
X38202307Y-24160000D01*
X38202308Y-24160000D01*
X38202315Y-24159999D01*
X38404419Y-24127989D01*
X38599028Y-24064756D01*
X38781348Y-23971860D01*
X38825921Y-23939474D01*
X38825920Y-23939473D01*
X38825921Y-23939473D01*
X38223082Y-23336635D01*
X38205069Y-23293148D01*
X38223082Y-23249661D01*
X38250649Y-23233744D01*
X38254394Y-23232741D01*
X38345606Y-23180080D01*
X38420080Y-23105606D01*
X38472741Y-23014394D01*
X38473744Y-23010650D01*
X38502398Y-22973309D01*
X38549065Y-22967164D01*
X38576635Y-22983082D01*
X39179473Y-23585921D01*
X39179473Y-23585920D01*
X39179474Y-23585921D01*
X39211860Y-23541348D01*
X39304756Y-23359028D01*
X39367989Y-23164419D01*
X39399999Y-22962315D01*
X39400000Y-22962307D01*
X39400000Y-22757692D01*
X39399999Y-22757684D01*
X39367989Y-22555580D01*
X39304756Y-22360971D01*
X39211858Y-22178648D01*
X39136586Y-22075045D01*
X39126541Y-22053256D01*
X39124521Y-22044844D01*
X39131882Y-21998353D01*
X39165326Y-21971991D01*
X39169902Y-21970504D01*
X39188892Y-21967500D01*
X39886159Y-21967500D01*
X39909691Y-21972180D01*
X39913083Y-21973585D01*
X39915804Y-21974712D01*
X39915807Y-21974713D01*
X39949093Y-22007995D01*
X39949096Y-22055062D01*
X39946563Y-22061179D01*
X39933229Y-22081137D01*
X39824025Y-22190340D01*
X39709059Y-22362400D01*
X39709059Y-22362401D01*
X39709047Y-22362426D01*
X39629874Y-22553563D01*
X39629871Y-22553571D01*
X39629867Y-22553584D01*
X39629866Y-22553590D01*
X39589500Y-22756527D01*
X39589500Y-22963471D01*
X39629866Y-23166408D01*
X39629867Y-23166414D01*
X39629871Y-23166427D01*
X39689902Y-23311350D01*
X39690800Y-23313517D01*
X39709059Y-23357598D01*
X39724651Y-23380933D01*
X39726702Y-23384003D01*
X39726709Y-23384016D01*
X39824020Y-23529652D01*
X39824025Y-23529658D01*
X39944279Y-23649911D01*
X39949233Y-23661871D01*
X39970344Y-23675977D01*
X40046397Y-23726793D01*
X40142402Y-23790941D01*
X40165545Y-23800527D01*
X40213477Y-23820382D01*
X40213480Y-23820382D01*
X40213481Y-23820383D01*
X40275748Y-23846175D01*
X40331574Y-23869300D01*
X40331577Y-23869301D01*
X40334175Y-23870377D01*
X40334180Y-23870363D01*
X40539718Y-23939473D01*
X41556641Y-24281404D01*
X41580527Y-24296209D01*
X42964787Y-25680469D01*
X43016329Y-25710227D01*
X43044712Y-25726614D01*
X43044716Y-25726615D01*
X43082889Y-25736843D01*
X43133852Y-25750500D01*
X43133854Y-25750500D01*
X43133856Y-25750500D01*
X43782603Y-25750500D01*
X43803796Y-25754267D01*
X44236718Y-25913185D01*
X44236719Y-25913185D01*
X44236721Y-25913186D01*
X44238126Y-25913424D01*
X44243730Y-25914648D01*
X44305932Y-25931316D01*
X44377521Y-25950500D01*
X44522476Y-25950500D01*
X44522477Y-25950500D01*
X44585162Y-25933703D01*
X44585188Y-25933696D01*
X44662485Y-25912984D01*
X44788015Y-25840509D01*
X44890509Y-25738015D01*
X44962984Y-25612485D01*
X44977540Y-25558158D01*
X45000500Y-25472477D01*
X45000500Y-25336890D01*
X45005179Y-25313361D01*
X45007712Y-25307244D01*
X45040992Y-25273957D01*
X45088062Y-25273952D01*
X45094179Y-25276485D01*
X45114137Y-25289819D01*
X45504787Y-25680469D01*
X45556329Y-25710227D01*
X45584712Y-25726614D01*
X45584716Y-25726615D01*
X45622889Y-25736843D01*
X45673852Y-25750500D01*
X45673854Y-25750500D01*
X45673856Y-25750500D01*
X48862603Y-25750500D01*
X48883796Y-25754267D01*
X49316718Y-25913185D01*
X49316719Y-25913185D01*
X49316721Y-25913186D01*
X49318126Y-25913424D01*
X49323730Y-25914648D01*
X49385932Y-25931316D01*
X49457521Y-25950500D01*
X49602476Y-25950500D01*
X49602477Y-25950500D01*
X49665162Y-25933703D01*
X49665188Y-25933696D01*
X49742485Y-25912984D01*
X49868015Y-25840509D01*
X49970509Y-25738015D01*
X50042984Y-25612485D01*
X50057540Y-25558158D01*
X50080500Y-25472477D01*
X50080500Y-25327522D01*
X50080500Y-25327519D01*
X50043126Y-25188046D01*
X50042995Y-25187542D01*
X50042986Y-25187519D01*
X50042984Y-25187515D01*
X49970509Y-25061985D01*
X49868015Y-24959491D01*
X49868012Y-24959489D01*
X49868008Y-24959486D01*
X49742490Y-24887018D01*
X49742476Y-24887011D01*
X49602480Y-24849500D01*
X49602477Y-24849500D01*
X49602475Y-24849500D01*
X49457525Y-24849500D01*
X49457523Y-24849500D01*
X49323602Y-24885383D01*
X49317223Y-24886734D01*
X49316723Y-24886812D01*
X48883792Y-25045733D01*
X48862599Y-25049500D01*
X45902890Y-25049500D01*
X45879355Y-25044818D01*
X45858470Y-25036167D01*
X45838518Y-25022836D01*
X44616209Y-23800527D01*
X44601404Y-23776641D01*
X44191344Y-22557099D01*
X44190554Y-22554133D01*
X44188986Y-22550816D01*
X44159061Y-22478573D01*
X44111774Y-22364416D01*
X44111287Y-22363110D01*
X44110942Y-22362405D01*
X44110941Y-22362402D01*
X43995977Y-22190345D01*
X43984280Y-22178648D01*
X43886768Y-22081135D01*
X43873435Y-22061177D01*
X43870902Y-22055059D01*
X43870909Y-22007989D01*
X43904194Y-21974712D01*
X43906814Y-21973627D01*
X43910312Y-21972179D01*
X43933841Y-21967500D01*
X44966159Y-21967500D01*
X44989691Y-21972180D01*
X44993083Y-21973585D01*
X44995804Y-21974712D01*
X44995807Y-21974713D01*
X45029093Y-22007995D01*
X45029096Y-22055062D01*
X45026563Y-22061179D01*
X45013229Y-22081137D01*
X44904025Y-22190340D01*
X44789059Y-22362400D01*
X44789059Y-22362401D01*
X44789047Y-22362426D01*
X44709874Y-22553563D01*
X44709871Y-22553571D01*
X44709867Y-22553584D01*
X44709866Y-22553590D01*
X44669500Y-22756527D01*
X44669500Y-22963471D01*
X44709866Y-23166408D01*
X44709867Y-23166414D01*
X44709871Y-23166427D01*
X44769902Y-23311350D01*
X44770800Y-23313517D01*
X44789059Y-23357598D01*
X44804651Y-23380933D01*
X44806702Y-23384003D01*
X44806709Y-23384016D01*
X44904020Y-23529652D01*
X44904025Y-23529658D01*
X45024279Y-23649911D01*
X45029233Y-23661871D01*
X45050344Y-23675977D01*
X45126397Y-23726793D01*
X45222402Y-23790941D01*
X45245545Y-23800527D01*
X45293477Y-23820382D01*
X45293480Y-23820382D01*
X45293481Y-23820383D01*
X45413569Y-23870126D01*
X45413571Y-23870126D01*
X45413580Y-23870130D01*
X45610590Y-23909317D01*
X45614489Y-23910500D01*
X45823468Y-23910500D01*
X45834955Y-23910500D01*
X45841764Y-23906859D01*
X46026420Y-23870130D01*
X46026848Y-23869953D01*
X46052518Y-23859319D01*
X46217598Y-23790941D01*
X46389655Y-23675977D01*
X46535977Y-23529655D01*
X46650941Y-23357598D01*
X46724472Y-23180080D01*
X46730126Y-23166430D01*
X46730127Y-23166427D01*
X46730130Y-23166420D01*
X46766859Y-22981764D01*
X46770500Y-22974954D01*
X46770500Y-22754489D01*
X46769316Y-22750586D01*
X46731312Y-22559522D01*
X46731312Y-22559523D01*
X46730131Y-22553585D01*
X46730130Y-22553584D01*
X46730130Y-22553580D01*
X46730127Y-22553574D01*
X46730009Y-22552979D01*
X46728984Y-22550810D01*
X46682588Y-22438805D01*
X46651774Y-22364416D01*
X46651287Y-22363110D01*
X46650942Y-22362405D01*
X46650941Y-22362402D01*
X46535977Y-22190345D01*
X46524280Y-22178648D01*
X46426768Y-22081135D01*
X46413435Y-22061177D01*
X46410902Y-22055059D01*
X46410909Y-22007989D01*
X46444194Y-21974712D01*
X46446814Y-21973627D01*
X46450312Y-21972179D01*
X46473841Y-21967500D01*
X47506159Y-21967500D01*
X47529691Y-21972180D01*
X47533083Y-21973585D01*
X47535804Y-21974712D01*
X47535807Y-21974713D01*
X47569093Y-22007995D01*
X47569096Y-22055062D01*
X47566563Y-22061179D01*
X47553229Y-22081137D01*
X47444025Y-22190340D01*
X47329059Y-22362400D01*
X47329059Y-22362401D01*
X47329047Y-22362426D01*
X47249874Y-22553563D01*
X47249871Y-22553571D01*
X47249867Y-22553584D01*
X47249866Y-22553590D01*
X47209500Y-22756527D01*
X47209500Y-22963471D01*
X47249866Y-23166408D01*
X47249867Y-23166414D01*
X47249871Y-23166427D01*
X47309902Y-23311350D01*
X47310800Y-23313517D01*
X47329059Y-23357598D01*
X47344651Y-23380933D01*
X47346702Y-23384003D01*
X47346709Y-23384016D01*
X47444020Y-23529652D01*
X47444025Y-23529658D01*
X47564279Y-23649911D01*
X47569233Y-23661871D01*
X47590344Y-23675977D01*
X47666397Y-23726793D01*
X47762402Y-23790941D01*
X47785545Y-23800527D01*
X47833477Y-23820382D01*
X47833480Y-23820382D01*
X47833481Y-23820383D01*
X47953569Y-23870126D01*
X47953571Y-23870126D01*
X47953580Y-23870130D01*
X48150590Y-23909317D01*
X48154489Y-23910500D01*
X48363468Y-23910500D01*
X48374955Y-23910500D01*
X48381764Y-23906859D01*
X48566420Y-23870130D01*
X48566848Y-23869953D01*
X48592518Y-23859319D01*
X48757598Y-23790941D01*
X48929655Y-23675977D01*
X49075977Y-23529655D01*
X49190941Y-23357598D01*
X49264472Y-23180080D01*
X49270126Y-23166430D01*
X49270127Y-23166427D01*
X49270130Y-23166420D01*
X49306859Y-22981764D01*
X49310500Y-22974954D01*
X49310500Y-22754489D01*
X49309316Y-22750586D01*
X49271312Y-22559522D01*
X49271312Y-22559523D01*
X49270131Y-22553585D01*
X49270130Y-22553584D01*
X49270130Y-22553580D01*
X49270127Y-22553574D01*
X49270009Y-22552979D01*
X49268984Y-22550810D01*
X49222588Y-22438805D01*
X49191774Y-22364416D01*
X49191287Y-22363110D01*
X49190942Y-22362405D01*
X49190941Y-22362402D01*
X49075977Y-22190345D01*
X49064280Y-22178648D01*
X48966768Y-22081135D01*
X48953435Y-22061177D01*
X48950902Y-22055059D01*
X48950909Y-22007989D01*
X48984194Y-21974712D01*
X48986814Y-21973627D01*
X48990312Y-21972179D01*
X49013841Y-21967500D01*
X50046159Y-21967500D01*
X50069691Y-21972180D01*
X50073083Y-21973585D01*
X50075804Y-21974712D01*
X50075807Y-21974713D01*
X50109093Y-22007995D01*
X50109096Y-22055062D01*
X50106563Y-22061179D01*
X50093229Y-22081137D01*
X49984025Y-22190340D01*
X49869059Y-22362400D01*
X49869059Y-22362401D01*
X49869047Y-22362426D01*
X49789874Y-22553563D01*
X49789871Y-22553571D01*
X49789867Y-22553584D01*
X49789866Y-22553590D01*
X49749500Y-22756527D01*
X49749500Y-22963471D01*
X49789866Y-23166408D01*
X49789867Y-23166414D01*
X49789871Y-23166427D01*
X49849902Y-23311350D01*
X49850800Y-23313517D01*
X49869059Y-23357598D01*
X49884651Y-23380933D01*
X49886702Y-23384003D01*
X49886709Y-23384016D01*
X49984020Y-23529652D01*
X49984025Y-23529658D01*
X50104279Y-23649911D01*
X50109233Y-23661871D01*
X50130344Y-23675977D01*
X50206397Y-23726793D01*
X50302402Y-23790941D01*
X50325545Y-23800527D01*
X50373477Y-23820382D01*
X50373480Y-23820382D01*
X50373481Y-23820383D01*
X50493569Y-23870126D01*
X50493571Y-23870126D01*
X50493580Y-23870130D01*
X50690590Y-23909317D01*
X50694489Y-23910500D01*
X50903468Y-23910500D01*
X50914955Y-23910500D01*
X50921764Y-23906859D01*
X51106420Y-23870130D01*
X51106848Y-23869953D01*
X51132518Y-23859319D01*
X51297598Y-23790941D01*
X51469655Y-23675977D01*
X51615977Y-23529655D01*
X51730941Y-23357598D01*
X51804472Y-23180080D01*
X51810126Y-23166430D01*
X51810127Y-23166427D01*
X51810130Y-23166420D01*
X51846859Y-22981764D01*
X51850500Y-22974954D01*
X51850500Y-22754489D01*
X51849316Y-22750586D01*
X51811312Y-22559522D01*
X51811312Y-22559523D01*
X51810131Y-22553585D01*
X51810130Y-22553584D01*
X51810130Y-22553580D01*
X51810127Y-22553574D01*
X51810009Y-22552979D01*
X51808984Y-22550810D01*
X51762588Y-22438805D01*
X51731774Y-22364416D01*
X51731287Y-22363110D01*
X51730942Y-22362405D01*
X51730941Y-22362402D01*
X51615977Y-22190345D01*
X51604280Y-22178648D01*
X51506768Y-22081135D01*
X51493435Y-22061177D01*
X51490902Y-22055059D01*
X51490909Y-22007989D01*
X51524194Y-21974712D01*
X51526814Y-21973627D01*
X51530312Y-21972179D01*
X51553841Y-21967500D01*
X52586159Y-21967500D01*
X52609691Y-21972180D01*
X52613083Y-21973585D01*
X52615804Y-21974712D01*
X52615807Y-21974713D01*
X52649093Y-22007995D01*
X52649096Y-22055062D01*
X52646563Y-22061179D01*
X52633229Y-22081137D01*
X52524025Y-22190340D01*
X52409059Y-22362400D01*
X52409059Y-22362401D01*
X52409047Y-22362426D01*
X52329874Y-22553563D01*
X52329871Y-22553571D01*
X52329867Y-22553584D01*
X52329866Y-22553590D01*
X52289500Y-22756527D01*
X52289500Y-22963471D01*
X52329866Y-23166408D01*
X52329867Y-23166414D01*
X52329871Y-23166427D01*
X52389902Y-23311350D01*
X52390800Y-23313517D01*
X52409059Y-23357598D01*
X52424651Y-23380933D01*
X52426702Y-23384003D01*
X52426709Y-23384016D01*
X52524020Y-23529652D01*
X52524025Y-23529658D01*
X52644279Y-23649911D01*
X52649233Y-23661871D01*
X52670344Y-23675977D01*
X52746397Y-23726793D01*
X52842402Y-23790941D01*
X52865545Y-23800527D01*
X52913477Y-23820382D01*
X52913480Y-23820382D01*
X52913481Y-23820383D01*
X53033569Y-23870126D01*
X53033571Y-23870126D01*
X53033580Y-23870130D01*
X53230590Y-23909317D01*
X53234489Y-23910500D01*
X53443468Y-23910500D01*
X53454955Y-23910500D01*
X53461764Y-23906859D01*
X53646420Y-23870130D01*
X53646848Y-23869953D01*
X53672518Y-23859319D01*
X53837598Y-23790941D01*
X54009655Y-23675977D01*
X54155977Y-23529655D01*
X54270941Y-23357598D01*
X54344472Y-23180080D01*
X54350126Y-23166430D01*
X54350127Y-23166427D01*
X54350130Y-23166420D01*
X54386859Y-22981764D01*
X54390500Y-22974954D01*
X54390500Y-22754489D01*
X54389316Y-22750586D01*
X54351312Y-22559522D01*
X54351312Y-22559523D01*
X54350131Y-22553585D01*
X54350130Y-22553584D01*
X54350130Y-22553580D01*
X54350127Y-22553574D01*
X54350009Y-22552979D01*
X54348984Y-22550810D01*
X54302588Y-22438805D01*
X54271774Y-22364416D01*
X54271287Y-22363110D01*
X54270942Y-22362405D01*
X54270941Y-22362402D01*
X54155977Y-22190345D01*
X54144280Y-22178648D01*
X54046768Y-22081135D01*
X54033435Y-22061177D01*
X54030902Y-22055059D01*
X54030909Y-22007989D01*
X54064194Y-21974712D01*
X54066814Y-21973627D01*
X54070312Y-21972179D01*
X54093841Y-21967500D01*
X60130927Y-21967500D01*
X60154461Y-21972181D01*
X60175345Y-21980831D01*
X60195298Y-21994163D01*
X64865740Y-26664605D01*
X64872686Y-26672896D01*
X64875989Y-26677629D01*
X64877107Y-26680145D01*
X64936106Y-26763774D01*
X64936233Y-26763955D01*
X64941253Y-26786772D01*
X64946403Y-26809616D01*
X64946341Y-26809893D01*
X64946349Y-26809926D01*
X64946327Y-26809959D01*
X64945205Y-26815068D01*
X64934500Y-26855020D01*
X64934500Y-26999980D01*
X64972011Y-27139975D01*
X64972015Y-27139985D01*
X65044486Y-27265508D01*
X65044489Y-27265512D01*
X65044491Y-27265515D01*
X65146985Y-27368009D01*
X65272515Y-27440484D01*
X65272519Y-27440486D01*
X65272542Y-27440495D01*
X65273019Y-27440619D01*
X65291190Y-27445488D01*
X65412521Y-27478000D01*
X65557476Y-27478000D01*
X65557478Y-27478000D01*
X65588341Y-27469729D01*
X65619206Y-27461458D01*
X65669594Y-27447956D01*
X65679035Y-27446203D01*
X65685797Y-27445489D01*
X66128405Y-27307777D01*
X66146676Y-27305000D01*
X70614701Y-27305000D01*
X70625282Y-27302164D01*
X70657031Y-27293657D01*
X70710710Y-27279274D01*
X70796790Y-27229575D01*
X71634059Y-26392304D01*
X71648934Y-26381354D01*
X72059287Y-26165760D01*
X72067076Y-26159781D01*
X72073756Y-26155315D01*
X72173015Y-26098009D01*
X72275509Y-25995515D01*
X72347984Y-25869985D01*
X72375174Y-25768513D01*
X72385500Y-25729977D01*
X72385500Y-25585022D01*
X72385500Y-25585019D01*
X72348126Y-25445546D01*
X72347995Y-25445042D01*
X72347986Y-25445019D01*
X72333539Y-25419996D01*
X72275509Y-25319485D01*
X72173015Y-25216991D01*
X72173012Y-25216989D01*
X72173008Y-25216986D01*
X72047490Y-25144518D01*
X72047476Y-25144511D01*
X71907480Y-25107000D01*
X71907477Y-25107000D01*
X71907475Y-25107000D01*
X71762525Y-25107000D01*
X71762523Y-25107000D01*
X71762520Y-25107000D01*
X71622526Y-25144510D01*
X71622522Y-25144512D01*
X71622519Y-25144514D01*
X71622515Y-25144516D01*
X71548032Y-25187519D01*
X71496981Y-25216993D01*
X71394493Y-25319482D01*
X71394489Y-25319486D01*
X71394486Y-25319490D01*
X71336459Y-25419996D01*
X71331021Y-25427915D01*
X71326744Y-25433203D01*
X71326739Y-25433211D01*
X71111144Y-25843562D01*
X71100188Y-25858445D01*
X70435298Y-26523336D01*
X70415347Y-26536667D01*
X70394463Y-26545318D01*
X70370927Y-26550000D01*
X66146679Y-26550000D01*
X66128408Y-26547223D01*
X65769600Y-26435584D01*
X65748138Y-26423803D01*
X65433096Y-26157141D01*
X65433088Y-26157135D01*
X65423056Y-26151300D01*
X65410492Y-26141627D01*
X60556794Y-21287929D01*
X60556793Y-21287928D01*
X60556790Y-21287925D01*
X60556787Y-21287923D01*
X60556783Y-21287920D01*
X60492736Y-21250942D01*
X60470714Y-21238227D01*
X60470703Y-21238223D01*
X60470697Y-21238221D01*
X60374704Y-21212500D01*
X60374701Y-21212500D01*
X60374699Y-21212500D01*
X54093841Y-21212500D01*
X54070304Y-21207818D01*
X54064187Y-21205284D01*
X54030905Y-21171999D01*
X54030905Y-21124932D01*
X54033439Y-21118814D01*
X54046769Y-21098863D01*
X54097048Y-21048583D01*
X54155977Y-20989655D01*
X54270941Y-20817598D01*
X54350130Y-20626420D01*
X54386859Y-20441764D01*
X54390500Y-20434954D01*
X54390500Y-20214489D01*
X54389316Y-20210586D01*
X54351312Y-20019522D01*
X54351312Y-20019523D01*
X54350131Y-20013585D01*
X54350130Y-20013584D01*
X54350130Y-20013580D01*
X54350128Y-20013576D01*
X54350010Y-20012983D01*
X54348985Y-20010816D01*
X54307832Y-19911466D01*
X54270941Y-19822402D01*
X54155977Y-19650345D01*
X54103435Y-19597803D01*
X54075427Y-19569795D01*
X54046771Y-19541138D01*
X54033439Y-19521185D01*
X54030905Y-19515067D01*
X54030905Y-19502834D01*
X54028758Y-19497650D01*
X54030905Y-19492465D01*
X54030906Y-19467997D01*
X54064189Y-19434714D01*
X54066814Y-19433627D01*
X54070312Y-19432179D01*
X54093841Y-19427500D01*
X58473323Y-19427500D01*
X58491594Y-19430277D01*
X58612820Y-19467995D01*
X58928319Y-19566159D01*
X58934195Y-19567987D01*
X58934194Y-19567987D01*
X58934201Y-19567989D01*
X58943954Y-19569271D01*
X58951820Y-19570835D01*
X59033829Y-19592811D01*
X59062522Y-19600500D01*
X59207476Y-19600500D01*
X59207477Y-19600500D01*
X59221694Y-19596690D01*
X59269206Y-19583958D01*
X59269207Y-19583958D01*
X59347478Y-19562986D01*
X59347478Y-19562985D01*
X59347485Y-19562984D01*
X59473015Y-19490509D01*
X59575509Y-19388015D01*
X59647984Y-19262485D01*
X59671851Y-19173414D01*
X59685500Y-19122477D01*
X59685500Y-18977522D01*
X59685500Y-18977519D01*
X59648126Y-18838046D01*
X59647995Y-18837542D01*
X59647986Y-18837519D01*
X59636842Y-18818217D01*
X59575509Y-18711985D01*
X59473015Y-18609491D01*
X59473012Y-18609489D01*
X59473008Y-18609486D01*
X59347490Y-18537018D01*
X59347476Y-18537011D01*
X59207480Y-18499500D01*
X59207477Y-18499500D01*
X59207475Y-18499500D01*
X59062525Y-18499500D01*
X59062523Y-18499500D01*
X59007052Y-18514362D01*
X58950400Y-18529542D01*
X58940956Y-18531295D01*
X58938111Y-18531596D01*
X58934201Y-18532010D01*
X58491591Y-18669723D01*
X58473320Y-18672500D01*
X57743305Y-18672500D01*
X57719766Y-18667817D01*
X57711115Y-18664233D01*
X57677837Y-18630955D01*
X57676244Y-18627110D01*
X57673657Y-18587654D01*
X57689229Y-18529542D01*
X57700500Y-18487479D01*
X57700500Y-18342520D01*
X57690181Y-18304015D01*
X57662985Y-18202519D01*
X57662984Y-18202515D01*
X57661252Y-18199515D01*
X57659612Y-18195409D01*
X57659653Y-18192121D01*
X57655749Y-18180620D01*
X57654527Y-18171337D01*
X57660182Y-18150231D01*
X57660206Y-18148343D01*
X57660858Y-18147706D01*
X57666708Y-18125874D01*
X57667165Y-18125279D01*
X57700028Y-18103334D01*
X57702796Y-18102593D01*
X57718705Y-18100500D01*
X73746698Y-18100500D01*
X73748884Y-18100539D01*
X73751105Y-18100618D01*
X73753280Y-18100734D01*
X73956834Y-18115292D01*
X73961164Y-18115757D01*
X73965517Y-18116382D01*
X73969826Y-18117160D01*
X74166049Y-18159845D01*
X74170275Y-18160925D01*
X74174488Y-18162162D01*
X74178624Y-18163539D01*
X74366735Y-18233701D01*
X74370771Y-18235371D01*
X74374790Y-18237207D01*
X74378701Y-18239165D01*
X74554902Y-18335379D01*
X74558679Y-18337620D01*
X74562365Y-18339989D01*
X74565969Y-18342492D01*
X74726679Y-18462797D01*
X74730096Y-18465550D01*
X74733413Y-18468424D01*
X74736628Y-18471417D01*
X74878581Y-18613370D01*
X74881574Y-18616585D01*
X74884448Y-18619902D01*
X74887201Y-18623319D01*
X75007506Y-18784029D01*
X75010009Y-18787633D01*
X75012378Y-18791319D01*
X75014619Y-18795096D01*
X75110830Y-18971292D01*
X75112797Y-18975222D01*
X75114622Y-18979219D01*
X75116300Y-18983271D01*
X75186451Y-19171352D01*
X75187837Y-19175514D01*
X75189072Y-19179719D01*
X75190159Y-19183976D01*
X75232836Y-19380161D01*
X75233615Y-19384482D01*
X75234239Y-19388822D01*
X75234708Y-19393187D01*
X75246852Y-19562984D01*
X75249263Y-19596694D01*
X75249380Y-19598864D01*
X75249460Y-19601082D01*
X75249500Y-19603299D01*
X75249500Y-44946699D01*
X75249460Y-44948915D01*
X75249380Y-44951134D01*
X75249263Y-44953306D01*
X75234707Y-45156813D01*
X75234240Y-45161166D01*
X75233617Y-45165505D01*
X75232836Y-45169837D01*
X75190159Y-45366022D01*
X75189072Y-45370279D01*
X75187837Y-45374484D01*
X75186451Y-45378646D01*
X75116300Y-45566727D01*
X75114622Y-45570779D01*
X75112797Y-45574776D01*
X75110830Y-45578706D01*
X75014619Y-45754902D01*
X75012378Y-45758679D01*
X75010009Y-45762365D01*
X75007506Y-45765969D01*
X74887201Y-45926679D01*
X74884448Y-45930096D01*
X74881574Y-45933413D01*
X74878581Y-45936628D01*
X74736628Y-46078581D01*
X74733413Y-46081574D01*
X74730096Y-46084448D01*
X74726679Y-46087201D01*
X74565969Y-46207506D01*
X74562365Y-46210009D01*
X74558679Y-46212378D01*
X74554902Y-46214619D01*
X74378706Y-46310830D01*
X74374776Y-46312797D01*
X74370779Y-46314622D01*
X74366727Y-46316300D01*
X74178646Y-46386451D01*
X74174484Y-46387837D01*
X74170279Y-46389072D01*
X74166022Y-46390159D01*
X73969837Y-46432836D01*
X73965516Y-46433615D01*
X73961176Y-46434239D01*
X73956811Y-46434708D01*
X73802355Y-46445755D01*
X73753303Y-46449263D01*
X73751133Y-46449380D01*
X73748915Y-46449460D01*
X73746698Y-46449500D01*
X24603302Y-46449500D01*
X24601089Y-46449460D01*
X24598867Y-46449380D01*
X24596692Y-46449263D01*
X24393184Y-46434707D01*
X24388827Y-46434239D01*
X24384490Y-46433616D01*
X24380162Y-46432836D01*
X24183976Y-46390159D01*
X24179719Y-46389072D01*
X24175514Y-46387837D01*
X24171352Y-46386451D01*
X23983271Y-46316300D01*
X23979219Y-46314622D01*
X23975222Y-46312797D01*
X23971292Y-46310830D01*
X23795096Y-46214619D01*
X23791319Y-46212378D01*
X23787633Y-46210009D01*
X23784029Y-46207506D01*
X23623319Y-46087201D01*
X23619902Y-46084448D01*
X23616585Y-46081574D01*
X23613370Y-46078581D01*
X23471417Y-45936628D01*
X23468424Y-45933413D01*
X23465550Y-45930096D01*
X23462797Y-45926679D01*
X23342492Y-45765969D01*
X23339989Y-45762365D01*
X23337620Y-45758679D01*
X23335379Y-45754902D01*
X23239168Y-45578706D01*
X23237201Y-45574776D01*
X23235376Y-45570779D01*
X23233705Y-45566746D01*
X23172091Y-45401551D01*
X23163541Y-45378631D01*
X23162161Y-45374483D01*
X23160927Y-45370282D01*
X23159843Y-45366037D01*
X23117160Y-45169826D01*
X23116381Y-45165505D01*
X23115757Y-45161164D01*
X23115292Y-45156826D01*
X23100736Y-44953306D01*
X23100618Y-44951104D01*
X23100539Y-44948882D01*
X23100500Y-44946697D01*
X23100500Y-44639732D01*
X23105179Y-44616203D01*
X23107712Y-44610086D01*
X23140992Y-44576799D01*
X23188062Y-44576794D01*
X23194179Y-44579327D01*
X23214137Y-44592661D01*
X23261985Y-44640509D01*
X23387515Y-44712984D01*
X23387519Y-44712986D01*
X23387542Y-44712995D01*
X23388019Y-44713119D01*
X23427733Y-44723760D01*
X23527521Y-44750500D01*
X23527523Y-44750500D01*
X23527525Y-44750500D01*
X23578927Y-44750500D01*
X23602461Y-44755181D01*
X23623345Y-44763831D01*
X23643298Y-44777163D01*
X24168210Y-45302075D01*
X24168213Y-45302077D01*
X24168216Y-45302079D01*
X24168225Y-45302084D01*
X24168229Y-45302087D01*
X24254280Y-45351769D01*
X24254282Y-45351770D01*
X24254284Y-45351771D01*
X24254286Y-45351772D01*
X24254290Y-45351774D01*
X24254294Y-45351775D01*
X24254331Y-45351789D01*
X24254824Y-45351917D01*
X24350297Y-45377500D01*
X59049700Y-45377500D01*
X59049701Y-45377500D01*
X59060959Y-45374483D01*
X59092031Y-45366157D01*
X59145710Y-45351774D01*
X59231790Y-45302075D01*
X60594104Y-43939760D01*
X60614056Y-43926431D01*
X60634941Y-43917781D01*
X60658474Y-43913100D01*
X60724468Y-43913100D01*
X60748002Y-43917781D01*
X60768886Y-43926431D01*
X60788839Y-43939763D01*
X60825185Y-43976109D01*
X60950715Y-44048584D01*
X60950719Y-44048586D01*
X60950742Y-44048595D01*
X60951219Y-44048719D01*
X60967177Y-44052995D01*
X61090721Y-44086100D01*
X61235676Y-44086100D01*
X61235677Y-44086100D01*
X61248022Y-44082791D01*
X61297406Y-44069558D01*
X61297407Y-44069558D01*
X61375678Y-44048586D01*
X61375678Y-44048585D01*
X61375685Y-44048584D01*
X61501215Y-43976109D01*
X61603709Y-43873615D01*
X61676184Y-43748085D01*
X61678039Y-43741161D01*
X61702600Y-43649501D01*
X61702600Y-43649499D01*
X61713700Y-43608078D01*
X61713700Y-43463119D01*
X61676326Y-43323646D01*
X61676195Y-43323142D01*
X61676186Y-43323119D01*
X61668318Y-43309491D01*
X61603709Y-43197585D01*
X61501215Y-43095091D01*
X61501212Y-43095089D01*
X61501208Y-43095086D01*
X61375690Y-43022618D01*
X61375676Y-43022611D01*
X61235680Y-42985100D01*
X61235677Y-42985100D01*
X61235675Y-42985100D01*
X61090725Y-42985100D01*
X61090723Y-42985100D01*
X61090720Y-42985100D01*
X60950726Y-43022610D01*
X60950722Y-43022612D01*
X60950719Y-43022614D01*
X60950715Y-43022616D01*
X60943091Y-43027018D01*
X60825181Y-43095093D01*
X60788837Y-43131437D01*
X60768888Y-43144767D01*
X60748005Y-43153418D01*
X60724468Y-43158100D01*
X60414699Y-43158100D01*
X60318700Y-43183822D01*
X60318692Y-43183825D01*
X60268595Y-43212746D01*
X60268594Y-43212748D01*
X60232611Y-43233522D01*
X60232608Y-43233524D01*
X60232606Y-43233526D01*
X58870298Y-44595836D01*
X58850347Y-44609167D01*
X58829463Y-44617818D01*
X58805927Y-44622500D01*
X34572073Y-44622500D01*
X34548536Y-44617818D01*
X34542419Y-44615284D01*
X34509137Y-44581999D01*
X34509135Y-44534937D01*
X34511668Y-44528820D01*
X34524999Y-44508865D01*
X34706704Y-44327160D01*
X34726655Y-44313831D01*
X34747540Y-44305181D01*
X34771073Y-44300500D01*
X34822477Y-44300500D01*
X34834822Y-44297191D01*
X34884206Y-44283958D01*
X34884207Y-44283958D01*
X34962478Y-44262986D01*
X34962478Y-44262985D01*
X34962485Y-44262984D01*
X35088015Y-44190509D01*
X35190509Y-44088015D01*
X35262984Y-43962485D01*
X35285618Y-43878015D01*
X35300500Y-43822477D01*
X35300500Y-43677522D01*
X35300500Y-43677519D01*
X35281892Y-43608077D01*
X35262985Y-43537519D01*
X35262984Y-43537515D01*
X35222571Y-43467518D01*
X45072300Y-43467518D01*
X45072300Y-43612480D01*
X45109811Y-43752475D01*
X45109815Y-43752485D01*
X45182286Y-43878008D01*
X45182289Y-43878012D01*
X45182291Y-43878015D01*
X45284785Y-43980509D01*
X45410315Y-44052984D01*
X45410319Y-44052986D01*
X45410342Y-44052995D01*
X45410819Y-44053119D01*
X45450533Y-44063760D01*
X45550321Y-44090500D01*
X45695276Y-44090500D01*
X45695277Y-44090500D01*
X45707622Y-44087191D01*
X45757006Y-44073958D01*
X45757007Y-44073958D01*
X45835278Y-44052986D01*
X45835278Y-44052985D01*
X45835285Y-44052984D01*
X45960815Y-43980509D01*
X45997165Y-43944158D01*
X46017114Y-43930831D01*
X46037999Y-43922181D01*
X46061532Y-43917500D01*
X49676901Y-43917500D01*
X49693320Y-43913100D01*
X49719231Y-43906157D01*
X49772910Y-43891774D01*
X49858990Y-43842075D01*
X50502704Y-43198361D01*
X50522656Y-43185031D01*
X50543541Y-43176381D01*
X50567074Y-43171700D01*
X50618477Y-43171700D01*
X50630822Y-43168391D01*
X50680206Y-43155158D01*
X50680207Y-43155158D01*
X50758478Y-43134186D01*
X50758478Y-43134185D01*
X50758485Y-43134184D01*
X50884015Y-43061709D01*
X50986509Y-42959215D01*
X51058984Y-42833685D01*
X51073540Y-42779358D01*
X51096500Y-42693677D01*
X51096500Y-42548722D01*
X51096500Y-42548719D01*
X51059126Y-42409246D01*
X51058995Y-42408742D01*
X51058986Y-42408719D01*
X51058984Y-42408715D01*
X50986509Y-42283185D01*
X50884015Y-42180691D01*
X50884012Y-42180689D01*
X50884008Y-42180686D01*
X50758490Y-42108218D01*
X50758476Y-42108211D01*
X50618480Y-42070700D01*
X50618477Y-42070700D01*
X50618475Y-42070700D01*
X50473525Y-42070700D01*
X50473523Y-42070700D01*
X50473520Y-42070700D01*
X50333526Y-42108210D01*
X50333522Y-42108212D01*
X50207981Y-42180693D01*
X50105493Y-42283181D01*
X50033012Y-42408722D01*
X50033010Y-42408727D01*
X49995500Y-42548718D01*
X49995500Y-42600125D01*
X49990818Y-42623660D01*
X49982167Y-42644545D01*
X49968836Y-42664497D01*
X49497498Y-43135836D01*
X49477547Y-43149167D01*
X49456663Y-43157818D01*
X49433127Y-43162500D01*
X46061532Y-43162500D01*
X46037997Y-43157818D01*
X46017112Y-43149167D01*
X45997160Y-43135836D01*
X45960818Y-43099494D01*
X45960817Y-43099493D01*
X45960815Y-43099491D01*
X45960812Y-43099489D01*
X45960808Y-43099486D01*
X45835290Y-43027018D01*
X45835276Y-43027011D01*
X45695280Y-42989500D01*
X45695277Y-42989500D01*
X45695275Y-42989500D01*
X45550325Y-42989500D01*
X45550323Y-42989500D01*
X45550320Y-42989500D01*
X45410326Y-43027010D01*
X45410322Y-43027012D01*
X45410319Y-43027014D01*
X45410315Y-43027016D01*
X45292406Y-43095091D01*
X45284781Y-43099493D01*
X45182293Y-43201981D01*
X45182290Y-43201985D01*
X45182290Y-43201986D01*
X45162064Y-43237018D01*
X45109812Y-43327522D01*
X45109810Y-43327527D01*
X45072300Y-43467518D01*
X35222571Y-43467518D01*
X35190509Y-43411985D01*
X35088015Y-43309491D01*
X35088012Y-43309489D01*
X35088008Y-43309486D01*
X34962490Y-43237018D01*
X34962476Y-43237011D01*
X34822480Y-43199500D01*
X34822477Y-43199500D01*
X34822475Y-43199500D01*
X34677525Y-43199500D01*
X34677523Y-43199500D01*
X34677520Y-43199500D01*
X34537526Y-43237010D01*
X34537522Y-43237012D01*
X34411981Y-43309493D01*
X34309493Y-43411981D01*
X34309490Y-43411985D01*
X34309490Y-43411986D01*
X34279967Y-43463122D01*
X34237012Y-43537522D01*
X34237010Y-43537527D01*
X34199500Y-43677518D01*
X34199500Y-43728926D01*
X34194818Y-43752461D01*
X34186167Y-43773346D01*
X34172836Y-43793298D01*
X34120298Y-43845836D01*
X34100347Y-43859167D01*
X34079463Y-43867818D01*
X34055927Y-43872500D01*
X25438732Y-43872500D01*
X25415197Y-43867818D01*
X25394312Y-43859167D01*
X25374360Y-43845836D01*
X25338018Y-43809494D01*
X25338017Y-43809493D01*
X25338015Y-43809491D01*
X25338012Y-43809489D01*
X25338008Y-43809486D01*
X25212490Y-43737018D01*
X25212476Y-43737011D01*
X25072480Y-43699500D01*
X25072477Y-43699500D01*
X25072475Y-43699500D01*
X24927525Y-43699500D01*
X24927523Y-43699500D01*
X24927520Y-43699500D01*
X24787526Y-43737010D01*
X24787522Y-43737012D01*
X24787519Y-43737014D01*
X24787515Y-43737016D01*
X24665714Y-43807338D01*
X24661981Y-43809493D01*
X24559493Y-43911981D01*
X24559490Y-43911985D01*
X24559490Y-43911986D01*
X24515881Y-43987519D01*
X24487012Y-44037522D01*
X24487010Y-44037527D01*
X24449500Y-44177518D01*
X24449500Y-44322481D01*
X24457629Y-44352817D01*
X24459199Y-44376761D01*
X24458335Y-44383325D01*
X24434801Y-44424089D01*
X24389349Y-44436275D01*
X24387941Y-44436090D01*
X24352466Y-44418601D01*
X24177163Y-44243298D01*
X24163831Y-44223344D01*
X24155181Y-44202459D01*
X24150500Y-44178926D01*
X24150500Y-44127519D01*
X24113126Y-43988046D01*
X24112995Y-43987542D01*
X24112986Y-43987519D01*
X24108939Y-43980509D01*
X24040509Y-43861985D01*
X23938015Y-43759491D01*
X23938012Y-43759489D01*
X23938008Y-43759486D01*
X23812490Y-43687018D01*
X23812476Y-43687011D01*
X23672480Y-43649500D01*
X23672477Y-43649500D01*
X23672475Y-43649500D01*
X23527525Y-43649500D01*
X23527523Y-43649500D01*
X23527520Y-43649500D01*
X23387526Y-43687010D01*
X23387522Y-43687012D01*
X23387519Y-43687014D01*
X23387515Y-43687016D01*
X23274137Y-43752475D01*
X23261981Y-43759493D01*
X23214137Y-43807338D01*
X23194179Y-43820672D01*
X23188062Y-43823205D01*
X23140992Y-43823200D01*
X23107712Y-43789913D01*
X23105179Y-43783796D01*
X23100500Y-43760267D01*
X23100500Y-40304518D01*
X49949500Y-40304518D01*
X49949500Y-40449480D01*
X49987011Y-40589475D01*
X49987015Y-40589485D01*
X50059486Y-40715008D01*
X50059489Y-40715012D01*
X50059491Y-40715015D01*
X50161985Y-40817509D01*
X50287515Y-40889984D01*
X50287519Y-40889986D01*
X50287542Y-40889995D01*
X50288019Y-40890119D01*
X50327733Y-40900760D01*
X50427521Y-40927500D01*
X50572476Y-40927500D01*
X50572477Y-40927500D01*
X50584822Y-40924191D01*
X50634206Y-40910958D01*
X50634207Y-40910958D01*
X50712478Y-40889986D01*
X50712478Y-40889985D01*
X50712485Y-40889984D01*
X50838015Y-40817509D01*
X50874365Y-40781158D01*
X50894314Y-40767831D01*
X50915199Y-40759181D01*
X50938732Y-40754500D01*
X56061268Y-40754500D01*
X56084802Y-40759181D01*
X56105686Y-40767831D01*
X56125639Y-40781163D01*
X56161985Y-40817509D01*
X56287515Y-40889984D01*
X56287519Y-40889986D01*
X56287542Y-40889995D01*
X56288019Y-40890119D01*
X56327733Y-40900760D01*
X56427521Y-40927500D01*
X56572476Y-40927500D01*
X56572477Y-40927500D01*
X56584822Y-40924191D01*
X56634206Y-40910958D01*
X56634207Y-40910958D01*
X56712478Y-40889986D01*
X56712478Y-40889985D01*
X56712485Y-40889984D01*
X56838015Y-40817509D01*
X56874365Y-40781158D01*
X56894314Y-40767831D01*
X56915199Y-40759181D01*
X56938732Y-40754500D01*
X61061268Y-40754500D01*
X61084802Y-40759181D01*
X61105686Y-40767831D01*
X61125639Y-40781163D01*
X61161985Y-40817509D01*
X61287515Y-40889984D01*
X61287519Y-40889986D01*
X61287542Y-40889995D01*
X61288019Y-40890119D01*
X61327733Y-40900760D01*
X61427521Y-40927500D01*
X61572476Y-40927500D01*
X61572477Y-40927500D01*
X61584822Y-40924191D01*
X61634206Y-40910958D01*
X61634207Y-40910958D01*
X61712478Y-40889986D01*
X61712478Y-40889985D01*
X61712485Y-40889984D01*
X61838015Y-40817509D01*
X61874365Y-40781158D01*
X61894314Y-40767831D01*
X61915199Y-40759181D01*
X61938732Y-40754500D01*
X65296215Y-40754500D01*
X65319749Y-40759181D01*
X65340633Y-40767831D01*
X65360586Y-40781163D01*
X66006498Y-41427075D01*
X66006501Y-41427077D01*
X66006504Y-41427079D01*
X66006513Y-41427084D01*
X66006517Y-41427087D01*
X66092568Y-41476769D01*
X66092570Y-41476770D01*
X66092572Y-41476771D01*
X66092574Y-41476772D01*
X66092578Y-41476774D01*
X66092583Y-41476775D01*
X66092588Y-41476777D01*
X66092615Y-41476784D01*
X66188587Y-41502500D01*
X66188589Y-41502500D01*
X66193951Y-41502500D01*
X66201395Y-41504389D01*
X66203440Y-41505915D01*
X66209802Y-41507181D01*
X66230686Y-41515831D01*
X66250639Y-41529163D01*
X66286985Y-41565509D01*
X66412515Y-41637984D01*
X66412519Y-41637986D01*
X66412542Y-41637995D01*
X66413019Y-41638119D01*
X66452733Y-41648760D01*
X66552521Y-41675500D01*
X66697476Y-41675500D01*
X66697477Y-41675500D01*
X66709822Y-41672191D01*
X66759206Y-41658958D01*
X66759207Y-41658958D01*
X66837478Y-41637986D01*
X66837478Y-41637985D01*
X66837485Y-41637984D01*
X66963015Y-41565509D01*
X67065509Y-41463015D01*
X67137984Y-41337485D01*
X67152540Y-41283158D01*
X67175500Y-41197477D01*
X67175500Y-41052522D01*
X67175500Y-41052519D01*
X67138126Y-40913046D01*
X67137995Y-40912542D01*
X67137986Y-40912519D01*
X67137085Y-40910958D01*
X67065509Y-40786985D01*
X66963015Y-40684491D01*
X66963012Y-40684489D01*
X66963008Y-40684486D01*
X66837490Y-40612018D01*
X66837476Y-40612011D01*
X66697480Y-40574500D01*
X66697477Y-40574500D01*
X66697475Y-40574500D01*
X66552525Y-40574500D01*
X66552523Y-40574500D01*
X66552520Y-40574500D01*
X66412526Y-40612010D01*
X66412520Y-40612013D01*
X66412511Y-40612017D01*
X66412503Y-40612022D01*
X66366758Y-40638432D01*
X66344035Y-40646145D01*
X66330194Y-40647967D01*
X66291415Y-40640252D01*
X66288935Y-40638820D01*
X66285113Y-40635887D01*
X66284728Y-40635784D01*
X66284528Y-40635438D01*
X66276201Y-40629048D01*
X65722082Y-40074929D01*
X65722081Y-40074928D01*
X65722078Y-40074925D01*
X65722075Y-40074923D01*
X65722071Y-40074920D01*
X65679037Y-40050074D01*
X65636002Y-40025227D01*
X65635991Y-40025223D01*
X65635985Y-40025221D01*
X65539992Y-39999500D01*
X65539989Y-39999500D01*
X65539987Y-39999500D01*
X61938732Y-39999500D01*
X61915197Y-39994818D01*
X61894312Y-39986167D01*
X61874360Y-39972836D01*
X61838018Y-39936494D01*
X61838017Y-39936493D01*
X61838015Y-39936491D01*
X61838012Y-39936489D01*
X61838008Y-39936486D01*
X61712490Y-39864018D01*
X61712476Y-39864011D01*
X61572480Y-39826500D01*
X61572477Y-39826500D01*
X61572475Y-39826500D01*
X61427525Y-39826500D01*
X61427523Y-39826500D01*
X61427520Y-39826500D01*
X61287526Y-39864010D01*
X61287522Y-39864012D01*
X61161981Y-39936493D01*
X61125637Y-39972837D01*
X61105688Y-39986167D01*
X61084805Y-39994818D01*
X61061268Y-39999500D01*
X56938732Y-39999500D01*
X56915197Y-39994818D01*
X56894312Y-39986167D01*
X56874360Y-39972836D01*
X56838018Y-39936494D01*
X56838017Y-39936493D01*
X56838015Y-39936491D01*
X56838012Y-39936489D01*
X56838008Y-39936486D01*
X56712490Y-39864018D01*
X56712476Y-39864011D01*
X56572480Y-39826500D01*
X56572477Y-39826500D01*
X56572475Y-39826500D01*
X56427525Y-39826500D01*
X56427523Y-39826500D01*
X56427520Y-39826500D01*
X56287526Y-39864010D01*
X56287522Y-39864012D01*
X56161981Y-39936493D01*
X56125637Y-39972837D01*
X56105688Y-39986167D01*
X56084805Y-39994818D01*
X56061268Y-39999500D01*
X50938732Y-39999500D01*
X50915197Y-39994818D01*
X50894312Y-39986167D01*
X50874360Y-39972836D01*
X50838018Y-39936494D01*
X50838017Y-39936493D01*
X50838015Y-39936491D01*
X50838012Y-39936489D01*
X50838008Y-39936486D01*
X50712490Y-39864018D01*
X50712476Y-39864011D01*
X50572480Y-39826500D01*
X50572477Y-39826500D01*
X50572475Y-39826500D01*
X50427525Y-39826500D01*
X50427523Y-39826500D01*
X50427520Y-39826500D01*
X50287526Y-39864010D01*
X50287522Y-39864012D01*
X50161981Y-39936493D01*
X50059493Y-40038981D01*
X49987012Y-40164522D01*
X49987010Y-40164527D01*
X49949500Y-40304518D01*
X23100500Y-40304518D01*
X23100500Y-37502128D01*
X24349500Y-37502128D01*
X24349500Y-38697872D01*
X24355908Y-38757481D01*
X24355909Y-38757485D01*
X24399287Y-38873786D01*
X24403624Y-38885415D01*
X24406204Y-38892332D01*
X24432548Y-38927522D01*
X24492454Y-39007546D01*
X24607669Y-39093796D01*
X24742517Y-39144091D01*
X24802127Y-39150500D01*
X25997872Y-39150499D01*
X26057483Y-39144091D01*
X26192331Y-39093796D01*
X26307546Y-39007546D01*
X26393796Y-38892331D01*
X26444091Y-38757483D01*
X26450500Y-38697873D01*
X26450499Y-37996527D01*
X26889500Y-37996527D01*
X26889500Y-38203471D01*
X26929866Y-38406408D01*
X26929867Y-38406414D01*
X26929871Y-38406427D01*
X26929874Y-38406435D01*
X27009034Y-38597540D01*
X27009058Y-38597597D01*
X27009121Y-38597690D01*
X27115893Y-38757488D01*
X27124025Y-38769658D01*
X27244279Y-38889911D01*
X27249233Y-38901871D01*
X27270345Y-38915977D01*
X27270344Y-38915977D01*
X27356664Y-38973653D01*
X27442402Y-39030941D01*
X27531466Y-39067832D01*
X27631573Y-39109299D01*
X27633080Y-39109987D01*
X27633430Y-39110100D01*
X27633579Y-39110129D01*
X27633580Y-39110130D01*
X27830590Y-39149317D01*
X27834489Y-39150500D01*
X28043468Y-39150500D01*
X28054955Y-39150500D01*
X28061764Y-39146859D01*
X28246420Y-39110130D01*
X28246493Y-39110100D01*
X28272518Y-39099319D01*
X28437598Y-39030941D01*
X28609655Y-38915977D01*
X28755977Y-38769655D01*
X28870941Y-38597598D01*
X28950130Y-38406420D01*
X28986859Y-38221764D01*
X28990500Y-38214954D01*
X28990500Y-37998354D01*
X28990500Y-37996532D01*
X28990499Y-37996531D01*
X28990498Y-37996527D01*
X29429500Y-37996527D01*
X29429500Y-38203471D01*
X29469866Y-38406408D01*
X29469867Y-38406414D01*
X29469871Y-38406427D01*
X29469874Y-38406435D01*
X29549034Y-38597540D01*
X29549058Y-38597597D01*
X29549121Y-38597690D01*
X29655893Y-38757488D01*
X29664025Y-38769658D01*
X29784279Y-38889911D01*
X29789233Y-38901871D01*
X29810345Y-38915977D01*
X29810344Y-38915977D01*
X29896664Y-38973653D01*
X29982402Y-39030941D01*
X30071466Y-39067832D01*
X30171573Y-39109299D01*
X30173080Y-39109987D01*
X30173430Y-39110100D01*
X30173579Y-39110129D01*
X30173580Y-39110130D01*
X30370590Y-39149317D01*
X30374489Y-39150500D01*
X30583468Y-39150500D01*
X30594955Y-39150500D01*
X30601764Y-39146859D01*
X30786420Y-39110130D01*
X30786493Y-39110100D01*
X30812518Y-39099319D01*
X30977598Y-39030941D01*
X31149655Y-38915977D01*
X31295977Y-38769655D01*
X31410941Y-38597598D01*
X31490130Y-38406420D01*
X31526859Y-38221764D01*
X31530500Y-38214954D01*
X31530500Y-37998354D01*
X31530500Y-37996532D01*
X31530499Y-37996531D01*
X31530498Y-37996527D01*
X31969500Y-37996527D01*
X31969500Y-38203471D01*
X32009866Y-38406408D01*
X32009867Y-38406414D01*
X32009871Y-38406427D01*
X32009874Y-38406435D01*
X32089034Y-38597540D01*
X32089058Y-38597597D01*
X32089121Y-38597690D01*
X32195893Y-38757488D01*
X32204025Y-38769658D01*
X32324279Y-38889911D01*
X32329233Y-38901871D01*
X32350345Y-38915977D01*
X32350344Y-38915977D01*
X32436664Y-38973653D01*
X32522402Y-39030941D01*
X32611466Y-39067832D01*
X32711573Y-39109299D01*
X32713080Y-39109987D01*
X32713430Y-39110100D01*
X32713579Y-39110129D01*
X32713580Y-39110130D01*
X32910590Y-39149317D01*
X32914489Y-39150500D01*
X33123468Y-39150500D01*
X33134955Y-39150500D01*
X33141764Y-39146859D01*
X33326420Y-39110130D01*
X33326493Y-39110100D01*
X33352518Y-39099319D01*
X33517598Y-39030941D01*
X33689655Y-38915977D01*
X33835977Y-38769655D01*
X33950941Y-38597598D01*
X34030130Y-38406420D01*
X34066859Y-38221764D01*
X34070500Y-38214954D01*
X34070500Y-37998354D01*
X34070500Y-37996532D01*
X34070499Y-37996531D01*
X34070498Y-37996527D01*
X34509500Y-37996527D01*
X34509500Y-38203471D01*
X34549866Y-38406408D01*
X34549867Y-38406414D01*
X34549871Y-38406427D01*
X34549874Y-38406435D01*
X34629034Y-38597540D01*
X34629058Y-38597597D01*
X34629121Y-38597690D01*
X34735893Y-38757488D01*
X34744025Y-38769658D01*
X34864279Y-38889911D01*
X34869233Y-38901871D01*
X34890345Y-38915977D01*
X34890344Y-38915977D01*
X34976664Y-38973653D01*
X35062402Y-39030941D01*
X35151466Y-39067832D01*
X35251573Y-39109299D01*
X35253080Y-39109987D01*
X35253430Y-39110100D01*
X35253579Y-39110129D01*
X35253580Y-39110130D01*
X35450590Y-39149317D01*
X35454489Y-39150500D01*
X35663468Y-39150500D01*
X35674955Y-39150500D01*
X35681764Y-39146859D01*
X35866420Y-39110130D01*
X35866493Y-39110100D01*
X35892518Y-39099319D01*
X36057598Y-39030941D01*
X36229655Y-38915977D01*
X36375977Y-38769655D01*
X36490941Y-38597598D01*
X36570130Y-38406420D01*
X36606859Y-38221764D01*
X36610500Y-38214954D01*
X36610500Y-37998354D01*
X36610500Y-37996532D01*
X36610499Y-37996531D01*
X36610498Y-37996527D01*
X37049500Y-37996527D01*
X37049500Y-38203471D01*
X37089866Y-38406408D01*
X37089867Y-38406414D01*
X37089871Y-38406427D01*
X37089874Y-38406435D01*
X37169034Y-38597540D01*
X37169058Y-38597597D01*
X37169121Y-38597690D01*
X37275893Y-38757488D01*
X37284025Y-38769658D01*
X37404279Y-38889911D01*
X37409233Y-38901871D01*
X37430345Y-38915977D01*
X37430344Y-38915977D01*
X37516664Y-38973653D01*
X37602402Y-39030941D01*
X37691466Y-39067832D01*
X37791573Y-39109299D01*
X37793080Y-39109987D01*
X37793430Y-39110100D01*
X37793579Y-39110129D01*
X37793580Y-39110130D01*
X37990590Y-39149317D01*
X37994489Y-39150500D01*
X38203468Y-39150500D01*
X38214955Y-39150500D01*
X38221764Y-39146859D01*
X38406420Y-39110130D01*
X38406493Y-39110100D01*
X38432518Y-39099319D01*
X38597598Y-39030941D01*
X38769655Y-38915977D01*
X38915977Y-38769655D01*
X39030941Y-38597598D01*
X39110130Y-38406420D01*
X39146859Y-38221764D01*
X39150500Y-38214954D01*
X39150500Y-37998354D01*
X39150500Y-37996532D01*
X39150499Y-37996531D01*
X39150498Y-37996527D01*
X39589500Y-37996527D01*
X39589500Y-38203471D01*
X39629866Y-38406408D01*
X39629867Y-38406414D01*
X39629871Y-38406427D01*
X39629874Y-38406435D01*
X39709034Y-38597540D01*
X39709058Y-38597597D01*
X39709121Y-38597690D01*
X39815893Y-38757488D01*
X39824025Y-38769658D01*
X39944279Y-38889911D01*
X39949233Y-38901871D01*
X39970345Y-38915977D01*
X39970344Y-38915977D01*
X40056664Y-38973653D01*
X40142402Y-39030941D01*
X40231466Y-39067832D01*
X40331573Y-39109299D01*
X40333080Y-39109987D01*
X40333430Y-39110100D01*
X40333579Y-39110129D01*
X40333580Y-39110130D01*
X40530590Y-39149317D01*
X40534489Y-39150500D01*
X40743468Y-39150500D01*
X40754955Y-39150500D01*
X40761764Y-39146859D01*
X40946420Y-39110130D01*
X40946493Y-39110100D01*
X40972518Y-39099319D01*
X41137598Y-39030941D01*
X41309655Y-38915977D01*
X41455977Y-38769655D01*
X41570941Y-38597598D01*
X41650130Y-38406420D01*
X41686859Y-38221764D01*
X41690500Y-38214954D01*
X41690500Y-37998354D01*
X41690500Y-37996532D01*
X41690499Y-37996531D01*
X41690498Y-37996527D01*
X42129500Y-37996527D01*
X42129500Y-38203471D01*
X42169866Y-38406408D01*
X42169867Y-38406414D01*
X42169871Y-38406427D01*
X42169874Y-38406435D01*
X42249034Y-38597540D01*
X42249058Y-38597597D01*
X42249121Y-38597690D01*
X42355893Y-38757488D01*
X42364025Y-38769658D01*
X42484279Y-38889911D01*
X42489233Y-38901871D01*
X42510345Y-38915977D01*
X42510344Y-38915977D01*
X42596664Y-38973653D01*
X42682402Y-39030941D01*
X42771466Y-39067832D01*
X42871573Y-39109299D01*
X42873080Y-39109987D01*
X42873430Y-39110100D01*
X42873579Y-39110129D01*
X42873580Y-39110130D01*
X43070590Y-39149317D01*
X43074489Y-39150500D01*
X43283468Y-39150500D01*
X43294955Y-39150500D01*
X43301764Y-39146859D01*
X43486420Y-39110130D01*
X43486493Y-39110100D01*
X43512518Y-39099319D01*
X43677598Y-39030941D01*
X43849655Y-38915977D01*
X43995977Y-38769655D01*
X44110941Y-38597598D01*
X44190130Y-38406420D01*
X44226859Y-38221764D01*
X44230500Y-38214954D01*
X44230500Y-37998354D01*
X44230500Y-37996532D01*
X44230499Y-37996531D01*
X44230498Y-37996527D01*
X44669500Y-37996527D01*
X44669500Y-38203471D01*
X44709866Y-38406408D01*
X44709867Y-38406414D01*
X44709871Y-38406427D01*
X44709874Y-38406435D01*
X44789034Y-38597540D01*
X44789058Y-38597597D01*
X44789121Y-38597690D01*
X44895893Y-38757488D01*
X44904025Y-38769658D01*
X45024279Y-38889911D01*
X45029233Y-38901871D01*
X45050345Y-38915977D01*
X45050344Y-38915977D01*
X45136664Y-38973653D01*
X45222402Y-39030941D01*
X45311466Y-39067832D01*
X45411573Y-39109299D01*
X45413080Y-39109987D01*
X45413430Y-39110100D01*
X45413579Y-39110129D01*
X45413580Y-39110130D01*
X45610590Y-39149317D01*
X45614489Y-39150500D01*
X45823468Y-39150500D01*
X45834955Y-39150500D01*
X45841764Y-39146859D01*
X46026420Y-39110130D01*
X46026493Y-39110100D01*
X46052518Y-39099319D01*
X46217598Y-39030941D01*
X46389655Y-38915977D01*
X46535977Y-38769655D01*
X46650941Y-38597598D01*
X46730130Y-38406420D01*
X46766859Y-38221764D01*
X46770500Y-38214954D01*
X46770500Y-37998354D01*
X46770500Y-37996532D01*
X46770499Y-37996531D01*
X46770498Y-37996527D01*
X47209500Y-37996527D01*
X47209500Y-38203471D01*
X47249866Y-38406408D01*
X47249867Y-38406414D01*
X47249871Y-38406427D01*
X47249874Y-38406435D01*
X47329034Y-38597540D01*
X47329058Y-38597597D01*
X47329121Y-38597690D01*
X47435893Y-38757488D01*
X47444025Y-38769658D01*
X47564279Y-38889911D01*
X47569233Y-38901871D01*
X47590345Y-38915977D01*
X47590344Y-38915977D01*
X47676664Y-38973653D01*
X47762402Y-39030941D01*
X47851466Y-39067832D01*
X47951573Y-39109299D01*
X47953080Y-39109987D01*
X47953430Y-39110100D01*
X47953579Y-39110129D01*
X47953580Y-39110130D01*
X48150590Y-39149317D01*
X48154489Y-39150500D01*
X48363468Y-39150500D01*
X48374955Y-39150500D01*
X48381764Y-39146859D01*
X48566420Y-39110130D01*
X48566493Y-39110100D01*
X48592518Y-39099319D01*
X48757598Y-39030941D01*
X48929655Y-38915977D01*
X49075977Y-38769655D01*
X49190941Y-38597598D01*
X49270130Y-38406420D01*
X49306859Y-38221764D01*
X49310500Y-38214954D01*
X49310500Y-37998354D01*
X49310500Y-37996532D01*
X49310499Y-37996531D01*
X49310498Y-37996527D01*
X49749500Y-37996527D01*
X49749500Y-38203471D01*
X49789866Y-38406408D01*
X49789867Y-38406414D01*
X49789871Y-38406427D01*
X49789874Y-38406435D01*
X49869034Y-38597540D01*
X49869058Y-38597597D01*
X49869121Y-38597690D01*
X49975893Y-38757488D01*
X49984025Y-38769658D01*
X50104279Y-38889911D01*
X50109233Y-38901871D01*
X50130345Y-38915977D01*
X50130344Y-38915977D01*
X50216664Y-38973653D01*
X50302402Y-39030941D01*
X50391466Y-39067832D01*
X50491573Y-39109299D01*
X50493080Y-39109987D01*
X50493430Y-39110100D01*
X50493579Y-39110129D01*
X50493580Y-39110130D01*
X50690590Y-39149317D01*
X50694489Y-39150500D01*
X50903468Y-39150500D01*
X50914955Y-39150500D01*
X50921764Y-39146859D01*
X51106420Y-39110130D01*
X51106493Y-39110100D01*
X51132518Y-39099319D01*
X51297598Y-39030941D01*
X51469655Y-38915977D01*
X51615977Y-38769655D01*
X51730941Y-38597598D01*
X51810130Y-38406420D01*
X51846859Y-38221764D01*
X51850500Y-38214954D01*
X51850500Y-37998354D01*
X51850500Y-37996532D01*
X51850499Y-37996531D01*
X51850498Y-37996527D01*
X52289500Y-37996527D01*
X52289500Y-38203471D01*
X52329866Y-38406408D01*
X52329867Y-38406414D01*
X52329871Y-38406427D01*
X52329874Y-38406435D01*
X52409034Y-38597540D01*
X52409058Y-38597597D01*
X52409121Y-38597690D01*
X52515893Y-38757488D01*
X52524025Y-38769658D01*
X52644279Y-38889911D01*
X52649233Y-38901871D01*
X52670345Y-38915977D01*
X52670344Y-38915977D01*
X52756664Y-38973653D01*
X52842402Y-39030941D01*
X52931466Y-39067832D01*
X53031573Y-39109299D01*
X53033080Y-39109987D01*
X53033430Y-39110100D01*
X53033579Y-39110129D01*
X53033580Y-39110130D01*
X53230590Y-39149317D01*
X53234489Y-39150500D01*
X53443468Y-39150500D01*
X53454955Y-39150500D01*
X53461764Y-39146859D01*
X53646420Y-39110130D01*
X53646493Y-39110100D01*
X53672518Y-39099319D01*
X53837598Y-39030941D01*
X54009655Y-38915977D01*
X54155977Y-38769655D01*
X54270941Y-38597598D01*
X54350130Y-38406420D01*
X54386859Y-38221764D01*
X54390500Y-38214954D01*
X54390500Y-37994489D01*
X54389316Y-37990586D01*
X54373657Y-37911864D01*
X54363736Y-37861985D01*
X54350130Y-37793580D01*
X54350127Y-37793574D01*
X54350126Y-37793569D01*
X54349384Y-37791778D01*
X54349378Y-37791747D01*
X54349301Y-37791577D01*
X54324536Y-37731790D01*
X54271774Y-37604416D01*
X54271287Y-37603110D01*
X54270942Y-37602405D01*
X54270941Y-37602402D01*
X54155977Y-37430345D01*
X54035719Y-37310087D01*
X54030765Y-37298127D01*
X53850231Y-37177500D01*
X53837597Y-37169058D01*
X53837591Y-37169055D01*
X53837584Y-37169052D01*
X53646435Y-37089874D01*
X53646427Y-37089871D01*
X53646414Y-37089867D01*
X53646408Y-37089866D01*
X53443471Y-37049500D01*
X53443468Y-37049500D01*
X53443465Y-37049500D01*
X53236535Y-37049500D01*
X53236532Y-37049500D01*
X53236529Y-37049500D01*
X53033590Y-37089866D01*
X53033584Y-37089867D01*
X53033571Y-37089871D01*
X53033563Y-37089874D01*
X52842426Y-37169047D01*
X52842401Y-37169059D01*
X52842400Y-37169059D01*
X52670340Y-37284025D01*
X52524025Y-37430340D01*
X52409059Y-37602400D01*
X52409059Y-37602401D01*
X52409047Y-37602426D01*
X52329874Y-37793563D01*
X52329871Y-37793571D01*
X52329867Y-37793584D01*
X52329866Y-37793590D01*
X52289500Y-37996527D01*
X51850498Y-37996527D01*
X51823736Y-37861985D01*
X51810130Y-37793580D01*
X51810128Y-37793577D01*
X51809871Y-37792827D01*
X51809301Y-37791577D01*
X51784536Y-37731790D01*
X51731774Y-37604416D01*
X51731287Y-37603110D01*
X51730942Y-37602405D01*
X51730941Y-37602402D01*
X51615977Y-37430345D01*
X51495719Y-37310087D01*
X51490765Y-37298127D01*
X51310231Y-37177500D01*
X51297597Y-37169058D01*
X51297591Y-37169055D01*
X51297584Y-37169052D01*
X51106435Y-37089874D01*
X51106427Y-37089871D01*
X51106414Y-37089867D01*
X51106408Y-37089866D01*
X50903471Y-37049500D01*
X50903468Y-37049500D01*
X50903465Y-37049500D01*
X50696535Y-37049500D01*
X50696532Y-37049500D01*
X50696529Y-37049500D01*
X50493590Y-37089866D01*
X50493584Y-37089867D01*
X50493571Y-37089871D01*
X50493563Y-37089874D01*
X50302426Y-37169047D01*
X50302401Y-37169059D01*
X50302400Y-37169059D01*
X50130340Y-37284025D01*
X49984025Y-37430340D01*
X49869059Y-37602400D01*
X49869059Y-37602401D01*
X49869047Y-37602426D01*
X49789874Y-37793563D01*
X49789871Y-37793571D01*
X49789867Y-37793584D01*
X49789866Y-37793590D01*
X49749500Y-37996527D01*
X49310498Y-37996527D01*
X49283736Y-37861985D01*
X49270130Y-37793580D01*
X49270128Y-37793577D01*
X49269871Y-37792827D01*
X49269301Y-37791577D01*
X49244536Y-37731790D01*
X49191774Y-37604416D01*
X49191287Y-37603110D01*
X49190942Y-37602405D01*
X49190941Y-37602402D01*
X49075977Y-37430345D01*
X48955719Y-37310087D01*
X48950765Y-37298127D01*
X48770231Y-37177500D01*
X48757597Y-37169058D01*
X48757591Y-37169055D01*
X48757584Y-37169052D01*
X48566435Y-37089874D01*
X48566427Y-37089871D01*
X48566414Y-37089867D01*
X48566408Y-37089866D01*
X48363471Y-37049500D01*
X48363468Y-37049500D01*
X48363465Y-37049500D01*
X48156535Y-37049500D01*
X48156532Y-37049500D01*
X48156529Y-37049500D01*
X47953590Y-37089866D01*
X47953584Y-37089867D01*
X47953571Y-37089871D01*
X47953563Y-37089874D01*
X47762426Y-37169047D01*
X47762401Y-37169059D01*
X47762400Y-37169059D01*
X47590340Y-37284025D01*
X47444025Y-37430340D01*
X47329059Y-37602400D01*
X47329059Y-37602401D01*
X47329047Y-37602426D01*
X47249874Y-37793563D01*
X47249871Y-37793571D01*
X47249867Y-37793584D01*
X47249866Y-37793590D01*
X47209500Y-37996527D01*
X46770498Y-37996527D01*
X46743736Y-37861985D01*
X46730130Y-37793580D01*
X46730128Y-37793577D01*
X46729871Y-37792827D01*
X46729301Y-37791577D01*
X46704536Y-37731790D01*
X46651774Y-37604416D01*
X46651287Y-37603110D01*
X46650942Y-37602405D01*
X46650941Y-37602402D01*
X46535977Y-37430345D01*
X46415719Y-37310087D01*
X46410765Y-37298127D01*
X46230231Y-37177500D01*
X46217597Y-37169058D01*
X46217591Y-37169055D01*
X46217584Y-37169052D01*
X46026435Y-37089874D01*
X46026427Y-37089871D01*
X46026414Y-37089867D01*
X46026408Y-37089866D01*
X45823471Y-37049500D01*
X45823468Y-37049500D01*
X45823465Y-37049500D01*
X45616535Y-37049500D01*
X45616532Y-37049500D01*
X45616529Y-37049500D01*
X45413590Y-37089866D01*
X45413584Y-37089867D01*
X45413571Y-37089871D01*
X45413563Y-37089874D01*
X45222426Y-37169047D01*
X45222401Y-37169059D01*
X45222400Y-37169059D01*
X45050340Y-37284025D01*
X44904025Y-37430340D01*
X44789059Y-37602400D01*
X44789059Y-37602401D01*
X44789047Y-37602426D01*
X44709874Y-37793563D01*
X44709871Y-37793571D01*
X44709867Y-37793584D01*
X44709866Y-37793590D01*
X44669500Y-37996527D01*
X44230498Y-37996527D01*
X44203736Y-37861985D01*
X44190130Y-37793580D01*
X44190128Y-37793577D01*
X44189871Y-37792827D01*
X44189301Y-37791577D01*
X44164536Y-37731790D01*
X44111774Y-37604416D01*
X44111287Y-37603110D01*
X44110942Y-37602405D01*
X44110941Y-37602402D01*
X43995977Y-37430345D01*
X43875719Y-37310087D01*
X43870765Y-37298127D01*
X43690231Y-37177500D01*
X43677597Y-37169058D01*
X43677591Y-37169055D01*
X43677584Y-37169052D01*
X43486435Y-37089874D01*
X43486427Y-37089871D01*
X43486414Y-37089867D01*
X43486408Y-37089866D01*
X43283471Y-37049500D01*
X43283468Y-37049500D01*
X43283465Y-37049500D01*
X43076535Y-37049500D01*
X43076532Y-37049500D01*
X43076529Y-37049500D01*
X42873590Y-37089866D01*
X42873584Y-37089867D01*
X42873571Y-37089871D01*
X42873563Y-37089874D01*
X42682426Y-37169047D01*
X42682401Y-37169059D01*
X42682400Y-37169059D01*
X42510340Y-37284025D01*
X42364025Y-37430340D01*
X42249059Y-37602400D01*
X42249059Y-37602401D01*
X42249047Y-37602426D01*
X42169874Y-37793563D01*
X42169871Y-37793571D01*
X42169867Y-37793584D01*
X42169866Y-37793590D01*
X42129500Y-37996527D01*
X41690498Y-37996527D01*
X41663736Y-37861985D01*
X41650130Y-37793580D01*
X41650128Y-37793577D01*
X41649871Y-37792827D01*
X41649301Y-37791577D01*
X41624536Y-37731790D01*
X41571774Y-37604416D01*
X41571287Y-37603110D01*
X41570942Y-37602405D01*
X41570941Y-37602402D01*
X41455977Y-37430345D01*
X41335719Y-37310087D01*
X41330765Y-37298127D01*
X41150231Y-37177500D01*
X41137597Y-37169058D01*
X41137591Y-37169055D01*
X41137584Y-37169052D01*
X40946435Y-37089874D01*
X40946427Y-37089871D01*
X40946414Y-37089867D01*
X40946408Y-37089866D01*
X40743471Y-37049500D01*
X40743468Y-37049500D01*
X40743465Y-37049500D01*
X40536535Y-37049500D01*
X40536532Y-37049500D01*
X40536529Y-37049500D01*
X40333590Y-37089866D01*
X40333584Y-37089867D01*
X40333571Y-37089871D01*
X40333563Y-37089874D01*
X40142426Y-37169047D01*
X40142401Y-37169059D01*
X40142400Y-37169059D01*
X39970340Y-37284025D01*
X39824025Y-37430340D01*
X39709059Y-37602400D01*
X39709059Y-37602401D01*
X39709047Y-37602426D01*
X39629874Y-37793563D01*
X39629871Y-37793571D01*
X39629867Y-37793584D01*
X39629866Y-37793590D01*
X39589500Y-37996527D01*
X39150498Y-37996527D01*
X39123736Y-37861985D01*
X39110130Y-37793580D01*
X39110128Y-37793577D01*
X39109871Y-37792827D01*
X39109301Y-37791577D01*
X39084536Y-37731790D01*
X39031774Y-37604416D01*
X39031287Y-37603110D01*
X39030942Y-37602405D01*
X39030941Y-37602402D01*
X38915977Y-37430345D01*
X38795719Y-37310087D01*
X38790765Y-37298127D01*
X38610231Y-37177500D01*
X38597597Y-37169058D01*
X38597591Y-37169055D01*
X38597584Y-37169052D01*
X38406435Y-37089874D01*
X38406427Y-37089871D01*
X38406414Y-37089867D01*
X38406408Y-37089866D01*
X38203471Y-37049500D01*
X38203468Y-37049500D01*
X38203465Y-37049500D01*
X37996535Y-37049500D01*
X37996532Y-37049500D01*
X37996529Y-37049500D01*
X37793590Y-37089866D01*
X37793584Y-37089867D01*
X37793571Y-37089871D01*
X37793563Y-37089874D01*
X37602426Y-37169047D01*
X37602401Y-37169059D01*
X37602400Y-37169059D01*
X37430340Y-37284025D01*
X37284025Y-37430340D01*
X37169059Y-37602400D01*
X37169059Y-37602401D01*
X37169047Y-37602426D01*
X37089874Y-37793563D01*
X37089871Y-37793571D01*
X37089867Y-37793584D01*
X37089866Y-37793590D01*
X37049500Y-37996527D01*
X36610498Y-37996527D01*
X36583736Y-37861985D01*
X36570130Y-37793580D01*
X36570128Y-37793577D01*
X36569871Y-37792827D01*
X36569301Y-37791577D01*
X36544536Y-37731790D01*
X36491774Y-37604416D01*
X36491287Y-37603110D01*
X36490942Y-37602405D01*
X36490941Y-37602402D01*
X36375977Y-37430345D01*
X36255719Y-37310087D01*
X36250765Y-37298127D01*
X36070231Y-37177500D01*
X36057597Y-37169058D01*
X36057591Y-37169055D01*
X36057584Y-37169052D01*
X35866435Y-37089874D01*
X35866427Y-37089871D01*
X35866414Y-37089867D01*
X35866408Y-37089866D01*
X35663471Y-37049500D01*
X35663468Y-37049500D01*
X35663465Y-37049500D01*
X35456535Y-37049500D01*
X35456532Y-37049500D01*
X35456529Y-37049500D01*
X35253590Y-37089866D01*
X35253584Y-37089867D01*
X35253571Y-37089871D01*
X35253563Y-37089874D01*
X35062426Y-37169047D01*
X35062401Y-37169059D01*
X35062400Y-37169059D01*
X34890340Y-37284025D01*
X34744025Y-37430340D01*
X34629059Y-37602400D01*
X34629059Y-37602401D01*
X34629047Y-37602426D01*
X34549874Y-37793563D01*
X34549871Y-37793571D01*
X34549867Y-37793584D01*
X34549866Y-37793590D01*
X34509500Y-37996527D01*
X34070498Y-37996527D01*
X34043736Y-37861985D01*
X34030130Y-37793580D01*
X34030128Y-37793577D01*
X34029871Y-37792827D01*
X34029301Y-37791577D01*
X34004536Y-37731790D01*
X33951774Y-37604416D01*
X33951287Y-37603110D01*
X33950942Y-37602405D01*
X33950941Y-37602402D01*
X33835977Y-37430345D01*
X33715719Y-37310087D01*
X33710765Y-37298127D01*
X33530231Y-37177500D01*
X33517597Y-37169058D01*
X33517591Y-37169055D01*
X33517584Y-37169052D01*
X33326435Y-37089874D01*
X33326427Y-37089871D01*
X33326414Y-37089867D01*
X33326408Y-37089866D01*
X33123471Y-37049500D01*
X33123468Y-37049500D01*
X33123465Y-37049500D01*
X32916535Y-37049500D01*
X32916532Y-37049500D01*
X32916529Y-37049500D01*
X32713590Y-37089866D01*
X32713584Y-37089867D01*
X32713571Y-37089871D01*
X32713563Y-37089874D01*
X32522426Y-37169047D01*
X32522401Y-37169059D01*
X32522400Y-37169059D01*
X32350340Y-37284025D01*
X32204025Y-37430340D01*
X32089059Y-37602400D01*
X32089059Y-37602401D01*
X32089047Y-37602426D01*
X32009874Y-37793563D01*
X32009871Y-37793571D01*
X32009867Y-37793584D01*
X32009866Y-37793590D01*
X31969500Y-37996527D01*
X31530498Y-37996527D01*
X31503736Y-37861985D01*
X31490130Y-37793580D01*
X31490128Y-37793577D01*
X31489871Y-37792827D01*
X31489301Y-37791577D01*
X31464536Y-37731790D01*
X31411774Y-37604416D01*
X31411287Y-37603110D01*
X31410942Y-37602405D01*
X31410941Y-37602402D01*
X31295977Y-37430345D01*
X31175719Y-37310087D01*
X31170765Y-37298127D01*
X30990231Y-37177500D01*
X30977597Y-37169058D01*
X30977591Y-37169055D01*
X30977584Y-37169052D01*
X30786435Y-37089874D01*
X30786427Y-37089871D01*
X30786414Y-37089867D01*
X30786408Y-37089866D01*
X30583471Y-37049500D01*
X30583468Y-37049500D01*
X30583465Y-37049500D01*
X30376535Y-37049500D01*
X30376532Y-37049500D01*
X30376529Y-37049500D01*
X30173590Y-37089866D01*
X30173584Y-37089867D01*
X30173571Y-37089871D01*
X30173563Y-37089874D01*
X29982426Y-37169047D01*
X29982401Y-37169059D01*
X29982400Y-37169059D01*
X29810340Y-37284025D01*
X29664025Y-37430340D01*
X29549059Y-37602400D01*
X29549059Y-37602401D01*
X29549047Y-37602426D01*
X29469874Y-37793563D01*
X29469871Y-37793571D01*
X29469867Y-37793584D01*
X29469866Y-37793590D01*
X29429500Y-37996527D01*
X28990498Y-37996527D01*
X28963736Y-37861985D01*
X28950130Y-37793580D01*
X28950128Y-37793577D01*
X28949871Y-37792827D01*
X28949301Y-37791577D01*
X28924536Y-37731790D01*
X28871774Y-37604416D01*
X28871287Y-37603110D01*
X28870942Y-37602405D01*
X28870941Y-37602402D01*
X28755977Y-37430345D01*
X28635719Y-37310087D01*
X28630765Y-37298127D01*
X28450231Y-37177500D01*
X28437597Y-37169058D01*
X28437591Y-37169055D01*
X28437584Y-37169052D01*
X28246435Y-37089874D01*
X28246427Y-37089871D01*
X28246414Y-37089867D01*
X28246408Y-37089866D01*
X28043471Y-37049500D01*
X28043468Y-37049500D01*
X28043465Y-37049500D01*
X27836535Y-37049500D01*
X27836532Y-37049500D01*
X27836529Y-37049500D01*
X27633590Y-37089866D01*
X27633584Y-37089867D01*
X27633571Y-37089871D01*
X27633563Y-37089874D01*
X27442426Y-37169047D01*
X27442401Y-37169059D01*
X27442400Y-37169059D01*
X27270340Y-37284025D01*
X27124025Y-37430340D01*
X27009059Y-37602400D01*
X27009059Y-37602401D01*
X27009047Y-37602426D01*
X26929874Y-37793563D01*
X26929871Y-37793571D01*
X26929867Y-37793584D01*
X26929866Y-37793590D01*
X26889500Y-37996527D01*
X26450499Y-37996527D01*
X26450499Y-37502128D01*
X26444091Y-37442517D01*
X26393796Y-37307669D01*
X26307546Y-37192454D01*
X26210867Y-37120080D01*
X26192333Y-37106205D01*
X26192328Y-37106203D01*
X26181260Y-37102075D01*
X26148532Y-37089868D01*
X26148527Y-37089866D01*
X26060567Y-37057058D01*
X26058446Y-37056135D01*
X26056518Y-37055680D01*
X26054209Y-37055557D01*
X25997873Y-37049500D01*
X25997871Y-37049500D01*
X24802127Y-37049500D01*
X24772322Y-37052704D01*
X24742517Y-37055908D01*
X24742510Y-37055910D01*
X24607686Y-37106196D01*
X24607666Y-37106204D01*
X24492454Y-37192454D01*
X24406204Y-37307666D01*
X24406196Y-37307686D01*
X24355866Y-37442625D01*
X24355679Y-37443570D01*
X24355677Y-37443577D01*
X24355674Y-37443596D01*
X24355567Y-37445584D01*
X24355576Y-37445612D01*
X24351734Y-37481348D01*
X24349500Y-37502128D01*
X23100500Y-37502128D01*
X23100500Y-34962118D01*
X24349500Y-34962118D01*
X24349500Y-34962128D01*
X24349500Y-36157872D01*
X24355908Y-36217481D01*
X24355909Y-36217485D01*
X24387049Y-36300974D01*
X24405301Y-36349911D01*
X24406203Y-36352328D01*
X24406205Y-36352333D01*
X24423905Y-36375977D01*
X24492454Y-36467546D01*
X24607669Y-36553796D01*
X24742517Y-36604091D01*
X24802127Y-36610500D01*
X25997872Y-36610499D01*
X26057483Y-36604091D01*
X26192331Y-36553796D01*
X26307546Y-36467546D01*
X26393796Y-36352331D01*
X26444091Y-36217483D01*
X26450500Y-36157873D01*
X26450499Y-35456527D01*
X26889500Y-35456527D01*
X26889500Y-35663471D01*
X26929866Y-35866408D01*
X26929867Y-35866414D01*
X26929871Y-35866427D01*
X26967692Y-35957731D01*
X26988378Y-36007671D01*
X27009059Y-36057597D01*
X27009059Y-36057598D01*
X27065796Y-36142512D01*
X27124021Y-36229653D01*
X27244279Y-36349911D01*
X27249233Y-36361871D01*
X27270344Y-36375977D01*
X27339972Y-36422500D01*
X27442402Y-36490941D01*
X27531466Y-36527832D01*
X27631573Y-36569299D01*
X27633080Y-36569987D01*
X27633430Y-36570100D01*
X27633579Y-36570129D01*
X27633580Y-36570130D01*
X27830590Y-36609317D01*
X27834489Y-36610500D01*
X28043468Y-36610500D01*
X28054955Y-36610500D01*
X28061764Y-36606859D01*
X28246420Y-36570130D01*
X28246493Y-36570100D01*
X28284419Y-36554390D01*
X28437598Y-36490941D01*
X28609655Y-36375977D01*
X28755977Y-36229655D01*
X28870941Y-36057598D01*
X28948960Y-35869245D01*
X28950126Y-35866430D01*
X28950127Y-35866427D01*
X28950130Y-35866420D01*
X28986859Y-35681764D01*
X28990500Y-35674954D01*
X28990500Y-35458356D01*
X28990500Y-35456532D01*
X28990499Y-35456531D01*
X28990498Y-35456527D01*
X29429500Y-35456527D01*
X29429500Y-35663471D01*
X29469866Y-35866408D01*
X29469867Y-35866414D01*
X29469871Y-35866427D01*
X29507692Y-35957731D01*
X29528378Y-36007671D01*
X29549059Y-36057597D01*
X29549059Y-36057598D01*
X29605796Y-36142512D01*
X29664021Y-36229653D01*
X29784279Y-36349911D01*
X29789233Y-36361871D01*
X29810344Y-36375977D01*
X29879972Y-36422500D01*
X29982402Y-36490941D01*
X30071466Y-36527832D01*
X30171573Y-36569299D01*
X30173080Y-36569987D01*
X30173430Y-36570100D01*
X30173579Y-36570129D01*
X30173580Y-36570130D01*
X30370590Y-36609317D01*
X30374489Y-36610500D01*
X30583468Y-36610500D01*
X30594955Y-36610500D01*
X30601764Y-36606859D01*
X30786420Y-36570130D01*
X30786493Y-36570100D01*
X30824419Y-36554390D01*
X30977598Y-36490941D01*
X31149655Y-36375977D01*
X31295977Y-36229655D01*
X31410941Y-36057598D01*
X31488960Y-35869245D01*
X31490126Y-35866430D01*
X31490127Y-35866427D01*
X31490130Y-35866420D01*
X31526859Y-35681764D01*
X31530500Y-35674954D01*
X31530500Y-35458356D01*
X31530500Y-35456532D01*
X31530499Y-35456531D01*
X31530498Y-35456527D01*
X31969500Y-35456527D01*
X31969500Y-35663471D01*
X32009866Y-35866408D01*
X32009867Y-35866414D01*
X32009871Y-35866427D01*
X32047692Y-35957731D01*
X32068378Y-36007671D01*
X32089059Y-36057597D01*
X32089059Y-36057598D01*
X32145796Y-36142512D01*
X32204021Y-36229653D01*
X32324279Y-36349911D01*
X32329233Y-36361871D01*
X32350344Y-36375977D01*
X32419972Y-36422500D01*
X32522402Y-36490941D01*
X32611466Y-36527832D01*
X32711573Y-36569299D01*
X32713080Y-36569987D01*
X32713430Y-36570100D01*
X32713579Y-36570129D01*
X32713580Y-36570130D01*
X32910590Y-36609317D01*
X32914489Y-36610500D01*
X33123468Y-36610500D01*
X33134955Y-36610500D01*
X33141764Y-36606859D01*
X33326420Y-36570130D01*
X33326493Y-36570100D01*
X33364419Y-36554390D01*
X33517598Y-36490941D01*
X33689655Y-36375977D01*
X33835977Y-36229655D01*
X33950941Y-36057598D01*
X34028960Y-35869245D01*
X34030126Y-35866430D01*
X34030127Y-35866427D01*
X34030130Y-35866420D01*
X34066859Y-35681764D01*
X34070500Y-35674954D01*
X34070500Y-35458356D01*
X34070500Y-35456532D01*
X34070499Y-35456531D01*
X34070498Y-35456527D01*
X34509500Y-35456527D01*
X34509500Y-35663471D01*
X34549866Y-35866408D01*
X34549867Y-35866414D01*
X34549871Y-35866427D01*
X34587692Y-35957731D01*
X34608378Y-36007671D01*
X34629059Y-36057597D01*
X34629059Y-36057598D01*
X34685796Y-36142512D01*
X34744021Y-36229653D01*
X34864279Y-36349911D01*
X34869233Y-36361871D01*
X34890344Y-36375977D01*
X34959972Y-36422500D01*
X35062402Y-36490941D01*
X35151466Y-36527832D01*
X35251573Y-36569299D01*
X35253080Y-36569987D01*
X35253430Y-36570100D01*
X35253579Y-36570129D01*
X35253580Y-36570130D01*
X35450590Y-36609317D01*
X35454489Y-36610500D01*
X35663468Y-36610500D01*
X35674955Y-36610500D01*
X35681764Y-36606859D01*
X35866420Y-36570130D01*
X35866493Y-36570100D01*
X35904419Y-36554390D01*
X36057598Y-36490941D01*
X36229655Y-36375977D01*
X36375977Y-36229655D01*
X36490941Y-36057598D01*
X36568960Y-35869245D01*
X36570126Y-35866430D01*
X36570127Y-35866427D01*
X36570130Y-35866420D01*
X36606859Y-35681764D01*
X36610500Y-35674954D01*
X36610500Y-35458356D01*
X36610500Y-35456532D01*
X36610499Y-35456531D01*
X36610498Y-35456527D01*
X37049500Y-35456527D01*
X37049500Y-35663471D01*
X37089866Y-35866408D01*
X37089867Y-35866414D01*
X37089871Y-35866427D01*
X37127692Y-35957731D01*
X37148378Y-36007671D01*
X37169059Y-36057597D01*
X37169059Y-36057598D01*
X37225796Y-36142512D01*
X37284021Y-36229653D01*
X37404279Y-36349911D01*
X37409233Y-36361871D01*
X37430344Y-36375977D01*
X37499972Y-36422500D01*
X37602402Y-36490941D01*
X37691466Y-36527832D01*
X37791573Y-36569299D01*
X37793080Y-36569987D01*
X37793430Y-36570100D01*
X37793579Y-36570129D01*
X37793580Y-36570130D01*
X37990590Y-36609317D01*
X37994489Y-36610500D01*
X38203468Y-36610500D01*
X38214955Y-36610500D01*
X38221764Y-36606859D01*
X38406420Y-36570130D01*
X38406493Y-36570100D01*
X38444419Y-36554390D01*
X38597598Y-36490941D01*
X38769655Y-36375977D01*
X38915977Y-36229655D01*
X39030941Y-36057598D01*
X39108960Y-35869245D01*
X39110126Y-35866430D01*
X39110127Y-35866427D01*
X39110130Y-35866420D01*
X39146859Y-35681764D01*
X39150500Y-35674954D01*
X39150500Y-35458356D01*
X39150500Y-35456532D01*
X39150499Y-35456531D01*
X39150498Y-35456527D01*
X39589500Y-35456527D01*
X39589500Y-35663471D01*
X39629866Y-35866408D01*
X39629867Y-35866414D01*
X39629871Y-35866427D01*
X39667692Y-35957731D01*
X39688378Y-36007671D01*
X39709059Y-36057597D01*
X39709059Y-36057598D01*
X39765796Y-36142512D01*
X39824021Y-36229653D01*
X39944279Y-36349911D01*
X39949233Y-36361871D01*
X39970344Y-36375977D01*
X40039972Y-36422500D01*
X40142402Y-36490941D01*
X40231466Y-36527832D01*
X40331573Y-36569299D01*
X40333080Y-36569987D01*
X40333430Y-36570100D01*
X40333579Y-36570129D01*
X40333580Y-36570130D01*
X40530590Y-36609317D01*
X40534489Y-36610500D01*
X40743468Y-36610500D01*
X40754955Y-36610500D01*
X40761764Y-36606859D01*
X40946420Y-36570130D01*
X40946493Y-36570100D01*
X40984419Y-36554390D01*
X41137598Y-36490941D01*
X41309655Y-36375977D01*
X41455977Y-36229655D01*
X41570941Y-36057598D01*
X41648960Y-35869245D01*
X41650126Y-35866430D01*
X41650127Y-35866427D01*
X41650130Y-35866420D01*
X41686859Y-35681764D01*
X41690500Y-35674954D01*
X41690500Y-35458356D01*
X41690500Y-35456532D01*
X41690499Y-35456531D01*
X41690498Y-35456527D01*
X42129500Y-35456527D01*
X42129500Y-35663471D01*
X42169866Y-35866408D01*
X42169867Y-35866414D01*
X42169871Y-35866427D01*
X42207692Y-35957731D01*
X42228378Y-36007671D01*
X42249059Y-36057597D01*
X42249059Y-36057598D01*
X42305796Y-36142512D01*
X42364021Y-36229653D01*
X42484279Y-36349911D01*
X42489233Y-36361871D01*
X42510344Y-36375977D01*
X42579972Y-36422500D01*
X42682402Y-36490941D01*
X42771466Y-36527832D01*
X42871573Y-36569299D01*
X42873080Y-36569987D01*
X42873430Y-36570100D01*
X42873579Y-36570129D01*
X42873580Y-36570130D01*
X43070590Y-36609317D01*
X43074489Y-36610500D01*
X43283468Y-36610500D01*
X43294955Y-36610500D01*
X43301764Y-36606859D01*
X43486420Y-36570130D01*
X43486493Y-36570100D01*
X43524419Y-36554390D01*
X43677598Y-36490941D01*
X43849655Y-36375977D01*
X43995977Y-36229655D01*
X44110941Y-36057598D01*
X44188960Y-35869245D01*
X44190126Y-35866430D01*
X44190127Y-35866427D01*
X44190130Y-35866420D01*
X44226859Y-35681764D01*
X44230500Y-35674954D01*
X44230500Y-35458356D01*
X44230500Y-35456532D01*
X44230499Y-35456531D01*
X44230498Y-35456527D01*
X44669500Y-35456527D01*
X44669500Y-35663471D01*
X44709866Y-35866408D01*
X44709867Y-35866414D01*
X44709871Y-35866427D01*
X44747692Y-35957731D01*
X44768378Y-36007671D01*
X44789059Y-36057597D01*
X44789059Y-36057598D01*
X44845796Y-36142512D01*
X44904021Y-36229653D01*
X45024279Y-36349911D01*
X45029233Y-36361871D01*
X45050344Y-36375977D01*
X45119972Y-36422500D01*
X45222402Y-36490941D01*
X45311466Y-36527832D01*
X45411573Y-36569299D01*
X45413080Y-36569987D01*
X45413430Y-36570100D01*
X45413579Y-36570129D01*
X45413580Y-36570130D01*
X45610590Y-36609317D01*
X45614489Y-36610500D01*
X45823468Y-36610500D01*
X45834955Y-36610500D01*
X45841764Y-36606859D01*
X46026420Y-36570130D01*
X46026493Y-36570100D01*
X46064419Y-36554390D01*
X46217598Y-36490941D01*
X46389655Y-36375977D01*
X46535977Y-36229655D01*
X46650941Y-36057598D01*
X46728960Y-35869245D01*
X46730126Y-35866430D01*
X46730127Y-35866427D01*
X46730130Y-35866420D01*
X46766859Y-35681764D01*
X46770500Y-35674954D01*
X46770500Y-35458356D01*
X46770500Y-35456532D01*
X46770499Y-35456531D01*
X46770498Y-35456527D01*
X47209500Y-35456527D01*
X47209500Y-35663471D01*
X47249866Y-35866408D01*
X47249867Y-35866414D01*
X47249871Y-35866427D01*
X47287692Y-35957731D01*
X47308378Y-36007671D01*
X47329059Y-36057597D01*
X47329059Y-36057598D01*
X47385796Y-36142512D01*
X47444021Y-36229653D01*
X47564279Y-36349911D01*
X47569233Y-36361871D01*
X47590344Y-36375977D01*
X47659972Y-36422500D01*
X47762402Y-36490941D01*
X47851466Y-36527832D01*
X47951573Y-36569299D01*
X47953080Y-36569987D01*
X47953430Y-36570100D01*
X47953579Y-36570129D01*
X47953580Y-36570130D01*
X48150590Y-36609317D01*
X48154489Y-36610500D01*
X48363468Y-36610500D01*
X48374955Y-36610500D01*
X48381764Y-36606859D01*
X48566420Y-36570130D01*
X48566493Y-36570100D01*
X48604419Y-36554390D01*
X48757598Y-36490941D01*
X48929655Y-36375977D01*
X49075977Y-36229655D01*
X49190941Y-36057598D01*
X49268960Y-35869245D01*
X49270126Y-35866430D01*
X49270127Y-35866427D01*
X49270130Y-35866420D01*
X49306859Y-35681764D01*
X49310500Y-35674954D01*
X49310500Y-35458356D01*
X49310500Y-35456532D01*
X49310499Y-35456531D01*
X49310498Y-35456527D01*
X49749500Y-35456527D01*
X49749500Y-35663471D01*
X49789866Y-35866408D01*
X49789867Y-35866414D01*
X49789871Y-35866427D01*
X49827692Y-35957731D01*
X49848378Y-36007671D01*
X49869059Y-36057597D01*
X49869059Y-36057598D01*
X49925796Y-36142512D01*
X49984021Y-36229653D01*
X50104279Y-36349911D01*
X50109233Y-36361871D01*
X50130344Y-36375977D01*
X50199972Y-36422500D01*
X50302402Y-36490941D01*
X50391466Y-36527832D01*
X50491573Y-36569299D01*
X50493080Y-36569987D01*
X50493430Y-36570100D01*
X50493579Y-36570129D01*
X50493580Y-36570130D01*
X50690590Y-36609317D01*
X50694489Y-36610500D01*
X50903468Y-36610500D01*
X50914955Y-36610500D01*
X50921764Y-36606859D01*
X51106420Y-36570130D01*
X51106493Y-36570100D01*
X51144419Y-36554390D01*
X51297598Y-36490941D01*
X51469655Y-36375977D01*
X51615977Y-36229655D01*
X51730941Y-36057598D01*
X51808960Y-35869245D01*
X51810126Y-35866430D01*
X51810127Y-35866427D01*
X51810130Y-35866420D01*
X51846859Y-35681764D01*
X51850500Y-35674954D01*
X51850500Y-35454499D01*
X51849327Y-35450638D01*
X51849149Y-35449747D01*
X51849149Y-35449744D01*
X51849140Y-35449699D01*
X51849139Y-35449697D01*
X51849082Y-35449410D01*
X51810130Y-35253580D01*
X51810128Y-35253577D01*
X51810098Y-35253423D01*
X51809990Y-35253086D01*
X51809301Y-35251577D01*
X51790391Y-35205926D01*
X51731774Y-35064416D01*
X51731287Y-35063110D01*
X51730942Y-35062405D01*
X51730941Y-35062402D01*
X51615977Y-34890345D01*
X51495719Y-34770087D01*
X51490765Y-34758127D01*
X51333095Y-34652777D01*
X51327105Y-34643813D01*
X51297601Y-34629060D01*
X51297588Y-34629054D01*
X51297552Y-34629039D01*
X51106435Y-34549874D01*
X51106427Y-34549871D01*
X51106414Y-34549867D01*
X51106408Y-34549866D01*
X50903471Y-34509500D01*
X50903468Y-34509500D01*
X50903465Y-34509500D01*
X50696535Y-34509500D01*
X50696532Y-34509500D01*
X50696529Y-34509500D01*
X50493590Y-34549866D01*
X50493584Y-34549867D01*
X50493571Y-34549871D01*
X50493563Y-34549874D01*
X50302426Y-34629047D01*
X50302401Y-34629059D01*
X50302400Y-34629059D01*
X50130340Y-34744025D01*
X49984025Y-34890340D01*
X49869059Y-35062400D01*
X49869059Y-35062401D01*
X49869047Y-35062426D01*
X49789874Y-35253563D01*
X49789871Y-35253571D01*
X49789867Y-35253584D01*
X49789866Y-35253590D01*
X49749500Y-35456527D01*
X49310498Y-35456527D01*
X49309140Y-35449701D01*
X49270130Y-35253580D01*
X49270127Y-35253574D01*
X49270126Y-35253569D01*
X49270123Y-35253562D01*
X49269869Y-35252822D01*
X49269301Y-35251577D01*
X49250391Y-35205926D01*
X49191774Y-35064416D01*
X49191287Y-35063110D01*
X49190942Y-35062405D01*
X49190941Y-35062402D01*
X49075977Y-34890345D01*
X48955719Y-34770087D01*
X48950765Y-34758127D01*
X48793095Y-34652777D01*
X48787105Y-34643813D01*
X48757601Y-34629060D01*
X48757588Y-34629054D01*
X48757552Y-34629039D01*
X48566435Y-34549874D01*
X48566427Y-34549871D01*
X48566414Y-34549867D01*
X48566408Y-34549866D01*
X48363471Y-34509500D01*
X48363468Y-34509500D01*
X48363465Y-34509500D01*
X48156535Y-34509500D01*
X48156532Y-34509500D01*
X48156529Y-34509500D01*
X47953590Y-34549866D01*
X47953584Y-34549867D01*
X47953571Y-34549871D01*
X47953563Y-34549874D01*
X47762426Y-34629047D01*
X47762401Y-34629059D01*
X47762400Y-34629059D01*
X47590340Y-34744025D01*
X47444025Y-34890340D01*
X47329059Y-35062400D01*
X47329059Y-35062401D01*
X47329047Y-35062426D01*
X47249874Y-35253563D01*
X47249871Y-35253571D01*
X47249867Y-35253584D01*
X47249866Y-35253590D01*
X47209500Y-35456527D01*
X46770498Y-35456527D01*
X46769140Y-35449701D01*
X46730130Y-35253580D01*
X46730127Y-35253574D01*
X46730126Y-35253569D01*
X46730123Y-35253562D01*
X46729869Y-35252822D01*
X46729301Y-35251577D01*
X46710391Y-35205926D01*
X46651774Y-35064416D01*
X46651287Y-35063110D01*
X46650942Y-35062405D01*
X46650941Y-35062402D01*
X46535977Y-34890345D01*
X46415719Y-34770087D01*
X46410765Y-34758127D01*
X46253095Y-34652777D01*
X46247105Y-34643813D01*
X46217601Y-34629060D01*
X46217588Y-34629054D01*
X46217552Y-34629039D01*
X46026435Y-34549874D01*
X46026427Y-34549871D01*
X46026414Y-34549867D01*
X46026408Y-34549866D01*
X45823471Y-34509500D01*
X45823468Y-34509500D01*
X45823465Y-34509500D01*
X45616535Y-34509500D01*
X45616532Y-34509500D01*
X45616529Y-34509500D01*
X45413590Y-34549866D01*
X45413584Y-34549867D01*
X45413571Y-34549871D01*
X45413563Y-34549874D01*
X45222426Y-34629047D01*
X45222401Y-34629059D01*
X45222400Y-34629059D01*
X45050340Y-34744025D01*
X44904025Y-34890340D01*
X44789059Y-35062400D01*
X44789059Y-35062401D01*
X44789047Y-35062426D01*
X44709874Y-35253563D01*
X44709871Y-35253571D01*
X44709867Y-35253584D01*
X44709866Y-35253590D01*
X44669500Y-35456527D01*
X44230498Y-35456527D01*
X44229140Y-35449701D01*
X44190130Y-35253580D01*
X44190127Y-35253574D01*
X44190126Y-35253569D01*
X44190123Y-35253562D01*
X44189869Y-35252822D01*
X44189301Y-35251577D01*
X44170391Y-35205926D01*
X44111774Y-35064416D01*
X44111287Y-35063110D01*
X44110942Y-35062405D01*
X44110941Y-35062402D01*
X43995977Y-34890345D01*
X43875719Y-34770087D01*
X43870765Y-34758127D01*
X43713095Y-34652777D01*
X43707105Y-34643813D01*
X43677601Y-34629060D01*
X43677588Y-34629054D01*
X43677552Y-34629039D01*
X43486435Y-34549874D01*
X43486427Y-34549871D01*
X43486414Y-34549867D01*
X43486408Y-34549866D01*
X43283471Y-34509500D01*
X43283468Y-34509500D01*
X43283465Y-34509500D01*
X43076535Y-34509500D01*
X43076532Y-34509500D01*
X43076529Y-34509500D01*
X42873590Y-34549866D01*
X42873584Y-34549867D01*
X42873571Y-34549871D01*
X42873563Y-34549874D01*
X42682426Y-34629047D01*
X42682401Y-34629059D01*
X42682400Y-34629059D01*
X42510340Y-34744025D01*
X42364025Y-34890340D01*
X42249059Y-35062400D01*
X42249059Y-35062401D01*
X42249047Y-35062426D01*
X42169874Y-35253563D01*
X42169871Y-35253571D01*
X42169867Y-35253584D01*
X42169866Y-35253590D01*
X42129500Y-35456527D01*
X41690498Y-35456527D01*
X41689140Y-35449701D01*
X41650130Y-35253580D01*
X41650127Y-35253574D01*
X41650126Y-35253569D01*
X41650123Y-35253562D01*
X41649869Y-35252822D01*
X41649301Y-35251577D01*
X41630391Y-35205926D01*
X41571774Y-35064416D01*
X41571287Y-35063110D01*
X41570942Y-35062405D01*
X41570941Y-35062402D01*
X41455977Y-34890345D01*
X41335719Y-34770087D01*
X41330765Y-34758127D01*
X41173095Y-34652777D01*
X41167105Y-34643813D01*
X41137601Y-34629060D01*
X41137588Y-34629054D01*
X41137552Y-34629039D01*
X40946435Y-34549874D01*
X40946427Y-34549871D01*
X40946414Y-34549867D01*
X40946408Y-34549866D01*
X40743471Y-34509500D01*
X40743468Y-34509500D01*
X40743465Y-34509500D01*
X40536535Y-34509500D01*
X40536532Y-34509500D01*
X40536529Y-34509500D01*
X40333590Y-34549866D01*
X40333584Y-34549867D01*
X40333571Y-34549871D01*
X40333563Y-34549874D01*
X40142426Y-34629047D01*
X40142401Y-34629059D01*
X40142400Y-34629059D01*
X39970340Y-34744025D01*
X39824025Y-34890340D01*
X39709059Y-35062400D01*
X39709059Y-35062401D01*
X39709047Y-35062426D01*
X39629874Y-35253563D01*
X39629871Y-35253571D01*
X39629867Y-35253584D01*
X39629866Y-35253590D01*
X39589500Y-35456527D01*
X39150498Y-35456527D01*
X39149140Y-35449701D01*
X39110130Y-35253580D01*
X39110127Y-35253574D01*
X39110126Y-35253569D01*
X39110123Y-35253562D01*
X39109869Y-35252822D01*
X39109301Y-35251577D01*
X39090391Y-35205926D01*
X39031774Y-35064416D01*
X39031287Y-35063110D01*
X39030942Y-35062405D01*
X39030941Y-35062402D01*
X38915977Y-34890345D01*
X38795719Y-34770087D01*
X38790765Y-34758127D01*
X38633095Y-34652777D01*
X38627105Y-34643813D01*
X38597601Y-34629060D01*
X38597588Y-34629054D01*
X38597552Y-34629039D01*
X38406435Y-34549874D01*
X38406427Y-34549871D01*
X38406414Y-34549867D01*
X38406408Y-34549866D01*
X38203471Y-34509500D01*
X38203468Y-34509500D01*
X38203465Y-34509500D01*
X37996535Y-34509500D01*
X37996532Y-34509500D01*
X37996529Y-34509500D01*
X37793590Y-34549866D01*
X37793584Y-34549867D01*
X37793571Y-34549871D01*
X37793563Y-34549874D01*
X37602426Y-34629047D01*
X37602401Y-34629059D01*
X37602400Y-34629059D01*
X37430340Y-34744025D01*
X37284025Y-34890340D01*
X37169059Y-35062400D01*
X37169059Y-35062401D01*
X37169047Y-35062426D01*
X37089874Y-35253563D01*
X37089871Y-35253571D01*
X37089867Y-35253584D01*
X37089866Y-35253590D01*
X37049500Y-35456527D01*
X36610498Y-35456527D01*
X36609140Y-35449701D01*
X36570130Y-35253580D01*
X36570127Y-35253574D01*
X36570126Y-35253569D01*
X36570123Y-35253562D01*
X36569869Y-35252822D01*
X36569301Y-35251577D01*
X36550391Y-35205926D01*
X36491774Y-35064416D01*
X36491287Y-35063110D01*
X36490942Y-35062405D01*
X36490941Y-35062402D01*
X36375977Y-34890345D01*
X36255719Y-34770087D01*
X36250765Y-34758127D01*
X36093095Y-34652777D01*
X36087105Y-34643813D01*
X36057601Y-34629060D01*
X36057588Y-34629054D01*
X36057552Y-34629039D01*
X35866435Y-34549874D01*
X35866427Y-34549871D01*
X35866414Y-34549867D01*
X35866408Y-34549866D01*
X35663471Y-34509500D01*
X35663468Y-34509500D01*
X35663465Y-34509500D01*
X35456535Y-34509500D01*
X35456532Y-34509500D01*
X35456529Y-34509500D01*
X35253590Y-34549866D01*
X35253584Y-34549867D01*
X35253571Y-34549871D01*
X35253563Y-34549874D01*
X35062426Y-34629047D01*
X35062401Y-34629059D01*
X35062400Y-34629059D01*
X34890340Y-34744025D01*
X34744025Y-34890340D01*
X34629059Y-35062400D01*
X34629059Y-35062401D01*
X34629047Y-35062426D01*
X34549874Y-35253563D01*
X34549871Y-35253571D01*
X34549867Y-35253584D01*
X34549866Y-35253590D01*
X34509500Y-35456527D01*
X34070498Y-35456527D01*
X34069140Y-35449701D01*
X34030130Y-35253580D01*
X34030127Y-35253574D01*
X34030126Y-35253569D01*
X34030123Y-35253562D01*
X34029869Y-35252822D01*
X34029301Y-35251577D01*
X34010391Y-35205926D01*
X33951774Y-35064416D01*
X33951287Y-35063110D01*
X33950942Y-35062405D01*
X33950941Y-35062402D01*
X33835977Y-34890345D01*
X33715719Y-34770087D01*
X33710765Y-34758127D01*
X33553095Y-34652777D01*
X33547105Y-34643813D01*
X33517601Y-34629060D01*
X33517588Y-34629054D01*
X33517552Y-34629039D01*
X33326435Y-34549874D01*
X33326427Y-34549871D01*
X33326414Y-34549867D01*
X33326408Y-34549866D01*
X33123471Y-34509500D01*
X33123468Y-34509500D01*
X33123465Y-34509500D01*
X32916535Y-34509500D01*
X32916532Y-34509500D01*
X32916529Y-34509500D01*
X32713590Y-34549866D01*
X32713584Y-34549867D01*
X32713571Y-34549871D01*
X32713563Y-34549874D01*
X32522426Y-34629047D01*
X32522401Y-34629059D01*
X32522400Y-34629059D01*
X32350340Y-34744025D01*
X32204025Y-34890340D01*
X32089059Y-35062400D01*
X32089059Y-35062401D01*
X32089047Y-35062426D01*
X32009874Y-35253563D01*
X32009871Y-35253571D01*
X32009867Y-35253584D01*
X32009866Y-35253590D01*
X31969500Y-35456527D01*
X31530498Y-35456527D01*
X31529140Y-35449701D01*
X31490130Y-35253580D01*
X31490127Y-35253574D01*
X31490126Y-35253569D01*
X31490123Y-35253562D01*
X31489869Y-35252822D01*
X31489301Y-35251577D01*
X31470391Y-35205926D01*
X31411774Y-35064416D01*
X31411287Y-35063110D01*
X31410942Y-35062405D01*
X31410941Y-35062402D01*
X31295977Y-34890345D01*
X31175719Y-34770087D01*
X31170765Y-34758127D01*
X31013095Y-34652777D01*
X31007105Y-34643813D01*
X30977601Y-34629060D01*
X30977588Y-34629054D01*
X30977552Y-34629039D01*
X30786435Y-34549874D01*
X30786427Y-34549871D01*
X30786414Y-34549867D01*
X30786408Y-34549866D01*
X30583471Y-34509500D01*
X30583468Y-34509500D01*
X30583465Y-34509500D01*
X30376535Y-34509500D01*
X30376532Y-34509500D01*
X30376529Y-34509500D01*
X30173590Y-34549866D01*
X30173584Y-34549867D01*
X30173571Y-34549871D01*
X30173563Y-34549874D01*
X29982426Y-34629047D01*
X29982401Y-34629059D01*
X29982400Y-34629059D01*
X29810340Y-34744025D01*
X29664025Y-34890340D01*
X29549059Y-35062400D01*
X29549059Y-35062401D01*
X29549047Y-35062426D01*
X29469874Y-35253563D01*
X29469871Y-35253571D01*
X29469867Y-35253584D01*
X29469866Y-35253590D01*
X29429500Y-35456527D01*
X28990498Y-35456527D01*
X28989140Y-35449701D01*
X28950130Y-35253580D01*
X28950127Y-35253574D01*
X28950126Y-35253569D01*
X28950123Y-35253562D01*
X28949869Y-35252822D01*
X28949301Y-35251577D01*
X28930391Y-35205926D01*
X28871774Y-35064416D01*
X28871287Y-35063110D01*
X28870942Y-35062405D01*
X28870941Y-35062402D01*
X28755977Y-34890345D01*
X28635719Y-34770087D01*
X28630765Y-34758127D01*
X28473095Y-34652777D01*
X28467105Y-34643813D01*
X28437601Y-34629060D01*
X28437588Y-34629054D01*
X28437552Y-34629039D01*
X28246435Y-34549874D01*
X28246427Y-34549871D01*
X28246414Y-34549867D01*
X28246408Y-34549866D01*
X28043471Y-34509500D01*
X28043468Y-34509500D01*
X28043465Y-34509500D01*
X27836535Y-34509500D01*
X27836532Y-34509500D01*
X27836529Y-34509500D01*
X27633590Y-34549866D01*
X27633584Y-34549867D01*
X27633571Y-34549871D01*
X27633563Y-34549874D01*
X27442426Y-34629047D01*
X27442401Y-34629059D01*
X27442400Y-34629059D01*
X27270340Y-34744025D01*
X27124025Y-34890340D01*
X27009059Y-35062400D01*
X27009059Y-35062401D01*
X27009047Y-35062426D01*
X26929874Y-35253563D01*
X26929871Y-35253571D01*
X26929867Y-35253584D01*
X26929866Y-35253590D01*
X26889500Y-35456527D01*
X26450499Y-35456527D01*
X26450499Y-35281067D01*
X26451947Y-35267802D01*
X26455088Y-35253585D01*
X26455670Y-35250948D01*
X26473396Y-34409657D01*
X26491394Y-34367468D01*
X26799705Y-34059159D01*
X26819650Y-34045832D01*
X26837503Y-34038438D01*
X26840541Y-34037180D01*
X26864073Y-34032500D01*
X51240927Y-34032500D01*
X51264461Y-34037181D01*
X51280164Y-34043685D01*
X51285342Y-34045830D01*
X51285345Y-34045831D01*
X51305298Y-34059163D01*
X51886480Y-34640345D01*
X51900925Y-34663190D01*
X52330042Y-35867523D01*
X52331229Y-35870084D01*
X52331167Y-35870112D01*
X52332602Y-35873019D01*
X52354673Y-35926302D01*
X52388378Y-36007671D01*
X52409059Y-36057597D01*
X52409059Y-36057598D01*
X52465796Y-36142512D01*
X52524021Y-36229653D01*
X52644279Y-36349911D01*
X52649233Y-36361871D01*
X52670344Y-36375977D01*
X52739972Y-36422500D01*
X52842402Y-36490941D01*
X52931466Y-36527832D01*
X53031573Y-36569299D01*
X53033080Y-36569987D01*
X53033430Y-36570100D01*
X53033579Y-36570129D01*
X53033580Y-36570130D01*
X53230590Y-36609317D01*
X53234489Y-36610500D01*
X53443468Y-36610500D01*
X53454955Y-36610500D01*
X53461764Y-36606859D01*
X53646420Y-36570130D01*
X53646493Y-36570100D01*
X53684419Y-36554390D01*
X53837598Y-36490941D01*
X54009655Y-36375977D01*
X54155977Y-36229655D01*
X54270941Y-36057598D01*
X54348960Y-35869245D01*
X54350126Y-35866430D01*
X54350127Y-35866427D01*
X54350130Y-35866420D01*
X54386859Y-35681764D01*
X54390500Y-35674954D01*
X54390500Y-35454499D01*
X54389327Y-35450638D01*
X54389149Y-35449747D01*
X54389149Y-35449744D01*
X54389140Y-35449699D01*
X54389139Y-35449697D01*
X54389082Y-35449410D01*
X54350130Y-35253580D01*
X54350128Y-35253577D01*
X54350098Y-35253423D01*
X54349990Y-35253086D01*
X54349301Y-35251577D01*
X54330391Y-35205926D01*
X54271774Y-35064416D01*
X54271287Y-35063110D01*
X54270942Y-35062405D01*
X54270941Y-35062402D01*
X54155977Y-34890345D01*
X54035719Y-34770087D01*
X54030765Y-34758127D01*
X53873095Y-34652777D01*
X53867105Y-34643813D01*
X53837601Y-34629060D01*
X53837588Y-34629054D01*
X53837581Y-34629051D01*
X53653221Y-34552685D01*
X53650316Y-34551226D01*
X53650266Y-34551334D01*
X53647528Y-34550044D01*
X52443190Y-34120925D01*
X52420345Y-34106480D01*
X51666794Y-33352929D01*
X51666792Y-33352927D01*
X51666790Y-33352925D01*
X51666787Y-33352923D01*
X51666783Y-33352920D01*
X51623749Y-33328074D01*
X51580714Y-33303227D01*
X51580703Y-33303223D01*
X51580697Y-33303221D01*
X51484704Y-33277500D01*
X51484701Y-33277500D01*
X51484699Y-33277500D01*
X26620301Y-33277500D01*
X26620299Y-33277500D01*
X26524300Y-33303222D01*
X26524291Y-33303225D01*
X26500849Y-33316760D01*
X26500843Y-33316761D01*
X26438217Y-33352918D01*
X26438214Y-33352920D01*
X26438207Y-33352927D01*
X26438206Y-33352927D01*
X25909245Y-33881886D01*
X25894315Y-33892867D01*
X24645415Y-34547645D01*
X24645413Y-34547646D01*
X24641932Y-34550367D01*
X24625560Y-34559530D01*
X24607663Y-34566206D01*
X24492454Y-34652454D01*
X24406204Y-34767666D01*
X24406196Y-34767686D01*
X24355910Y-34902509D01*
X24355909Y-34902510D01*
X24349500Y-34962118D01*
X23100500Y-34962118D01*
X23100500Y-29137518D01*
X27389500Y-29137518D01*
X27389500Y-29282480D01*
X27427011Y-29422475D01*
X27427015Y-29422485D01*
X27499486Y-29548008D01*
X27499489Y-29548012D01*
X27499491Y-29548015D01*
X27601985Y-29650509D01*
X27727515Y-29722984D01*
X27727519Y-29722986D01*
X27727542Y-29722995D01*
X27728019Y-29723119D01*
X27746190Y-29727988D01*
X27867521Y-29760500D01*
X28012476Y-29760500D01*
X28012478Y-29760500D01*
X28043341Y-29752229D01*
X28074206Y-29743958D01*
X28124594Y-29730456D01*
X28134035Y-29728703D01*
X28140797Y-29727989D01*
X28583405Y-29590277D01*
X28601676Y-29587500D01*
X42518323Y-29587500D01*
X42536594Y-29590277D01*
X42963571Y-29723126D01*
X42979195Y-29727987D01*
X42979194Y-29727987D01*
X42979201Y-29727989D01*
X42988954Y-29729271D01*
X42996820Y-29730835D01*
X43085070Y-29754483D01*
X43107522Y-29760500D01*
X43252476Y-29760500D01*
X43252477Y-29760500D01*
X43264822Y-29757191D01*
X43314206Y-29743958D01*
X43314207Y-29743958D01*
X43392478Y-29722986D01*
X43392478Y-29722985D01*
X43392485Y-29722984D01*
X43518015Y-29650509D01*
X43620509Y-29548015D01*
X43692984Y-29422485D01*
X43725216Y-29302196D01*
X43730500Y-29282477D01*
X43730500Y-29137522D01*
X43730500Y-29137519D01*
X43700987Y-29027385D01*
X43693119Y-28998019D01*
X43692995Y-28997542D01*
X43692986Y-28997519D01*
X43672759Y-28962485D01*
X43620509Y-28871985D01*
X43574131Y-28825607D01*
X43560797Y-28805649D01*
X43558264Y-28799532D01*
X43558269Y-28752462D01*
X43591555Y-28719182D01*
X43594175Y-28718097D01*
X43597673Y-28716649D01*
X43621202Y-28711970D01*
X46322603Y-28711970D01*
X46343796Y-28715737D01*
X46776718Y-28874655D01*
X46776719Y-28874655D01*
X46776721Y-28874656D01*
X46778126Y-28874894D01*
X46783730Y-28876118D01*
X46845932Y-28892786D01*
X46917521Y-28911970D01*
X47062476Y-28911970D01*
X47062477Y-28911970D01*
X47074822Y-28908661D01*
X47124206Y-28895428D01*
X47124207Y-28895428D01*
X47202478Y-28874456D01*
X47202478Y-28874455D01*
X47202485Y-28874454D01*
X47328015Y-28801979D01*
X47430509Y-28699485D01*
X47502984Y-28573955D01*
X47512745Y-28537527D01*
X47525346Y-28490501D01*
X47525346Y-28490499D01*
X47535186Y-28453780D01*
X47540500Y-28433947D01*
X47540500Y-28288992D01*
X47540500Y-28288989D01*
X47503126Y-28149516D01*
X47502995Y-28149012D01*
X47502986Y-28148989D01*
X47502984Y-28148985D01*
X47430509Y-28023455D01*
X47328015Y-27920961D01*
X47328012Y-27920959D01*
X47328008Y-27920956D01*
X47202490Y-27848488D01*
X47202476Y-27848481D01*
X47062480Y-27810970D01*
X47062477Y-27810970D01*
X47062475Y-27810970D01*
X46917525Y-27810970D01*
X46917523Y-27810970D01*
X46783602Y-27846853D01*
X46777223Y-27848204D01*
X46776723Y-27848282D01*
X46343792Y-28007203D01*
X46322599Y-28010970D01*
X40053734Y-28010970D01*
X40010247Y-27992957D01*
X39997901Y-27975256D01*
X39883784Y-27728164D01*
X39883783Y-27728162D01*
X39883132Y-27727244D01*
X39880063Y-27722457D01*
X39810509Y-27601985D01*
X39708015Y-27499491D01*
X39708012Y-27499489D01*
X39708008Y-27499486D01*
X39582490Y-27427018D01*
X39582476Y-27427011D01*
X39442480Y-27389500D01*
X39442477Y-27389500D01*
X39442475Y-27389500D01*
X39297525Y-27389500D01*
X39297523Y-27389500D01*
X39297520Y-27389500D01*
X39157526Y-27427010D01*
X39157522Y-27427012D01*
X39157519Y-27427014D01*
X39157515Y-27427016D01*
X39125521Y-27445488D01*
X39031981Y-27499493D01*
X38929493Y-27601981D01*
X38857012Y-27727522D01*
X38857010Y-27727527D01*
X38819500Y-27867518D01*
X38819500Y-28012480D01*
X38856888Y-28152013D01*
X38857001Y-28152449D01*
X38857013Y-28152480D01*
X38857016Y-28152485D01*
X38929491Y-28278015D01*
X39031985Y-28380509D01*
X39124543Y-28433947D01*
X39152519Y-28450099D01*
X39157959Y-28453636D01*
X39158157Y-28453780D01*
X39158163Y-28453784D01*
X39613455Y-28664056D01*
X39615578Y-28665009D01*
X39621151Y-28667859D01*
X39645557Y-28681950D01*
X39645559Y-28681951D01*
X39656177Y-28688081D01*
X39656178Y-28688082D01*
X39656179Y-28688082D01*
X39656182Y-28688084D01*
X39733243Y-28708731D01*
X39747100Y-28717204D01*
X39756894Y-28721056D01*
X39760103Y-28723753D01*
X39761170Y-28725807D01*
X39762947Y-28726894D01*
X39765536Y-28729758D01*
X39770585Y-28743929D01*
X39781804Y-28765521D01*
X39780147Y-28770761D01*
X39781336Y-28774098D01*
X39774613Y-28788264D01*
X39767614Y-28810402D01*
X39762587Y-28813606D01*
X39761156Y-28816622D01*
X39753673Y-28819288D01*
X39736529Y-28830217D01*
X39736394Y-28830253D01*
X39735904Y-28830384D01*
X39719914Y-28832500D01*
X28601679Y-28832500D01*
X28583408Y-28829723D01*
X28140795Y-28692009D01*
X28131052Y-28690727D01*
X28123158Y-28689157D01*
X28119142Y-28688081D01*
X28096265Y-28681951D01*
X28012479Y-28659500D01*
X28012477Y-28659500D01*
X28012475Y-28659500D01*
X27867525Y-28659500D01*
X27867523Y-28659500D01*
X27867520Y-28659500D01*
X27727526Y-28697010D01*
X27727522Y-28697012D01*
X27727519Y-28697014D01*
X27727515Y-28697016D01*
X27631480Y-28752462D01*
X27601981Y-28769493D01*
X27499493Y-28871981D01*
X27499490Y-28871985D01*
X27499490Y-28871986D01*
X27467851Y-28926787D01*
X27427012Y-28997522D01*
X27427010Y-28997527D01*
X27389500Y-29137518D01*
X23100500Y-29137518D01*
X23100500Y-26597518D01*
X41359500Y-26597518D01*
X41359500Y-26742480D01*
X41397011Y-26882475D01*
X41397015Y-26882485D01*
X41469486Y-27008008D01*
X41469489Y-27008012D01*
X41469491Y-27008015D01*
X41571985Y-27110509D01*
X41697515Y-27182984D01*
X41697519Y-27182986D01*
X41697542Y-27182995D01*
X41698019Y-27183119D01*
X41700449Y-27183770D01*
X41837521Y-27220500D01*
X41982476Y-27220500D01*
X41982477Y-27220500D01*
X41994822Y-27217191D01*
X42044206Y-27203958D01*
X42116393Y-27184616D01*
X42116394Y-27184616D01*
X42122779Y-27183264D01*
X42123278Y-27183186D01*
X42556204Y-27024267D01*
X42577397Y-27020500D01*
X48077110Y-27020500D01*
X48100644Y-27025181D01*
X48121528Y-27033831D01*
X48141481Y-27047163D01*
X50080236Y-28985918D01*
X50092558Y-29003567D01*
X50286309Y-29422063D01*
X50286315Y-29422073D01*
X50287134Y-29423227D01*
X50290235Y-29428062D01*
X50359486Y-29548008D01*
X50359489Y-29548012D01*
X50359491Y-29548015D01*
X50461985Y-29650509D01*
X50587515Y-29722984D01*
X50587519Y-29722986D01*
X50587542Y-29722995D01*
X50588019Y-29723119D01*
X50606190Y-29727988D01*
X50727521Y-29760500D01*
X50872476Y-29760500D01*
X50872477Y-29760500D01*
X50884822Y-29757191D01*
X50934206Y-29743958D01*
X50934207Y-29743958D01*
X51012478Y-29722986D01*
X51012478Y-29722985D01*
X51012485Y-29722984D01*
X51138015Y-29650509D01*
X51240509Y-29548015D01*
X51312984Y-29422485D01*
X51345216Y-29302196D01*
X51350500Y-29282477D01*
X51350500Y-29137522D01*
X51350500Y-29137519D01*
X51320987Y-29027385D01*
X51313119Y-28998019D01*
X51312995Y-28997542D01*
X51312986Y-28997519D01*
X51292759Y-28962485D01*
X51240509Y-28871985D01*
X51138015Y-28769491D01*
X51138012Y-28769489D01*
X51138008Y-28769486D01*
X51017951Y-28700171D01*
X51012470Y-28696606D01*
X51012067Y-28696312D01*
X51012065Y-28696311D01*
X50593570Y-28502561D01*
X50575921Y-28490239D01*
X48909709Y-26824027D01*
X59394500Y-26824027D01*
X59394500Y-27030971D01*
X59434866Y-27233908D01*
X59434867Y-27233914D01*
X59434871Y-27233927D01*
X59434874Y-27233935D01*
X59511231Y-27418272D01*
X59512262Y-27421380D01*
X59512373Y-27421341D01*
X59513397Y-27424191D01*
X59859033Y-28152476D01*
X60059062Y-28573955D01*
X60061560Y-28579217D01*
X60067500Y-28605585D01*
X60067500Y-28744704D01*
X60093221Y-28840697D01*
X60093223Y-28840703D01*
X60093227Y-28840714D01*
X60112824Y-28874656D01*
X60142920Y-28926783D01*
X60142923Y-28926787D01*
X60142925Y-28926790D01*
X61363210Y-30147076D01*
X61449290Y-30196774D01*
X61449294Y-30196775D01*
X61449317Y-30196785D01*
X61449794Y-30196909D01*
X61476900Y-30204172D01*
X61545297Y-30222500D01*
X61545299Y-30222500D01*
X61545301Y-30222500D01*
X61644699Y-30222500D01*
X62670927Y-30222500D01*
X62694461Y-30227181D01*
X62715345Y-30235831D01*
X62735298Y-30249163D01*
X65000836Y-32514701D01*
X65014167Y-32534653D01*
X65022818Y-32555538D01*
X65027500Y-32579073D01*
X65027500Y-35449704D01*
X65053221Y-35545697D01*
X65053223Y-35545703D01*
X65053227Y-35545714D01*
X65053228Y-35545715D01*
X65102920Y-35631783D01*
X65102923Y-35631787D01*
X65102925Y-35631790D01*
X68773210Y-39302075D01*
X68773213Y-39302077D01*
X68773216Y-39302079D01*
X68773225Y-39302084D01*
X68774063Y-39302605D01*
X68773993Y-39302716D01*
X68775557Y-39303998D01*
X68775362Y-39304235D01*
X68790462Y-39317437D01*
X68794494Y-39322692D01*
X68806682Y-39368155D01*
X68783172Y-39408906D01*
X68782045Y-39409771D01*
X68744581Y-39422500D01*
X66994074Y-39422500D01*
X66970539Y-39417818D01*
X66949654Y-39409167D01*
X66929702Y-39395836D01*
X64033588Y-36499723D01*
X64031793Y-36497928D01*
X64031790Y-36497925D01*
X64031787Y-36497923D01*
X64031783Y-36497920D01*
X63979173Y-36467545D01*
X63945714Y-36448227D01*
X63945703Y-36448223D01*
X63945697Y-36448221D01*
X63849704Y-36422500D01*
X63849701Y-36422500D01*
X63849699Y-36422500D01*
X62994073Y-36422500D01*
X62970538Y-36417818D01*
X62949653Y-36409167D01*
X62929701Y-36395836D01*
X61004650Y-34470785D01*
X61001035Y-34466841D01*
X60987591Y-34450827D01*
X60975559Y-34441175D01*
X60970555Y-34436690D01*
X60965821Y-34431956D01*
X60947808Y-34388469D01*
X60959978Y-34351743D01*
X61261706Y-33946512D01*
X61261710Y-33946504D01*
X61263179Y-33944100D01*
X61263242Y-33944138D01*
X61264799Y-33941432D01*
X61375941Y-33775098D01*
X61455130Y-33583920D01*
X61491859Y-33399264D01*
X61495500Y-33392454D01*
X61495500Y-33171989D01*
X61494316Y-33168086D01*
X61456312Y-32977022D01*
X61456312Y-32977023D01*
X61455131Y-32971085D01*
X61455130Y-32971084D01*
X61455130Y-32971080D01*
X61455127Y-32971074D01*
X61455009Y-32970479D01*
X61453984Y-32968310D01*
X61428192Y-32906046D01*
X61375943Y-32779908D01*
X61375941Y-32779902D01*
X61332658Y-32715123D01*
X61332635Y-32715088D01*
X61330672Y-32712150D01*
X61330671Y-32712148D01*
X61308935Y-32679618D01*
X61894500Y-32679618D01*
X61894500Y-33875371D01*
X61900908Y-33934981D01*
X61900910Y-33934988D01*
X61937280Y-34032500D01*
X61951203Y-34069830D01*
X61951204Y-34069831D01*
X62037454Y-34185046D01*
X62152669Y-34271296D01*
X62287517Y-34321591D01*
X62347127Y-34328000D01*
X63542872Y-34327999D01*
X63602483Y-34321591D01*
X63737331Y-34271296D01*
X63852546Y-34185046D01*
X63938796Y-34069831D01*
X63989091Y-33934983D01*
X63995500Y-33875373D01*
X63995499Y-32679628D01*
X63989091Y-32620017D01*
X63989088Y-32620010D01*
X63953037Y-32523352D01*
X63938796Y-32485169D01*
X63852546Y-32369954D01*
X63783314Y-32318127D01*
X63737333Y-32283705D01*
X63737332Y-32283704D01*
X63737312Y-32283696D01*
X63609174Y-32235903D01*
X63609165Y-32235901D01*
X63602487Y-32233410D01*
X63602485Y-32233409D01*
X63602483Y-32233409D01*
X63542873Y-32227000D01*
X62347128Y-32227000D01*
X62347127Y-32227000D01*
X62317322Y-32230204D01*
X62287517Y-32233408D01*
X62287510Y-32233410D01*
X62152686Y-32283696D01*
X62152666Y-32283704D01*
X62037454Y-32369954D01*
X61951204Y-32485166D01*
X61951196Y-32485186D01*
X61900910Y-32620009D01*
X61900909Y-32620010D01*
X61894500Y-32679618D01*
X61308935Y-32679618D01*
X61260984Y-32607854D01*
X61260975Y-32607843D01*
X61140719Y-32487587D01*
X61135765Y-32475627D01*
X60978095Y-32370277D01*
X60972105Y-32361313D01*
X60942601Y-32346560D01*
X60942588Y-32346554D01*
X60942552Y-32346539D01*
X60751435Y-32267374D01*
X60751427Y-32267371D01*
X60751414Y-32267367D01*
X60751408Y-32267366D01*
X60548471Y-32227000D01*
X60548468Y-32227000D01*
X60548465Y-32227000D01*
X60341535Y-32227000D01*
X60341532Y-32227000D01*
X60341529Y-32227000D01*
X60138590Y-32267366D01*
X60138584Y-32267367D01*
X60138571Y-32267371D01*
X60138563Y-32267374D01*
X59947426Y-32346547D01*
X59947401Y-32346559D01*
X59947400Y-32346559D01*
X59775340Y-32461525D01*
X59629025Y-32607840D01*
X59514059Y-32779900D01*
X59514059Y-32779901D01*
X59514047Y-32779926D01*
X59434874Y-32971063D01*
X59434871Y-32971071D01*
X59434867Y-32971084D01*
X59434866Y-32971090D01*
X59394500Y-33174027D01*
X59394500Y-33380971D01*
X59434866Y-33583908D01*
X59434867Y-33583914D01*
X59434871Y-33583927D01*
X59434874Y-33583935D01*
X59514034Y-33775040D01*
X59514060Y-33775102D01*
X59514177Y-33775275D01*
X59581059Y-33875372D01*
X59620889Y-33934983D01*
X59625071Y-33941241D01*
X59626630Y-33943989D01*
X59626736Y-33943926D01*
X59628294Y-33946513D01*
X60077919Y-34550383D01*
X60087995Y-34571193D01*
X60093221Y-34590698D01*
X60093225Y-34590709D01*
X60093226Y-34590711D01*
X60093227Y-34590714D01*
X60093228Y-34590715D01*
X60142920Y-34676783D01*
X60142923Y-34676787D01*
X60142925Y-34676790D01*
X60143849Y-34677714D01*
X60144368Y-34678348D01*
X60144381Y-34678367D01*
X60145735Y-34680017D01*
X60145744Y-34680028D01*
X60176173Y-34717110D01*
X60176175Y-34717112D01*
X60176176Y-34717113D01*
X60469359Y-35010295D01*
X60485636Y-35021172D01*
X60494953Y-35028818D01*
X62568210Y-37102075D01*
X62568213Y-37102077D01*
X62568216Y-37102079D01*
X62568225Y-37102084D01*
X62568229Y-37102087D01*
X62654280Y-37151769D01*
X62654282Y-37151770D01*
X62654284Y-37151771D01*
X62654286Y-37151772D01*
X62654290Y-37151774D01*
X62654294Y-37151775D01*
X62654331Y-37151789D01*
X62654824Y-37151917D01*
X62750297Y-37177500D01*
X62750299Y-37177500D01*
X62750301Y-37177500D01*
X62849699Y-37177500D01*
X63605928Y-37177500D01*
X63629462Y-37182181D01*
X63650345Y-37190830D01*
X63670296Y-37204161D01*
X66568210Y-40102076D01*
X66654290Y-40151774D01*
X66654294Y-40151775D01*
X66654317Y-40151785D01*
X66654794Y-40151909D01*
X66681900Y-40159172D01*
X66750297Y-40177500D01*
X66750299Y-40177500D01*
X66750301Y-40177500D01*
X66849699Y-40177500D01*
X71561268Y-40177500D01*
X71584802Y-40182181D01*
X71605686Y-40190831D01*
X71625639Y-40204163D01*
X71661985Y-40240509D01*
X71787515Y-40312984D01*
X71787519Y-40312986D01*
X71787542Y-40312995D01*
X71788019Y-40313119D01*
X71827733Y-40323760D01*
X71927521Y-40350500D01*
X72072476Y-40350500D01*
X72072477Y-40350500D01*
X72084822Y-40347191D01*
X72134206Y-40333958D01*
X72134207Y-40333958D01*
X72212478Y-40312986D01*
X72212478Y-40312985D01*
X72212485Y-40312984D01*
X72338015Y-40240509D01*
X72440509Y-40138015D01*
X72512984Y-40012485D01*
X72512986Y-40012478D01*
X72533347Y-39936491D01*
X72533347Y-39936490D01*
X72550500Y-39872478D01*
X72550500Y-39727519D01*
X72513126Y-39588046D01*
X72512995Y-39587542D01*
X72512983Y-39587513D01*
X72451108Y-39480344D01*
X72443395Y-39457624D01*
X72442172Y-39448336D01*
X72454354Y-39402875D01*
X72454800Y-39402293D01*
X72487688Y-39380330D01*
X72490010Y-39379708D01*
X72490457Y-39379589D01*
X72506351Y-39377500D01*
X73561268Y-39377500D01*
X73584802Y-39382181D01*
X73605686Y-39390831D01*
X73625639Y-39404163D01*
X73661985Y-39440509D01*
X73787515Y-39512984D01*
X73787519Y-39512986D01*
X73787542Y-39512995D01*
X73788019Y-39513119D01*
X73827733Y-39523760D01*
X73927521Y-39550500D01*
X74072476Y-39550500D01*
X74072477Y-39550500D01*
X74084822Y-39547191D01*
X74134206Y-39533958D01*
X74134207Y-39533958D01*
X74212478Y-39512986D01*
X74212478Y-39512985D01*
X74212485Y-39512984D01*
X74338015Y-39440509D01*
X74440509Y-39338015D01*
X74512984Y-39212485D01*
X74529593Y-39150500D01*
X74540410Y-39110132D01*
X74540410Y-39110130D01*
X74540449Y-39109987D01*
X74550500Y-39072477D01*
X74550500Y-38927522D01*
X74550500Y-38927519D01*
X74513126Y-38788046D01*
X74512995Y-38787542D01*
X74512986Y-38787519D01*
X74502672Y-38769654D01*
X74440509Y-38661985D01*
X74338015Y-38559491D01*
X74338012Y-38559489D01*
X74338008Y-38559486D01*
X74212488Y-38487017D01*
X74212476Y-38487011D01*
X74072480Y-38449500D01*
X74072477Y-38449500D01*
X74072475Y-38449500D01*
X73927525Y-38449500D01*
X73927523Y-38449500D01*
X73927520Y-38449500D01*
X73787526Y-38487010D01*
X73787522Y-38487012D01*
X73787519Y-38487014D01*
X73787515Y-38487016D01*
X73699101Y-38538062D01*
X73661981Y-38559493D01*
X73625637Y-38595837D01*
X73605688Y-38609167D01*
X73584805Y-38617818D01*
X73561268Y-38622500D01*
X70710487Y-38622500D01*
X70686948Y-38617817D01*
X70678297Y-38614233D01*
X70645034Y-38580991D01*
X70644758Y-38580326D01*
X70642158Y-38540826D01*
X70642899Y-38538062D01*
X70649039Y-38523239D01*
X70669953Y-38487016D01*
X70712984Y-38412485D01*
X70727540Y-38358158D01*
X70750500Y-38272477D01*
X70750500Y-38144281D01*
X70755181Y-38120748D01*
X70758764Y-38112097D01*
X70792045Y-38078812D01*
X70797312Y-38076630D01*
X70830468Y-38072705D01*
X71002797Y-38099999D01*
X71002805Y-38100000D01*
X71207420Y-38100000D01*
X71207421Y-38100000D01*
X71207428Y-38099999D01*
X71409532Y-38067989D01*
X71604141Y-38004756D01*
X71786461Y-37911860D01*
X71831034Y-37879474D01*
X71831033Y-37879473D01*
X71831034Y-37879473D01*
X71228194Y-37276635D01*
X71210181Y-37233148D01*
X71228194Y-37189661D01*
X71255764Y-37173743D01*
X71259507Y-37172741D01*
X71350719Y-37120080D01*
X71425193Y-37045606D01*
X71477854Y-36954394D01*
X71478857Y-36950650D01*
X71507511Y-36913309D01*
X71554178Y-36907164D01*
X71581748Y-36923082D01*
X72184586Y-37525921D01*
X72184586Y-37525920D01*
X72184587Y-37525921D01*
X72216973Y-37481348D01*
X72309869Y-37299028D01*
X72373102Y-37104419D01*
X72405112Y-36902315D01*
X72405113Y-36902307D01*
X72405113Y-36697692D01*
X72405112Y-36697684D01*
X72373102Y-36495580D01*
X72309870Y-36300974D01*
X72309866Y-36300966D01*
X72272893Y-36228401D01*
X72272892Y-36228400D01*
X72259506Y-36202128D01*
X72554613Y-36202128D01*
X72554613Y-37397871D01*
X72561021Y-37457481D01*
X72561023Y-37457488D01*
X72611309Y-37592312D01*
X72611317Y-37592332D01*
X72611318Y-37592333D01*
X72645740Y-37638314D01*
X72697567Y-37707546D01*
X72790047Y-37776776D01*
X72812478Y-37793569D01*
X72812509Y-37793592D01*
X72812508Y-37793592D01*
X72812772Y-37793788D01*
X72812782Y-37793796D01*
X72947630Y-37844091D01*
X73007240Y-37850500D01*
X74202985Y-37850499D01*
X74262596Y-37844091D01*
X74397444Y-37793796D01*
X74512659Y-37707546D01*
X74598909Y-37592331D01*
X74649204Y-37457483D01*
X74655613Y-37397873D01*
X74655612Y-36202128D01*
X74649204Y-36142517D01*
X74649203Y-36142514D01*
X74649203Y-36142512D01*
X74598915Y-36007686D01*
X74598909Y-36007669D01*
X74512659Y-35892454D01*
X74443427Y-35840627D01*
X74397446Y-35806205D01*
X74397445Y-35806204D01*
X74397425Y-35806196D01*
X74269287Y-35758403D01*
X74269278Y-35758401D01*
X74262600Y-35755910D01*
X74262598Y-35755909D01*
X74262596Y-35755909D01*
X74202986Y-35749500D01*
X73007241Y-35749500D01*
X73007240Y-35749500D01*
X72977435Y-35752704D01*
X72947630Y-35755908D01*
X72947623Y-35755910D01*
X72812799Y-35806196D01*
X72812779Y-35806204D01*
X72697567Y-35892454D01*
X72611317Y-36007666D01*
X72611309Y-36007686D01*
X72561021Y-36142512D01*
X72560771Y-36143904D01*
X72560670Y-36145789D01*
X72559370Y-36157871D01*
X72559371Y-36157872D01*
X72554613Y-36202128D01*
X72259506Y-36202128D01*
X72229133Y-36142518D01*
X72216973Y-36118652D01*
X72184587Y-36074077D01*
X72184586Y-36074076D01*
X71581747Y-36676916D01*
X71538260Y-36694929D01*
X71494773Y-36676916D01*
X71478855Y-36649343D01*
X71477854Y-36645606D01*
X71425193Y-36554394D01*
X71350719Y-36479920D01*
X71259507Y-36427259D01*
X71259504Y-36427258D01*
X71255760Y-36426255D01*
X71218418Y-36397598D01*
X71212276Y-36350931D01*
X71228191Y-36323366D01*
X71831034Y-35720524D01*
X71786460Y-35688139D01*
X71738046Y-35663471D01*
X71604142Y-35595243D01*
X71455642Y-35546992D01*
X71444604Y-35537564D01*
X71207431Y-35500000D01*
X71207428Y-35500000D01*
X71002797Y-35500000D01*
X71002793Y-35500000D01*
X70800690Y-35532010D01*
X70606082Y-35595243D01*
X70423773Y-35688134D01*
X70423761Y-35688141D01*
X70379189Y-35720523D01*
X70982030Y-36323364D01*
X71000043Y-36366851D01*
X70982030Y-36410338D01*
X70954469Y-36426253D01*
X70950726Y-36427256D01*
X70950719Y-36427259D01*
X70859508Y-36479919D01*
X70859503Y-36479923D01*
X70785036Y-36554390D01*
X70785032Y-36554395D01*
X70732372Y-36645606D01*
X70732369Y-36645613D01*
X70731366Y-36649356D01*
X70702706Y-36686695D01*
X70656038Y-36692832D01*
X70628477Y-36676917D01*
X70025637Y-36074077D01*
X70014314Y-36089663D01*
X69998684Y-36111176D01*
X69988862Y-36121800D01*
X69979452Y-36129834D01*
X69934683Y-36144372D01*
X69892748Y-36122995D01*
X69892192Y-36122344D01*
X69877500Y-36082453D01*
X69877500Y-28950296D01*
X69862797Y-28895428D01*
X69851775Y-28854295D01*
X69851774Y-28854291D01*
X69837687Y-28829892D01*
X69835378Y-28825893D01*
X69812784Y-28786756D01*
X69806641Y-28771926D01*
X69802593Y-28756817D01*
X69800500Y-28740906D01*
X69800500Y-28677519D01*
X69770987Y-28567385D01*
X69763119Y-28538019D01*
X69762995Y-28537542D01*
X69762986Y-28537519D01*
X69735840Y-28490501D01*
X69690509Y-28411985D01*
X69588015Y-28309491D01*
X69588012Y-28309489D01*
X69588008Y-28309486D01*
X69462490Y-28237018D01*
X69462476Y-28237011D01*
X69322480Y-28199500D01*
X69322477Y-28199500D01*
X69322475Y-28199500D01*
X69177525Y-28199500D01*
X69177523Y-28199500D01*
X69177520Y-28199500D01*
X69037526Y-28237010D01*
X69037522Y-28237012D01*
X69037519Y-28237014D01*
X69037515Y-28237016D01*
X68966503Y-28278015D01*
X68911981Y-28309493D01*
X68809493Y-28411981D01*
X68809490Y-28411985D01*
X68809490Y-28411986D01*
X68759848Y-28497969D01*
X68737012Y-28537522D01*
X68737010Y-28537527D01*
X68699500Y-28677518D01*
X68699500Y-28822480D01*
X68737011Y-28962475D01*
X68737015Y-28962485D01*
X68809486Y-29088008D01*
X68809489Y-29088012D01*
X68809491Y-29088015D01*
X68911985Y-29190509D01*
X69037515Y-29262984D01*
X69037517Y-29262984D01*
X69037518Y-29262985D01*
X69049917Y-29266306D01*
X69057798Y-29268418D01*
X69064537Y-29270224D01*
X69065111Y-29270378D01*
X69065118Y-29270383D01*
X69086622Y-29280989D01*
X69097698Y-29289488D01*
X69119660Y-29322348D01*
X69120401Y-29325114D01*
X69122500Y-29341042D01*
X69122500Y-37549704D01*
X69148221Y-37645697D01*
X69148223Y-37645703D01*
X69148227Y-37645714D01*
X69148228Y-37645715D01*
X69197920Y-37731783D01*
X69197923Y-37731787D01*
X69197925Y-37731790D01*
X69197928Y-37731793D01*
X69197929Y-37731794D01*
X69622836Y-38156701D01*
X69636167Y-38176653D01*
X69644818Y-38197538D01*
X69649500Y-38221073D01*
X69649500Y-38272480D01*
X69687011Y-38412475D01*
X69687014Y-38412480D01*
X69687015Y-38412482D01*
X69687016Y-38412485D01*
X69730047Y-38487016D01*
X69730047Y-38487017D01*
X69748891Y-38519657D01*
X69756604Y-38542379D01*
X69757826Y-38551661D01*
X69754659Y-38563481D01*
X69755034Y-38566325D01*
X69753288Y-38568599D01*
X69745649Y-38597119D01*
X69745211Y-38597690D01*
X69712334Y-38619663D01*
X69709569Y-38620404D01*
X69693649Y-38622500D01*
X69199073Y-38622500D01*
X69175538Y-38617818D01*
X69154653Y-38609167D01*
X69134701Y-38595836D01*
X65809163Y-35270298D01*
X65795831Y-35250344D01*
X65787181Y-35229459D01*
X65782500Y-35205926D01*
X65782500Y-32335296D01*
X65764297Y-32267366D01*
X65756775Y-32239295D01*
X65756774Y-32239291D01*
X65735768Y-32202908D01*
X65707075Y-32153209D01*
X63096790Y-29542925D01*
X63096787Y-29542923D01*
X63096783Y-29542920D01*
X63053749Y-29518074D01*
X63010714Y-29493227D01*
X63010703Y-29493223D01*
X63010697Y-29493221D01*
X62914704Y-29467500D01*
X62914701Y-29467500D01*
X62914699Y-29467500D01*
X61789074Y-29467500D01*
X61765539Y-29462818D01*
X61744654Y-29454167D01*
X61724702Y-29440836D01*
X60870259Y-28586393D01*
X60852246Y-28542906D01*
X60858186Y-28516538D01*
X61376604Y-27424185D01*
X61376604Y-27424181D01*
X61377578Y-27421530D01*
X61377642Y-27421553D01*
X61378680Y-27418483D01*
X61455130Y-27233920D01*
X61491859Y-27049264D01*
X61495500Y-27042454D01*
X61495500Y-26821988D01*
X61494316Y-26818085D01*
X61492631Y-26809616D01*
X61489400Y-26793371D01*
X61488087Y-26786772D01*
X61455131Y-26621085D01*
X61455130Y-26621084D01*
X61455130Y-26621080D01*
X61455127Y-26621074D01*
X61455126Y-26621069D01*
X61455123Y-26621062D01*
X61454869Y-26620322D01*
X61454301Y-26619077D01*
X61444957Y-26596521D01*
X61387380Y-26457519D01*
X61375941Y-26429902D01*
X61331943Y-26364054D01*
X61331938Y-26364045D01*
X61330672Y-26362150D01*
X61330671Y-26362148D01*
X61308942Y-26329628D01*
X61894500Y-26329628D01*
X61894500Y-27525372D01*
X61900908Y-27584981D01*
X61900909Y-27584985D01*
X61944287Y-27701286D01*
X61948624Y-27712915D01*
X61951204Y-27719832D01*
X61994329Y-27777438D01*
X62037454Y-27835046D01*
X62129934Y-27904276D01*
X62152225Y-27920964D01*
X62152240Y-27920975D01*
X62152239Y-27920975D01*
X62152664Y-27921293D01*
X62152671Y-27921297D01*
X62240694Y-27954127D01*
X62287517Y-27971591D01*
X62347127Y-27978000D01*
X63542872Y-27977999D01*
X63602483Y-27971591D01*
X63737331Y-27921296D01*
X63852546Y-27835046D01*
X63938796Y-27719831D01*
X63989091Y-27584983D01*
X63995500Y-27525373D01*
X63995499Y-26329628D01*
X63989091Y-26270017D01*
X63989088Y-26270010D01*
X63973977Y-26229494D01*
X63938796Y-26135169D01*
X63852546Y-26019954D01*
X63759768Y-25950500D01*
X63737333Y-25933705D01*
X63737330Y-25933703D01*
X63737329Y-25933703D01*
X63737325Y-25933701D01*
X63609174Y-25885903D01*
X63609165Y-25885901D01*
X63602487Y-25883410D01*
X63602485Y-25883409D01*
X63602483Y-25883409D01*
X63542873Y-25877000D01*
X62347128Y-25877000D01*
X62347127Y-25877000D01*
X62317322Y-25880204D01*
X62287517Y-25883408D01*
X62287510Y-25883410D01*
X62152686Y-25933696D01*
X62152666Y-25933704D01*
X62037454Y-26019954D01*
X61951204Y-26135166D01*
X61951196Y-26135186D01*
X61900909Y-26270010D01*
X61900659Y-26271401D01*
X61900558Y-26273274D01*
X61895589Y-26319500D01*
X61894500Y-26329628D01*
X61308942Y-26329628D01*
X61260984Y-26257854D01*
X61260975Y-26257843D01*
X61140719Y-26137587D01*
X61135765Y-26125627D01*
X60978095Y-26020277D01*
X60972105Y-26011313D01*
X60942605Y-25996562D01*
X60942599Y-25996560D01*
X60942600Y-25996560D01*
X60942598Y-25996559D01*
X60940073Y-25995513D01*
X60940072Y-25995512D01*
X60751435Y-25917374D01*
X60751427Y-25917371D01*
X60751414Y-25917367D01*
X60751408Y-25917366D01*
X60548471Y-25877000D01*
X60548468Y-25877000D01*
X60548465Y-25877000D01*
X60341535Y-25877000D01*
X60341532Y-25877000D01*
X60341529Y-25877000D01*
X60138590Y-25917366D01*
X60138584Y-25917367D01*
X60138571Y-25917371D01*
X60138563Y-25917374D01*
X59947426Y-25996547D01*
X59947401Y-25996559D01*
X59947400Y-25996559D01*
X59775340Y-26111525D01*
X59629025Y-26257840D01*
X59514059Y-26429900D01*
X59514059Y-26429901D01*
X59514047Y-26429926D01*
X59434874Y-26621063D01*
X59434871Y-26621071D01*
X59434867Y-26621084D01*
X59434866Y-26621090D01*
X59394500Y-26824027D01*
X48909709Y-26824027D01*
X48475215Y-26389533D01*
X48475212Y-26389530D01*
X48475209Y-26389528D01*
X48475205Y-26389525D01*
X48395295Y-26343389D01*
X48395283Y-26343384D01*
X48306146Y-26319500D01*
X48306144Y-26319500D01*
X42577400Y-26319500D01*
X42556207Y-26315733D01*
X42123278Y-26156813D01*
X42123280Y-26156813D01*
X42122448Y-26156671D01*
X42121855Y-26156570D01*
X42116262Y-26155347D01*
X42049979Y-26137587D01*
X41982479Y-26119500D01*
X41982477Y-26119500D01*
X41982475Y-26119500D01*
X41837525Y-26119500D01*
X41837523Y-26119500D01*
X41837520Y-26119500D01*
X41697526Y-26157010D01*
X41697522Y-26157012D01*
X41697519Y-26157014D01*
X41697515Y-26157016D01*
X41682367Y-26165762D01*
X41571981Y-26229493D01*
X41469493Y-26331981D01*
X41469490Y-26331985D01*
X41469490Y-26331986D01*
X41411821Y-26431873D01*
X41397014Y-26457519D01*
X41397010Y-26457527D01*
X41359500Y-26597518D01*
X23100500Y-26597518D01*
X23100500Y-22756527D01*
X24349500Y-22756527D01*
X24349500Y-22963471D01*
X24389866Y-23166408D01*
X24389867Y-23166414D01*
X24389871Y-23166427D01*
X24449902Y-23311350D01*
X24450800Y-23313517D01*
X24469059Y-23357598D01*
X24484651Y-23380933D01*
X24486702Y-23384003D01*
X24486709Y-23384016D01*
X24584020Y-23529652D01*
X24584025Y-23529658D01*
X24704279Y-23649911D01*
X24709233Y-23661871D01*
X24730344Y-23675977D01*
X24806397Y-23726793D01*
X24902402Y-23790941D01*
X24925545Y-23800527D01*
X24973477Y-23820382D01*
X24973480Y-23820382D01*
X24973481Y-23820383D01*
X25093569Y-23870126D01*
X25093571Y-23870126D01*
X25093580Y-23870130D01*
X25290590Y-23909317D01*
X25294489Y-23910500D01*
X25503468Y-23910500D01*
X25514955Y-23910500D01*
X25521764Y-23906859D01*
X25706420Y-23870130D01*
X25706848Y-23869953D01*
X25732518Y-23859319D01*
X25897598Y-23790941D01*
X26069655Y-23675977D01*
X26215977Y-23529655D01*
X26330941Y-23357598D01*
X26404472Y-23180080D01*
X26410126Y-23166430D01*
X26410127Y-23166427D01*
X26410130Y-23166420D01*
X26446859Y-22981764D01*
X26450500Y-22974954D01*
X26450500Y-22758354D01*
X26450500Y-22756532D01*
X26450499Y-22756531D01*
X26450498Y-22756527D01*
X26889500Y-22756527D01*
X26889500Y-22963471D01*
X26929866Y-23166408D01*
X26929867Y-23166414D01*
X26929871Y-23166427D01*
X26989902Y-23311350D01*
X26990800Y-23313517D01*
X27009059Y-23357598D01*
X27024651Y-23380933D01*
X27026702Y-23384003D01*
X27026709Y-23384016D01*
X27124020Y-23529652D01*
X27124025Y-23529658D01*
X27244279Y-23649911D01*
X27249233Y-23661871D01*
X27270344Y-23675977D01*
X27346397Y-23726793D01*
X27442402Y-23790941D01*
X27465545Y-23800527D01*
X27513477Y-23820382D01*
X27513480Y-23820382D01*
X27513481Y-23820383D01*
X27633569Y-23870126D01*
X27633571Y-23870126D01*
X27633580Y-23870130D01*
X27830590Y-23909317D01*
X27834489Y-23910500D01*
X28043468Y-23910500D01*
X28054955Y-23910500D01*
X28061764Y-23906859D01*
X28246420Y-23870130D01*
X28246848Y-23869953D01*
X28272518Y-23859319D01*
X28437598Y-23790941D01*
X28609655Y-23675977D01*
X28755977Y-23529655D01*
X28870941Y-23357598D01*
X28944472Y-23180080D01*
X28950126Y-23166430D01*
X28950127Y-23166427D01*
X28950130Y-23166420D01*
X28986859Y-22981764D01*
X28990500Y-22974954D01*
X28990500Y-22754489D01*
X28989316Y-22750586D01*
X28951312Y-22559522D01*
X28951312Y-22559523D01*
X28950131Y-22553585D01*
X28950130Y-22553584D01*
X28950130Y-22553580D01*
X28950127Y-22553574D01*
X28950009Y-22552979D01*
X28948984Y-22550810D01*
X28902588Y-22438805D01*
X28871774Y-22364416D01*
X28871287Y-22363110D01*
X28870942Y-22362405D01*
X28870941Y-22362402D01*
X28755977Y-22190345D01*
X28635719Y-22070087D01*
X28630765Y-22058127D01*
X28473095Y-21952777D01*
X28467105Y-21943813D01*
X28437601Y-21929060D01*
X28437588Y-21929054D01*
X28437552Y-21929039D01*
X28246435Y-21849874D01*
X28246427Y-21849871D01*
X28246414Y-21849867D01*
X28246408Y-21849866D01*
X28043471Y-21809500D01*
X28043468Y-21809500D01*
X28043465Y-21809500D01*
X27836535Y-21809500D01*
X27836532Y-21809500D01*
X27836529Y-21809500D01*
X27633590Y-21849866D01*
X27633584Y-21849867D01*
X27633571Y-21849871D01*
X27633563Y-21849874D01*
X27442426Y-21929047D01*
X27442401Y-21929059D01*
X27442400Y-21929059D01*
X27270340Y-22044025D01*
X27124025Y-22190340D01*
X27009059Y-22362400D01*
X27009059Y-22362401D01*
X27009047Y-22362426D01*
X26929874Y-22553563D01*
X26929871Y-22553571D01*
X26929867Y-22553584D01*
X26929866Y-22553590D01*
X26889500Y-22756527D01*
X26450498Y-22756527D01*
X26425041Y-22628545D01*
X26411312Y-22559519D01*
X26411154Y-22557917D01*
X26410382Y-22554647D01*
X26410026Y-22553015D01*
X26408984Y-22550810D01*
X26362588Y-22438805D01*
X26331774Y-22364416D01*
X26331287Y-22363110D01*
X26330942Y-22362405D01*
X26330941Y-22362402D01*
X26215977Y-22190345D01*
X26095719Y-22070087D01*
X26090765Y-22058127D01*
X25933095Y-21952777D01*
X25927105Y-21943813D01*
X25897601Y-21929060D01*
X25897588Y-21929054D01*
X25897552Y-21929039D01*
X25706435Y-21849874D01*
X25706427Y-21849871D01*
X25706414Y-21849867D01*
X25706408Y-21849866D01*
X25503471Y-21809500D01*
X25503468Y-21809500D01*
X25503465Y-21809500D01*
X25296535Y-21809500D01*
X25296532Y-21809500D01*
X25296529Y-21809500D01*
X25093590Y-21849866D01*
X25093584Y-21849867D01*
X25093571Y-21849871D01*
X25093563Y-21849874D01*
X24902426Y-21929047D01*
X24902401Y-21929059D01*
X24902400Y-21929059D01*
X24730340Y-22044025D01*
X24584025Y-22190340D01*
X24469059Y-22362400D01*
X24469059Y-22362401D01*
X24469047Y-22362426D01*
X24389874Y-22553563D01*
X24389871Y-22553571D01*
X24389867Y-22553584D01*
X24389866Y-22553590D01*
X24349500Y-22756527D01*
X23100500Y-22756527D01*
X23100500Y-20216527D01*
X24349500Y-20216527D01*
X24349500Y-20423471D01*
X24389866Y-20626408D01*
X24389867Y-20626414D01*
X24389871Y-20626427D01*
X24428632Y-20720000D01*
X24428632Y-20720001D01*
X24469056Y-20817592D01*
X24469061Y-20817602D01*
X24507499Y-20875127D01*
X24507500Y-20875129D01*
X24584025Y-20989658D01*
X24704279Y-21109911D01*
X24709233Y-21121871D01*
X24730345Y-21135977D01*
X24730344Y-21135977D01*
X24816664Y-21193653D01*
X24902402Y-21250941D01*
X24991466Y-21287832D01*
X25091573Y-21329299D01*
X25093080Y-21329987D01*
X25093430Y-21330100D01*
X25093579Y-21330129D01*
X25093580Y-21330130D01*
X25290590Y-21369317D01*
X25294489Y-21370500D01*
X25503468Y-21370500D01*
X25514955Y-21370500D01*
X25521764Y-21366859D01*
X25706420Y-21330130D01*
X25706493Y-21330100D01*
X25732518Y-21319319D01*
X25897598Y-21250941D01*
X26069655Y-21135977D01*
X26215977Y-20989655D01*
X26330941Y-20817598D01*
X26410130Y-20626420D01*
X26446859Y-20441764D01*
X26450500Y-20434954D01*
X26450500Y-20218354D01*
X26450500Y-20216532D01*
X26450499Y-20216531D01*
X26450498Y-20216527D01*
X26889500Y-20216527D01*
X26889500Y-20423471D01*
X26929866Y-20626408D01*
X26929867Y-20626414D01*
X26929871Y-20626427D01*
X26968632Y-20720000D01*
X26968632Y-20720001D01*
X27009056Y-20817592D01*
X27009061Y-20817602D01*
X27047499Y-20875127D01*
X27047500Y-20875129D01*
X27124025Y-20989658D01*
X27244279Y-21109911D01*
X27249233Y-21121871D01*
X27270345Y-21135977D01*
X27270344Y-21135977D01*
X27356664Y-21193653D01*
X27442402Y-21250941D01*
X27531466Y-21287832D01*
X27631573Y-21329299D01*
X27633080Y-21329987D01*
X27633430Y-21330100D01*
X27633579Y-21330129D01*
X27633580Y-21330130D01*
X27830590Y-21369317D01*
X27834489Y-21370500D01*
X28043468Y-21370500D01*
X28054955Y-21370500D01*
X28061764Y-21366859D01*
X28246420Y-21330130D01*
X28246493Y-21330100D01*
X28272518Y-21319319D01*
X28437598Y-21250941D01*
X28609655Y-21135977D01*
X28755977Y-20989655D01*
X28870941Y-20817598D01*
X28950130Y-20626420D01*
X28986859Y-20441764D01*
X28990500Y-20434954D01*
X28990500Y-20218354D01*
X28990500Y-20216532D01*
X28990499Y-20216531D01*
X28990498Y-20216527D01*
X29429500Y-20216527D01*
X29429500Y-20423471D01*
X29469866Y-20626408D01*
X29469867Y-20626414D01*
X29469871Y-20626427D01*
X29508632Y-20720000D01*
X29508632Y-20720001D01*
X29549056Y-20817592D01*
X29549061Y-20817602D01*
X29587499Y-20875127D01*
X29587500Y-20875129D01*
X29664025Y-20989658D01*
X29784279Y-21109911D01*
X29789233Y-21121871D01*
X29810345Y-21135977D01*
X29810344Y-21135977D01*
X29896664Y-21193653D01*
X29982402Y-21250941D01*
X30071466Y-21287832D01*
X30171573Y-21329299D01*
X30173080Y-21329987D01*
X30173430Y-21330100D01*
X30173579Y-21330129D01*
X30173580Y-21330130D01*
X30370590Y-21369317D01*
X30374489Y-21370500D01*
X30583468Y-21370500D01*
X30594955Y-21370500D01*
X30601764Y-21366859D01*
X30786420Y-21330130D01*
X30786493Y-21330100D01*
X30812518Y-21319319D01*
X30977598Y-21250941D01*
X31149655Y-21135977D01*
X31295977Y-20989655D01*
X31410941Y-20817598D01*
X31490130Y-20626420D01*
X31526859Y-20441764D01*
X31530500Y-20434954D01*
X31530500Y-20214489D01*
X31529316Y-20210586D01*
X31491312Y-20019522D01*
X31491312Y-20019523D01*
X31490131Y-20013585D01*
X31490130Y-20013584D01*
X31490130Y-20013580D01*
X31490128Y-20013576D01*
X31490010Y-20012983D01*
X31488985Y-20010816D01*
X31447832Y-19911466D01*
X31410941Y-19822402D01*
X31295977Y-19650345D01*
X31175719Y-19530087D01*
X31170765Y-19518127D01*
X31020466Y-19417702D01*
X30983776Y-19393187D01*
X30977599Y-19389060D01*
X30977600Y-19389060D01*
X30977598Y-19389059D01*
X30961295Y-19382306D01*
X30865650Y-19342687D01*
X30786426Y-19309871D01*
X30786427Y-19309871D01*
X30786414Y-19309867D01*
X30786408Y-19309866D01*
X30583471Y-19269500D01*
X30583468Y-19269500D01*
X30583465Y-19269500D01*
X30376535Y-19269500D01*
X30376532Y-19269500D01*
X30376529Y-19269500D01*
X30173590Y-19309866D01*
X30173584Y-19309867D01*
X30173571Y-19309871D01*
X30173563Y-19309874D01*
X29982426Y-19389047D01*
X29982401Y-19389059D01*
X29982400Y-19389059D01*
X29810340Y-19504025D01*
X29664025Y-19650340D01*
X29549059Y-19822400D01*
X29549059Y-19822401D01*
X29549047Y-19822426D01*
X29469874Y-20013563D01*
X29469871Y-20013571D01*
X29469867Y-20013584D01*
X29469866Y-20013590D01*
X29429500Y-20216527D01*
X28990498Y-20216527D01*
X28965041Y-20088545D01*
X28951312Y-20019519D01*
X28951154Y-20017917D01*
X28950382Y-20014647D01*
X28950027Y-20013019D01*
X28948985Y-20010816D01*
X28907832Y-19911466D01*
X28870941Y-19822402D01*
X28755977Y-19650345D01*
X28635719Y-19530087D01*
X28630765Y-19518127D01*
X28480466Y-19417702D01*
X28443776Y-19393187D01*
X28437599Y-19389060D01*
X28437600Y-19389060D01*
X28437598Y-19389059D01*
X28421295Y-19382306D01*
X28325650Y-19342687D01*
X28246426Y-19309871D01*
X28246427Y-19309871D01*
X28246414Y-19309867D01*
X28246408Y-19309866D01*
X28043471Y-19269500D01*
X28043468Y-19269500D01*
X28043465Y-19269500D01*
X27836535Y-19269500D01*
X27836532Y-19269500D01*
X27836529Y-19269500D01*
X27633590Y-19309866D01*
X27633584Y-19309867D01*
X27633571Y-19309871D01*
X27633563Y-19309874D01*
X27442426Y-19389047D01*
X27442401Y-19389059D01*
X27442400Y-19389059D01*
X27270340Y-19504025D01*
X27124025Y-19650340D01*
X27009059Y-19822400D01*
X27009059Y-19822401D01*
X27009047Y-19822426D01*
X26929874Y-20013563D01*
X26929871Y-20013571D01*
X26929867Y-20013584D01*
X26929866Y-20013590D01*
X26889500Y-20216527D01*
X26450498Y-20216527D01*
X26425041Y-20088545D01*
X26411312Y-20019519D01*
X26411154Y-20017917D01*
X26410382Y-20014647D01*
X26410027Y-20013019D01*
X26408985Y-20010816D01*
X26367832Y-19911466D01*
X26330941Y-19822402D01*
X26215977Y-19650345D01*
X26095719Y-19530087D01*
X26090765Y-19518127D01*
X25940466Y-19417702D01*
X25903776Y-19393187D01*
X25897599Y-19389060D01*
X25897600Y-19389060D01*
X25897598Y-19389059D01*
X25881295Y-19382306D01*
X25785650Y-19342687D01*
X25706426Y-19309871D01*
X25706427Y-19309871D01*
X25706414Y-19309867D01*
X25706408Y-19309866D01*
X25503471Y-19269500D01*
X25503468Y-19269500D01*
X25503465Y-19269500D01*
X25296535Y-19269500D01*
X25296532Y-19269500D01*
X25296529Y-19269500D01*
X25093590Y-19309866D01*
X25093584Y-19309867D01*
X25093571Y-19309871D01*
X25093563Y-19309874D01*
X24902426Y-19389047D01*
X24902401Y-19389059D01*
X24902400Y-19389059D01*
X24730340Y-19504025D01*
X24584025Y-19650340D01*
X24469059Y-19822400D01*
X24469059Y-19822401D01*
X24469047Y-19822426D01*
X24389874Y-20013563D01*
X24389871Y-20013571D01*
X24389867Y-20013584D01*
X24389866Y-20013590D01*
X24349500Y-20216527D01*
X23100500Y-20216527D01*
X23100500Y-19603301D01*
X23100539Y-19601117D01*
X23100618Y-19598894D01*
X23100736Y-19596694D01*
X23103147Y-19562984D01*
X23115292Y-19393161D01*
X23115760Y-19388814D01*
X23115875Y-19388018D01*
X23116383Y-19384482D01*
X23117161Y-19380168D01*
X23117163Y-19380161D01*
X23159846Y-19183946D01*
X23160925Y-19179722D01*
X23162164Y-19175506D01*
X23163547Y-19171354D01*
X23227347Y-19000298D01*
X23233707Y-18983247D01*
X23235375Y-18979219D01*
X23237207Y-18975207D01*
X23239152Y-18971321D01*
X23335392Y-18795071D01*
X23337629Y-18791304D01*
X23340005Y-18787610D01*
X23342483Y-18784041D01*
X23439466Y-18654487D01*
X23462807Y-18623305D01*
X23465550Y-18619902D01*
X23468428Y-18616579D01*
X23471397Y-18613390D01*
X23613386Y-18471401D01*
X23616585Y-18468424D01*
X23619919Y-18465535D01*
X23623280Y-18462826D01*
X23784047Y-18342478D01*
X23787610Y-18340005D01*
X23789791Y-18338602D01*
X23791319Y-18337620D01*
X23795071Y-18335392D01*
X23971321Y-18239152D01*
X23975207Y-18237207D01*
X23979225Y-18235372D01*
X23983247Y-18233707D01*
X24171361Y-18163544D01*
X24175506Y-18162164D01*
X24176064Y-18162000D01*
X24179722Y-18160925D01*
X24183946Y-18159846D01*
X24380180Y-18117158D01*
X24384488Y-18116382D01*
X24384555Y-18116372D01*
X24388821Y-18115759D01*
X24393161Y-18115292D01*
X24596722Y-18100734D01*
X24598895Y-18100618D01*
X24601117Y-18100539D01*
X24603302Y-18100500D01*
X34544926Y-18100500D01*
X34568458Y-18105180D01*
G37*
%TD.AperFunction*%
%TD*%
%TA.AperFunction,Conductor*%
%TO.N,VCC*%
G36*
X43064026Y-28936789D02*
G01*
X43069344Y-28942551D01*
X43181604Y-29205405D01*
X43181702Y-29214359D01*
X43181604Y-29214595D01*
X43069344Y-29477448D01*
X43062943Y-29483711D01*
X43055108Y-29484025D01*
X42590791Y-29339558D01*
X42583910Y-29333828D01*
X42582567Y-29328386D01*
X42582567Y-29091613D01*
X42585994Y-29083340D01*
X42590790Y-29080441D01*
X43055109Y-28935974D01*
X43064026Y-28936789D01*
G37*
%TD.AperFunction*%
%TD*%
%TA.AperFunction,Conductor*%
%TO.N,VCC*%
G36*
X28529209Y-29080441D02*
G01*
X28536090Y-29086171D01*
X28537433Y-29091613D01*
X28537433Y-29328386D01*
X28534006Y-29336659D01*
X28529209Y-29339558D01*
X28064891Y-29484025D01*
X28055973Y-29483210D01*
X28050655Y-29477448D01*
X27990672Y-29337000D01*
X27938394Y-29214593D01*
X27938297Y-29205641D01*
X27938395Y-29205405D01*
X28050656Y-28942549D01*
X28057056Y-28936288D01*
X28064891Y-28935974D01*
X28529209Y-29080441D01*
G37*
%TD.AperFunction*%
%TD*%
%TA.AperFunction,Conductor*%
%TO.N,GND*%
G36*
X26046966Y-34110597D02*
G01*
X26216957Y-34280588D01*
X26220384Y-34288861D01*
X26220381Y-34289107D01*
X26200227Y-35245565D01*
X26196627Y-35253765D01*
X26189211Y-35256999D01*
X25006677Y-35325922D01*
X24998218Y-35322983D01*
X24995312Y-35319010D01*
X24758805Y-34789060D01*
X24758562Y-34780109D01*
X24764055Y-34773930D01*
X26033262Y-34108507D01*
X26042179Y-34107701D01*
X26046966Y-34110597D01*
G37*
%TD.AperFunction*%
%TD*%
%TA.AperFunction,Conductor*%
%TO.N,GND*%
G36*
X52308124Y-34344034D02*
G01*
X53561776Y-34790724D01*
X53568419Y-34796729D01*
X53569063Y-34805082D01*
X53345237Y-35557360D01*
X53339593Y-35564312D01*
X53337360Y-35565237D01*
X52585082Y-35789063D01*
X52576175Y-35788138D01*
X52570724Y-35781776D01*
X52124034Y-34528124D01*
X52124485Y-34519181D01*
X52126779Y-34515927D01*
X52295925Y-34346781D01*
X52304197Y-34343355D01*
X52308124Y-34344034D01*
G37*
%TD.AperFunction*%
%TD*%
%TA.AperFunction,Conductor*%
%TO.N,/OPN_A0_FILTERED*%
G36*
X50455670Y-28720271D02*
G01*
X50904725Y-28928169D01*
X50910791Y-28934753D01*
X50910666Y-28943144D01*
X50804383Y-29207884D01*
X50798120Y-29214285D01*
X50797884Y-29214383D01*
X50533144Y-29320666D01*
X50524190Y-29320568D01*
X50518169Y-29314725D01*
X50310271Y-28865672D01*
X50309906Y-28856727D01*
X50312614Y-28852488D01*
X50442487Y-28722615D01*
X50450759Y-28719189D01*
X50455670Y-28720271D01*
G37*
%TD.AperFunction*%
%TD*%
%TA.AperFunction,Conductor*%
%TO.N,/OPN_A0_FILTERED*%
G36*
X42499765Y-26567185D02*
G01*
X42506350Y-26573252D01*
X42507433Y-26578168D01*
X42507433Y-26761831D01*
X42504006Y-26770104D01*
X42499765Y-26772814D01*
X42035233Y-26943335D01*
X42026285Y-26942969D01*
X42020441Y-26936947D01*
X41949185Y-26770104D01*
X41908394Y-26674593D01*
X41908297Y-26665641D01*
X41908395Y-26665405D01*
X42020442Y-26403050D01*
X42026842Y-26396789D01*
X42035233Y-26396664D01*
X42499765Y-26567185D01*
G37*
%TD.AperFunction*%
%TD*%
%TA.AperFunction,Conductor*%
%TO.N,/OPN_A0*%
G36*
X43943631Y-22631918D02*
G01*
X43949151Y-22638478D01*
X44377046Y-23911062D01*
X44376434Y-23919996D01*
X44374229Y-23923064D01*
X44243064Y-24054229D01*
X44234791Y-24057656D01*
X44231062Y-24057046D01*
X42958478Y-23629151D01*
X42951729Y-23623266D01*
X42950993Y-23614725D01*
X43174763Y-22862637D01*
X43180406Y-22855687D01*
X43182630Y-22854765D01*
X43934725Y-22630993D01*
X43943631Y-22631918D01*
G37*
%TD.AperFunction*%
%TD*%
%TA.AperFunction,Conductor*%
%TO.N,/OPN_A0*%
G36*
X49413714Y-25127030D02*
G01*
X49419558Y-25133052D01*
X49531604Y-25395405D01*
X49531702Y-25404359D01*
X49531604Y-25404595D01*
X49419558Y-25666947D01*
X49413157Y-25673210D01*
X49404766Y-25673335D01*
X48940235Y-25502814D01*
X48933650Y-25496747D01*
X48932567Y-25491831D01*
X48932567Y-25308168D01*
X48935994Y-25299895D01*
X48940234Y-25297185D01*
X49404766Y-25126664D01*
X49413714Y-25127030D01*
G37*
%TD.AperFunction*%
%TD*%
%TA.AperFunction,Conductor*%
%TO.N,/OPN_A1_FILTERED*%
G36*
X39645799Y-27829435D02*
G01*
X39651826Y-27835289D01*
X39849634Y-28263592D01*
X39849992Y-28272540D01*
X39843918Y-28279120D01*
X39834970Y-28279478D01*
X39834534Y-28279307D01*
X39792855Y-28262042D01*
X39792855Y-28444534D01*
X39789428Y-28452807D01*
X39781155Y-28456234D01*
X39776678Y-28455343D01*
X39720992Y-28432277D01*
X39720563Y-28432090D01*
X39265289Y-28221826D01*
X39259215Y-28215246D01*
X39259336Y-28206846D01*
X39365616Y-27942114D01*
X39371879Y-27935714D01*
X39372084Y-27935628D01*
X39636846Y-27829337D01*
X39645799Y-27829435D01*
G37*
%TD.AperFunction*%
%TD*%
%TA.AperFunction,Conductor*%
%TO.N,/OPN_A1_FILTERED*%
G36*
X46873714Y-28088500D02*
G01*
X46879558Y-28094522D01*
X46991604Y-28356875D01*
X46991702Y-28365829D01*
X46991604Y-28366065D01*
X46879558Y-28628417D01*
X46873157Y-28634680D01*
X46864766Y-28634805D01*
X46400235Y-28464284D01*
X46393650Y-28458217D01*
X46392567Y-28453301D01*
X46392567Y-28269638D01*
X46395994Y-28261365D01*
X46400234Y-28258655D01*
X46864766Y-28088134D01*
X46873714Y-28088500D01*
G37*
%TD.AperFunction*%
%TD*%
%TA.AperFunction,Conductor*%
%TO.N,/OPN_A1*%
G36*
X44333714Y-25127030D02*
G01*
X44339558Y-25133052D01*
X44451604Y-25395405D01*
X44451702Y-25404359D01*
X44451604Y-25404595D01*
X44339558Y-25666947D01*
X44333157Y-25673210D01*
X44324766Y-25673335D01*
X43860235Y-25502814D01*
X43853650Y-25496747D01*
X43852567Y-25491831D01*
X43852567Y-25308168D01*
X43855994Y-25299895D01*
X43860234Y-25297185D01*
X44324766Y-25126664D01*
X44333714Y-25127030D01*
G37*
%TD.AperFunction*%
%TD*%
%TA.AperFunction,Conductor*%
%TO.N,/OPN_A1*%
G36*
X41403631Y-22631918D02*
G01*
X41409151Y-22638478D01*
X41837046Y-23911062D01*
X41836434Y-23919996D01*
X41834229Y-23923064D01*
X41703064Y-24054229D01*
X41694791Y-24057656D01*
X41691062Y-24057046D01*
X40418478Y-23629151D01*
X40411729Y-23623266D01*
X40410993Y-23614725D01*
X40634763Y-22862637D01*
X40640406Y-22855687D01*
X40642630Y-22854765D01*
X41394725Y-22630993D01*
X41403631Y-22631918D01*
G37*
%TD.AperFunction*%
%TD*%
%TA.AperFunction,Conductor*%
%TO.N,/OUT_R*%
G36*
X60450565Y-26925661D02*
G01*
X61140780Y-27299335D01*
X61146424Y-27306286D01*
X61145780Y-27314639D01*
X60575172Y-28516964D01*
X60568529Y-28522969D01*
X60564602Y-28523648D01*
X60325398Y-28523648D01*
X60317125Y-28520221D01*
X60314828Y-28516964D01*
X59744219Y-27314639D01*
X59743768Y-27305696D01*
X59749217Y-27299336D01*
X60439431Y-26925662D01*
X60448337Y-26924738D01*
X60450565Y-26925661D01*
G37*
%TD.AperFunction*%
%TD*%
%TA.AperFunction,Conductor*%
%TO.N,/ORIG_OUT_R*%
G36*
X59019026Y-18776789D02*
G01*
X59024344Y-18782551D01*
X59136604Y-19045405D01*
X59136702Y-19054359D01*
X59136604Y-19054595D01*
X59024344Y-19317448D01*
X59017943Y-19323711D01*
X59010108Y-19324025D01*
X58545791Y-19179558D01*
X58538910Y-19173828D01*
X58537567Y-19168386D01*
X58537567Y-18931613D01*
X58540994Y-18923340D01*
X58545790Y-18920441D01*
X59010109Y-18775974D01*
X59019026Y-18776789D01*
G37*
%TD.AperFunction*%
%TD*%
%TA.AperFunction,Conductor*%
%TO.N,/ORIG_OUT_R*%
G36*
X36600818Y-21644485D02*
G01*
X36604075Y-21646782D01*
X36773217Y-21815924D01*
X36776644Y-21824197D01*
X36775965Y-21828124D01*
X36611375Y-22290051D01*
X36608627Y-22294397D01*
X36567936Y-22335089D01*
X36524817Y-22409773D01*
X36502500Y-22493062D01*
X36502500Y-22593594D01*
X36501821Y-22597521D01*
X36329275Y-23081776D01*
X36323270Y-23088419D01*
X36314917Y-23089063D01*
X35562639Y-22865237D01*
X35555687Y-22859593D01*
X35554764Y-22857365D01*
X35330936Y-22105082D01*
X35331861Y-22096175D01*
X35338222Y-22090724D01*
X36591875Y-21644034D01*
X36600818Y-21644485D01*
G37*
%TD.AperFunction*%
%TD*%
%TA.AperFunction,Conductor*%
%TO.N,/ORIG_OUT_L*%
G36*
X57034026Y-18141789D02*
G01*
X57039344Y-18147551D01*
X57151604Y-18410405D01*
X57151702Y-18419359D01*
X57151604Y-18419595D01*
X57039344Y-18682448D01*
X57032943Y-18688711D01*
X57025108Y-18689025D01*
X56560791Y-18544558D01*
X56553910Y-18538828D01*
X56552567Y-18533386D01*
X56552567Y-18296613D01*
X56555994Y-18288340D01*
X56560790Y-18285441D01*
X57025109Y-18140974D01*
X57034026Y-18141789D01*
G37*
%TD.AperFunction*%
%TD*%
%TA.AperFunction,Conductor*%
%TO.N,/ORIG_OUT_L*%
G36*
X34060818Y-21644485D02*
G01*
X34064075Y-21646782D01*
X34233217Y-21815924D01*
X34236644Y-21824197D01*
X34235965Y-21828124D01*
X33789275Y-23081776D01*
X33783270Y-23088419D01*
X33774917Y-23089063D01*
X33022639Y-22865237D01*
X33015687Y-22859593D01*
X33014764Y-22857365D01*
X32790936Y-22105082D01*
X32791861Y-22096175D01*
X32798222Y-22090724D01*
X34051875Y-21644034D01*
X34060818Y-21644485D01*
G37*
%TD.AperFunction*%
%TD*%
%TA.AperFunction,Conductor*%
%TO.N,VCCA*%
G36*
X31243824Y-22631861D02*
G01*
X31249275Y-22638223D01*
X31695965Y-23891875D01*
X31695514Y-23900818D01*
X31693217Y-23904075D01*
X31524075Y-24073217D01*
X31515802Y-24076644D01*
X31511875Y-24075965D01*
X30258223Y-23629275D01*
X30251580Y-23623270D01*
X30250936Y-23614917D01*
X30474763Y-22862637D01*
X30480406Y-22855687D01*
X30482630Y-22854765D01*
X31234917Y-22630936D01*
X31243824Y-22631861D01*
G37*
%TD.AperFunction*%
%TD*%
%TA.AperFunction,Conductor*%
%TO.N,VCCA*%
G36*
X71567637Y-25546629D02*
G01*
X71832884Y-25653116D01*
X71839285Y-25659379D01*
X71839383Y-25659615D01*
X71945869Y-25924861D01*
X71945771Y-25933815D01*
X71940453Y-25939577D01*
X71509978Y-26165744D01*
X71501060Y-26166559D01*
X71496263Y-26163660D01*
X71328839Y-25996236D01*
X71325412Y-25987963D01*
X71326755Y-25982521D01*
X71552923Y-25552044D01*
X71559803Y-25546316D01*
X71567637Y-25546629D01*
G37*
%TD.AperFunction*%
%TD*%
%TA.AperFunction,Conductor*%
%TO.N,VCCA*%
G36*
X66074209Y-26797941D02*
G01*
X66081090Y-26803671D01*
X66082433Y-26809113D01*
X66082433Y-27045886D01*
X66079006Y-27054159D01*
X66074209Y-27057058D01*
X65609891Y-27201525D01*
X65600973Y-27200710D01*
X65595655Y-27194948D01*
X65535672Y-27054500D01*
X65483394Y-26932093D01*
X65483297Y-26923141D01*
X65483395Y-26922905D01*
X65595656Y-26660049D01*
X65602056Y-26653788D01*
X65609891Y-26653474D01*
X66074209Y-26797941D01*
G37*
%TD.AperFunction*%
%TD*%
%TA.AperFunction,Conductor*%
%TO.N,VCCA*%
G36*
X65268025Y-26352158D02*
G01*
X65688949Y-26708442D01*
X65693050Y-26716402D01*
X65690946Y-26724123D01*
X65599843Y-26853082D01*
X65592271Y-26857862D01*
X65586897Y-26857529D01*
X65244932Y-26754011D01*
X65238762Y-26749558D01*
X65215371Y-26716402D01*
X65085880Y-26532856D01*
X65083912Y-26524122D01*
X65087166Y-26517842D01*
X65252194Y-26352814D01*
X65260466Y-26349388D01*
X65268025Y-26352158D01*
G37*
%TD.AperFunction*%
%TD*%
%TA.AperFunction,Conductor*%
%TO.N,/OUT_L*%
G36*
X60452462Y-33278831D02*
G01*
X61054855Y-33777929D01*
X61059039Y-33785845D01*
X61056774Y-33793924D01*
X60571999Y-34444999D01*
X60827718Y-34650128D01*
X60832027Y-34657978D01*
X60829524Y-34666576D01*
X60828670Y-34667528D01*
X60666569Y-34829629D01*
X60658296Y-34833056D01*
X60650024Y-34829629D01*
X60356841Y-34536447D01*
X60354306Y-34532652D01*
X60318002Y-34445005D01*
X60317997Y-34444995D01*
X59833225Y-33793924D01*
X59831032Y-33785242D01*
X59835142Y-33777930D01*
X60437536Y-33278831D01*
X60446092Y-33276192D01*
X60452462Y-33278831D01*
G37*
%TD.AperFunction*%
%TD*%
M02*
