%TF.GenerationSoftware,KiCad,Pcbnew,10.0.4+b1*%
%TF.CreationDate,2026-07-19T22:56:05+09:00*%
%TF.ProjectId,md-opn2c,6d642d6f-706e-4326-932e-6b696361645f,rev?*%
%TF.SameCoordinates,Original*%
%TF.FileFunction,Soldermask,Top*%
%TF.FilePolarity,Negative*%
%FSLAX46Y46*%
G04 Gerber Fmt 4.6, Leading zero omitted, Abs format (unit mm)*
G04 Created by KiCad (PCBNEW 10.0.4+b1) date 2026-07-19 22:56:05*
%MOMM*%
%LPD*%
G01*
G04 APERTURE LIST*
G04 Aperture macros list*
%AMRoundRect*
0 Rectangle with rounded corners*
0 $1 Rounding radius*
0 $2 $3 $4 $5 $6 $7 $8 $9 X,Y pos of 4 corners*
0 Add a 4 corners polygon primitive as box body*
4,1,4,$2,$3,$4,$5,$6,$7,$8,$9,$2,$3,0*
0 Add four circle primitives for the rounded corners*
1,1,$1+$1,$2,$3*
1,1,$1+$1,$4,$5*
1,1,$1+$1,$6,$7*
1,1,$1+$1,$8,$9*
0 Add four rect primitives between the rounded corners*
20,1,$1+$1,$2,$3,$4,$5,0*
20,1,$1+$1,$4,$5,$6,$7,0*
20,1,$1+$1,$6,$7,$8,$9,0*
20,1,$1+$1,$8,$9,$2,$3,0*%
G04 Aperture macros list end*
%ADD10C,1.600000*%
%ADD11RoundRect,0.250000X0.550000X-0.550000X0.550000X0.550000X-0.550000X0.550000X-0.550000X-0.550000X0*%
%ADD12RoundRect,0.250000X0.450000X-0.262500X0.450000X0.262500X-0.450000X0.262500X-0.450000X-0.262500X0*%
%ADD13RoundRect,0.250000X0.262500X0.450000X-0.262500X0.450000X-0.262500X-0.450000X0.262500X-0.450000X0*%
%ADD14RoundRect,0.250000X0.250000X0.475000X-0.250000X0.475000X-0.250000X-0.475000X0.250000X-0.475000X0*%
%ADD15RoundRect,0.250000X-0.262500X-0.450000X0.262500X-0.450000X0.262500X0.450000X-0.262500X0.450000X0*%
%ADD16RoundRect,0.150000X0.150000X-0.825000X0.150000X0.825000X-0.150000X0.825000X-0.150000X-0.825000X0*%
%ADD17RoundRect,0.250000X-0.600000X-0.725000X0.600000X-0.725000X0.600000X0.725000X-0.600000X0.725000X0*%
%ADD18O,1.700000X1.950000*%
%ADD19RoundRect,0.250000X-0.600000X-0.750000X0.600000X-0.750000X0.600000X0.750000X-0.600000X0.750000X0*%
%ADD20O,1.700000X2.000000*%
%ADD21RoundRect,0.250000X0.550000X0.550000X-0.550000X0.550000X-0.550000X-0.550000X0.550000X-0.550000X0*%
%ADD22RoundRect,0.250000X-0.550000X-0.550000X0.550000X-0.550000X0.550000X0.550000X-0.550000X0.550000X0*%
%ADD23RoundRect,0.250000X-0.250000X-0.475000X0.250000X-0.475000X0.250000X0.475000X-0.250000X0.475000X0*%
G04 APERTURE END LIST*
D10*
%TO.C,U4*%
X25400000Y-20320000D03*
X27940000Y-20320000D03*
X30480000Y-20320000D03*
X33020000Y-20320000D03*
X35560000Y-20320000D03*
X38100000Y-20320000D03*
X40640000Y-20320000D03*
X43180000Y-20320000D03*
X45720000Y-20320000D03*
X48260000Y-20320000D03*
X50800000Y-20320000D03*
X53340000Y-20320000D03*
X53340000Y-35560000D03*
X50800000Y-35560000D03*
X48260000Y-35560000D03*
X45720000Y-35560000D03*
X43180000Y-35560000D03*
X40640000Y-35560000D03*
X38100000Y-35560000D03*
X35560000Y-35560000D03*
X33020000Y-35560000D03*
X30480000Y-35560000D03*
X27940000Y-35560000D03*
D11*
X25400000Y-35560000D03*
%TD*%
D12*
%TO.C,R23*%
X73105000Y-31195000D03*
X73105000Y-33020000D03*
%TD*%
D13*
%TO.C,R25*%
X59135000Y-21847500D03*
X60960000Y-21847500D03*
%TD*%
D14*
%TO.C,C2*%
X59100000Y-46990000D03*
X61000000Y-46990000D03*
%TD*%
D15*
%TO.C,R14*%
X61000000Y-44450000D03*
X59175000Y-44450000D03*
%TD*%
D16*
%TO.C,U3*%
X43180000Y-31750000D03*
X44450000Y-31750000D03*
X45720000Y-31750000D03*
X46990000Y-31750000D03*
X48260000Y-31750000D03*
X49530000Y-31750000D03*
X50800000Y-31750000D03*
X50800000Y-26800000D03*
X49530000Y-26800000D03*
X48260000Y-26800000D03*
X46990000Y-26800000D03*
X45720000Y-26800000D03*
X44450000Y-26800000D03*
X43180000Y-26800000D03*
%TD*%
%TO.C,U1*%
X66755000Y-32007500D03*
X68025000Y-32007500D03*
X69295000Y-32007500D03*
X70565000Y-32007500D03*
X70565000Y-27057500D03*
X69295000Y-27057500D03*
X68025000Y-27057500D03*
X66755000Y-27057500D03*
%TD*%
D13*
%TO.C,R24*%
X60960000Y-38357500D03*
X59135000Y-38357500D03*
%TD*%
D12*
%TO.C,R22*%
X73105000Y-27840000D03*
X73105000Y-26015000D03*
%TD*%
D13*
%TO.C,R21*%
X64770000Y-21847500D03*
X62945000Y-21847500D03*
%TD*%
%TO.C,R20*%
X64770000Y-38357500D03*
X62945000Y-38357500D03*
%TD*%
%TO.C,R19*%
X68580000Y-21847500D03*
X66755000Y-21847500D03*
%TD*%
%TO.C,R18*%
X68580000Y-38357500D03*
X66755000Y-38357500D03*
%TD*%
%TO.C,R17*%
X49570000Y-44450000D03*
X47745000Y-44450000D03*
%TD*%
D15*
%TO.C,R16*%
X41950000Y-44450000D03*
X43775000Y-44450000D03*
%TD*%
%TO.C,R12*%
X31865000Y-44450000D03*
X33690000Y-44450000D03*
%TD*%
%TO.C,R11*%
X53455000Y-44450000D03*
X55280000Y-44450000D03*
%TD*%
%TO.C,R10*%
X26785000Y-44450000D03*
X28610000Y-44450000D03*
%TD*%
%TO.C,R9*%
X64885000Y-44450000D03*
X66710000Y-44450000D03*
%TD*%
%TO.C,R8*%
X36945000Y-44450000D03*
X38770000Y-44450000D03*
%TD*%
D17*
%TO.C,JS2*%
X49530000Y-55880000D03*
D18*
X52030000Y-55880000D03*
X54530000Y-55880000D03*
X57030000Y-55880000D03*
%TD*%
D17*
%TO.C,JS1*%
X24130000Y-55880000D03*
D18*
X26630000Y-55880000D03*
X29130000Y-55880000D03*
X31630000Y-55880000D03*
%TD*%
D19*
%TO.C,JPSG1*%
X39370000Y-55880000D03*
D20*
X41870000Y-55880000D03*
%TD*%
D17*
%TO.C,JOUT1*%
X64770000Y-55880000D03*
D18*
X67270000Y-55880000D03*
X69770000Y-55880000D03*
X72270000Y-55880000D03*
%TD*%
D11*
%TO.C,JOPN1*%
X25400000Y-38100000D03*
D10*
X27940000Y-38100000D03*
X30480000Y-38100000D03*
X33020000Y-38100000D03*
X35560000Y-38100000D03*
X38100000Y-38100000D03*
X40640000Y-38100000D03*
X43180000Y-38100000D03*
X45720000Y-38100000D03*
X48260000Y-38100000D03*
X50800000Y-38100000D03*
X53340000Y-38100000D03*
X53340000Y-22860000D03*
X50800000Y-22860000D03*
X48260000Y-22860000D03*
X45720000Y-22860000D03*
X43180000Y-22860000D03*
X40640000Y-22860000D03*
X38100000Y-22860000D03*
X35560000Y-22860000D03*
X33020000Y-22860000D03*
X30480000Y-22860000D03*
X27940000Y-22860000D03*
X25400000Y-22860000D03*
%TD*%
D21*
%TO.C,C15*%
X62945000Y-26927500D03*
D10*
X60445000Y-26927500D03*
%TD*%
D21*
%TO.C,C14*%
X62945000Y-33277500D03*
D10*
X60445000Y-33277500D03*
%TD*%
D22*
%TO.C,C13*%
X71160000Y-36830000D03*
D10*
X73660000Y-36830000D03*
%TD*%
D14*
%TO.C,C11*%
X68655000Y-24387500D03*
X66755000Y-24387500D03*
%TD*%
%TO.C,C9*%
X68655000Y-35817500D03*
X66755000Y-35817500D03*
%TD*%
D23*
%TO.C,C8*%
X47670000Y-46990000D03*
X49570000Y-46990000D03*
%TD*%
D14*
%TO.C,C7*%
X43850000Y-46990000D03*
X41950000Y-46990000D03*
%TD*%
%TO.C,C6*%
X55280000Y-46990000D03*
X53380000Y-46990000D03*
%TD*%
%TO.C,C5*%
X28610000Y-46990000D03*
X26710000Y-46990000D03*
%TD*%
%TO.C,C4*%
X66710000Y-46990000D03*
X64810000Y-46990000D03*
%TD*%
%TO.C,C3*%
X38770000Y-46990000D03*
X36870000Y-46990000D03*
%TD*%
%TO.C,C1*%
X33690000Y-46990000D03*
X31790000Y-46990000D03*
%TD*%
M02*
