%TF.GenerationSoftware,KiCad,Pcbnew,10.0.4+b1*%
%TF.CreationDate,2026-07-19T22:56:05+09:00*%
%TF.ProjectId,md-opn2c,6d642d6f-706e-4326-932e-6b696361645f,rev?*%
%TF.SameCoordinates,Original*%
%TF.FileFunction,Soldermask,Bot*%
%TF.FilePolarity,Negative*%
%FSLAX46Y46*%
G04 Gerber Fmt 4.6, Leading zero omitted, Abs format (unit mm)*
G04 Created by KiCad (PCBNEW 10.0.4+b1) date 2026-07-19 22:56:05*
%MOMM*%
%LPD*%
G01*
G04 APERTURE LIST*
G04 Aperture macros list*
%AMRoundRect*
0 Rectangle with rounded corners*
0 $1 Rounding radius*
0 $2 $3 $4 $5 $6 $7 $8 $9 X,Y pos of 4 corners*
0 Add a 4 corners polygon primitive as box body*
4,1,4,$2,$3,$4,$5,$6,$7,$8,$9,$2,$3,0*
0 Add four circle primitives for the rounded corners*
1,1,$1+$1,$2,$3*
1,1,$1+$1,$4,$5*
1,1,$1+$1,$6,$7*
1,1,$1+$1,$8,$9*
0 Add four rect primitives between the rounded corners*
20,1,$1+$1,$2,$3,$4,$5,0*
20,1,$1+$1,$4,$5,$6,$7,0*
20,1,$1+$1,$6,$7,$8,$9,0*
20,1,$1+$1,$8,$9,$2,$3,0*%
G04 Aperture macros list end*
%ADD10C,1.600000*%
%ADD11RoundRect,0.250000X0.550000X-0.550000X0.550000X0.550000X-0.550000X0.550000X-0.550000X-0.550000X0*%
%ADD12RoundRect,0.250000X-0.600000X-0.725000X0.600000X-0.725000X0.600000X0.725000X-0.600000X0.725000X0*%
%ADD13O,1.700000X1.950000*%
%ADD14RoundRect,0.250000X-0.600000X-0.750000X0.600000X-0.750000X0.600000X0.750000X-0.600000X0.750000X0*%
%ADD15O,1.700000X2.000000*%
%ADD16RoundRect,0.250000X0.550000X0.550000X-0.550000X0.550000X-0.550000X-0.550000X0.550000X-0.550000X0*%
%ADD17RoundRect,0.250000X-0.550000X-0.550000X0.550000X-0.550000X0.550000X0.550000X-0.550000X0.550000X0*%
G04 APERTURE END LIST*
D10*
%TO.C,U4*%
X25400000Y-20320000D03*
X27940000Y-20320000D03*
X30480000Y-20320000D03*
X33020000Y-20320000D03*
X35560000Y-20320000D03*
X38100000Y-20320000D03*
X40640000Y-20320000D03*
X43180000Y-20320000D03*
X45720000Y-20320000D03*
X48260000Y-20320000D03*
X50800000Y-20320000D03*
X53340000Y-20320000D03*
X53340000Y-35560000D03*
X50800000Y-35560000D03*
X48260000Y-35560000D03*
X45720000Y-35560000D03*
X43180000Y-35560000D03*
X40640000Y-35560000D03*
X38100000Y-35560000D03*
X35560000Y-35560000D03*
X33020000Y-35560000D03*
X30480000Y-35560000D03*
X27940000Y-35560000D03*
D11*
X25400000Y-35560000D03*
%TD*%
D12*
%TO.C,JS2*%
X49530000Y-55880000D03*
D13*
X52030000Y-55880000D03*
X54530000Y-55880000D03*
X57030000Y-55880000D03*
%TD*%
D12*
%TO.C,JS1*%
X24130000Y-55880000D03*
D13*
X26630000Y-55880000D03*
X29130000Y-55880000D03*
X31630000Y-55880000D03*
%TD*%
D14*
%TO.C,JPSG1*%
X39370000Y-55880000D03*
D15*
X41870000Y-55880000D03*
%TD*%
D12*
%TO.C,JOUT1*%
X64770000Y-55880000D03*
D13*
X67270000Y-55880000D03*
X69770000Y-55880000D03*
X72270000Y-55880000D03*
%TD*%
D11*
%TO.C,JOPN1*%
X25400000Y-38100000D03*
D10*
X27940000Y-38100000D03*
X30480000Y-38100000D03*
X33020000Y-38100000D03*
X35560000Y-38100000D03*
X38100000Y-38100000D03*
X40640000Y-38100000D03*
X43180000Y-38100000D03*
X45720000Y-38100000D03*
X48260000Y-38100000D03*
X50800000Y-38100000D03*
X53340000Y-38100000D03*
X53340000Y-22860000D03*
X50800000Y-22860000D03*
X48260000Y-22860000D03*
X45720000Y-22860000D03*
X43180000Y-22860000D03*
X40640000Y-22860000D03*
X38100000Y-22860000D03*
X35560000Y-22860000D03*
X33020000Y-22860000D03*
X30480000Y-22860000D03*
X27940000Y-22860000D03*
X25400000Y-22860000D03*
%TD*%
D16*
%TO.C,C15*%
X62945000Y-26927500D03*
D10*
X60445000Y-26927500D03*
%TD*%
D16*
%TO.C,C14*%
X62945000Y-33277500D03*
D10*
X60445000Y-33277500D03*
%TD*%
D17*
%TO.C,C13*%
X71160000Y-36830000D03*
D10*
X73660000Y-36830000D03*
%TD*%
M02*
