M48
; DRILL file KiCad 10.0.5+dfsg-1 date 2026-09-17T19:09:13
; FORMAT={-:-/ absolute / metric / decimal}
; #@! TF.CreationDate,2026-09-17T19:09:13+09:00
; #@! TF.GenerationSoftware,Kicad,Pcbnew,10.0.5+dfsg-1
; #@! TF.FileFunction,Plated,1,2,PTH
FMAT,2
METRIC
; #@! TA.AperFunction,Plated,PTH,ViaDrill
T1C0.300
; #@! TA.AperFunction,Plated,PTH,ComponentDrill
T2C0.800
%
G90
G05
T1
X24.1Y-36.83
X24.13Y-24.13
X24.13Y-33.02
X25.082Y-25.4
X26.543Y-31.496
X26.67Y-36.83
X27.94Y-24.765
X28.956Y-31.496
X29.21Y-36.83
X29.527Y-24.447
X29.718Y-32.385
X31.75Y-31.496
X31.75Y-36.83
X32.067Y-26.352
X32.131Y-29.718
X33.337Y-28.575
X33.528Y-30.988
X34.29Y-36.83
X36.195Y-31.496
X36.83Y-36.83
X38.227Y-29.845
X39.116Y-30.48
X39.37Y-36.83
X40.386Y-31.496
X41.783Y-27.305
X41.91Y-31.75
X42.545Y-41.529
X47.942Y-25.4
X53.023Y-31.432
X53.34Y-32.385
X53.657Y-30.805
X53.975Y-24.765
X53.975Y-27.305
X55.245Y-19.685
X56.832Y-19.685
X56.832Y-30.162
X59.372Y-34.925
X59.69Y-25.717
X60.325Y-23.177
X61.912Y-26.035
X61.912Y-34.925
X61.912Y-37.465
X61.912Y-38.89
X62.865Y-20.32
X63.817Y-22.543
X64.135Y-30.162
X64.77Y-28.892
X64.896Y-19.559
X64.996Y-29.685
X66.675Y-28.892
X67.31Y-22.225
X67.31Y-33.972
X67.31Y-37.782
X67.838Y-38.946
X69.215Y-22.225
X69.507Y-30.433
X69.532Y-39.052
X70.485Y-38.735
X71.12Y-26.67
X71.12Y-28.892
X71.12Y-32.067
T2
X25.4Y-20.32
X25.4Y-22.86
X25.4Y-35.56
X25.4Y-38.1
X27.94Y-20.32
X27.94Y-22.86
X27.94Y-35.56
X27.94Y-38.1
X30.48Y-20.32
X30.48Y-22.86
X30.48Y-35.56
X30.48Y-38.1
X33.02Y-20.32
X33.02Y-22.86
X33.02Y-35.56
X33.02Y-38.1
X35.56Y-20.32
X35.56Y-22.86
X35.56Y-35.56
X35.56Y-38.1
X38.1Y-20.32
X38.1Y-22.86
X38.1Y-35.56
X38.1Y-38.1
X40.64Y-20.32
X40.64Y-22.86
X40.64Y-35.56
X40.64Y-38.1
X43.18Y-20.32
X43.18Y-22.86
X43.18Y-35.56
X43.18Y-38.1
X45.72Y-20.32
X45.72Y-22.86
X45.72Y-35.56
X45.72Y-38.1
X48.26Y-20.32
X48.26Y-22.86
X48.26Y-35.56
X48.26Y-38.1
X50.8Y-20.32
X50.8Y-22.86
X50.8Y-35.56
X50.8Y-38.1
X53.34Y-20.32
X53.34Y-22.86
X53.34Y-35.56
X53.34Y-38.1
X57.76Y-21.59
X57.76Y-27.305
X57.76Y-33.02
X60.26Y-21.59
X60.26Y-27.305
X60.26Y-33.02
M30
