M48
; DRILL file KiCad 10.0.4+b1 date 2026-07-25T10:32:20
; FORMAT={-:-/ absolute / metric / decimal}
; #@! TF.CreationDate,2026-07-25T10:32:20+09:00
; #@! TF.GenerationSoftware,Kicad,Pcbnew,10.0.4+b1
; #@! TF.FileFunction,Plated,1,2,PTH
FMAT,2
METRIC
; #@! TA.AperFunction,Plated,PTH,ViaDrill
T1C0.300
; #@! TA.AperFunction,Plated,PTH,ComponentDrill
T2C0.800
%
G90
G05
T1
X23.6Y-44.2
X25.0Y-44.25
X25.4Y-26.035
X25.4Y-32.385
X25.4Y-40.64
X27.94Y-29.21
X30.48Y-26.035
X30.48Y-32.385
X30.48Y-40.64
X30.48Y-45.72
X34.75Y-43.75
X35.56Y-26.035
X35.56Y-32.385
X35.56Y-40.64
X39.37Y-27.94
X40.6Y-43.8
X40.64Y-26.035
X40.64Y-32.385
X40.64Y-40.64
X41.91Y-26.67
X43.18Y-29.21
X44.45Y-25.4
X45.8Y-40.6
X46.99Y-28.361
X49.53Y-25.4
X50.5Y-40.377
X50.8Y-29.21
X51.0Y-43.5
X53.2Y-33.0
X55.88Y-24.13
X55.88Y-30.48
X56.5Y-40.377
X57.0Y-42.25
X57.15Y-18.415
X58.2Y-38.4
X58.42Y-24.13
X59.135Y-19.05
X60.0Y-46.0
X61.2Y-42.4
X61.5Y-40.377
X64.75Y-35.25
X65.405Y-24.13
X65.485Y-26.927
X66.625Y-41.125
X66.675Y-29.21
X67.0Y-45.6
X69.25Y-28.75
X70.2Y-38.2
X71.835Y-25.657
X72.0Y-39.8
X73.0Y-40.2
X74.0Y-39.0
T2
X25.4Y-20.32
X25.4Y-22.86
X25.4Y-35.56
X25.4Y-38.1
X27.94Y-20.32
X27.94Y-22.86
X27.94Y-35.56
X27.94Y-38.1
X30.48Y-20.32
X30.48Y-22.86
X30.48Y-35.56
X30.48Y-38.1
X33.02Y-20.32
X33.02Y-22.86
X33.02Y-35.56
X33.02Y-38.1
X35.56Y-20.32
X35.56Y-22.86
X35.56Y-35.56
X35.56Y-38.1
X38.1Y-20.32
X38.1Y-22.86
X38.1Y-35.56
X38.1Y-38.1
X40.64Y-20.32
X40.64Y-22.86
X40.64Y-35.56
X40.64Y-38.1
X43.18Y-20.32
X43.18Y-22.86
X43.18Y-35.56
X43.18Y-38.1
X45.72Y-20.32
X45.72Y-22.86
X45.72Y-35.56
X45.72Y-38.1
X48.26Y-20.32
X48.26Y-22.86
X48.26Y-35.56
X48.26Y-38.1
X50.8Y-20.32
X50.8Y-22.86
X50.8Y-35.56
X50.8Y-38.1
X53.34Y-20.32
X53.34Y-22.86
X53.34Y-35.56
X53.34Y-38.1
X60.445Y-26.927
X60.445Y-33.277
X62.945Y-26.927
X62.945Y-33.277
X71.105Y-36.8
X73.605Y-36.8
M30
