%TF.GenerationSoftware,KiCad,Pcbnew,10.0.5+dfsg-1*%
%TF.CreationDate,2026-09-17T19:09:17+09:00*%
%TF.ProjectId,md-opn2c,6d642d6f-706e-4326-932e-6b696361645f,rev?*%
%TF.SameCoordinates,Original*%
%TF.FileFunction,Legend,Bot*%
%TF.FilePolarity,Positive*%
%FSLAX46Y46*%
G04 Gerber Fmt 4.6, Leading zero omitted, Abs format (unit mm)*
G04 Created by KiCad (PCBNEW 10.0.5+dfsg-1) date 2026-09-17 19:09:17*
%MOMM*%
%LPD*%
G01*
G04 APERTURE LIST*
%ADD10C,0.100000*%
%ADD11C,0.102264*%
%ADD12C,0.200000*%
%ADD13C,0.150000*%
%ADD14C,0.120000*%
G04 APERTURE END LIST*
D10*
X56261000Y-37338000D02*
X55880000Y-36957000D01*
X56642000Y-36957000D01*
X56261000Y-37338000D01*
D11*
X56249498Y-37937849D02*
X58911945Y-37937849D01*
X58911945Y-39236593D01*
X56249498Y-39236593D01*
X56249498Y-37937849D01*
G36*
X58911945Y-39236593D02*
G01*
X56249498Y-39236593D01*
X56249498Y-37937849D01*
X58911945Y-37937849D01*
X58911945Y-39236593D01*
G37*
X58875913Y-39834877D02*
X61538361Y-39834877D01*
X61538361Y-41133626D01*
X58875913Y-41133626D01*
X58875913Y-39834877D01*
G36*
X61538361Y-41133626D02*
G01*
X58875913Y-41133626D01*
X58875913Y-39834877D01*
X61538361Y-39834877D01*
X61538361Y-41133626D01*
G37*
D12*
X37211000Y-40894000D02*
X38354000Y-39751000D01*
X37211000Y-40894000D02*
X38354000Y-42037000D01*
X54991000Y-40894000D02*
X37211000Y-40894000D01*
D11*
X56213469Y-39834877D02*
X56213469Y-41133626D01*
X56213469Y-39834877D02*
X57252474Y-39834877D01*
X56213469Y-41133626D02*
X57252474Y-41133626D01*
X56249498Y-37944249D02*
X56249498Y-39243000D01*
X56249498Y-37944249D02*
X57288501Y-37944249D01*
X56249498Y-39243000D02*
X57288501Y-39243000D01*
X57252474Y-39834877D02*
X57771978Y-40484249D01*
X57288501Y-37944249D02*
X57808002Y-38593626D01*
X57642104Y-39834877D02*
X58161602Y-40484249D01*
X57642104Y-39834877D02*
X60109730Y-39834877D01*
X57642104Y-41133626D02*
X60109730Y-41133626D01*
X57678129Y-37944249D02*
X58197624Y-38593626D01*
X57678129Y-37944249D02*
X60145754Y-37944249D01*
X57678129Y-39243000D02*
X60145754Y-39243000D01*
X57771978Y-40484249D02*
X57252474Y-41133626D01*
X57808002Y-38593626D02*
X57288501Y-39243000D01*
X58161602Y-40484249D02*
X57642104Y-41133626D01*
X58197624Y-38593626D02*
X57678129Y-39243000D01*
X59590234Y-40484249D02*
X60109730Y-41133626D01*
X59626256Y-38593626D02*
X60145754Y-39243000D01*
X59979857Y-40484249D02*
X60499357Y-41133626D01*
X60015881Y-38593626D02*
X60535385Y-39243000D01*
X60109730Y-39834877D02*
X59590234Y-40484249D01*
X60145754Y-37944249D02*
X59626256Y-38593626D01*
X60499357Y-39834877D02*
X59979857Y-40484249D01*
X60535385Y-37944249D02*
X60015881Y-38593626D01*
X61538361Y-39834877D02*
X60499357Y-39834877D01*
X61538361Y-39834877D02*
X61538361Y-41133626D01*
X61538361Y-41133626D02*
X60499357Y-41133626D01*
X61574390Y-37944249D02*
X60535385Y-37944249D01*
X61574390Y-37944249D02*
X61574390Y-39243000D01*
X61574390Y-39243000D02*
X60535385Y-39243000D01*
D13*
X70366554Y-35966363D02*
X70366554Y-36859220D01*
X70366554Y-36859220D02*
X70426077Y-37037792D01*
X70426077Y-37037792D02*
X70545125Y-37156840D01*
X70545125Y-37156840D02*
X70723696Y-37216363D01*
X70723696Y-37216363D02*
X70842744Y-37216363D01*
X69235601Y-36383030D02*
X69235601Y-37216363D01*
X69771315Y-36383030D02*
X69771315Y-37037792D01*
X69771315Y-37037792D02*
X69711792Y-37156840D01*
X69711792Y-37156840D02*
X69592744Y-37216363D01*
X69592744Y-37216363D02*
X69414173Y-37216363D01*
X69414173Y-37216363D02*
X69295125Y-37156840D01*
X69295125Y-37156840D02*
X69235601Y-37097316D01*
X68640363Y-37216363D02*
X68640363Y-36383030D01*
X68640363Y-36502078D02*
X68580840Y-36442554D01*
X68580840Y-36442554D02*
X68461792Y-36383030D01*
X68461792Y-36383030D02*
X68283221Y-36383030D01*
X68283221Y-36383030D02*
X68164173Y-36442554D01*
X68164173Y-36442554D02*
X68104649Y-36561601D01*
X68104649Y-36561601D02*
X68104649Y-37216363D01*
X68104649Y-36561601D02*
X68045125Y-36442554D01*
X68045125Y-36442554D02*
X67926078Y-36383030D01*
X67926078Y-36383030D02*
X67747506Y-36383030D01*
X67747506Y-36383030D02*
X67628459Y-36442554D01*
X67628459Y-36442554D02*
X67568935Y-36561601D01*
X67568935Y-36561601D02*
X67568935Y-37216363D01*
X66973696Y-36383030D02*
X66973696Y-37633030D01*
X66973696Y-36442554D02*
X66854649Y-36383030D01*
X66854649Y-36383030D02*
X66616554Y-36383030D01*
X66616554Y-36383030D02*
X66497506Y-36442554D01*
X66497506Y-36442554D02*
X66437982Y-36502078D01*
X66437982Y-36502078D02*
X66378458Y-36621125D01*
X66378458Y-36621125D02*
X66378458Y-36978268D01*
X66378458Y-36978268D02*
X66437982Y-37097316D01*
X66437982Y-37097316D02*
X66497506Y-37156840D01*
X66497506Y-37156840D02*
X66616554Y-37216363D01*
X66616554Y-37216363D02*
X66854649Y-37216363D01*
X66854649Y-37216363D02*
X66973696Y-37156840D01*
X65366554Y-37156840D02*
X65485602Y-37216363D01*
X65485602Y-37216363D02*
X65723697Y-37216363D01*
X65723697Y-37216363D02*
X65842744Y-37156840D01*
X65842744Y-37156840D02*
X65902268Y-37037792D01*
X65902268Y-37037792D02*
X65902268Y-36561601D01*
X65902268Y-36561601D02*
X65842744Y-36442554D01*
X65842744Y-36442554D02*
X65723697Y-36383030D01*
X65723697Y-36383030D02*
X65485602Y-36383030D01*
X65485602Y-36383030D02*
X65366554Y-36442554D01*
X65366554Y-36442554D02*
X65307030Y-36561601D01*
X65307030Y-36561601D02*
X65307030Y-36680649D01*
X65307030Y-36680649D02*
X65902268Y-36799697D01*
X64771315Y-37216363D02*
X64771315Y-36383030D01*
X64771315Y-36621125D02*
X64711792Y-36502078D01*
X64711792Y-36502078D02*
X64652268Y-36442554D01*
X64652268Y-36442554D02*
X64533220Y-36383030D01*
X64533220Y-36383030D02*
X64414173Y-36383030D01*
X64057029Y-37156840D02*
X63937982Y-37216363D01*
X63937982Y-37216363D02*
X63699886Y-37216363D01*
X63699886Y-37216363D02*
X63580839Y-37156840D01*
X63580839Y-37156840D02*
X63521315Y-37037792D01*
X63521315Y-37037792D02*
X63521315Y-36978268D01*
X63521315Y-36978268D02*
X63580839Y-36859220D01*
X63580839Y-36859220D02*
X63699886Y-36799697D01*
X63699886Y-36799697D02*
X63878458Y-36799697D01*
X63878458Y-36799697D02*
X63997505Y-36740173D01*
X63997505Y-36740173D02*
X64057029Y-36621125D01*
X64057029Y-36621125D02*
X64057029Y-36561601D01*
X64057029Y-36561601D02*
X63997505Y-36442554D01*
X63997505Y-36442554D02*
X63878458Y-36383030D01*
X63878458Y-36383030D02*
X63699886Y-36383030D01*
X63699886Y-36383030D02*
X63580839Y-36442554D01*
X62985600Y-37097316D02*
X62926077Y-37156840D01*
X62926077Y-37156840D02*
X62985600Y-37216363D01*
X62985600Y-37216363D02*
X63045124Y-37156840D01*
X63045124Y-37156840D02*
X62985600Y-37097316D01*
X62985600Y-37097316D02*
X62985600Y-37216363D01*
X62985600Y-36442554D02*
X62926077Y-36502078D01*
X62926077Y-36502078D02*
X62985600Y-36561601D01*
X62985600Y-36561601D02*
X63045124Y-36502078D01*
X63045124Y-36502078D02*
X62985600Y-36442554D01*
X62985600Y-36442554D02*
X62985600Y-36561601D01*
X70485601Y-38633555D02*
X70485601Y-39228793D01*
X70902268Y-37978793D02*
X70485601Y-38633555D01*
X70485601Y-38633555D02*
X70068935Y-37978793D01*
X69652267Y-39228793D02*
X69652267Y-37978793D01*
X69652267Y-37978793D02*
X69235601Y-38871650D01*
X69235601Y-38871650D02*
X68818934Y-37978793D01*
X68818934Y-37978793D02*
X68818934Y-39228793D01*
X68283220Y-38097841D02*
X68223696Y-38038317D01*
X68223696Y-38038317D02*
X68104649Y-37978793D01*
X68104649Y-37978793D02*
X67807030Y-37978793D01*
X67807030Y-37978793D02*
X67687982Y-38038317D01*
X67687982Y-38038317D02*
X67628458Y-38097841D01*
X67628458Y-38097841D02*
X67568935Y-38216889D01*
X67568935Y-38216889D02*
X67568935Y-38335936D01*
X67568935Y-38335936D02*
X67628458Y-38514508D01*
X67628458Y-38514508D02*
X68342744Y-39228793D01*
X68342744Y-39228793D02*
X67568935Y-39228793D01*
X66497506Y-37978793D02*
X66735601Y-37978793D01*
X66735601Y-37978793D02*
X66854649Y-38038317D01*
X66854649Y-38038317D02*
X66914173Y-38097841D01*
X66914173Y-38097841D02*
X67033220Y-38276412D01*
X67033220Y-38276412D02*
X67092744Y-38514508D01*
X67092744Y-38514508D02*
X67092744Y-38990698D01*
X67092744Y-38990698D02*
X67033220Y-39109746D01*
X67033220Y-39109746D02*
X66973697Y-39169270D01*
X66973697Y-39169270D02*
X66854649Y-39228793D01*
X66854649Y-39228793D02*
X66616554Y-39228793D01*
X66616554Y-39228793D02*
X66497506Y-39169270D01*
X66497506Y-39169270D02*
X66437982Y-39109746D01*
X66437982Y-39109746D02*
X66378459Y-38990698D01*
X66378459Y-38990698D02*
X66378459Y-38693079D01*
X66378459Y-38693079D02*
X66437982Y-38574031D01*
X66437982Y-38574031D02*
X66497506Y-38514508D01*
X66497506Y-38514508D02*
X66616554Y-38454984D01*
X66616554Y-38454984D02*
X66854649Y-38454984D01*
X66854649Y-38454984D02*
X66973697Y-38514508D01*
X66973697Y-38514508D02*
X67033220Y-38574031D01*
X67033220Y-38574031D02*
X67092744Y-38693079D01*
X65187983Y-39228793D02*
X65902268Y-39228793D01*
X65545125Y-39228793D02*
X65545125Y-37978793D01*
X65545125Y-37978793D02*
X65664173Y-38157365D01*
X65664173Y-38157365D02*
X65783221Y-38276412D01*
X65783221Y-38276412D02*
X65902268Y-38335936D01*
X64711792Y-38097841D02*
X64652268Y-38038317D01*
X64652268Y-38038317D02*
X64533221Y-37978793D01*
X64533221Y-37978793D02*
X64235602Y-37978793D01*
X64235602Y-37978793D02*
X64116554Y-38038317D01*
X64116554Y-38038317D02*
X64057030Y-38097841D01*
X64057030Y-38097841D02*
X63997507Y-38216889D01*
X63997507Y-38216889D02*
X63997507Y-38335936D01*
X63997507Y-38335936D02*
X64057030Y-38514508D01*
X64057030Y-38514508D02*
X64771316Y-39228793D01*
X64771316Y-39228793D02*
X63997507Y-39228793D01*
X70485601Y-40645985D02*
X70485601Y-41241223D01*
X70902268Y-39991223D02*
X70485601Y-40645985D01*
X70485601Y-40645985D02*
X70068935Y-39991223D01*
X69652267Y-41241223D02*
X69652267Y-39991223D01*
X69652267Y-39991223D02*
X69235601Y-40884080D01*
X69235601Y-40884080D02*
X68818934Y-39991223D01*
X68818934Y-39991223D02*
X68818934Y-41241223D01*
X68342744Y-39991223D02*
X67568935Y-39991223D01*
X67568935Y-39991223D02*
X67985601Y-40467414D01*
X67985601Y-40467414D02*
X67807030Y-40467414D01*
X67807030Y-40467414D02*
X67687982Y-40526938D01*
X67687982Y-40526938D02*
X67628458Y-40586461D01*
X67628458Y-40586461D02*
X67568935Y-40705509D01*
X67568935Y-40705509D02*
X67568935Y-41003128D01*
X67568935Y-41003128D02*
X67628458Y-41122176D01*
X67628458Y-41122176D02*
X67687982Y-41181700D01*
X67687982Y-41181700D02*
X67807030Y-41241223D01*
X67807030Y-41241223D02*
X68164173Y-41241223D01*
X68164173Y-41241223D02*
X68283220Y-41181700D01*
X68283220Y-41181700D02*
X68342744Y-41122176D01*
X66497506Y-40407890D02*
X66497506Y-41241223D01*
X66795125Y-39931700D02*
X67092744Y-40824557D01*
X67092744Y-40824557D02*
X66318935Y-40824557D01*
X65961792Y-39991223D02*
X65187983Y-39991223D01*
X65187983Y-39991223D02*
X65604649Y-40467414D01*
X65604649Y-40467414D02*
X65426078Y-40467414D01*
X65426078Y-40467414D02*
X65307030Y-40526938D01*
X65307030Y-40526938D02*
X65247506Y-40586461D01*
X65247506Y-40586461D02*
X65187983Y-40705509D01*
X65187983Y-40705509D02*
X65187983Y-41003128D01*
X65187983Y-41003128D02*
X65247506Y-41122176D01*
X65247506Y-41122176D02*
X65307030Y-41181700D01*
X65307030Y-41181700D02*
X65426078Y-41241223D01*
X65426078Y-41241223D02*
X65783221Y-41241223D01*
X65783221Y-41241223D02*
X65902268Y-41181700D01*
X65902268Y-41181700D02*
X65961792Y-41122176D01*
X64473697Y-40526938D02*
X64592745Y-40467414D01*
X64592745Y-40467414D02*
X64652268Y-40407890D01*
X64652268Y-40407890D02*
X64711792Y-40288842D01*
X64711792Y-40288842D02*
X64711792Y-40229319D01*
X64711792Y-40229319D02*
X64652268Y-40110271D01*
X64652268Y-40110271D02*
X64592745Y-40050747D01*
X64592745Y-40050747D02*
X64473697Y-39991223D01*
X64473697Y-39991223D02*
X64235602Y-39991223D01*
X64235602Y-39991223D02*
X64116554Y-40050747D01*
X64116554Y-40050747D02*
X64057030Y-40110271D01*
X64057030Y-40110271D02*
X63997507Y-40229319D01*
X63997507Y-40229319D02*
X63997507Y-40288842D01*
X63997507Y-40288842D02*
X64057030Y-40407890D01*
X64057030Y-40407890D02*
X64116554Y-40467414D01*
X64116554Y-40467414D02*
X64235602Y-40526938D01*
X64235602Y-40526938D02*
X64473697Y-40526938D01*
X64473697Y-40526938D02*
X64592745Y-40586461D01*
X64592745Y-40586461D02*
X64652268Y-40645985D01*
X64652268Y-40645985D02*
X64711792Y-40765033D01*
X64711792Y-40765033D02*
X64711792Y-41003128D01*
X64711792Y-41003128D02*
X64652268Y-41122176D01*
X64652268Y-41122176D02*
X64592745Y-41181700D01*
X64592745Y-41181700D02*
X64473697Y-41241223D01*
X64473697Y-41241223D02*
X64235602Y-41241223D01*
X64235602Y-41241223D02*
X64116554Y-41181700D01*
X64116554Y-41181700D02*
X64057030Y-41122176D01*
X64057030Y-41122176D02*
X63997507Y-41003128D01*
X63997507Y-41003128D02*
X63997507Y-40765033D01*
X63997507Y-40765033D02*
X64057030Y-40645985D01*
X64057030Y-40645985D02*
X64116554Y-40586461D01*
X64116554Y-40586461D02*
X64235602Y-40526938D01*
%TO.C,JP1*%
D14*
X23920000Y-40007500D02*
X23920000Y-41957500D01*
X23920000Y-41957500D02*
X29420000Y-41957500D01*
X24970000Y-39457500D02*
X25570000Y-39457500D01*
X25270000Y-39757500D02*
X24970000Y-39457500D01*
X25570000Y-39457500D02*
X25270000Y-39757500D01*
X29420000Y-40007500D02*
X23920000Y-40007500D01*
X29420000Y-41957500D02*
X29420000Y-40007500D01*
%TO.C,JP2*%
X30365000Y-40007500D02*
X30365000Y-41957500D01*
X30365000Y-41957500D02*
X35865000Y-41957500D01*
X31415000Y-39457500D02*
X32015000Y-39457500D01*
X31715000Y-39757500D02*
X31415000Y-39457500D01*
X32015000Y-39457500D02*
X31715000Y-39757500D01*
X35865000Y-40007500D02*
X30365000Y-40007500D01*
X35865000Y-41957500D02*
X35865000Y-40007500D01*
%TD*%
M02*
