%TF.GenerationSoftware,KiCad,Pcbnew,10.0.4+b1*%
%TF.CreationDate,2026-07-25T19:09:12+09:00*%
%TF.ProjectId,md-opn2c,6d642d6f-706e-4326-932e-6b696361645f,rev?*%
%TF.SameCoordinates,Original*%
%TF.FileFunction,Soldermask,Top*%
%TF.FilePolarity,Negative*%
%FSLAX46Y46*%
G04 Gerber Fmt 4.6, Leading zero omitted, Abs format (unit mm)*
G04 Created by KiCad (PCBNEW 10.0.4+b1) date 2026-07-25 19:09:12*
%MOMM*%
%LPD*%
G01*
G04 APERTURE LIST*
G04 Aperture macros list*
%AMRoundRect*
0 Rectangle with rounded corners*
0 $1 Rounding radius*
0 $2 $3 $4 $5 $6 $7 $8 $9 X,Y pos of 4 corners*
0 Add a 4 corners polygon primitive as box body*
4,1,4,$2,$3,$4,$5,$6,$7,$8,$9,$2,$3,0*
0 Add four circle primitives for the rounded corners*
1,1,$1+$1,$2,$3*
1,1,$1+$1,$4,$5*
1,1,$1+$1,$6,$7*
1,1,$1+$1,$8,$9*
0 Add four rect primitives between the rounded corners*
20,1,$1+$1,$2,$3,$4,$5,0*
20,1,$1+$1,$4,$5,$6,$7,0*
20,1,$1+$1,$6,$7,$8,$9,0*
20,1,$1+$1,$8,$9,$2,$3,0*%
G04 Aperture macros list end*
%ADD10RoundRect,0.150000X0.150000X-0.825000X0.150000X0.825000X-0.150000X0.825000X-0.150000X-0.825000X0*%
%ADD11RoundRect,0.250000X0.262500X0.450000X-0.262500X0.450000X-0.262500X-0.450000X0.262500X-0.450000X0*%
%ADD12RoundRect,0.250000X-0.262500X-0.450000X0.262500X-0.450000X0.262500X0.450000X-0.262500X0.450000X0*%
%ADD13RoundRect,0.250000X0.250000X0.475000X-0.250000X0.475000X-0.250000X-0.475000X0.250000X-0.475000X0*%
%ADD14RoundRect,0.250000X0.550000X0.550000X-0.550000X0.550000X-0.550000X-0.550000X0.550000X-0.550000X0*%
%ADD15C,1.600000*%
%ADD16RoundRect,0.250000X-0.250000X-0.750000X0.250000X-0.750000X0.250000X0.750000X-0.250000X0.750000X0*%
%ADD17RoundRect,0.250000X0.450000X-0.262500X0.450000X0.262500X-0.450000X0.262500X-0.450000X-0.262500X0*%
%ADD18RoundRect,0.250000X0.550000X-0.550000X0.550000X0.550000X-0.550000X0.550000X-0.550000X-0.550000X0*%
%ADD19RoundRect,0.250000X0.750000X-0.250000X0.750000X0.250000X-0.750000X0.250000X-0.750000X-0.250000X0*%
G04 APERTURE END LIST*
D10*
%TO.C,U2*%
X43180000Y-31750000D03*
X44450000Y-31750000D03*
X45720000Y-31750000D03*
X46990000Y-31750000D03*
X48260000Y-31750000D03*
X49530000Y-31750000D03*
X50800000Y-31750000D03*
X50800000Y-26800000D03*
X49530000Y-26800000D03*
X48260000Y-26800000D03*
X46990000Y-26800000D03*
X45720000Y-26800000D03*
X44450000Y-26800000D03*
X43180000Y-26800000D03*
%TD*%
D11*
%TO.C,R18*%
X64770000Y-38357500D03*
X62945000Y-38357500D03*
%TD*%
D12*
%TO.C,R9*%
X58250000Y-40960000D03*
X60075000Y-40960000D03*
%TD*%
D13*
%TO.C,C7*%
X43900000Y-43540000D03*
X42000000Y-43540000D03*
%TD*%
D14*
%TO.C,C11*%
X73605113Y-36800000D03*
D15*
X71105113Y-36800000D03*
%TD*%
D16*
%TO.C,OUT_GND1*%
X70000000Y-44700000D03*
%TD*%
D13*
%TO.C,C9*%
X68655000Y-35817500D03*
X66755000Y-35817500D03*
%TD*%
D11*
%TO.C,R16*%
X68580000Y-38357500D03*
X66755000Y-38357500D03*
%TD*%
D17*
%TO.C,R21*%
X73105000Y-33020000D03*
X73105000Y-31195000D03*
%TD*%
D13*
%TO.C,C2*%
X60075000Y-43500000D03*
X58175000Y-43500000D03*
%TD*%
D16*
%TO.C,OUT_R1*%
X74000000Y-44700000D03*
%TD*%
D13*
%TO.C,C4*%
X65325000Y-43540000D03*
X63425000Y-43540000D03*
%TD*%
D18*
%TO.C,JOPN1*%
X25400000Y-38100000D03*
D15*
X27940000Y-38100000D03*
X30480000Y-38100000D03*
X33020000Y-38100000D03*
X35560000Y-38100000D03*
X38100000Y-38100000D03*
X40640000Y-38100000D03*
X43180000Y-38100000D03*
X45720000Y-38100000D03*
X48260000Y-38100000D03*
X50800000Y-38100000D03*
X53340000Y-38100000D03*
X53340000Y-22860000D03*
X50800000Y-22860000D03*
X48260000Y-22860000D03*
X45720000Y-22860000D03*
X43180000Y-22860000D03*
X40640000Y-22860000D03*
X38100000Y-22860000D03*
X35560000Y-22860000D03*
X33020000Y-22860000D03*
X30480000Y-22860000D03*
X27940000Y-22860000D03*
X25400000Y-22860000D03*
%TD*%
D13*
%TO.C,C8*%
X49325000Y-43540000D03*
X47425000Y-43540000D03*
%TD*%
D19*
%TO.C,IN_SR2*%
X54500000Y-45500000D03*
%TD*%
D12*
%TO.C,R13*%
X53250000Y-41000000D03*
X55075000Y-41000000D03*
%TD*%
D16*
%TO.C,OUT_L1*%
X72000000Y-44700000D03*
%TD*%
D19*
%TO.C,IN_SL1*%
X38250000Y-45500000D03*
%TD*%
%TO.C,IN_SR1*%
X65000000Y-45600000D03*
%TD*%
D12*
%TO.C,R8*%
X31830000Y-41000000D03*
X33655000Y-41000000D03*
%TD*%
D14*
%TO.C,C13*%
X62945000Y-26927500D03*
D15*
X60445000Y-26927500D03*
%TD*%
D12*
%TO.C,R11*%
X63500000Y-41000000D03*
X65325000Y-41000000D03*
%TD*%
D13*
%TO.C,C1*%
X33655000Y-43540000D03*
X31755000Y-43540000D03*
%TD*%
D11*
%TO.C,R17*%
X68580000Y-21847500D03*
X66755000Y-21847500D03*
%TD*%
D19*
%TO.C,IN_SL2*%
X28600000Y-45500000D03*
%TD*%
%TO.C,IN_PSG1*%
X46750000Y-45500000D03*
%TD*%
D17*
%TO.C,R22*%
X57200000Y-22112500D03*
X57200000Y-20287500D03*
%TD*%
D12*
%TO.C,R15*%
X47500000Y-41000000D03*
X49325000Y-41000000D03*
%TD*%
D14*
%TO.C,C12*%
X62945000Y-33277500D03*
D15*
X60445000Y-33277500D03*
%TD*%
D13*
%TO.C,C3*%
X38735000Y-43540000D03*
X36835000Y-43540000D03*
%TD*%
D18*
%TO.C,U3*%
X25400000Y-35560000D03*
D15*
X27940000Y-35560000D03*
X30480000Y-35560000D03*
X33020000Y-35560000D03*
X35560000Y-35560000D03*
X38100000Y-35560000D03*
X40640000Y-35560000D03*
X43180000Y-35560000D03*
X45720000Y-35560000D03*
X48260000Y-35560000D03*
X50800000Y-35560000D03*
X53340000Y-35560000D03*
X53340000Y-20320000D03*
X50800000Y-20320000D03*
X48260000Y-20320000D03*
X45720000Y-20320000D03*
X43180000Y-20320000D03*
X40640000Y-20320000D03*
X38100000Y-20320000D03*
X35560000Y-20320000D03*
X33020000Y-20320000D03*
X30480000Y-20320000D03*
X27940000Y-20320000D03*
X25400000Y-20320000D03*
%TD*%
D17*
%TO.C,R23*%
X59400000Y-22112500D03*
X59400000Y-20287500D03*
%TD*%
D13*
%TO.C,C6*%
X55075000Y-43540000D03*
X53175000Y-43540000D03*
%TD*%
D12*
%TO.C,R14*%
X42000000Y-41000000D03*
X43825000Y-41000000D03*
%TD*%
D17*
%TO.C,R20*%
X73105000Y-27840000D03*
X73105000Y-26015000D03*
%TD*%
D10*
%TO.C,U1*%
X66755000Y-32007500D03*
X68025000Y-32007500D03*
X69295000Y-32007500D03*
X70565000Y-32007500D03*
X70565000Y-27057500D03*
X69295000Y-27057500D03*
X68025000Y-27057500D03*
X66755000Y-27057500D03*
%TD*%
D13*
%TO.C,C10*%
X68655000Y-24387500D03*
X66755000Y-24387500D03*
%TD*%
D11*
%TO.C,R19*%
X64770000Y-21847500D03*
X62945000Y-21847500D03*
%TD*%
D12*
%TO.C,R12*%
X26750000Y-41000000D03*
X28575000Y-41000000D03*
%TD*%
D13*
%TO.C,C5*%
X28575000Y-43540000D03*
X26675000Y-43540000D03*
%TD*%
D12*
%TO.C,R10*%
X36910000Y-41000000D03*
X38735000Y-41000000D03*
%TD*%
M02*
