%TF.GenerationSoftware,KiCad,Pcbnew,10.0.4+b1*%
%TF.CreationDate,2026-08-03T21:19:25+09:00*%
%TF.ProjectId,md-opn2c,6d642d6f-706e-4326-932e-6b696361645f,rev?*%
%TF.SameCoordinates,Original*%
%TF.FileFunction,Legend,Top*%
%TF.FilePolarity,Positive*%
%FSLAX46Y46*%
G04 Gerber Fmt 4.6, Leading zero omitted, Abs format (unit mm)*
G04 Created by KiCad (PCBNEW 10.0.4+b1) date 2026-08-03 21:19:25*
%MOMM*%
%LPD*%
G01*
G04 APERTURE LIST*
%ADD10C,0.100000*%
%ADD11C,0.150000*%
%ADD12C,0.125000*%
%ADD13C,0.300000*%
%ADD14C,0.120000*%
G04 APERTURE END LIST*
D10*
X63703200Y-45081000D02*
X63703200Y-45081000D01*
G75*
G02*
X63953200Y-44831000I250000J0D01*
G01*
X65993200Y-44831000D01*
G75*
G02*
X66243200Y-45081000I0J-250000D01*
G01*
X66243200Y-46054200D01*
G75*
G02*
X65993200Y-46304200I-250000J0D01*
G01*
X63953200Y-46304200D01*
G75*
G02*
X63703200Y-46054200I0J250000D01*
G01*
X63703200Y-45081000D01*
X55016400Y-45131800D02*
X55016400Y-45131800D01*
G75*
G02*
X55266400Y-44881800I250000J0D01*
G01*
X57306400Y-44881800D01*
G75*
G02*
X57556400Y-45131800I0J-250000D01*
G01*
X57556400Y-46105000D01*
G75*
G02*
X57306400Y-46355000I-250000J0D01*
G01*
X55266400Y-46355000D01*
G75*
G02*
X55016400Y-46105000I0J250000D01*
G01*
X55016400Y-45131800D01*
X45466000Y-45030200D02*
X45466000Y-45030200D01*
G75*
G02*
X45716000Y-44780200I250000J0D01*
G01*
X47756000Y-44780200D01*
G75*
G02*
X48006000Y-45030200I0J-250000D01*
G01*
X48006000Y-46003400D01*
G75*
G02*
X47756000Y-46253400I-250000J0D01*
G01*
X45716000Y-46253400D01*
G75*
G02*
X45466000Y-46003400I0J250000D01*
G01*
X45466000Y-45030200D01*
X36982400Y-44979400D02*
X36982400Y-44979400D01*
G75*
G02*
X37232400Y-44729400I250000J0D01*
G01*
X39272400Y-44729400D01*
G75*
G02*
X39522400Y-44979400I0J-250000D01*
G01*
X39522400Y-45952600D01*
G75*
G02*
X39272400Y-46202600I-250000J0D01*
G01*
X37232400Y-46202600D01*
G75*
G02*
X36982400Y-45952600I0J250000D01*
G01*
X36982400Y-44979400D01*
X27330400Y-45004800D02*
X27330400Y-45004800D01*
G75*
G02*
X27580400Y-44754800I250000J0D01*
G01*
X29620400Y-44754800D01*
G75*
G02*
X29870400Y-45004800I0J-250000D01*
G01*
X29870400Y-45978000D01*
G75*
G02*
X29620400Y-46228000I-250000J0D01*
G01*
X27580400Y-46228000D01*
G75*
G02*
X27330400Y-45978000I0J250000D01*
G01*
X27330400Y-45004800D01*
D11*
X70243445Y-42532390D02*
X70125350Y-42494295D01*
X70125350Y-42494295D02*
X69948207Y-42494295D01*
X69948207Y-42494295D02*
X69771064Y-42532390D01*
X69771064Y-42532390D02*
X69652969Y-42608580D01*
X69652969Y-42608580D02*
X69593922Y-42684771D01*
X69593922Y-42684771D02*
X69534874Y-42837152D01*
X69534874Y-42837152D02*
X69534874Y-42951438D01*
X69534874Y-42951438D02*
X69593922Y-43103819D01*
X69593922Y-43103819D02*
X69652969Y-43180009D01*
X69652969Y-43180009D02*
X69771064Y-43256200D01*
X69771064Y-43256200D02*
X69948207Y-43294295D01*
X69948207Y-43294295D02*
X70066303Y-43294295D01*
X70066303Y-43294295D02*
X70243445Y-43256200D01*
X70243445Y-43256200D02*
X70302493Y-43218104D01*
X70302493Y-43218104D02*
X70302493Y-42951438D01*
X70302493Y-42951438D02*
X70066303Y-42951438D01*
X72369160Y-43294295D02*
X71778684Y-43294295D01*
X71778684Y-43294295D02*
X71778684Y-42494295D01*
X74435827Y-43294295D02*
X74022494Y-42913342D01*
X73727256Y-43294295D02*
X73727256Y-42494295D01*
X73727256Y-42494295D02*
X74199637Y-42494295D01*
X74199637Y-42494295D02*
X74317732Y-42532390D01*
X74317732Y-42532390D02*
X74376779Y-42570485D01*
X74376779Y-42570485D02*
X74435827Y-42646676D01*
X74435827Y-42646676D02*
X74435827Y-42760961D01*
X74435827Y-42760961D02*
X74376779Y-42837152D01*
X74376779Y-42837152D02*
X74317732Y-42875247D01*
X74317732Y-42875247D02*
X74199637Y-42913342D01*
X74199637Y-42913342D02*
X73727256Y-42913342D01*
D10*
X69000000Y-46200000D02*
X69000000Y-40800000D01*
X75000000Y-40800000D02*
X69000000Y-40800000D01*
X75000000Y-40800000D02*
X75000000Y-46200000D01*
X75000000Y-46200000D02*
X69000000Y-46200000D01*
D11*
G36*
X72975647Y-41131774D02*
G01*
X73036831Y-41206633D01*
X73072086Y-41379174D01*
X73072086Y-41710672D01*
X73036831Y-41883213D01*
X72975648Y-41958071D01*
X72923583Y-41989923D01*
X72803922Y-41989923D01*
X72751855Y-41958070D01*
X72690673Y-41883212D01*
X72655419Y-41710672D01*
X72655419Y-41379174D01*
X72690673Y-41206634D01*
X72751857Y-41131773D01*
X72803921Y-41099923D01*
X72923584Y-41099923D01*
X72975647Y-41131774D01*
G37*
G36*
X74955248Y-42255479D02*
G01*
X69030339Y-42255479D01*
X69030339Y-41024923D01*
X69145895Y-41024923D01*
X69145895Y-42064923D01*
X69147336Y-42079555D01*
X69158535Y-42106591D01*
X69179227Y-42127283D01*
X69206263Y-42138482D01*
X69220895Y-42139923D01*
X69625657Y-42139923D01*
X69640289Y-42138482D01*
X69667325Y-42127283D01*
X69688017Y-42106591D01*
X69699216Y-42079555D01*
X69699216Y-42050291D01*
X69688017Y-42023255D01*
X69667325Y-42002563D01*
X69640289Y-41991364D01*
X69625657Y-41989923D01*
X69295895Y-41989923D01*
X69295895Y-41024923D01*
X69833990Y-41024923D01*
X69833990Y-42064923D01*
X69835431Y-42079555D01*
X69846630Y-42106591D01*
X69867322Y-42127283D01*
X69894358Y-42138482D01*
X69923622Y-42138482D01*
X69950658Y-42127283D01*
X69971350Y-42106591D01*
X69982549Y-42079555D01*
X69983990Y-42064923D01*
X69983990Y-41024923D01*
X70238752Y-41024923D01*
X70238752Y-42064923D01*
X70240193Y-42079555D01*
X70251392Y-42106591D01*
X70272084Y-42127283D01*
X70299120Y-42138482D01*
X70328384Y-42138482D01*
X70355420Y-42127283D01*
X70376112Y-42106591D01*
X70387311Y-42079555D01*
X70388752Y-42064923D01*
X70388752Y-41362749D01*
X70731513Y-42096660D01*
X70736427Y-42104950D01*
X70737107Y-42106591D01*
X70737826Y-42107310D01*
X70739010Y-42109307D01*
X70748600Y-42118084D01*
X70757799Y-42127283D01*
X70759355Y-42127927D01*
X70760597Y-42129064D01*
X70772809Y-42133500D01*
X70784835Y-42138482D01*
X70786521Y-42138482D01*
X70788101Y-42139056D01*
X70801080Y-42138482D01*
X70814099Y-42138482D01*
X70815655Y-42137837D01*
X70817337Y-42137763D01*
X70829119Y-42132259D01*
X70841135Y-42127283D01*
X70842325Y-42126092D01*
X70843851Y-42125380D01*
X70852628Y-42115789D01*
X70861827Y-42106591D01*
X70862471Y-42105034D01*
X70863609Y-42103792D01*
X70868049Y-42091568D01*
X70873026Y-42079555D01*
X70873253Y-42077244D01*
X70873601Y-42076288D01*
X70873522Y-42074513D01*
X70874467Y-42064923D01*
X70874467Y-41024923D01*
X71129228Y-41024923D01*
X71129228Y-42064923D01*
X71130669Y-42079555D01*
X71141868Y-42106591D01*
X71162560Y-42127283D01*
X71189596Y-42138482D01*
X71204228Y-42139923D01*
X71608990Y-42139923D01*
X71623622Y-42138482D01*
X71650658Y-42127283D01*
X71671350Y-42106591D01*
X71682549Y-42079555D01*
X71682549Y-42050291D01*
X71671350Y-42023255D01*
X71650658Y-42002563D01*
X71623622Y-41991364D01*
X71608990Y-41989923D01*
X71279228Y-41989923D01*
X71279228Y-41595161D01*
X71487562Y-41595161D01*
X71502194Y-41593720D01*
X71529230Y-41582521D01*
X71549922Y-41561829D01*
X71561121Y-41534793D01*
X71561121Y-41505529D01*
X71549922Y-41478493D01*
X71529230Y-41457801D01*
X71502194Y-41446602D01*
X71487562Y-41445161D01*
X71279228Y-41445161D01*
X71279228Y-41371590D01*
X72505419Y-41371590D01*
X72505419Y-41718257D01*
X72505444Y-41718518D01*
X72505420Y-41718647D01*
X72506159Y-41725771D01*
X72506860Y-41732889D01*
X72506909Y-41733009D01*
X72506937Y-41733271D01*
X72547413Y-41931366D01*
X72551754Y-41945414D01*
X72553686Y-41948273D01*
X72554680Y-41951573D01*
X72562823Y-41963815D01*
X72643776Y-42062862D01*
X72649847Y-42068958D01*
X72650979Y-42070513D01*
X72652665Y-42071787D01*
X72654152Y-42073280D01*
X72655839Y-42074186D01*
X72662709Y-42079378D01*
X72743661Y-42128901D01*
X72756895Y-42135307D01*
X72762719Y-42136224D01*
X72768168Y-42138482D01*
X72782800Y-42139923D01*
X72944705Y-42139923D01*
X72959337Y-42138482D01*
X72964785Y-42136224D01*
X72970610Y-42135307D01*
X72983844Y-42128901D01*
X73064796Y-42079378D01*
X73071665Y-42074186D01*
X73073353Y-42073280D01*
X73074839Y-42071787D01*
X73076526Y-42070513D01*
X73077656Y-42068959D01*
X73083729Y-42062863D01*
X73164681Y-41963815D01*
X73172825Y-41951574D01*
X73173819Y-41948272D01*
X73175751Y-41945414D01*
X73180092Y-41931366D01*
X73220568Y-41733271D01*
X73220595Y-41733009D01*
X73220645Y-41732889D01*
X73221345Y-41725771D01*
X73222085Y-41718647D01*
X73222060Y-41718518D01*
X73222086Y-41718257D01*
X73222086Y-41371590D01*
X73222060Y-41371328D01*
X73222085Y-41371200D01*
X73221345Y-41364075D01*
X73220645Y-41356958D01*
X73220595Y-41356837D01*
X73220568Y-41356576D01*
X73180092Y-41158481D01*
X73175751Y-41144433D01*
X73173819Y-41141574D01*
X73172825Y-41138273D01*
X73164681Y-41126032D01*
X73083729Y-41026984D01*
X73081676Y-41024923D01*
X73436371Y-41024923D01*
X73436371Y-41866828D01*
X73437744Y-41880775D01*
X73437743Y-41881110D01*
X73437794Y-41881282D01*
X73437812Y-41881460D01*
X73437938Y-41881764D01*
X73441945Y-41895200D01*
X73482422Y-41994248D01*
X73485090Y-41999297D01*
X73485632Y-42001097D01*
X73487618Y-42004083D01*
X73489291Y-42007248D01*
X73490610Y-42008580D01*
X73493776Y-42013338D01*
X73534252Y-42062862D01*
X73540323Y-42068958D01*
X73541455Y-42070513D01*
X73543141Y-42071787D01*
X73544627Y-42073279D01*
X73546313Y-42074184D01*
X73553185Y-42079378D01*
X73634137Y-42128901D01*
X73647371Y-42135307D01*
X73653195Y-42136224D01*
X73658644Y-42138482D01*
X73673276Y-42139923D01*
X73835181Y-42139923D01*
X73849813Y-42138482D01*
X73855261Y-42136224D01*
X73861086Y-42135307D01*
X73874320Y-42128901D01*
X73955272Y-42079378D01*
X73962141Y-42074186D01*
X73963829Y-42073280D01*
X73965315Y-42071787D01*
X73967002Y-42070513D01*
X73968133Y-42068958D01*
X73974204Y-42062863D01*
X74014681Y-42013339D01*
X74017846Y-42008581D01*
X74019168Y-42007247D01*
X74020842Y-42004077D01*
X74022825Y-42001098D01*
X74023365Y-41999302D01*
X74026037Y-41994247D01*
X74066513Y-41895199D01*
X74070518Y-41881764D01*
X74070645Y-41881460D01*
X74070662Y-41881282D01*
X74070714Y-41881110D01*
X74070712Y-41880775D01*
X74072086Y-41866828D01*
X74072086Y-41024923D01*
X74070645Y-41010291D01*
X74206860Y-41010291D01*
X74206860Y-41039555D01*
X74218059Y-41066591D01*
X74238751Y-41087283D01*
X74265787Y-41098482D01*
X74280419Y-41099923D01*
X74448276Y-41099923D01*
X74448276Y-42064923D01*
X74449717Y-42079555D01*
X74460916Y-42106591D01*
X74481608Y-42127283D01*
X74508644Y-42138482D01*
X74537908Y-42138482D01*
X74564944Y-42127283D01*
X74585636Y-42106591D01*
X74596835Y-42079555D01*
X74598276Y-42064923D01*
X74598276Y-41099923D01*
X74766133Y-41099923D01*
X74780765Y-41098482D01*
X74807801Y-41087283D01*
X74828493Y-41066591D01*
X74839692Y-41039555D01*
X74839692Y-41010291D01*
X74828493Y-40983255D01*
X74807801Y-40962563D01*
X74780765Y-40951364D01*
X74766133Y-40949923D01*
X74280419Y-40949923D01*
X74265787Y-40951364D01*
X74238751Y-40962563D01*
X74218059Y-40983255D01*
X74206860Y-41010291D01*
X74070645Y-41010291D01*
X74059446Y-40983255D01*
X74038754Y-40962563D01*
X74011718Y-40951364D01*
X73982454Y-40951364D01*
X73955418Y-40962563D01*
X73934726Y-40983255D01*
X73923527Y-41010291D01*
X73922086Y-41024923D01*
X73922086Y-41852094D01*
X73891431Y-41927109D01*
X73866126Y-41958070D01*
X73814059Y-41989923D01*
X73694398Y-41989923D01*
X73642331Y-41958071D01*
X73617026Y-41927109D01*
X73586371Y-41852095D01*
X73586371Y-41024923D01*
X73584930Y-41010291D01*
X73573731Y-40983255D01*
X73553039Y-40962563D01*
X73526003Y-40951364D01*
X73496739Y-40951364D01*
X73469703Y-40962563D01*
X73449011Y-40983255D01*
X73437812Y-41010291D01*
X73436371Y-41024923D01*
X73081676Y-41024923D01*
X73077653Y-41020884D01*
X73076526Y-41019335D01*
X73074843Y-41018063D01*
X73073353Y-41016567D01*
X73071660Y-41015658D01*
X73064796Y-41010470D01*
X72983844Y-40960946D01*
X72970611Y-40954539D01*
X72964785Y-40953620D01*
X72959337Y-40951364D01*
X72944705Y-40949923D01*
X72782800Y-40949923D01*
X72768168Y-40951364D01*
X72762719Y-40953620D01*
X72756894Y-40954539D01*
X72743660Y-40960946D01*
X72662709Y-41010470D01*
X72655843Y-41015658D01*
X72654152Y-41016567D01*
X72652661Y-41018063D01*
X72650979Y-41019335D01*
X72649850Y-41020886D01*
X72643776Y-41026985D01*
X72562823Y-41126032D01*
X72554680Y-41138274D01*
X72553686Y-41141573D01*
X72551754Y-41144433D01*
X72547413Y-41158481D01*
X72506937Y-41356576D01*
X72506909Y-41356837D01*
X72506860Y-41356958D01*
X72506159Y-41364075D01*
X72505420Y-41371200D01*
X72505444Y-41371328D01*
X72505419Y-41371590D01*
X71279228Y-41371590D01*
X71279228Y-41099923D01*
X71608990Y-41099923D01*
X71623622Y-41098482D01*
X71650658Y-41087283D01*
X71671350Y-41066591D01*
X71682549Y-41039555D01*
X71682549Y-41010291D01*
X71671350Y-40983255D01*
X71650658Y-40962563D01*
X71623622Y-40951364D01*
X71608990Y-40949923D01*
X71204228Y-40949923D01*
X71189596Y-40951364D01*
X71162560Y-40962563D01*
X71141868Y-40983255D01*
X71130669Y-41010291D01*
X71129228Y-41024923D01*
X70874467Y-41024923D01*
X70873026Y-41010291D01*
X70861827Y-40983255D01*
X70841135Y-40962563D01*
X70814099Y-40951364D01*
X70784835Y-40951364D01*
X70757799Y-40962563D01*
X70737107Y-40983255D01*
X70725908Y-41010291D01*
X70724467Y-41024923D01*
X70724467Y-41727096D01*
X70381706Y-40993186D01*
X70376790Y-40984893D01*
X70376112Y-40983255D01*
X70375393Y-40982536D01*
X70374209Y-40980538D01*
X70364611Y-40971754D01*
X70355420Y-40962563D01*
X70353863Y-40961918D01*
X70352621Y-40960781D01*
X70340397Y-40956340D01*
X70328384Y-40951364D01*
X70326700Y-40951364D01*
X70325117Y-40950789D01*
X70312126Y-40951364D01*
X70299120Y-40951364D01*
X70297563Y-40952008D01*
X70295882Y-40952083D01*
X70284095Y-40957587D01*
X70272084Y-40962563D01*
X70270894Y-40963752D01*
X70269367Y-40964466D01*
X70260583Y-40974063D01*
X70251392Y-40983255D01*
X70250747Y-40984811D01*
X70249610Y-40986054D01*
X70245169Y-40998277D01*
X70240193Y-41010291D01*
X70239965Y-41012601D01*
X70239618Y-41013558D01*
X70239696Y-41015332D01*
X70238752Y-41024923D01*
X69983990Y-41024923D01*
X69982549Y-41010291D01*
X69971350Y-40983255D01*
X69950658Y-40962563D01*
X69923622Y-40951364D01*
X69894358Y-40951364D01*
X69867322Y-40962563D01*
X69846630Y-40983255D01*
X69835431Y-41010291D01*
X69833990Y-41024923D01*
X69295895Y-41024923D01*
X69294454Y-41010291D01*
X69283255Y-40983255D01*
X69262563Y-40962563D01*
X69235527Y-40951364D01*
X69206263Y-40951364D01*
X69179227Y-40962563D01*
X69158535Y-40983255D01*
X69147336Y-41010291D01*
X69145895Y-41024923D01*
X69030339Y-41024923D01*
X69030339Y-40834367D01*
X74955248Y-40834367D01*
X74955248Y-42255479D01*
G37*
G36*
X56202779Y-37228228D02*
G01*
X56279246Y-37271241D01*
X56355038Y-37356506D01*
X56394819Y-37490764D01*
X56394819Y-37672744D01*
X55544819Y-37672744D01*
X55544819Y-37490765D01*
X55584599Y-37356506D01*
X55660390Y-37271241D01*
X55736857Y-37228228D01*
X55908737Y-37179887D01*
X56030900Y-37179887D01*
X56202779Y-37228228D01*
G37*
G36*
X56285503Y-34117565D02*
G01*
X56358399Y-34199572D01*
X56394819Y-34281516D01*
X56394819Y-34463971D01*
X56358399Y-34545915D01*
X56285503Y-34627921D01*
X56126138Y-34672744D01*
X55813499Y-34672744D01*
X55654133Y-34627921D01*
X55581239Y-34545916D01*
X55544819Y-34463970D01*
X55544819Y-34281517D01*
X55581239Y-34199571D01*
X55654133Y-34117565D01*
X55813499Y-34072744D01*
X56126138Y-34072744D01*
X56285503Y-34117565D01*
G37*
G36*
X55850676Y-32985528D02*
G01*
X55882208Y-33021000D01*
X55918628Y-33102945D01*
X55918628Y-33440601D01*
X55544819Y-33440601D01*
X55544819Y-33102946D01*
X55581239Y-33021000D01*
X55612770Y-32985528D01*
X55679942Y-32947744D01*
X55783505Y-32947744D01*
X55850676Y-32985528D01*
G37*
G36*
X56250395Y-25121083D02*
G01*
X56326867Y-25164099D01*
X56358399Y-25199572D01*
X56394819Y-25281516D01*
X56394819Y-25356828D01*
X56358399Y-25438772D01*
X56326866Y-25474246D01*
X56250398Y-25517259D01*
X56078519Y-25565601D01*
X55861118Y-25565601D01*
X55689238Y-25517259D01*
X55612771Y-25474246D01*
X55581239Y-25438773D01*
X55544819Y-25356827D01*
X55544819Y-25281517D01*
X55581239Y-25199571D01*
X55612770Y-25164099D01*
X55689241Y-25121083D01*
X55861118Y-25072744D01*
X56078519Y-25072744D01*
X56250395Y-25121083D01*
G37*
G36*
X56655930Y-39219569D02*
G01*
X55283708Y-39219569D01*
X55283708Y-38291364D01*
X55395237Y-38291364D01*
X55396260Y-38294648D01*
X55396260Y-38298090D01*
X55400580Y-38308521D01*
X55403939Y-38319303D01*
X55406142Y-38321947D01*
X55407459Y-38325126D01*
X55415439Y-38333106D01*
X55422671Y-38341786D01*
X55426898Y-38344565D01*
X55428151Y-38345818D01*
X55429914Y-38346548D01*
X55434956Y-38349863D01*
X56022755Y-38658458D01*
X55434956Y-38967053D01*
X55429914Y-38970367D01*
X55428151Y-38971098D01*
X55426898Y-38972350D01*
X55422671Y-38975130D01*
X55415439Y-38983809D01*
X55407459Y-38991790D01*
X55406142Y-38994968D01*
X55403939Y-38997613D01*
X55400580Y-39008394D01*
X55396260Y-39018826D01*
X55396260Y-39022267D01*
X55395237Y-39025552D01*
X55396260Y-39036794D01*
X55396260Y-39048090D01*
X55397577Y-39051270D01*
X55397889Y-39054696D01*
X55403138Y-39064695D01*
X55407459Y-39075126D01*
X55409890Y-39077557D01*
X55411491Y-39080606D01*
X55420170Y-39087837D01*
X55428151Y-39095818D01*
X55431329Y-39097134D01*
X55433974Y-39099338D01*
X55444755Y-39102696D01*
X55455187Y-39107017D01*
X55460219Y-39107512D01*
X55461913Y-39108040D01*
X55463816Y-39107866D01*
X55469819Y-39108458D01*
X56469819Y-39108458D01*
X56484451Y-39107017D01*
X56511487Y-39095818D01*
X56532179Y-39075126D01*
X56543378Y-39048090D01*
X56543378Y-39018826D01*
X56532179Y-38991790D01*
X56511487Y-38971098D01*
X56484451Y-38959899D01*
X56469819Y-38958458D01*
X55774024Y-38958458D01*
X56218966Y-38724863D01*
X56219598Y-38724447D01*
X56219949Y-38724338D01*
X56220638Y-38723763D01*
X56231252Y-38716786D01*
X56236334Y-38710685D01*
X56242431Y-38705606D01*
X56245607Y-38699556D01*
X56249984Y-38694303D01*
X56252345Y-38686722D01*
X56256034Y-38679696D01*
X56256653Y-38672890D01*
X56258686Y-38666364D01*
X56257966Y-38658458D01*
X56258686Y-38650552D01*
X56256653Y-38644025D01*
X56256034Y-38637220D01*
X56252345Y-38630193D01*
X56249984Y-38622613D01*
X56245607Y-38617359D01*
X56242431Y-38611310D01*
X56236334Y-38606230D01*
X56231252Y-38600130D01*
X56220638Y-38593152D01*
X56219949Y-38592578D01*
X56219598Y-38592468D01*
X56218966Y-38592053D01*
X55774024Y-38358458D01*
X56469819Y-38358458D01*
X56484451Y-38357017D01*
X56511487Y-38345818D01*
X56532179Y-38325126D01*
X56543378Y-38298090D01*
X56543378Y-38268826D01*
X56532179Y-38241790D01*
X56511487Y-38221098D01*
X56484451Y-38209899D01*
X56469819Y-38208458D01*
X55469819Y-38208458D01*
X55463816Y-38209049D01*
X55461913Y-38208876D01*
X55460219Y-38209403D01*
X55455187Y-38209899D01*
X55444755Y-38214219D01*
X55433974Y-38217578D01*
X55431329Y-38219781D01*
X55428151Y-38221098D01*
X55420170Y-38229078D01*
X55411491Y-38236310D01*
X55409890Y-38239358D01*
X55407459Y-38241790D01*
X55403138Y-38252220D01*
X55397889Y-38262220D01*
X55397577Y-38265645D01*
X55396260Y-38268826D01*
X55396260Y-38280121D01*
X55395237Y-38291364D01*
X55283708Y-38291364D01*
X55283708Y-37479887D01*
X55394819Y-37479887D01*
X55394819Y-37747744D01*
X55396260Y-37762376D01*
X55407459Y-37789412D01*
X55428151Y-37810104D01*
X55455187Y-37821303D01*
X55469819Y-37822744D01*
X56469819Y-37822744D01*
X56484451Y-37821303D01*
X56511487Y-37810104D01*
X56532179Y-37789412D01*
X56543378Y-37762376D01*
X56544819Y-37747744D01*
X56544819Y-37479887D01*
X56544317Y-37474794D01*
X56544504Y-37473019D01*
X56543762Y-37469162D01*
X56543378Y-37465255D01*
X56542694Y-37463605D01*
X56541729Y-37458580D01*
X56494110Y-37297866D01*
X56488571Y-37284247D01*
X56487471Y-37282889D01*
X56486899Y-37281239D01*
X56478255Y-37269345D01*
X56383016Y-37162202D01*
X56376983Y-37156627D01*
X56375777Y-37155091D01*
X56373897Y-37153775D01*
X56372218Y-37152224D01*
X56370463Y-37151373D01*
X56363730Y-37146662D01*
X56268492Y-37093091D01*
X56266486Y-37092209D01*
X56265724Y-37091609D01*
X56260331Y-37089502D01*
X56255033Y-37087173D01*
X56254070Y-37087057D01*
X56252029Y-37086260D01*
X56061553Y-37032688D01*
X56057364Y-37031943D01*
X56055879Y-37031328D01*
X56051453Y-37030892D01*
X56047077Y-37030114D01*
X56045481Y-37030304D01*
X56041247Y-37029887D01*
X55898390Y-37029887D01*
X55894154Y-37030304D01*
X55892559Y-37030114D01*
X55888182Y-37030892D01*
X55883758Y-37031328D01*
X55882273Y-37031943D01*
X55878084Y-37032688D01*
X55687608Y-37086260D01*
X55685566Y-37087057D01*
X55684604Y-37087173D01*
X55679305Y-37089502D01*
X55673913Y-37091609D01*
X55673150Y-37092209D01*
X55671145Y-37093091D01*
X55575907Y-37146662D01*
X55569175Y-37151372D01*
X55567418Y-37152224D01*
X55565736Y-37153778D01*
X55563860Y-37155091D01*
X55562654Y-37156626D01*
X55556620Y-37162203D01*
X55461382Y-37269346D01*
X55452738Y-37281239D01*
X55452165Y-37282889D01*
X55451066Y-37284247D01*
X55445528Y-37297867D01*
X55397909Y-37458580D01*
X55396943Y-37463605D01*
X55396260Y-37465255D01*
X55395875Y-37469162D01*
X55395134Y-37473019D01*
X55395320Y-37474794D01*
X55394819Y-37479887D01*
X55283708Y-37479887D01*
X55283708Y-36350805D01*
X55394930Y-36350805D01*
X55396260Y-36360113D01*
X55396260Y-36369519D01*
X55398311Y-36374471D01*
X55399069Y-36379774D01*
X55403859Y-36387864D01*
X55407459Y-36396555D01*
X55411247Y-36400343D01*
X55413978Y-36404955D01*
X55424819Y-36414887D01*
X55561635Y-36517499D01*
X55644113Y-36610286D01*
X55686997Y-36706776D01*
X55694256Y-36719562D01*
X55715470Y-36739719D01*
X55742783Y-36750224D01*
X55772037Y-36749477D01*
X55798779Y-36737592D01*
X55818936Y-36716378D01*
X55829441Y-36689066D01*
X55828695Y-36659811D01*
X55824069Y-36645855D01*
X55776450Y-36538713D01*
X55773252Y-36533080D01*
X55772613Y-36531239D01*
X55770752Y-36528679D01*
X55769190Y-36525927D01*
X55767776Y-36524584D01*
X55763970Y-36519346D01*
X55684451Y-36429887D01*
X56394819Y-36429887D01*
X56394819Y-36676316D01*
X56396260Y-36690948D01*
X56407459Y-36717984D01*
X56428151Y-36738676D01*
X56455187Y-36749875D01*
X56484451Y-36749875D01*
X56511487Y-36738676D01*
X56532179Y-36717984D01*
X56543378Y-36690948D01*
X56544819Y-36676316D01*
X56544819Y-36033459D01*
X56543378Y-36018827D01*
X56532179Y-35991791D01*
X56511487Y-35971099D01*
X56484451Y-35959900D01*
X56455187Y-35959900D01*
X56428151Y-35971099D01*
X56407459Y-35991791D01*
X56396260Y-36018827D01*
X56394819Y-36033459D01*
X56394819Y-36279887D01*
X55469819Y-36279887D01*
X55455187Y-36281328D01*
X55450234Y-36283379D01*
X55444932Y-36284137D01*
X55436841Y-36288927D01*
X55428151Y-36292527D01*
X55424362Y-36296315D01*
X55419751Y-36299046D01*
X55414108Y-36306569D01*
X55407459Y-36313219D01*
X55405408Y-36318170D01*
X55402193Y-36322457D01*
X55399859Y-36331566D01*
X55396260Y-36340255D01*
X55396260Y-36345613D01*
X55394930Y-36350805D01*
X55283708Y-36350805D01*
X55283708Y-34265601D01*
X55394819Y-34265601D01*
X55394819Y-34479887D01*
X55396260Y-34494519D01*
X55396632Y-34495417D01*
X55396657Y-34496391D01*
X55401283Y-34510347D01*
X55448902Y-34617490D01*
X55452098Y-34623119D01*
X55452738Y-34624964D01*
X55454598Y-34627523D01*
X55456161Y-34630276D01*
X55457576Y-34631620D01*
X55461382Y-34636857D01*
X55556621Y-34744000D01*
X55567419Y-34753978D01*
X55573427Y-34756891D01*
X55578675Y-34761022D01*
X55592370Y-34766371D01*
X55782846Y-34819943D01*
X55787035Y-34820687D01*
X55788520Y-34821303D01*
X55792944Y-34821738D01*
X55797321Y-34822517D01*
X55798916Y-34822326D01*
X55803152Y-34822744D01*
X56136485Y-34822744D01*
X56140719Y-34822326D01*
X56142315Y-34822517D01*
X56146691Y-34821738D01*
X56151117Y-34821303D01*
X56152602Y-34820687D01*
X56156791Y-34819943D01*
X56347267Y-34766371D01*
X56360962Y-34761022D01*
X56366209Y-34756891D01*
X56372218Y-34753978D01*
X56383016Y-34744000D01*
X56478255Y-34636858D01*
X56482063Y-34631618D01*
X56483476Y-34630276D01*
X56485036Y-34627526D01*
X56486899Y-34624965D01*
X56487538Y-34623120D01*
X56490736Y-34617490D01*
X56538355Y-34510348D01*
X56542981Y-34496392D01*
X56543005Y-34495417D01*
X56543378Y-34494519D01*
X56544819Y-34479887D01*
X56544819Y-34265601D01*
X56543378Y-34250969D01*
X56543005Y-34250070D01*
X56542981Y-34249096D01*
X56538355Y-34235140D01*
X56490736Y-34127998D01*
X56487538Y-34122365D01*
X56486899Y-34120524D01*
X56485038Y-34117964D01*
X56483476Y-34115212D01*
X56482062Y-34113868D01*
X56478255Y-34108630D01*
X56383016Y-34001487D01*
X56372218Y-33991509D01*
X56366210Y-33988596D01*
X56360962Y-33984465D01*
X56347267Y-33979116D01*
X56156791Y-33925545D01*
X56152602Y-33924800D01*
X56151117Y-33924185D01*
X56146691Y-33923749D01*
X56142315Y-33922971D01*
X56140719Y-33923161D01*
X56136485Y-33922744D01*
X55803152Y-33922744D01*
X55798917Y-33923161D01*
X55797322Y-33922971D01*
X55792945Y-33923749D01*
X55788520Y-33924185D01*
X55787034Y-33924800D01*
X55782846Y-33925545D01*
X55592370Y-33979116D01*
X55578675Y-33984465D01*
X55573427Y-33988595D01*
X55567418Y-33991509D01*
X55556620Y-34001488D01*
X55461382Y-34108631D01*
X55457576Y-34113867D01*
X55456161Y-34115212D01*
X55454598Y-34117964D01*
X55452738Y-34120524D01*
X55452098Y-34122368D01*
X55448902Y-34127998D01*
X55401283Y-34235141D01*
X55396657Y-34249097D01*
X55396632Y-34250070D01*
X55396260Y-34250969D01*
X55394819Y-34265601D01*
X55283708Y-34265601D01*
X55283708Y-33087030D01*
X55394819Y-33087030D01*
X55394819Y-33515601D01*
X55396260Y-33530233D01*
X55407459Y-33557269D01*
X55428151Y-33577961D01*
X55455187Y-33589160D01*
X55469819Y-33590601D01*
X56469819Y-33590601D01*
X56484451Y-33589160D01*
X56511487Y-33577961D01*
X56532179Y-33557269D01*
X56543378Y-33530233D01*
X56543378Y-33500969D01*
X56532179Y-33473933D01*
X56511487Y-33453241D01*
X56484451Y-33442042D01*
X56469819Y-33440601D01*
X56068628Y-33440601D01*
X56068628Y-33087030D01*
X56067187Y-33072398D01*
X56066814Y-33071499D01*
X56066790Y-33070525D01*
X56062164Y-33056569D01*
X56014545Y-32949427D01*
X56011349Y-32943799D01*
X56010709Y-32941953D01*
X56008844Y-32939388D01*
X56007285Y-32936641D01*
X56005873Y-32935299D01*
X56002065Y-32930060D01*
X55954446Y-32876489D01*
X55948411Y-32870912D01*
X55947206Y-32869377D01*
X55945329Y-32868063D01*
X55943648Y-32866510D01*
X55941892Y-32865658D01*
X55935160Y-32860948D01*
X55839922Y-32807376D01*
X55826463Y-32801458D01*
X55821965Y-32800917D01*
X55817784Y-32799185D01*
X55803152Y-32797744D01*
X55660295Y-32797744D01*
X55645663Y-32799185D01*
X55641477Y-32800918D01*
X55636984Y-32801459D01*
X55623525Y-32807376D01*
X55528287Y-32860948D01*
X55521555Y-32865658D01*
X55519800Y-32866510D01*
X55518117Y-32868064D01*
X55516241Y-32869378D01*
X55515036Y-32870911D01*
X55509002Y-32876488D01*
X55461382Y-32930060D01*
X55457576Y-32935296D01*
X55456161Y-32936641D01*
X55454598Y-32939393D01*
X55452738Y-32941953D01*
X55452098Y-32943797D01*
X55448902Y-32949427D01*
X55401283Y-33056570D01*
X55396657Y-33070526D01*
X55396632Y-33071499D01*
X55396260Y-33072398D01*
X55394819Y-33087030D01*
X55283708Y-33087030D01*
X55283708Y-32389272D01*
X55394831Y-32389272D01*
X55396260Y-32397187D01*
X55396260Y-32405233D01*
X55398834Y-32411448D01*
X55400030Y-32418070D01*
X55404381Y-32424838D01*
X55407459Y-32432269D01*
X55412215Y-32437025D01*
X55415855Y-32442687D01*
X55422464Y-32447274D01*
X55428151Y-32452961D01*
X55434366Y-32455535D01*
X55439895Y-32459373D01*
X55447755Y-32461081D01*
X55455187Y-32464160D01*
X55467490Y-32465371D01*
X55468490Y-32465589D01*
X55468916Y-32465512D01*
X55469819Y-32465601D01*
X56469819Y-32465601D01*
X56484451Y-32464160D01*
X56511487Y-32452961D01*
X56532179Y-32432269D01*
X56543378Y-32405233D01*
X56543378Y-32375969D01*
X56532179Y-32348933D01*
X56511487Y-32328241D01*
X56484451Y-32317042D01*
X56469819Y-32315601D01*
X55725180Y-32315601D01*
X56510376Y-31810833D01*
X56511088Y-31810269D01*
X56511487Y-31810104D01*
X56512208Y-31809382D01*
X56521904Y-31801708D01*
X56526490Y-31795100D01*
X56532179Y-31789412D01*
X56534753Y-31783195D01*
X56538591Y-31777668D01*
X56540299Y-31769807D01*
X56543378Y-31762376D01*
X56543378Y-31755646D01*
X56544807Y-31749073D01*
X56543378Y-31741159D01*
X56543378Y-31733112D01*
X56540802Y-31726893D01*
X56539607Y-31720275D01*
X56535258Y-31713509D01*
X56532179Y-31706076D01*
X56527421Y-31701318D01*
X56523783Y-31695658D01*
X56517173Y-31691070D01*
X56511487Y-31685384D01*
X56505269Y-31682808D01*
X56499742Y-31678972D01*
X56491883Y-31677263D01*
X56484451Y-31674185D01*
X56472146Y-31672973D01*
X56471147Y-31672756D01*
X56470721Y-31672832D01*
X56469819Y-31672744D01*
X55469819Y-31672744D01*
X55455187Y-31674185D01*
X55428151Y-31685384D01*
X55407459Y-31706076D01*
X55396260Y-31733112D01*
X55396260Y-31762376D01*
X55407459Y-31789412D01*
X55428151Y-31810104D01*
X55455187Y-31821303D01*
X55469819Y-31822744D01*
X56214458Y-31822744D01*
X55429262Y-32327513D01*
X55428551Y-32328074D01*
X55428151Y-32328241D01*
X55427425Y-32328966D01*
X55417733Y-32336637D01*
X55413145Y-32343246D01*
X55407459Y-32348933D01*
X55404884Y-32355148D01*
X55401047Y-32360677D01*
X55399338Y-32368537D01*
X55396260Y-32375969D01*
X55396260Y-32382698D01*
X55394831Y-32389272D01*
X55283708Y-32389272D01*
X55283708Y-30837030D01*
X55394819Y-30837030D01*
X55394819Y-31104888D01*
X55396260Y-31119520D01*
X55396632Y-31120418D01*
X55396657Y-31121392D01*
X55401283Y-31135349D01*
X55448902Y-31242491D01*
X55452099Y-31248122D01*
X55452738Y-31249963D01*
X55454597Y-31252521D01*
X55456162Y-31255277D01*
X55457577Y-31256621D01*
X55461382Y-31261857D01*
X55509001Y-31315429D01*
X55519799Y-31325408D01*
X55546131Y-31338175D01*
X55575344Y-31339894D01*
X55602991Y-31330302D01*
X55624863Y-31310860D01*
X55637630Y-31284528D01*
X55639349Y-31255316D01*
X55629757Y-31227669D01*
X55621113Y-31215775D01*
X55581239Y-31170916D01*
X55544819Y-31088971D01*
X55544819Y-30852946D01*
X55581239Y-30771001D01*
X55612771Y-30735527D01*
X55679940Y-30697745D01*
X55741932Y-30697745D01*
X55854670Y-30740021D01*
X56413763Y-31369000D01*
X56424561Y-31378979D01*
X56426572Y-31379954D01*
X56428151Y-31381533D01*
X56439668Y-31386303D01*
X56450893Y-31391746D01*
X56453123Y-31391877D01*
X56455187Y-31392732D01*
X56467659Y-31392732D01*
X56480106Y-31393464D01*
X56482216Y-31392732D01*
X56484451Y-31392732D01*
X56495968Y-31387961D01*
X56507753Y-31383873D01*
X56509424Y-31382387D01*
X56511487Y-31381533D01*
X56520300Y-31372719D01*
X56529625Y-31364431D01*
X56530600Y-31362419D01*
X56532179Y-31360841D01*
X56536949Y-31349323D01*
X56542392Y-31338099D01*
X56542523Y-31335868D01*
X56543378Y-31333805D01*
X56544819Y-31319173D01*
X56544819Y-30622745D01*
X56543378Y-30608113D01*
X56532179Y-30581077D01*
X56511487Y-30560385D01*
X56484451Y-30549186D01*
X56455187Y-30549186D01*
X56428151Y-30560385D01*
X56407459Y-30581077D01*
X56396260Y-30608113D01*
X56394819Y-30622745D01*
X56394819Y-31121908D01*
X55954446Y-30626489D01*
X55943648Y-30616510D01*
X55940484Y-30614976D01*
X55937918Y-30612578D01*
X55924724Y-30606091D01*
X55781867Y-30552520D01*
X55771612Y-30549785D01*
X55770165Y-30549186D01*
X55768894Y-30549060D01*
X55767661Y-30548732D01*
X55766094Y-30548785D01*
X55755533Y-30547745D01*
X55660295Y-30547745D01*
X55645663Y-30549186D01*
X55641480Y-30550918D01*
X55636985Y-30551459D01*
X55623526Y-30557377D01*
X55528288Y-30610948D01*
X55521556Y-30615657D01*
X55519799Y-30616510D01*
X55518117Y-30618064D01*
X55516241Y-30619377D01*
X55515035Y-30620912D01*
X55509001Y-30626489D01*
X55461382Y-30680061D01*
X55457577Y-30685296D01*
X55456162Y-30686641D01*
X55454597Y-30689396D01*
X55452738Y-30691955D01*
X55452099Y-30693795D01*
X55448902Y-30699427D01*
X55401283Y-30806569D01*
X55396657Y-30820526D01*
X55396632Y-30821499D01*
X55396260Y-30822398D01*
X55394819Y-30837030D01*
X55283708Y-30837030D01*
X55283708Y-29712030D01*
X55394819Y-29712030D01*
X55394819Y-29819173D01*
X55395320Y-29824265D01*
X55395134Y-29826041D01*
X55395875Y-29829897D01*
X55396260Y-29833805D01*
X55396943Y-29835454D01*
X55397909Y-29840480D01*
X55445528Y-30001193D01*
X55451066Y-30014813D01*
X55452165Y-30016170D01*
X55452738Y-30017821D01*
X55461382Y-30029714D01*
X55556620Y-30136857D01*
X55562654Y-30142433D01*
X55563860Y-30143969D01*
X55565736Y-30145281D01*
X55567418Y-30146836D01*
X55569175Y-30147687D01*
X55575907Y-30152398D01*
X55671145Y-30205969D01*
X55673150Y-30206850D01*
X55673913Y-30207451D01*
X55679305Y-30209557D01*
X55684604Y-30211887D01*
X55685566Y-30212002D01*
X55687608Y-30212800D01*
X55878084Y-30266372D01*
X55882273Y-30267116D01*
X55883758Y-30267732D01*
X55888182Y-30268167D01*
X55892559Y-30268946D01*
X55894154Y-30268755D01*
X55898390Y-30269173D01*
X56041247Y-30269173D01*
X56045481Y-30268755D01*
X56047077Y-30268946D01*
X56051453Y-30268167D01*
X56055879Y-30267732D01*
X56057364Y-30267116D01*
X56061553Y-30266372D01*
X56252029Y-30212800D01*
X56254070Y-30212002D01*
X56255033Y-30211887D01*
X56260331Y-30209557D01*
X56265724Y-30207451D01*
X56266486Y-30206850D01*
X56268492Y-30205969D01*
X56363730Y-30152398D01*
X56370463Y-30147686D01*
X56372218Y-30146836D01*
X56373897Y-30145284D01*
X56375777Y-30143969D01*
X56376983Y-30142432D01*
X56383016Y-30136858D01*
X56478255Y-30029715D01*
X56486899Y-30017821D01*
X56487471Y-30016170D01*
X56488571Y-30014813D01*
X56494110Y-30001194D01*
X56541729Y-29840480D01*
X56542694Y-29835454D01*
X56543378Y-29833805D01*
X56543762Y-29829897D01*
X56544504Y-29826041D01*
X56544317Y-29824265D01*
X56544819Y-29819173D01*
X56544819Y-29712030D01*
X56544317Y-29706937D01*
X56544504Y-29705162D01*
X56543762Y-29701305D01*
X56543378Y-29697398D01*
X56542694Y-29695748D01*
X56541729Y-29690723D01*
X56494110Y-29530009D01*
X56488571Y-29516390D01*
X56487471Y-29515032D01*
X56486899Y-29513382D01*
X56478255Y-29501488D01*
X56430635Y-29447916D01*
X56419837Y-29437938D01*
X56393505Y-29425171D01*
X56364293Y-29423453D01*
X56336646Y-29433045D01*
X56314774Y-29452487D01*
X56302007Y-29478819D01*
X56300289Y-29508031D01*
X56309881Y-29535678D01*
X56318525Y-29547572D01*
X56355038Y-29588649D01*
X56394819Y-29722907D01*
X56394819Y-29808295D01*
X56355038Y-29942553D01*
X56279246Y-30027818D01*
X56202779Y-30070831D01*
X56030900Y-30119173D01*
X55908737Y-30119173D01*
X55736857Y-30070831D01*
X55660390Y-30027818D01*
X55584599Y-29942553D01*
X55544819Y-29808294D01*
X55544819Y-29722908D01*
X55584599Y-29588649D01*
X55621113Y-29547571D01*
X55629757Y-29535677D01*
X55639349Y-29508030D01*
X55637630Y-29478818D01*
X55624863Y-29452486D01*
X55602991Y-29433044D01*
X55575344Y-29423452D01*
X55546131Y-29425171D01*
X55519799Y-29437938D01*
X55509001Y-29447917D01*
X55461382Y-29501489D01*
X55452738Y-29513383D01*
X55452165Y-29515031D01*
X55451066Y-29516390D01*
X55445528Y-29530010D01*
X55397909Y-29690723D01*
X55396943Y-29695748D01*
X55396260Y-29697398D01*
X55395875Y-29701305D01*
X55395134Y-29705162D01*
X55395320Y-29706937D01*
X55394819Y-29712030D01*
X55283708Y-29712030D01*
X55283708Y-27557045D01*
X55395806Y-27557045D01*
X55396799Y-27586292D01*
X55408908Y-27612932D01*
X55430290Y-27632911D01*
X55443485Y-27639398D01*
X56256217Y-27944173D01*
X55443485Y-28248948D01*
X55430290Y-28255435D01*
X55408908Y-28275414D01*
X55396799Y-28302054D01*
X55395806Y-28331301D01*
X55406081Y-28358702D01*
X55426060Y-28380084D01*
X55452700Y-28392193D01*
X55481947Y-28393186D01*
X55496153Y-28389398D01*
X56496153Y-28014398D01*
X56509347Y-28007911D01*
X56511231Y-28006150D01*
X56513577Y-28005084D01*
X56521855Y-27996224D01*
X56530730Y-27987932D01*
X56531797Y-27985582D01*
X56533556Y-27983701D01*
X56537814Y-27972345D01*
X56542839Y-27961292D01*
X56542926Y-27958715D01*
X56543832Y-27956301D01*
X56543420Y-27944173D01*
X56543832Y-27932045D01*
X56542926Y-27929630D01*
X56542839Y-27927054D01*
X56537814Y-27916000D01*
X56533556Y-27904645D01*
X56531797Y-27902763D01*
X56530730Y-27900414D01*
X56521855Y-27892121D01*
X56513577Y-27883262D01*
X56511231Y-27882195D01*
X56509347Y-27880435D01*
X56496153Y-27873948D01*
X55496153Y-27498948D01*
X55481947Y-27495160D01*
X55452700Y-27496153D01*
X55426060Y-27508262D01*
X55406081Y-27529644D01*
X55395806Y-27557045D01*
X55283708Y-27557045D01*
X55283708Y-26922233D01*
X55394930Y-26922233D01*
X55396260Y-26931541D01*
X55396260Y-26940947D01*
X55398311Y-26945899D01*
X55399069Y-26951202D01*
X55403859Y-26959292D01*
X55407459Y-26967983D01*
X55411247Y-26971771D01*
X55413978Y-26976383D01*
X55424819Y-26986315D01*
X55561635Y-27088927D01*
X55644113Y-27181714D01*
X55686997Y-27278204D01*
X55694256Y-27290990D01*
X55715470Y-27311147D01*
X55742783Y-27321652D01*
X55772037Y-27320905D01*
X55798779Y-27309020D01*
X55818936Y-27287806D01*
X55829441Y-27260494D01*
X55828695Y-27231239D01*
X55824069Y-27217283D01*
X55776450Y-27110141D01*
X55773252Y-27104508D01*
X55772613Y-27102667D01*
X55770752Y-27100107D01*
X55769190Y-27097355D01*
X55767776Y-27096012D01*
X55763970Y-27090774D01*
X55684451Y-27001315D01*
X56394819Y-27001315D01*
X56394819Y-27247744D01*
X56396260Y-27262376D01*
X56407459Y-27289412D01*
X56428151Y-27310104D01*
X56455187Y-27321303D01*
X56484451Y-27321303D01*
X56511487Y-27310104D01*
X56532179Y-27289412D01*
X56543378Y-27262376D01*
X56544819Y-27247744D01*
X56544819Y-26604887D01*
X56543378Y-26590255D01*
X56532179Y-26563219D01*
X56511487Y-26542527D01*
X56484451Y-26531328D01*
X56455187Y-26531328D01*
X56428151Y-26542527D01*
X56407459Y-26563219D01*
X56396260Y-26590255D01*
X56394819Y-26604887D01*
X56394819Y-26851315D01*
X55469819Y-26851315D01*
X55455187Y-26852756D01*
X55450234Y-26854807D01*
X55444932Y-26855565D01*
X55436841Y-26860355D01*
X55428151Y-26863955D01*
X55424362Y-26867743D01*
X55419751Y-26870474D01*
X55414108Y-26877997D01*
X55407459Y-26884647D01*
X55405408Y-26889598D01*
X55402193Y-26893885D01*
X55399859Y-26902994D01*
X55396260Y-26911683D01*
X55396260Y-26917041D01*
X55394930Y-26922233D01*
X55283708Y-26922233D01*
X55283708Y-26112455D01*
X56300289Y-26112455D01*
X56300894Y-26122742D01*
X56300289Y-26133030D01*
X56301021Y-26135139D01*
X56301021Y-26137375D01*
X56301875Y-26139438D01*
X56302007Y-26141668D01*
X56306504Y-26150944D01*
X56309881Y-26160677D01*
X56311723Y-26163212D01*
X56312220Y-26164411D01*
X56313591Y-26165782D01*
X56313911Y-26166222D01*
X56314773Y-26168000D01*
X56315987Y-26169079D01*
X56318525Y-26172571D01*
X56366144Y-26226142D01*
X56376942Y-26236121D01*
X56380944Y-26238061D01*
X56384267Y-26241015D01*
X56393999Y-26244391D01*
X56403274Y-26248888D01*
X56407714Y-26249149D01*
X56411914Y-26250606D01*
X56422200Y-26250001D01*
X56432487Y-26250606D01*
X56436686Y-26249149D01*
X56441126Y-26248888D01*
X56450402Y-26244390D01*
X56460134Y-26241014D01*
X56463455Y-26238061D01*
X56467458Y-26236121D01*
X56478256Y-26226142D01*
X56525875Y-26172570D01*
X56528411Y-26169079D01*
X56529625Y-26168001D01*
X56530485Y-26166225D01*
X56530808Y-26165781D01*
X56532179Y-26164411D01*
X56532675Y-26163212D01*
X56534519Y-26160676D01*
X56537896Y-26150940D01*
X56542392Y-26141669D01*
X56542523Y-26139438D01*
X56543378Y-26137375D01*
X56543378Y-26135141D01*
X56544111Y-26133029D01*
X56543505Y-26122737D01*
X56544110Y-26112456D01*
X56543378Y-26110345D01*
X56543378Y-26108111D01*
X56542523Y-26106047D01*
X56542392Y-26103817D01*
X56537896Y-26094545D01*
X56534519Y-26084809D01*
X56532674Y-26082271D01*
X56532179Y-26081075D01*
X56530810Y-26079706D01*
X56530484Y-26079258D01*
X56529625Y-26077485D01*
X56528412Y-26076407D01*
X56525875Y-26072916D01*
X56478256Y-26019345D01*
X56467458Y-26009366D01*
X56463455Y-26007425D01*
X56460134Y-26004473D01*
X56450400Y-26001095D01*
X56441125Y-25996599D01*
X56436686Y-25996337D01*
X56432487Y-25994881D01*
X56422200Y-25995485D01*
X56411913Y-25994881D01*
X56407713Y-25996337D01*
X56403275Y-25996599D01*
X56394005Y-26001093D01*
X56384266Y-26004472D01*
X56380941Y-26007427D01*
X56376943Y-26009366D01*
X56366145Y-26019344D01*
X56318525Y-26072915D01*
X56315985Y-26076409D01*
X56314774Y-26077486D01*
X56313914Y-26079257D01*
X56313589Y-26079705D01*
X56312220Y-26081075D01*
X56311724Y-26082272D01*
X56309881Y-26084808D01*
X56306502Y-26094546D01*
X56302007Y-26103818D01*
X56301875Y-26106047D01*
X56301021Y-26108111D01*
X56301021Y-26110345D01*
X56300289Y-26112455D01*
X55283708Y-26112455D01*
X55283708Y-25265601D01*
X55394819Y-25265601D01*
X55394819Y-25372744D01*
X55396260Y-25387376D01*
X55396632Y-25388274D01*
X55396657Y-25389248D01*
X55401283Y-25403204D01*
X55448902Y-25510347D01*
X55452098Y-25515976D01*
X55452738Y-25517821D01*
X55454598Y-25520380D01*
X55456161Y-25523133D01*
X55457576Y-25524477D01*
X55461382Y-25529714D01*
X55509002Y-25583286D01*
X55515034Y-25588860D01*
X55516241Y-25590397D01*
X55518120Y-25591712D01*
X55519800Y-25593264D01*
X55521554Y-25594114D01*
X55528288Y-25598826D01*
X55623526Y-25652397D01*
X55625531Y-25653278D01*
X55626294Y-25653879D01*
X55631686Y-25655985D01*
X55636985Y-25658315D01*
X55637947Y-25658430D01*
X55639989Y-25659228D01*
X55830465Y-25712800D01*
X55834654Y-25713544D01*
X55836139Y-25714160D01*
X55840563Y-25714595D01*
X55844940Y-25715374D01*
X55846535Y-25715183D01*
X55850771Y-25715601D01*
X56088866Y-25715601D01*
X56093100Y-25715183D01*
X56094696Y-25715374D01*
X56099072Y-25714595D01*
X56103498Y-25714160D01*
X56104983Y-25713544D01*
X56109172Y-25712800D01*
X56299648Y-25659228D01*
X56301689Y-25658430D01*
X56302652Y-25658315D01*
X56307950Y-25655985D01*
X56313343Y-25653879D01*
X56314105Y-25653278D01*
X56316111Y-25652397D01*
X56411349Y-25598826D01*
X56418078Y-25594117D01*
X56419837Y-25593265D01*
X56421520Y-25591709D01*
X56423396Y-25590397D01*
X56424601Y-25588862D01*
X56430635Y-25583286D01*
X56478255Y-25529715D01*
X56482063Y-25524475D01*
X56483476Y-25523133D01*
X56485036Y-25520383D01*
X56486899Y-25517822D01*
X56487538Y-25515977D01*
X56490736Y-25510347D01*
X56538355Y-25403205D01*
X56542981Y-25389249D01*
X56543005Y-25388274D01*
X56543378Y-25387376D01*
X56544819Y-25372744D01*
X56544819Y-25265601D01*
X56543378Y-25250969D01*
X56543005Y-25250070D01*
X56542981Y-25249096D01*
X56538355Y-25235140D01*
X56490736Y-25127998D01*
X56487538Y-25122367D01*
X56486899Y-25120523D01*
X56485036Y-25117961D01*
X56483476Y-25115212D01*
X56482063Y-25113869D01*
X56478255Y-25108630D01*
X56430635Y-25055059D01*
X56424601Y-25049482D01*
X56423396Y-25047948D01*
X56421519Y-25046635D01*
X56419837Y-25045080D01*
X56418079Y-25044228D01*
X56411350Y-25039519D01*
X56316112Y-24985947D01*
X56314104Y-24985064D01*
X56313343Y-24984465D01*
X56307959Y-24982362D01*
X56302653Y-24980029D01*
X56301688Y-24979913D01*
X56299648Y-24979116D01*
X56109172Y-24925545D01*
X56104983Y-24924800D01*
X56103498Y-24924185D01*
X56099072Y-24923749D01*
X56094696Y-24922971D01*
X56093100Y-24923161D01*
X56088866Y-24922744D01*
X55850771Y-24922744D01*
X55846536Y-24923161D01*
X55844941Y-24922971D01*
X55840564Y-24923749D01*
X55836139Y-24924185D01*
X55834653Y-24924800D01*
X55830465Y-24925545D01*
X55639989Y-24979116D01*
X55637944Y-24979914D01*
X55636984Y-24980030D01*
X55631689Y-24982357D01*
X55626294Y-24984465D01*
X55625532Y-24985064D01*
X55623525Y-24985947D01*
X55528287Y-25039519D01*
X55521555Y-25044229D01*
X55519800Y-25045081D01*
X55518117Y-25046635D01*
X55516241Y-25047949D01*
X55515036Y-25049482D01*
X55509002Y-25055059D01*
X55461382Y-25108631D01*
X55457576Y-25113867D01*
X55456161Y-25115212D01*
X55454598Y-25117964D01*
X55452738Y-25120524D01*
X55452098Y-25122368D01*
X55448902Y-25127998D01*
X55401283Y-25235141D01*
X55396657Y-25249097D01*
X55396632Y-25250070D01*
X55396260Y-25250969D01*
X55394819Y-25265601D01*
X55283708Y-25265601D01*
X55283708Y-24811633D01*
X56655930Y-24811633D01*
X56655930Y-39219569D01*
G37*
X23565350Y-46022200D02*
X23765350Y-46069819D01*
X23765350Y-46069819D02*
X24098684Y-46069819D01*
X24098684Y-46069819D02*
X24232017Y-46022200D01*
X24232017Y-46022200D02*
X24298684Y-45974580D01*
X24298684Y-45974580D02*
X24365350Y-45879342D01*
X24365350Y-45879342D02*
X24365350Y-45784104D01*
X24365350Y-45784104D02*
X24298684Y-45688866D01*
X24298684Y-45688866D02*
X24232017Y-45641247D01*
X24232017Y-45641247D02*
X24098684Y-45593628D01*
X24098684Y-45593628D02*
X23832017Y-45546009D01*
X23832017Y-45546009D02*
X23698684Y-45498390D01*
X23698684Y-45498390D02*
X23632017Y-45450771D01*
X23632017Y-45450771D02*
X23565350Y-45355533D01*
X23565350Y-45355533D02*
X23565350Y-45260295D01*
X23565350Y-45260295D02*
X23632017Y-45165057D01*
X23632017Y-45165057D02*
X23698684Y-45117438D01*
X23698684Y-45117438D02*
X23832017Y-45069819D01*
X23832017Y-45069819D02*
X24165350Y-45069819D01*
X24165350Y-45069819D02*
X24365350Y-45117438D01*
X25632017Y-46069819D02*
X24965350Y-46069819D01*
X24965350Y-46069819D02*
X24965350Y-45069819D01*
X26032016Y-45165057D02*
X26098683Y-45117438D01*
X26098683Y-45117438D02*
X26232016Y-45069819D01*
X26232016Y-45069819D02*
X26565350Y-45069819D01*
X26565350Y-45069819D02*
X26698683Y-45117438D01*
X26698683Y-45117438D02*
X26765350Y-45165057D01*
X26765350Y-45165057D02*
X26832016Y-45260295D01*
X26832016Y-45260295D02*
X26832016Y-45355533D01*
X26832016Y-45355533D02*
X26765350Y-45498390D01*
X26765350Y-45498390D02*
X25965350Y-46069819D01*
X25965350Y-46069819D02*
X26832016Y-46069819D01*
X33365350Y-46072200D02*
X33565350Y-46119819D01*
X33565350Y-46119819D02*
X33898684Y-46119819D01*
X33898684Y-46119819D02*
X34032017Y-46072200D01*
X34032017Y-46072200D02*
X34098684Y-46024580D01*
X34098684Y-46024580D02*
X34165350Y-45929342D01*
X34165350Y-45929342D02*
X34165350Y-45834104D01*
X34165350Y-45834104D02*
X34098684Y-45738866D01*
X34098684Y-45738866D02*
X34032017Y-45691247D01*
X34032017Y-45691247D02*
X33898684Y-45643628D01*
X33898684Y-45643628D02*
X33632017Y-45596009D01*
X33632017Y-45596009D02*
X33498684Y-45548390D01*
X33498684Y-45548390D02*
X33432017Y-45500771D01*
X33432017Y-45500771D02*
X33365350Y-45405533D01*
X33365350Y-45405533D02*
X33365350Y-45310295D01*
X33365350Y-45310295D02*
X33432017Y-45215057D01*
X33432017Y-45215057D02*
X33498684Y-45167438D01*
X33498684Y-45167438D02*
X33632017Y-45119819D01*
X33632017Y-45119819D02*
X33965350Y-45119819D01*
X33965350Y-45119819D02*
X34165350Y-45167438D01*
X35432017Y-46119819D02*
X34765350Y-46119819D01*
X34765350Y-46119819D02*
X34765350Y-45119819D01*
X36632016Y-46119819D02*
X35832016Y-46119819D01*
X36232016Y-46119819D02*
X36232016Y-45119819D01*
X36232016Y-45119819D02*
X36098683Y-45262676D01*
X36098683Y-45262676D02*
X35965350Y-45357914D01*
X35965350Y-45357914D02*
X35832016Y-45405533D01*
X41682017Y-46119819D02*
X41682017Y-45119819D01*
X41682017Y-45119819D02*
X42215350Y-45119819D01*
X42215350Y-45119819D02*
X42348684Y-45167438D01*
X42348684Y-45167438D02*
X42415350Y-45215057D01*
X42415350Y-45215057D02*
X42482017Y-45310295D01*
X42482017Y-45310295D02*
X42482017Y-45453152D01*
X42482017Y-45453152D02*
X42415350Y-45548390D01*
X42415350Y-45548390D02*
X42348684Y-45596009D01*
X42348684Y-45596009D02*
X42215350Y-45643628D01*
X42215350Y-45643628D02*
X41682017Y-45643628D01*
X43015350Y-46072200D02*
X43215350Y-46119819D01*
X43215350Y-46119819D02*
X43548684Y-46119819D01*
X43548684Y-46119819D02*
X43682017Y-46072200D01*
X43682017Y-46072200D02*
X43748684Y-46024580D01*
X43748684Y-46024580D02*
X43815350Y-45929342D01*
X43815350Y-45929342D02*
X43815350Y-45834104D01*
X43815350Y-45834104D02*
X43748684Y-45738866D01*
X43748684Y-45738866D02*
X43682017Y-45691247D01*
X43682017Y-45691247D02*
X43548684Y-45643628D01*
X43548684Y-45643628D02*
X43282017Y-45596009D01*
X43282017Y-45596009D02*
X43148684Y-45548390D01*
X43148684Y-45548390D02*
X43082017Y-45500771D01*
X43082017Y-45500771D02*
X43015350Y-45405533D01*
X43015350Y-45405533D02*
X43015350Y-45310295D01*
X43015350Y-45310295D02*
X43082017Y-45215057D01*
X43082017Y-45215057D02*
X43148684Y-45167438D01*
X43148684Y-45167438D02*
X43282017Y-45119819D01*
X43282017Y-45119819D02*
X43615350Y-45119819D01*
X43615350Y-45119819D02*
X43815350Y-45167438D01*
X45148683Y-45167438D02*
X45015350Y-45119819D01*
X45015350Y-45119819D02*
X44815350Y-45119819D01*
X44815350Y-45119819D02*
X44615350Y-45167438D01*
X44615350Y-45167438D02*
X44482017Y-45262676D01*
X44482017Y-45262676D02*
X44415350Y-45357914D01*
X44415350Y-45357914D02*
X44348683Y-45548390D01*
X44348683Y-45548390D02*
X44348683Y-45691247D01*
X44348683Y-45691247D02*
X44415350Y-45881723D01*
X44415350Y-45881723D02*
X44482017Y-45976961D01*
X44482017Y-45976961D02*
X44615350Y-46072200D01*
X44615350Y-46072200D02*
X44815350Y-46119819D01*
X44815350Y-46119819D02*
X44948683Y-46119819D01*
X44948683Y-46119819D02*
X45148683Y-46072200D01*
X45148683Y-46072200D02*
X45215350Y-46024580D01*
X45215350Y-46024580D02*
X45215350Y-45691247D01*
X45215350Y-45691247D02*
X44948683Y-45691247D01*
X51151750Y-46050200D02*
X51351750Y-46097819D01*
X51351750Y-46097819D02*
X51685084Y-46097819D01*
X51685084Y-46097819D02*
X51818417Y-46050200D01*
X51818417Y-46050200D02*
X51885084Y-46002580D01*
X51885084Y-46002580D02*
X51951750Y-45907342D01*
X51951750Y-45907342D02*
X51951750Y-45812104D01*
X51951750Y-45812104D02*
X51885084Y-45716866D01*
X51885084Y-45716866D02*
X51818417Y-45669247D01*
X51818417Y-45669247D02*
X51685084Y-45621628D01*
X51685084Y-45621628D02*
X51418417Y-45574009D01*
X51418417Y-45574009D02*
X51285084Y-45526390D01*
X51285084Y-45526390D02*
X51218417Y-45478771D01*
X51218417Y-45478771D02*
X51151750Y-45383533D01*
X51151750Y-45383533D02*
X51151750Y-45288295D01*
X51151750Y-45288295D02*
X51218417Y-45193057D01*
X51218417Y-45193057D02*
X51285084Y-45145438D01*
X51285084Y-45145438D02*
X51418417Y-45097819D01*
X51418417Y-45097819D02*
X51751750Y-45097819D01*
X51751750Y-45097819D02*
X51951750Y-45145438D01*
X53351750Y-46097819D02*
X52885083Y-45621628D01*
X52551750Y-46097819D02*
X52551750Y-45097819D01*
X52551750Y-45097819D02*
X53085083Y-45097819D01*
X53085083Y-45097819D02*
X53218417Y-45145438D01*
X53218417Y-45145438D02*
X53285083Y-45193057D01*
X53285083Y-45193057D02*
X53351750Y-45288295D01*
X53351750Y-45288295D02*
X53351750Y-45431152D01*
X53351750Y-45431152D02*
X53285083Y-45526390D01*
X53285083Y-45526390D02*
X53218417Y-45574009D01*
X53218417Y-45574009D02*
X53085083Y-45621628D01*
X53085083Y-45621628D02*
X52551750Y-45621628D01*
X53885083Y-45193057D02*
X53951750Y-45145438D01*
X53951750Y-45145438D02*
X54085083Y-45097819D01*
X54085083Y-45097819D02*
X54418417Y-45097819D01*
X54418417Y-45097819D02*
X54551750Y-45145438D01*
X54551750Y-45145438D02*
X54618417Y-45193057D01*
X54618417Y-45193057D02*
X54685083Y-45288295D01*
X54685083Y-45288295D02*
X54685083Y-45383533D01*
X54685083Y-45383533D02*
X54618417Y-45526390D01*
X54618417Y-45526390D02*
X53818417Y-46097819D01*
X53818417Y-46097819D02*
X54685083Y-46097819D01*
X59865350Y-46072200D02*
X60065350Y-46119819D01*
X60065350Y-46119819D02*
X60398684Y-46119819D01*
X60398684Y-46119819D02*
X60532017Y-46072200D01*
X60532017Y-46072200D02*
X60598684Y-46024580D01*
X60598684Y-46024580D02*
X60665350Y-45929342D01*
X60665350Y-45929342D02*
X60665350Y-45834104D01*
X60665350Y-45834104D02*
X60598684Y-45738866D01*
X60598684Y-45738866D02*
X60532017Y-45691247D01*
X60532017Y-45691247D02*
X60398684Y-45643628D01*
X60398684Y-45643628D02*
X60132017Y-45596009D01*
X60132017Y-45596009D02*
X59998684Y-45548390D01*
X59998684Y-45548390D02*
X59932017Y-45500771D01*
X59932017Y-45500771D02*
X59865350Y-45405533D01*
X59865350Y-45405533D02*
X59865350Y-45310295D01*
X59865350Y-45310295D02*
X59932017Y-45215057D01*
X59932017Y-45215057D02*
X59998684Y-45167438D01*
X59998684Y-45167438D02*
X60132017Y-45119819D01*
X60132017Y-45119819D02*
X60465350Y-45119819D01*
X60465350Y-45119819D02*
X60665350Y-45167438D01*
X62065350Y-46119819D02*
X61598683Y-45643628D01*
X61265350Y-46119819D02*
X61265350Y-45119819D01*
X61265350Y-45119819D02*
X61798683Y-45119819D01*
X61798683Y-45119819D02*
X61932017Y-45167438D01*
X61932017Y-45167438D02*
X61998683Y-45215057D01*
X61998683Y-45215057D02*
X62065350Y-45310295D01*
X62065350Y-45310295D02*
X62065350Y-45453152D01*
X62065350Y-45453152D02*
X61998683Y-45548390D01*
X61998683Y-45548390D02*
X61932017Y-45596009D01*
X61932017Y-45596009D02*
X61798683Y-45643628D01*
X61798683Y-45643628D02*
X61265350Y-45643628D01*
X63398683Y-46119819D02*
X62598683Y-46119819D01*
X62998683Y-46119819D02*
X62998683Y-45119819D01*
X62998683Y-45119819D02*
X62865350Y-45262676D01*
X62865350Y-45262676D02*
X62732017Y-45357914D01*
X62732017Y-45357914D02*
X62598683Y-45405533D01*
D12*
X69904285Y-21312785D02*
X69904285Y-21598500D01*
X70075714Y-21098500D02*
X71875714Y-21098500D01*
X70075714Y-21741357D02*
X70675714Y-21741357D01*
X70161428Y-22455642D02*
X71875714Y-22455642D01*
X70161428Y-22169928D02*
X71875714Y-22169928D01*
X70161428Y-21955642D02*
X70161428Y-22527071D01*
X70161428Y-21527071D02*
X70675714Y-21527071D01*
X70932857Y-21098500D02*
X70932857Y-21812785D01*
X71018571Y-22669928D02*
X72047142Y-22669928D01*
X71018571Y-21955642D02*
X71018571Y-22669928D01*
X71189999Y-21741357D02*
X71875714Y-21741357D01*
X71189999Y-21527071D02*
X71789999Y-21527071D01*
X72132857Y-22455642D02*
X72047142Y-22669928D01*
X69904285Y-21312785D02*
X72047142Y-21312785D01*
X72047142Y-21312785D02*
X72047142Y-21598500D01*
X70161428Y-21955642D02*
X71875714Y-21955642D01*
X71875714Y-21955642D02*
X71875714Y-22455642D01*
X72561428Y-21884214D02*
X74790000Y-21884214D01*
X73675714Y-21527071D02*
X73675714Y-22669928D01*
X73675714Y-22669928D02*
X73161428Y-22669928D01*
X72818571Y-21169928D02*
X74532857Y-21169928D01*
X74532857Y-21169928D02*
X74275714Y-21312785D01*
X74275714Y-21312785D02*
X73675714Y-21527071D01*
D13*
X70128094Y-19743685D02*
X72032856Y-19743685D01*
X70485237Y-19172257D02*
X71675713Y-19172257D01*
X70961428Y-19172257D02*
X70961428Y-20457971D01*
X70961428Y-20457971D02*
X71675713Y-20457971D01*
X72985238Y-19243685D02*
X74294761Y-19243685D01*
X74294761Y-19243685D02*
X74294761Y-19600828D01*
X74294761Y-19600828D02*
X74175714Y-19957971D01*
X74175714Y-19957971D02*
X73937619Y-20172257D01*
X73937619Y-20172257D02*
X73580476Y-20315114D01*
X73580476Y-20315114D02*
X73104285Y-20457971D01*
D11*
X58386742Y-30433180D02*
X58339123Y-30480800D01*
X58339123Y-30480800D02*
X58196266Y-30528419D01*
X58196266Y-30528419D02*
X58101028Y-30528419D01*
X58101028Y-30528419D02*
X57958171Y-30480800D01*
X57958171Y-30480800D02*
X57862933Y-30385561D01*
X57862933Y-30385561D02*
X57815314Y-30290323D01*
X57815314Y-30290323D02*
X57767695Y-30099847D01*
X57767695Y-30099847D02*
X57767695Y-29956990D01*
X57767695Y-29956990D02*
X57815314Y-29766514D01*
X57815314Y-29766514D02*
X57862933Y-29671276D01*
X57862933Y-29671276D02*
X57958171Y-29576038D01*
X57958171Y-29576038D02*
X58101028Y-29528419D01*
X58101028Y-29528419D02*
X58196266Y-29528419D01*
X58196266Y-29528419D02*
X58339123Y-29576038D01*
X58339123Y-29576038D02*
X58386742Y-29623657D01*
X59339123Y-30528419D02*
X58767695Y-30528419D01*
X59053409Y-30528419D02*
X59053409Y-29528419D01*
X59053409Y-29528419D02*
X58958171Y-29671276D01*
X58958171Y-29671276D02*
X58862933Y-29766514D01*
X58862933Y-29766514D02*
X58767695Y-29814133D01*
X59672457Y-29528419D02*
X60291504Y-29528419D01*
X60291504Y-29528419D02*
X59958171Y-29909371D01*
X59958171Y-29909371D02*
X60101028Y-29909371D01*
X60101028Y-29909371D02*
X60196266Y-29956990D01*
X60196266Y-29956990D02*
X60243885Y-30004609D01*
X60243885Y-30004609D02*
X60291504Y-30099847D01*
X60291504Y-30099847D02*
X60291504Y-30337942D01*
X60291504Y-30337942D02*
X60243885Y-30433180D01*
X60243885Y-30433180D02*
X60196266Y-30480800D01*
X60196266Y-30480800D02*
X60101028Y-30528419D01*
X60101028Y-30528419D02*
X59815314Y-30528419D01*
X59815314Y-30528419D02*
X59720076Y-30480800D01*
X59720076Y-30480800D02*
X59672457Y-30433180D01*
X41164819Y-30036904D02*
X41974342Y-30036904D01*
X41974342Y-30036904D02*
X42069580Y-29989285D01*
X42069580Y-29989285D02*
X42117200Y-29941666D01*
X42117200Y-29941666D02*
X42164819Y-29846428D01*
X42164819Y-29846428D02*
X42164819Y-29655952D01*
X42164819Y-29655952D02*
X42117200Y-29560714D01*
X42117200Y-29560714D02*
X42069580Y-29513095D01*
X42069580Y-29513095D02*
X41974342Y-29465476D01*
X41974342Y-29465476D02*
X41164819Y-29465476D01*
X41260057Y-29036904D02*
X41212438Y-28989285D01*
X41212438Y-28989285D02*
X41164819Y-28894047D01*
X41164819Y-28894047D02*
X41164819Y-28655952D01*
X41164819Y-28655952D02*
X41212438Y-28560714D01*
X41212438Y-28560714D02*
X41260057Y-28513095D01*
X41260057Y-28513095D02*
X41355295Y-28465476D01*
X41355295Y-28465476D02*
X41450533Y-28465476D01*
X41450533Y-28465476D02*
X41593390Y-28513095D01*
X41593390Y-28513095D02*
X42164819Y-29084523D01*
X42164819Y-29084523D02*
X42164819Y-28465476D01*
X63357142Y-36954819D02*
X63023809Y-36478628D01*
X62785714Y-36954819D02*
X62785714Y-35954819D01*
X62785714Y-35954819D02*
X63166666Y-35954819D01*
X63166666Y-35954819D02*
X63261904Y-36002438D01*
X63261904Y-36002438D02*
X63309523Y-36050057D01*
X63309523Y-36050057D02*
X63357142Y-36145295D01*
X63357142Y-36145295D02*
X63357142Y-36288152D01*
X63357142Y-36288152D02*
X63309523Y-36383390D01*
X63309523Y-36383390D02*
X63261904Y-36431009D01*
X63261904Y-36431009D02*
X63166666Y-36478628D01*
X63166666Y-36478628D02*
X62785714Y-36478628D01*
X64309523Y-36954819D02*
X63738095Y-36954819D01*
X64023809Y-36954819D02*
X64023809Y-35954819D01*
X64023809Y-35954819D02*
X63928571Y-36097676D01*
X63928571Y-36097676D02*
X63833333Y-36192914D01*
X63833333Y-36192914D02*
X63738095Y-36240533D01*
X64880952Y-36383390D02*
X64785714Y-36335771D01*
X64785714Y-36335771D02*
X64738095Y-36288152D01*
X64738095Y-36288152D02*
X64690476Y-36192914D01*
X64690476Y-36192914D02*
X64690476Y-36145295D01*
X64690476Y-36145295D02*
X64738095Y-36050057D01*
X64738095Y-36050057D02*
X64785714Y-36002438D01*
X64785714Y-36002438D02*
X64880952Y-35954819D01*
X64880952Y-35954819D02*
X65071428Y-35954819D01*
X65071428Y-35954819D02*
X65166666Y-36002438D01*
X65166666Y-36002438D02*
X65214285Y-36050057D01*
X65214285Y-36050057D02*
X65261904Y-36145295D01*
X65261904Y-36145295D02*
X65261904Y-36192914D01*
X65261904Y-36192914D02*
X65214285Y-36288152D01*
X65214285Y-36288152D02*
X65166666Y-36335771D01*
X65166666Y-36335771D02*
X65071428Y-36383390D01*
X65071428Y-36383390D02*
X64880952Y-36383390D01*
X64880952Y-36383390D02*
X64785714Y-36431009D01*
X64785714Y-36431009D02*
X64738095Y-36478628D01*
X64738095Y-36478628D02*
X64690476Y-36573866D01*
X64690476Y-36573866D02*
X64690476Y-36764342D01*
X64690476Y-36764342D02*
X64738095Y-36859580D01*
X64738095Y-36859580D02*
X64785714Y-36907200D01*
X64785714Y-36907200D02*
X64880952Y-36954819D01*
X64880952Y-36954819D02*
X65071428Y-36954819D01*
X65071428Y-36954819D02*
X65166666Y-36907200D01*
X65166666Y-36907200D02*
X65214285Y-36859580D01*
X65214285Y-36859580D02*
X65261904Y-36764342D01*
X65261904Y-36764342D02*
X65261904Y-36573866D01*
X65261904Y-36573866D02*
X65214285Y-36478628D01*
X65214285Y-36478628D02*
X65166666Y-36431009D01*
X65166666Y-36431009D02*
X65071428Y-36383390D01*
X57204819Y-41376666D02*
X56728628Y-41709999D01*
X57204819Y-41948094D02*
X56204819Y-41948094D01*
X56204819Y-41948094D02*
X56204819Y-41567142D01*
X56204819Y-41567142D02*
X56252438Y-41471904D01*
X56252438Y-41471904D02*
X56300057Y-41424285D01*
X56300057Y-41424285D02*
X56395295Y-41376666D01*
X56395295Y-41376666D02*
X56538152Y-41376666D01*
X56538152Y-41376666D02*
X56633390Y-41424285D01*
X56633390Y-41424285D02*
X56681009Y-41471904D01*
X56681009Y-41471904D02*
X56728628Y-41567142D01*
X56728628Y-41567142D02*
X56728628Y-41948094D01*
X57204819Y-40900475D02*
X57204819Y-40709999D01*
X57204819Y-40709999D02*
X57157200Y-40614761D01*
X57157200Y-40614761D02*
X57109580Y-40567142D01*
X57109580Y-40567142D02*
X56966723Y-40471904D01*
X56966723Y-40471904D02*
X56776247Y-40424285D01*
X56776247Y-40424285D02*
X56395295Y-40424285D01*
X56395295Y-40424285D02*
X56300057Y-40471904D01*
X56300057Y-40471904D02*
X56252438Y-40519523D01*
X56252438Y-40519523D02*
X56204819Y-40614761D01*
X56204819Y-40614761D02*
X56204819Y-40805237D01*
X56204819Y-40805237D02*
X56252438Y-40900475D01*
X56252438Y-40900475D02*
X56300057Y-40948094D01*
X56300057Y-40948094D02*
X56395295Y-40995713D01*
X56395295Y-40995713D02*
X56633390Y-40995713D01*
X56633390Y-40995713D02*
X56728628Y-40948094D01*
X56728628Y-40948094D02*
X56776247Y-40900475D01*
X56776247Y-40900475D02*
X56823866Y-40805237D01*
X56823866Y-40805237D02*
X56823866Y-40614761D01*
X56823866Y-40614761D02*
X56776247Y-40519523D01*
X56776247Y-40519523D02*
X56728628Y-40471904D01*
X56728628Y-40471904D02*
X56633390Y-40424285D01*
X40769580Y-43706666D02*
X40817200Y-43754285D01*
X40817200Y-43754285D02*
X40864819Y-43897142D01*
X40864819Y-43897142D02*
X40864819Y-43992380D01*
X40864819Y-43992380D02*
X40817200Y-44135237D01*
X40817200Y-44135237D02*
X40721961Y-44230475D01*
X40721961Y-44230475D02*
X40626723Y-44278094D01*
X40626723Y-44278094D02*
X40436247Y-44325713D01*
X40436247Y-44325713D02*
X40293390Y-44325713D01*
X40293390Y-44325713D02*
X40102914Y-44278094D01*
X40102914Y-44278094D02*
X40007676Y-44230475D01*
X40007676Y-44230475D02*
X39912438Y-44135237D01*
X39912438Y-44135237D02*
X39864819Y-43992380D01*
X39864819Y-43992380D02*
X39864819Y-43897142D01*
X39864819Y-43897142D02*
X39912438Y-43754285D01*
X39912438Y-43754285D02*
X39960057Y-43706666D01*
X39864819Y-43373332D02*
X39864819Y-42706666D01*
X39864819Y-42706666D02*
X40864819Y-43135237D01*
X68607142Y-34359580D02*
X68559523Y-34407200D01*
X68559523Y-34407200D02*
X68416666Y-34454819D01*
X68416666Y-34454819D02*
X68321428Y-34454819D01*
X68321428Y-34454819D02*
X68178571Y-34407200D01*
X68178571Y-34407200D02*
X68083333Y-34311961D01*
X68083333Y-34311961D02*
X68035714Y-34216723D01*
X68035714Y-34216723D02*
X67988095Y-34026247D01*
X67988095Y-34026247D02*
X67988095Y-33883390D01*
X67988095Y-33883390D02*
X68035714Y-33692914D01*
X68035714Y-33692914D02*
X68083333Y-33597676D01*
X68083333Y-33597676D02*
X68178571Y-33502438D01*
X68178571Y-33502438D02*
X68321428Y-33454819D01*
X68321428Y-33454819D02*
X68416666Y-33454819D01*
X68416666Y-33454819D02*
X68559523Y-33502438D01*
X68559523Y-33502438D02*
X68607142Y-33550057D01*
X69559523Y-34454819D02*
X68988095Y-34454819D01*
X69273809Y-34454819D02*
X69273809Y-33454819D01*
X69273809Y-33454819D02*
X69178571Y-33597676D01*
X69178571Y-33597676D02*
X69083333Y-33692914D01*
X69083333Y-33692914D02*
X68988095Y-33740533D01*
X70511904Y-34454819D02*
X69940476Y-34454819D01*
X70226190Y-34454819D02*
X70226190Y-33454819D01*
X70226190Y-33454819D02*
X70130952Y-33597676D01*
X70130952Y-33597676D02*
X70035714Y-33692914D01*
X70035714Y-33692914D02*
X69940476Y-33740533D01*
X65873333Y-34649580D02*
X65825714Y-34697200D01*
X65825714Y-34697200D02*
X65682857Y-34744819D01*
X65682857Y-34744819D02*
X65587619Y-34744819D01*
X65587619Y-34744819D02*
X65444762Y-34697200D01*
X65444762Y-34697200D02*
X65349524Y-34601961D01*
X65349524Y-34601961D02*
X65301905Y-34506723D01*
X65301905Y-34506723D02*
X65254286Y-34316247D01*
X65254286Y-34316247D02*
X65254286Y-34173390D01*
X65254286Y-34173390D02*
X65301905Y-33982914D01*
X65301905Y-33982914D02*
X65349524Y-33887676D01*
X65349524Y-33887676D02*
X65444762Y-33792438D01*
X65444762Y-33792438D02*
X65587619Y-33744819D01*
X65587619Y-33744819D02*
X65682857Y-33744819D01*
X65682857Y-33744819D02*
X65825714Y-33792438D01*
X65825714Y-33792438D02*
X65873333Y-33840057D01*
X66349524Y-34744819D02*
X66540000Y-34744819D01*
X66540000Y-34744819D02*
X66635238Y-34697200D01*
X66635238Y-34697200D02*
X66682857Y-34649580D01*
X66682857Y-34649580D02*
X66778095Y-34506723D01*
X66778095Y-34506723D02*
X66825714Y-34316247D01*
X66825714Y-34316247D02*
X66825714Y-33935295D01*
X66825714Y-33935295D02*
X66778095Y-33840057D01*
X66778095Y-33840057D02*
X66730476Y-33792438D01*
X66730476Y-33792438D02*
X66635238Y-33744819D01*
X66635238Y-33744819D02*
X66444762Y-33744819D01*
X66444762Y-33744819D02*
X66349524Y-33792438D01*
X66349524Y-33792438D02*
X66301905Y-33840057D01*
X66301905Y-33840057D02*
X66254286Y-33935295D01*
X66254286Y-33935295D02*
X66254286Y-34173390D01*
X66254286Y-34173390D02*
X66301905Y-34268628D01*
X66301905Y-34268628D02*
X66349524Y-34316247D01*
X66349524Y-34316247D02*
X66444762Y-34363866D01*
X66444762Y-34363866D02*
X66635238Y-34363866D01*
X66635238Y-34363866D02*
X66730476Y-34316247D01*
X66730476Y-34316247D02*
X66778095Y-34268628D01*
X66778095Y-34268628D02*
X66825714Y-34173390D01*
X67107142Y-40454819D02*
X66773809Y-39978628D01*
X66535714Y-40454819D02*
X66535714Y-39454819D01*
X66535714Y-39454819D02*
X66916666Y-39454819D01*
X66916666Y-39454819D02*
X67011904Y-39502438D01*
X67011904Y-39502438D02*
X67059523Y-39550057D01*
X67059523Y-39550057D02*
X67107142Y-39645295D01*
X67107142Y-39645295D02*
X67107142Y-39788152D01*
X67107142Y-39788152D02*
X67059523Y-39883390D01*
X67059523Y-39883390D02*
X67011904Y-39931009D01*
X67011904Y-39931009D02*
X66916666Y-39978628D01*
X66916666Y-39978628D02*
X66535714Y-39978628D01*
X68059523Y-40454819D02*
X67488095Y-40454819D01*
X67773809Y-40454819D02*
X67773809Y-39454819D01*
X67773809Y-39454819D02*
X67678571Y-39597676D01*
X67678571Y-39597676D02*
X67583333Y-39692914D01*
X67583333Y-39692914D02*
X67488095Y-39740533D01*
X68916666Y-39454819D02*
X68726190Y-39454819D01*
X68726190Y-39454819D02*
X68630952Y-39502438D01*
X68630952Y-39502438D02*
X68583333Y-39550057D01*
X68583333Y-39550057D02*
X68488095Y-39692914D01*
X68488095Y-39692914D02*
X68440476Y-39883390D01*
X68440476Y-39883390D02*
X68440476Y-40264342D01*
X68440476Y-40264342D02*
X68488095Y-40359580D01*
X68488095Y-40359580D02*
X68535714Y-40407200D01*
X68535714Y-40407200D02*
X68630952Y-40454819D01*
X68630952Y-40454819D02*
X68821428Y-40454819D01*
X68821428Y-40454819D02*
X68916666Y-40407200D01*
X68916666Y-40407200D02*
X68964285Y-40359580D01*
X68964285Y-40359580D02*
X69011904Y-40264342D01*
X69011904Y-40264342D02*
X69011904Y-40026247D01*
X69011904Y-40026247D02*
X68964285Y-39931009D01*
X68964285Y-39931009D02*
X68916666Y-39883390D01*
X68916666Y-39883390D02*
X68821428Y-39835771D01*
X68821428Y-39835771D02*
X68630952Y-39835771D01*
X68630952Y-39835771D02*
X68535714Y-39883390D01*
X68535714Y-39883390D02*
X68488095Y-39931009D01*
X68488095Y-39931009D02*
X68440476Y-40026247D01*
X72757142Y-29854819D02*
X72423809Y-29378628D01*
X72185714Y-29854819D02*
X72185714Y-28854819D01*
X72185714Y-28854819D02*
X72566666Y-28854819D01*
X72566666Y-28854819D02*
X72661904Y-28902438D01*
X72661904Y-28902438D02*
X72709523Y-28950057D01*
X72709523Y-28950057D02*
X72757142Y-29045295D01*
X72757142Y-29045295D02*
X72757142Y-29188152D01*
X72757142Y-29188152D02*
X72709523Y-29283390D01*
X72709523Y-29283390D02*
X72661904Y-29331009D01*
X72661904Y-29331009D02*
X72566666Y-29378628D01*
X72566666Y-29378628D02*
X72185714Y-29378628D01*
X73138095Y-28950057D02*
X73185714Y-28902438D01*
X73185714Y-28902438D02*
X73280952Y-28854819D01*
X73280952Y-28854819D02*
X73519047Y-28854819D01*
X73519047Y-28854819D02*
X73614285Y-28902438D01*
X73614285Y-28902438D02*
X73661904Y-28950057D01*
X73661904Y-28950057D02*
X73709523Y-29045295D01*
X73709523Y-29045295D02*
X73709523Y-29140533D01*
X73709523Y-29140533D02*
X73661904Y-29283390D01*
X73661904Y-29283390D02*
X73090476Y-29854819D01*
X73090476Y-29854819D02*
X73709523Y-29854819D01*
X74661904Y-29854819D02*
X74090476Y-29854819D01*
X74376190Y-29854819D02*
X74376190Y-28854819D01*
X74376190Y-28854819D02*
X74280952Y-28997676D01*
X74280952Y-28997676D02*
X74185714Y-29092914D01*
X74185714Y-29092914D02*
X74090476Y-29140533D01*
X57109580Y-43876666D02*
X57157200Y-43924285D01*
X57157200Y-43924285D02*
X57204819Y-44067142D01*
X57204819Y-44067142D02*
X57204819Y-44162380D01*
X57204819Y-44162380D02*
X57157200Y-44305237D01*
X57157200Y-44305237D02*
X57061961Y-44400475D01*
X57061961Y-44400475D02*
X56966723Y-44448094D01*
X56966723Y-44448094D02*
X56776247Y-44495713D01*
X56776247Y-44495713D02*
X56633390Y-44495713D01*
X56633390Y-44495713D02*
X56442914Y-44448094D01*
X56442914Y-44448094D02*
X56347676Y-44400475D01*
X56347676Y-44400475D02*
X56252438Y-44305237D01*
X56252438Y-44305237D02*
X56204819Y-44162380D01*
X56204819Y-44162380D02*
X56204819Y-44067142D01*
X56204819Y-44067142D02*
X56252438Y-43924285D01*
X56252438Y-43924285D02*
X56300057Y-43876666D01*
X56300057Y-43495713D02*
X56252438Y-43448094D01*
X56252438Y-43448094D02*
X56204819Y-43352856D01*
X56204819Y-43352856D02*
X56204819Y-43114761D01*
X56204819Y-43114761D02*
X56252438Y-43019523D01*
X56252438Y-43019523D02*
X56300057Y-42971904D01*
X56300057Y-42971904D02*
X56395295Y-42924285D01*
X56395295Y-42924285D02*
X56490533Y-42924285D01*
X56490533Y-42924285D02*
X56633390Y-42971904D01*
X56633390Y-42971904D02*
X57204819Y-43543332D01*
X57204819Y-43543332D02*
X57204819Y-42924285D01*
X62109580Y-43666666D02*
X62157200Y-43714285D01*
X62157200Y-43714285D02*
X62204819Y-43857142D01*
X62204819Y-43857142D02*
X62204819Y-43952380D01*
X62204819Y-43952380D02*
X62157200Y-44095237D01*
X62157200Y-44095237D02*
X62061961Y-44190475D01*
X62061961Y-44190475D02*
X61966723Y-44238094D01*
X61966723Y-44238094D02*
X61776247Y-44285713D01*
X61776247Y-44285713D02*
X61633390Y-44285713D01*
X61633390Y-44285713D02*
X61442914Y-44238094D01*
X61442914Y-44238094D02*
X61347676Y-44190475D01*
X61347676Y-44190475D02*
X61252438Y-44095237D01*
X61252438Y-44095237D02*
X61204819Y-43952380D01*
X61204819Y-43952380D02*
X61204819Y-43857142D01*
X61204819Y-43857142D02*
X61252438Y-43714285D01*
X61252438Y-43714285D02*
X61300057Y-43666666D01*
X61538152Y-42809523D02*
X62204819Y-42809523D01*
X61157200Y-43047618D02*
X61871485Y-43285713D01*
X61871485Y-43285713D02*
X61871485Y-42666666D01*
X46109580Y-43706666D02*
X46157200Y-43754285D01*
X46157200Y-43754285D02*
X46204819Y-43897142D01*
X46204819Y-43897142D02*
X46204819Y-43992380D01*
X46204819Y-43992380D02*
X46157200Y-44135237D01*
X46157200Y-44135237D02*
X46061961Y-44230475D01*
X46061961Y-44230475D02*
X45966723Y-44278094D01*
X45966723Y-44278094D02*
X45776247Y-44325713D01*
X45776247Y-44325713D02*
X45633390Y-44325713D01*
X45633390Y-44325713D02*
X45442914Y-44278094D01*
X45442914Y-44278094D02*
X45347676Y-44230475D01*
X45347676Y-44230475D02*
X45252438Y-44135237D01*
X45252438Y-44135237D02*
X45204819Y-43992380D01*
X45204819Y-43992380D02*
X45204819Y-43897142D01*
X45204819Y-43897142D02*
X45252438Y-43754285D01*
X45252438Y-43754285D02*
X45300057Y-43706666D01*
X45633390Y-43135237D02*
X45585771Y-43230475D01*
X45585771Y-43230475D02*
X45538152Y-43278094D01*
X45538152Y-43278094D02*
X45442914Y-43325713D01*
X45442914Y-43325713D02*
X45395295Y-43325713D01*
X45395295Y-43325713D02*
X45300057Y-43278094D01*
X45300057Y-43278094D02*
X45252438Y-43230475D01*
X45252438Y-43230475D02*
X45204819Y-43135237D01*
X45204819Y-43135237D02*
X45204819Y-42944761D01*
X45204819Y-42944761D02*
X45252438Y-42849523D01*
X45252438Y-42849523D02*
X45300057Y-42801904D01*
X45300057Y-42801904D02*
X45395295Y-42754285D01*
X45395295Y-42754285D02*
X45442914Y-42754285D01*
X45442914Y-42754285D02*
X45538152Y-42801904D01*
X45538152Y-42801904D02*
X45585771Y-42849523D01*
X45585771Y-42849523D02*
X45633390Y-42944761D01*
X45633390Y-42944761D02*
X45633390Y-43135237D01*
X45633390Y-43135237D02*
X45681009Y-43230475D01*
X45681009Y-43230475D02*
X45728628Y-43278094D01*
X45728628Y-43278094D02*
X45823866Y-43325713D01*
X45823866Y-43325713D02*
X46014342Y-43325713D01*
X46014342Y-43325713D02*
X46109580Y-43278094D01*
X46109580Y-43278094D02*
X46157200Y-43230475D01*
X46157200Y-43230475D02*
X46204819Y-43135237D01*
X46204819Y-43135237D02*
X46204819Y-42944761D01*
X46204819Y-42944761D02*
X46157200Y-42849523D01*
X46157200Y-42849523D02*
X46109580Y-42801904D01*
X46109580Y-42801904D02*
X46014342Y-42754285D01*
X46014342Y-42754285D02*
X45823866Y-42754285D01*
X45823866Y-42754285D02*
X45728628Y-42801904D01*
X45728628Y-42801904D02*
X45681009Y-42849523D01*
X45681009Y-42849523D02*
X45633390Y-42944761D01*
X52204819Y-41642857D02*
X51728628Y-41976190D01*
X52204819Y-42214285D02*
X51204819Y-42214285D01*
X51204819Y-42214285D02*
X51204819Y-41833333D01*
X51204819Y-41833333D02*
X51252438Y-41738095D01*
X51252438Y-41738095D02*
X51300057Y-41690476D01*
X51300057Y-41690476D02*
X51395295Y-41642857D01*
X51395295Y-41642857D02*
X51538152Y-41642857D01*
X51538152Y-41642857D02*
X51633390Y-41690476D01*
X51633390Y-41690476D02*
X51681009Y-41738095D01*
X51681009Y-41738095D02*
X51728628Y-41833333D01*
X51728628Y-41833333D02*
X51728628Y-42214285D01*
X52204819Y-40690476D02*
X52204819Y-41261904D01*
X52204819Y-40976190D02*
X51204819Y-40976190D01*
X51204819Y-40976190D02*
X51347676Y-41071428D01*
X51347676Y-41071428D02*
X51442914Y-41166666D01*
X51442914Y-41166666D02*
X51490533Y-41261904D01*
X51204819Y-40357142D02*
X51204819Y-39738095D01*
X51204819Y-39738095D02*
X51585771Y-40071428D01*
X51585771Y-40071428D02*
X51585771Y-39928571D01*
X51585771Y-39928571D02*
X51633390Y-39833333D01*
X51633390Y-39833333D02*
X51681009Y-39785714D01*
X51681009Y-39785714D02*
X51776247Y-39738095D01*
X51776247Y-39738095D02*
X52014342Y-39738095D01*
X52014342Y-39738095D02*
X52109580Y-39785714D01*
X52109580Y-39785714D02*
X52157200Y-39833333D01*
X52157200Y-39833333D02*
X52204819Y-39928571D01*
X52204819Y-39928571D02*
X52204819Y-40214285D01*
X52204819Y-40214285D02*
X52157200Y-40309523D01*
X52157200Y-40309523D02*
X52109580Y-40357142D01*
X30657319Y-41166666D02*
X30181128Y-41499999D01*
X30657319Y-41738094D02*
X29657319Y-41738094D01*
X29657319Y-41738094D02*
X29657319Y-41357142D01*
X29657319Y-41357142D02*
X29704938Y-41261904D01*
X29704938Y-41261904D02*
X29752557Y-41214285D01*
X29752557Y-41214285D02*
X29847795Y-41166666D01*
X29847795Y-41166666D02*
X29990652Y-41166666D01*
X29990652Y-41166666D02*
X30085890Y-41214285D01*
X30085890Y-41214285D02*
X30133509Y-41261904D01*
X30133509Y-41261904D02*
X30181128Y-41357142D01*
X30181128Y-41357142D02*
X30181128Y-41738094D01*
X30085890Y-40595237D02*
X30038271Y-40690475D01*
X30038271Y-40690475D02*
X29990652Y-40738094D01*
X29990652Y-40738094D02*
X29895414Y-40785713D01*
X29895414Y-40785713D02*
X29847795Y-40785713D01*
X29847795Y-40785713D02*
X29752557Y-40738094D01*
X29752557Y-40738094D02*
X29704938Y-40690475D01*
X29704938Y-40690475D02*
X29657319Y-40595237D01*
X29657319Y-40595237D02*
X29657319Y-40404761D01*
X29657319Y-40404761D02*
X29704938Y-40309523D01*
X29704938Y-40309523D02*
X29752557Y-40261904D01*
X29752557Y-40261904D02*
X29847795Y-40214285D01*
X29847795Y-40214285D02*
X29895414Y-40214285D01*
X29895414Y-40214285D02*
X29990652Y-40261904D01*
X29990652Y-40261904D02*
X30038271Y-40309523D01*
X30038271Y-40309523D02*
X30085890Y-40404761D01*
X30085890Y-40404761D02*
X30085890Y-40595237D01*
X30085890Y-40595237D02*
X30133509Y-40690475D01*
X30133509Y-40690475D02*
X30181128Y-40738094D01*
X30181128Y-40738094D02*
X30276366Y-40785713D01*
X30276366Y-40785713D02*
X30466842Y-40785713D01*
X30466842Y-40785713D02*
X30562080Y-40738094D01*
X30562080Y-40738094D02*
X30609700Y-40690475D01*
X30609700Y-40690475D02*
X30657319Y-40595237D01*
X30657319Y-40595237D02*
X30657319Y-40404761D01*
X30657319Y-40404761D02*
X30609700Y-40309523D01*
X30609700Y-40309523D02*
X30562080Y-40261904D01*
X30562080Y-40261904D02*
X30466842Y-40214285D01*
X30466842Y-40214285D02*
X30276366Y-40214285D01*
X30276366Y-40214285D02*
X30181128Y-40261904D01*
X30181128Y-40261904D02*
X30133509Y-40309523D01*
X30133509Y-40309523D02*
X30085890Y-40404761D01*
X62204819Y-41392857D02*
X61728628Y-41726190D01*
X62204819Y-41964285D02*
X61204819Y-41964285D01*
X61204819Y-41964285D02*
X61204819Y-41583333D01*
X61204819Y-41583333D02*
X61252438Y-41488095D01*
X61252438Y-41488095D02*
X61300057Y-41440476D01*
X61300057Y-41440476D02*
X61395295Y-41392857D01*
X61395295Y-41392857D02*
X61538152Y-41392857D01*
X61538152Y-41392857D02*
X61633390Y-41440476D01*
X61633390Y-41440476D02*
X61681009Y-41488095D01*
X61681009Y-41488095D02*
X61728628Y-41583333D01*
X61728628Y-41583333D02*
X61728628Y-41964285D01*
X62204819Y-40440476D02*
X62204819Y-41011904D01*
X62204819Y-40726190D02*
X61204819Y-40726190D01*
X61204819Y-40726190D02*
X61347676Y-40821428D01*
X61347676Y-40821428D02*
X61442914Y-40916666D01*
X61442914Y-40916666D02*
X61490533Y-41011904D01*
X62204819Y-39488095D02*
X62204819Y-40059523D01*
X62204819Y-39773809D02*
X61204819Y-39773809D01*
X61204819Y-39773809D02*
X61347676Y-39869047D01*
X61347676Y-39869047D02*
X61442914Y-39964285D01*
X61442914Y-39964285D02*
X61490533Y-40059523D01*
X30524580Y-43706666D02*
X30572200Y-43754285D01*
X30572200Y-43754285D02*
X30619819Y-43897142D01*
X30619819Y-43897142D02*
X30619819Y-43992380D01*
X30619819Y-43992380D02*
X30572200Y-44135237D01*
X30572200Y-44135237D02*
X30476961Y-44230475D01*
X30476961Y-44230475D02*
X30381723Y-44278094D01*
X30381723Y-44278094D02*
X30191247Y-44325713D01*
X30191247Y-44325713D02*
X30048390Y-44325713D01*
X30048390Y-44325713D02*
X29857914Y-44278094D01*
X29857914Y-44278094D02*
X29762676Y-44230475D01*
X29762676Y-44230475D02*
X29667438Y-44135237D01*
X29667438Y-44135237D02*
X29619819Y-43992380D01*
X29619819Y-43992380D02*
X29619819Y-43897142D01*
X29619819Y-43897142D02*
X29667438Y-43754285D01*
X29667438Y-43754285D02*
X29715057Y-43706666D01*
X30619819Y-42754285D02*
X30619819Y-43325713D01*
X30619819Y-43039999D02*
X29619819Y-43039999D01*
X29619819Y-43039999D02*
X29762676Y-43135237D01*
X29762676Y-43135237D02*
X29857914Y-43230475D01*
X29857914Y-43230475D02*
X29905533Y-43325713D01*
X67157142Y-20654819D02*
X66823809Y-20178628D01*
X66585714Y-20654819D02*
X66585714Y-19654819D01*
X66585714Y-19654819D02*
X66966666Y-19654819D01*
X66966666Y-19654819D02*
X67061904Y-19702438D01*
X67061904Y-19702438D02*
X67109523Y-19750057D01*
X67109523Y-19750057D02*
X67157142Y-19845295D01*
X67157142Y-19845295D02*
X67157142Y-19988152D01*
X67157142Y-19988152D02*
X67109523Y-20083390D01*
X67109523Y-20083390D02*
X67061904Y-20131009D01*
X67061904Y-20131009D02*
X66966666Y-20178628D01*
X66966666Y-20178628D02*
X66585714Y-20178628D01*
X68109523Y-20654819D02*
X67538095Y-20654819D01*
X67823809Y-20654819D02*
X67823809Y-19654819D01*
X67823809Y-19654819D02*
X67728571Y-19797676D01*
X67728571Y-19797676D02*
X67633333Y-19892914D01*
X67633333Y-19892914D02*
X67538095Y-19940533D01*
X68442857Y-19654819D02*
X69109523Y-19654819D01*
X69109523Y-19654819D02*
X68680952Y-20654819D01*
X55757142Y-24054819D02*
X55423809Y-23578628D01*
X55185714Y-24054819D02*
X55185714Y-23054819D01*
X55185714Y-23054819D02*
X55566666Y-23054819D01*
X55566666Y-23054819D02*
X55661904Y-23102438D01*
X55661904Y-23102438D02*
X55709523Y-23150057D01*
X55709523Y-23150057D02*
X55757142Y-23245295D01*
X55757142Y-23245295D02*
X55757142Y-23388152D01*
X55757142Y-23388152D02*
X55709523Y-23483390D01*
X55709523Y-23483390D02*
X55661904Y-23531009D01*
X55661904Y-23531009D02*
X55566666Y-23578628D01*
X55566666Y-23578628D02*
X55185714Y-23578628D01*
X56138095Y-23150057D02*
X56185714Y-23102438D01*
X56185714Y-23102438D02*
X56280952Y-23054819D01*
X56280952Y-23054819D02*
X56519047Y-23054819D01*
X56519047Y-23054819D02*
X56614285Y-23102438D01*
X56614285Y-23102438D02*
X56661904Y-23150057D01*
X56661904Y-23150057D02*
X56709523Y-23245295D01*
X56709523Y-23245295D02*
X56709523Y-23340533D01*
X56709523Y-23340533D02*
X56661904Y-23483390D01*
X56661904Y-23483390D02*
X56090476Y-24054819D01*
X56090476Y-24054819D02*
X56709523Y-24054819D01*
X57090476Y-23150057D02*
X57138095Y-23102438D01*
X57138095Y-23102438D02*
X57233333Y-23054819D01*
X57233333Y-23054819D02*
X57471428Y-23054819D01*
X57471428Y-23054819D02*
X57566666Y-23102438D01*
X57566666Y-23102438D02*
X57614285Y-23150057D01*
X57614285Y-23150057D02*
X57661904Y-23245295D01*
X57661904Y-23245295D02*
X57661904Y-23340533D01*
X57661904Y-23340533D02*
X57614285Y-23483390D01*
X57614285Y-23483390D02*
X57042857Y-24054819D01*
X57042857Y-24054819D02*
X57661904Y-24054819D01*
X46204819Y-41642857D02*
X45728628Y-41976190D01*
X46204819Y-42214285D02*
X45204819Y-42214285D01*
X45204819Y-42214285D02*
X45204819Y-41833333D01*
X45204819Y-41833333D02*
X45252438Y-41738095D01*
X45252438Y-41738095D02*
X45300057Y-41690476D01*
X45300057Y-41690476D02*
X45395295Y-41642857D01*
X45395295Y-41642857D02*
X45538152Y-41642857D01*
X45538152Y-41642857D02*
X45633390Y-41690476D01*
X45633390Y-41690476D02*
X45681009Y-41738095D01*
X45681009Y-41738095D02*
X45728628Y-41833333D01*
X45728628Y-41833333D02*
X45728628Y-42214285D01*
X46204819Y-40690476D02*
X46204819Y-41261904D01*
X46204819Y-40976190D02*
X45204819Y-40976190D01*
X45204819Y-40976190D02*
X45347676Y-41071428D01*
X45347676Y-41071428D02*
X45442914Y-41166666D01*
X45442914Y-41166666D02*
X45490533Y-41261904D01*
X45204819Y-39785714D02*
X45204819Y-40261904D01*
X45204819Y-40261904D02*
X45681009Y-40309523D01*
X45681009Y-40309523D02*
X45633390Y-40261904D01*
X45633390Y-40261904D02*
X45585771Y-40166666D01*
X45585771Y-40166666D02*
X45585771Y-39928571D01*
X45585771Y-39928571D02*
X45633390Y-39833333D01*
X45633390Y-39833333D02*
X45681009Y-39785714D01*
X45681009Y-39785714D02*
X45776247Y-39738095D01*
X45776247Y-39738095D02*
X46014342Y-39738095D01*
X46014342Y-39738095D02*
X46109580Y-39785714D01*
X46109580Y-39785714D02*
X46157200Y-39833333D01*
X46157200Y-39833333D02*
X46204819Y-39928571D01*
X46204819Y-39928571D02*
X46204819Y-40166666D01*
X46204819Y-40166666D02*
X46157200Y-40261904D01*
X46157200Y-40261904D02*
X46109580Y-40309523D01*
X58335942Y-36884780D02*
X58288323Y-36932400D01*
X58288323Y-36932400D02*
X58145466Y-36980019D01*
X58145466Y-36980019D02*
X58050228Y-36980019D01*
X58050228Y-36980019D02*
X57907371Y-36932400D01*
X57907371Y-36932400D02*
X57812133Y-36837161D01*
X57812133Y-36837161D02*
X57764514Y-36741923D01*
X57764514Y-36741923D02*
X57716895Y-36551447D01*
X57716895Y-36551447D02*
X57716895Y-36408590D01*
X57716895Y-36408590D02*
X57764514Y-36218114D01*
X57764514Y-36218114D02*
X57812133Y-36122876D01*
X57812133Y-36122876D02*
X57907371Y-36027638D01*
X57907371Y-36027638D02*
X58050228Y-35980019D01*
X58050228Y-35980019D02*
X58145466Y-35980019D01*
X58145466Y-35980019D02*
X58288323Y-36027638D01*
X58288323Y-36027638D02*
X58335942Y-36075257D01*
X59288323Y-36980019D02*
X58716895Y-36980019D01*
X59002609Y-36980019D02*
X59002609Y-35980019D01*
X59002609Y-35980019D02*
X58907371Y-36122876D01*
X58907371Y-36122876D02*
X58812133Y-36218114D01*
X58812133Y-36218114D02*
X58716895Y-36265733D01*
X59669276Y-36075257D02*
X59716895Y-36027638D01*
X59716895Y-36027638D02*
X59812133Y-35980019D01*
X59812133Y-35980019D02*
X60050228Y-35980019D01*
X60050228Y-35980019D02*
X60145466Y-36027638D01*
X60145466Y-36027638D02*
X60193085Y-36075257D01*
X60193085Y-36075257D02*
X60240704Y-36170495D01*
X60240704Y-36170495D02*
X60240704Y-36265733D01*
X60240704Y-36265733D02*
X60193085Y-36408590D01*
X60193085Y-36408590D02*
X59621657Y-36980019D01*
X59621657Y-36980019D02*
X60240704Y-36980019D01*
X35924580Y-43706666D02*
X35972200Y-43754285D01*
X35972200Y-43754285D02*
X36019819Y-43897142D01*
X36019819Y-43897142D02*
X36019819Y-43992380D01*
X36019819Y-43992380D02*
X35972200Y-44135237D01*
X35972200Y-44135237D02*
X35876961Y-44230475D01*
X35876961Y-44230475D02*
X35781723Y-44278094D01*
X35781723Y-44278094D02*
X35591247Y-44325713D01*
X35591247Y-44325713D02*
X35448390Y-44325713D01*
X35448390Y-44325713D02*
X35257914Y-44278094D01*
X35257914Y-44278094D02*
X35162676Y-44230475D01*
X35162676Y-44230475D02*
X35067438Y-44135237D01*
X35067438Y-44135237D02*
X35019819Y-43992380D01*
X35019819Y-43992380D02*
X35019819Y-43897142D01*
X35019819Y-43897142D02*
X35067438Y-43754285D01*
X35067438Y-43754285D02*
X35115057Y-43706666D01*
X35019819Y-43373332D02*
X35019819Y-42754285D01*
X35019819Y-42754285D02*
X35400771Y-43087618D01*
X35400771Y-43087618D02*
X35400771Y-42944761D01*
X35400771Y-42944761D02*
X35448390Y-42849523D01*
X35448390Y-42849523D02*
X35496009Y-42801904D01*
X35496009Y-42801904D02*
X35591247Y-42754285D01*
X35591247Y-42754285D02*
X35829342Y-42754285D01*
X35829342Y-42754285D02*
X35924580Y-42801904D01*
X35924580Y-42801904D02*
X35972200Y-42849523D01*
X35972200Y-42849523D02*
X36019819Y-42944761D01*
X36019819Y-42944761D02*
X36019819Y-43230475D01*
X36019819Y-43230475D02*
X35972200Y-43325713D01*
X35972200Y-43325713D02*
X35924580Y-43373332D01*
X24688895Y-32932019D02*
X24688895Y-33741542D01*
X24688895Y-33741542D02*
X24736514Y-33836780D01*
X24736514Y-33836780D02*
X24784133Y-33884400D01*
X24784133Y-33884400D02*
X24879371Y-33932019D01*
X24879371Y-33932019D02*
X25069847Y-33932019D01*
X25069847Y-33932019D02*
X25165085Y-33884400D01*
X25165085Y-33884400D02*
X25212704Y-33836780D01*
X25212704Y-33836780D02*
X25260323Y-33741542D01*
X25260323Y-33741542D02*
X25260323Y-32932019D01*
X25641276Y-32932019D02*
X26260323Y-32932019D01*
X26260323Y-32932019D02*
X25926990Y-33312971D01*
X25926990Y-33312971D02*
X26069847Y-33312971D01*
X26069847Y-33312971D02*
X26165085Y-33360590D01*
X26165085Y-33360590D02*
X26212704Y-33408209D01*
X26212704Y-33408209D02*
X26260323Y-33503447D01*
X26260323Y-33503447D02*
X26260323Y-33741542D01*
X26260323Y-33741542D02*
X26212704Y-33836780D01*
X26212704Y-33836780D02*
X26165085Y-33884400D01*
X26165085Y-33884400D02*
X26069847Y-33932019D01*
X26069847Y-33932019D02*
X25784133Y-33932019D01*
X25784133Y-33932019D02*
X25688895Y-33884400D01*
X25688895Y-33884400D02*
X25641276Y-33836780D01*
X59357142Y-24054819D02*
X59023809Y-23578628D01*
X58785714Y-24054819D02*
X58785714Y-23054819D01*
X58785714Y-23054819D02*
X59166666Y-23054819D01*
X59166666Y-23054819D02*
X59261904Y-23102438D01*
X59261904Y-23102438D02*
X59309523Y-23150057D01*
X59309523Y-23150057D02*
X59357142Y-23245295D01*
X59357142Y-23245295D02*
X59357142Y-23388152D01*
X59357142Y-23388152D02*
X59309523Y-23483390D01*
X59309523Y-23483390D02*
X59261904Y-23531009D01*
X59261904Y-23531009D02*
X59166666Y-23578628D01*
X59166666Y-23578628D02*
X58785714Y-23578628D01*
X59738095Y-23150057D02*
X59785714Y-23102438D01*
X59785714Y-23102438D02*
X59880952Y-23054819D01*
X59880952Y-23054819D02*
X60119047Y-23054819D01*
X60119047Y-23054819D02*
X60214285Y-23102438D01*
X60214285Y-23102438D02*
X60261904Y-23150057D01*
X60261904Y-23150057D02*
X60309523Y-23245295D01*
X60309523Y-23245295D02*
X60309523Y-23340533D01*
X60309523Y-23340533D02*
X60261904Y-23483390D01*
X60261904Y-23483390D02*
X59690476Y-24054819D01*
X59690476Y-24054819D02*
X60309523Y-24054819D01*
X60642857Y-23054819D02*
X61261904Y-23054819D01*
X61261904Y-23054819D02*
X60928571Y-23435771D01*
X60928571Y-23435771D02*
X61071428Y-23435771D01*
X61071428Y-23435771D02*
X61166666Y-23483390D01*
X61166666Y-23483390D02*
X61214285Y-23531009D01*
X61214285Y-23531009D02*
X61261904Y-23626247D01*
X61261904Y-23626247D02*
X61261904Y-23864342D01*
X61261904Y-23864342D02*
X61214285Y-23959580D01*
X61214285Y-23959580D02*
X61166666Y-24007200D01*
X61166666Y-24007200D02*
X61071428Y-24054819D01*
X61071428Y-24054819D02*
X60785714Y-24054819D01*
X60785714Y-24054819D02*
X60690476Y-24007200D01*
X60690476Y-24007200D02*
X60642857Y-23959580D01*
X52109580Y-43666666D02*
X52157200Y-43714285D01*
X52157200Y-43714285D02*
X52204819Y-43857142D01*
X52204819Y-43857142D02*
X52204819Y-43952380D01*
X52204819Y-43952380D02*
X52157200Y-44095237D01*
X52157200Y-44095237D02*
X52061961Y-44190475D01*
X52061961Y-44190475D02*
X51966723Y-44238094D01*
X51966723Y-44238094D02*
X51776247Y-44285713D01*
X51776247Y-44285713D02*
X51633390Y-44285713D01*
X51633390Y-44285713D02*
X51442914Y-44238094D01*
X51442914Y-44238094D02*
X51347676Y-44190475D01*
X51347676Y-44190475D02*
X51252438Y-44095237D01*
X51252438Y-44095237D02*
X51204819Y-43952380D01*
X51204819Y-43952380D02*
X51204819Y-43857142D01*
X51204819Y-43857142D02*
X51252438Y-43714285D01*
X51252438Y-43714285D02*
X51300057Y-43666666D01*
X51204819Y-42809523D02*
X51204819Y-42999999D01*
X51204819Y-42999999D02*
X51252438Y-43095237D01*
X51252438Y-43095237D02*
X51300057Y-43142856D01*
X51300057Y-43142856D02*
X51442914Y-43238094D01*
X51442914Y-43238094D02*
X51633390Y-43285713D01*
X51633390Y-43285713D02*
X52014342Y-43285713D01*
X52014342Y-43285713D02*
X52109580Y-43238094D01*
X52109580Y-43238094D02*
X52157200Y-43190475D01*
X52157200Y-43190475D02*
X52204819Y-43095237D01*
X52204819Y-43095237D02*
X52204819Y-42904761D01*
X52204819Y-42904761D02*
X52157200Y-42809523D01*
X52157200Y-42809523D02*
X52109580Y-42761904D01*
X52109580Y-42761904D02*
X52014342Y-42714285D01*
X52014342Y-42714285D02*
X51776247Y-42714285D01*
X51776247Y-42714285D02*
X51681009Y-42761904D01*
X51681009Y-42761904D02*
X51633390Y-42809523D01*
X51633390Y-42809523D02*
X51585771Y-42904761D01*
X51585771Y-42904761D02*
X51585771Y-43095237D01*
X51585771Y-43095237D02*
X51633390Y-43190475D01*
X51633390Y-43190475D02*
X51681009Y-43238094D01*
X51681009Y-43238094D02*
X51776247Y-43285713D01*
X40827319Y-41642857D02*
X40351128Y-41976190D01*
X40827319Y-42214285D02*
X39827319Y-42214285D01*
X39827319Y-42214285D02*
X39827319Y-41833333D01*
X39827319Y-41833333D02*
X39874938Y-41738095D01*
X39874938Y-41738095D02*
X39922557Y-41690476D01*
X39922557Y-41690476D02*
X40017795Y-41642857D01*
X40017795Y-41642857D02*
X40160652Y-41642857D01*
X40160652Y-41642857D02*
X40255890Y-41690476D01*
X40255890Y-41690476D02*
X40303509Y-41738095D01*
X40303509Y-41738095D02*
X40351128Y-41833333D01*
X40351128Y-41833333D02*
X40351128Y-42214285D01*
X40827319Y-40690476D02*
X40827319Y-41261904D01*
X40827319Y-40976190D02*
X39827319Y-40976190D01*
X39827319Y-40976190D02*
X39970176Y-41071428D01*
X39970176Y-41071428D02*
X40065414Y-41166666D01*
X40065414Y-41166666D02*
X40113033Y-41261904D01*
X40160652Y-39833333D02*
X40827319Y-39833333D01*
X39779700Y-40071428D02*
X40493985Y-40309523D01*
X40493985Y-40309523D02*
X40493985Y-39690476D01*
X73017142Y-24842319D02*
X72683809Y-24366128D01*
X72445714Y-24842319D02*
X72445714Y-23842319D01*
X72445714Y-23842319D02*
X72826666Y-23842319D01*
X72826666Y-23842319D02*
X72921904Y-23889938D01*
X72921904Y-23889938D02*
X72969523Y-23937557D01*
X72969523Y-23937557D02*
X73017142Y-24032795D01*
X73017142Y-24032795D02*
X73017142Y-24175652D01*
X73017142Y-24175652D02*
X72969523Y-24270890D01*
X72969523Y-24270890D02*
X72921904Y-24318509D01*
X72921904Y-24318509D02*
X72826666Y-24366128D01*
X72826666Y-24366128D02*
X72445714Y-24366128D01*
X73398095Y-23937557D02*
X73445714Y-23889938D01*
X73445714Y-23889938D02*
X73540952Y-23842319D01*
X73540952Y-23842319D02*
X73779047Y-23842319D01*
X73779047Y-23842319D02*
X73874285Y-23889938D01*
X73874285Y-23889938D02*
X73921904Y-23937557D01*
X73921904Y-23937557D02*
X73969523Y-24032795D01*
X73969523Y-24032795D02*
X73969523Y-24128033D01*
X73969523Y-24128033D02*
X73921904Y-24270890D01*
X73921904Y-24270890D02*
X73350476Y-24842319D01*
X73350476Y-24842319D02*
X73969523Y-24842319D01*
X74588571Y-23842319D02*
X74683809Y-23842319D01*
X74683809Y-23842319D02*
X74779047Y-23889938D01*
X74779047Y-23889938D02*
X74826666Y-23937557D01*
X74826666Y-23937557D02*
X74874285Y-24032795D01*
X74874285Y-24032795D02*
X74921904Y-24223271D01*
X74921904Y-24223271D02*
X74921904Y-24461366D01*
X74921904Y-24461366D02*
X74874285Y-24651842D01*
X74874285Y-24651842D02*
X74826666Y-24747080D01*
X74826666Y-24747080D02*
X74779047Y-24794700D01*
X74779047Y-24794700D02*
X74683809Y-24842319D01*
X74683809Y-24842319D02*
X74588571Y-24842319D01*
X74588571Y-24842319D02*
X74493333Y-24794700D01*
X74493333Y-24794700D02*
X74445714Y-24747080D01*
X74445714Y-24747080D02*
X74398095Y-24651842D01*
X74398095Y-24651842D02*
X74350476Y-24461366D01*
X74350476Y-24461366D02*
X74350476Y-24223271D01*
X74350476Y-24223271D02*
X74398095Y-24032795D01*
X74398095Y-24032795D02*
X74445714Y-23937557D01*
X74445714Y-23937557D02*
X74493333Y-23889938D01*
X74493333Y-23889938D02*
X74588571Y-23842319D01*
X67310095Y-28410819D02*
X67310095Y-29220342D01*
X67310095Y-29220342D02*
X67357714Y-29315580D01*
X67357714Y-29315580D02*
X67405333Y-29363200D01*
X67405333Y-29363200D02*
X67500571Y-29410819D01*
X67500571Y-29410819D02*
X67691047Y-29410819D01*
X67691047Y-29410819D02*
X67786285Y-29363200D01*
X67786285Y-29363200D02*
X67833904Y-29315580D01*
X67833904Y-29315580D02*
X67881523Y-29220342D01*
X67881523Y-29220342D02*
X67881523Y-28410819D01*
X68881523Y-29410819D02*
X68310095Y-29410819D01*
X68595809Y-29410819D02*
X68595809Y-28410819D01*
X68595809Y-28410819D02*
X68500571Y-28553676D01*
X68500571Y-28553676D02*
X68405333Y-28648914D01*
X68405333Y-28648914D02*
X68310095Y-28696533D01*
X70157142Y-24559580D02*
X70109523Y-24607200D01*
X70109523Y-24607200D02*
X69966666Y-24654819D01*
X69966666Y-24654819D02*
X69871428Y-24654819D01*
X69871428Y-24654819D02*
X69728571Y-24607200D01*
X69728571Y-24607200D02*
X69633333Y-24511961D01*
X69633333Y-24511961D02*
X69585714Y-24416723D01*
X69585714Y-24416723D02*
X69538095Y-24226247D01*
X69538095Y-24226247D02*
X69538095Y-24083390D01*
X69538095Y-24083390D02*
X69585714Y-23892914D01*
X69585714Y-23892914D02*
X69633333Y-23797676D01*
X69633333Y-23797676D02*
X69728571Y-23702438D01*
X69728571Y-23702438D02*
X69871428Y-23654819D01*
X69871428Y-23654819D02*
X69966666Y-23654819D01*
X69966666Y-23654819D02*
X70109523Y-23702438D01*
X70109523Y-23702438D02*
X70157142Y-23750057D01*
X71109523Y-24654819D02*
X70538095Y-24654819D01*
X70823809Y-24654819D02*
X70823809Y-23654819D01*
X70823809Y-23654819D02*
X70728571Y-23797676D01*
X70728571Y-23797676D02*
X70633333Y-23892914D01*
X70633333Y-23892914D02*
X70538095Y-23940533D01*
X71728571Y-23654819D02*
X71823809Y-23654819D01*
X71823809Y-23654819D02*
X71919047Y-23702438D01*
X71919047Y-23702438D02*
X71966666Y-23750057D01*
X71966666Y-23750057D02*
X72014285Y-23845295D01*
X72014285Y-23845295D02*
X72061904Y-24035771D01*
X72061904Y-24035771D02*
X72061904Y-24273866D01*
X72061904Y-24273866D02*
X72014285Y-24464342D01*
X72014285Y-24464342D02*
X71966666Y-24559580D01*
X71966666Y-24559580D02*
X71919047Y-24607200D01*
X71919047Y-24607200D02*
X71823809Y-24654819D01*
X71823809Y-24654819D02*
X71728571Y-24654819D01*
X71728571Y-24654819D02*
X71633333Y-24607200D01*
X71633333Y-24607200D02*
X71585714Y-24559580D01*
X71585714Y-24559580D02*
X71538095Y-24464342D01*
X71538095Y-24464342D02*
X71490476Y-24273866D01*
X71490476Y-24273866D02*
X71490476Y-24035771D01*
X71490476Y-24035771D02*
X71538095Y-23845295D01*
X71538095Y-23845295D02*
X71585714Y-23750057D01*
X71585714Y-23750057D02*
X71633333Y-23702438D01*
X71633333Y-23702438D02*
X71728571Y-23654819D01*
X63157142Y-20654819D02*
X62823809Y-20178628D01*
X62585714Y-20654819D02*
X62585714Y-19654819D01*
X62585714Y-19654819D02*
X62966666Y-19654819D01*
X62966666Y-19654819D02*
X63061904Y-19702438D01*
X63061904Y-19702438D02*
X63109523Y-19750057D01*
X63109523Y-19750057D02*
X63157142Y-19845295D01*
X63157142Y-19845295D02*
X63157142Y-19988152D01*
X63157142Y-19988152D02*
X63109523Y-20083390D01*
X63109523Y-20083390D02*
X63061904Y-20131009D01*
X63061904Y-20131009D02*
X62966666Y-20178628D01*
X62966666Y-20178628D02*
X62585714Y-20178628D01*
X64109523Y-20654819D02*
X63538095Y-20654819D01*
X63823809Y-20654819D02*
X63823809Y-19654819D01*
X63823809Y-19654819D02*
X63728571Y-19797676D01*
X63728571Y-19797676D02*
X63633333Y-19892914D01*
X63633333Y-19892914D02*
X63538095Y-19940533D01*
X64585714Y-20654819D02*
X64776190Y-20654819D01*
X64776190Y-20654819D02*
X64871428Y-20607200D01*
X64871428Y-20607200D02*
X64919047Y-20559580D01*
X64919047Y-20559580D02*
X65014285Y-20416723D01*
X65014285Y-20416723D02*
X65061904Y-20226247D01*
X65061904Y-20226247D02*
X65061904Y-19845295D01*
X65061904Y-19845295D02*
X65014285Y-19750057D01*
X65014285Y-19750057D02*
X64966666Y-19702438D01*
X64966666Y-19702438D02*
X64871428Y-19654819D01*
X64871428Y-19654819D02*
X64680952Y-19654819D01*
X64680952Y-19654819D02*
X64585714Y-19702438D01*
X64585714Y-19702438D02*
X64538095Y-19750057D01*
X64538095Y-19750057D02*
X64490476Y-19845295D01*
X64490476Y-19845295D02*
X64490476Y-20083390D01*
X64490476Y-20083390D02*
X64538095Y-20178628D01*
X64538095Y-20178628D02*
X64585714Y-20226247D01*
X64585714Y-20226247D02*
X64680952Y-20273866D01*
X64680952Y-20273866D02*
X64871428Y-20273866D01*
X64871428Y-20273866D02*
X64966666Y-20226247D01*
X64966666Y-20226247D02*
X65014285Y-20178628D01*
X65014285Y-20178628D02*
X65061904Y-20083390D01*
X25219819Y-41642857D02*
X24743628Y-41976190D01*
X25219819Y-42214285D02*
X24219819Y-42214285D01*
X24219819Y-42214285D02*
X24219819Y-41833333D01*
X24219819Y-41833333D02*
X24267438Y-41738095D01*
X24267438Y-41738095D02*
X24315057Y-41690476D01*
X24315057Y-41690476D02*
X24410295Y-41642857D01*
X24410295Y-41642857D02*
X24553152Y-41642857D01*
X24553152Y-41642857D02*
X24648390Y-41690476D01*
X24648390Y-41690476D02*
X24696009Y-41738095D01*
X24696009Y-41738095D02*
X24743628Y-41833333D01*
X24743628Y-41833333D02*
X24743628Y-42214285D01*
X25219819Y-40690476D02*
X25219819Y-41261904D01*
X25219819Y-40976190D02*
X24219819Y-40976190D01*
X24219819Y-40976190D02*
X24362676Y-41071428D01*
X24362676Y-41071428D02*
X24457914Y-41166666D01*
X24457914Y-41166666D02*
X24505533Y-41261904D01*
X24315057Y-40309523D02*
X24267438Y-40261904D01*
X24267438Y-40261904D02*
X24219819Y-40166666D01*
X24219819Y-40166666D02*
X24219819Y-39928571D01*
X24219819Y-39928571D02*
X24267438Y-39833333D01*
X24267438Y-39833333D02*
X24315057Y-39785714D01*
X24315057Y-39785714D02*
X24410295Y-39738095D01*
X24410295Y-39738095D02*
X24505533Y-39738095D01*
X24505533Y-39738095D02*
X24648390Y-39785714D01*
X24648390Y-39785714D02*
X25219819Y-40357142D01*
X25219819Y-40357142D02*
X25219819Y-39738095D01*
X25124580Y-43706666D02*
X25172200Y-43754285D01*
X25172200Y-43754285D02*
X25219819Y-43897142D01*
X25219819Y-43897142D02*
X25219819Y-43992380D01*
X25219819Y-43992380D02*
X25172200Y-44135237D01*
X25172200Y-44135237D02*
X25076961Y-44230475D01*
X25076961Y-44230475D02*
X24981723Y-44278094D01*
X24981723Y-44278094D02*
X24791247Y-44325713D01*
X24791247Y-44325713D02*
X24648390Y-44325713D01*
X24648390Y-44325713D02*
X24457914Y-44278094D01*
X24457914Y-44278094D02*
X24362676Y-44230475D01*
X24362676Y-44230475D02*
X24267438Y-44135237D01*
X24267438Y-44135237D02*
X24219819Y-43992380D01*
X24219819Y-43992380D02*
X24219819Y-43897142D01*
X24219819Y-43897142D02*
X24267438Y-43754285D01*
X24267438Y-43754285D02*
X24315057Y-43706666D01*
X24219819Y-42801904D02*
X24219819Y-43278094D01*
X24219819Y-43278094D02*
X24696009Y-43325713D01*
X24696009Y-43325713D02*
X24648390Y-43278094D01*
X24648390Y-43278094D02*
X24600771Y-43182856D01*
X24600771Y-43182856D02*
X24600771Y-42944761D01*
X24600771Y-42944761D02*
X24648390Y-42849523D01*
X24648390Y-42849523D02*
X24696009Y-42801904D01*
X24696009Y-42801904D02*
X24791247Y-42754285D01*
X24791247Y-42754285D02*
X25029342Y-42754285D01*
X25029342Y-42754285D02*
X25124580Y-42801904D01*
X25124580Y-42801904D02*
X25172200Y-42849523D01*
X25172200Y-42849523D02*
X25219819Y-42944761D01*
X25219819Y-42944761D02*
X25219819Y-43182856D01*
X25219819Y-43182856D02*
X25172200Y-43278094D01*
X25172200Y-43278094D02*
X25124580Y-43325713D01*
X36019819Y-41642857D02*
X35543628Y-41976190D01*
X36019819Y-42214285D02*
X35019819Y-42214285D01*
X35019819Y-42214285D02*
X35019819Y-41833333D01*
X35019819Y-41833333D02*
X35067438Y-41738095D01*
X35067438Y-41738095D02*
X35115057Y-41690476D01*
X35115057Y-41690476D02*
X35210295Y-41642857D01*
X35210295Y-41642857D02*
X35353152Y-41642857D01*
X35353152Y-41642857D02*
X35448390Y-41690476D01*
X35448390Y-41690476D02*
X35496009Y-41738095D01*
X35496009Y-41738095D02*
X35543628Y-41833333D01*
X35543628Y-41833333D02*
X35543628Y-42214285D01*
X36019819Y-40690476D02*
X36019819Y-41261904D01*
X36019819Y-40976190D02*
X35019819Y-40976190D01*
X35019819Y-40976190D02*
X35162676Y-41071428D01*
X35162676Y-41071428D02*
X35257914Y-41166666D01*
X35257914Y-41166666D02*
X35305533Y-41261904D01*
X35019819Y-40071428D02*
X35019819Y-39976190D01*
X35019819Y-39976190D02*
X35067438Y-39880952D01*
X35067438Y-39880952D02*
X35115057Y-39833333D01*
X35115057Y-39833333D02*
X35210295Y-39785714D01*
X35210295Y-39785714D02*
X35400771Y-39738095D01*
X35400771Y-39738095D02*
X35638866Y-39738095D01*
X35638866Y-39738095D02*
X35829342Y-39785714D01*
X35829342Y-39785714D02*
X35924580Y-39833333D01*
X35924580Y-39833333D02*
X35972200Y-39880952D01*
X35972200Y-39880952D02*
X36019819Y-39976190D01*
X36019819Y-39976190D02*
X36019819Y-40071428D01*
X36019819Y-40071428D02*
X35972200Y-40166666D01*
X35972200Y-40166666D02*
X35924580Y-40214285D01*
X35924580Y-40214285D02*
X35829342Y-40261904D01*
X35829342Y-40261904D02*
X35638866Y-40309523D01*
X35638866Y-40309523D02*
X35400771Y-40309523D01*
X35400771Y-40309523D02*
X35210295Y-40261904D01*
X35210295Y-40261904D02*
X35115057Y-40214285D01*
X35115057Y-40214285D02*
X35067438Y-40166666D01*
X35067438Y-40166666D02*
X35019819Y-40071428D01*
%TO.C,C13*%
D14*
X64315000Y-26927500D02*
G75*
G02*
X59075000Y-26927500I-2620000J0D01*
G01*
X59075000Y-26927500D02*
G75*
G02*
X64315000Y-26927500I2620000J0D01*
G01*
X64499775Y-28402500D02*
X63999775Y-28402500D01*
X64249775Y-28652500D02*
X64249775Y-28152500D01*
X61695000Y-29507500D02*
X61695000Y-24347500D01*
X61655000Y-29507500D02*
X61655000Y-24347500D01*
X61615000Y-29506500D02*
X61615000Y-24348500D01*
X61575000Y-29504500D02*
X61575000Y-24350500D01*
X61535000Y-29502500D02*
X61535000Y-24352500D01*
X61495000Y-29499500D02*
X61495000Y-24355500D01*
X61455000Y-29496500D02*
X61455000Y-27967500D01*
X61455000Y-25887500D02*
X61455000Y-24358500D01*
X61415000Y-29492500D02*
X61415000Y-27967500D01*
X61415000Y-25887500D02*
X61415000Y-24362500D01*
X61375000Y-29487500D02*
X61375000Y-27967500D01*
X61375000Y-25887500D02*
X61375000Y-24367500D01*
X61335000Y-29482500D02*
X61335000Y-27967500D01*
X61335000Y-25887500D02*
X61335000Y-24372500D01*
X61295000Y-29476500D02*
X61295000Y-27967500D01*
X61295000Y-25887500D02*
X61295000Y-24378500D01*
X61255000Y-29470500D02*
X61255000Y-27967500D01*
X61255000Y-25887500D02*
X61255000Y-24384500D01*
X61215000Y-29463500D02*
X61215000Y-27967500D01*
X61215000Y-25887500D02*
X61215000Y-24391500D01*
X61175000Y-29455500D02*
X61175000Y-27967500D01*
X61175000Y-25887500D02*
X61175000Y-24399500D01*
X61135000Y-29446500D02*
X61135000Y-27967500D01*
X61135000Y-25887500D02*
X61135000Y-24408500D01*
X61095000Y-29437500D02*
X61095000Y-27967500D01*
X61095000Y-25887500D02*
X61095000Y-24417500D01*
X61055000Y-29428500D02*
X61055000Y-27967500D01*
X61055000Y-25887500D02*
X61055000Y-24426500D01*
X61015000Y-29417500D02*
X61015000Y-27967500D01*
X61015000Y-25887500D02*
X61015000Y-24437500D01*
X60975000Y-29406500D02*
X60975000Y-27967500D01*
X60975000Y-25887500D02*
X60975000Y-24448500D01*
X60935000Y-29394500D02*
X60935000Y-27967500D01*
X60935000Y-25887500D02*
X60935000Y-24460500D01*
X60895000Y-29382500D02*
X60895000Y-27967500D01*
X60895000Y-25887500D02*
X60895000Y-24472500D01*
X60855000Y-29369500D02*
X60855000Y-27967500D01*
X60855000Y-25887500D02*
X60855000Y-24485500D01*
X60815000Y-29355500D02*
X60815000Y-27967500D01*
X60815000Y-25887500D02*
X60815000Y-24499500D01*
X60775000Y-29340500D02*
X60775000Y-27967500D01*
X60775000Y-25887500D02*
X60775000Y-24514500D01*
X60735000Y-29325500D02*
X60735000Y-27967500D01*
X60735000Y-25887500D02*
X60735000Y-24529500D01*
X60695000Y-29309500D02*
X60695000Y-27967500D01*
X60695000Y-25887500D02*
X60695000Y-24545500D01*
X60655000Y-29292500D02*
X60655000Y-27967500D01*
X60655000Y-25887500D02*
X60655000Y-24562500D01*
X60615000Y-29274500D02*
X60615000Y-27967500D01*
X60615000Y-25887500D02*
X60615000Y-24580500D01*
X60575000Y-29256500D02*
X60575000Y-27967500D01*
X60575000Y-25887500D02*
X60575000Y-24598500D01*
X60535000Y-29236500D02*
X60535000Y-27967500D01*
X60535000Y-25887500D02*
X60535000Y-24618500D01*
X60495000Y-29216500D02*
X60495000Y-27967500D01*
X60495000Y-25887500D02*
X60495000Y-24638500D01*
X60455000Y-29195500D02*
X60455000Y-27967500D01*
X60455000Y-25887500D02*
X60455000Y-24659500D01*
X60415000Y-29173500D02*
X60415000Y-27967500D01*
X60415000Y-25887500D02*
X60415000Y-24681500D01*
X60375000Y-29150500D02*
X60375000Y-27967500D01*
X60375000Y-25887500D02*
X60375000Y-24704500D01*
X60335000Y-29126500D02*
X60335000Y-27967500D01*
X60335000Y-25887500D02*
X60335000Y-24728500D01*
X60295000Y-29102500D02*
X60295000Y-27967500D01*
X60295000Y-25887500D02*
X60295000Y-24752500D01*
X60255000Y-29076500D02*
X60255000Y-27967500D01*
X60255000Y-25887500D02*
X60255000Y-24778500D01*
X60215000Y-29049500D02*
X60215000Y-27967500D01*
X60215000Y-25887500D02*
X60215000Y-24805500D01*
X60175000Y-29021500D02*
X60175000Y-27967500D01*
X60175000Y-25887500D02*
X60175000Y-24833500D01*
X60135000Y-28992500D02*
X60135000Y-27967500D01*
X60135000Y-25887500D02*
X60135000Y-24862500D01*
X60095000Y-28962500D02*
X60095000Y-27967500D01*
X60095000Y-25887500D02*
X60095000Y-24892500D01*
X60055000Y-28930500D02*
X60055000Y-27967500D01*
X60055000Y-25887500D02*
X60055000Y-24924500D01*
X60015000Y-28897500D02*
X60015000Y-27967500D01*
X60015000Y-25887500D02*
X60015000Y-24957500D01*
X59975000Y-28863500D02*
X59975000Y-27967500D01*
X59975000Y-25887500D02*
X59975000Y-24991500D01*
X59935000Y-28828500D02*
X59935000Y-27967500D01*
X59935000Y-25887500D02*
X59935000Y-25026500D01*
X59895000Y-28791500D02*
X59895000Y-27967500D01*
X59895000Y-25887500D02*
X59895000Y-25063500D01*
X59855000Y-28752500D02*
X59855000Y-27967500D01*
X59855000Y-25887500D02*
X59855000Y-25102500D01*
X59815000Y-28712500D02*
X59815000Y-27967500D01*
X59815000Y-25887500D02*
X59815000Y-25142500D01*
X59775000Y-28670500D02*
X59775000Y-27967500D01*
X59775000Y-25887500D02*
X59775000Y-25184500D01*
X59735000Y-28626500D02*
X59735000Y-27967500D01*
X59735000Y-25887500D02*
X59735000Y-25228500D01*
X59695000Y-28579500D02*
X59695000Y-27967500D01*
X59695000Y-25887500D02*
X59695000Y-25275500D01*
X59655000Y-28531500D02*
X59655000Y-27967500D01*
X59655000Y-25887500D02*
X59655000Y-25323500D01*
X59615000Y-28480500D02*
X59615000Y-27967500D01*
X59615000Y-25887500D02*
X59615000Y-25374500D01*
X59575000Y-28426500D02*
X59575000Y-27967500D01*
X59575000Y-25887500D02*
X59575000Y-25428500D01*
X59535000Y-28370500D02*
X59535000Y-27967500D01*
X59535000Y-25887500D02*
X59535000Y-25484500D01*
X59495000Y-28310500D02*
X59495000Y-27967500D01*
X59495000Y-25887500D02*
X59495000Y-25544500D01*
X59455000Y-28246500D02*
X59455000Y-27967500D01*
X59455000Y-25887500D02*
X59455000Y-25608500D01*
X59415000Y-28178500D02*
X59415000Y-27967500D01*
X59415000Y-25887500D02*
X59415000Y-25676500D01*
X59375000Y-28104500D02*
X59375000Y-25750500D01*
X59335000Y-28025500D02*
X59335000Y-25829500D01*
X59295000Y-27938500D02*
X59295000Y-25916500D01*
X59255000Y-27841500D02*
X59255000Y-26013500D01*
X59215000Y-27732500D02*
X59215000Y-26122500D01*
X59175000Y-27604500D02*
X59175000Y-26250500D01*
X59135000Y-27444500D02*
X59135000Y-26410500D01*
X59095000Y-27210500D02*
X59095000Y-26644500D01*
%TO.C,U2*%
X42555000Y-27215000D02*
X42620000Y-27215000D01*
X42555000Y-31335000D02*
X42555000Y-27215000D01*
X42620000Y-31335000D02*
X42555000Y-31335000D01*
X51360000Y-27215000D02*
X51425000Y-27215000D01*
X51425000Y-27215000D02*
X51425000Y-31335000D01*
X51425000Y-31335000D02*
X51360000Y-31335000D01*
X42620000Y-31875000D02*
X42290000Y-32115000D01*
X42290000Y-31635000D01*
X42620000Y-31875000D01*
G36*
X42620000Y-31875000D02*
G01*
X42290000Y-32115000D01*
X42290000Y-31635000D01*
X42620000Y-31875000D01*
G37*
%TO.C,R18*%
X64084564Y-37622500D02*
X63630436Y-37622500D01*
X64084564Y-39092500D02*
X63630436Y-39092500D01*
%TO.C,R9*%
X58935436Y-40225000D02*
X59389564Y-40225000D01*
X58935436Y-41695000D02*
X59389564Y-41695000D01*
%TO.C,C7*%
X43211252Y-42805000D02*
X42688748Y-42805000D01*
X43211252Y-44275000D02*
X42688748Y-44275000D01*
%TO.C,C11*%
X69755113Y-37083000D02*
X69755113Y-36517000D01*
X69795113Y-37317000D02*
X69795113Y-36283000D01*
X69835113Y-37477000D02*
X69835113Y-36123000D01*
X69875113Y-37605000D02*
X69875113Y-35995000D01*
X69915113Y-37714000D02*
X69915113Y-35886000D01*
X69955113Y-37811000D02*
X69955113Y-35789000D01*
X69995113Y-37898000D02*
X69995113Y-35702000D01*
X70035113Y-37977000D02*
X70035113Y-35623000D01*
X70075113Y-35760000D02*
X70075113Y-35549000D01*
X70075113Y-38051000D02*
X70075113Y-37840000D01*
X70115113Y-35760000D02*
X70115113Y-35481000D01*
X70115113Y-38119000D02*
X70115113Y-37840000D01*
X70155113Y-35760000D02*
X70155113Y-35417000D01*
X70155113Y-38183000D02*
X70155113Y-37840000D01*
X70195113Y-35760000D02*
X70195113Y-35357000D01*
X70195113Y-38243000D02*
X70195113Y-37840000D01*
X70235113Y-35760000D02*
X70235113Y-35301000D01*
X70235113Y-38299000D02*
X70235113Y-37840000D01*
X70275113Y-35760000D02*
X70275113Y-35247000D01*
X70275113Y-38353000D02*
X70275113Y-37840000D01*
X70315113Y-35760000D02*
X70315113Y-35196000D01*
X70315113Y-38404000D02*
X70315113Y-37840000D01*
X70355113Y-35760000D02*
X70355113Y-35148000D01*
X70355113Y-38452000D02*
X70355113Y-37840000D01*
X70395113Y-35760000D02*
X70395113Y-35101000D01*
X70395113Y-38499000D02*
X70395113Y-37840000D01*
X70435113Y-35760000D02*
X70435113Y-35057000D01*
X70435113Y-38543000D02*
X70435113Y-37840000D01*
X70475113Y-35760000D02*
X70475113Y-35015000D01*
X70475113Y-38585000D02*
X70475113Y-37840000D01*
X70515113Y-35760000D02*
X70515113Y-34975000D01*
X70515113Y-38625000D02*
X70515113Y-37840000D01*
X70555113Y-35760000D02*
X70555113Y-34936000D01*
X70555113Y-38664000D02*
X70555113Y-37840000D01*
X70595113Y-35760000D02*
X70595113Y-34899000D01*
X70595113Y-38701000D02*
X70595113Y-37840000D01*
X70635113Y-35760000D02*
X70635113Y-34864000D01*
X70635113Y-38736000D02*
X70635113Y-37840000D01*
X70675113Y-35760000D02*
X70675113Y-34830000D01*
X70675113Y-38770000D02*
X70675113Y-37840000D01*
X70715113Y-35760000D02*
X70715113Y-34797000D01*
X70715113Y-38803000D02*
X70715113Y-37840000D01*
X70755113Y-35760000D02*
X70755113Y-34765000D01*
X70755113Y-38835000D02*
X70755113Y-37840000D01*
X70795113Y-35760000D02*
X70795113Y-34735000D01*
X70795113Y-38865000D02*
X70795113Y-37840000D01*
X70835113Y-35760000D02*
X70835113Y-34706000D01*
X70835113Y-38894000D02*
X70835113Y-37840000D01*
X70875113Y-35760000D02*
X70875113Y-34678000D01*
X70875113Y-38922000D02*
X70875113Y-37840000D01*
X70915113Y-35760000D02*
X70915113Y-34651000D01*
X70915113Y-38949000D02*
X70915113Y-37840000D01*
X70955113Y-35760000D02*
X70955113Y-34625000D01*
X70955113Y-38975000D02*
X70955113Y-37840000D01*
X70995113Y-35760000D02*
X70995113Y-34601000D01*
X70995113Y-38999000D02*
X70995113Y-37840000D01*
X71035113Y-35760000D02*
X71035113Y-34577000D01*
X71035113Y-39023000D02*
X71035113Y-37840000D01*
X71075113Y-35760000D02*
X71075113Y-34554000D01*
X71075113Y-39046000D02*
X71075113Y-37840000D01*
X71115113Y-35760000D02*
X71115113Y-34532000D01*
X71115113Y-39068000D02*
X71115113Y-37840000D01*
X71155113Y-35760000D02*
X71155113Y-34511000D01*
X71155113Y-39089000D02*
X71155113Y-37840000D01*
X71195113Y-35760000D02*
X71195113Y-34491000D01*
X71195113Y-39109000D02*
X71195113Y-37840000D01*
X71235113Y-35760000D02*
X71235113Y-34471000D01*
X71235113Y-39129000D02*
X71235113Y-37840000D01*
X71275113Y-35760000D02*
X71275113Y-34453000D01*
X71275113Y-39147000D02*
X71275113Y-37840000D01*
X71315113Y-35760000D02*
X71315113Y-34435000D01*
X71315113Y-39165000D02*
X71315113Y-37840000D01*
X71355113Y-35760000D02*
X71355113Y-34418000D01*
X71355113Y-39182000D02*
X71355113Y-37840000D01*
X71395113Y-35760000D02*
X71395113Y-34402000D01*
X71395113Y-39198000D02*
X71395113Y-37840000D01*
X71435113Y-35760000D02*
X71435113Y-34387000D01*
X71435113Y-39213000D02*
X71435113Y-37840000D01*
X71475113Y-35760000D02*
X71475113Y-34372000D01*
X71475113Y-39228000D02*
X71475113Y-37840000D01*
X71515113Y-35760000D02*
X71515113Y-34358000D01*
X71515113Y-39242000D02*
X71515113Y-37840000D01*
X71555113Y-35760000D02*
X71555113Y-34345000D01*
X71555113Y-39255000D02*
X71555113Y-37840000D01*
X71595113Y-35760000D02*
X71595113Y-34333000D01*
X71595113Y-39267000D02*
X71595113Y-37840000D01*
X71635113Y-35760000D02*
X71635113Y-34321000D01*
X71635113Y-39279000D02*
X71635113Y-37840000D01*
X71675113Y-35760000D02*
X71675113Y-34310000D01*
X71675113Y-39290000D02*
X71675113Y-37840000D01*
X71715113Y-35760000D02*
X71715113Y-34299000D01*
X71715113Y-39301000D02*
X71715113Y-37840000D01*
X71755113Y-35760000D02*
X71755113Y-34290000D01*
X71755113Y-39310000D02*
X71755113Y-37840000D01*
X71795113Y-35760000D02*
X71795113Y-34281000D01*
X71795113Y-39319000D02*
X71795113Y-37840000D01*
X71835113Y-35760000D02*
X71835113Y-34272000D01*
X71835113Y-39328000D02*
X71835113Y-37840000D01*
X71875113Y-35760000D02*
X71875113Y-34264000D01*
X71875113Y-39336000D02*
X71875113Y-37840000D01*
X71915113Y-35760000D02*
X71915113Y-34257000D01*
X71915113Y-39343000D02*
X71915113Y-37840000D01*
X71955113Y-35760000D02*
X71955113Y-34251000D01*
X71955113Y-39349000D02*
X71955113Y-37840000D01*
X71995113Y-35760000D02*
X71995113Y-34245000D01*
X71995113Y-39355000D02*
X71995113Y-37840000D01*
X72035113Y-35760000D02*
X72035113Y-34240000D01*
X72035113Y-39360000D02*
X72035113Y-37840000D01*
X72075113Y-35760000D02*
X72075113Y-34235000D01*
X72075113Y-39365000D02*
X72075113Y-37840000D01*
X72115113Y-35760000D02*
X72115113Y-34231000D01*
X72115113Y-39369000D02*
X72115113Y-37840000D01*
X72155113Y-39372000D02*
X72155113Y-34228000D01*
X72195113Y-39375000D02*
X72195113Y-34225000D01*
X72235113Y-39377000D02*
X72235113Y-34223000D01*
X72275113Y-39379000D02*
X72275113Y-34221000D01*
X72315113Y-39380000D02*
X72315113Y-34220000D01*
X72355113Y-39380000D02*
X72355113Y-34220000D01*
X74909888Y-38525000D02*
X74909888Y-38025000D01*
X75159888Y-38275000D02*
X74659888Y-38275000D01*
X74975113Y-36800000D02*
G75*
G02*
X69735113Y-36800000I-2620000J0D01*
G01*
X69735113Y-36800000D02*
G75*
G02*
X74975113Y-36800000I2620000J0D01*
G01*
%TO.C,C9*%
X67966252Y-35082500D02*
X67443748Y-35082500D01*
X67966252Y-36552500D02*
X67443748Y-36552500D01*
%TO.C,R16*%
X67894564Y-37622500D02*
X67440436Y-37622500D01*
X67894564Y-39092500D02*
X67440436Y-39092500D01*
%TO.C,R21*%
X72370000Y-32334564D02*
X72370000Y-31880436D01*
X73840000Y-32334564D02*
X73840000Y-31880436D01*
%TO.C,C2*%
X59386252Y-42765000D02*
X58863748Y-42765000D01*
X59386252Y-44235000D02*
X58863748Y-44235000D01*
%TO.C,C4*%
X64636252Y-42805000D02*
X64113748Y-42805000D01*
X64636252Y-44275000D02*
X64113748Y-44275000D01*
%TO.C,JOPN1*%
X24070000Y-24020000D02*
X24070000Y-29480000D01*
X24070000Y-31480000D02*
X24070000Y-36940000D01*
X24070000Y-36940000D02*
X54670000Y-36940000D01*
X54670000Y-24020000D02*
X24070000Y-24020000D01*
X54670000Y-36940000D02*
X54670000Y-24020000D01*
X24070000Y-29480000D02*
G75*
G02*
X24070000Y-31480000I0J-1000000D01*
G01*
%TO.C,C8*%
X48636252Y-42805000D02*
X48113748Y-42805000D01*
X48636252Y-44275000D02*
X48113748Y-44275000D01*
%TO.C,R13*%
X53935436Y-40265000D02*
X54389564Y-40265000D01*
X53935436Y-41735000D02*
X54389564Y-41735000D01*
%TO.C,R8*%
X32515436Y-40265000D02*
X32969564Y-40265000D01*
X32515436Y-41735000D02*
X32969564Y-41735000D01*
%TO.C,R11*%
X64185436Y-40265000D02*
X64639564Y-40265000D01*
X64185436Y-41735000D02*
X64639564Y-41735000D01*
%TO.C,C1*%
X32966252Y-42805000D02*
X32443748Y-42805000D01*
X32966252Y-44275000D02*
X32443748Y-44275000D01*
%TO.C,R17*%
X67894564Y-21112500D02*
X67440436Y-21112500D01*
X67894564Y-22582500D02*
X67440436Y-22582500D01*
%TO.C,R22*%
X56465000Y-21427064D02*
X56465000Y-20972936D01*
X57935000Y-21427064D02*
X57935000Y-20972936D01*
%TO.C,R15*%
X48185436Y-40265000D02*
X48639564Y-40265000D01*
X48185436Y-41735000D02*
X48639564Y-41735000D01*
%TO.C,C12*%
X59095000Y-33560500D02*
X59095000Y-32994500D01*
X59135000Y-33794500D02*
X59135000Y-32760500D01*
X59175000Y-33954500D02*
X59175000Y-32600500D01*
X59215000Y-34082500D02*
X59215000Y-32472500D01*
X59255000Y-34191500D02*
X59255000Y-32363500D01*
X59295000Y-34288500D02*
X59295000Y-32266500D01*
X59335000Y-34375500D02*
X59335000Y-32179500D01*
X59375000Y-34454500D02*
X59375000Y-32100500D01*
X59415000Y-32237500D02*
X59415000Y-32026500D01*
X59415000Y-34528500D02*
X59415000Y-34317500D01*
X59455000Y-32237500D02*
X59455000Y-31958500D01*
X59455000Y-34596500D02*
X59455000Y-34317500D01*
X59495000Y-32237500D02*
X59495000Y-31894500D01*
X59495000Y-34660500D02*
X59495000Y-34317500D01*
X59535000Y-32237500D02*
X59535000Y-31834500D01*
X59535000Y-34720500D02*
X59535000Y-34317500D01*
X59575000Y-32237500D02*
X59575000Y-31778500D01*
X59575000Y-34776500D02*
X59575000Y-34317500D01*
X59615000Y-32237500D02*
X59615000Y-31724500D01*
X59615000Y-34830500D02*
X59615000Y-34317500D01*
X59655000Y-32237500D02*
X59655000Y-31673500D01*
X59655000Y-34881500D02*
X59655000Y-34317500D01*
X59695000Y-32237500D02*
X59695000Y-31625500D01*
X59695000Y-34929500D02*
X59695000Y-34317500D01*
X59735000Y-32237500D02*
X59735000Y-31578500D01*
X59735000Y-34976500D02*
X59735000Y-34317500D01*
X59775000Y-32237500D02*
X59775000Y-31534500D01*
X59775000Y-35020500D02*
X59775000Y-34317500D01*
X59815000Y-32237500D02*
X59815000Y-31492500D01*
X59815000Y-35062500D02*
X59815000Y-34317500D01*
X59855000Y-32237500D02*
X59855000Y-31452500D01*
X59855000Y-35102500D02*
X59855000Y-34317500D01*
X59895000Y-32237500D02*
X59895000Y-31413500D01*
X59895000Y-35141500D02*
X59895000Y-34317500D01*
X59935000Y-32237500D02*
X59935000Y-31376500D01*
X59935000Y-35178500D02*
X59935000Y-34317500D01*
X59975000Y-32237500D02*
X59975000Y-31341500D01*
X59975000Y-35213500D02*
X59975000Y-34317500D01*
X60015000Y-32237500D02*
X60015000Y-31307500D01*
X60015000Y-35247500D02*
X60015000Y-34317500D01*
X60055000Y-32237500D02*
X60055000Y-31274500D01*
X60055000Y-35280500D02*
X60055000Y-34317500D01*
X60095000Y-32237500D02*
X60095000Y-31242500D01*
X60095000Y-35312500D02*
X60095000Y-34317500D01*
X60135000Y-32237500D02*
X60135000Y-31212500D01*
X60135000Y-35342500D02*
X60135000Y-34317500D01*
X60175000Y-32237500D02*
X60175000Y-31183500D01*
X60175000Y-35371500D02*
X60175000Y-34317500D01*
X60215000Y-32237500D02*
X60215000Y-31155500D01*
X60215000Y-35399500D02*
X60215000Y-34317500D01*
X60255000Y-32237500D02*
X60255000Y-31128500D01*
X60255000Y-35426500D02*
X60255000Y-34317500D01*
X60295000Y-32237500D02*
X60295000Y-31102500D01*
X60295000Y-35452500D02*
X60295000Y-34317500D01*
X60335000Y-32237500D02*
X60335000Y-31078500D01*
X60335000Y-35476500D02*
X60335000Y-34317500D01*
X60375000Y-32237500D02*
X60375000Y-31054500D01*
X60375000Y-35500500D02*
X60375000Y-34317500D01*
X60415000Y-32237500D02*
X60415000Y-31031500D01*
X60415000Y-35523500D02*
X60415000Y-34317500D01*
X60455000Y-32237500D02*
X60455000Y-31009500D01*
X60455000Y-35545500D02*
X60455000Y-34317500D01*
X60495000Y-32237500D02*
X60495000Y-30988500D01*
X60495000Y-35566500D02*
X60495000Y-34317500D01*
X60535000Y-32237500D02*
X60535000Y-30968500D01*
X60535000Y-35586500D02*
X60535000Y-34317500D01*
X60575000Y-32237500D02*
X60575000Y-30948500D01*
X60575000Y-35606500D02*
X60575000Y-34317500D01*
X60615000Y-32237500D02*
X60615000Y-30930500D01*
X60615000Y-35624500D02*
X60615000Y-34317500D01*
X60655000Y-32237500D02*
X60655000Y-30912500D01*
X60655000Y-35642500D02*
X60655000Y-34317500D01*
X60695000Y-32237500D02*
X60695000Y-30895500D01*
X60695000Y-35659500D02*
X60695000Y-34317500D01*
X60735000Y-32237500D02*
X60735000Y-30879500D01*
X60735000Y-35675500D02*
X60735000Y-34317500D01*
X60775000Y-32237500D02*
X60775000Y-30864500D01*
X60775000Y-35690500D02*
X60775000Y-34317500D01*
X60815000Y-32237500D02*
X60815000Y-30849500D01*
X60815000Y-35705500D02*
X60815000Y-34317500D01*
X60855000Y-32237500D02*
X60855000Y-30835500D01*
X60855000Y-35719500D02*
X60855000Y-34317500D01*
X60895000Y-32237500D02*
X60895000Y-30822500D01*
X60895000Y-35732500D02*
X60895000Y-34317500D01*
X60935000Y-32237500D02*
X60935000Y-30810500D01*
X60935000Y-35744500D02*
X60935000Y-34317500D01*
X60975000Y-32237500D02*
X60975000Y-30798500D01*
X60975000Y-35756500D02*
X60975000Y-34317500D01*
X61015000Y-32237500D02*
X61015000Y-30787500D01*
X61015000Y-35767500D02*
X61015000Y-34317500D01*
X61055000Y-32237500D02*
X61055000Y-30776500D01*
X61055000Y-35778500D02*
X61055000Y-34317500D01*
X61095000Y-32237500D02*
X61095000Y-30767500D01*
X61095000Y-35787500D02*
X61095000Y-34317500D01*
X61135000Y-32237500D02*
X61135000Y-30758500D01*
X61135000Y-35796500D02*
X61135000Y-34317500D01*
X61175000Y-32237500D02*
X61175000Y-30749500D01*
X61175000Y-35805500D02*
X61175000Y-34317500D01*
X61215000Y-32237500D02*
X61215000Y-30741500D01*
X61215000Y-35813500D02*
X61215000Y-34317500D01*
X61255000Y-32237500D02*
X61255000Y-30734500D01*
X61255000Y-35820500D02*
X61255000Y-34317500D01*
X61295000Y-32237500D02*
X61295000Y-30728500D01*
X61295000Y-35826500D02*
X61295000Y-34317500D01*
X61335000Y-32237500D02*
X61335000Y-30722500D01*
X61335000Y-35832500D02*
X61335000Y-34317500D01*
X61375000Y-32237500D02*
X61375000Y-30717500D01*
X61375000Y-35837500D02*
X61375000Y-34317500D01*
X61415000Y-32237500D02*
X61415000Y-30712500D01*
X61415000Y-35842500D02*
X61415000Y-34317500D01*
X61455000Y-32237500D02*
X61455000Y-30708500D01*
X61455000Y-35846500D02*
X61455000Y-34317500D01*
X61495000Y-35849500D02*
X61495000Y-30705500D01*
X61535000Y-35852500D02*
X61535000Y-30702500D01*
X61575000Y-35854500D02*
X61575000Y-30700500D01*
X61615000Y-35856500D02*
X61615000Y-30698500D01*
X61655000Y-35857500D02*
X61655000Y-30697500D01*
X61695000Y-35857500D02*
X61695000Y-30697500D01*
X64249775Y-35002500D02*
X64249775Y-34502500D01*
X64499775Y-34752500D02*
X63999775Y-34752500D01*
X64315000Y-33277500D02*
G75*
G02*
X59075000Y-33277500I-2620000J0D01*
G01*
X59075000Y-33277500D02*
G75*
G02*
X64315000Y-33277500I2620000J0D01*
G01*
%TO.C,C3*%
X38046252Y-42805000D02*
X37523748Y-42805000D01*
X38046252Y-44275000D02*
X37523748Y-44275000D01*
%TO.C,U3*%
X24070000Y-21480000D02*
X24070000Y-26940000D01*
X24070000Y-28940000D02*
X24070000Y-34400000D01*
X24070000Y-34400000D02*
X54670000Y-34400000D01*
X54670000Y-21480000D02*
X24070000Y-21480000D01*
X54670000Y-34400000D02*
X54670000Y-21480000D01*
X24070000Y-26940000D02*
G75*
G02*
X24070000Y-28940000I0J-1000000D01*
G01*
%TO.C,R23*%
X58665000Y-21427064D02*
X58665000Y-20972936D01*
X60135000Y-21427064D02*
X60135000Y-20972936D01*
%TO.C,C6*%
X54386252Y-42805000D02*
X53863748Y-42805000D01*
X54386252Y-44275000D02*
X53863748Y-44275000D01*
%TO.C,R14*%
X42685436Y-40265000D02*
X43139564Y-40265000D01*
X42685436Y-41735000D02*
X43139564Y-41735000D01*
%TO.C,R20*%
X72370000Y-27154564D02*
X72370000Y-26700436D01*
X73840000Y-27154564D02*
X73840000Y-26700436D01*
%TO.C,U1*%
X66100000Y-27472500D02*
X66195000Y-27472500D01*
X66100000Y-31592500D02*
X66100000Y-27472500D01*
X66195000Y-31592500D02*
X66100000Y-31592500D01*
X71125000Y-27472500D02*
X71220000Y-27472500D01*
X71220000Y-27472500D02*
X71220000Y-31592500D01*
X71220000Y-31592500D02*
X71125000Y-31592500D01*
X66190000Y-32132500D02*
X65860000Y-32372500D01*
X65860000Y-31892500D01*
X66190000Y-32132500D01*
G36*
X66190000Y-32132500D02*
G01*
X65860000Y-32372500D01*
X65860000Y-31892500D01*
X66190000Y-32132500D01*
G37*
%TO.C,C10*%
X67966252Y-23652500D02*
X67443748Y-23652500D01*
X67966252Y-25122500D02*
X67443748Y-25122500D01*
%TO.C,R19*%
X64084564Y-21112500D02*
X63630436Y-21112500D01*
X64084564Y-22582500D02*
X63630436Y-22582500D01*
%TO.C,R12*%
X27435436Y-40265000D02*
X27889564Y-40265000D01*
X27435436Y-41735000D02*
X27889564Y-41735000D01*
%TO.C,C5*%
X27886252Y-42805000D02*
X27363748Y-42805000D01*
X27886252Y-44275000D02*
X27363748Y-44275000D01*
%TO.C,R10*%
X37595436Y-40265000D02*
X38049564Y-40265000D01*
X37595436Y-41735000D02*
X38049564Y-41735000D01*
%TD*%
M02*
